<?xml version="1.0" encoding="UTF-8" standalone="no"?>
<svg
   xmlns:dc="http://purl.org/dc/elements/1.1/"
   xmlns:cc="http://creativecommons.org/ns#"
   xmlns:rdf="http://www.w3.org/1999/02/22-rdf-syntax-ns#"
   xmlns:svg="http://www.w3.org/2000/svg"
   xmlns="http://www.w3.org/2000/svg"
   xmlns:sodipodi="http://sodipodi.sourceforge.net/DTD/sodipodi-0.dtd"
   xmlns:inkscape="http://www.inkscape.org/namespaces/inkscape"
   width="210mm"
   height="297mm"
   viewBox="0 0 210 297"
   version="1.1"
   id="svg8"
   inkscape:version="1.0.2-2 (e86c870879, 2021-01-15)"
   sodipodi:docname="barbarian.svg">
  <defs
     id="defs2" />
  <sodipodi:namedview
     id="base"
     pagecolor="#ffffff"
     bordercolor="#666666"
     borderopacity="1.0"
     inkscape:pageopacity="0.0"
     inkscape:pageshadow="2"
     inkscape:zoom="1.4"
     inkscape:cx="386.67145"
     inkscape:cy="421.74984"
     inkscape:document-units="mm"
     inkscape:current-layer="layer1"
     inkscape:document-rotation="0"
     showgrid="false"
     inkscape:window-width="3736"
     inkscape:window-height="2126"
     inkscape:window-x="93"
     inkscape:window-y="-11"
     inkscape:window-maximized="1" />
  <metadata
     id="metadata5">
    <rdf:RDF>
      <cc:Work
         rdf:about="">
        <dc:format>image/svg+xml</dc:format>
        <dc:type
           rdf:resource="http://purl.org/dc/dcmitype/StillImage" />
        <dc:title></dc:title>
      </cc:Work>
    </rdf:RDF>
  </metadata>
  <g
     inkscape:label="Layer 1"
     inkscape:groupmode="layer"
     id="layer1">
    <path
       style="fill:#ad2630;stroke:none;stroke-width:0.264583"
       d="m 64.652833,44.601189 c 0.34052,1.910556 1.58564,5.997839 3.96875,4.497916 0.49927,1.141942 1.5187,3.384286 2.70139,3.932767 1.01389,0.470429 1.80367,-0.445029 2.85486,0.353219 1.0451,0.79375 2.52042,2.976298 3.96875,2.902214 1.47134,-0.07514 2.61805,-2.054489 3.70416,-2.852208 1.08718,-0.798248 1.75234,0.02593 2.82417,-0.297127 1.23904,-0.373327 2.31166,-2.928144 2.73208,-4.038865 2.72574,1.437746 2.78236,-1.907116 3.98807,-3.666331 0.79533,-1.160198 1.80049,-1.320006 1.81186,-2.948252 0.0616,-8.97255 -5.02232,-18.459185 -14.79576,-19.228435 -7.1673,-0.564145 -12.57141,5.96937 -14.46001,12.084685 -0.62045,2.009246 -2.32463,9.024673 0.70168,9.260417 m 24.07708,3.175 c -2.27886,-0.842963 -3.20543,2.030941 -4.23333,3.704166 -2.71675,-0.932127 -4.48628,1.614223 -6.35,3.439584 h -0.26459 c -1.91664,-1.911615 -3.50943,-4.279636 -6.35,-3.439584 -0.97446,-1.823508 -1.88277,-4.363243 -4.23333,-3.704166 -0.64347,-1.658673 -1.25412,-3.902075 -2.91042,-4.7625 5.3e-4,-5.564452 1.32821,-11.605842 5.83116,-15.313978 10.1637,-8.369485 21.1746,2.411254 21.41696,13.197311 0.0524,2.331508 -1.90262,4.760913 -2.90645,6.879167 m -14.2875,-12.7 0.52917,1.322916 c -0.63712,0.174361 -1.24169,0.387086 -1.85262,0.641615 l -1.32106,0.569912 c -3.69755,1.632744 2.02988,3.163888 2.89454,4.885267 0.99483,1.980406 1.51051,6.268508 3.71872,7.132373 1.39488,-2.4511 1.78752,-6.465623 3.99732,-8.305271 0.69956,-0.582612 3.56209,-1.524529 3.21205,-2.715419 -0.52864,-1.798902 -3.78063,-1.118923 -4.29895,-3.26681 h 0.52916 c 0.70168,1.422135 2.68156,2.253192 3.65654,0.50038 0.4281,-0.769488 0.0701,-1.530059 0.23125,-2.328783 0.10319,-0.512498 1.15067,-1.708124 0.24977,-2.053802 -0.821,-0.315066 -2.81993,1.205733 -3.60839,1.564243 -0.93742,0.426297 -1.62745,0.884106 -2.11667,1.788795 h -0.52916 c -1.05146,-2.002631 -2.34315,-1.874176 -3.43959,0 -0.74109,-0.676037 -1.48299,-1.291907 -2.38125,-1.753076 -0.72707,-0.373195 -2.88078,-1.881293 -3.64252,-1.711404 -0.9644,0.215106 -0.0304,1.653037 0.0754,2.141564 0.1778,0.821108 -0.17991,1.59131 0.32782,2.352463 1.18163,1.771068 3.11362,0.817245 3.76846,-0.764963 m -30.95625,-3.175 c 0.24051,3.050381 6.27433,5.328708 8.46667,7.14375 -1.01071,-0.0799 -3.84201,-1.026584 -4.56353,-0.10504 -0.66966,0.854869 1.13929,2.009246 1.65311,2.451894 2.23944,1.928548 4.51829,4.495006 7.14375,5.855229 v 0.264583 c -1.09405,-0.186002 -4.18861,-1.80922 -5.11651,-1.040341 -1.1168,0.925512 2.44105,3.237971 2.99985,3.72745 2.79479,2.446866 5.62874,4.857221 8.46666,7.254875 0.68316,0.577056 2.07487,2.192866 3.08584,1.988873 0.86519,-0.174625 0.0622,-1.277938 -0.2159,-1.588559 -0.98002,-1.095375 -2.29897,-1.946275 -3.3991,-2.920735 -0.94774,-0.839523 -1.95818,-1.602052 -2.91042,-2.435754 -1.49648,-1.310217 -3.0353,-2.580217 -4.49792,-3.927475 l 5.29167,1.5875 c 0.36962,-1.643857 -1.23428,-2.58154 -2.38125,-3.548063 -2.35611,-1.985433 -5.34247,-4.001558 -7.14375,-6.506104 0.77576,0.23151 5.12339,1.343025 5.12339,0.0093 0,-1.032668 -2.0111,-1.971145 -2.74214,-2.447395 -2.77945,-1.809962 -5.95868,-5.125482 -9.26042,-5.763948 m 62.706247,8.202083 c -1.95262,2.421467 -4.81621,4.297098 -7.143747,6.363229 -0.77787,0.690563 -2.25874,1.562894 -2.55428,2.616994 -0.50827,1.811867 4.535477,-0.219075 5.200117,-0.513556 -2.536297,2.922323 -6.048637,5.274998 -8.995837,7.785893 -0.52149,0.4445 -2.88475,2.02565 -2.33468,2.894542 0.69268,1.094581 3.39672,-1.708414 3.92218,-2.148681 3.02049,-2.530475 5.973497,-5.143236 8.995837,-7.672917 0.53525,-0.447939 2.78818,-1.904206 2.09391,-2.81596 -0.73237,-0.961496 -4.04469,0.676804 -5.00433,0.898789 2.15715,-2.13942 4.55321,-4.066645 6.87917,-6.020329 0.55245,-0.464079 2.31139,-1.631421 1.8055,-2.551112 -0.52281,-0.950384 -3.58456,-0.0048 -4.45134,0.104775 1.06601,-0.959644 2.25372,-1.749425 3.43959,-2.554817 l 2.11665,-1.413933 c 2.05476,-1.369986 3.65152,-4.344644 0.26459,-2.06502 -2.30557,1.551728 -4.57094,3.164072 -6.87916,4.710588 -0.7657,0.513028 -2.26695,1.172369 -2.55429,2.125927 -0.48022,1.593057 4.45056,0.479161 5.20012,0.255588 m -33.072907,-5.55625 c -0.55404,0.964274 -1.13639,0.800418 -1.32292,-0.264583 l 1.32292,0.264583 m 11.37708,0 c -0.55404,0.964274 -1.13639,0.800418 -1.32292,-0.264583 l 1.32292,0.264583 m -6.08542,0.264583 c 1.37213,2.074069 2.91201,2.841096 5.02709,3.96875 v 0.264584 c -2.60906,1.502568 -3.0951,-1.619515 -5.29246,-1.872986 -2.00025,-0.230981 -3.14193,3.953404 -5.29088,1.608402 l 5.55625,-3.96875 m -0.26458,3.439584 c 0.57468,0.736864 1.9222,1.552045 2.17249,2.436548 0.44133,1.558925 -1.51103,4.632854 -2.17249,6.030118 l -2.64583,-6.35 2.64583,-2.116666 m -44.98948,7.375789 c -1.46103,0.437092 -1.67826,2.810669 -0.0439,2.322248 1.0742,-0.320939 1.75021,-2.832364 0.0439,-2.322248 m 88.816897,0.06773 c -0.84058,0.584993 0.31142,2.790825 1.38086,2.147093 1.45045,-0.873125 -0.304,-2.897187 -1.38086,-2.147093 m -81.662837,0.493977 c -0.36486,0.105568 -0.72442,0.185208 -1.06494,0.361685 -3.07975,1.594379 2.03702,3.628761 1.06494,-0.361685 m 75.501757,0.328348 c -1.09908,0.55192 0.32649,2.771245 1.45256,2.118783 1.48299,-0.859102 -0.30242,-2.696369 -1.45256,-2.118783 m -86.877777,0.871273 c -3.66157,0.881591 -2.92021,6.707716 1.05701,5.838825 3.85154,-0.841376 3.05726,-6.82969 -1.05701,-5.838825 m 96.046647,0.05503 c -3.49779,1.373716 -0.77788,7.020719 2.63789,5.69251 3.69094,-1.435364 0.92366,-7.091098 -2.63789,-5.69251 m -86.522707,4.830729 h 0.26458 c -0.25744,2.478352 1.02897,3.682471 3.43958,3.704167 -2.413,2.5527 -1.04589,7.8994 2.90539,5.359929 3.15384,-2.026973 1.06522,-6.169554 -2.37622,-5.359929 v -0.264583 c 2.9255,-1.554163 2.58763,-6.44578 -1.32292,-5.760244 -0.99933,0.175154 -1.67322,0.857779 -2.38125,1.52691 -0.0931,-3.849687 -5.19588,-4.749006 -6.09388,-0.79375 -0.82285,3.624792 4.0222,4.406636 5.56472,1.5875 m 7.12893,-4.025371 c -1.66555,0.248973 -1.94231,2.751932 -0.27358,2.315898 0.96732,-0.252941 1.83303,-2.548731 0.27358,-2.315898 m 66.689807,0.850371 c -0.34608,-0.217487 -0.68818,-0.468577 -1.06998,-0.624416 -3.20515,-1.310482 -0.30453,4.445793 1.06998,0.624416 m 4.7625,2.38125 c -0.93795,-0.853016 -2.05978,-1.865577 -3.43959,-1.658408 -3.08583,0.463815 -2.94507,4.445529 -0.52916,5.627158 v 0.264584 c -3.8698,0.01111 -5.26944,5.025496 -1.05834,5.940425 3.41498,0.741891 4.52808,-3.776927 1.85209,-5.411259 v -0.264583 c 2.3868,-0.05768 3.41868,-1.397 3.43958,-3.704167 2.07592,2.577307 7.09718,1.882775 5.51709,-2.115608 -1.42293,-3.600185 -5.75045,-2.139156 -5.78167,1.321858 M 29.463503,48.700114 c 2.13095,-0.410634 2.09497,2.70457 0.2532,3.14616 -2.27541,0.545571 -2.25583,-2.760133 -0.2532,-3.14616 m 96.103797,0.03466 c 1.74096,-0.693473 3.4462,2.35929 1.47055,3.053556 -1.72217,0.604838 -3.26178,-2.340239 -1.47055,-3.053556 m -89.753797,0.772319 c 2.25637,-0.376767 2.03517,2.990056 -0.003,3.193785 -2.22356,0.221986 -1.88383,-2.878666 0.003,-3.193785 m 83.636627,-0.01693 c 1.76504,-0.421746 3.20331,2.456127 1.26551,3.101181 -1.75816,0.585258 -3.31074,-2.612496 -1.26551,-3.101181 M 41.638043,51.34595 c 2.18519,-0.423598 2.16402,2.687108 0.25744,3.161771 -2.22541,0.554037 -2.22621,-2.779977 -0.25744,-3.161771 m 71.978297,0.04101 c 1.83065,-0.615156 3.26337,2.438665 1.27846,3.043238 -1.70656,0.519642 -3.25755,-2.378075 -1.27846,-3.043238 m -74.716207,0.269875 -0.0884,0.176213 0.0884,-0.176213 m -14.1994,1.812661 c -5.06753,1.082939 -6.80923,7.621323 -3.15039,11.212248 1.55125,1.522412 3.99918,1.377685 5.42846,2.973387 1.01547,1.13374 1.13241,2.648479 1.83832,3.933561 1.42346,2.591858 4.41193,3.837781 7.2607,3.222889 6.56722,-1.417637 4.71725,-7.835371 3.9026,-12.483306 -0.29422,-1.678252 -0.41275,-4.373827 -1.45203,-5.764213 -0.80142,-1.071827 -2.29897,-1.224491 -3.50891,-1.49172 -3.13769,-0.693473 -7.10168,-2.290498 -10.31875,-1.602846 m 103.981237,-0.01323 c -2.73367,0.459316 -5.47581,1.182158 -8.20208,1.728258 -1.2618,0.252677 -2.60376,0.415396 -3.32925,1.615281 -0.95673,1.582473 -1.13083,3.994679 -1.45521,5.793052 -0.40931,2.268273 -1.27899,4.543161 -0.98742,6.879167 0.47545,3.80656 4.36112,5.824539 7.88855,5.204619 4.40266,-0.773642 3.72004,-4.892146 6.36164,-7.264665 2.37887,-2.136775 5.54725,-1.714764 6.7437,-5.348287 1.45309,-4.413779 -2.20186,-9.416786 -7.01993,-8.607425 m -20.47371,0.705908 c -0.93424,0.610658 0.29077,2.795323 1.38747,2.146565 1.44991,-0.85778 -0.31089,-2.850621 -1.38747,-2.146565 m -61.281467,0.141817 c -1.47346,0.43127 -1.3708,2.675731 0.20849,2.269066 1.27106,-0.327289 1.60893,-2.801143 -0.20849,-2.269066 m -21.69689,0.438414 c 2.6887,-0.468312 6.6331,0.864129 9.26042,1.541463 0.9951,0.256646 2.31457,0.423862 2.94825,1.3208 0.82656,1.170252 0.78713,3.092185 1.07632,4.459023 0.762,3.604154 3.01916,10.084593 -2.43707,11.273896 -6.06055,1.320799 -5.34723,-4.503473 -8.73522,-7.2009 -2.03491,-1.620309 -4.74107,-1.390386 -5.97112,-4.073261 -1.38641,-3.024187 0.61119,-6.755606 3.85842,-7.321021 M 128.15281,55.00593 c 3.98409,-0.646112 7.83775,2.638425 6.14759,6.793177 -1.24486,3.060436 -4.24788,2.639748 -6.38439,4.584965 -2.42994,2.212446 -1.79309,6.386777 -5.84862,7.000346 -7.55306,1.142735 -5.85311,-7.53745 -4.76329,-11.849894 0.30533,-1.208617 0.26564,-2.876285 1.02129,-3.908425 1.37768,-1.881452 7.5901,-2.257425 9.82742,-2.620169 m -14.2875,0.707761 -0.26459,0.264583 0.26459,-0.264583 m -70.375977,1.46632 c 2.25266,-0.381529 2.13333,3.010165 -0.003,3.220244 -2.1598,0.212461 -1.78938,-2.916502 0.003,-3.220244 m 68.274917,0.02143 c 1.84018,-0.658548 3.29512,2.455068 1.2917,3.049587 -1.69386,0.502444 -3.22871,-2.356644 -1.2917,-3.049587 M 64.388233,104.13243 c -1.69571,-0.17965 -2.85115,1.25281 -3.96478,2.38231 -2.71277,2.75114 -5.08026,6.07404 -6.81752,9.52394 -7.70784,15.30536 -4.62333,30.80623 4.69689,44.45 2.68261,-0.79375 4.59369,-6.6368 5.86422,-8.99583 0.48948,-0.90858 1.48246,-2.11878 1.52321,-3.175 0.0942,-2.43258 -3.26655,-3.84572 0.28548,-5.55625 0.48895,1.33324 1.97856,2.57466 2.109,3.96875 0.11086,1.1848 -2.4474,5.56736 -1.15173,6.30343 1.37451,0.78079 3.76025,-3.37873 5.01597,-3.77507 1.0996,-0.34687 3.12975,0.812 4.34551,0.91122 -0.68553,3.69253 0.43154,7.43136 0.77391,11.1125 0.0656,0.70565 0.002,3.38482 1.07818,3.38482 1.06944,0 1.01494,-2.67891 1.09934,-3.38482 0.39423,-3.29353 1.70577,-7.62344 0.75274,-10.84791 1.21126,-0.39397 3.27686,-1.52797 4.49792,-0.87101 1.06494,0.57256 3.27527,3.98674 4.66883,3.42926 0.91202,-0.36486 0.0659,-1.97776 -0.11959,-2.55825 -0.78449,-2.45825 -1.38536,-3.62612 0.23389,-5.82057 0.41196,-0.55827 0.94562,-1.69519 1.81399,-1.41949 1.143,0.36274 0.91969,1.67534 0.48921,2.47756 -2.05158,3.82323 1.3507,7.53798 3.27581,11.1125 0.47281,0.87736 1.62666,4.09866 3.01307,3.21442 2.746907,-1.75234 4.703767,-6.68099 5.939097,-9.56442 4.77467,-11.14399 4.24736,-24.59197 -1.73963,-35.18959 -1.80472,-3.19458 -3.864237,-6.1206 -6.462447,-8.73125 -0.72919,-0.73289 -1.79282,-2.2553 -2.89057,-2.40215 -1.61634,-0.2159 1.04299,5.25912 1.29196,6.10632 1.03611,3.52875 -0.70035,5.51418 -0.83608,8.73125 -0.16034,3.80021 4.83579,8.05524 -0.48604,10.96883 -2.04285,1.1184 -4.44844,-1.17422 -4.71779,-3.29591 -0.13705,-1.0803 0.83608,-2.47439 1.2491,-3.43959 0.24209,-0.5662 1.15411,-2.10555 0.39873,-2.60958 -1.93596,-1.29196 -4.41934,4.74742 -6.62517,3.16468 -0.79851,-0.57309 -0.61278,-1.8198 -0.61304,-2.67176 -0.001,-2.42888 -0.79375,-4.47517 -0.79375,-6.87917 V 86.140773 c 2.64874,-0.20638 1.5875,-5.65415 1.5875,-7.67292 V 64.974105 c 0,-1.468702 0.51276,-4.116387 -0.15954,-5.441421 -0.38947,-0.767291 -1.50495,-0.640027 -2.22171,-0.643731 -1.95263,-0.01032 -5.29855,-0.637646 -7.08343,0.196056 -1.52929,0.714375 -0.85407,4.498182 -0.85407,5.889096 v 17.991668 c 0,0.82126 -0.20452,2.04972 0.31168,2.7559 0.53525,0.7321 1.33032,0.69268 1.50124,1.74704 1.21709,7.50888 0.0392,16.190377 0.0392,23.807467 0,2.61991 -0.57758,4.90458 -0.7784,7.40834 -0.10901,1.36022 0.36777,3.18664 -0.17489,4.46272 -1.46394,3.44197 -5.56339,-3.78274 -7.34219,-2.57439 -0.82417,0.55959 0.53896,2.76675 0.8128,3.40333 0.96494,2.24235 1.17952,4.95459 -1.56871,6.31878 -2.55429,1.26789 -4.84928,-3.00672 -4.66011,-4.99586 0.19738,-2.0738 1.95898,-4.09337 1.92749,-6.08542 -0.0423,-2.67229 -1.6682,-4.44526 -1.11151,-7.40833 0.50376,-2.68182 2.16561,-5.03687 2.57677,-7.67292 M 49.042413,60.211605 c -5.08503,0.906992 0.63288,4.665398 0,0 m 32.80833,0.79375 h -7.67291 c 0.7911,-1.046956 6.91329,-1.072091 7.67291,0 m 24.870837,-0.529166 c 0.10556,0.36486 0.1852,0.724429 0.36168,1.064948 1.58035,3.053027 3.59965,-2.029884 -0.36168,-1.064948 m 3.969,1.484841 c -3.99811,0.968904 -1.62666,6.843713 2.11508,5.808663 3.63247,-1.004623 1.3089,-6.638396 -2.11508,-5.808663 m -66.939837,0.275696 c -3.69808,1.141942 -2.70113,6.897423 1.32266,5.79755 3.66183,-1.000654 2.62731,-7.017544 -1.32266,-5.79755 m 37.83542,0.09155 v 0.264583 c -2.05475,1.296723 -4.97655,2.926027 -7.40833,3.175 0,-0.832114 -0.27702,-2.322248 0.27199,-3.015456 0.93504,-1.180571 5.70124,-0.424127 7.13634,-0.424127 m -37.30307,1.201738 c 2.13518,-0.361686 2.17937,2.748227 0.25744,3.169708 -2.27965,0.500327 -2.23759,-2.833952 -0.25744,-3.169708 m 66.467547,0.01746 c 1.7018,-0.729721 3.59543,1.95236 1.73144,2.865437 -1.65259,0.809626 -3.5695,-2.077243 -1.73144,-2.865437 M 63.594493,86.934523 c 1.58353,1.0451 4.01797,1.04537 4.3688,-1.32318 0.24977,-1.6854 -1.44885,-2.46089 -1.6838,-3.96955 -0.53526,-3.43693 -0.063,-7.366261 -0.0389,-10.846854 0.0143,-2.096823 2.67996,-3.738298 1.35995,-5.806282 -1.24804,-1.95527 -7.49855,-1.772179 -8.12059,0.779463 -0.42968,1.762919 1.44569,2.44819 1.69413,3.978804 0.57123,3.520281 0.18918,7.800979 0.0341,11.366499 -0.0812,1.86611 -2.25637,2.76675 -1.73117,4.76171 0.50668,1.92537 2.79215,2.30134 4.11745,1.05939 m 29.10416,0 c 1.18851,1.5613 3.63167,0.47387 3.90419,-1.32318 0.26988,-1.77853 -1.50018,-2.41168 -1.74836,-3.97246 -0.55536,-3.49223 -0.10478,-7.570255 -0.0378,-11.108263 0.0373,-1.983317 2.28706,-2.936081 1.69836,-5.023379 -0.69057,-2.447925 -6.88314,-2.405856 -8.08699,-0.518584 -1.25492,1.967178 1.35599,3.958432 1.36022,6.070865 0.007,3.473979 0.51673,7.410711 -0.0392,10.837601 -0.23283,1.43509 -1.90579,2.09258 -1.64703,3.71051 0.3982,2.48867 2.94561,2.15662 4.59661,1.32689 m -10.84792,-22.754168 -0.27199,3.271044 -7.13634,3.608123 -0.26459,-3.439583 7.67292,-3.439584 m -18.78542,2.645834 c 0.90303,-0.269875 2.28362,-2.221177 3.22871,-1.162315 0.77153,0.864658 -1.35308,2.625196 -1.3753,3.808413 -0.0915,4.846637 -0.001,9.704126 -0.001,14.551816 1.03743,0.16193 2.64186,1.7526 0.78978,2.16112 -1.0377,0.22886 -1.20782,-1.35626 -2.07539,-1.20148 -0.86572,0.15426 -1.18137,1.9267 -2.33045,0.98584 -0.87392,-0.7157 1.23216,-3.28745 1.23481,-4.59131 0.008,-4.08967 0.35004,-8.359511 -0.0156,-12.431449 -0.10557,-1.176602 -1.86955,-1.786467 -1.61634,-2.87999 0.39635,-1.712912 1.97247,-0.144991 2.16112,0.759355 m 29.89791,0 c 0.19235,-0.922073 1.73197,-2.462213 2.18229,-0.759355 0.2868,1.083469 -1.53194,1.702594 -1.63751,2.87999 -0.36592,4.071938 -0.0241,8.342049 -0.0156,12.431449 0.003,1.30863 2.20424,3.79306 1.42399,4.56194 -1.23243,1.2147 -1.6764,-1.12977 -2.68314,-0.95647 -0.79084,0.136 -0.86519,1.43801 -1.88172,1.20148 -1.68063,-0.39106 -0.20664,-2.00713 0.75962,-2.16112 l -0.001,-14.552081 -1.12421,-3.956315 2.97762,1.310482 m -11.1125,2.38125 c 0,0.895614 0.24923,2.269331 -0.272,3.049587 -1.03028,1.54305 -5.61684,3.246967 -7.40092,3.564997 0.0603,-0.93689 -0.25903,-2.245784 0.27199,-3.070755 1.08638,-1.688042 5.52635,-3.008048 7.40093,-3.543829 m 0,4.7625 c 0,0.948264 0.28204,2.455334 -0.272,3.278184 -1.07367,1.59465 -5.56048,3.2729 -7.40092,3.60098 0,-0.9136 -0.2413,-2.26695 0.27199,-3.07181 1.08241,-1.69677 5.52133,-3.223948 7.40093,-3.807354 m -70.37921,21.695834 h -0.26459 c -0.97448,-3.76502 -2.3682498,-3.14193 -2.9104098,0.52916 -2.28566,0.381 -0.16095,1.31869 1.05833,1.32292 l 0.26458,-1.32292 h 0.26459 c 0.10205,0.75777 0.7245098,5.983817 1.9696598,5.245097 0.99248,-0.58869 0.64455,-3.228437 0.6866,-4.186757 0.18219,-4.15502 1.04745,-8.26638 1.0479,-12.43542 h 0.26459 c 0.42275,5.35675 0.73512,10.81035 1.4352,16.139577 0.11303,0.86043 -0.0673,4.85061 1.00137,5.04799 0.95756,0.17648 1.2491,-1.80102 1.42071,-2.40215 0.77499,-2.71436 1.65595,-5.437187 2.22813,-8.202087 h 0.26459 c 0.14499,0.78132 0.0363,4.19153 1.30916,3.98966 1.09643,-0.17384 1.86451,-2.46142 2.65959,-3.19591 0.42227,1.93543 2.91941,1.3335 4.49791,1.32266 0.52176,-0.003 2.04444,0.10953 2.02512,-0.74851 -0.0236,-1.05516 -3.90683,-0.42148 -4.63285,-0.73369 -0.95938,-0.41301 -1.17845,-1.89918 -1.6256,-2.75087 l -2.38125,3.175 h -0.26516 c -0.0714,-0.90461 -0.20876,-5.65256 -1.32398,-5.65256 -0.85534,0 -1.11649,1.61158 -1.28164,2.21297 -0.71527,2.60456 -1.76263,5.26786 -2.15688,7.937497 h -0.26459 l -1.77675,-18.785407 -0.86908,-6.87917 c -1.66365,0.91731 -1.21065,3.37635 -1.36784,5.02709 -0.4835,5.07735 -1.27799,10.24281 -1.27799,15.34583 m 38.36458,-0.26459 h -0.26458 c -0.33867,-1.30889 -0.31697,-2.65509 -1.85209,-2.91041 -0.81015,3.50176 -1.92563,3.70416 -5.29166,3.70416 0.44,2.63605 4.82864,1.22741 6.08541,0 0.0143,0.68792 0.66278,6.405827 1.86002,5.116517 0.80831,-0.87048 0.52891,-2.955927 0.67363,-4.058177 0.53499,-4.07591 0.90594,-8.32432 0.90594,-12.43542 h 0.26458 c 1.22529,5.14641 0.86625,10.87967 1.51209,16.139577 0.1913,1.55761 -0.24209,4.63233 1.39833,5.29167 1.55389,-2.94905 3.02286,-7.781657 3.175,-11.112497 h 0.26458 c 0.21722,0.90937 0.0804,3.6957 0.94933,4.18677 1.18295,0.6686 2.43707,-2.65166 2.75484,-3.39302 0.28019,0.54531 0.5162,1.16523 1.11786,1.42822 1.60364,0.70088 8.26347,0.7747 8.9363,-0.89905 l -7.64407,-0.34872 -2.15318,-2.50693 -2.109,2.85565 h -0.26458 c -0.0712,-1.65524 0.14314,-5.4745 -1.85208,-5.82084 l -2.91042,10.583337 h -0.26458 l -1.54358,-17.197917 -1.10226,-8.73125 c -1.61237,0.889 -1.23481,3.40334 -1.34673,5.02709 -0.34422,4.99982 -1.28534,10.07004 -1.2991,15.08124 m 53.710417,-20.10833 -1.08109,8.99583 -1.56475,16.933337 h -0.26458 c -0.23469,-2.689487 -1.481137,-5.318127 -2.116667,-7.937497 -0.16033,-0.6612 -0.39449,-2.47756 -1.34302,-2.47756 -1.14856,0 -1.23005,4.73154 -1.30281,5.65256 -0.61648,-0.67628 -1.32662,-2.85565 -2.37067,-2.85565 -0.97102,0 -0.99642,1.84494 -1.70894,2.31907 -1.31313,0.87392 -4.43733,0.26167 -5.97456,0.27226 -0.50218,0.003 -1.73302,-0.13044 -1.87298,0.57388 -0.18283,0.91996 1.66158,0.74771 2.13757,0.74877 h 7.14375 l 0.52916,-1.5875 c 0.31539,0.73184 1.61343,4.03437 2.7559,3.39302 0.87022,-0.48869 0.73581,-3.03266 0.94827,-3.92219 l 3.439577,10.847917 c 1.6256,-0.65352 1.2319,-3.49753 1.4351,-5.02708 0.69797,-5.251717 0.50721,-10.659537 1.47532,-15.874997 h 0.26458 c 0,4.13279 0.62072,8.32485 1.01336,12.43541 0.0741,0.77365 -0.21167,3.519487 0.88662,3.725067 1.16046,0.21723 1.64041,-4.467747 1.80419,-5.312567 h 0.26458 l 0.26459,1.32292 c 0.46989,0 5.37526,0.0492 4.05817,-1.05622 -0.70829,-0.59425 -1.8751,-0.0283 -2.65219,-0.53869 -0.78369,-0.51461 -0.87524,-3.64701 -2.14523,-3.23321 -0.90249,0.29396 -0.96123,2.45904 -1.11284,3.24062 -1.37927,-4.6646 -1.07976,-10.48332 -1.54252,-15.34583 -0.16192,-1.70207 0.35825,-4.33996 -1.36789,-5.29167 m 35.71874,25.929167 h -0.26459 c -0.24156,-2.770717 -1.43457,-5.522117 -2.14735,-8.202087 -0.15029,-0.56515 -0.56383,-2.85326 -1.62984,-2.09391 -0.96678,0.68898 -0.73818,4.32276 -1.24989,5.5335 l -2.38125,-3.175 c -0.45482,0.97261 -1.20227,2.28944 -1.08558,3.40016 0.14843,1.41234 1.19829,0.20796 1.35016,-0.48975 0.92128,0.78396 1.42214,2.62917 2.4728,3.12844 1.44039,0.684737 1.43563,-3.42212 1.49595,-4.18677 h 0.26459 c 0.39608,2.9382 1.53114,5.881157 2.34421,8.731247 0.14102,0.49504 0.56012,2.62784 1.48034,2.0701 1.0377,-0.62891 0.78449,-4.15819 0.89323,-5.2451 0.52838,-5.285047 0.95012,-10.584657 1.36763,-15.874997 h 0.26459 c 0.0114,4.14629 0.74506,8.30263 1.03478,12.43542 0.0632,0.90355 -0.18997,3.648867 0.70062,4.186757 1.2229,0.73846 1.87007,-4.247087 1.96876,-4.980507 h 0.26459 c 1.10252,1.99919 3.56235,0.10874 1.32291,-0.26459 -0.48312,-3.2713 -2.46459,-4.73842 -2.64583,-0.52916 h -0.52917 l -1.01335,-12.7 -0.83873,-7.67292 c -1.92537,0.77153 -1.51051,4.82203 -1.59782,6.61459 -0.29951,6.16267 -0.41486,13.32071 -1.84176,19.314577 m -19.57917,-5.027087 -4.23333,0.26459 1.32291,1.05833 c -1.53696,2.24816 -5.77558,6.330417 -4.26137,9.460437 0.86307,1.78435 3.18108,-1.38006 3.99679,-1.85049 0.50959,-0.29422 1.5285,-0.47149 1.64836,0.3675 0.2831,1.98147 -3.34804,2.12963 -3.63591,3.72348 -0.38523,2.13387 0.9271,4.86701 0.9271,7.08449 0,2.06507 -0.92445,4.05738 -0.92128,6.08541 0.003,1.87484 1.26101,3.93753 1.59438,5.82084 0.35878,2.02618 -0.13996,4.08993 0.20982,6.08541 0.32146,1.83489 1.41816,3.63432 2.22594,5.29167 1.00674,2.0656 3.86715,9.39483 6.68284,8.46667 -2.13016,-11.46757 -3.15383,-23.56168 -2.35744,-35.18959 0.22093,-3.22606 0.72814,-6.71592 1.74123,-9.78958 0.62018,-1.88251 2.11164,-3.519487 1.67454,-5.556247 0.45482,-0.005 2.96651,-0.43683 1.49834,-1.16443 -0.9443,-0.46805 -2.57995,-0.15849 -3.615,-0.15849 0,-3.92297 -0.32279,-7.99914 0.0156,-11.90625 0.1561,-1.80445 1.80843,-2.6154 0.7493,-4.49791 -1.89362,-3.36577 -4.79028,-3.6031 -8.17325,-2.37622 -1.34408,0.48736 -3.48562,2.02194 -3.50625,3.65892 -0.0114,0.90038 1.08743,0.65564 1.65444,0.61304 1.61051,-0.12118 3.63484,0.26246 4.49024,1.83303 0.57864,1.0623 0.27199,2.77257 0.27199,3.94414 v 8.73125 m -4.23333,-16.13958 c 1.86002,-2.29499 7.66736,-3.17764 8.39893,0.79243 0.29951,1.62507 -2.10344,1.75524 -3.10727,1.36287 -1.87219,-0.73158 -3.24934,-1.73382 -5.29166,-2.1553 M 29.727823,129.00327 c -0.4064,0.005 -2.39554,-0.018 -1.80552,0.91413 0.81307,1.28482 3.29486,-0.49556 3.83805,1.48273 0.78845,2.87073 0.49715,8.15022 0.045,11.09689 -0.15426,1.00436 -1.02606,1.66528 -1.18454,2.64583 -0.23098,1.42822 1.49092,3.33613 2.55058,4.09734 2.07539,1.49145 6.18093,0.40243 7.90972,-1.22211 0.54927,-0.51647 2.15371,-2.09788 1.57506,-2.96969 -0.39528,-0.59584 -1.75948,-0.17489 -2.345,-0.17806 -1.22264,-0.007 -2.73791,-0.47069 -3.54462,-1.45494 -0.75988,-0.92763 -0.42413,-2.70854 -0.42413,-3.82879 v -9.26042 h 3.96875 c -0.15266,-0.91916 -0.40375,-1.17025 -1.32292,-1.32291 1.79335,-1.87511 6.04944,-6.50187 4.37939,-9.4742 -0.88239,-1.57031 -3.0435,1.34249 -3.84995,1.82827 -0.49874,0.3003 -1.7452,0.6596 -1.76081,-0.331 -0.0344,-2.1582 3.71819,-2.06824 3.67533,-4.19788 -0.0394,-1.95024 -0.8046,-3.85894 -0.85249,-5.81686 -0.0577,-2.35453 0.84217,-4.56935 0.84482,-6.87917 0.002,-1.87695 -1.20994,-3.9317 -1.52744,-5.820827 -0.33258,-1.97908 0.1098,-3.89916 -0.17172,-5.82083 -0.29818,-2.03703 -1.6121,-4.25741 -2.52386,-6.08542 -1.08902,-2.18361 -2.28044,-4.35636 -3.6957,-6.34894 -0.43021,-0.60563 -1.04828,-1.62983 -1.89679,-1.65417 -1.14909,-0.0331 -0.59346,1.83118 -0.49319,2.44686 0.45905,2.81755 0.71623,5.6425 1.10543,8.46667 1.29593,9.4099 1.54887,19.150537 0.37571,28.574997 -0.28284,2.2725 -0.7784,4.76514 -1.66926,6.87916 -0.62468,1.48273 -1.88118,2.5908 -1.19988,4.23334 m 52.12292,-50.006247 v 3.70416 h -7.40833 c 1.75101,-1.62401 5.1144,-3.04323 7.40833,-3.70416 m -48.94791,2.64583 c 2.00104,3.03345 4.73366,7.22895 5.4057,10.84792 0.37597,2.02406 -0.13388,4.24338 0.23548,6.35 0.30877,1.760797 1.3335,3.520007 1.42981,5.291657 0.12197,2.23864 -0.73184,4.58153 -0.72073,6.87917 0.008,1.77006 0.74084,3.52081 0.67866,5.26706 -0.0783,2.19525 -4.65244,2.45983 -3.65257,5.31495 1.08532,3.10039 4.2537,0.74295 5.88406,-0.26326 -0.65801,3.69147 -3.87694,7.67265 -7.67291,7.67292 -0.87313,0 -2.91174,0.35877 -3.39725,-0.61331 -0.48075,-0.96308 0.87286,-2.49952 1.22819,-3.35544 1.10517,-2.66356 1.41156,-5.63748 1.79229,-8.46667 1.09643,-8.15208 0.38523,-16.19171 -0.17621,-24.341667 -0.20902,-3.03556 -1.92035,-7.70281 -1.03452,-10.58333 m 88.106237,14.55208 v -12.43541 l 1.69254,0.6133 0.15954,8.38253 -0.15954,2.82628 -1.69254,0.6133 M 81.850743,84.288683 v 0.52917 h -7.67291 v -0.52917 h 7.67291 m -1.5875,1.85209 V 117.3616 h -4.23333 V 86.140773 h 4.23333 m 43.127077,58.737497 c -2.47042,-2.10238 -5.2914,-7.88273 -5.76421,-11.1125 -0.27782,-1.89707 0.14552,-3.87297 -0.136,-5.82084 -0.27543,-1.90526 -1.60152,-3.93091 -1.54966,-5.82083 0.0479,-1.75816 0.74744,-3.51049 0.82497,-5.29167 0.0947,-2.18493 -1.03955,-4.71593 -0.65432,-6.82281 0.36142,-1.97829 4.43018,-2.26113 3.57823,-5.08211 -0.95594,-3.16601 -4.26535,-0.7546 -5.82401,0.26326 0.50324,-2.8239 3.50308,-7.613387 6.61458,-7.671597 0.9824,-0.0185 4.20979,-0.52043 4.46193,0.83159 0.21961,1.17792 -1.27608,3.031857 -1.62533,4.194167 -0.97764,3.25464 -1.41129,6.68258 -1.73329,10.05417 -1.00594,10.52671 -0.12858,21.88924 1.80711,32.27917 M 61.477833,107.8366 c -0.52097,2.19975 -1.43325,4.29286 -1.29831,6.61458 0.0955,1.63857 1.18745,3.18956 1.18559,4.7625 -0.005,4.39129 -4.40557,8.44815 1.17105,11.77872 0.82603,0.49319 1.71424,0.72629 2.64583,0.92128 -0.55033,4.23466 -6.83709,2.99667 -10.05416,4.49792 v 0.26458 c 2.49661,1.25651 7.41944,0.93583 9.37577,2.80459 1.83065,1.74836 -1.61898,3.18293 -1.81689,4.86833 -0.18865,1.60443 1.56765,2.72812 1.36498,4.23333 -0.40507,3.01149 -3.68088,7.15566 -5.2197,9.78959 h -0.52916 c -2.15874,-3.87774 -4.55401,-7.36415 -5.9481,-11.64167 -3.15172,-9.66946 -2.30479,-20.896 2.42993,-29.89792 1.61634,-3.07313 3.67824,-7.10247 6.69317,-8.99583 m 33.60208,0 c 9.203797,11.30353 13.240537,24.92216 8.553707,39.15833 -1.37292,4.17037 -3.659707,7.65625 -5.907877,11.37709 h -0.52916 c -1.31842,-2.91412 -4.88315,-6.88129 -5.12154,-10.05417 -0.11325,-1.50707 1.4986,-2.63551 1.30148,-4.23333 -0.19447,-1.57983 -3.32555,-2.92497 -1.77376,-4.60375 2.15661,-2.3331 7.50199,-0.33417 9.297977,-3.33375 -2.144177,-0.60246 -4.408747,-1.01362 -6.614577,-1.32292 -0.96203,-0.13494 -2.27383,-0.1815 -2.82602,-1.11866 -1.12553,-1.90923 1.47268,-2.20662 2.56038,-3.01228 1.18692,-0.87921 2.02168,-2.11561 2.40136,-3.54198 0.75829,-2.85009 -1.20836,-5.04587 -1.67402,-7.67291 -0.25533,-1.44119 0.9951,-3.23533 1.10199,-4.7625 0.15081,-2.1508 -1.30572,-4.95406 -0.76994,-6.87917 m -74.6125,2.04814 c -4.54303,0.0603 -4.05191,4.96914 -2.36492,7.74144 0.47897,0.78714 1.26661,2.59107 2.36519,2.59107 1.10357,0 1.95289,-1.78356 2.41458,-2.59107 1.56501,-2.73526 2.22541,-7.80335 -2.41485,-7.74144 M 133.5228,110.2406 c -4.53945,2.22145 -4.03278,12.93575 2.29235,9.788 3.08954,-1.53749 1.73937,-5.4573 0.37703,-7.69408 -0.4945,-0.81174 -1.45044,-2.69029 -2.66938,-2.09392 m -113.319967,8.17933 c -0.52766,-0.86201 -1.07731,-1.72667 -1.50175,-2.64583 -0.37309,-0.80804 -0.70284,-1.74202 -0.53734,-2.64477 0.55612,-3.03398 5.09185,-2.032 4.59681,1.05727 -0.13202,0.8255 -0.49053,1.64015 -0.86677,2.38099 -0.43048,0.84799 -0.85408,1.41843 -1.69095,1.85234 m 114.035397,-6.61458 c 0.89456,1.61316 2.71357,3.82535 1.95686,5.81581 -0.74215,1.95183 -3.95975,1.71952 -4.4868,-0.26088 -0.52705,-1.97829 1.11046,-3.94917 2.00078,-5.55493 h 0.52916 m -53.181237,6.87917 v 4.7625 h -5.82083 v -4.7625 h 5.82083 m -12.17083,4.7625 1.85208,1.85208 -1.32291,0.52917 -0.52917,-2.38125 m 18.78542,0 -1.05834,2.38125 c -1.5621,-0.89059 -0.0413,-1.914 1.05834,-2.38125 m -67.73334,0.66357 c -4.12324,0.61701 -3.35094,4.88474 -1.90701,7.53851 0.44207,0.81254 1.51509,3.01016 2.69997,2.71145 0.88688,-0.22331 1.48696,-1.47637 1.93331,-2.18228 1.81266,-2.86544 2.49105,-8.84846 -2.72627,-8.06768 m 113.771087,0.19791 c -4.4532,1.5621 -4.89982,12.11527 1.58724,10.07824 3.66183,-1.14961 2.32066,-5.37448 0.94509,-7.76472 -0.45694,-0.79402 -1.33826,-2.73236 -2.53233,-2.31352 m -57.414837,0.27331 c 4.81119,-0.62679 9.88246,1.48167 12.38303,5.74437 4.19418,7.1501 0.0511,17.20797 -8.41428,18.44146 -1.87483,0.27305 -4.01399,0.2921 -5.82083,-0.3294 -11.7602,-4.04469 -11.12414,-22.166 1.85208,-23.85643 m -55.5625,8.12562 h -0.52916 c -0.75422,-1.59649 -2.29886,-3.40307 -2.04563,-5.2914 0.3116,-2.32357 3.69583,-2.73367 4.53165,-0.5244 0.75407,1.99284 -1.06098,4.20026 -1.95686,5.8158 m 54.76875,-7.00669 c -8.03804,1.71476 -11.18632,11.86921 -6.21294,18.11814 2.83474,3.56208 7.46918,4.68947 11.76919,3.75311 7.10459,-1.54728 10.31373,-10.31663 6.90457,-16.45206 -2.40665,-4.33096 -7.66604,-6.44234 -12.46082,-5.41919 m 58.208327,0.39211 c 0.83582,0.43312 1.27264,1.01626 1.72244,1.85235 0.35401,0.65802 0.67997,1.37901 0.82285,2.1164 0.6096,3.14378 -4.00368,4.43548 -4.58444,1.31895 -0.16827,-0.90355 0.1704,-1.83092 0.53446,-2.64187 0.41831,-0.93107 0.94404,-1.79572 1.50469,-2.64583 m -57.414577,0.79375 c -0.44952,2.73076 -3.25569,3.01704 -4.64767,4.77811 -0.95409,1.20703 -1.2946,5.30013 -1.12712,6.86356 0.22966,2.14471 1.48563,3.87085 3.12896,5.20171 1.16364,0.94244 2.51328,1.06732 2.64583,2.73579 -6.55769,-1.5539 -10.37457,-9.14003 -6.54923,-15.08125 1.55707,-2.41829 3.89996,-3.63432 6.54923,-4.49792 m 2.11667,0 v 1.32292 l -0.79375,-1.32292 h 0.79375 m 1.5875,19.57917 c -0.43445,-1.86584 2.46089,-2.29764 3.58696,-3.48827 2.69875,-2.85406 3.52636,-12.25947 -1.73488,-12.38673 -0.22383,-1.40573 -0.82735,-2.07222 -2.11666,-2.64584 l 0.26458,-1.05833 c 2.17355,0.70829 4.23307,1.64518 5.73379,3.44064 5.03131,6.01874 1.1721,14.13986 -5.73379,16.13853 m -4.49792,-14.2875 0.26459,-2.64584 c 1.10437,0 3.43376,-0.44185 4.33837,0.272 0.65643,0.51831 0.23786,1.6248 1.03743,2.05687 0.78555,0.42492 1.93543,-0.29528 2.49052,0.66569 0.37095,0.64188 0.0847,1.58485 0.21114,2.29711 0.7575,4.27143 -0.0775,8.83788 -5.43163,9.16014 -3.46525,0.20849 -6.36852,-2.59292 -6.55902,-5.98514 -0.17463,-3.107 0.29183,-6.2447 3.6486,-5.82083 m -40.48125,10.58333 h -1.85208 v -9.525 c 0,-0.77576 -0.30506,-2.9554 1.03452,-2.78712 1.12475,0.14129 0.81756,2.01771 0.81756,2.78712 v 9.525 m 42.59792,-7.9375 c 2.49052,-0.73051 2.24393,-2.25055 0.79375,-3.70417 -2.45904,0.83106 -1.84997,1.87722 -0.79375,3.70417 m -3.16336,-0.86095 c -2.49608,0.98028 -1.03029,5.02893 1.55099,4.02299 2.4974,-0.97367 1.03637,-5.03899 -1.55099,-4.02299 m 6.08515,-0.0418 c -2.54105,0.68898 -1.51606,4.69265 1.04299,4.16587 2.83025,-0.58235 1.74308,-4.92125 -1.04299,-4.16587 m -5.30304,1.4867 c 0.72787,0 0.72787,1.21337 0,1.21337 -0.72787,0 -0.72787,-1.21337 0,-1.21337 m 5.8248,-0.0453 c 0.81651,-0.11324 0.79216,1.24222 0.0183,1.22211 -0.7149,-0.0185 -0.70035,-1.12739 -0.0183,-1.22211 m -16.67272,0.51964 0.26459,1.85209 -4.7625,-0.79375 v -0.52917 l 4.49791,-0.52917 m 31.75,0.52917 v 0.52917 l -4.49791,0.79375 v -1.85209 l 4.49791,0.52917 m -55.82708,10.05417 c -1.56263,2.90539 -6.8744,2.59715 -8.04915,-0.52785 -0.79296,-2.10926 2.85141,-1.61581 3.81582,-1.11548 1.41949,0.73607 2.65403,1.31657 4.23333,1.64333 m 38.1,-1.05834 -0.26458,1.32292 h -0.26459 l -0.26458,-1.32292 h 0.79375 m -7.67292,2.64584 -1.85208,1.85208 0.52917,-2.38125 1.32291,0.52917 m 15.875,-0.52917 0.79375,2.38125 -1.85208,-1.32292 1.05833,-1.05833 m -7.9375,2.91042 -0.26458,7.67291 c -1.06468,-1.39805 -2.02327,-7.27551 0.26458,-7.67291 z"
       id="path879" />
  </g>
</svg>
