<?xml version="1.0" encoding="UTF-8" standalone="no"?>
<svg
   xmlns:dc="http://purl.org/dc/elements/1.1/"
   xmlns:cc="http://creativecommons.org/ns#"
   xmlns:rdf="http://www.w3.org/1999/02/22-rdf-syntax-ns#"
   xmlns:svg="http://www.w3.org/2000/svg"
   xmlns="http://www.w3.org/2000/svg"
   xmlns:sodipodi="http://sodipodi.sourceforge.net/DTD/sodipodi-0.dtd"
   xmlns:inkscape="http://www.inkscape.org/namespaces/inkscape"
   width="210mm"
   height="297mm"
   viewBox="0 0 210 297"
   version="1.1"
   id="svg8"
   inkscape:version="1.0.2-2 (e86c870879, 2021-01-15)"
   sodipodi:docname="cleric.svg">
  <defs
     id="defs2" />
  <sodipodi:namedview
     id="base"
     pagecolor="#ffffff"
     bordercolor="#666666"
     borderopacity="1.0"
     inkscape:pageopacity="0.0"
     inkscape:pageshadow="2"
     inkscape:zoom="1.4"
     inkscape:cx="148.68936"
     inkscape:cy="567.6447"
     inkscape:document-units="mm"
     inkscape:current-layer="layer1"
     inkscape:document-rotation="0"
     showgrid="false"
     inkscape:window-width="3736"
     inkscape:window-height="2126"
     inkscape:window-x="93"
     inkscape:window-y="-11"
     inkscape:window-maximized="1" />
  <metadata
     id="metadata5">
    <rdf:RDF>
      <cc:Work
         rdf:about="">
        <dc:format>image/svg+xml</dc:format>
        <dc:type
           rdf:resource="http://purl.org/dc/dcmitype/StillImage" />
        <dc:title></dc:title>
      </cc:Work>
    </rdf:RDF>
  </metadata>
  <g
     inkscape:label="Layer 1"
     inkscape:groupmode="layer"
     id="layer1">
    <path
       style="fill:#d0b13a;stroke:none;stroke-width:0.264583;fill-opacity:1"
       d="m 85.176938,54.674252 c -0.121444,0.52972 -0.420423,2.6715 -1.273175,2.47883 -0.805127,-0.18193 -0.153988,-2.27605 -0.686858,-2.90775 -1.668463,-1.97749 -5.099315,-3.31583 -7.300384,-4.65185 -0.700881,-0.42542 -1.738312,-1.38268 -2.617258,-1.26333 -1.252273,0.1701 -1.725613,2.72854 -2.094442,3.69827 -1.41552,3.72215 -4.579408,8.98567 -4.671748,12.96458 -0.08731,3.77508 2.989263,8.87518 4.225396,12.43542 0.329142,0.94826 0.748506,3.41736 1.822715,3.78063 1.046427,0.35375 2.728383,-1.04749 3.599921,-1.52109 2.924175,-1.58882 7.744089,-2.96095 6.879166,-6.75746 l 1.5875,-0.52917 0.79375,2.64584 c -1.075002,0.40719 -3.249348,2.86279 -2.414323,4.10157 0.682096,1.01177 2.138627,0.82576 2.375165,2.2598 0.283369,1.71794 -0.945885,5.6732 1.362075,6.07404 l -0.264583,7.67292 c -4.278313,0 -9.641682,-0.49715 -13.228902,-3.07895 -1.372923,-0.98822 -2.156884,-4.14947 -3.403336,-4.63842 -2.212181,-0.86809 -6.606381,-0.22013 -9.032346,-0.22013 H 39.933188 28.556105 c -1.044364,0 -3.277553,-0.40508 -4.059185,0.46091 -0.665348,0.73712 0.33446,2.04575 0.700458,2.71409 1.309635,2.3921 2.656496,4.7707 4.000183,7.14375 0.67892,1.19909 1.582102,3.818728 3.07414,4.138608 1.545379,0.33126 3.484192,-1.42346 4.928606,-0.49424 2.450041,1.57586 2.526771,6.45583 5.169693,7.69752 1.489076,0.69983 5.423165,-1.68327 6.823605,-2.34606 l 3.032125,5.55599 1.521354,1.80975 4.971521,-2.86782 2.971535,5.82057 1.551781,1.68804 3.678767,-3.01069 c 0.658548,2.23864 2.201598,4.3352 3.3655,6.34973 0.351102,0.60775 0.821267,1.68408 1.662642,1.68408 1.381918,0 3.041914,-3.08716 3.795448,-4.06506 3.167856,-4.11136 7.853627,-8.49233 9.961827,-13.22917 h 0.264583 l 0.446352,20.6375 -0.181769,8.99584 c -1.525587,0.20028 -5.733256,-0.54584 -6.046258,1.33482 -0.829204,4.98237 5.087937,1.38377 5.726113,5.80893 0.980281,6.79555 0.237331,14.55711 0.319087,21.43125 0.03387,2.85432 -0.280458,6.25289 0.530225,8.99583 -1.766887,0.15505 -2.194454,-1.76556 -3.230562,-2.8866 -1.691482,-1.82986 -5.126832,-3.67004 -7.617355,-2.66965 0.712523,2.60562 2.179109,3.95049 3.96875,5.82083 -1.843087,-0.35745 -5.364427,-0.30824 -6.730206,-1.72323 -0.733954,-0.76067 -0.837671,-2.10926 -1.307042,-3.03927 -1.106223,-2.19128 -3.26046,-3.92641 -5.721085,-4.23333 l 0.79375,4.7625 -0.264583,0.26458 -2.910417,-1.5875 c 0.454819,-1.91029 0.391848,-4.13411 -0.962554,-5.69806 -0.757502,-0.87472 -3.928798,-3.29645 -5.167313,-2.22832 -1.0414,0.89799 0.364067,3.59621 0.8382,4.4868 -1.085585,-0.65643 -3.086364,-1.53273 -3.67321,-2.70113 -0.460904,-0.91784 0.04815,-2.36643 -0.0799,-3.38429 -0.296069,-2.35294 -2.36564,-4.34022 -4.713552,-4.49791 l 0.264583,5.02708 c -0.883444,-0.77126 -2.64451,-1.73434 -2.935817,-2.93423 -0.776816,-3.19643 1.420548,-7.87585 -3.414183,-9.2366 l -0.79375,5.82083 h -0.264583 c -0.932921,-2.00369 -2.969154,-3.29486 -4.002352,-5.24669 -1.079765,-2.03967 0.293422,-8.95985 -4.161552,-8.73204 -1.527096,0.0783 -1.073838,3.29141 -0.879713,4.18915 0.732551,3.38772 4.597558,6.82651 6.92695,9.26041 -1.081881,0.0423 -2.084652,-0.27913 -3.175,-0.1008 -3.297952,0.53922 -5.869543,2.97206 -1.058333,3.94652 2.243402,0.45456 4.964641,-1.03928 6.879166,-0.52361 1.034786,0.27861 2.00025,1.43325 2.645834,2.23414 -1.754188,2.7e-4 -3.439848,0.0765 -5.025761,0.92446 -1.509183,0.80698 -1.751541,1.90579 0,2.59053 1.735402,0.67892 3.495675,0.81465 5.290344,0.32412 0.984515,-0.26908 2.131483,-1.16602 3.175,-0.98769 1.165225,0.19896 2.314575,1.43113 3.175,2.17567 -1.99099,0 -3.937529,-0.0659 -5.820569,0.69585 -2.221971,0.89853 -1.832769,2.22118 0.264319,2.94428 2.019035,0.69639 4.038335,0.71941 6.085417,0.13044 1.008591,-0.29024 2.106877,-1.10278 3.175,-1.05463 1.940454,0.0873 3.981185,2.41248 5.820833,3.10489 v 0.26458 c -2.320925,0 -4.452144,-0.11086 -6.614583,0.8763 -2.496873,1.14009 -2.021152,2.67494 0.529166,3.21998 1.941513,0.41513 4.256352,0.23231 6.085417,-0.51223 1.076854,-0.43815 2.248958,-1.51421 3.439583,-1.52453 1.484842,-0.013 3.188494,1.30069 4.497917,1.90923 v 0.26459 c -2.039673,0.17912 -4.091781,1.13374 -5.469996,2.66964 -0.645054,0.71888 -2.049992,2.55323 -0.335227,2.84745 4.620948,0.79243 6.239669,-2.96572 9.818952,-4.37198 1.212586,-0.47651 4.082521,0.48022 5.246688,0.97155 -2.019565,0.88821 -3.289829,2.45084 -4.05765,4.49792 -0.368036,0.98134 -0.744802,2.73341 0.887677,2.49026 2.124604,-0.31618 4.328848,-2.04602 5.427398,-3.81318 0.551127,-0.88635 0.876829,-2.32039 1.784085,-2.90988 0.928158,-0.60299 2.560373,-0.50986 3.631406,-0.5297 0,0.86254 0.202671,2.07195 -0.271991,2.83766 -1.073415,1.73196 -3.015192,1.5449 -2.478882,4.29048 0.234157,1.1983 1.538288,1.07209 2.48629,1.07394 h 7.408328 c 0.86651,0 2.25848,0.25453 2.79559,-0.6133 2.1418,-3.45943 -3.20146,-3.6023 -2.44581,-6.51484 0.42942,-1.65576 2.68552,-0.90381 3.88355,-0.80936 0.45615,2.64928 2.33231,5.09694 4.7625,6.26349 0.70962,0.34078 2.04418,1.03478 2.82232,0.58367 0.82391,-0.47758 0.32543,-1.68461 0.0699,-2.34924 -0.74772,-1.94416 -2.19949,-3.82746 -4.21508,-4.49792 v -0.26458 c 1.56686,-0.0675 3.78963,-1.13559 5.28135,-0.66754 1.39144,0.43656 2.46618,2.15079 3.71448,2.92497 2.27357,1.41049 4.55639,1.44674 7.14375,1.44674 -0.23786,-3.27396 -3.90869,-5.29696 -6.87917,-5.55625 V 172.943 c 1.33853,-0.55642 3.28798,-2.01533 4.7625,-1.85499 3.36418,0.36618 5.45624,2.77574 9.26042,2.0193 2.4011,-0.47731 3.48245,-1.98993 0.79375,-3.2221 -2.18228,-1.00012 -4.26905,-0.91096 -6.61458,-0.91096 v -0.26458 c 1.68063,-0.78555 3.95155,-3.13055 5.82083,-3.13611 0.98954,-0.003 1.97882,0.7919 2.91042,1.07924 1.91082,0.58923 3.91001,0.59002 5.82083,0 1.51395,-0.46752 3.33904,-1.87854 1.05331,-2.88317 -2.03941,-0.89587 -4.1701,-0.88079 -6.34498,-0.88079 v -0.26459 c 1.03849,-0.51726 2.17779,-1.8407 3.3274,-1.98649 0.8517,-0.10821 1.95528,0.66543 2.75802,0.92049 1.72217,0.54742 3.28877,0.61251 5.02708,0.0672 5.49858,-1.72482 -2.42543,-3.76343 -4.49791,-3.7637 0.73369,-0.72416 1.73619,-2.08042 2.80855,-2.28282 2.55058,-0.48128 4.94586,1.42822 7.77478,0.304 1.81663,-0.72204 2.83686,-2.15609 0.52811,-3.06017 -1.98729,-0.77814 -3.76634,-0.60536 -5.81978,-0.51726 v -0.26458 c 1.41791,-0.75697 2.29183,-2.22012 3.29777,-3.43958 2.50031,-3.03134 5.08556,-5.86264 3.31682,-10.05417 -4.73207,1.51474 -3.19167,5.29987 -4.46035,8.72093 -0.75485,2.03518 -3.06202,4.02696 -4.53549,5.56657 0.37783,-2.03491 -0.0677,-8.01582 -2.86808,-4.23201 -0.31035,0.4191 -0.60113,0.85593 -0.8374,1.32159 -1.15941,2.2868 0.37491,4.53284 -0.39344,6.49182 -0.42307,1.0795 -2.08994,1.95474 -3.04483,2.50402 1.17184,-3.12923 -0.0124,-6.48388 -3.11837,-2.90645 -1.72535,1.98728 -0.5379,3.73671 -1.24513,5.80628 -0.44927,1.31498 -2.50058,2.15821 -3.574,2.921 0.39265,-1.02473 1.3716,-3.04747 0.88795,-4.1484 -0.6694,-1.52427 -4.13941,0.65775 -4.84505,1.29434 -2.10053,1.89495 -0.72179,3.94652 -1.87114,6.00049 -0.51726,0.92445 -1.79863,1.30598 -2.63842,1.88065 0.27331,-1.19485 1.21073,-3.22156 0.63315,-4.41272 -0.85672,-1.76662 -4.33944,1.52903 -4.92231,2.30638 -0.89456,1.193 -1.03532,3.62082 -2.14471,4.46405 -1.69916,1.29169 -5.00883,1.35043 -7.05988,1.61104 v -0.26458 c 1.71556,-0.6731 2.99217,-2.00051 3.69914,-3.70417 0.49159,-1.18533 0.62309,-2.43628 -1.05463,-2.19339 -2.1344,0.30903 -4.17036,1.22449 -5.65653,2.79902 -1.04431,1.10623 -1.62719,3.24962 -3.33798,3.09854 0.66675,-2.25557 0.43656,-5.05434 0.53948,-7.40833 0.20823,-4.75007 0.51885,-9.52606 0.51885,-14.2875 0,-3.05197 -0.45905,-6.5204 0.087,-9.52474 0.65061,-3.5777 5.56763,-0.0754 5.46497,-4.23333 -0.0934,-3.77296 -4.95909,-0.10981 -5.73246,-2.9263 -0.86228,-3.14007 -0.18071,-7.41336 -0.0881,-10.56772 0.17806,-6.07404 0.004,-12.1793 0.004,-18.25625 3.83196,4.19814 7.05061,9.03949 10.58254,13.49375 0.75856,0.95673 2.41141,4.14973 3.91345,3.76978 0.84243,-0.21298 1.22899,-1.50706 1.58565,-2.18228 1.03902,-1.96691 2.09576,-4.08993 3.49752,-5.82083 0.40588,0.57626 0.82815,1.08558 1.32795,1.5875 4.00949,4.02828 3.82931,-4.04204 6.66591,-5.28294 1.56448,-0.68421 3.10065,2.21906 4.67836,2.07804 0.75301,-0.0675 1.13427,-0.9943 1.46209,-1.55787 1.06019,-1.82324 2.46512,-3.80074 3.06361,-5.82057 1.54861,0.60061 5.24907,2.94085 6.85456,2.31828 2.68685,-1.0414 2.95037,-6.05869 5.19166,-7.69117 1.42054,-1.03452 3.52345,0.92763 5.10275,0.52229 1.42769,-0.36619 2.42094,-3.234528 3.11732,-4.409808 1.33694,-2.25584 2.61991,-4.57518 3.87191,-6.87917 0.36142,-0.66516 1.39621,-1.96003 0.77232,-2.71409 -0.72205,-0.87234 -3.00725,-0.46091 -4.00844,-0.46091 h -11.37712 -20.37292 c -2.80908,0 -6.84238,-0.66992 -9.50938,0.11483 -1.47003,0.43259 -1.98544,3.62559 -3.45917,4.67307 -3.72374,2.64663 -9.06356,3.1496 -13.48978,3.1496 l -0.26458,-7.40833 c 2.31537,-0.98266 1.02738,-4.30927 1.36207,-6.33863 0.23601,-1.42954 1.68143,-1.261 2.38178,-2.2598 0.87392,-1.24725 -1.3036,-3.75312 -2.42094,-4.10157 l 0.79375,-2.64584 1.5875,0.52917 c -0.75882,3.92827 3.93436,5.05963 6.87917,6.72677 0.89694,0.508 2.77839,2.09629 3.85498,1.45626 1.44621,-0.85936 2.29738,-5.54619 2.85036,-7.1247 0.94482,-2.6961 2.79241,-5.86581 2.98,-8.73125 0.0971,-1.48643 -0.85725,-3.13552 -1.37107,-4.49791 -1.30704,-3.4652 -2.28309,-9.24182 -4.62995,-12.08265 -1.00779,-1.21994 -3.02604,0.71826 -3.9489,1.28474 -2.93291,1.80041 -7.99148,3.2907 -6.61459,7.35832 -1.574,0.13949 -1.77429,-1.36575 -2.11666,-2.64583 2.35453,-0.18722 3.27236,-4.23564 4.20555,-6.08542 0.35401,-0.70183 1.075,-1.77181 0.87021,-2.59683 -0.23838,-0.95919 -1.65682,-1.44121 -2.42993,-1.85759 -2.14207,-1.15384 -5.74569,-4.07038 -8.20208,-4.07023 -2.43523,1.4e-4 -6.028269,2.98803 -8.202085,4.09124 -0.742421,0.37685 -1.960298,0.75573 -2.324894,1.57935 -0.373063,0.84273 0.34581,1.86809 0.709612,2.58948 0.978959,1.94064 1.852878,5.96924 4.261115,6.35 M 99.9936,46.207582 c -0.59451,1.53244 -2.40241,7.40879 -4.50188,6.92918 -1.68116,-0.38402 -3.2004,-3.1917 -4.77176,-3.17133 -1.47241,0.0191 -2.858295,2.71868 -4.48363,3.12317 -2.230967,0.55518 -4.202377,-5.16427 -4.498975,-6.88102 2.392627,-1.25891 6.290204,-4.46229 8.995835,-4.53467 2.82099,-0.0755 6.65956,3.45152 9.26041,4.53467 m -11.11752,-0.58306 c -1.044313,0.21474 -3.446994,1.25664 -3.921392,2.27079 -0.466196,0.99687 0.750623,2.66657 1.821127,2.49721 1.126067,-0.17809 2.832895,-0.96588 3.268665,-2.0797 0.38682,-0.98901 0.33443,-2.99736 -1.1684,-2.6883 m 2.99958,0.089 c -2.64239,1.41706 1.5785,5.47804 3.56367,4.66371 3.53378,-1.4496 -1.71291,-5.65619 -3.56367,-4.66371 m -3.25914,1.55239 c -0.34131,1.084 -1.056215,1.3317 -2.116665,1.5875 l 2.116665,-1.5875 m 4.49792,0 1.85208,1.5875 c -0.84375,-0.27837 -2.09047,-0.51199 -1.85208,-1.5875 m -19.314585,2.64583 8.466666,5.29167 c -0.562768,2.72952 0.266436,3.83582 3.175,3.96875 0.455613,-3.04104 1.754452,-5.71582 4.762499,-6.87917 l -0.26458,29.36876 -5.556252,-3.17501 c 0.522287,-1.08452 2.441575,-1.6375 2.627842,-2.43099 0.243152,-1.03584 -0.911755,-4.7363 -1.938338,-5.17525 -2.328862,-0.99536 -3.41286,2.38178 -3.070754,3.90208 l -8.995833,4.7625 c -1.434571,-4.40849 -4.675188,-9.6528 -4.94718,-14.2875 -0.08625,-1.47495 0.885561,-3.14587 1.395413,-4.49792 1.243806,-3.29718 2.102115,-8.13012 4.345517,-10.84792 m 34.131245,0 4.05236,10.58334 1.54464,4.7625 -1.4949,4.49791 -3.57293,9.78959 -8.99583,-4.7625 c 0.49106,-1.53062 -1.22635,-5.39803 -3.25385,-3.78143 -1.25624,1.00198 -1.61607,4.14761 -2.03782,5.63351 1.4949,0.25585 2.30532,0.30956 2.91042,1.85208 l -5.55625,3.17501 v -29.36875 c 1.12395,0.64024 2.71462,1.46656 3.30464,2.67055 0.55272,1.1276 0.56198,3.25718 1.78277,3.92607 0.83079,0.45535 2.40559,-0.12155 2.90618,-0.8799 0.58711,-0.88948 -0.38021,-1.99477 0.21696,-2.90981 1.40546,-2.15395 5.94307,-4.00251 8.19361,-5.18816 m -52.652079,10.84792 3.95314,-4.09983 0.874977,-1.09344 -2.177256,-1.48154 -1.857111,-3.11478 -1.965589,2.1126 -3.082396,2.67094 2.091531,1.56503 2.162704,3.44102 m 71.172919,-9.78959 -2.20663,2.36982 -2.84136,2.39247 3.74888,3.92957 0.9832,0.63431 2.17937,-2.89595 2.12619,-1.66486 -2.1336,-1.65058 -1.85605,-3.11478 m -70.643752,2.91042 1.5875,1.5875 v 0.52917 l -2.116667,1.5875 -1.5875,-1.5875 v -0.52917 l 1.5875,-1.5875 h 0.529167 m 70.379162,0 1.5875,1.5875 v 0.52917 l -1.5875,1.5875 h -0.52916 l -1.5875,-2.11667 1.5875,-1.5875 h 0.52916 m -50.475881,1.62915 c -1.12395,0.19812 -1.660525,2.75648 -1.996016,3.66252 -0.652728,1.76411 -2.20689,4.16618 -2.048669,6.08541 0.122766,1.48961 1.158081,3.11918 1.709737,4.49792 0.447675,1.11945 1.166284,4.5122 2.815961,4.1746 0.893498,-0.18283 2.579423,-1.08136 2.698221,-2.08571 0.276225,-2.33945 -2.0828,-4.72229 -2.0828,-7.11597 0,-2.30638 2.624402,-5.1534 2.068512,-7.38058 -0.230452,-0.9225 -2.25134,-1.99925 -3.164946,-1.83819 m 29.568771,0.13514 c -0.86412,0.15206 -2.4593,0.71766 -2.64556,1.70305 -0.45826,2.42348 2.209,5.14898 2.08835,7.64516 -0.10424,2.15953 -2.68155,5.00142 -2.09629,7.08739 0.26564,0.94695 2.22091,1.94945 3.15251,1.79573 1.22581,-0.20214 1.61819,-2.37252 2.00686,-3.32687 0.68845,-1.68936 2.08995,-3.67982 2.05185,-5.55625 -0.0365,-1.78954 -1.22952,-3.63537 -1.81584,-5.29167 -0.43286,-1.22242 -1.02235,-4.35906 -2.74188,-4.05654 m -29.363719,16.75654 -2.737379,-7.40833 2.737379,-7.9375 c 0.948267,0.34885 1.33059,0.79616 1.119452,1.85309 -0.382852,1.91823 -1.740958,3.85008 -1.740958,5.81983 0,2.18307 3.5179,6.45848 0.621506,7.67291 m 29.368749,-15.34583 c 1.17449,1.88979 3.27396,5.94402 3.06335,8.20208 -0.22014,2.35876 -1.94443,4.94189 -2.79877,7.14375 -1.05198,-0.44106 -1.36075,-0.9771 -1.04563,-2.11772 0.50059,-1.8116 1.83145,-3.90763 1.70656,-5.81978 -0.15187,-2.31992 -1.66819,-4.53744 -1.98384,-6.87916 l 1.05833,-0.52917 m -23.973895,3.45734 c -2.99032,1.74053 -1.826154,10.66982 1.744928,8.69788 2.225939,-1.22952 0.745331,-2.80035 0.944297,-4.74689 0.09816,-0.96123 0.748242,-2.17426 0.442384,-3.13581 -0.302684,-0.95187 -2.351088,-1.26934 -3.131609,-0.81518 M 99.1988,60.362182 c -3.08822,0.22202 -1.72694,2.275 -1.6563,4.36624 0.0624,1.84943 -1.07156,5.28002 2.41592,4.88659 0.99456,-0.11219 1.16496,-1.48114 1.40943,-2.24076 0.59478,-1.84793 1.29011,-7.26075 -2.16905,-7.01207 m -56.619779,10.18707 5.291667,-4.23333 -3.804973,-3.96386 -1.17819,-1.12898 -2.171964,2.65219 -2.201598,1.87984 2.188104,1.60379 1.876954,3.19035 m 91.281249,-5.29167 2.8538,2.43787 2.43787,2.8538 c 0.77443,-2.27462 1.80049,-3.70946 4.23333,-4.23333 l -2.36987,-2.25775 -2.21007,-2.83509 -1.38086,1.38602 -3.5642,2.64848 m -50.799999,-3.43958 v 5.82083 l -1.058333,0.52917 c -0.900906,-1.93506 -2.091002,-5.8374 1.058333,-6.35 m 16.668749,6.08542 c -1.48378,-0.46117 -1.02579,-4.51877 -1.05833,-6.08542 2.84242,0.84347 1.80816,4.0744 1.05833,6.08542 m -56.356249,-3.96875 1.322917,2.11666 -1.322917,1.32292 -2.38125,-1.85208 2.38125,-1.5875 m 97.102079,1.5875 v 0.26458 c -1.51024,1.456 -2.19392,1.456 -3.70416,0 1.27635,-1.7893 2.17752,-1.73638 3.70416,-0.26458 m -79.678737,1.33032 c -5.03899,-1.41663 -8.085402,1.26312 -11.358033,4.47728 -1.08585,1.06654 -2.617259,2.19551 -3.372115,3.52822 -0.654579,1.1557 -0.932656,7.34642 0.520965,7.77796 3.207014,0.95223 7.737475,-0.18045 11.073341,-0.18045 0.877359,0 2.81305,0.35745 3.432175,-0.42413 0.582877,-0.73607 0.271992,-2.3995 0.271992,-3.28004 0,-2.83712 0.264583,-5.63483 0.264583,-8.46666 0,-0.95885 0.395817,-3.0869 -0.832908,-3.43218 m 59.305827,-0.007 v 11.37709 l 0.42413,3.96134 4.33837,0.27596 10.84791,0.26061 c 1.56581,-5.29722 -0.65563,-8.59313 -4.23333,-12.17083 -1.14882,-1.14882 -2.41326,-2.91359 -3.96875,-3.50785 -2.04999,-0.78308 -5.22684,-0.19632 -7.40833,-0.19632 m -61.118752,1.32292 c -1.820598,2.5826 -3.068902,2.07698 -5.820833,1.85208 1.119716,-2.37305 3.58431,-1.85208 5.820833,-1.85208 m 69.585412,1.32292 v 0.26458 c -2.4458,0.83476 -4.5376,1.11098 -5.82083,-1.5875 2.30346,0 3.92959,-0.12991 5.82083,1.32292 m -68.527079,0 v 7.9375 h -0.264583 c -0.964406,-2.85512 -3.22236,-6.04732 0.264583,-7.9375 m 61.647919,0 c 2.42887,1.71714 2.21588,6.07483 -0.26459,7.9375 l 0.26459,-7.9375 m -66.410419,2.11666 c -0.85037,1.82378 -2.938727,3.91213 -4.7625,4.7625 -0.140229,-1.76106 -1.182687,-4.79557 1.5875,-5.13106 1.007004,-0.12197 2.151592,0.32438 3.175,0.36856 m 75.670829,4.7625 c -1.67772,-0.812 -3.99044,-2.95592 -4.49791,-4.7625 1.00171,-0.0458 2.15185,-0.58393 3.12896,-0.42412 2.61752,0.4273 1.78567,3.4962 1.36895,5.18662 m -74.083329,-3.43958 2.645834,7.40833 c -2.512219,-0.13044 -5.717911,-1.47611 -7.9375,-2.64583 l 5.291666,-4.7625 m 73.024999,4.7625 -7.67292,2.64583 2.64584,-7.40833 c 1.94019,0.90487 3.80338,3.02551 5.02708,4.7625 m -80.962499,-3.43999 c 0.344223,2.70933 0.630767,4.07061 -1.852083,5.82083 0,-2.23652 -0.520965,-4.70112 1.852083,-5.82083 m 84.137499,0 c 1.56131,1.40388 1.66079,3.82455 1.32292,5.82083 l -2.38125,-2.11667 1.05833,-3.70416 m -107.685415,6.08541 2.618078,2.01428 1.981915,2.88131 0.921543,-0.44847 2.152412,-2.89851 1.759585,-1.26286 -2.759551,-2.15238 -1.908625,-2.3876 -1.43928,1.86902 -3.326077,2.38521 m 125.327835,-4.21058 -3.33931,3.61024 -0.83026,1.08374 2.12698,1.47955 1.8542,2.69981 0.92367,0.16536 3.30252,-3.69808 0.83027,-0.86625 -2.11297,-1.57136 -1.77879,-2.57572 -0.97631,-0.32729 m 0.61383,2.62308 1.5875,1.5875 -1.5875,2.11667 h -0.52917 l -1.85208,-2.11667 1.85208,-1.5875 h 0.52917 m -119.327082,1.5875 v 0.52917 l -1.5875,1.5875 -2.116667,-1.5875 v -0.52917 c 1.619462,-1.08241 2.084705,-1.08241 3.704167,0 m 24.341667,0.52917 v 0.26458 h -7.9375 c 1.82192,-3.41021 5.196681,-1.15649 7.9375,-0.26458 m 76.993745,0.26458 h -7.9375 c 2.48233,-2.00342 5.95419,-2.80537 7.9375,0 m -46.037495,0 3.659185,2.74373 3.74915,-2.47914 v 4.7625 h -7.672919 l 0.264584,-5.02709 m 6.085415,6.35 0.52917,16.404168 h -6.350002 l 0.45376,-12.170828 0.499532,-3.96134 4.86754,-0.272 m -6.879165,9.26042 -0.4572,6.879168 -4.922573,6.63575 -9.172311,11.6205 c -0.91387,-1.54967 -4.645554,-6.21321 -3.774016,-7.9375 1.272116,-2.51672 4.69265,-5.10196 6.688402,-7.14402 0.40296,-0.41222 2.127779,-1.73275 1.608137,-2.44766 -0.646377,-0.89032 -2.854589,2.07963 -3.210189,2.44899 -2.870465,2.98026 -6.284913,8.03566 -10.043584,9.78852 -0.735806,-1.24777 -3.75867,-5.12683 -2.958835,-6.52833 1.325562,-2.32304 6.049962,-4.19761 8.250502,-5.69383 0.528108,-0.35931 2.589742,-1.37769 2.313517,-2.21218 -0.348457,-1.05225 -3.690938,1.59173 -4.1656,1.91161 -4.008702,2.70087 -8.239655,6.43784 -12.7,8.2894 l -3.439584,-6.35 17.4625,-7.143748 c -1.470554,-1.67005 -4.89241,0.48472 -6.614583,1.262058 -5.886185,2.65695 -12.316619,5.69569 -18.520833,7.46919 l -3.96875,-7.40834 c 6.192573,-0.833958 12.383558,-2.239428 18.520833,-3.439308 0.790575,-0.15478 5.885127,-0.54531 5.434277,-1.77324 -0.242623,-0.66067 -1.249627,-0.34581 -1.73011,-0.25294 -1.849173,0.35771 -3.708665,0.65087 -5.55625,1.0205 -7.681913,1.53617 -15.476273,2.5691 -23.01875,4.709578 l -6.35,-11.641668 h 29.36875 c 3.887258,0 9.458854,-1.03664 13.169635,0.0841 0.943769,0.28496 1.116542,1.56395 1.608138,2.29685 0.739775,1.10305 1.796785,1.92828 2.94931,2.56328 4.220104,2.32463 8.676217,2.14789 13.229167,2.99323 m 69.056245,-7.9375 c -1.22687,2.94614 -3.08107,5.6896 -4.65031,8.46667 -0.49662,0.87948 -0.9607,2.43205 -1.99205,2.817018 -1.54173,0.57573 -4.72096,-0.972338 -6.32222,-1.281108 -5.45412,-1.05225 -10.97015,-1.88145 -16.40417,-3.03371 -1.40784,-0.29872 -6.04572,-1.90395 -7.25434,-1.0967 -0.68316,0.45614 0.23601,1.06891 0.64902,1.21126 1.49119,0.51356 3.20781,0.59981 4.75324,0.90699 6.12114,1.21656 12.33038,2.60033 18.52083,3.386658 -0.50032,1.57057 -2.67229,6.46457 -4.28968,7.03607 -1.20942,0.42757 -3.8407,-1.18798 -4.97073,-1.67032 -4.19867,-1.79149 -8.46561,-3.45466 -12.7,-5.15408 -1.26233,-0.506678 -5.22288,-2.870718 -6.49129,-2.238108 -1.21629,0.60669 2.90989,2.220118 3.31629,2.374638 4.38732,1.66899 8.69897,3.97139 13.22916,5.20805 l -3.43958,6.61459 -16.66875,-10.84792 c -0.2241,2.61911 6.21506,5.47767 8.20208,6.8109 0.69242,0.46435 2.20663,1.10014 2.42994,1.97671 0.43259,1.69968 -2.36723,5.14641 -3.22369,6.55822 -3.42397,-2.82575 -6.34761,-6.43784 -9.42313,-9.63824 -1.18507,-1.23322 -2.47121,-3.21786 -4.3352,-3.06176 l 6.59077,7.13979 2.4556,3.20278 -3.7547,7.38452 c -3.83646,-3.10304 -6.6048,-8.31453 -9.68375,-12.17084 -1.48458,-1.85922 -3.91451,-4.07696 -4.68233,-6.35 -0.69533,-2.05793 0.0577,-4.480178 -0.45059,-6.614578 4.46961,-0.56488 9.18739,-0.62044 13.22917,-2.92179 1.16919,-0.66569 2.22329,-1.54966 3.02736,-2.63446 0.55166,-0.74427 0.78846,-2.01453 1.77033,-2.29711 3.77349,-1.08611 9.2583,-0.0841 13.19397,-0.0841 H 155.5561 M 87.558188,108.38467 v -3.175 c 1.631952,0 4.527282,-0.56568 6.001282,0.15954 0.80433,0.39582 0.87021,2.20398 0.18917,2.74347 -1.16998,0.92657 -4.7326,0.27199 -6.190452,0.27199 m 6.614582,1.32291 v 11.1125 l -0.42413,3.69676 -6.190452,0.27199 v -15.08125 h 6.614582 m -63.159877,0.55193 c -1.0795,0.53736 -1.820889,2.20239 -2.493936,3.15224 -2.297086,3.24194 -4.947444,7.75044 -4.059211,11.90625 1.002162,4.68868 6.766454,6.4606 10.710942,4.35795 5.974027,-3.18452 2.764631,-10.37484 0.263763,-14.6767 -0.607192,-1.04457 -2.853346,-5.52027 -4.421558,-4.73974 m 116.076547,-0.15029 c -8.04916,1.71979 -5.40729,10.29441 -2.49926,15.20878 0.70247,1.18719 2.61197,5.26706 4.30345,5.01121 1.55311,-0.23495 3.18929,-3.77984 3.90446,-5.01121 2.85062,-4.90908 5.51365,-13.14079 -2.26907,-15.14448 -1.08373,-0.27914 -2.34474,-0.29819 -3.43958,-0.0643 m 0.79375,1.26577 c 0.89244,-0.12753 1.78779,-0.0254 2.64583,0.24315 6.02509,1.88595 3.68168,8.40846 1.4351,12.33197 -0.56938,0.99456 -1.97697,4.22354 -3.28718,4.22354 -1.30043,0 -2.79929,-3.46313 -3.36444,-4.44315 -2.40718,-4.17354 -4.3524,-11.36597 2.57069,-12.35551 m -116.416669,0.44926 c 1.394698,1.6129 2.561749,3.429 3.594524,5.29273 0.934905,1.68698 1.83552,3.63484 2.140056,5.55519 1.17131,7.38373 -10.68504,8.84475 -11.505407,1.5875 -0.275484,-2.43708 1.04992,-5.09746 2.219775,-7.14375 1.042194,-1.82298 2.091399,-3.76767 3.551052,-5.29167 m 116.416669,8.73125 c 1.44409,0.12462 1.49093,-0.82735 2.28811,-1.80208 0.49213,-0.60139 1.77986,-0.94906 2.01084,-1.68804 0.25982,-0.83026 -1.15994,-1.2491 -1.62454,-1.64756 -0.58738,-0.50376 -0.94298,-1.84705 -1.6809,-2.07169 -0.41884,-0.12779 -3.93436,3.23295 -3.85736,3.7174 0.22172,1.39383 2.82443,1.44119 2.86385,3.49197 m 1.05833,-4.7625 0.79375,0.79375 c -0.97552,1.90976 -2.70351,0.18177 -0.79375,-0.79375 m -117.682432,4.56565 c -0.523822,0.22807 -3.523192,3.35465 -3.365262,3.78063 0.244343,0.65908 1.389116,0.89456 1.881082,1.34753 0.508688,0.46857 1.001315,2.30452 1.901904,2.01347 0.653839,-0.21113 0.838703,-1.34752 1.263915,-1.83065 1.830176,-2.07883 2.929916,-1.15305 0.434419,-3.20992 -0.579781,-0.4781 -1.176258,-2.5101 -2.116058,-2.10106 m 0.207433,2.31352 1.058334,1.05833 v 0.26458 l -1.322917,1.05834 -0.79375,-1.5875 1.058333,-0.79375 m 24.870834,5.82083 c -0.982927,-0.98293 -2.243402,-2.794 -3.704167,-3.01122 -3.160712,-0.4699 -8.165571,4.68524 -7.852304,7.77372 0.274902,2.71251 5.210704,6.08965 7.058554,7.9375 l 13.229167,13.22917 c 1.790964,1.79096 3.806825,4.67492 6.085416,5.81342 3.728773,1.86294 8.025342,-3.43799 8.580702,-6.60717 0.423334,-2.41432 -2.8575,-4.59555 -4.347368,-6.08542 -4.55295,-4.55295 -9.787467,-8.82914 -12.882827,-14.55208 -0.9652,-1.78435 -1.840707,-3.67877 -2.607998,-5.55625 -0.287867,-0.70406 -0.508,-1.97882 -1.277938,-2.33469 -1.436423,-0.66383 -2.042319,2.55191 -2.281237,3.39302 m 69.056245,0 c -0.28548,-0.87577 -0.94112,-3.77878 -2.32595,-3.34804 -0.73898,0.22993 -1.02023,1.39965 -1.27238,2.02512 -0.7993,1.98147 -1.67799,3.95103 -2.71489,5.82084 -3.16415,5.70468 -8.31109,9.74831 -12.73386,14.4399 -1.5367,1.62983 -4.60984,3.41762 -4.46829,5.93302 0.19421,3.45519 4.93369,8.71405 8.69871,6.8318 2.43946,-1.21946 4.68974,-4.37726 6.61458,-6.30264 4.55692,-4.5585 9.18263,-9.06409 13.64615,-13.71335 1.67587,-1.74572 5.58483,-4.18836 6.05817,-6.65956 0.5961,-3.11283 -4.79055,-8.25792 -7.79807,-8.07297 -1.52744,0.0939 -2.82681,1.9558 -3.70417,3.04588 m -31.75,-2.38125 v 1.85209 h -5.556245 l -0.264584,-1.85209 H 93.6436 m -41.274995,0.79375 c -0.0037,1.31181 -0.03175,2.26907 -1.058334,3.175 -0.403754,-2.52386 -3.28586,-0.63129 -3.560762,1.0586 -0.216165,1.33006 1.287727,2.46195 1.973262,3.43932 -6.938962,-0.16246 -0.810154,-6.67544 2.645834,-7.67292 m 79.639585,7.67292 c 0.50853,-1.06892 2.12698,-2.168 1.8915,-3.43853 -0.33946,-1.83171 -3.27025,-3.52901 -3.479,-0.7948 -1.19539,-0.7837 -1.43537,-2.12408 -1.05834,-3.43959 3.11706,1.22846 9.54855,7.35674 2.64584,7.67292 m -73.818752,-7.14375 c 2.334419,2.88951 3.065727,7.02098 5.381625,10.05311 0.783431,1.02605 2.69584,2.29446 2.620169,3.70919 -0.123561,2.30981 -3.842279,6.54844 -6.403975,5.65335 -1.259946,-0.44026 -2.357967,-2.0275 -3.250407,-2.96651 -2.4003,-2.52544 -5.913966,-4.92654 -7.607829,-7.98247 3.247496,-0.009 6.432815,-1.47373 7.980892,-4.49792 0.643731,-1.2573 0.676275,-2.71595 1.279525,-3.96875 m 65.352082,0 c 1.53644,4.84849 3.55045,8.46296 9.26042,8.46667 -2.1381,3.0353 -5.31336,5.57794 -7.9375,8.20208 -0.88397,0.88397 -2.12117,2.69187 -3.43959,2.87523 -2.4003,0.33417 -6.24443,-3.70364 -5.95233,-6.05023 0.16934,-1.36049 1.8886,-2.62467 2.66409,-3.70417 2.07751,-2.89269 3.00355,-7.3144 5.40491,-9.78958 m -69.320832,0.79375 c 0.575733,0.73316 1.703652,1.61449 1.416315,2.65615 -0.550598,1.99602 -3.871648,4.31588 -5.120482,1.84177 l 3.704167,-4.49792 m 73.554162,0 c 0.49927,2.0828 1.78647,3.47001 3.43959,4.7625 -1.52876,1.95553 -5.15541,-0.0926 -5.29934,-2.38125 -0.0677,-1.07236 1.09961,-1.84388 1.85975,-2.38125 m -40.216662,7.9375 -0.264583,-6.61458 c 1.305185,-0.38577 5.319975,-0.89165 6.455035,0.007 0.82524,0.65352 0.82524,5.68167 0,6.33519 -1.16998,0.92657 -4.7326,0.27199 -6.190452,0.27199 m 44.450002,-5.82083 0.52916,1.5875 -1.05833,-0.52917 0.52917,-1.05833 m -81.756252,0.52916 v 0.52917 l -1.322917,0.26458 0.264584,-1.05833 1.058333,0.26458 m 49.741662,7.9375 -7.9375,0.0209 -10.318745,0.24369 v -1.5875 H 95.49569 c 1.57983,0 4.06082,-0.6231 4.49791,1.32291 m -5.02708,1.5875 c -0.97075,1.58248 -7.567082,1.91347 -8.202082,0 h 8.202082 m -59.531249,0.26459 c 1.194303,1.77006 1.834092,3.12049 1.852084,5.29166 -1.386629,-1.03029 -3.011012,-3.6277 -1.852084,-5.29166 m 110.860419,0 c -0.0154,1.85208 -0.36645,4.3635 -2.38125,5.02708 0.4945,-2.07142 0.52043,-3.65257 2.38125,-5.02708 m -78.581252,1.32291 c 0.793221,3.25438 -3.439583,6.58098 -6.35,6.87917 l 2.910417,-2.41803 3.439583,-4.46114 m 46.566662,0 c 0.89853,2.81967 3.22739,5.26018 6.08542,6.08542 -0.72019,1.07791 -1.94257,0.46567 -2.91042,-0.096 -1.8198,-1.05649 -4.13437,-3.76212 -3.70416,-5.98938 h 0.52916 m -20.10833,1.05834 c -1.02341,1.97458 -4.82706,3.97457 -6.879165,4.7625 v -4.7625 h 6.879165 m -24.606249,0.52916 c 1.758686,2.24235 4.037013,4.16851 6.022975,6.21295 0.810948,0.83502 2.102644,1.6682 2.509044,2.79347 0.925513,2.56249 -3.414183,7.50782 -6.105525,6.51801 -1.098021,-0.40375 -1.945746,-1.72561 -2.770452,-2.50799 -2.111375,-2.00316 -4.001294,-4.30953 -6.270625,-6.13727 v -0.52917 c 3.421063,-1.26947 4.268258,-4.02881 6.614583,-6.35 m 42.862499,0 c 1.19671,2.85935 3.27713,5.44566 6.35,6.35 -1.79599,2.54979 -4.4106,4.67625 -6.61458,6.87917 -0.80698,0.80645 -1.72509,2.05661 -2.91042,2.28574 -2.5355,0.49027 -6.62464,-3.73063 -5.901,-6.25449 0.3302,-1.15173 1.64756,-2.09656 2.46142,-2.91042 2.11931,-2.11957 4.16189,-4.62227 6.61458,-6.35 m -17.99167,1.85209 c -0.22119,0.93159 0.0341,2.29526 -0.4691,3.09536 -1.13162,1.79916 -4.78261,3.42847 -6.674645,4.31297 0,-3.8735 3.331105,-6.53389 7.143745,-7.40833 m -49.741662,3.96875 h 0.264583 c 1.080294,1.65338 1.904471,3.70205 0.79375,5.55625 -0.923131,-1.6219 -1.831975,-3.71237 -1.058333,-5.55625 m 92.075002,0 c 0.34369,1.93807 -0.0495,4.01346 -1.32292,5.55625 -0.59002,-1.99602 -0.12726,-3.75391 0.79375,-5.55625 h 0.52917 m -42.59792,1.05833 c 0,0.91228 0.23495,2.22171 -0.15875,3.0652 -0.74507,1.59676 -5.08767,3.70416 -6.720415,4.07855 0,-3.88567 3.406245,-5.8293 6.879165,-7.14375 m -52.652082,3.96875 c -1.957388,0.82603 -4.098925,0.62971 -6.085417,0 1.572498,-1.17025 4.512998,-1.17025 6.085417,0 m 104.245832,-0.26458 v 0.26458 c -1.93304,0.70459 -4.16824,0.8091 -6.08542,0 1.7108,-1.27318 4.18174,-0.8681 6.08542,-0.26458 m -51.59375,1.32291 c 0,3.98251 -2.99905,5.77533 -6.614582,7.14375 l -0.264583,-3.175 6.879165,-3.96875 m -42.597915,0.79375 c 1.5875,1.18216 1.846791,2.60959 1.852083,4.49792 -1.556015,-0.76544 -2.547673,-2.82496 -1.852083,-4.49792 m 78.581245,0 c -0.13626,1.66873 -0.56806,3.62506 -2.11666,4.49792 2.6e-4,-1.88251 -0.0169,-3.88461 2.11666,-4.49792 m -82.814579,3.43959 c -1.514475,0.9517 -3.9878,1.20412 -5.55625,0.26458 1.682221,-0.78211 3.865034,-1.27767 5.55625,-0.26458 m 92.074999,0.26458 c -1.68566,1.00965 -3.86662,0.48313 -5.55625,-0.26458 1.71582,-0.91229 3.88144,-0.576 5.55625,0.26458 m -45.24375,0.52917 c -0.002,3.79756 -3.06784,6.02112 -6.614582,7.14375 0,-3.80762 2.996672,-5.99096 6.614582,-7.14375 m 28.31042,1.05833 c -0.32914,2.19498 -1.64518,4.57332 -3.70417,5.55625 2.7e-4,-2.94217 0.94615,-4.40187 3.70417,-5.55625 m -59.795835,5.55625 c -2.181225,-1.01732 -3.230827,-3.11097 -3.96875,-5.29167 3.093773,0.55192 3.65707,2.54424 3.96875,5.29167 m -8.73125,-2.64583 c -1.396736,1.85949 -4.8006,1.43959 -6.614584,0.52916 2.000515,-1.20015 4.432036,-0.62283 6.614584,-0.52916 m 79.904165,0.26458 c -1.35969,1.92643 -4.88844,0.80275 -6.61458,0 2.06401,-0.99192 4.47622,-0.4146 6.61458,0 m -39.95208,0.79375 c 0,3.88303 -2.35506,5.38374 -5.820835,6.87917 -1.129242,-3.82032 2.953545,-5.35305 5.820835,-6.87917 m 19.84375,1.05833 c -0.19341,2.34924 -1.3671,4.33282 -3.70417,5.02709 0.54398,-2.2905 1.70842,-3.81 3.70417,-5.02709 m -42.597919,5.02709 c -2.181489,-0.76862 -3.244321,-2.57017 -3.704166,-4.7625 2.146564,0.58631 3.388518,2.65615 3.704166,4.7625 m 32.279169,-2.64584 c -0.91969,2.3876 -3.08107,3.80709 -5.55625,4.23334 1.07421,-2.44211 3.13743,-3.44488 5.55625,-4.23334 m -19.843752,4.23334 c -2.393421,-0.35375 -4.654021,-1.63989 -5.55625,-3.96875 2.408237,0.2913 4.441825,1.82059 5.55625,3.96875 m -20.902083,-2.64584 c -1.607873,1.41738 -5.001155,1.91876 -6.879167,0.79375 1.871133,-1.23666 4.750065,-1.41155 6.879167,-0.79375 m 62.970835,0.79375 c -2.00237,1.19936 -5.35861,0.55589 -7.14375,-0.79375 2.31193,-0.68342 5.03264,-0.31882 7.14375,0.79375 M 93.6436,170.82598 c -0.002,3.4335 -2.00395,5.30066 -5.29166,6.35 0,-3.64543 2.00025,-4.92998 5.29166,-6.35 m -22.224995,3.70416 c -1.476375,1.8124 -3.773223,2.80961 -6.085417,2.91042 1.310746,-2.08227 3.715279,-2.8612 6.085417,-2.91042 m 44.449995,2.91042 c -2.27277,-0.10398 -4.62571,-1.14432 -6.08541,-2.91042 2.29843,0.0193 5.02073,0.67628 6.08541,2.91042 m -34.660412,-1.5875 c -0.428625,2.21509 -2.384954,4.08781 -4.497917,4.7625 0.442913,-2.44687 2.40083,-3.73301 4.497917,-4.7625 m 23.547912,4.7625 c -2.29393,-0.67495 -3.83143,-2.34077 -4.7625,-4.49792 2.3921,0.4625 3.99098,2.27225 4.7625,4.49792 m -11.64166,-4.23333 v 1.5875 H 90.4686 l 2.64584,-1.5875 m 2.91041,3.96875 -0.26458,1.32291 H 85.706105 c 0.303741,-3.98383 7.972425,-2.42437 10.318745,-1.32291 z"
       id="path877" />
  </g>
</svg>
