<?xml version="1.0" encoding="UTF-8" standalone="no"?>
<svg
   xmlns:dc="http://purl.org/dc/elements/1.1/"
   xmlns:cc="http://creativecommons.org/ns#"
   xmlns:rdf="http://www.w3.org/1999/02/22-rdf-syntax-ns#"
   xmlns:svg="http://www.w3.org/2000/svg"
   xmlns="http://www.w3.org/2000/svg"
   xmlns:sodipodi="http://sodipodi.sourceforge.net/DTD/sodipodi-0.dtd"
   xmlns:inkscape="http://www.inkscape.org/namespaces/inkscape"
   width="210mm"
   height="297mm"
   viewBox="0 0 210 297"
   version="1.1"
   id="svg8"
   sodipodi:docname="druid.svg"
   inkscape:version="1.0.2-2 (e86c870879, 2021-01-15)">
  <defs
     id="defs2" />
  <sodipodi:namedview
     id="base"
     pagecolor="#ffffff"
     bordercolor="#666666"
     borderopacity="1.0"
     inkscape:pageopacity="0.0"
     inkscape:pageshadow="2"
     inkscape:zoom="1.979899"
     inkscape:cx="281.65253"
     inkscape:cy="340.37242"
     inkscape:document-units="mm"
     inkscape:current-layer="layer1"
     inkscape:document-rotation="0"
     showgrid="false"
     inkscape:window-width="3736"
     inkscape:window-height="2126"
     inkscape:window-x="93"
     inkscape:window-y="-11"
     inkscape:window-maximized="1" />
  <metadata
     id="metadata5">
    <rdf:RDF>
      <cc:Work
         rdf:about="">
        <dc:format>image/svg+xml</dc:format>
        <dc:type
           rdf:resource="http://purl.org/dc/dcmitype/StillImage" />
        <dc:title></dc:title>
      </cc:Work>
    </rdf:RDF>
  </metadata>
  <g
     inkscape:label="Layer 1"
     inkscape:groupmode="layer"
     id="layer1">
    <path
       style="fill:#74813e;stroke:none;stroke-width:0.264583;fill-opacity:1"
       d="m 91.167849,39.772634 c -10.110519,2.45432 -6.006567,17.94097 3.96875,15.58618 10.195721,-2.40684 6.161091,-18.04512 -3.96875,-15.58618 m 0.79375,1.2691 c 8.444971,-1.6792 10.835751,11.38671 2.38125,13.02345 -8.23674,1.59454 -10.648681,-11.37951 -2.38125,-13.02345 m -18.520829,1.58165 c -10.35553,1.29146 -8.54128,17.33643 1.852083,16.01298 10.241227,-1.30386 8.361627,-17.28673 -1.852083,-16.01298 m 37.83542,0.004 c -10.2706,0.82563 -9.22338,16.70016 1.05833,16.03896 10.45448,-0.67204 9.36149,-16.87658 -1.05833,-16.03896 m -37.19857,1.80861 c 2.468829,-1.14138 5.355962,1.45468 6.24946,3.56037 1.399381,3.29806 -0.125942,7.31393 -3.454929,8.71895 -5.927721,2.50137 -6.713011,-10.46793 -2.794531,-12.27932 m 36.39053,-0.19346 c 4.44421,-0.67297 4.01373,7.1728 3.39275,9.82329 -0.30295,1.29344 -0.90805,2.73892 -2.38045,2.9654 -7.32552,1.1266 -8.3566,-11.67657 -1.0123,-12.78869 m -38.87946,0.30141 c -1.22714,4.24924 -1.21629,7.9174 0,12.17084 -5.03,-2.95405 -5.03026,-9.21679 0,-12.17084 m 43.12708,0 c 4.75139,3.11656 4.99957,9.39904 -0.26458,12.17084 1.50786,-4.16624 0.97313,-7.92499 0.26458,-12.17084 m -60.85417,5.76453 c -10.49866,1.72194 -7.82426,17.61512 2.64584,15.83394 10.06395,-1.71212 7.28556,-17.46287 -2.64584,-15.83394 m 76.2,-0.0133 c -10.39918,1.62518 -7.97004,17.55458 2.40692,15.89855 10.19889,-1.62798 7.69514,-17.47729 -2.40692,-15.89855 m -75.67083,1.39251 v 5.55625 c 0,1.60258 0.73025,5.73563 -0.52731,6.93711 -1.45389,1.38879 -4.05845,-1.64677 -4.65244,-2.71516 -2.39157,-4.30027 0.66834,-9.01615 5.17975,-9.7782 m 1.32292,13.22916 v -13.22922 c 7.60915,1.5644 7.57608,11.63558 0,13.22917 m 74.87708,-13.22917 -0.26458,13.22917 c -7.44406,-1.7952 -7.46707,-11.92319 0.26458,-13.22917 m 1.32292,13.22917 v -13.22917 c 7.57819,1.55959 7.53083,11.6332 0,13.22917 m -39.037691,-2.16059 c -4.428592,1.20359 -4.498177,11.42709 1.44939,9.6094 3.34619,-1.02288 2.70193,-4.80536 1.39806,-7.18079 -0.51038,-0.93027 -1.51633,-2.7903 -2.84745,-2.42861 m 0.6731,1.36684 c 0.48102,0.8673 1.00198,1.73037 1.37293,2.65271 1.88727,4.69186 -4.60428,5.41311 -3.71634,1.04987 0.12859,-0.63209 0.37782,-1.24381 0.69321,-1.80499 0.42889,-0.76412 0.99457,-1.33085 1.6502,-1.89759 m -55.033329,1.50627 c -10.33145,1.55205 -7.805,17.62204 2.38125,15.9721 10.26848,-1.66317 7.8949,-17.51568 -2.38125,-15.9721 m 106.89167,0.006 c -10.18038,1.36763 -8.30739,17.25533 1.85208,16.01761 10.51057,-1.28058 8.59472,-17.42122 -1.85208,-16.01761 m -106.14533,1.79257 c 3.37137,1.34329 3.91668,6.53283 2.61077,9.39377 -0.86386,1.89256 -2.42239,3.68988 -4.67638,2.88687 -3.5629,-1.26947 -5.06782,-5.67796 -3.44857,-8.96514 0.89341,-1.81346 3.2704,-4.20926 5.51418,-3.3155 m 2.69324,-0.39423 c 5.05513,3.44144 6.13146,10.15815 -0.26458,12.96459 1.31419,-2.52598 2.74929,-4.97761 2.14762,-7.9375 -0.36168,-1.778 -1.4261,-3.28375 -1.88304,-5.02709 m 104.86364,0.43498 c 2.34262,-0.96917 4.9522,1.56475 5.73246,3.55653 1.26868,3.23929 -0.12224,7.25805 -3.43879,8.61351 -2.218,0.90646 -3.74544,-0.66411 -4.69053,-2.55402 -1.42743,-2.85459 -1.0242,-8.2005 2.39686,-9.61602 m -2.46989,-0.17039 c -2.54688,4.98739 -2.38813,7.69461 0,12.7 -5.5372,-2.90142 -6.00498,-10.01475 0,-12.7 m -77.45677,1.01441 c -4.43018,1.17158 -4.59158,11.37814 1.48802,9.53452 3.35677,-1.01785 2.6498,-4.74874 1.36631,-7.10591 -0.51938,-0.95382 -1.49649,-2.78765 -2.85433,-2.42861 m 52.21658,-0.0643 c -4.37727,1.58115 -4.30662,11.70808 1.67164,9.54961 3.35809,-1.21232 2.49317,-4.93131 1.12977,-7.31864 -0.5117,-0.89562 -1.50363,-2.69955 -2.80141,-2.23097 m -51.75356,1.16655 c 0.58394,0.94218 1.17872,1.88754 1.60549,2.91438 2.2233,5.34617 -5.8756,5.14403 -3.3266,-0.25929 0.45667,-0.96784 1.05833,-1.8206 1.72111,-2.65509 m 52.3875,0 c 0.5461,0.94774 1.14036,1.89283 1.54094,2.91438 1.82774,4.65958 -4.47014,5.46868 -3.8571,1.31551 0.0945,-0.64003 0.33999,-1.2565 0.626,-1.83277 0.44398,-0.89429 1.0377,-1.64967 1.69016,-2.39712 m -38.54238,10.45578 c -1.742811,0.35851 -2.341827,5.57689 -3.071548,7.00669 -1.101196,2.15715 -2.591065,3.98225 -3.274483,6.35 -1.842559,6.38149 0.630237,20.446996 9.963414,18.753666 8.810096,-1.59809 8.680186,-15.149246 5.278173,-21.134386 -1.243013,-2.18704 -3.098006,-3.36682 -4.8768,-5.03343 -1.081617,-1.01362 -2.419879,-6.27168 -4.018756,-5.94254 m 23.57755,0 c -1.64068,0.34449 -2.13042,4.29472 -3.14484,5.49645 -2.012421,2.3839 -4.481251,3.53589 -5.902321,6.53733 -2.89507,6.11452 -2.04444,21.924686 8.136991,20.078686 7.95391,-1.44224 9.55358,-12.986796 7.50359,-19.284936 -0.60511,-1.85949 -1.68169,-3.37556 -2.68658,-5.02709 -1.20994,-1.98887 -1.49913,-4.17962 -2.32066,-6.31004 -0.24501,-0.63553 -0.72919,-1.67032 -1.58618,-1.4904 m -23.135167,1.97961 1.058333,3.96875 -2.38125,0.52917 1.322917,-4.49792 m 23.547917,0.26459 1.05833,4.23333 -2.64583,-0.79375 1.05833,-3.43958 h 0.52917 m -52.3875,15.34583 2.78236,-3.59754 3.56764,-2.75246 -4.29207,-2.95381 c -2.555698,-2.863858 -1.785303,-1.90626 -4.50453,0.94483 l -2.48153,2.46301 2.67917,2.17064 2.24896,3.72533 m 79.88776,-11.22071 -4.09204,4.08887 -0.81995,1.2274 4.34869,4.43336 1.16232,0.57864 3.83857,-3.9952 1.03638,-1.3343 -4.20291,-4.23995 -1.27106,-0.75882 m -51.042621,1.15147 c 3.247231,-0.74878 5.981965,1.8669 7.38505,4.51776 2.68896,5.08026 3.22712,16.947616 -4.217194,18.563426 -3.352535,0.7276 -5.995458,-1.787 -7.433204,-4.54607 -2.665147,-5.11493 -3.102771,-16.836236 4.265348,-18.535116 m 20.896531,-0.0283 c 3.65178,-0.76227 6.33888,2.49343 7.40859,5.59964 1.86188,5.40517 0.78793,16.024746 -6.08568,17.509856 -3.70019,0.7993 -6.422491,-2.43099 -7.508611,-5.60361 -1.85526,-5.419196 -0.77258,-16.053066 6.185701,-17.505886 m -49.47709,1.10172 2.64584,2.64583 v 0.52917 l -2.64584,2.64583 -2.91041,-2.64583 v -0.52917 l 2.91041,-2.64583 m 80.16875,0 2.38125,2.64583 v 0.52917 l -2.64583,2.64583 -2.91042,-2.64583 v -0.52917 l 3.175,-2.64583 M 23.16994,109.36697 h -0.26459 c -2.22535,-2.14974 -1.97355,-0.11959 -0.79375,1.5875 -1.7246,1.56422 -0.84264,2.55164 0.79375,0.79375 2.36874,5.10673 0.65905,10.25684 5.3715,14.64099 2.4557,2.28467 5.6701,3.56579 8.91563,4.24285 0.99724,0.20797 2.64475,0.64638 3.44168,-0.24712 1.51143,-1.69465 0.14994,-6.17987 -0.41386,-8.05338 -1.28728,-4.27779 -4.19976,-7.64143 -8.31911,-9.41361 -1.09554,-0.47123 -6.55902,-1.08083 -6.73987,-2.28786 -0.10316,-0.68871 1.0223,-0.8837 1.47651,-0.97155 1.99014,-0.38523 3.9311,-0.70432 5.79252,-1.56263 4.89194,-2.25557 7.71938,-7.04505 8.50548,-12.222676 0.20365,-1.34144 0.72451,-4.05633 -0.44444,-5.09694 -0.82825,-0.73765 -2.33344,-0.34607 -3.29891,-0.16563 -2.91732,0.54505 -5.89335,1.70948 -8.19099,3.61554 -5.16785,4.28704 -4.14825,9.456466 -5.83155,15.140766 m 139.7,2.38125 h 0.52916 c 2.33178,2.87602 2.41591,-1.90182 1.70048,-3.23797 -0.4318,-0.80698 -1.87987,0.46726 -2.40824,-0.67945 -0.63368,-1.3753 -0.27146,-3.33004 -0.50006,-4.81382 -0.44873,-2.91307 -1.85949,-5.751516 -3.92853,-7.848866 -2.4257,-2.45903 -5.79729,-3.89413 -9.15088,-4.53787 -0.95171,-0.18256 -2.6543,-0.66886 -3.4417,0.14394 -1.95713,2.02088 0.15293,8.30553 1.1512,10.390706 1.75551,3.6666 4.81118,6.2828 8.64023,7.60465 0.96573,0.33311 5.46338,0.59161 5.64013,1.72271 0.10662,0.68236 -0.97896,0.92498 -1.43987,1.03028 -2.08994,0.47784 -4.0894,0.7411 -6.05234,1.6854 -4.90987,2.36193 -7.77531,7.26387 -8.32988,12.56321 -0.13176,1.25942 -0.54213,3.56923 0.39053,4.61354 0.80089,0.89667 2.44633,0.43656 3.4417,0.21854 2.94957,-0.64611 5.85576,-1.71688 8.18673,-3.68855 5.06095,-4.28043 4.25106,-9.41679 5.57134,-15.16645 M 39.83869,91.640294 c -0.5886,8.810356 -4.26355,15.576016 -13.75834,16.668746 2.37371,-3.04086 7.61924,-6.85218 7.9375,-10.847906 h -0.26458 l -8.73125,9.524986 c 0.46686,-9.025716 5.95024,-14.246476 14.81667,-15.345826 m 121.44375,15.345816 c -3.11785,-2.3196 -5.84253,-8.382246 -9.78959,-8.995816 l 8.46667,10.318736 c -9.13844,-1.05516 -13.45644,-7.96501 -13.49375,-16.668736 5.8084,0.83317 11.303,3.1533 13.59985,8.995826 0.80142,2.03835 0.86995,4.21322 1.21682,6.34999 m -41.52927,-8.592336 c -1.52453,0.006 -2.48232,4.101566 -3.60468,5.073386 -2.00184,1.73355 -4.0976,2.79056 -5.58324,5.10804 -3.5933,5.6052 -5.31812,20.95209 4.94427,20.83594 3.36338,-0.0381 6.19998,-2.51487 7.90231,-5.23478 3.55388,-5.6777 3.62929,-12.85002 0.18098,-18.51316 -0.78264,-1.28508 -2.20372,-7.276036 -3.83964,-7.269426 m -53.69454,0.19712 c -1.44727,0.87789 -1.65788,4.037536 -2.35188,5.484806 -0.86942,1.81345 -2.16509,3.361 -2.80458,5.29166 -1.4785,4.46458 -0.65855,9.9531 1.58564,14.02292 2.19261,3.97669 7.10724,7.81262 11.73242,5.19007 8.817771,-4.99983 3.832227,-19.73236 -2.6207,-24.21176 -2.14709,-1.49039 -2.54132,-3.08821 -3.87773,-5.151426 -0.3646,-0.56304 -0.99854,-1.0295 -1.66317,-0.62627 m 0.50297,1.780986 1.32292,2.91042 -2.38125,0.52916 1.05833,-3.43958 m 53.44584,0 0.79375,3.43958 -2.11667,-0.52916 1.32292,-2.91042 m -53.17834,4.72017 c 2.80934,-0.62363 5.38929,1.15993 7.07575,3.24908 3.680353,4.55904 6.233318,17.52679 -1.78806,19.53286 -2.76436,0.69136 -5.36363,-1.18586 -7.0268,-3.21892 -3.66765,-4.48336 -6.44551,-17.74586 1.73911,-19.56302 m 50.26792,0.0188 c 4.26694,-1.01018 6.89504,2.93688 7.48665,6.63813 0.91519,5.72664 -1.51262,14.69496 -8.01582,16.13959 -4.1103,0.91281 -6.72544,-3.04351 -7.2554,-6.61459 -0.8382,-5.64912 1.31551,-14.63172 7.78457,-16.16313 m -76.99375,0.48154 c -2.19559,0.33285 -7.2943,2.03333 -7.30946,4.84479 -0.0206,3.81794 7.21522,5.15355 9.95529,4.74266 2.06931,-0.3101 7.71525,-2.14313 7.47157,-4.94216 -0.3003,-3.44937 -7.46495,-5.04745 -10.1174,-4.64529 m 103.71667,-0.0183 c -2.20478,0.25823 -7.85495,1.96268 -7.83855,4.83552 0.0206,3.63802 7.58296,5.12075 10.2198,4.8014 2.091,-0.25321 7.52501,-1.9611 7.22577,-4.81595 -0.36354,-3.47107 -6.83022,-5.14615 -9.60702,-4.82097 M 49.0991,110.1614 c -3.95631,4.09364 -9.88057,4.99057 -14.2875,1.05834 0.96065,0 6.25041,0.55985 6.47528,-0.65696 0.11293,-0.61119 -1.109,-0.77682 -1.47648,-0.82736 -1.65129,-0.22701 -3.35306,-0.01 -4.9988,0.1614 4.10078,-4.63471 9.91077,-2.77892 14.2875,0.26458 m 102.39375,-0.26458 c -1.71794,-0.24236 -3.52769,-0.40031 -5.25912,-0.19764 -0.37465,0.0439 -1.56819,0.18573 -1.46024,0.80539 0.22675,1.29963 5.71289,0.71517 6.71936,0.71517 v 0.26458 c -5.11492,3.28348 -9.43239,2.61223 -14.2875,-0.79375 3.47848,-4.39182 10.40633,-4.97522 14.2875,-0.79375 m -59.266661,2.83554 c -6.442342,0.86916 -6.671207,7.15566 -9.29508,11.71628 -1.680104,2.9202 -4.455848,4.12565 -6.677025,6.4688 -3.163624,3.33771 -3.453344,8.63944 -0.658548,12.29545 5.030788,6.58098 12.104688,2.11772 18.747313,2.45586 3.44858,0.17568 6.867001,1.84759 10.318751,1.29223 6.56934,-1.05675 10.50423,-8.8273 6.72016,-14.56929 -1.97644,-2.99931 -5.52794,-4.3389 -7.46813,-7.41468 -3.11521,-4.93792 -3.69068,-13.32362 -11.687441,-12.24465 m 67.733331,0.0749 c -1.26841,2.84585 -4.24789,5.37289 -6.33016,7.67291 -0.86413,0.95436 -2.56646,2.39448 -0.81359,3.175 l 7.9375,-9.525 h 0.26458 c -0.0646,9.41785 -5.85046,13.83533 -14.55208,15.61042 0.023,-9.28291 4.38467,-14.97171 13.49375,-16.93333 M 39.5741,129.74032 C 30.82296,127.64085 25.50732,123.63003 25.02202,114.1299 l 6.1201,6.60559 2.43293,1.98649 -1.26442,-2.50904 -6.23028,-6.87679 c 8.8804,-1.34355 14.25681,8.85825 13.49375,16.40417 m 51.859129,-15.36541 c 7.71922,-1.97935 8.49313,7.06966 11.436351,11.66018 1.8333,2.85936 5.03687,4.014 6.99558,6.65242 3.44012,4.63471 0.78502,11.25406 -4.67439,12.72673 -3.39037,0.91466 -6.910921,-0.9488 -10.318751,-1.09326 -6.52092,-0.27649 -17.138649,4.67783 -19.525191,-4.79266 -0.280987,-1.11496 -0.334962,-2.30294 -0.148696,-3.438 0.771525,-4.70085 5.602023,-5.99943 8.091488,-9.53056 2.69822,-3.82746 2.862791,-10.83072 8.143609,-12.18485 m -47.890379,6.63417 c 0.293195,0.29318 0.293195,0.29318 0,0 m 42.63258,7.4086 c -1.001183,0.84428 3.042444,1.81742 3.405187,1.89283 2.797442,0.58261 8.771992,1.23428 10.898983,-1.31207 0.76756,-0.91864 -0.994301,-0.72443 -1.402291,-0.63368 -3.02366,0.67389 -5.86396,1.13348 -8.96779,0.56462 -0.890587,-0.16298 -3.130814,-1.1893 -3.934089,-0.5117 m -53.21591,11.90598 2.91042,0.26459 c -0.67387,1.06203 -2.94024,3.81873 -2.22388,5.15064 0.41233,0.7665 1.77279,0.65246 2.4919,0.66437 2.19641,0.0368 4.40904,0.0548 6.60506,-0.005 0.69294,-0.0188 1.85499,0.0376 2.27224,-0.65987 0.76808,-1.28402 -1.42108,-4.03463 -2.00157,-5.15064 h 2.64583 c -0.40666,-1.91691 -2.04391,-0.83847 -3.3401,-1.62719 -1.19896,-0.72946 -1.38554,-3.04112 -2.77617,-3.41762 -0.69257,-0.18733 -1.14101,0.61118 -1.44991,1.08717 -0.54989,0.84746 -1.00412,2.02512 -1.99655,2.44501 -1.25018,0.52864 -2.46316,-0.21987 -3.13727,1.24804 m 20.09987,-4.49977 c -0.61542,0.72576 0.20267,1.99232 0.55562,2.65086 0.78581,1.46553 3.96267,8.9334 6.1132,6.67068 1.67269,-1.76001 2.91227,-4.52782 4.03304,-6.67068 0.34528,-0.66066 0.9996,-1.75445 0.5551,-2.50798 -0.44821,-0.75988 -1.77853,-0.65193 -2.52069,-0.66437 -1.76688,-0.0296 -7.51416,-0.91916 -8.73627,0.52149 m 71.71055,5.29352 -2.64584,0.26459 c 1.10834,0.96546 2.60456,0.9562 3.70258,1.88859 0.77894,0.66146 1.50548,2.52995 2.67415,2.52995 1.24116,0 1.98014,-2.03147 2.86438,-2.6924 1.42134,-1.06257 4.43785,-1.40706 0.81306,-2.25531 0.62177,-1.04484 2.71489,-3.60707 1.98173,-4.88606 -0.40137,-0.70035 -1.56925,-0.64135 -2.25266,-0.65987 -2.19578,-0.0593 -4.40849,-0.0413 -6.6048,-0.005 -0.72099,0.0122 -2.07777,-0.10186 -2.49317,0.66437 -0.69003,1.27344 1.42902,4.00447 1.96057,5.15064 m 21.53232,-5.1353 c -2.03359,0.82207 -3.75021,5.40333 -4.73261,7.24879 -0.34819,0.65405 -1.05118,1.75657 -0.58684,2.50799 0.46884,0.75882 1.81901,0.65167 2.57466,0.66437 2.35797,0.0392 6.04044,0.67627 8.24706,-0.2167 1.07289,-0.43418 0.57097,-1.66131 0.20347,-2.43363 -0.98928,-2.07883 -2.30743,-4.08887 -3.50441,-6.05552 -0.4236,-0.69612 -1.16522,-2.13387 -2.20133,-1.7153 M 43.27827,135.56115 c 0.978701,0.9787 0.978701,0.9787 0,0 m 19.84375,1.05833 -4.49792,7.67291 -4.23333,-7.67291 h 8.73125 m 69.85,0 c -0.65855,1.24327 -1.30942,2.73076 -2.39686,3.66448 -3.0144,2.58921 -5.28849,-1.3261 -6.33439,-3.66448 h 8.73125 m -93.39792,0.79375 0.79375,1.85208 h -2.11666 l 1.32291,-1.85208 m 107.15625,0 4.23334,7.67291 h -8.46667 l 4.23333,-7.67291 m -103.1875,7.67291 h -8.46666 c 2.20951,-5.1599 6.4779,-5.73537 8.46666,0 m 85.98959,-2.64583 -0.79375,1.5875 h -0.52917 l -0.79375,-1.5875 h 2.11667 m -15.34584,0.52918 c 0.58638,0.87956 0.58638,0.87956 0,0 m -72.47911,7.50568 c -4.42881,1.6764 -3.04699,7.75414 1.30725,8.28463 3.70258,0.45138 7.64805,0.0847 11.37603,0.0847 h 21.960416 c 2.571221,0 10.257631,-1.1475 10.059459,3.1742 -0.160073,3.49382 -5.094288,2.91121 -7.413625,2.91121 -5.72082,0 -11.48133,-0.19738 -17.19792,0.0185 -2.34791,0.0889 -4.65693,1.13798 -5.09958,3.68909 -0.43656,2.51407 1.34144,4.57068 3.77878,4.92204 4.54925,0.65564 9.91394,-1.03822 14.272422,0.64294 3.304381,1.27476 2.636044,5.63774 6.108435,6.7273 5.17869,1.62533 12.316882,0.40428 17.717032,0.40428 2.247901,0 5.048511,0.39767 7.123111,-0.64188 3.0771,-1.54146 2.47121,-5.69489 6.1087,-6.68311 5.07047,-1.37742 11.59801,1.36419 16.38088,-0.79349 2.94825,-1.33006 3.35571,-5.45782 0.71755,-7.32604 -2.69795,-1.91056 -6.41535,-0.38524 -9.41149,-1.17396 -1.4994,-0.39476 -2.91359,-1.80314 -2.37173,-3.46207 0.82921,-2.53894 3.91875,-2.40639 6.05923,-2.40877 l 18.25625,-2.6e-4 c 3.1062,-8e-4 7.60862,-0.20638 7.43267,-4.4966 -0.11456,-2.7932 -2.54344,-4.11824 -5.05142,-4.2156 -6.4188,-0.24951 -12.89077,-0.019 -19.31459,-0.019 H 66.82619 49.89285 c -2.51486,0 -5.7994,-0.54134 -8.18536,0.36195 m 0.81619,1.24853 c 2.41829,-0.80777 5.63933,-0.2876 8.16292,-0.2876 h 16.66875 55.82709 c 6.17352,0 12.34731,-0.0124 18.52083,5.3e-4 2.11667,0.004 5.49725,0.009 5.60731,2.91465 0.14632,3.86107 -5.27446,3.17024 -7.72398,3.17024 -5.82083,0 -11.64193,-0.0204 -17.4625,0.001 -2.56487,0.01 -5.47767,0.34792 -6.43784,3.18532 -2.38919,7.06067 8.33782,4.70032 11.43185,5.90682 2.45983,0.95885 2.82549,4.2799 0.2466,5.35384 -4.86728,2.0275 -11.24242,-0.69479 -16.3502,0.80725 -3.69728,1.08717 -3.01175,5.09058 -5.89968,6.50425 -1.84996,0.90567 -4.53707,0.46646 -6.538641,0.46646 H 87.199103 c -1.834621,0 -4.016904,0.30506 -5.789877,-0.23998 -3.072606,-0.9443 -2.793735,-5.36787 -6.119019,-6.59315 -4.067967,-1.49913 -9.228407,-0.37994 -13.490047,-0.60034 -1.88912,-0.0976 -4.02643,-1.13797 -3.58987,-3.40281 0.60881,-3.16044 4.65799,-2.65747 7.0284,-2.65747 6.02085,-2.7e-4 12.258407,0.47122 18.255982,-0.0508 2.234406,-0.19447 4.394729,-1.77853 4.487333,-4.18306 0.198437,-5.15144 -6.437842,-4.49739 -9.778735,-4.49739 -11.185,0 -22.42238,0.31882 -33.60182,-0.013 -3.31158,-0.0982 -6.49533,-4.30926 -2.07777,-5.78485 m 48.943419,6.21613 c -0.74375,0.69506 1.58432,0.87788 1.82933,0.88741 2.36617,0.0931 4.76091,0.0492 7.128401,0.0116 0.61066,-0.01 2.04126,0.12515 2.42861,-0.50641 0.48101,-0.78449 -2.14445,-0.8009 -2.42861,-0.80539 -1.910031,-0.0302 -7.503321,-0.94721 -8.957731,0.41275 m 16.369501,0.37544 c -2.31193,-1.24328 -2.74849,0.79613 0,0 m -8.731251,7.9375 c 3.482451,-0.12991 0.979231,-2.14604 0,0 m 14.022921,-0.26458 c -0.89006,-1.93834 -5.54937,-1.05913 -7.40833,-1.05834 -0.6313,2.7e-4 -2.10132,-0.23892 -2.49158,0.42757 -0.68078,1.16205 3.08371,0.89535 3.54991,0.89535 h 2.64583 c 1.25598,0 2.48629,0.0667 3.70417,-0.26458 m -16.933331,7.40833 c -2.02645,-1.75578 -5.68167,-1.07924 -8.200234,-1.05516 -0.528902,0.005 -2.575983,-0.17039 -2.731558,0.60801 -0.15584,0.77947 2.093118,0.70009 2.468562,0.70618 2.79374,0.0442 5.70098,0.20425 8.46323,-0.25903 m 1.05833,0.26458 2.64583,-0.26458 c -0.95408,-1.03928 -2.0574,-1.13745 -2.64583,0.26458 z"
       id="path941"
       sodipodi:nodetypes="cscccccccccccccccccccccccccccccccsccccccccccccccccccccccccccccccccccccccscccccccscccccccccccsccccccccccccccccccccccccccccccccccccccccccccsccccccccccccccccccccccccccccccccccscccccccsccccccscsscccccccccccccccccccscccccccscccccccccccccsscccccccscscccsccccscccccccccccscsccccccccccccccccccccscccscccccccccccccccccccccccccccccscccssccccccccsccscccccccccccccccccccccccccccccccccsscscccccsccssccccscscsccscsccsccccccsscccccscsccccccsccccccscssccccccccc"
       inkscape:export-filename="C:\Users\logie\Documents\koding\_GRAFIKI\dnd5eSpells\class icons\druid.png"
       inkscape:export-xdpi="96"
       inkscape:export-ydpi="96" />
  </g>
</svg>
