<?xml version="1.0" encoding="UTF-8" standalone="no"?>
<svg
   xmlns:dc="http://purl.org/dc/elements/1.1/"
   xmlns:cc="http://creativecommons.org/ns#"
   xmlns:rdf="http://www.w3.org/1999/02/22-rdf-syntax-ns#"
   xmlns:svg="http://www.w3.org/2000/svg"
   xmlns="http://www.w3.org/2000/svg"
   xmlns:sodipodi="http://sodipodi.sourceforge.net/DTD/sodipodi-0.dtd"
   xmlns:inkscape="http://www.inkscape.org/namespaces/inkscape"
   width="210mm"
   height="297mm"
   viewBox="0 0 210 297"
   version="1.1"
   id="svg8"
   sodipodi:docname="fighter.svg"
   inkscape:version="1.0.2-2 (e86c870879, 2021-01-15)">
  <defs
     id="defs2" />
  <sodipodi:namedview
     id="base"
     pagecolor="#ffffff"
     bordercolor="#666666"
     borderopacity="1.0"
     inkscape:pageopacity="0.0"
     inkscape:pageshadow="2"
     inkscape:zoom="5.6"
     inkscape:cx="175.79164"
     inkscape:cy="203.14356"
     inkscape:document-units="mm"
     inkscape:current-layer="layer1"
     inkscape:document-rotation="0"
     showgrid="false"
     inkscape:window-width="3736"
     inkscape:window-height="2126"
     inkscape:window-x="93"
     inkscape:window-y="-11"
     inkscape:window-maximized="1" />
  <metadata
     id="metadata5">
    <rdf:RDF>
      <cc:Work
         rdf:about="">
        <dc:format>image/svg+xml</dc:format>
        <dc:type
           rdf:resource="http://purl.org/dc/dcmitype/StillImage" />
        <dc:title></dc:title>
      </cc:Work>
    </rdf:RDF>
  </metadata>
  <g
     inkscape:label="Layer 1"
     inkscape:groupmode="layer"
     id="layer1">
    <path
       style="fill:#837c7d;stroke:none;stroke-width:0.264583"
       d="m 81.039076,56.563779 -7.9375,-0.49689 -12.170832,-6.64686 c 2.64e-4,1.36075 -0.240242,3.0816 0.405606,4.3307 0.598488,1.15755 1.97485,1.81133 3.035564,2.4675 2.674938,1.65497 5.863432,4.36721 8.994242,4.95803 2.36988,0.44714 5.00354,0.15002 7.40834,0.15002 l 0.26458,5.02708 c 1.68196,-0.66649 1.05833,-3.50652 1.05833,-5.02708 h 8.99584 l 0.26458,5.02708 c 1.82721,-0.77258 1.06177,-3.37767 1.05833,-5.02708 l 8.466674,0.32067 12.17083,6.82308 c 1.33324,-4.32383 -1.13612,-5.72188 -4.49792,-7.82162 -2.07327,-1.29487 -4.2582,-3.03609 -6.61458,-3.7592 -2.956194,-0.90725 -6.720944,-0.32543 -9.789584,-0.32543 -0.1733,-9.89119 -1.96956,-20.02732 -1.52929,-29.89792 0.0876,-1.96371 1.2991,-3.60693 1.4261,-5.55625 0.18468,-2.83326 -1.78938,-5.5036 -4.65958,-5.90103 -2.98317,-0.41312 -5.89306,1.83528 -6.21082,4.84291 -0.26644,2.52055 1.49066,4.61801 1.40943,7.15526 -0.31379,9.78606 -1.54755,19.56347 -1.54834,29.35703 m 4.76911,-39.93304 c 4.9538,-1.13763 6.81646,6.74103 1.83118,7.94893 -5.14508,1.24659 -7.08024,-6.74343 -1.83118,-7.94893 m 0.0431,1.44476 c -3.19775,1.0173 -1.71344,6.05573 1.50416,5.05606 3.27475,-1.01743 1.75339,-6.09238 -1.50416,-5.05606 m 0.75512,1.46577 c 1.42558,0 1.43643,2.14884 0.009,2.14884 -1.39382,0 -1.41552,-2.14884 -0.009,-2.14884 m -29.379859,27.23292 c 6.100763,1.65682 14.761629,0.4916 19.514609,-3.88064 1.55099,-1.42663 4.14258,-4.66752 3.35915,-7.01098 -0.45985,-1.37541 -3.45493,-1.4105 -4.61592,-1.96173 -2.68552,-1.27511 -4.6781,-3.53655 -6.35159,-5.93206 l 1.05833,-0.26459 c -0.72363,-1.67679 -1.43457,-3.31113 -3.439579,-3.43958 -2.916502,-2.49925 -8.272991,3.20273 -10.050462,5.27383 -2.148417,2.50352 -5.175514,3.98489 -7.941204,5.69897 -4.302389,2.66673 -8.57541,5.43401 -12.964582,7.95496 -1.674813,0.96203 -5.054573,0.47757 -6.205696,1.75842 -1.548395,1.7227 0.336735,4.84638 1.652032,6.09865 3.20376,3.05091 5.210095,-2.61726 7.731309,-4.19127 6.402388,-3.99679 12.885737,-7.86818 19.311937,-11.82735 2.249487,-1.38586 5.42581,-3.87998 8.129587,-2.13701 2.675728,1.72508 1.408377,5.51225 -1.518709,6.05121 -1.121039,0.20637 -2.759339,-0.69057 -3.658922,0.23865 -1.6129,1.66608 -2.8829,5.45386 -4.01029,7.57052 m 49.477083,-22.48958 c -2.11587,0.0706 -3.56182,1.9599 -2.64583,3.96875 v 0.26458 c -2.05105,2.07447 -3.86212,4.351 -6.614584,5.53331 -1.13507,0.48758 -3.91002,0.48202 -4.3696,1.83132 -0.77655,2.28076 1.93146,5.5608 3.41762,6.96362 4.701914,4.43891 13.376544,5.58376 19.472814,3.928 -0.78687,-1.97088 -2.26536,-3.55229 -3.02763,-5.55625 -0.27411,-0.72072 -0.37676,-2.08174 -1.14168,-2.47676 -0.72654,-0.37518 -1.71714,0.26934 -2.44527,0.38576 -1.58168,0.25321 -3.11336,-0.74824 -3.81344,-2.14643 -1.0676,-2.13154 0.45402,-4.51546 2.7551,-4.71686 1.82007,-0.15931 3.27369,0.70625 4.7625,1.62909 7.20619,4.46717 14.44308,8.89154 21.69557,13.28283 0.92472,0.55985 1.93225,1.07182 2.50666,2.02961 0.62548,1.04299 0.62654,2.74559 2.03438,3.10833 2.61673,0.67416 5.01941,-3.683 5.089,-5.80311 0.10239,-3.11626 -2.82602,-1.74969 -4.60269,-2.1246 -1.14882,-0.2421 -2.18996,-1.08532 -3.175,-1.6846 -5.99678,-3.64834 -12.68519,-6.9596 -18.2417,-11.24644 -1.54384,-1.19118 -2.35003,-3.01394 -3.82217,-4.25992 -1.3933,-1.17917 -6.67147,-5.39665 -7.83405,-2.91023 m -41.275,0.52917 2.116667,0.79375 c 1.745719,5.63723 5.004589,9.89443 11.377079,10.58333 -1.79493,8.99636 -11.880581,9.78958 -19.314579,9.78958 l 2.38125,-5.82083 c 2.078038,0.41301 3.999971,0.47731 5.679016,-1.04061 2.525443,-2.28317 2.137043,-6.49962 -1.197768,-7.80182 -3.623998,-1.41515 -7.14031,1.48299 -10.037498,3.26615 -6.868847,4.22743 -13.807809,9.42517 -21.166665,12.72003 l -0.79375,-1.85208 c 7.101946,-3.55944 14.768247,-8.10684 21.132534,-12.86436 3.550444,-2.65407 5.540904,-5.9041 9.823714,-7.77314 m 73.28958,20.6375 -0.79375,1.85208 c -7.3443,-3.57823 -14.1724,-8.53625 -21.16666,-12.75406 -2.93053,-1.76717 -6.36932,-4.6083 -10.01713,-3.24985 -3.19696,1.19063 -3.75285,5.43955 -1.36736,7.70208 1.68777,1.60073 3.69517,1.58168 5.82824,1.15808 l 2.64583,5.82083 c -7.6999,0 -17.426254,-0.72628 -19.579164,-9.78958 6.397094,-0.69157 9.626334,-4.92808 11.377084,-10.58333 l 1.85208,-0.79375 c 4.67175,1.61694 6.59448,5.23822 10.35288,7.93813 6.42991,4.61899 13.81866,9.09944 20.86795,12.69937 m -49.477084,-19.84375 0.26459,5.82083 c -2.62705,-1.1752 -5.70098,-2.52436 -5.29167,-5.82083 h 5.02708 m -5.02708,4.23333 5.00777,3.64585 0.81306,6.93748 c -5.021,-2.10052 -7.90469,-4.97287 -5.82083,-10.58333 m 6.35,19.57917 c -2.13678,-0.8898 -6.24787,-2.58154 -7.16598,-4.86781 -0.71067,-1.76953 -0.24235,-4.36139 -0.24235,-6.24469 2.08571,0.81676 5.5835,2.29049 6.63919,4.39949 0.92418,1.84626 0.6342,4.68101 0.76914,6.71301 m -56.62083,1.5875 c -2.354633,-1.00965 -3.557059,-3.0398 -3.704167,-5.55625 3.197489,0.64902 4.309269,2.36352 3.704167,5.55625 m 109.008334,-5.55625 c -0.13785,2.54687 -1.3163,4.5421 -3.70417,5.55625 -0.49398,-3.18056 0.45429,-4.92099 3.70417,-5.55625 m -52.122924,11.1125 c -2.62863,-0.0172 -7.11782,-0.85196 -8.0981,-3.80948 -0.58023,-1.75101 -0.0265,-4.18121 0.1606,-5.98011 5.00565,2.17514 7.79225,4.18227 7.9375,9.78959 m -24.341662,34.66041 c -0.129911,1.95607 0.960172,7.73827 -0.376238,9.051131 -2.26695,2.227 -7.680324,0.82365 -10.187251,-0.0698 -0.726546,-0.259021 -2.050786,-0.579441 -1.837267,0.66702 0.750623,4.37885 7.29562,6.8953 11.077839,7.37473 1.750219,0.22198 4.144959,-0.21722 5.477669,1.19115 2.39845,2.53445 0.94509,6.06875 2.23493,8.84158 0.99934,2.14816 4.68604,1.02447 6.03859,3.21628 2.10317,3.4081 0.12621,9.50701 5.0038,11.43318 1.38721,0.54795 1.33482,-1.77562 1.34752,-2.54873 0.0542,-3.27607 -0.0418,-6.52092 -0.25876,-9.78773 h 3.43958 c -0.33761,3.25146 -0.29342,6.52092 -0.26141,9.78693 0.007,0.71623 -0.12461,3.2647 1.2626,2.5781 4.99586,-2.47332 2.52968,-8.14096 5.03263,-11.64457 1.37213,-1.92035 4.93237,-0.89483 5.915034,-2.82708 1.40679,-2.76675 -0.12938,-6.41191 2.23493,-9.04796 1.49411,-1.66581 4.94718,-0.99986 6.98289,-1.4396 4.66593,-1.00806 8.48148,-3.86847 10.31875,-8.307911 l -5.82083,1.457851 -7.67292,-0.39952 0.26458,-9.525001 c 2.38046,0.41063 4.73551,0.61622 7.14375,0.33708 1.88939,-0.21881 3.79836,-0.56753 5.55625,-1.31815 11.41677,-4.87548 5.89016,-17.84377 2.99032,-26.27101 -1.0406,-3.02445 -1.22581,-6.09812 -0.90249,-9.25989 0.0733,-0.7194 0.56356,-2.82072 -0.37465,-3.19855 -2.07963,-0.83687 -3.66342,4.5892 -3.93541,5.84386 -0.95303,4.39499 -0.25903,9.06991 0.12858,13.49375 0.20797,2.37437 0.51488,5.16069 -1.46526,6.92123 -2.18149,1.93993 -6.67358,1.30942 -8.97308,-0.18362 -2.33812,-1.51818 -4.06717,-3.78354 -6.51801,-5.2533 -3.246704,-1.94734 -7.089244,-3.00382 -9.994374,-5.48984 -1.6809,-1.43881 -2.50349,-3.44858 -4.02854,-4.99031 -2.53286,6.44896 -8.96594,7.62926 -14.28671,11.05747 -2.24631,1.44753 -3.948376,3.95499 -6.370107,5.04931 -2.346854,1.06071 -6.211093,1.7436 -8.278812,-0.18945 -3.522133,-3.293 -0.677069,-11.67368 -0.751681,-15.91733 -0.04974,-2.8231 -0.456671,-5.95418 -1.921933,-8.41904 -0.378619,-0.63712 -1.643592,-2.56037 -2.619111,-1.84441 -0.83185,0.61066 -0.339989,2.54291 -0.27252,3.38455 0.220927,2.75378 0.124089,5.53694 -0.65458,8.20182 -2.523331,8.63362 -9.14638,21.78076 2.611702,26.96554 1.765565,0.7784 3.649927,1.1676 5.55625,1.40679 2.413529,0.30295 4.759854,0.10477 7.14375,-0.3265 M 111.9953,66.353409 c -3.43244,-1.93834 -7.22524,-5.34115 -11.1125,-6.16347 -8.773064,-1.85579 -18.504434,1.58353 -27.252084,-0.38576 -4.01479,-0.90408 -8.204996,-4.48443 -11.641669,-6.67994 v -1.5875 c 4.111096,1.40997 7.397749,5.21176 11.641669,6.15262 10.00733,2.21827 22.40068,-3.17288 31.485414,2.4339 2.5019,1.54411 6.43679,2.99165 6.87917,6.23015 m -58.737502,-12.7 c 3.761316,6.36958 1.040077,13.75357 1.347523,20.6375 0.181239,4.05924 3.17447,6.30952 7.119143,5.93513 1.891506,-0.17939 3.722158,-0.70353 5.556249,-1.17263 1.518973,2.86782 3.040063,7.07575 0.40349,9.83932 -1.20941,1.26762 -3.262841,1.31683 -4.901406,1.42002 -4.669895,0.29369 -10.271124,-1.02182 -12.94421,-5.18768 -4.413249,-6.87705 0.935038,-15.20111 2.751667,-21.94666 0.854869,-3.17447 0.493712,-6.29417 0.667544,-9.525 m 66.939582,0 c -0.0587,3.35888 -0.32041,6.5016 0.6313,9.78958 1.62401,5.6097 4.88817,11.14452 4.17512,17.19792 -0.78422,6.65612 -6.70507,9.35037 -12.74392,9.66787 -3.10568,0.16325 -6.79291,-0.0976 -7.79462,-3.58563 -0.56277,-1.9595 -0.32676,-6.01398 1.88648,-6.97891 3.17023,-1.38219 6.72703,1.94733 10.07268,-0.52679 2.86967,-2.12222 2.51884,-6.03091 2.1852,-9.15987 -0.56118,-5.26336 -1.6383,-11.78217 1.58776,-16.40417 m -84.931248,6.35 v -5.29167 c -1.910821,0.79984 -1.892829,4.47172 0,5.29167 M 136.86616,109.74502 c -4.71382,-2.32621 -1.54622,4.02352 -0.65352,6.06584 0.24421,0.55854 0.66437,1.79202 1.4388,1.79202 0.90991,0 1.4142,-1.66079 1.68355,-2.30769 1.15623,-2.7768 3.61103,-6.9768 -1.14591,-5.81475 1.97273,-11.760731 -0.58076,-24.351721 0.28866,-36.237331 0.20346,-2.78024 2.99693,-2.97207 4.0677,-5.15541 1.27212,-2.5945 0.70617,-8.6278 0.31221,-11.4718 -0.42095,-3.03848 -4.14549,0.39952 -5.99149,-0.0945 -0.98319,-0.26326 -3.19802,-2.08915 -4.09231,-0.91864 -0.59055,0.77312 -0.4019,2.17065 -0.40481,3.0779 -0.008,2.62837 -0.88371,7.29456 0.52652,9.60385 1.08373,1.77456 3.45943,2.1717 3.86133,4.44579 0.76702,4.33652 0.10927,9.32895 0.10927,13.73135 0,7.73483 0.34713,15.558561 0,23.283331 m -54.239584,-54.768741 2.11667,1.85208 -2.64584,-0.26458 0.52917,-1.5875 m -49.741664,5.82083 c -0.35687,-0.5977 -0.716094,-1.17052 -1.1675,-1.70365 -0.254794,-0.30083 -2.430092,-2.7104 -2.864353,-1.7452 -0.726149,1.61396 2.947855,3.29539 4.031853,3.44885 m 3.704167,0.26458 c 1.293018,-0.51514 2.384689,-1.2565 3.254375,-2.36643 0.177535,-0.22675 0.900641,-1.13374 0.445822,-1.41473 -1.3208,-0.81624 -3.403335,2.89878 -3.700197,3.78116 m 97.366661,-4.49791 c 4.26482,2.8956 2.91042,8.3132 2.91042,12.96458 -2.0357,-1.11522 -3.0652,-2.11667 -3.175,-4.49792 2.89322,0.65167 0.14658,-2.07883 0,-3.70416 l 2.38125,0.79375 c -1.20862,-2.0029 -2.59953,-3.02843 -2.11667,-5.55625 m 7.67292,0.26458 c -0.063,2.23652 -0.73819,3.3229 -2.64583,4.49792 l 2.64583,0.26458 c -0.21008,1.35493 -2.95963,4.32832 -0.26458,3.43958 0.29845,2.4048 -0.91467,3.40466 -2.91042,4.49792 l -0.26458,-0.26458 c 0.50932,-4.36589 -1.39489,-10.40289 3.43958,-12.43542 m -109.537498,5.82083 c -0.714348,-0.14631 -1.403667,-0.25268 -2.134526,-0.26908 -0.51853,-0.0116 -1.040103,-0.005 -1.558237,0.0177 -4.164356,0.18547 1.389354,2.24711 3.692763,0.25135 m 1.852084,8.20209 v 24.34166 c 0,4.04919 0.448733,8.394971 -0.07303,12.411341 -0.327819,2.5236 -3.021595,2.83607 -4.019312,4.89188 -1.198589,2.47015 -0.98507,9.30223 -0.247465,11.93615 0.178462,0.63739 0.600604,0.97605 1.273942,0.86202 1.457907,-0.2466 2.55442,-1.52771 4.124193,-1.33694 1.231106,0.14949 3.144837,2.00448 4.356893,1.28243 0.872861,-0.5199 0.66384,-2.21774 0.668602,-3.06017 0.01561,-2.7522 0.739775,-6.82255 -0.302683,-9.4017 -0.829993,-2.05291 -3.571341,-2.46116 -4.235709,-4.66117 -1.047486,-3.46816 -0.222515,-8.255271 -0.222515,-11.865511 v -25.39999 c 4.886589,1.95685 2.072481,-3.33323 1.036108,-5.80973 -0.263525,-0.6297 -0.714639,-2.0484 -1.589087,-2.0484 -0.799835,0 -1.224756,1.20994 -1.479021,1.79229 -0.926147,2.12143 -4.020343,8.17774 0.709084,6.06584 m 4.267993,-8.04837 c -0.606425,0.56701 3.57796,1.28165 4.428596,0.48631 0.606425,-0.567 -3.577961,-1.28164 -4.428596,-0.48631 m -3.474243,2.22753 1.852083,4.7625 h -3.704167 l 1.852084,-4.7625 m 52.12291,0 c 4.3053,5.83406 13.405654,6.10262 17.191834,12.10072 1.38113,2.18784 -1.33932,5.73881 -1.16655,8.2722 0.15717,2.30425 1.67244,3.96319 2.33839,6.08541 0.6559,2.09048 0.44582,4.48258 0.11906,6.61459 -1.10939,7.238731 -6.028264,12.544691 -6.047314,20.108331 l -4.7625,0.79375 2.38125,-10.58333 c -5.48428,6.13648 -2.51354,16.01999 -7.14375,22.48958 h -0.26458 c 0,-5.89703 0.2487,-11.61468 1.04325,-17.4625 0.33205,-2.44316 0.55404,-5.58747 1.67984,-7.80785 1.79599,-3.54172 9.487164,-3.66501 9.234754,-9.017531 -0.0807,-1.71371 -2.582074,-1.51924 -3.756034,-1.44569 -3.09589,0.19421 -7.27736,2.38496 -9.389,4.64344 -1.91373,2.046291 0.21669,5.582971 -1.98781,7.806801 -0.64056,-2.16297 0.27992,-5.84333 -1.05569,-7.61947 -0.58367,-0.776561 -1.69439,-0.953301 -2.47438,-1.471621 -2.61356,-1.73751 -4.22646,-3.32687 -7.5819,-3.41047 -0.97288,-0.0241 -2.55773,-0.0577 -3.15172,0.89535 -0.65299,1.04827 0.33099,2.54926 0.92419,3.39063 1.88754,2.677321 4.94559,4.237831 8.04783,5.040581 1.64571,8.87677 2.91042,17.39953 2.91042,26.45833 -4.06109,-3.72083 -3.32635,-11.06858 -4.69345,-16.13958 -0.16801,-0.6231 -1.3708,-5.74993 -2.3794,-5.27421 -0.8628,0.40693 0.95198,4.81621 1.14168,5.53853 0.34475,1.31339 0.63236,2.63895 0.90408,3.96901 l -5.02708,-1.05833 c 0.5416,-7.33187 -4.65958,-12.61851 -5.875072,-19.579171 -0.389731,-2.23044 -0.686065,-4.68947 0.0598,-6.87917 0.726012,-2.13095 2.170642,-3.74332 2.316692,-6.08541 0.16272,-2.60615 -2.478353,-6.1812 -0.97526,-8.42434 2.40374,-3.58669 7.7015,-5.13397 11.35301,-7.04056 2.37146,-1.23798 4.18174,-3.06996 6.08542,-4.90802 m 1.85208,1.5875 -0.26458,0.26459 0.26458,-0.26459 m -17.19792,11.90625 c 1.6002,-0.59505 3.28798,-2.05078 5.02391,-2.08809 6.12352,-0.1307 3.2938,8.26426 4.27487,11.20801 0.45509,1.36499 2.32358,2.15107 3.29513,3.125 0.63658,0.63817 1.50918,2.22805 2.5392,2.22779 1.13268,-2.6e-4 2.18705,-1.80393 2.90936,-2.4982 0.90382,-0.86836 2.58842,-1.63459 2.98344,-2.89586 1.05463,-3.36894 -1.31233,-6.27565 1.42954,-9.55622 2.73871,-3.27687 5.03899,0.16457 8.236224,-0.0516 -2.404534,-2.51328 -5.774274,-3.81714 -8.995044,-4.97919 -1.08664,-0.39212 -2.89269,-1.21497 -3.61606,0.15795 -1.2655,2.4011 -0.88609,6.38546 -1.21761,9.05298 -0.11959,0.96415 -0.43101,2.83845 -1.75049,2.81649 -1.28111,-0.0214 -1.5187,-1.887 -1.65867,-2.81834 -0.34449,-2.29208 0.18627,-7.65942 -1.51977,-9.35646 -1.53405,-1.52585 -6.42699,1.30651 -7.96501,2.04761 -1.72006,0.82868 -3.41233,1.67402 -3.96902,3.60813 m 11.1125,-4.7625 c 0.4236,3.1533 -0.21404,11.35353 3.21998,12.87885 1.54411,0.6858 2.99509,-0.67945 3.47292,-2.06322 1.08506,-3.14272 1.15755,-7.49908 1.2446,-10.81563 l 4.23334,1.05833 c -1.8079,2.1209 -3.42847,4.01584 -3.81741,6.87917 -0.22516,1.65999 0.56303,3.81 -0.0995,5.34696 -0.71041,1.64756 -3.1414,3.13452 -4.54978,4.17804 -1.1221,-1.32848 -3.11176,-2.56461 -3.83328,-4.14073 -0.79772,-1.74308 0.0236,-4.27832 -0.30242,-6.17802 -0.42413,-2.47148 -2.08809,-4.15899 -3.53721,-6.08542 l 3.96875,-1.05833 m -54.76875,8.20208 H 28.1224 v 16.40417 c 0,1.634861 -0.681964,4.757201 1.058333,5.556251 1.128236,-6.726241 0.692679,-14.888641 0.264583,-21.695841 l 2.38125,1.32292 c -0.227595,-0.6477 -0.45937,-1.27238 -0.809784,-1.86664 -0.28821,-0.48868 -0.621506,-0.98716 -1.051242,-1.36419 -2.900865,-2.54397 -4.592452,4.99507 -2.107724,1.64333 m 9.789583,1.32292 2.645833,-1.32292 c 0,7.00431 -1.121304,15.09765 0.264583,21.960421 1.74043,-0.79905 1.058334,-3.92139 1.058334,-5.556251 v -16.13959 c 2.787385,2.83765 1.054364,-3.48562 -1.4605,-2.18387 -0.58129,0.30083 -1.023144,0.86968 -1.402292,1.38615 -0.429418,0.58473 -0.767027,1.21682 -1.105958,1.85605 m 93.662501,-4.23333 c -1.16364,6.93658 -0.26458,14.66612 -0.26458,21.695831 l -2.38125,-1.322921 c 0.21219,0.652471 0.42889,1.274501 0.78131,1.867961 0.2921,0.49186 0.6358,0.98081 1.06125,1.36737 2.7305,2.48285 4.70111,-4.556391 2.12619,-1.64783 -0.82921,-4.944001 -0.26459,-10.340181 -0.26459,-15.345831 0,-2.19181 0.47176,-4.84875 -1.05833,-6.61458 m 11.90625,0 c -1.16337,6.93658 -0.26458,14.66585 -0.26458,21.695831 -2.88793,-2.285211 -1.33535,2.29262 0.54583,2.46512 2.17832,0.19976 3.42794,-4.836581 1.04167,-2.20054 -1.32821,-4.882091 -0.26459,-11.341101 -0.26459,-16.404161 0,-1.63486 0.6821,-4.75721 -1.05833,-5.55625 M 88.976556,100.48453 c 2.46009,-0.18045 3.10885,-1.909241 5.07682,-3.047741 1.90289,-1.10146 4.17777,-1.19539 6.300264,-0.92101 -0.849584,2.43681 -2.502694,4.143901 -4.763294,5.367071 -1.3081,0.70776 -3.08981,1.08612 -4.06136,2.27859 -0.97446,1.19618 -1.13268,3.0652 -1.44753,4.52517 -0.75248,3.48642 -1.24063,7.0403 -1.63407,10.58333 -6.74608,-0.0638 -3.43164,-10.63228 -6.56431,-14.92514 -1.05145,-1.44066 -3.07234,-1.83012 -4.54739,-2.69584 -2.0709,-1.21576 -3.55098,-2.944811 -4.49871,-5.133181 3.91715,-0.53816 6.11637,0.73819 8.99742,3.1541 0.80671,0.676541 2.04046,0.952761 2.42252,2.028031 0.73422,2.06692 -0.60695,5.7359 1.91241,6.99108 1.07421,0.53499 1.92299,-0.78475 2.29235,-1.60602 0.88159,-1.96135 0.51488,-4.50003 0.51488,-6.59844 m -32.543749,1.32291 c 3.651779,1.31154 7.403835,0.72867 11.1125,0 l 2.116669,5.29167 c -4.547925,-0.003 -10.963277,-0.59981 -13.229169,-5.29167 m 60.589583,0.26459 c -3.51869,4.05606 -8.07773,5.0202 -13.22917,5.02708 l 2.11667,-5.29167 c 3.73539,0.8853 7.33796,0.9869 11.1125,0.26459 m -66.14398,6.3746 c -6.749785,1.78277 -4.056856,12.33647 2.640806,10.48491 6.58786,-1.82113 3.987271,-12.23592 -2.640806,-10.48491 m 68.52841,0.0304 c -6.67121,1.93331 -3.74148,12.4296 2.90512,10.39707 6.58283,-2.01321 3.633,-12.29175 -2.90512,-10.39707 m -67.470341,1.27344 c 5.015176,-0.31961 5.553074,7.48189 0.522816,7.87533 -5.153024,0.40322 -5.658114,-7.54777 -0.522816,-7.87533 m 68.527351,0.007 c 5.00459,-0.52308 5.86316,7.3197 0.79004,7.8367 -5.09005,0.51858 -5.85443,-7.30726 -0.79004,-7.8367 m -69.075568,1.46156 c -3.161506,1.07871 -1.662906,6.00155 1.542785,4.95856 3.182673,-1.03532 1.625865,-6.03965 -1.542785,-4.95856 m 69.086678,-0.009 c -3.24617,0.5342 -2.45824,5.54937 0.76279,5.01677 3.21416,-0.53155 2.44317,-5.54461 -0.76279,-5.01677 m 15.59745,-0.40693 h 3.43958 l -1.5875,4.49792 h -0.52916 l -1.32292,-4.49792 m -102.129164,0.26463 c 0,4.38177 1.548606,10.58837 -3.175,12.70001 0.03982,-2.12196 3.20331,-5.46736 0,-4.76251 0.257677,-1.5539 3.014133,-4.3733 0,-3.43958 0.108849,-2.37305 1.092253,-3.44514 3.175,-4.49792 m 4.762499,4.49792 c -3.313112,-0.90805 -0.162983,1.89045 0,3.70416 l -2.645833,-0.52916 c 1.72376,1.72985 2.604294,2.78421 2.645833,5.29167 -4.813829,-2.70642 -3.439583,-8.10684 -3.439583,-12.96459 2.215356,0.95329 3.326342,2.0365 3.439583,4.49792 m 13.296106,-2.93106 c 1.296723,-0.21775 1.66661,1.75975 0.374385,2.00449 -1.298575,0.24579 -1.701006,-1.78171 -0.374385,-2.00449 m 68.733719,0.0529 c 1.29514,-0.12303 1.47691,1.87458 0.18892,2.01348 -1.34091,0.14473 -1.52268,-1.88674 -0.18892,-2.01348 m 14.27851,5.25939 c -1.31948,-2.87364 -8.7003,0.23918 -3.70417,0.26432 l 1.58724,-5.3e-4 c 0.74612,-0.006 1.39911,-0.0685 2.11693,-0.26379 m 6.15579,-0.64003 c -0.59452,0.57362 3.76,1.31763 4.62174,0.48631 0.59452,-0.57362 -3.75999,-1.31763 -4.62174,-0.48631 m -80.502651,0.9025 c -6.790266,1.44277 -4.667779,11.86444 2.11455,10.58148 6.845567,-1.29461 4.674922,-12.02425 -2.11455,-10.58148 m 49.477081,0.0106 c -6.75058,1.49119 -4.63973,11.94356 2.11508,10.55079 6.89743,-1.4224 4.64053,-12.04304 -2.11508,-10.55079 m -48.681744,1.32424 c 5.117571,-0.35507 5.645944,7.56153 0.524934,7.91792 -5.096933,0.35481 -5.664729,-7.561 -0.524934,-7.91792 m 49.474964,0.005 c 4.96332,-0.50112 5.75178,7.25752 0.78952,7.88987 -5.07233,0.64664 -5.91926,-7.37208 -0.78952,-7.88987 m 28.57447,1.04352 c 0.5633,0.44291 1.07474,0.91148 1.58989,1.41022 0.35612,0.34476 0.70723,0.6985 1.07923,1.02632 3.73671,3.29301 -1.03346,-6.28385 -2.66912,-2.43654 m -4.94744,-0.34132 c -0.7321,0.23416 -3.3184,3.24591 -2.18943,3.10489 1.25942,-0.1569 3.34381,-3.47398 2.18943,-3.10489 m -73.086119,0.72232 c -3.344068,0.31511 -2.861733,5.42686 0.490273,5.09693 3.323431,-0.32729 2.863585,-5.41285 -0.490273,-5.09693 m 49.478939,0.002 c -3.25755,0.36697 -2.77231,5.41602 0.50112,5.11386 3.35703,-0.30982 2.85432,-5.49169 -0.50112,-5.11386 m 27.49629,4.6437 -0.0143,-1.90474 c -0.005,-0.40719 -0.006,-0.81809 -0.0574,-1.2229 -0.40772,-3.22104 -3.26575,2.51777 0.0717,3.12764 m -76.732077,-3.05832 c 1.254654,0 1.231636,1.92299 -0.0074,1.92299 -1.251214,0 -1.248833,-1.92299 0.0074,-1.92299 m 49.495867,-0.0198 c 1.31975,-0.0117 1.34435,2.12169 -0.008,2.00633 -1.20677,-0.10319 -1.24725,-1.99522 0.008,-2.00633 m -61.887362,2.50507 c -1.281641,0.34396 -2.169847,2.17435 -2.786327,3.21919 -1.101989,1.86848 -2.253191,4.1148 -2.143918,6.34814 0.155575,3.17844 3.427677,5.43507 6.475676,4.68498 5.449888,-1.34144 4.144169,-7.17047 2.081477,-10.76854 -0.628385,-1.09643 -1.992312,-3.92218 -3.626908,-3.48377 m 74.165882,0 c -1.29328,0.34237 -2.21271,2.16509 -2.83765,3.21919 -1.11469,1.88118 -2.1643,4.10739 -2.04709,6.34947 0.16881,3.23162 3.51738,5.50889 6.60506,4.63867 5.29934,-1.49357 3.84228,-7.17126 1.86479,-10.72356 -0.6223,-1.11786 -1.92088,-3.92456 -3.58511,-3.48377 m -73.677725,1.10226 c 0.953822,1.45732 1.913202,2.92496 2.668322,4.49791 0.660136,1.37425 1.181365,2.9509 0.852752,4.48919 -1.00621,4.71355 -8.101805,3.06467 -7.492205,-1.57904 0.157427,-1.19856 0.658283,-2.37013 1.203324,-3.43905 0.743744,-1.45785 1.67349,-2.75749 2.767807,-3.96901 m 74.083335,0 c 0.96679,1.35466 1.88171,2.73341 2.61038,4.23359 0.68553,1.41076 1.46658,3.15251 1.06838,4.75351 -1.21337,4.87997 -8.15366,2.97656 -7.48876,-1.84336 0.15504,-1.12395 0.62442,-2.17593 1.14273,-3.17473 0.74269,-1.4314 1.6182,-2.74638 2.66727,-3.96901 m -57.687636,8.50476 c -1.420284,0.24897 -2.421467,2.2868 -3.065992,3.40175 -2.328333,4.02643 -3.013604,12.06447 4.132262,10.90057 5.672662,-0.92393 4.537602,-6.99823 2.522542,-10.63625 -0.63315,-1.143 -1.928552,-3.95737 -3.588812,-3.66607 m 41.283466,-0.83185 c -1.5785,0.97896 -2.61937,2.37808 -3.54991,3.96902 -0.82074,1.40308 -1.55496,2.90486 -1.91823,4.49765 -1.70709,7.48744 9.94489,9.15061 10.30155,1.85208 0.0839,-1.71794 -0.65564,-3.51922 -1.40838,-5.02708 -0.94059,-1.8841 -2.21271,-3.57823 -3.42503,-5.29167 M 91.622386,148.6382 c -1.52532,-0.92208 -3.74703,-2.1 -4.12776,-4.00156 -0.45059,-2.25081 1.08664,-7.02151 -1.42849,-8.16928 0,5.39883 0.60166,8.84635 -4.23333,12.17084 v -10.05417 c -0.001,-1.53749 0.28072,-3.23691 -1.32292,-3.96875 0,4.80298 -1.23005,11.58875 0.3646,16.13958 0.59081,1.68619 3.69438,7.12629 5.7232,7.12629 2.05079,0 4.94744,-4.96887 5.7359,-6.59712 1.61396,-3.33296 0.61727,-8.79845 0.61145,-12.43542 -0.001,-0.55271 0.25586,-3.67321 -0.71146,-3.66606 -0.83132,0.006 -0.60907,2.65906 -0.61039,3.13743 l -8e-4,10.31822 M 66.486994,135.67419 c 1.011502,1.44489 2.017182,2.9046 2.785002,4.49792 0.64849,1.34567 1.27106,2.97947 0.89297,4.49051 -1.15279,4.60825 -8.145991,3.28057 -7.595922,-1.39753 0.148696,-1.26418 0.690033,-2.50084 1.267089,-3.62188 0.734219,-1.42637 1.61925,-2.74347 2.650861,-3.96902 m 40.745836,0 c 0.93398,1.46289 1.90632,2.92471 2.64742,4.49792 0.70247,1.49146 1.40017,3.37265 0.77338,5.00565 -1.59147,4.14655 -7.75124,2.44422 -7.40966,-1.83091 0.10372,-1.29593 0.6776,-2.55561 1.25227,-3.70364 0.7329,-1.46315 1.64201,-2.75722 2.73659,-3.96902 m -15.875004,14.55209 -4.49792,6.35 h -0.52916 l -4.23334,-6.35 c 4.01347,-2.88105 5.216,-2.76014 9.26042,0 z"
       id="path957" />
  </g>
</svg>
