<?xml version="1.0" encoding="UTF-8" standalone="no"?>
<svg
   xmlns:dc="http://purl.org/dc/elements/1.1/"
   xmlns:cc="http://creativecommons.org/ns#"
   xmlns:rdf="http://www.w3.org/1999/02/22-rdf-syntax-ns#"
   xmlns:svg="http://www.w3.org/2000/svg"
   xmlns="http://www.w3.org/2000/svg"
   xmlns:sodipodi="http://sodipodi.sourceforge.net/DTD/sodipodi-0.dtd"
   xmlns:inkscape="http://www.inkscape.org/namespaces/inkscape"
   width="210mm"
   height="297mm"
   viewBox="0 0 210 297"
   version="1.1"
   id="svg8"
   sodipodi:docname="monk.svg"
   inkscape:version="1.0.2-2 (e86c870879, 2021-01-15)"
   inkscape:export-filename="C:\Users\logie\Documents\koding\_GRAFIKI\dnd5eSpells\class icons\fighter.png"
   inkscape:export-xdpi="96"
   inkscape:export-ydpi="96">
  <defs
     id="defs2" />
  <sodipodi:namedview
     id="base"
     pagecolor="#ffffff"
     bordercolor="#666666"
     borderopacity="1.0"
     inkscape:pageopacity="0.0"
     inkscape:pageshadow="2"
     inkscape:zoom="1.979899"
     inkscape:cx="138.74862"
     inkscape:cy="436.09247"
     inkscape:document-units="mm"
     inkscape:current-layer="layer1"
     inkscape:document-rotation="0"
     showgrid="false"
     inkscape:window-width="3736"
     inkscape:window-height="2126"
     inkscape:window-x="93"
     inkscape:window-y="-11"
     inkscape:window-maximized="1" />
  <metadata
     id="metadata5">
    <rdf:RDF>
      <cc:Work
         rdf:about="">
        <dc:format>image/svg+xml</dc:format>
        <dc:type
           rdf:resource="http://purl.org/dc/dcmitype/StillImage" />
        <dc:title></dc:title>
      </cc:Work>
    </rdf:RDF>
  </metadata>
  <g
     inkscape:label="Layer 1"
     inkscape:groupmode="layer"
     id="layer1">
    <path
       style="fill:#5e7189;stroke:none;stroke-width:0.264583"
       d="m 104.72734,41.579902 c -0.70882,2.853293 -1.29222,5.564108 -3.17394,7.924006 -4.56274,5.721879 -12.884674,6.715125 -18.449134,1.864545 -1.95527,-1.704499 -3.41021,-3.856064 -4.14681,-6.345661 -0.15849,-0.535146 -0.39793,-2.569633 -1.21153,-2.569633 -0.77867,-2.7e-5 -0.40269,3.554836 -1.08347,4.238572 -0.79824,0.801979 -3.57002,1.304713 -3.76899,2.509097 -0.1098,0.665771 1.15809,0.370072 1.44198,0.296598 1.4351,-0.37129 2.81279,-1.045501 4.19815,-1.567524 1.55204,3.296152 1.12501,4.346363 -1.42346,6.922188 -0.36248,0.366262 -2.5564,2.234221 -1.86478,2.882212 0.75459,0.707284 2.85908,-1.717755 3.28824,-2.133574 2.56249,-2.482771 3.52875,-2.588842 6.61458,-1.056243 -0.41672,1.45759 -2.95857,5.100002 -0.79375,5.820833 0.43524,-0.954616 0.8173,-1.945613 1.2999,-2.877158 0.85989,-1.659626 3.471861,-2.659698 4.644494,-0.616559 0.824971,1.437402 0.375179,3.746924 0.41566,5.339186 0.009,0.358775 -0.03175,2.353733 0.701675,2.207154 1.195917,-0.238919 0.540544,-5.676794 0.720461,-6.651995 0.363537,-1.972654 2.529684,-2.139633 4.124064,-2.692294 0.2278,0.647806 1.82271,5.694362 2.81384,5.070951 1.0377,-0.652436 -1.15993,-4.768056 -1.49093,-5.600118 3.4126,-1.512332 4.42622,-1.008486 7.14217,1.568 0.33787,0.320569 2.18545,2.298012 2.75563,1.572419 0.73078,-0.930222 -2.21985,-3.387169 -2.72838,-3.934195 -2.08016,-2.238058 -1.49728,-3.573728 -0.29025,-6.085391 0.64585,0.296043 4.56195,2.422552 4.98898,1.304449 0.4064,-1.06336 -3.77401,-2.337885 -4.45981,-2.627365 0.52228,-1.445128 1.50653,-3.949118 -0.26459,-4.7625 M 54.456506,57.190318 c -5.26758,-1.111938 -9.83429,3.837252 -9.33846,8.995834 0.55827,5.810779 5.60255,7.668154 10.66138,7.672652 0.76227,7.93e-4 6.27036,0.454818 6.27036,-0.554567 0,-1.218935 -4.96729,-0.767556 -5.74119,-0.76835 -1.98782,-0.0019 -4.01479,0.0545 -5.81528,-0.922867 -4.06215,-2.205566 -5.22843,-7.487973 -2.00528,-10.919354 1.72509,-1.836552 4.18836,-1.909074 5.96847,-3.503348 m 74.522814,0.07138 c -2.4474,-0.216165 -4.20265,3.166057 -5.11149,4.955699 -0.85355,1.680898 -2.23679,6.369579 -1.97564,8.202083 0.40931,2.872581 4.31588,6.471973 7.17761,6.711156 2.3503,0.196321 6.43917,-3.041914 6.72915,-5.406231 0.21087,-1.717675 -0.71517,-3.571875 -0.91705,-5.273675 -0.15927,-1.341173 0.2757,-3.031596 -0.39978,-4.257675 -0.5424,-0.984779 -1.74757,-1.384035 -2.54079,-2.125927 -0.91943,-0.859922 -1.54702,-2.680467 -2.96201,-2.80543 m 0.0897,4.426532 -1.05833,-2.910417 c 1.56554,0.468577 1.82853,1.536859 1.05833,2.910417 m -2.11667,-1.5875 c 1.04934,2.86676 -0.32861,4.388644 -2.38125,6.35 0.0489,-2.536825 0.8472,-4.344458 2.38125,-6.35 m -71.172914,4.7625 c -4.24392,0.642144 2.25769,2.782358 0.84931,-1.03214 -0.15822,-0.428889 -0.43338,-0.809889 -0.7612,-1.125273 -3.35465,-3.225879 -8.21637,2.120371 -4.87654,5.275263 0.37227,0.351631 4.18598,1.903148 3.69226,0.455083 -0.45349,-1.329796 -2.90645,-0.9271 -3.16918,-2.801143 -0.42227,-3.01334 3.07605,-2.114021 4.26535,-0.77179 m 77.522914,0 -3.175,-1.852083 c 1.93305,-1.331119 3.0189,-0.231775 3.175,1.852083 m -3.70416,-0.529167 3.175,1.852084 -3.70417,3.439583 0.52917,-5.291667 m -1.5875,0.79375 -0.26459,5.55625 -4.23333,-0.79375 v -0.529166 l 4.49792,-4.233334 m 5.55625,2.38125 c 1.06706,3.965311 0.18811,5.849409 -3.43959,7.9375 -0.90329,-3.83831 0.48154,-5.473435 3.43959,-7.9375 m -73.289594,0.529172 c -0.40455,-0.06641 -0.80777,-0.143404 -1.21814,-0.167217 -3.33322,-0.192881 -0.44371,2.815167 1.21814,0.167217 m 26.72291,-0.134938 c -23.89478,2.18493 -39.80841,23.308469 -39.14034,46.437023 0.27199,9.4107 4.46485,18.88464 10.60768,25.91435 1.37398,1.57216 4.70482,5.97033 7.04268,5.83301 1.03505,-0.0606 -0.36195,-1.53062 -0.576,-1.74096 -1.50416,-1.47955 -3.14563,-2.79162 -4.58364,-4.34446 -6.59845,-7.12576 -10.96645,-16.93704 -11.17389,-26.72027 -0.17409,-8.20473 1.62322,-16.183245 5.83698,-23.283338 10.14412,-17.093142 31.71348,-25.347348 50.507364,-18.486702 19.84005,7.242439 31.94235,28.460964 27.24388,49.17837 -1.76821,7.79727 -5.7904,14.93309 -11.40645,20.61104 -1.19486,1.20756 -2.60112,2.22171 -3.74332,3.47637 -0.20109,0.22066 -1.11681,1.32503 -0.33973,1.44515 2.25928,0.34951 6.11585,-4.73604 7.39378,-6.21797 6.38202,-7.4004 10.3341,-17.17384 10.47777,-26.9875 0.38629,-26.391137 -21.58603,-47.543252 -48.146764,-45.114113 m 41.804174,7.807855 c -2.13281,-0.875771 -3.46605,-2.367492 -4.7625,-4.233334 2.96121,0.3429 4.10395,1.316038 4.7625,4.233334 M 78.798176,146.09032 c -10.75319,-4.59449 -19.20822,-12.96326 -22.60441,-24.34166 -6.44128,-21.58154 9.35937,-44.97256 31.86483,-47.00165 24.640644,-2.221706 45.680834,21.391827 39.377144,45.67873 -3.27607,12.62168 -12.16158,20.14299 -23.23756,25.92917 1.06389,1.47346 2.91253,0.31432 4.23333,-0.34502 3.44382,-1.71979 6.7056,-3.94891 9.52473,-6.5704 9.13607,-8.49577 13.76416,-22.03714 11.45726,-34.35959 -2.62255,-14.008363 -12.40446,-26.025738 -26.27366,-30.229438 -22.834064,-6.920971 -49.461994,9.488752 -49.739544,34.462778 -0.13097,11.77078 3.58775,22.52477 12.4333,30.65357 2.71356,2.49369 5.92825,4.57729 9.26041,6.14177 1.26789,0.59531 2.97392,1.68831 3.70417,-0.0183 M 39.375266,81.002818 c -1.1991,3.302529 -3.21998,4.923632 -6.35,6.35 l 4.17406,3.001169 2.96968,4.142581 2.98768,-4.728898 2.65245,-1.97776 -1.93225,-1.728523 -4.50162,-5.058569 m 104.165924,0.749829 -1.61846,2.130161 -3.00937,2.557992 -1.19697,1.336145 2.91861,2.217473 3.3573,3.752321 2.21933,-3.150394 3.57875,-2.965979 -2.89851,-2.189691 -3.35068,-3.688028 m -103.636764,2.425171 3.43958,3.439584 -3.175,3.439583 h -0.52916 l -3.43958,-3.175 v -0.529167 l 3.70416,-3.175 m 103.981254,0 3.175,3.175 v 0.529167 l -2.91042,3.175 h -0.52917 l -3.70416,-3.704167 3.96875,-3.175 m -55.562504,8.73125 c -5.20277,-4.594489 -11.4001,-2.438929 -12.96458,4.233334 -3.633,-3.732742 -10.21451,-3.641461 -12.22084,1.854993 -1.79679,4.921785 -0.47916,12.254185 -0.47916,17.459595 0,2.3712 -0.37042,5.139 0.44688,7.40648 2.16561,6.00869 9.46944,5.61261 12.78228,1.06019 2.10768,3.37264 4.81172,4.6855 8.73125,4.23333 -0.28628,2.5109 0.0265,5.53376 2.67521,6.71618 2.179898,0.97288 5.369714,0.054 7.643544,-0.22939 4.67677,-0.58288 9.35778,-1.15517 14.02292,-1.82192 3.00937,-0.43021 6.02244,-0.80883 8.17668,-3.20358 4.06029,-4.51379 3.56976,-11.05693 1.49595,-16.27796 -0.94244,-2.37199 -2.51645,-4.65031 -3.09192,-7.14375 -1.31551,-5.69833 2.56117,-16.771145 -6.58071,-17.401647 -1.0631,-0.07329 -2.16112,0.01111 -3.16971,0.370945 -1.30757,0.466196 -2.38019,1.352815 -3.44488,2.214034 -1.85737,-8.25209 -12.134318,-6.878902 -14.022914,0.529166 m 6.086474,-4.826264 c 2.9636,-0.561975 5.7404,1.472406 6.54156,4.297627 0.19632,0.692944 0.0847,3.924564 0.9615,4.093633 0.63711,0.122767 1.81001,-2.986616 2.23625,-3.465248 2.68658,-3.015985 7.67398,-2.180431 9.3136,1.494367 1.14432,2.564606 0.5252,6.240197 0.5252,8.989217 0,6.3209 0.85672,13.33395 -0.11615,19.57864 -0.37889,2.43338 -2.32675,4.48257 -4.80986,4.78367 -7.20963,0.87418 -6.45107,-7.87321 -6.45107,-12.45605 0,-0.62151 0.29739,-5.89069 -0.71173,-5.68167 -1.08876,0.22569 -0.61119,4.60428 -0.61119,5.41708 0,4.22355 1.06177,10.94476 -4.23545,12.4886 -7.83299,2.28256 -7.406217,-7.79462 -7.406217,-12.4886 0,-0.6215 0.297392,-5.89068 -0.711727,-5.68166 -1.04537,0.21669 -0.61119,4.12829 -0.61119,4.88791 0,3.9968 1.141148,9.96051 -2.67838,12.58835 -2.85035,1.96136 -6.96753,0.64743 -8.25076,-2.54212 -0.74348,-1.84811 -0.44768,-4.1267 -0.44794,-6.07748 -2.7e-4,-0.68977 0.37015,-4.50135 -0.79375,-4.50135 -1.18878,0 -0.79349,4.05236 -0.79375,4.76594 -0.002,4.39473 -1.6764,9.8933 -7.39987,8.17218 -2.0484,-0.61595 -3.42979,-2.40665 -3.80577,-4.46908 -1.04933,-5.75574 -0.17674,-12.40763 -0.17118,-18.25519 0.002,-2.56805 0.006,-5.120748 2.18546,-6.886577 2.47465,-2.005541 6.33597,-1.493837 8.14652,1.144059 0.36248,0.528108 1.2102,4.121148 1.97141,3.852338 0.88582,-0.31274 0.65352,-2.444755 0.66119,-3.137434 0.0254,-2.334419 0.25056,-4.515379 2.18546,-6.100498 2.36696,-1.939131 5.93196,-1.486165 7.81976,0.891117 0.37941,0.477572 1.37795,3.350418 2.067984,3.218656 0.916781,-0.175419 0.656695,-3.164946 0.754591,-3.828786 0.363538,-2.462212 2.122752,-4.615127 4.635499,-5.091641 M 148.36639,101.943 c -1.78011,0.006 -3.33189,3.43112 -4.07723,4.72441 -2.86332,4.9694 -4.63444,14.34809 4.09443,14.28009 8.48678,-0.0662 7.05168,-8.95509 4.25503,-14.01551 -0.73924,-1.33747 -2.45507,-4.99507 -4.27223,-4.98899 m -110.314044,6.31191 c -0.70432,1.19168 -2.89005,3.34063 -3.51711,0.72787 -0.24712,-1.02923 2.08386,-7.56312 -0.96917,-6.97892 -1.88806,0.36115 -3.45149,3.95235 -4.27857,5.4573 -0.86704,1.57718 -1.64571,3.2631 -2.04179,5.02708 -2.00983,8.95271 12.00176,11.80147 13.30113,2.91042 0.1815,-1.24249 -0.005,-2.50746 -0.35983,-3.70258 -0.41805,-1.40811 -1.02473,-2.48127 -2.13466,-3.44117 m 110.595834,-5.02709 c 2.13571,3.36074 5.85099,7.86421 5.03078,12.16793 -0.97287,5.10407 -8.5717,5.49645 -10.39759,0.78263 -1.67058,-4.3135 2.65033,-9.60993 4.83764,-12.95056 h 0.52917 M 33.819016,103.4924 c 0.0349,2.44925 -2.61118,9.56469 2.88369,8.23543 0.67125,-0.16246 1.2737,-0.50827 1.87881,-0.82709 0.8882,3.21601 1.00541,5.98752 -2.11667,7.9375 -0.92022,-5.10619 -4.55083,-4.63841 -5.29167,0.26458 -5.4266,-4.26746 -1.18718,-11.62447 2.64584,-15.61042 m 81.756244,7.67292 c 3.15277,5.63034 5.89068,15.5829 -1.08003,19.83079 -1.86452,1.13638 -4.22222,1.20121 -6.3283,1.53114 -4.37754,0.6858 -8.81671,1.25254 -13.22917,1.65682 -0.52493,-1.57824 -1.47373,-2.92047 -3.178175,-3.35465 -0.461698,-0.11747 -2.977089,-0.24659 -2.768071,0.77206 0.120121,0.58499 1.797314,0.4318 2.215885,0.51593 1.230313,0.24712 1.84785,1.01256 2.407444,2.06666 -3.650192,0.87048 -9.225227,0.76227 -7.364417,-4.73657 0.50853,-1.50336 1.69043,-2.72468 2.60192,-3.99468 h 0.26458 c 3.675327,4.84188 9.001394,4.77811 12.700004,0 3.79677,4.25186 11.11488,5.64145 13.16487,-1.32318 1.21285,-4.12115 -0.24553,-8.75585 0.59346,-12.96432 m 28.575,2.64584 c 0.0722,1.2147 0.33814,2.26509 1.26947,3.12367 1.4007,1.29143 3.21786,0.97287 1.38642,-0.79878 l -0.99484,-0.9779 c -0.52255,-0.52017 -1.04351,-0.94641 -1.66105,-1.34699 m -110.066664,1.85208 c 1.64544,4.09125 -2.17197,4.08199 -0.52917,0 h 0.52917 m 3.175,20.90208 c -1.99205,-0.57891 -3.83328,-0.6133 -5.82083,0 2.25821,3.81768 6.72306,1.95025 8.99583,5.29167 -1.43457,-0.23865 -7.08713,0.0966 -3.62082,2.28521 1.73116,1.09273 3.59886,0.49979 5.4356,1.02949 1.32688,0.38259 2.28203,1.55628 3.2123,2.50613 -1.72535,-0.32887 -8.5889,-0.1262 -4.18994,2.40533 3.17526,1.82748 6.08965,0.12224 8.95244,2.88634 -2.36299,-0.48948 -4.97681,-0.80433 -6.61458,1.32292 1.40335,0.88714 2.8231,1.71873 4.49791,1.94627 2.98874,0.40587 4.76303,-0.69109 7.14375,1.75789 -0.97895,0.0844 -5.74675,1.16523 -4.3,3.00488 1.47822,1.87986 6.50557,0.22278 7.58904,-1.39489 0.80301,-1.19909 0.21325,-3.50017 -0.17912,-4.77705 -1.05728,-3.44064 -4.56354,-4.54289 -3.90367,-0.008 -2.12592,-2.14841 -0.93662,-4.71249 -2.43866,-7.09692 -1.93966,-3.07975 -3.0099,-0.5154 -2.853,1.80526 -0.79164,-0.87736 -1.80076,-1.82457 -1.98464,-3.05118 -0.25268,-1.68275 0.59478,-3.18532 -0.27067,-4.83314 -1.50945,-2.87417 -2.90433,-0.13282 -2.77178,1.7989 -2.55164,-2.66303 -0.23071,-5.13159 -1.47293,-8.1489 -1.2573,-3.05329 -2.83157,0.13996 -3.02498,1.7989 -2.04258,-2.77363 -0.23098,-6.64713 -2.43364,-9.0551 -1.4351,-1.56845 -2.41882,0.60881 -2.45904,1.91479 -0.0733,2.38548 1.55522,4.52993 2.51143,6.61114 m 106.627084,0.52917 -1.5875,-3.96875 c -3.42265,2.8784 -0.8427,6.98606 -2.64584,10.58333 h -0.26458 c -0.20214,-1.9595 -1.62851,-5.24457 -3.15622,-1.81927 -1.30863,2.9337 0.61437,4.80351 -2.13545,7.37552 -0.0214,-2.26536 -0.99245,-4.47675 -2.84268,-1.54067 -1.49278,2.36829 -0.34131,4.94639 -2.44898,7.09692 0.33522,-2.30372 -0.72099,-4.74503 -2.84295,-2.04523 -1.15729,1.47268 -1.70418,3.83435 -1.59491,5.69675 0.1487,2.53074 6.61776,4.79292 8.10736,2.50666 1.24831,-1.91532 -3.44461,-2.90169 -4.46325,-2.98318 2.98264,-2.93079 6.33386,-0.72337 9.7319,-2.62466 1.32741,-0.74269 1.62295,-1.96295 0,-2.52439 -1.46341,-0.50642 -2.98106,-0.22384 -4.44024,0.12197 3.11124,-3.40122 8.1071,-0.7239 10.84792,-5.02708 -2.18625,-0.7837 -4.09787,-0.72549 -6.35,-0.26459 0.92948,-0.95012 1.8878,-2.13651 3.2123,-2.52571 1.83674,-0.53948 3.69782,0.0886 5.4356,-1.01044 3.48377,-2.20345 -2.18254,-2.52466 -3.62082,-2.28468 2.23679,-3.36603 6.72756,-1.45441 8.99584,-5.29167 -1.9984,-0.58049 -3.82244,-0.58049 -5.82084,0 0.94853,-2.11137 2.57784,-4.19841 2.50349,-6.61141 -0.0426,-1.37556 -0.93398,-3.63167 -2.44184,-1.93198 -2.03332,2.29182 -0.72046,6.29523 -2.17831,9.07256 m -107.420834,-8.20208 0.52917,3.43958 c -0.81863,-1.1266 -0.94615,-2.11693 -0.52917,-3.43958 m 110.595834,0 -0.79375,3.43958 0.79375,-3.43958 m -105.568754,6.61458 c 0.19923,1.37769 0.25453,2.50851 -0.52917,3.70417 l 0.52917,-3.70417 m 100.541664,0 0.26459,3.70417 c -0.79984,-1.22714 -0.72787,-2.35162 -0.26459,-3.70417 m -104.510414,3.175 -3.70416,-1.05833 c 1.48986,-0.23363 2.58312,0.0347 3.70416,1.05833 m 111.918754,-1.32292 v 0.26459 l -3.70417,1.05833 c 1.11257,-1.01706 2.22805,-1.23904 3.70417,-1.32292 m -65.616674,15.08125 -9.26015,-3.88408 -3.63511,-0.0487 -1.08796,3.40386 0.48947,8.99557 c -4.32911,0.0773 -8.62859,1.08453 -12.43541,3.175 3.34116,10.07242 12.36292,17.04314 23.01875,16.64203 3.62717,-0.13653 7.35541,-2.35427 10.847914,-2.15794 2.213239,0.12408 4.42277,1.30148 6.61458,1.70973 5.38163,1.00277 11.08472,0.52494 15.875,-2.26536 3.82614,-2.22885 6.70957,-5.63007 8.90535,-9.43054 0.6522,-1.12898 1.92061,-2.93661 1.29593,-4.30054 -1.37107,-2.99323 -8.7466,-3.26813 -11.52419,-3.37238 l 0.58367,-9.25962 -0.97155,-3.15886 -3.84546,0.0836 -9.26041,4.1328 c -1.08532,-2.9935 -2.7141,-5.73352 -4.7379,-8.19124 -0.73501,-0.89297 -1.724287,-2.24922 -2.985291,-2.35744 -1.313657,-0.11271 -2.411942,1.20174 -3.174473,2.09312 -2.06507,2.41433 -3.69358,5.18504 -4.71276,8.19097 m -38.1,-10.58333 -0.26458,3.175 0.26458,-3.175 m 92.075004,0 v 3.175 h -0.52917 l 0.52917,-3.175 m -96.837504,1.85208 -3.43958,-0.52916 3.43958,0.52916 m 104.775004,-0.79375 v 0.26459 l -3.43958,0.52916 3.43958,-0.79375 m -54.504167,0.26459 c 7.653867,5.73881 10.071097,16.92857 6.001017,25.4 -0.95568,1.98887 -2.97895,6.43493 -5.437455,6.84106 -2.489993,0.41143 -5.173929,-5.31018 -6.017679,-7.10565 -4.3561,-9.27073 -0.53499,-17.78317 5.454117,-25.13541 m -40.481247,4.7625 0.79375,3.43958 h -0.26459 l -0.52916,-3.43958 m 82.020834,0 -0.79375,3.43958 h -0.26459 l 1.05834,-3.43958 m -86.783334,1.32291 v 0.26459 l -4.23334,-0.52917 4.23334,0.26458 m 95.514584,-0.79375 c -1.21841,0.96758 -2.44819,1.08982 -3.96875,1.05834 l 3.96875,-1.05834 m -58.208334,5.55625 c -2.14419,8.82095 1.21047,15.0876 6.085414,22.225 -12.975694,-3.10329 -20.291694,-13.74166 -17.727084,-26.9875 4.21561,0.99457 7.99121,2.39898 11.64167,4.7625 m 28.574994,-4.7625 c 0.40164,3.81873 0.64029,7.59804 -0.26458,11.37709 -2.07724,8.67568 -9.44615,13.70541 -17.727084,15.61041 4.795834,-7.63587 7.575554,-13.03575 6.085414,-22.225 3.83964,-2.27832 7.55095,-3.7801 11.90625,-4.7625 m -56.091664,3.70417 1.5875,3.96875 c -1.04034,-1.21206 -1.65444,-2.345 -1.5875,-3.96875 m 71.702084,0 c 0.0222,1.65656 -0.49662,2.7395 -1.5875,3.96875 l 1.5875,-3.96875 m -76.729164,1.5875 v 0.26458 l -4.49792,-0.26458 v -0.52917 l 4.49792,0.52917 m 86.518744,-0.52917 v 0.26459 l -4.7625,0.52916 4.7625,-0.79375 m -80.697914,5.29167 v 0.26458 l -4.23333,0.79375 4.23333,-1.05833 m 74.347914,0.79375 v 0.26458 l -4.23333,-0.79375 4.23333,0.52917 m -60.060414,2.11667 c 2.68393,7.92744 9.53267,13.5255 17.72708,15.08125 -2.05105,1.55442 -4.90907,1.84838 -7.40833,2.03094 -9.44986,0.69109 -18.65471,-5.58509 -21.43125,-14.73094 3.61844,-1.37054 7.23424,-2.23573 11.1125,-2.38125 m 52.652084,2.38125 c -4.28017,11.15801 -17.36355,18.85262 -28.83958,12.96458 4.89981,-1.64782 9.39614,-3.3872 13.05136,-7.23397 1.70815,-1.79758 3.40281,-6.94082 5.63139,-7.75785 2.88476,-1.05728 7.48374,1.01468 10.15683,2.02724 z"
       id="path973"
       inkscape:export-filename="C:\Users\logie\Documents\koding\_GRAFIKI\dnd5eSpells\class icons\monk.png"
       inkscape:export-xdpi="96"
       inkscape:export-ydpi="96" />
  </g>
</svg>
