<?xml version="1.0" encoding="UTF-8" standalone="no"?>
<svg
   xmlns:dc="http://purl.org/dc/elements/1.1/"
   xmlns:cc="http://creativecommons.org/ns#"
   xmlns:rdf="http://www.w3.org/1999/02/22-rdf-syntax-ns#"
   xmlns:svg="http://www.w3.org/2000/svg"
   xmlns="http://www.w3.org/2000/svg"
   xmlns:sodipodi="http://sodipodi.sourceforge.net/DTD/sodipodi-0.dtd"
   xmlns:inkscape="http://www.inkscape.org/namespaces/inkscape"
   width="210mm"
   height="297mm"
   viewBox="0 0 210 297"
   version="1.1"
   id="svg8"
   sodipodi:docname="ranger.svg"
   inkscape:version="1.0.2-2 (e86c870879, 2021-01-15)"
   inkscape:export-filename="C:\Users\logie\Documents\koding\_GRAFIKI\dnd5eSpells\class icons\fighter.png"
   inkscape:export-xdpi="96"
   inkscape:export-ydpi="96">
  <defs
     id="defs2" />
  <sodipodi:namedview
     id="base"
     pagecolor="#ffffff"
     bordercolor="#666666"
     borderopacity="1.0"
     inkscape:pageopacity="0.0"
     inkscape:pageshadow="2"
     inkscape:zoom="1.979899"
     inkscape:cx="258.95677"
     inkscape:cy="261.33608"
     inkscape:document-units="mm"
     inkscape:current-layer="layer1"
     inkscape:document-rotation="0"
     showgrid="false"
     inkscape:window-width="3736"
     inkscape:window-height="2126"
     inkscape:window-x="93"
     inkscape:window-y="-11"
     inkscape:window-maximized="1" />
  <metadata
     id="metadata5">
    <rdf:RDF>
      <cc:Work
         rdf:about="">
        <dc:format>image/svg+xml</dc:format>
        <dc:type
           rdf:resource="http://purl.org/dc/dcmitype/StillImage" />
        <dc:title></dc:title>
      </cc:Work>
    </rdf:RDF>
  </metadata>
  <g
     inkscape:label="Layer 1"
     inkscape:groupmode="layer"
     id="layer1">
    <path
       style="fill:#4e8977;stroke:none;stroke-width:0.264583"
       d="m 104.36338,34.362949 c -3.84837,0.435769 -2.29077,5.04243 -1.54279,7.672917 0.89747,3.156744 2.27066,6.193102 3.97166,8.995833 0.99616,1.641475 2.46354,3.185584 3.07023,5.027084 0.71596,2.172493 0.32173,4.882091 0.32173,7.14375 -2.1246,-2.885282 -1.92405,-6.313752 -3.29247,-9.525 -2.45851,-5.770298 -7.595931,-8.526727 -13.376281,-10.018448 -1.845998,-0.47625 -3.341159,-1.252538 -5.001419,-2.160059 -0.427302,-0.233362 -1.46341,-0.854604 -1.782763,-0.147372 -0.646377,1.431131 1.182423,4.642114 1.717146,5.975879 1.156229,2.883429 4.337315,6.761956 4.529932,9.789318 0.08599,1.353609 -0.837407,2.7432 -1.31498,3.969015 5.219174,1.843088 10.700015,2.185458 16.139585,1.322917 1.35308,2.362729 2.34924,4.099718 2.38125,6.879166 -3.63881,0.09922 -7.07549,0.9398 -10.318751,2.605617 -1.45997,0.749829 -3.7375,3.014927 -5.43454,2.811992 -2.287589,-0.273315 -4.930777,-4.141259 -6.47171,-5.682192 L 71.555042,52.619199 c 2.568575,-0.71755 5.141119,-1.445418 7.665508,-2.308489 0.609336,-0.208492 2.106613,-0.558271 2.106613,-1.417638 0,-1.166283 -2.60694,-1.691216 -3.422386,-1.958975 -3.894931,-1.278202 -7.764462,-2.636044 -11.641402,-3.967956 -1.260739,-0.433123 -6.012127,-2.820723 -7.07337,-1.526117 -0.97499,1.189567 0.838729,4.65164 1.253331,5.887509 1.89521,5.650441 3.721894,11.354858 5.820039,16.933333 2.7305,-1.974585 3.330046,-7.483475 4.233334,-10.583333 7.44511,7.446433 14.616377,16.407341 23.01875,22.754166 v 0.264584 0.264583 c -6.303169,5.295371 -7.862094,15.463044 -5.602552,23.018746 0.701939,2.347388 1.785408,4.545278 3.088745,6.614588 0.785284,1.24724 1.742282,2.50322 0.888207,3.96875 -0.586052,1.00515 -1.531144,1.8288 -2.344738,2.64504 -1.233487,1.23719 -2.534708,2.80537 -4.231746,3.40069 -4.27937,1.50098 -9.407789,-0.70247 -13.758333,0.52678 -2.142596,0.60537 -3.778779,2.76305 -5.291667,4.2754 l -8.995833,8.99584 c -1.274233,1.2745 -3.226065,2.69901 -3.93409,4.40055 -0.693208,1.66528 1.889655,1.65576 2.87655,1.67587 2.644246,0.0537 5.290609,-0.0291 7.935119,0.0148 1.046163,0.0175 2.427023,-0.0193 3.035565,1.01045 1.323181,2.23864 0.403754,7.02363 0.405871,9.56707 5.29e-4,0.88106 -0.334698,3.04138 0.52705,3.63378 0.832379,0.57177 2.126191,-0.8128 2.65086,-1.29592 2.373313,-2.18493 4.595019,-4.55481 6.875992,-6.83578 2.802202,-2.8022 7.552266,-6.09388 9.119393,-9.78958 1.821128,-4.29525 -0.709083,-9.7798 0.608542,-14.20548 0.912283,-3.06414 4.929717,-5.60308 6.940815,-8.01952 h 0.26458 c 5.898101,6.10473 15.569151,7.82743 23.547921,5.41152 2.27357,-0.68845 4.36801,-1.77588 6.35,-3.07366 1.06972,-0.70062 2.30294,-1.73938 3.64782,-1.15332 2.21958,0.96705 5.765,4.69635 6.43255,7.02019 1.26867,4.41695 -1.2491,10.01606 0.63711,14.23088 0.84931,1.89785 2.83078,3.37714 4.25926,4.83605 3.08319,3.14854 6.26507,6.20051 9.33583,9.35937 0.70273,0.72311 3.59039,4.40425 4.81409,3.50732 0.81677,-0.59849 0.65167,-2.73606 0.7067,-3.62585 0.21776,-3.51049 0.0646,-7.06702 0.0646,-10.58334 3.70126,0 7.41151,0.0749 11.11197,-0.0124 0.7665,-0.0183 3.38111,0.09 3.11812,-1.25651 -0.34925,-1.78726 -2.95461,-3.59516 -4.17592,-4.81647 l -9.525,-9.52474 c -1.5031,-1.50045 -3.08002,-3.48721 -5.29167,-3.85974 -4.76594,-0.80301 -11.41703,1.67058 -15.34583,-1.7698 -1.47214,-1.28905 -4.65773,-3.64543 -4.82997,-5.74781 -0.14393,-1.7563 1.88013,-3.8055 2.66118,-5.29166 1.51738,-2.88661 2.32092,-6.020594 2.59133,-9.260417 0.3347,-4.012936 -0.39899,-8.262144 -2.11217,-11.90625 -0.82312,-1.751013 -3.42583,-4.373563 -3.20093,-6.35 0.27358,-2.402417 4.07591,-5.006182 5.68431,-6.614584 l 16.40416,-16.404166 3.175,10.583333 c 2.05238,-1.522677 2.51857,-4.572529 3.30386,-6.879167 1.84494,-5.418137 4.05236,-10.8458 5.42739,-16.404166 -5.63985,-0.187854 -12.42589,3.568435 -17.72708,5.363633 -0.91017,0.30824 -5.56551,1.269206 -5.19271,2.715419 0.2114,0.819943 1.61766,1.095375 2.28838,1.304396 2.46274,0.767027 4.92469,1.541198 7.40225,2.258218 l -15.61042,15.610417 c -1.91082,1.910821 -4.32938,5.478992 -6.8625,6.508221 -1.67269,0.679979 -5.08,-2.562754 -6.63125,-3.270515 -2.92867,-1.33641 -11.2895,-1.337733 -8.70267,-6.144418 0.54107,-1.005417 1.23137,-1.937544 1.8235,-2.914121 3.79387,0.654579 7.58693,0.633677 11.37709,-0.06694 1.13083,-0.209285 3.01254,-0.361685 3.75391,-1.373452 0.84799,-1.157552 -0.58288,-2.817019 -0.3855,-4.115858 0.2667,-1.75604 1.71767,-3.459427 2.50349,-5.027084 1.2401,-2.473325 2.30584,-5.064125 3.22765,-7.672123 0.254,-0.718872 0.95594,-2.224087 0.37491,-2.938991 -0.7149,-0.879475 -3.6748,1.467114 -4.44791,1.781704 -4.74662,1.9304 -9.41308,2.28309 -13.00109,6.479381 -3.50758,4.102629 -2.65801,9.912879 -6.04838,13.727113 0,-2.183342 -0.36989,-4.777317 0.30295,-6.879167 0.64955,-2.029354 2.32569,-3.754967 3.42688,-5.55625 1.65894,-2.713567 2.93714,-5.671344 3.80418,-8.73125 0.76174,-2.688167 2.24764,-7.377139 -1.71318,-7.672917 -0.1905,-3.703955 -1.96955,-6.729359 -3.92138,-9.787916 -0.48155,-0.75483 -1.4613,-3.069961 -2.64108,-2.813209 -1.05092,0.228706 -1.77191,2.007738 -2.29261,2.813209 -2.02698,3.135603 -3.53378,6.069092 -4.10951,9.787916 m 6.61454,-10.847936 c 1.53512,2.169636 3.05832,4.405868 4.06453,6.879166 0.95885,2.356882 0.72576,4.90347 3.60839,5.55625 -0.41063,5.776384 -2.59371,13.306955 -7.14375,17.197917 l -0.26458,-16.66875 c -1.29461,1.836367 -1.05834,3.929856 -1.05834,6.085417 v 10.583333 c -4.21772,-4.53099 -6.76645,-11.301942 -6.87917,-17.4625 2.62388,-0.05493 2.48523,-2.488353 3.18691,-4.49797 0.98187,-2.812309 2.65986,-5.341858 4.48601,-7.672863 M 78.963375,48.650449 v 0.264584 c -2.563283,0.882121 -6.955631,1.300691 -8.906404,3.246173 -1.985962,1.98067 -2.421466,6.317985 -3.264429,8.92466 h -0.264583 l -6.085417,-18.520833 18.520833,6.085416 m 82.550005,-6.085416 -6.08542,18.520833 c -1.84044,-2.537354 -1.4478,-6.43546 -3.53747,-8.742362 -1.93861,-2.13995 -6.28836,-2.421732 -8.89794,-3.428471 5.62689,-2.7305 12.43409,-4.919663 18.52083,-6.35 m -72.760421,0.79375 c 2.946929,1.541727 6.24575,1.860021 9.26042,3.216539 5.470261,2.461419 7.800971,7.081838 8.995831,12.658461 l -7.671861,-6.777038 -2.73076,-1.565804 2.2053,2.68949 7.668151,7.770018 c -4.44129,0.375444 -8.635201,0.0344 -12.964581,-1.058333 2.88422,-5.868723 -4.2164,-10.871465 -4.7625,-16.933333 m 44.450001,0 -3.6531,8.995833 -2.31669,4.497387 0.94271,3.704696 -12.7,0.79375 7.40516,-7.604389 2.4892,-2.769129 -2.75193,1.395941 -7.40701,7.125494 h -0.26459 c 0.8046,-5.599377 3.42318,-10.346002 8.73125,-12.834673 3.06388,-1.436687 6.44446,-1.880129 9.525,-3.30491 M 49.098267,60.487908 c -3.58934,0.763058 -0.44,5.380302 0.90805,6.923616 2.933435,3.35915 6.074304,3.465777 10.171377,3.750204 0.852752,0.05927 2.215356,0.724959 3.027098,0.432065 0.596106,-0.214842 -0.04075,-1.032669 -0.236802,-1.302544 -1.039548,-1.430073 -1.722702,-2.910946 -2.588419,-4.441296 -2.188898,-3.870854 -6.812756,-6.312164 -11.281304,-5.362045 M 169.1863,60.451658 c -3.74756,0.501385 -6.57093,2.886604 -8.27088,6.189133 -0.37703,0.732631 -3.34142,5.010415 -2.10714,4.979723 4.00421,-0.09922 8.83841,-0.401108 11.93006,-3.235325 1.29593,-1.187979 4.74848,-5.157523 3.40387,-7.155392 -0.86519,-1.285345 -3.66818,-0.950383 -4.95591,-0.778139 M 59.913375,68.229616 54.092542,64.790033 c 0.692944,2.320131 3.397515,3.496733 5.291667,4.7625 v 0.264583 c -5.502011,-0.04392 -8.961442,-2.786856 -10.847912,-7.9375 5.114126,-0.71411 9.406197,1.446477 11.377078,6.35 m 113.241675,-6.35 c -1.80552,5.155935 -5.40676,7.87056 -10.84792,7.9375 v -0.264583 c 0.69109,-0.471488 5.23981,-2.93714 4.79452,-3.900488 -0.20188,-0.436562 -1.14195,0.08255 -1.38139,0.203994 -1.36208,0.690827 -2.61276,1.618721 -3.9423,2.373577 2.01269,-4.844256 6.23941,-7.13396 11.37709,-6.35 m -64.29375,8.840788 c 3.22871,-0.291836 6.46377,0.112183 9.525,1.175014 18.28906,6.349206 19.96943,32.400612 2.91041,41.263882 -2.34262,1.21709 -5.03766,2.09233 -7.67291,2.3458 -3.46366,0.33285 -7.07047,0.11033 -10.34442,-1.11178 -17.965475,-6.70454 -19.976573,-31.754496 -3.14934,-41.121275 2.67203,-1.487487 5.69728,-2.277004 8.73126,-2.551641 m -1.05834,1.115218 c -2.97974,0.410369 -5.91846,1.488281 -8.466671,3.082396 -15.803295,9.887479 -11.673414,34.712542 6.349471,39.144042 2.53498,0.6231 5.08239,0.85196 7.67372,0.49398 3.29009,-0.45429 6.45954,-1.47426 9.25962,-3.29195 2.29129,-1.48748 4.32726,-3.49514 5.89201,-5.73087 10.62117,-15.1765 -2.4265,-36.216431 -20.70815,-33.697598 m 1.32292,1.266561 c 17.2093,-1.549665 28.14135,18.857912 17.64692,32.432097 -1.63434,2.11375 -3.67454,3.88196 -6.00525,5.19033 -2.35347,1.32106 -4.97867,2.17911 -7.67292,2.40718 -3.20781,0.27146 -6.51325,0.0106 -9.525,-1.17687 -15.6173,-6.15738 -17.232846,-28.395346 -2.38125,-36.528902 2.43972,-1.336146 5.17631,-2.075392 7.9375,-2.323835 m -42.533892,3.209131 c -0.963083,0.28284 -0.02858,2.08571 0.886619,1.763977 1.114689,-0.392113 0.05953,-2.042319 -0.886619,-1.763977 m 88.583302,0.0381 c -0.91625,-0.201877 -2.07381,1.338262 -0.90726,1.711589 0.94668,0.302948 1.96083,-1.479285 0.90726,-1.711589 m -48.95983,10.930202 c -2.38601,-2.386012 -4.76065,-5.566569 -7.937501,-6.879167 1.11337,3.195638 4.488131,5.395384 6.614581,7.9375 l -11.112498,4.497917 c 2.480737,2.679171 7.658628,4.055533 11.112498,5.027083 l -6.879161,7.672911 c 3.316811,-0.4699 5.743311,-4.30371 8.202081,-6.349998 0.91308,3.492768 2.32093,8.617218 5.02709,11.112498 l 4.49791,-11.112498 5.12207,4.882618 2.0156,1.02288 -0.87842,-1.94865 -4.93633,-5.279761 c 3.08187,-1.069975 9.20935,-2.275416 10.84792,-5.291666 l -11.1125,-4.233334 6.87916,-7.672916 c -3.25702,0.524139 -5.91793,4.224337 -7.9375,6.614583 l -3.07287,-7.93406 -1.72984,-2.468563 -1.74625,2.207154 -2.97604,8.195469 M 59.24345,77.40616 c -0.89826,0.505883 0.306123,2.186781 1.196711,1.635125 0.984514,-0.6096 -0.324909,-2.125927 -1.196711,-1.635125 m 103.06368,2.465123 0.79375,-3.175 c -1.84653,0.727339 -2.80299,1.892564 -0.79375,3.175 M 70.258584,78.108099 c -4.179359,0.945092 -2.049992,7.1501 1.805516,6.399742 4.230423,-0.823648 2.066132,-7.275248 -1.805516,-6.399742 m 80.148646,-0.004 c -4.0042,0.656431 -3.75497,7.106708 0.5125,6.366933 3.93673,-0.682361 3.75867,-7.067021 -0.5125,-6.366933 m -95.785521,1.767152 c -3.893612,-1.604963 -1.858963,3.004079 0,0 m 7.985389,-0.677069 c -3.927475,1.393296 -1.15226,7.429765 2.550054,6.116637 3.948113,-1.400439 1.162315,-7.433468 -2.550054,-6.116637 m 94.438002,0.01243 c -3.76714,1.356519 -2.49423,7.40754 1.54543,6.098646 4.01082,-1.299633 2.66568,-7.614708 -1.54543,-6.098646 m 11.82211,0.140229 c -1.05278,0.239978 -1.34038,2.093648 -0.068,1.794934 0.92948,-0.218281 1.329,-2.082271 0.068,-1.794934 m -98.052472,0.277548 c 2.02221,-0.256381 2.922323,3.073136 0.70141,3.331634 -2.01586,0.234685 -2.858029,-3.058054 -0.70141,-3.331634 m 40.163222,-0.546856 c 1.3515,2.892954 2.0746,7.189258 4.29366,9.526058 2.12143,2.233877 6.84398,3.335867 9.72926,4.232275 -2.69981,2.253985 -6.72359,2.274888 -9.37551,4.554538 -2.52016,2.166138 -3.34989,7.016216 -4.64741,9.997546 l -4.53337,-9.772122 -9.754131,-4.515379 c 2.95513,-1.348846 7.786951,-2.197364 9.957331,-4.695031 2.2016,-2.533385 2.56805,-6.47991 4.33017,-9.327885 m 39.91134,0.549539 c 2.25452,-2.64e-4 1.54596,3.332692 -0.45746,3.352271 -2.30399,0.02249 -1.55178,-3.352271 0.45746,-3.352271 m -87.468608,0.980017 c 1.90156,-0.375708 3.164946,2.785798 1.115483,3.334279 -2.051843,0.548746 -3.382698,-2.886075 -1.115483,-3.334279 m 94.427418,-0.06403 c 2.36379,-0.333111 2.11931,3.260725 -0.0299,3.412596 -2.21139,0.156633 -1.91188,-3.139282 0.0299,-3.412596 m -102.117268,0.83185 c -3.852333,1.639093 -0.883708,7.426589 2.776008,6.034616 3.882496,-1.476639 0.895615,-7.596981 -2.776008,-6.034616 m 108.182578,-0.06826 c -3.86345,1.335617 -2.58287,7.503584 1.54993,6.099969 3.88064,-1.318154 2.5601,-7.520781 -1.54993,-6.099969 M 56.561634,82.698091 c 1.937279,-0.428625 3.226329,2.864908 1.123421,3.342217 -1.932517,0.438414 -3.280305,-2.864644 -1.123421,-3.342217 m 108.130456,-0.0127 c 2.26456,-0.216694 2.01718,3.115204 -0.0119,3.377935 -2.33257,0.302155 -2.09471,-3.176587 0.0119,-3.377935 m -19.05371,2.399242 c -4.79451,0.667543 -7.63217,5.995193 -5.68351,10.392039 1.52267,3.43482 4.91013,3.37767 7.40119,5.570528 1.44303,1.27054 1.72349,3.14537 2.64133,4.74319 1.6592,2.88872 4.85881,4.11798 8.07614,3.56288 7.47898,-1.29037 5.44777,-9.30751 4.43151,-14.400737 -0.38179,-1.913732 -0.45694,-4.301596 -1.55972,-5.966619 -0.89852,-1.356519 -2.43893,-1.725877 -3.93038,-2.069836 -3.48563,-0.803804 -7.78643,-2.331243 -11.37656,-1.831445 m -72.495838,0.30427 c -3.274483,0.60669 -10.513219,0.847726 -12.473517,3.834342 -1.050925,1.601259 -1.224491,3.88964 -1.603904,5.729288 -1.079764,5.236357 -2.942431,12.843927 4.288102,14.553137 1.0287,0.24315 2.133071,0.26803 3.174736,0.0923 4.896114,-0.8255 4.672277,-5.28849 7.550679,-8.15102 2.714096,-2.699278 6.60056,-2.447658 7.933267,-6.759041 C 83.7354,89.111816 78.526548,84.39112 73.142542,85.388863 m -22.804435,0.960438 c -0.81095,0.588433 0.46725,2.135981 1.29381,1.503627 0.871273,-0.66675 -0.51382,-2.069571 -1.29381,-1.503627 M 170.97197,86.175245 c -1.21576,0.182034 -1.40758,2.156884 -0.11007,1.846263 0.89403,-0.214048 1.38616,-2.037557 0.11007,-1.846263 m -25.06874,0.233627 c 3.24432,-0.466989 7.15248,1.071034 10.31796,1.7399 1.36657,0.288661 2.83633,0.62574 3.6195,1.901032 0.94059,1.531672 1.01256,3.70152 1.35704,5.431895 0.87895,4.413513 2.94773,11.437141 -3.65336,12.540721 -5.66897,0.94774 -5.91053,-4.27011 -8.6749,-7.44379 -1.77826,-2.041258 -4.67492,-2.200008 -6.51748,-4.143372 -3.30544,-3.486415 -1.18454,-9.34429 3.55124,-10.026386 M 73.936292,86.64541 c 4.430448,-0.529696 8.2931,3.68591 6.565371,8.036983 -1.357842,3.419475 -4.815152,3.37529 -7.263077,5.536667 -3.015986,2.66303 -2.544763,7.5647 -7.504377,8.07773 -8.255,0.85381 -6.275388,-8.597898 -5.283729,-13.344257 0.31406,-1.502834 0.456406,-3.29618 1.233752,-4.645554 1.541462,-2.674938 9.379214,-3.31814 12.25206,-3.661569 M 54.11265,87.937106 c -4.225663,0.890323 -2.057135,7.267045 1.810809,6.39736 4.149196,-0.932921 2.017977,-7.204075 -1.810809,-6.39736 m 112.6961,-0.0082 c -4.03516,0.313531 -4.28254,6.840802 -0.003,6.475941 3.99997,-0.341048 4.32409,-6.811698 0.003,-6.475941 M 54.220071,89.592339 c 1.889919,-0.804598 3.503348,2.221442 1.568715,3.104885 -1.851554,0.845609 -3.579813,-2.248693 -1.568715,-3.104885 m 112.361139,-0.05345 c 2.28547,-0.604044 2.44396,2.626783 0.45747,3.217333 -2.21536,0.658284 -2.4683,-2.68605 -0.45747,-3.217333 m -56.57162,1.642004 c -2.58763,1.094052 -0.93319,5.100373 1.67349,4.030398 2.61276,-1.072356 0.9107,-5.123127 -1.67349,-4.030398 m 0.79375,1.541727 c 0.61542,-0.07911 0.753,0.849842 0.127,0.927894 -0.61727,0.07726 -0.7456,-0.848254 -0.127,-0.927894 m -61.396303,0.738982 c -0.94509,0.359568 0.14261,2.111639 1.04113,1.677193 1.051458,-0.508529 -0.13705,-2.021152 -1.04113,-1.677193 m 122.767203,0.0024 c -0.99113,-0.04445 -1.85023,1.683808 -0.58711,1.804723 0.94244,0.08996 1.70788,-1.754452 0.58711,-1.804723 M 52.81725,95.339883 c -3.955523,1.373187 -1.161256,7.427117 2.550319,6.110547 3.923242,-1.39171 1.132152,-7.389279 -2.550319,-6.110547 m 114.27699,-0.03942 c -3.91451,1.129506 -2.8747,7.367317 1.2737,6.201037 3.92377,-1.10358 2.87655,-7.398541 -1.2737,-6.201037 M 53.619732,96.754874 c 2.046552,-0.379148 3.21257,3.057788 0.933979,3.366286 -1.988873,0.26908 -3.160974,-2.9538 -0.933979,-3.366286 m 114.004998,0.0095 c 2.25742,-0.452966 2.2008,2.882368 0.22092,3.298816 -2.24393,0.47175 -2.2053,-2.900618 -0.22092,-3.298816 m -9.81552,16.708966 c 1.96215,2.50745 3.35942,5.55096 5.45227,7.90045 2.20081,2.47121 5.05143,3.50733 8.30475,3.45837 1.00991,-0.0151 2.89401,0.0339 3.18849,-1.24486 0.33284,-1.44595 -0.89165,-3.35624 -1.6301,-4.50586 -3.20675,-4.9903 -9.85573,-5.71764 -15.31541,-5.6081 m -95.419335,0.16853 c -4.189148,0.11563 -8.970433,0.30163 -12.156808,3.39752 -1.88436,1.83091 -5.78882,7.48612 -0.89667,7.77346 4.11506,0.24157 7.736147,-1.22767 10.07718,-4.72811 0.648759,-0.97022 4.060296,-6.47276 2.976298,-6.44287 m -3.534833,1.68355 -4.623065,4.13014 1.475846,-0.19076 3.676386,-2.35188 c -1.742546,5.23398 -6.081713,6.61088 -11.112502,6.61458 0.98108,-5.36019 5.482698,-8.001 10.583335,-8.20207 m 114.829168,8.20207 c -5.24748,-0.002 -9.39085,-1.2639 -11.37708,-6.61458 l 3.67639,2.33653 1.47611,0.20611 -4.62333,-4.13014 c 5.44406,0.21563 9.11489,2.98476 10.84791,8.20208 m -89.164585,-5.29167 c -3.23506,4.10819 -7.374731,7.60281 -11.040004,11.32311 -1.700741,1.72641 -3.629289,4.42066 -5.95921,5.28929 -3.714221,1.38509 -8.484129,-0.1606 -12.369536,0.32094 0.97843,-1.55099 2.365111,-3.33375 4.233334,-3.80789 1.898385,-0.48207 4.078552,0.4498 5.291666,-1.48378 h -4.497916 c 1.861608,-2.23679 4.497387,-5.83433 7.408333,-6.65665 2.573338,-0.72708 9.276821,1.3179 10.31875,-1.81001 l -9.525,0.26458 c 4.056856,-4.88156 10.320073,-3.43958 16.139583,-3.43958 m 68.791675,3.43958 c -2.27436,-0.0942 -4.59608,-0.0717 -6.87017,0.0172 -0.33788,0.0132 -2.12699,0.0153 -1.98649,0.69453 0.23706,1.14378 5.32024,0.61091 6.21082,0.61118 5.00857,0.002 8.07271,2.78104 10.84792,6.87916 h -4.49792 c 1.21682,2.00343 3.62109,0.99378 5.55625,1.46738 1.80288,0.44132 3.13188,2.17884 4.23334,3.5597 -3.77322,0.0976 -8.80904,1.23217 -12.43542,-0.0397 -2.30902,-0.80989 -4.14205,-3.30862 -5.82083,-4.9874 -3.81635,-3.81635 -7.92242,-7.49062 -11.37709,-11.64167 5.46048,0 12.66085,-1.64888 16.13959,3.43959 M 94.838379,137.2858 c -4.116127,-7.58983 -9.821337,4.62492 -12.884154,7.85363 -1.474787,1.55469 -3.44752,2.46168 -4.980252,3.94229 -0.414337,0.40005 -3.825081,4.35055 -2.607468,4.81383 0.616214,0.23442 1.411022,-0.93186 1.707091,-1.30122 1.29249,-1.61343 2.488406,-2.92073 4.211373,-4.09178 1.816629,-1.23455 3.228711,-2.56249 4.526227,-4.34075 2.081477,-2.85221 3.945731,-5.84597 6.852179,-7.93433 -0.004,1.65814 0.02222,3.25729 -0.777875,4.7625 -0.758825,1.42796 -2.5273,3.01228 -2.313516,4.7625 0.262202,2.14551 2.850621,4.20635 4.149725,5.82083 -5.332413,-0.62679 -1.014148,4.95644 0.944562,6.68338 2.397128,2.11323 6.068218,1.29857 8.788399,2.71859 0.5125,0.26776 3.72534,3.72772 3.97457,2.88449 0.41937,-1.4179 -1.84811,-3.60389 -2.93184,-4.15502 -2.40613,-1.22396 -5.385331,-0.71622 -7.778231,-1.95606 -1.930396,-1.00013 -3.157798,-3.36656 -4.320377,-5.11704 0.768085,0.11694 2.8448,0.52096 2.923646,-0.75195 0.151611,-2.44687 -3.635111,-3.878 -3.893608,-6.27009 -0.149755,-1.38616 1.243541,-2.67865 1.83171,-3.82614 0.729985,-1.42505 0.719931,-2.93661 0.725752,-4.49766 h 0.264583 c 1.734084,3.25306 4.495274,6.2992 5.699924,9.78959 0.76835,2.2262 -0.36857,5.23451 1.055681,7.19878 1.67561,2.31114 5.2496,3.04853 7.41707,4.84558 1.48564,1.2319 4.09893,5.8375 6.58045,5.07391 1.10279,-0.33919 -2.58392,-3.01757 -2.86226,-3.29326 -3.26179,-3.23057 -6.35556,-5.29458 -10.48253,-7.47501 0.3892,-2.50958 0.57097,-5.33136 -0.56621,-7.67292 -1.036371,-2.13333 -3.431111,-4.4577 -3.633261,-6.87917 -0.14975,-1.79387 1.50575,-3.6187 2.42173,-5.02708 2.620171,-4.02881 5.413121,-10.9564 9.979831,-12.96458 -1.57719,2.88263 -1.12978,10.54311 0.90858,13.25589 1.47849,1.96717 4.15792,2.65774 4.7498,5.28161 0.76438,3.39037 -0.49715,10.28012 2.04681,12.86245 3.29565,3.3454 8.79661,2.33125 11.5914,6.7019 0.20585,0.322 1.66687,2.89375 2.28468,2.08015 0.61912,-0.81518 -1.00648,-2.99878 -1.42531,-3.64622 -2.53603,-3.92112 -7.65943,-3.28639 -10.94529,-6.06822 -1.23031,-1.04193 -1.19644,-2.79876 -1.31074,-4.27381 -0.21458,-2.7641 -0.27596,-5.74437 -0.83953,-8.4582 -0.56091,-2.70087 -3.34142,-3.46075 -4.84028,-5.48561 -2.07513,-2.80299 -2.35691,-9.65121 -0.10346,-12.24994 0.94324,3.16097 2.38602,6.79979 4.25847,9.525 1.50469,2.19022 3.57796,3.92324 4.7424,6.35 1.86928,3.89519 2.41643,9.76709 5.34749,12.99554 1.68434,1.85526 4.51035,2.13915 6.38387,3.76105 1.44727,1.2528 1.75895,3.20992 2.48761,4.88606 0.12647,0.29131 1.0533,2.02089 1.40758,0.9988 0.3138,-0.90514 -0.33179,-2.22065 -0.62018,-3.06255 -1.60311,-4.67995 -4.58629,-4.43971 -7.98566,-7.26334 -2.50269,-2.07857 -3.40201,-6.96966 -4.47595,-9.93431 -0.44556,-1.23032 -1.13215,-2.62784 -0.87471,-3.96875 0.36433,-1.89812 2.14391,-3.60813 3.352,-5.02709 l 0.79375,7.9375 -2.11667,-0.79375 c -1.15173,7.60889 9.44722,7.54962 12.35869,13.03073 0.98558,1.85526 -0.12885,7.78854 2.75035,8.22722 1.07764,0.16404 -0.36619,-2.84348 -0.45667,-3.27819 -0.69771,-3.35385 -0.11378,-6.07615 -3.2856,-8.22854 -3.26364,-2.21482 -8.1878,-4.21693 -10.30843,-7.63455 4.18729,1.36313 1.99284,-6.64739 1.5875,-8.99583 3.61632,3.87932 7.5057,7.39034 8.5643,12.66878 0.55721,2.77706 3.81423,3.54621 5.31124,5.68589 1.17528,1.67984 0.89641,4.1238 2.22144,5.66579 0.32068,0.3728 3.14855,1.77033 3.0742,0.55033 -0.0463,-0.75618 -1.7526,-1.52109 -2.15794,-2.20768 -0.91996,-1.55813 -0.79666,-3.52081 -1.84362,-5.03793 -1.17449,-1.70207 -3.28851,-2.41327 -4.5466,-4.02484 -1.14565,-1.46791 -0.65855,-3.48853 -1.55125,-5.09085 -1.48484,-2.66541 -4.05395,-4.953 -6.05923,-7.23265 -0.91281,-1.03796 -2.59556,-3.7555 -4.28016,-3.20172 -1.98887,0.65378 -3.71607,4.00817 -4.8178,5.66446 h -0.26458 c -3.77984,-4.94797 -5.87296,-9.86499 -8.73125,-15.34583 -8.20818,2.33944 -12.096231,11.94064 -16.404171,18.78541 m 41.539581,-17.9916 c 3.59622,3.78116 7.30727,7.47236 11.0326,11.12652 1.73143,1.6981 4.40743,3.62744 5.30675,5.94439 1.37319,3.53828 0.0651,8.81989 0.0648,12.56242 -2.16112,-1.8079 -3.65019,-3.43059 -3.69834,-6.35 -0.0236,-1.42002 0.72257,-5.85523 -0.56674,-6.79953 -1.12316,-0.82285 -1.02659,4.21746 -1.02659,4.68048 v 3.17738 c -2.1328,-1.77509 -5.33532,-4.14893 -6.40873,-6.77783 -0.83291,-2.04073 -0.0296,-4.22116 -1.26418,-6.18675 l -0.26459,4.7625 c -4.62941,-3.16468 -4.20158,-11.04609 -3.175,-16.13958 m -50.535418,0.26458 c -0.857779,5.53244 1.632744,12.07558 -3.439583,15.875 -0.0024,-1.75022 0.129646,-3.36312 -1.058334,-4.7625 -0.299508,1.93172 0.07514,4.12856 -0.525198,5.98435 -0.852752,2.6363 -4.40637,5.45015 -6.618552,6.98023 0,-2.71647 0.806186,-6.79952 -1.058333,-8.99583 -0.88609,5.71421 1.108604,10.41585 -4.233333,14.2875 0,-3.71898 -0.932657,-8.90826 0.304271,-12.43542 0.775493,-2.21112 3.115733,-3.94917 4.722812,-5.55625 3.789363,-3.78962 7.456488,-8.36348 11.90625,-11.37708 m 20.108338,10.05417 c -0.7964,2.28864 -2.30929,7.09427 -1.22476,9.40726 0.99404,2.1201 4.64053,3.60891 6.78101,4.08649 l -4.06533,-7.67292 -1.49092,-5.82083 m 0.26458,6.87916 2.11667,3.70417 c -1.52718,-0.94297 -2.58683,-1.80684 -2.11667,-3.70417 m 14.02292,27.25209 v -0.26459 l -5.95842,-5.92799 -5.62504,-3.72639 -3.23321,-9.92478 c 2.07698,1.43245 4.43918,2.844 6.03991,4.8252 1.66,2.05396 2.51249,4.68604 4.28255,6.65136 1.4097,1.56501 3.33481,2.57149 5.00856,3.81582 1.69677,1.26127 2.85115,3.42371 5.0419,3.75762 -1.91505,-3.96558 -5.32738,-5.27103 -8.37644,-8.12642 -2.27171,-2.12698 -3.10595,-5.28743 -5.13371,-7.59777 -1.69095,-1.92643 -4.19551,-3.4335 -6.33016,-4.82653 -0.50139,-0.32729 -1.95607,-1.39038 -2.52175,-0.65299 -0.87312,1.1385 1.74519,5.15805 2.13598,6.38704 0.69374,2.18255 0.61675,5.3549 2.08227,7.17762 1.51448,1.8833 4.31457,2.18916 6.03092,3.86609 2.14233,2.09312 2.95699,5.19562 6.55664,4.56671 z"
       id="path1572" />
  </g>
</svg>
