<?xml version="1.0" encoding="UTF-8" standalone="no"?>
<svg
   xmlns:dc="http://purl.org/dc/elements/1.1/"
   xmlns:cc="http://creativecommons.org/ns#"
   xmlns:rdf="http://www.w3.org/1999/02/22-rdf-syntax-ns#"
   xmlns:svg="http://www.w3.org/2000/svg"
   xmlns="http://www.w3.org/2000/svg"
   xmlns:sodipodi="http://sodipodi.sourceforge.net/DTD/sodipodi-0.dtd"
   xmlns:inkscape="http://www.inkscape.org/namespaces/inkscape"
   width="210mm"
   height="297mm"
   viewBox="0 0 210 297"
   version="1.1"
   id="svg8"
   sodipodi:docname="rogue.svg"
   inkscape:version="1.0.2-2 (e86c870879, 2021-01-15)"
   inkscape:export-filename="C:\Users\logie\Documents\koding\_GRAFIKI\dnd5eSpells\class icons\fighter.png"
   inkscape:export-xdpi="96"
   inkscape:export-ydpi="96">
  <defs
     id="defs2" />
  <sodipodi:namedview
     id="base"
     pagecolor="#ffffff"
     bordercolor="#666666"
     borderopacity="1.0"
     inkscape:pageopacity="0.0"
     inkscape:pageshadow="2"
     inkscape:zoom="1.4"
     inkscape:cx="74.018439"
     inkscape:cy="543.41137"
     inkscape:document-units="mm"
     inkscape:current-layer="layer1"
     inkscape:document-rotation="0"
     showgrid="false"
     inkscape:window-width="3736"
     inkscape:window-height="2126"
     inkscape:window-x="93"
     inkscape:window-y="-11"
     inkscape:window-maximized="1" />
  <metadata
     id="metadata5">
    <rdf:RDF>
      <cc:Work
         rdf:about="">
        <dc:format>image/svg+xml</dc:format>
        <dc:type
           rdf:resource="http://purl.org/dc/dcmitype/StillImage" />
        <dc:title></dc:title>
      </cc:Work>
    </rdf:RDF>
  </metadata>
  <g
     inkscape:label="Layer 1"
     inkscape:groupmode="layer"
     id="layer1">
    <path
       inkscape:export-filename="C:\Users\logie\Documents\koding\_GRAFIKI\dnd5eSpells\class icons\rogue.png"
       inkscape:export-xdpi="96"
       inkscape:export-ydpi="96"
       style="fill:#88642b;stroke:none;stroke-width:0.264583"
       d="m 76.33229,58.435121 c -3.376877,0 -8.11186,-0.849048 -11.078104,1.065477 -4.376208,2.824692 -4.370123,12.831762 -0.0011,15.660951 2.912797,1.88648 7.755201,1.000655 11.079162,1.000655 l -0.264584,2.116666 c -1.922727,-0.322527 -4.972579,-0.783166 -6.645539,0.484188 -1.847321,1.399381 -1.792552,5.90206 0.19685,7.169414 1.332442,0.848783 3.354652,0.548217 4.86119,0.548481 v 2.116667 c -2.418557,5.29e-4 -5.069417,-0.250032 -7.0993,1.321329 -3.822965,2.959364 -3.926946,11.226011 0.0463,14.133251 2.095764,1.53352 4.865687,1.21417 7.317581,1.21417 0.0034,2.64187 0.959644,6.10949 0.270669,8.64711 -0.558007,2.05476 -3.5179,2.68632 -4.541573,4.61751 -3.047471,5.7486 -0.08758,13.47973 6.652154,13.72288 l 0.529166,4.49792 c -10.108141,2.21403 -16.168687,12.22348 -14.073716,22.225 0.316177,1.51024 1.03849,2.96492 1.208352,4.49791 0.177271,1.60258 -0.50456,3.15992 -0.105569,4.76144 0.927894,3.72428 4.768321,4.36139 7.94385,3.44064 0.418042,1.86532 0.405077,4.37224 1.870869,5.77718 0.856456,0.821 2.017183,1.01838 3.157273,1.07553 2.881577,0.14367 8.618809,1.01706 10.910099,-1.05489 1.56025,-1.41076 1.46844,-3.87853 1.78885,-5.79782 3.18293,0.92287 7.10035,0.32465 7.97983,-3.44275 0.39185,-1.67878 -0.25188,-3.34592 0.01,-5.02391 0.28046,-1.80208 1.11205,-3.46922 1.36816,-5.29167 1.41262,-10.0449 -4.4913,-18.46871 -14.12001,-21.16666 l 0.52916,-4.49792 c 1.44039,0.0101 2.93,-0.0299 4.15581,0.84931 0.5379,0.38603 1.63301,2.26642 2.3413,2.14524 1.40256,-0.2405 0.21326,-3.88646 -0.1778,-4.51299 -1.28429,-2.05793 -3.60944,-2.16615 -5.79014,-2.18573 0.31327,-2.49846 -0.15531,-6.60532 1.18771,-8.77332 1.20836,-1.95103 5.45704,-1.09378 7.32208,-3.03979 2.86279,-2.98715 2.76596,-10.62329 -0.3937,-13.35988 -1.80948,-1.56712 -4.03754,-1.46579 -6.26401,-1.81451 l 0.52917,-9.524997 c 2.84268,0.474927 6.15606,0.344487 8.36745,-1.745192 3.33957,-3.155685 3.36047,-12.306564 0.2114,-15.602214 C 94.97104,71.92596 90.13763,72.182341 86.65148,72.72262 L 86.38646,72.458037 V 62.403871 c 3.29591,-0.511175 7.18873,0.44741 10.29229,-0.933715 2.91121,-1.295929 3.96425,-5.919337 1.87854,-8.326701 -1.68672,5.732991 -7.02786,5.824537 -12.17083,5.027083 v -4.7625 c 1.57321,-0.962792 2.89718,-2.108094 3.85762,-3.707447 0.77232,-1.286325 1.20624,-2.740184 1.34647,-4.230053 1.25624,-13.353271 -19.599279,-14.942676 -20.231368,-1.5875 -0.218282,4.615524 2.815166,6.239457 4.569354,9.92042 0.650081,1.364482 0.403489,3.161903 0.403754,4.631663 m 4.7625,-22.87299 C 92.35572,34.886835 93.50057,52.700913 82.153123,53.347845 70.529448,54.010521 69.473761,36.259017 81.09479,35.562131 m -0.264584,2.16617 c -9.082087,1.277064 -6.507956,15.251853 2.380194,13.377306 0.64135,-0.135255 1.25386,-0.377983 1.81054,-0.724429 5.13795,-3.197198 -3.532979,-2.583576 -3.176057,-6.086977 0.309828,-3.039163 3.667387,-1.579007 4.685767,-3.227282 1.45151,-2.348785 -4.438117,-3.516127 -5.700444,-3.338618 m 4.233334,2.185988 v 0.264583 c -5.681398,0.948055 -5.889361,7.757953 0,8.466666 -7.255934,6.335051 -13.390827,-9.600035 -3.440907,-9.730581 1.2446,-0.01632 2.344737,0.469212 3.440907,0.999332 m 1.05833,-0.264584 -0.26458,0.264584 0.26458,-0.264584 m 0.79375,1.058334 -0.26458,0.264583 0.26458,-0.264583 m -4.497914,0.529166 -0.264583,0.264583 0.264583,-0.264583 M 34.528124,65.314287 c 3.143515,1.526646 8.900054,4.51829 12.435416,4.116917 3.381111,-0.38391 7.231327,-3.911864 10.053373,-5.688012 1.194329,-0.751946 2.634192,-1.49569 3.338248,-2.778125 1.013883,-1.846792 0.896937,-4.453202 1.161256,-6.498696 0.205581,-1.591548 0.947473,-4.067069 0.257969,-5.592392 -0.756444,-1.673595 -3.988329,-2.199983 -5.550429,-2.7491 -1.852877,-0.651298 -4.090988,-1.863275 -6.085417,-1.815756 -1.464468,0.0349 -2.771245,0.999173 -3.96875,1.741276 -2.810668,1.741646 -7.724245,3.637359 -9.554104,6.45713 -2.080947,3.207226 -1.467643,9.094919 -2.087562,12.806758 m 52.140646,-20.933118 0.44079,0.538083 -0.44079,-0.538083 m -34.94273,0.824786 -0.264583,0.264583 0.264583,-0.264583 m 8.202083,3.439583 c -3.284802,3.38619 -6.053666,2.322804 -10.054166,1.058333 l 0.529167,-4.233333 9.524999,3.175 M 49.080207,45.999705 c -0.670983,5.222425 -5.8166,8.586231 -10.847916,6.614583 l 10.847916,-6.614583 m 4.7625,0 -0.264583,0.264583 0.264583,-0.264583 m 59.268783,1.066562 c -5.16282,1.35927 -3.67983,7.18394 -1.77006,10.57484 0.62309,1.106487 1.91928,3.919537 3.56923,3.483768 1.29884,-0.3429 2.19842,-2.160058 2.82045,-3.219185 2.4728,-4.209997 2.84851,-12.805674 -4.61962,-10.839423 m -0.53128,0.873707 c 0.20452,0 0.0423,0.131709 -0.0881,0.08821 l 0.0881,-0.08821 m 2.11666,12.082647 c -1.11151,-1.201473 -2.02538,-2.507192 -2.76833,-3.969094 -0.67945,-1.336278 -1.39833,-2.957248 -1.2192,-4.493736 0.60907,-5.22978 8.56694,-3.929115 7.71366,1.31953 -0.18071,1.110827 -0.63024,2.175775 -1.13506,3.174259 -0.7202,1.424014 -1.60602,2.717826 -2.59107,3.969041 m -3.70416,-11.377083 -0.26459,0.264583 0.26459,-0.264583 m -24.87084,0.529167 -0.26458,0.264583 0.26458,-0.264583 m -25.399997,0.79375 -1.058333,10.054166 -3.96875,-1.058333 c 0.172773,-4.67323 0.940065,-6.576563 5.027083,-8.995833 m 13.758334,0.529166 -0.264584,0.264584 0.264584,-0.264584 m -25.929167,0.264584 6.614584,2.116666 c -0.329936,1.714077 -0.278607,3.821906 -1.047486,5.402263 -2.482321,5.101166 -8.269552,4.10501 -12.446264,2.79982 l 1.013089,-6.011915 5.866077,-4.306834 m 38.36458,1.322916 -0.26458,0.264584 0.26458,-0.264584 m -50.799996,11.641666 -0.264583,-0.264583 1.322916,-9.789583 c 3.493294,0.850027 5.171281,3.814763 2.929996,7.200106 -0.878681,1.327679 -2.643981,2.094177 -3.988329,2.85406 M 85.32812,54.201788 c -0.003,1.06553 0.23072,2.691871 -0.52731,3.563408 -1.28455,1.476375 -5.708651,0.690827 -7.410187,0.405342 l 0.264583,-4.233333 c 2.67044,0.737922 4.956705,0.668311 7.672914,0.264583 m 11.90625,3.704166 -0.26458,0.264584 0.26458,-0.264584 m 1.05834,0 c -2.11323,3.724275 -6.33916,2.910417 -10.05417,2.910417 H 74.74479 c -3.836458,0 -7.208308,-0.238654 -10.583333,1.852083 2.013479,-3.770312 6.387041,-3.175 10.054166,-3.175 7.4422,0 17.290517,1.728259 24.077087,-1.5875 m -1.5875,0.264584 -0.26459,0.264583 0.26459,-0.264583 m 19.31458,1.058333 0.26458,0.529167 -0.26458,-0.529167 m -74.612499,0.529167 -0.264584,0.264583 0.264584,-0.264583 m 14.816666,0 -0.264583,0.264583 0.264583,-0.264583 m 2.116667,1.322916 c -2.904332,2.642923 -6.954309,5.118629 -10.583334,6.614583 0.386292,-5.083704 5.88354,-8.343106 10.583334,-6.614583 m 47.098216,0.537369 c -5.14244,1.354402 -3.72957,7.171002 -1.85288,10.574866 0.635,1.151731 1.94495,3.921654 3.64252,3.483769 1.31048,-0.338138 2.19154,-2.14974 2.80696,-3.219185 2.38893,-4.152107 2.77151,-12.779904 -4.5966,-10.83945 m 15.35218,0.04339 c -5.07444,1.523735 -3.67136,7.096654 -1.73196,10.531474 0.62124,1.100402 2.00607,4.143375 3.68802,3.548063 1.18454,-0.4191 2.00184,-2.012157 2.6043,-3.019425 1.16708,-1.951302 2.26192,-4.277783 2.0873,-6.613525 -0.24501,-3.280569 -3.54383,-5.378979 -6.64766,-4.446587 m -73.82748,2.594239 -0.529166,3.96875 -9.525,-3.175 v -0.529167 c 3.987006,-2.086504 5.90206,-2.034381 10.054166,-0.264583 M 76.33229,62.139288 V 72.72262 c -3.063875,-0.35851 -7.279481,0.586582 -10.024798,-0.921014 -3.551766,-1.950508 -3.544887,-7.028656 0.0079,-8.980223 2.684197,-1.474258 7.042943,-0.682095 10.01686,-0.682095 m 8.995828,0 V 78.014287 H 77.390623 V 62.139288 h 7.937497 m 21.96042,12.435416 c -1.1393,-0.895615 -1.96612,-1.913202 -2.67917,-3.178175 -0.64876,-1.150673 -1.24804,-2.4003 -1.52003,-3.700992 -1.14962,-5.495131 7.3443,-6.761956 7.68456,-1.319741 0.0804,1.2827 -0.41963,2.557462 -0.94615,3.700991 -0.72126,1.566333 -1.65418,3.021806 -2.53921,4.497917 m 15.34583,0 c -1.18216,-0.967582 -2.03729,-2.097352 -2.76595,-3.441171 -0.58341,-1.07606 -1.05939,-2.228321 -1.27926,-3.437467 -0.96573,-5.317331 6.9342,-6.77783 7.59883,-1.58406 0.17568,1.3716 -0.3474,2.744258 -0.91652,3.964781 -0.73607,1.57824 -1.71899,3.023129 -2.6371,4.497917 m -59.79583,-6.614583 -0.264583,0.264583 0.264583,-0.264583 m 69.32083,2.38125 0.26459,0.264583 -0.26459,-0.264583 m 0.52917,12.964582 -2.11667,1.058334 c -1.15226,-2.283619 -1.92881,-1.150938 -0.79375,0.79375 l -1.05833,0.529166 -1.85208,-1.322916 0.79375,2.116666 -18.25625,10.847916 -1.32292,-2.38125 1.32292,-1.587499 c -3.1676,0.716491 -2.03042,2.749285 -1.05834,5.027083 l -3.70416,1.852087 c -0.4027,-0.876039 -0.83318,-1.918762 -1.74176,-2.388927 -1.35943,-0.704056 -2.72441,1.154377 -0.37491,0.801423 l 1.32292,2.381254 -4.23334,3.175 5.02709,-2.11667 1.05833,2.38125 -2.64583,1.5875 c 0.73527,1.56078 1.87536,4.48601 3.61685,5.1435 1.03108,0.3892 2.14392,-0.36883 2.99852,-0.86254 1.96242,-1.13348 6.99135,-3.11891 7.64937,-5.45703 1.02817,-3.65416 -3.14907,-5.61261 -5.79808,-4.1156 l -1.05833,-2.381247 17.99167,-10.847917 1.85208,1.058334 0.26458,-2.38125 1.05834,2.116666 c 1.75074,-0.587375 -0.55193,-3.319727 1.32159,-3.348037 0.86704,-0.01323 1.56898,1.190625 2.12831,1.715294 1.28481,1.205441 2.78315,2.163762 4.4876,2.646098 7.59089,2.14921 9.02996,-6.6929 6.61458,-11.861271 2.11825,-2.535502 -2.14471,-3.684058 -3.82588,-4.885531 -5.36839,-3.836723 -12.28645,-1.363927 -11.31067,5.943865 0.23045,1.72667 0.78211,3.256491 1.6428,4.762499 M 25.267708,71.01156 c -3.51454,0.379942 -8.509926,1.337733 -9.848533,5.154348 -0.970042,2.765954 0.957686,5.940689 1.930109,8.462962 2.197365,5.699389 3.925888,11.606741 5.650098,17.4625 0.594333,2.0185 0.927788,3.97695 0.709348,6.08542 -0.141949,1.37027 -0.911755,3.26522 -0.206402,4.56618 1.053756,1.94336 4.69564,1.67428 6.526557,1.4679 1.172633,-0.13202 2.697427,-0.46302 3.184524,-1.69677 0.628121,-1.59173 -0.422275,-3.96134 -0.40931,-5.66023 0.02117,-2.81755 0.972873,-5.53191 1.78726,-8.202084 1.547548,-5.072591 3.152511,-10.133806 5.066771,-15.081249 0.937154,-2.422261 2.406386,-5.318654 1.261269,-7.92189 -1.458119,-3.315229 -6.084888,-4.229629 -9.301692,-4.625445 -2.077243,-0.255588 -4.270718,-0.236273 -6.349999,-0.01164 m 39.687499,0.388144 -0.264584,0.264583 0.264584,-0.264583 m 69.320833,0 -0.26458,0.264583 0.26458,-0.264583 m 9.78958,5.027083 -4.49791,2.645833 c -0.5006,-1.25095 -0.4752,-3.252258 -1.55179,-4.157927 -1.23322,-1.037696 -2.96862,0.18124 -2.47279,1.694921 0.43153,1.31736 2.19392,2.080948 2.96624,3.256756 l -5.02708,2.645833 c -0.72099,-1.786466 -1.3462,-3.598862 -1.23746,-5.556249 0.44609,-8.012906 8.74898,-4.684448 11.82079,-0.529167 M 25.003124,72.315427 c 4.197879,-0.454554 11.3919,-0.594784 14.274271,3.125787 2.115608,2.7305 -0.46699,6.728089 -1.480873,9.450652 -0.457729,1.228196 -0.812271,2.903273 -2.318279,3.161241 -3.484827,0.596636 -7.46125,-0.06271 -11.004233,0.03307 -1.24923,0.0336 -3.052683,0.503238 -4.146893,-0.288131 -1.253993,-0.906727 -1.586125,-3.128169 -2.107063,-4.492096 -0.691462,-1.810279 -1.897565,-3.814233 -1.745218,-5.815277 0.287788,-3.780366 5.518362,-4.849547 8.528288,-5.175249 m 39.422916,-0.12197 c 3.6957,2.111904 7.7851,1.5875 11.90625,1.5875 v 1.322916 c -3.695171,0 -9.949392,1.160198 -11.90625,-2.910416 m -46.831249,1.5875 -0.264583,0.264583 0.264583,-0.264583 m 47.360416,0 -0.264584,0.264583 0.264584,-0.264583 m 33.072913,3.175 C 95.2074,75.52641 92.9677,75.131652 89.82789,75.10096 c -0.5289,-0.0053 -2.57598,0.170127 -2.73156,-0.608277 -0.17727,-0.887677 2.82946,-0.709877 3.25914,-0.710406 3.31205,-0.0045 5.43798,0.610393 7.67265,3.173677 M 26.497967,74.62815 c -1.916112,1.038224 -0.296254,4.218781 1.605015,3.049322 1.767153,-1.086379 0.284692,-4.073525 -1.605015,-3.049322 m 116.773903,-0.31803 -0.26458,0.264584 0.26458,-0.264584 m -116.681246,0.529167 -0.264583,0.264583 0.264583,-0.264583 m 0.713978,0.884767 -0.105436,0.665691 0.105436,-0.665691 m 79.983938,-0.620184 -0.26458,0.264584 0.26458,-0.264584 m 29.36875,0 c 2.09365,1.025261 -0.65987,2.375429 0,0 m -23.01716,1.037167 c -5.54302,1.030023 -4.4032,7.018337 -2.34897,10.604235 0.63288,1.105164 1.93119,3.892814 3.55282,3.605477 1.35202,-0.239448 2.32066,-2.284677 2.93397,-3.340894 2.32753,-4.010289 3.04667,-12.20417 -4.13782,-10.868818 M 88.76771,88.59762 v -2.116667 c 1.49251,-0.0016 3.33613,0.216694 4.62518,-0.690827 1.9177,-1.349904 2.03464,-5.39062 0.21087,-6.866466 -1.79149,-1.449652 -5.06677,-0.909373 -7.2173,-0.909373 0.61489,-2.301081 3.06202,-1.88939 5.02708,-1.83859 2.20239,0.05715 4.36695,0.559065 5.7494,2.428346 2.42093,3.274219 0.87233,8.576733 -3.10542,9.685602 -1.68883,0.470693 -3.55441,0.307975 -5.28981,0.307975 M 28.971874,76.69137 28.707291,76.955954 28.971874,76.69137 m 117.474996,0 -0.26458,0.264584 0.26458,-0.264584 m -31.48541,12.435416 c -1.12422,-0.897466 -1.9611,-1.921404 -2.66833,-3.178174 -0.64452,-1.144588 -1.22184,-2.408238 -1.48907,-3.700727 -1.11998,-5.417608 7.30382,-6.68364 7.6917,-1.319742 0.099,1.364456 -0.4654,2.754577 -1.03426,3.965046 -0.6985,1.4859 -1.61554,2.855118 -2.50004,4.233597 m 3.175,-11.641666 -0.52917,0.529167 0.52917,-0.529167 m 26.72291,0 c 0.96864,2.449248 1.92246,5.357548 0.77841,7.925594 -2.45137,5.502804 -9.02124,1.871927 -11.09716,-1.840177 l 4.7625,-2.645834 c 0.44239,1.188773 0.39608,3.01625 1.34514,3.924036 1.12237,1.073943 3.04615,0.0807 2.61673,-1.482461 -0.37994,-1.38377 -2.19895,-2.204773 -2.90353,-3.499908 l 4.49791,-2.38125 m -92.868746,0.480484 c -8.822796,0.743743 -7.723981,14.307078 1.058333,13.626305 8.787871,-0.681037 7.727685,-14.367139 -1.058333,-13.626305 M 29.72038,79.380066 c -0.923925,0.319617 -0.274637,1.701006 0.592138,1.306512 0.827616,-0.376502 0.221985,-1.588029 -0.592138,-1.306512 m 21.741606,-0.07091 c 6.947429,-1.510242 9.22655,9.533466 2.114286,10.92782 -6.962775,1.36525 -9.104577,-9.408318 -2.114286,-10.92782 m 18.255721,-0.236538 -0.264584,0.264583 0.264584,-0.264583 m 0.788458,0.67019 c 1.4859,-0.893234 4.160044,-0.405607 5.826125,-0.405607 4.790281,0 10.8921,-1.016264 15.53739,0.158221 1.89627,0.479425 2.32728,3.979863 0.82709,5.135298 -1.30837,1.007533 -3.96902,0.527315 -5.51656,0.527315 H 76.33229 c -1.686454,0 -3.817938,0.332581 -5.434277,-0.222515 -1.808427,-0.620977 -1.983052,-4.235979 -0.391848,-5.192712 m -30.157208,-0.141023 -0.264583,0.264583 0.264583,-0.264583 m 16.66875,0.264583 -0.264583,0.264583 0.264583,-0.264583 m 81.227083,0.529167 -0.26458,0.264583 0.26458,-0.264583 m -87.215927,1.50786 c -3.759729,1.832504 -0.740304,7.739856 2.994025,5.751512 3.705225,-1.972997 0.741627,-7.572374 -2.994025,-5.751512 m 85.893007,-0.449527 -0.26458,0.264583 0.26458,-0.264583 M 26.62629,82.884207 c -0.511969,0.288925 -0.04725,1.057011 0.455956,0.776553 0.515409,-0.287073 0.04953,-1.061773 -0.455956,-0.776553 m 25.440798,0.05265 c 2.287059,-0.637117 3.139017,3.031595 0.901436,3.645693 -2.317221,0.635794 -3.17844,-3.011223 -0.901436,-3.645693 m 77.181872,-0.424657 -0.26459,0.264584 0.26459,-0.264584 m 3.96875,0.264584 -0.26459,0.264583 0.26459,-0.264583 m -106.891669,0.264583 -0.264584,0.264583 0.264584,-0.264583 m 115.240859,0.432329 0.23495,0.722842 -0.23495,-0.722842 m -11.78878,0.361421 -0.26458,0.264583 0.26458,-0.264583 m -2.11666,0.79375 -0.26459,0.264583 0.26459,-0.264583 m 2.11666,1.058333 -0.26458,0.264584 0.26458,-0.264584 m -17.99166,0.264584 -0.26459,0.264583 0.26459,-0.264583 M 80.830206,86.48095 v 2.116667 H 75.803123 V 86.48095 h 5.027083 m 6.614584,0 v 2.116667 H 82.153123 V 86.48095 h 5.291667 m 48.68333,0 -0.26458,0.264583 0.26458,-0.264583 m -4.49791,0.529167 0.26458,0.529166 -0.26458,-0.529166 m 14.2875,0 -0.26459,0.264583 0.26459,-0.264583 m -48.15417,0.79375 c -2.5908,3.652043 -6.29338,3.175 -10.31875,3.175 -6.818313,0 -14.542294,-1.140884 -20.902083,1.5875 2.765954,-3.271573 6.380162,-2.910417 10.318749,-2.910417 6.448954,0 15.240264,1.623748 20.902084,-1.852083 m 31.48542,0 0.26458,0.529166 -0.26458,-0.529166 m -93.133336,1.5875 -4.497917,15.345833 H 25.003124 L 20.505208,89.655953 36.115624,89.39137 m 12.435416,0.264583 -0.264583,0.264583 0.264583,-0.264583 m 19.579167,0.264583 -0.264584,0.264584 0.264584,-0.264584 m 28.575003,0.264584 -0.26459,0.264583 0.26459,-0.264583 m -22.489587,1.852083 0.529167,9.524997 c -4.253442,0.71014 -12.070027,-2.91306 -7.00749,-7.764195 1.778265,-1.703917 4.223544,-1.410229 6.478323,-1.760802 m 6.614583,0.264583 v 22.754164 h -4.233333 l -0.79375,-22.754164 h 5.027083 m 6.614584,0 -0.79375,22.754164 h -4.497917 c 0,-7.45093 -0.96864,-15.667564 0.264583,-23.018747 l 5.027084,0.264583 m -19.579167,0.529167 -0.264583,0.264583 0.264583,-0.264583 m 65.352087,0.422539 c -5.71421,0.357982 -3.46287,4.289161 -3.66052,8.308708 -0.11588,2.35479 -0.98716,4.64133 -1.66793,6.87917 -1.59649,5.24854 -3.29856,10.46798 -5.21097,15.61042 -0.87709,2.35876 -2.35849,5.08582 -1.40017,7.64143 1.22264,3.26046 5.45571,4.20052 8.5,4.65905 1.92908,0.29051 3.87033,0.46222 5.82084,0.33205 3.70205,-0.24739 9.62474,-0.99484 11.2096,-4.98105 1.11469,-2.80405 -0.7247,-5.8711 -1.68593,-8.44523 -2.13862,-5.72797 -4.00023,-11.58849 -5.69489,-17.4625 -0.59796,-2.07275 -0.99377,-4.18254 -0.82629,-6.350004 0.10451,-1.352021 0.81412,-3.011223 0.34898,-4.340225 -0.69929,-1.998398 -4.03172,-1.958446 -5.73272,-1.851819 m -65.881253,0.106628 -0.264584,0.264583 0.264584,-0.264583 m 70.643753,1.852083 c -2.4765,1.071298 -5.10726,0.982398 -7.67292,0.264583 v -0.529167 c 2.6027,-0.576527 5.1517,-0.727339 7.67292,0.264584 m -0.26459,1.5875 c -0.80221,3.802067 -6.85085,4.247887 -7.14375,0 2.42755,0.628385 4.7117,0.582612 7.14375,0 m -86.254163,11.377087 1.058333,2.38125 -17.991666,10.84791 -1.852083,-1.05833 -0.264584,2.38125 c -1.217348,-2.21509 -1.956858,-1.21497 -1.058333,0.79375 l -1.5875,1.05833 c -1.036637,-1.45282 -2.189718,-2.74743 -3.706045,-3.71845 -6.200881,-3.9714 -11.41558,1.13109 -10.239745,7.68456 0.415422,2.31537 -0.711094,6.19918 2.83329,5.55889 0.858891,1.24011 1.878224,2.25902 3.181192,3.0398 0.969406,0.58103 2.052875,1.00621 3.168782,1.19777 0.879925,0.15134 1.771121,0.12594 2.633159,-0.1143 3.548327,-0.98928 4.736307,-4.76276 4.234127,-8.09202 -0.324379,-2.15 -1.485635,-4.00367 0.541073,-5.55625 1.284552,2.54556 1.759744,0.85117 0.79375,-1.05833 l 1.058334,-0.26458 1.852083,1.32291 -0.79375,-2.11666 18.25625,-10.84792 1.322916,2.38125 -1.322916,1.32292 c 3.23215,-0.16748 1.863725,-2.73844 1.058333,-4.7625 l 3.704167,-1.85209 c 0.375443,0.81598 0.757237,1.73329 1.536699,2.25187 1.412082,0.94007 3.030538,-1.03372 0.579967,-0.66437 l -1.322917,-2.38125 4.233334,-3.175 -5.291667,2.11667 -0.79375,-2.38125 c 3.958431,-2.36035 0.22569,-8.261086 -3.705225,-6.023505 -2.079889,1.183746 -6.870435,3.130285 -7.868972,5.395915 -0.6731,1.52638 1.371335,4.94586 2.956454,5.266 0.981868,0.19844 1.981464,-0.48921 2.79691,-0.93424 m 59.266663,-10.583337 -0.26458,0.264583 0.26458,-0.264583 m -8.73125,0.264583 -0.26458,0.264583 0.26458,-0.264583 m -47.88958,0.79375 -0.264583,0.264583 0.264583,-0.264583 m 2.116667,0 1.271852,3.094304 -1.211792,2.70536 0.998273,3.19617 -3.704166,2.11667 c -1.411817,-2.38866 -2.524125,-2.60588 -5.027084,-1.5875 l -2.116666,-3.96875 3.96875,0.79375 c -0.815711,-2.60562 0.518583,-3.66025 2.910416,-4.49792 l 1.5875,1.85208 -0.79375,-2.910414 2.116667,-0.79375 m 53.181253,0.529167 c 1.55919,2.719387 2.56037,1.392507 4.82123,2.447927 1.15094,0.53737 1.77218,2.04893 2.32252,3.10832 -1.8161,0.43657 -3.92536,-1.13294 -2.91042,1.5875 l -3.96875,2.11667 -1.5875,-1.85208 0.79375,2.91041 -1.85208,0.79375 -1.52162,-3.09509 1.06283,-2.59557 -0.86413,-3.30517 3.70417,-2.116667 m 28.04583,1.852087 v 0.26458 c -2.24658,0.80513 -4.6699,1.09537 -6.61458,-0.52917 l 6.61458,0.26459 m 5.02708,-0.26459 0.26459,0.26459 -0.26459,-0.26459 m -75.67083,0.52917 c 2.020623,1.13083 7.046648,0.95859 7.9375,2.91042 -2.890308,-0.002 -6.475413,0.12303 -7.9375,-2.91042 m 1.058333,0 -0.264583,0.26458 0.264583,-0.26458 m 43.920837,0.26458 -0.26459,0.26459 0.26459,-0.26459 m 25.4,1.05834 4.49791,15.34583 h -15.34583 l 4.7625,-15.34583 c 2.09074,0.58102 3.99468,0.58102 6.08542,0 m -42.06875,3.43958 c -2.17488,-1.37716 -4.05951,-1.83145 -6.61459,-1.85208 v -1.32292 c 2.82125,0.0415 5.09641,0.61621 6.61459,3.175 m -48.683336,-2.64583 -0.264584,0.26458 0.264584,-0.26458 m 48.154166,0 -0.26458,0.26458 0.26458,-0.26458 m 5.82083,0.26458 -0.26458,0.26458 0.26458,-0.26458 m 16.66875,0.26458 -0.26458,0.26459 0.26458,-0.26459 m -48.418747,0.26459 -0.264583,0.26458 0.264583,-0.26458 m 44.979167,0 -0.26458,0.26458 0.26458,-0.26458 m -63.764583,0.26458 -0.264583,0.26458 0.264583,-0.26458 m 67.468753,0.0881 c 0.20452,0 0.0423,0.13176 -0.0881,0.0884 l 0.0881,-0.0884 m -29.36875,10.49522 0.79375,-9.78958 c 1.58988,0.26062 3.32369,0.29157 4.70164,1.22396 2.88422,1.95183 2.61752,5.92429 -0.27199,7.72372 -1.55654,0.96917 -3.46392,0.83926 -5.2234,0.8419 m 17.19791,-9.78958 -0.26458,0.26458 0.26458,-0.26458 m -73.554163,0.79375 -0.264583,0.79375 -6.35,-0.26458 c 1.988952,-1.41685 4.36245,-0.95991 6.614583,-0.52917 m 73.025003,-0.52917 -0.26459,0.26459 0.26459,-0.26459 m -8.73125,0.52917 -0.26459,0.26458 0.26459,-0.26458 m 16.40416,1.5875 -0.26458,0.26458 0.26458,-0.26458 m -80.433329,2.91042 h -7.408333 c 1.178507,-3.40731 6.677554,-3.98357 7.408333,0 m 20.637499,-2.11667 -0.264583,0.26458 0.264583,-0.26458 m 3.439584,0.79375 -0.264584,0.26458 0.264584,-0.26458 m 54.239586,0 -0.26459,0.26458 0.26459,-0.26458 m -0.79375,0.52917 -0.26459,0.26458 0.26459,-0.26458 m -56.356253,0.79375 -0.264583,0.26458 0.264583,-0.26458 m -20.902083,2.11666 c -2.708275,0.46937 -5.03084,0.63633 -7.672916,-0.26458 2.321136,-1.22158 5.556514,-1.48458 7.672916,0.26458 m -7.672916,-1.05833 -0.264584,0.26458 0.264584,-0.26458 m 8.731249,0.79375 -0.529166,0.52917 0.529166,-0.52917 m 16.404167,0.79375 -0.264584,0.26458 0.264584,-0.26458 m 45.508336,0 -0.26459,0.26458 0.26459,-0.26458 m -48.418753,1.32292 -0.264583,0.26458 0.264583,-0.26458 m 48.418753,0 c -1.79891,3.08081 -4.97682,3.17209 -8.20209,3.17473 -5.029197,0.004 -10.852147,-1.02102 -15.34583,1.58777 1.998927,-3.14061 5.121539,-2.91015 8.466666,-2.91042 5.095084,-2.6e-4 10.525394,0.80037 15.081254,-1.85208 m -8.99584,1.05833 -0.26458,0.26458 0.26458,-0.26458 m -36.988746,1.80817 c -1.349904,0.36936 -2.313252,2.37464 -2.951163,3.48377 -2.45745,4.2717 -2.587625,12.5394 4.746625,10.59683 5.20065,-1.37742 3.597804,-7.2308 1.707621,-10.59683 -0.596371,-1.06204 -1.909233,-3.9198 -3.503083,-3.48377 m 23.494999,-0.48524 -0.264583,0.26458 0.264583,-0.26458 m -23.547916,0.52916 -0.264583,0.26459 0.264583,-0.26459 m 22.489583,0.79375 -0.264583,0.26459 0.264583,-0.26459 m -21.960416,0.26459 c 1.500452,2.26404 3.435879,4.87203 3.656541,7.67265 0.209815,2.6662 -2.094706,4.62386 -4.700852,4.19444 -1.014148,-0.16722 -1.96506,-0.66807 -2.924439,-1.01918 -0.367506,-4.21428 0.971021,-7.79727 3.96875,-10.84791 m 25.929166,0.26458 1.058333,9.78958 c -6.476206,-0.67415 -7.165181,-7.6655 -1.058333,-9.78958 m 5.291666,0 c 0,2.33892 -0.959379,7.08025 1.322917,8.46667 v -8.46667 h 4.233337 l -2.38125,21.69583 h -4.762504 l -2.38125,-21.69583 h 3.96875 m 61.383334,0.26458 c 1.17343,3.04986 4.69053,8.91091 3.39222,12.14597 -0.87418,2.17805 -3.39963,3.09165 -5.50889,3.56843 -4.7998,1.08532 -13.06565,1.67614 -16.7595,-2.35162 -2.43126,-2.65112 0.0519,-6.61961 1.07738,-9.39323 0.45429,-1.22899 0.89562,-3.03345 2.32675,-3.44647 1.4642,-0.42253 3.37291,10e-4 4.88871,0.005 3.54038,0.009 7.07654,0.0304 10.58333,-0.52838 m -35.45417,0.56515 c -8.75083,0.64823 -7.63296,14.16738 1.05834,13.62181 8.8265,-0.55377 7.81949,-14.27983 -1.05834,-13.62181 m -68.791663,0.75777 -0.264583,0.26458 0.264583,-0.26458 m -9.525,5.02708 -4.762499,2.64584 c -0.47887,-1.23878 -0.4513,-3.26761 -1.547151,-4.13835 -1.199806,-0.95329 -2.803605,0.2958 -2.404481,1.70339 0.399203,1.40811 2.19673,2.16693 2.893298,3.49329 l -4.497916,2.38125 c -0.934323,-2.47571 -1.931723,-5.33665 -0.778352,-7.92559 2.45872,-5.51948 9.016233,-1.88066 11.097101,1.84017 m 78.052613,-4.5421 c 6.91647,-1.16866 8.86275,9.68587 1.85076,10.97651 -7.16571,1.31868 -9.00192,-9.76816 -1.85076,-10.97651 m -59.796363,0.0442 -0.264583,0.26458 0.264583,-0.26458 m 57.150003,0 -0.26459,0.26458 0.26459,-0.26458 m -67.997919,0.26458 -0.264584,0.26458 0.264584,-0.26458 m 10.583333,0.26458 -0.264584,0.26459 0.264584,-0.26459 m 56.885416,0 -0.26458,0.26459 0.26458,-0.26459 m -67.468749,0.26459 -0.264584,0.26458 0.264584,-0.26458 m -18.25625,0.26458 -0.264583,0.26458 0.264583,-0.26458 m 9.525,0 -0.264584,0.26458 0.264584,-0.26458 m 19.579166,0 -0.264583,0.26458 0.264583,-0.26458 m 65.616663,0.52917 -0.26458,0.26458 0.26458,-0.26458 m -6.30211,0.96096 c -3.80285,1.70471 -1.26021,7.58137 2.55826,5.9444 3.88488,-1.66555 1.33429,-7.68932 -2.55826,-5.9444 m -78.099969,-0.16721 -0.264584,0.26458 0.264584,-0.26458 m 107.392259,0.65854 c -0.4916,0.26935 -0.22225,1.10861 0.34369,0.88557 0.5932,-0.23363 0.24183,-1.20624 -0.34369,-0.88557 m -114.800592,-0.12938 -0.264584,0.26459 0.264584,-0.26459 m 114.829162,0 -0.26458,0.26459 0.26458,-0.26459 m -112.712496,0.26459 -0.264583,0.26458 0.264583,-0.26458 m 84.429066,0.46117 c 2.27621,-0.44794 2.92762,3.05408 0.71544,3.62955 -2.41829,0.62918 -3.10912,-3.1586 -0.71544,-3.62955 m -84.958232,1.65549 c -2.04089,-0.97578 -0.395711,-2.13122 0,0 m 113.770832,-1.85208 -0.26458,0.26458 0.26458,-0.26458 m -105.568749,0.26458 -0.264584,0.26459 0.264584,-0.26459 m 3.439583,1.32292 -0.264583,0.26458 0.264583,-0.26458 m -4.497917,0.26458 c 1.061509,2.15265 1.874838,4.44394 1.395677,6.87732 -0.895879,4.55189 -5.543629,4.78763 -8.789378,2.51433 -1.181629,-0.82761 -2.074836,-1.89177 -2.925048,-3.04165 l 4.7625,-2.38125 c 0.256645,0.99431 0.289083,2.15821 0.726942,3.08954 1.38004,2.93555 5.163476,-0.90858 1.125141,-2.29579 l -1.058333,-1.85208 4.762499,-2.91042 m 102.696433,0.84111 c -0.72813,0.51012 -0.0286,1.59623 0.73686,1.15332 0.84138,-0.48683 0.0669,-1.71635 -0.73686,-1.15332 m -60.3631,1.01098 5.291666,1.85208 -0.264583,1.32292 c -2.134394,-0.50853 -3.880908,-1.20253 -5.027083,-3.175 m 50.00625,0.26458 -0.26458,0.26458 0.26458,-0.26458 m -50.00625,0.52917 -0.264583,0.26458 0.264583,-0.26458 m 62.83854,1.01044 c -2.07671,0.86942 -0.76517,4.09575 1.32609,3.23929 2.09524,-0.85778 0.76597,-4.1148 -1.32609,-3.23929 m -87.709373,0.0479 -0.264583,0.26458 0.264583,-0.26458 m 44.979163,2.11667 -5.02708,-0.79375 -0.26458,-1.32292 c 2.22461,0.0138 3.99044,0.118 5.29166,2.11667 m -39.15833,-1.85209 -0.264583,0.26459 0.264583,-0.26459 m 60.06042,0.26459 -0.26459,0.26458 0.26459,-0.26458 m 22.3721,0.68765 0.23495,0.68765 -0.23495,-0.68765 m -43.0096,-0.15849 -0.26459,0.26459 0.26459,-0.26459 m 41.53958,0 -0.26458,0.26459 0.26458,-0.26459 m -92.028433,1.09644 c -1.37451,0.25082 -2.344208,2.31907 -2.955925,3.40174 -2.261923,4.00289 -2.985558,12.26476 4.231746,10.81009 5.505979,-1.10967 4.318264,-6.95484 2.302404,-10.54577 -0.619919,-1.10437 -1.967706,-3.96028 -3.578225,-3.66606 m 15.606977,0 c -1.541992,0.005 -2.66409,2.54423 -3.283479,3.66606 -2.144713,3.88462 -2.996406,10.78812 3.504935,10.66959 6.368521,-0.11589 5.242719,-7.20222 3.067579,-10.93391 -0.63791,-1.09484 -1.782762,-3.40677 -3.289035,-3.40174 m -31.165773,0.5281 0.09401,0.6657 -0.09401,-0.6657 m 119.758059,0.22755 -0.26458,0.26458 0.26458,-0.26458 m -103.981246,0.26458 c 1.048808,1.33403 2.012685,2.71013 2.771246,4.2336 0.643995,1.29355 1.19671,2.75854 1.070768,4.22963 -0.45667,5.33505 -8.480954,4.0259 -7.589043,-1.31948 0.186266,-1.11601 0.643731,-2.17726 1.163373,-3.17474 0.732102,-1.4052 1.622689,-2.7125 2.583656,-3.96901 m 14.816666,0.26458 h 1.058334 c 1.570566,2.53048 4.731279,6.57702 3.03186,9.69434 -1.868488,3.42767 -7.262283,2.13783 -7.364677,-1.76001 -0.07461,-2.83131 2.059252,-5.51445 3.274483,-7.93433 m 88.9,0 -0.26458,0.26459 0.26458,-0.26459 m -105.304166,1.32292 -0.264583,0.26458 0.264583,-0.26458 m -19.05,1.32292 -0.264583,0.26458 0.264583,-0.26458 m 56.356249,1.32291 -0.264583,0.26459 0.264583,-0.26459 m 26.458337,21.69584 c 3.39725,1.26021 8.7921,4.43335 12.43541,4.03066 1.35388,-0.14949 2.57704,-1.07474 3.70417,-1.76954 2.79823,-1.72429 8.04545,-3.70945 9.71365,-6.62992 1.00674,-1.76213 0.90461,-4.49766 1.16602,-6.47912 0.21087,-1.59835 1.016,-4.37674 0.16562,-5.85417 -0.90408,-1.57057 -3.90419,-2.09074 -5.48904,-2.65139 -1.85129,-0.65484 -4.08676,-1.85156 -6.08542,-1.76662 -1.46447,0.0624 -2.76675,1.01203 -3.96875,1.75736 -2.82892,1.75419 -7.63772,3.6105 -9.55278,6.39022 -2.09523,3.04085 -1.5158,9.36254 -2.08888,12.97252 m -25.92917,-20.90209 0.264583,3.175 -1.852083,-1.05833 c 1.072885,3.14457 3.734064,0.94165 6.085416,1.36075 1.092994,0.19473 3.164414,1.17316 3.910014,-0.22331 0.4019,-0.753 -1.03135,-0.39317 -1.26418,-0.34369 l 0.26458,-2.91042 c 7.75388,1.47876 13.43263,8.86381 13.4411,16.66875 0.003,3.04112 -1.30783,5.55572 -1.78091,8.46667 -0.27146,1.67058 0.55563,3.35412 -0.002,4.99401 -1.09538,3.22289 -4.77467,3.24485 -7.16042,1.62057 -0.90646,1.92458 -0.53896,4.76965 -1.96321,6.37461 -1.77244,1.9976 -6.988174,1.04378 -9.412286,1.05727 -1.0033,0.006 -2.089415,8e-4 -2.899304,-0.68289 -1.732227,-1.46261 -0.511175,-4.33123 -2.013479,-5.73352 -0.688711,-0.64267 -1.981994,-0.0182 -2.770717,0.0823 -1.627452,0.20743 -3.294856,-0.3474 -4.227248,-1.75948 -1.265237,-1.91638 -0.138641,-4.13226 -0.534458,-6.21744 -0.631296,-3.32502 -1.731963,-6.04256 -1.538023,-9.525 0.409046,-7.34801 6.203685,-14.03324 13.452475,-15.34584 m 51.32917,4.23334 v 0.26458 c -3.92007,2.56646 -5.8219,2.05766 -10.05417,0.52917 l 0.52917,-3.96875 9.525,3.175 m -10.84792,-2.91042 c -0.37386,5.21441 -5.67664,8.50265 -10.58333,6.87917 v -0.52917 l 10.58333,-6.35 m -51.59375,10.58333 c 2.194454,-1.17316 3.467365,-4.32964 5.311775,-6.07721 0.316177,-0.29977 1.760273,-1.38298 1.379537,-1.95977 -0.500856,-0.75909 -2.37781,0.95462 -2.71092,1.2528 -2.055813,1.84124 -3.544623,4.04045 -3.980392,6.78418 m 22.225,-8.73125 6.35,8.99584 c 2.37807,-3.32926 -3.57875,-8.08461 -6.35,-8.99584 m -19.05,0.26459 -0.264583,0.26458 0.264583,-0.26458 m 8.466666,0 -0.264583,0.26458 0.264583,-0.26458 m 15.875004,0.26458 -0.26459,0.26458 0.26459,-0.26458 m 0,0.52917 -0.26459,0.26458 0.26459,-0.26458 m 16.40416,0.79375 -0.26458,0.26458 0.26458,-0.26458 m -18.25625,0.52916 -0.26458,0.26459 0.26458,-0.26459 m 37.57084,0 -1.05834,10.05417 c -3.4155,-0.94589 -5.3631,-4.08596 -2.78738,-7.40622 0.93847,-1.20941 2.53127,-1.93172 3.84572,-2.64795 m -59.002087,0.52917 -0.264583,0.26458 0.264583,-0.26458 m 53.445837,2.11667 c -0.68157,4.46934 -2.23679,9.63374 -7.9375,9.89726 -1.75684,0.081 -3.61368,-0.98266 -5.29167,-1.4306 0.0545,-4.64079 2.08465,-9.78058 7.67292,-10.03644 1.86399,-0.0852 3.83804,0.95144 5.55625,1.56978 m -16.66875,-1.32292 -0.26459,0.26458 0.26459,-0.26458 m -63.500003,0.26458 -0.264583,0.26459 0.264583,-0.26459 m 10.847917,0.26459 -0.264584,0.26458 0.264584,-0.26458 m -6.208977,1.19697 c -6.184636,2.48682 -6.35344,17.44213 2.474912,13.89089 4.661429,-1.87484 3.07631,-7.29694 1.162315,-10.58836 -0.61595,-1.05913 -2.012421,-3.95579 -3.637227,-3.30253 m -0.141023,0.39053 -0.264584,0.26458 0.264584,-0.26458 m 61.912496,1.5875 c -0.77258,4.23889 -1.09643,6.50531 -5.29166,8.46666 l 1.05833,-9.78958 4.23333,1.32292 m -61.118746,-1.05834 c 1.000918,1.65021 2.130689,3.25173 2.904331,5.02709 0.529696,1.21576 0.977106,2.61699 0.703262,3.95313 -1.001183,4.88157 -8.287279,3.30095 -7.655189,-1.57188 0.158221,-1.21894 0.685535,-2.36485 1.2573,-3.43932 0.772319,-1.45071 1.675077,-2.76358 2.790296,-3.96902 m 78.052086,6.87917 c -2.71489,2.89798 -7.04692,5.1226 -10.58334,6.87917 0.49663,-5.25569 5.63616,-8.30951 10.58334,-6.87917 m -54.765578,0.009 c -6.302904,1.38959 -4.3053,11.13314 2.098675,9.83774 6.253426,-1.26498 4.137024,-11.21225 -2.098675,-9.83774 m 15.344508,-0.0212 c -6.473559,1.32371 -4.2881,11.29877 2.11164,9.82874 6.23173,-1.43139 4.08887,-11.09662 -2.11164,-9.82874 m -15.331015,1.37795 c 4.447117,-1.25042 6.634956,5.70442 2.075127,7.06623 -4.596077,1.37292 -6.758781,-5.7494 -2.075127,-7.06623 m 13.477085,0.22199 c 1.4806,-0.23918 3.04297,-0.66887 4.45823,0.0646 2.31669,1.20068 2.68737,4.51723 0.64055,6.16691 -2.04549,1.64888 -5.19747,0.48312 -5.85761,-2.00846 -0.38576,-1.45653 0.27358,-2.87787 0.75883,-4.22301 m 33.60208,-0.52917 -0.26458,0.26459 0.26458,-0.26459 m 7.40833,0 -0.26458,0.26459 0.26458,-0.26459 m -11.64166,6.35 -9.525,-3.43958 c 2.23149,-1.75631 7.70678,-4.064 9.57976,-0.25718 0.517,1.05119 0.0714,2.59054 -0.0548,3.69676 m -38.100004,-5.55625 -0.264583,0.26459 0.264583,-0.26459 m 47.095834,1.32292 -0.26458,0.26458 0.26458,-0.26458 m -77.522916,2.11667 -0.264584,0.26458 0.264584,-0.26458 m 73.554166,0.26458 -0.26458,0.26458 0.26458,-0.26458 m -51.064583,1.32292 -0.264584,0.26458 0.264584,-0.26458 m 22.754163,0.79375 -0.26458,0.26458 0.26458,-0.26458 m -0.52916,0.61727 c 0.20452,0 0.0423,0.13176 -0.0881,0.0884 l 0.0881,-0.0884 m -10.84792,4.93897 v 2.91042 h 1.058333 v -2.64583 c 3.486147,2.32304 0.678656,-3.66025 -0.554037,-3.66607 -1.467909,-0.007 -4.237832,6.50505 -0.504296,3.40148 m -15.08125,2.11667 -0.264583,0.26458 0.264583,-0.26458 m 30.95625,0.52917 -0.26458,0.26458 0.26458,-0.26458 m -29.104167,0.79375 -0.264583,0.26458 0.264583,-0.26458 m 0.529167,0.26458 -0.264583,0.26458 0.264583,-0.26458 m 6.35,5.55625 -0.264583,0.26458 z"
       id="path1604" />
  </g>
</svg>
