<?xml version="1.0" encoding="UTF-8" standalone="no"?>
<svg
   xmlns:dc="http://purl.org/dc/elements/1.1/"
   xmlns:cc="http://creativecommons.org/ns#"
   xmlns:rdf="http://www.w3.org/1999/02/22-rdf-syntax-ns#"
   xmlns:svg="http://www.w3.org/2000/svg"
   xmlns="http://www.w3.org/2000/svg"
   xmlns:sodipodi="http://sodipodi.sourceforge.net/DTD/sodipodi-0.dtd"
   xmlns:inkscape="http://www.inkscape.org/namespaces/inkscape"
   width="210mm"
   height="297mm"
   viewBox="0 0 210 297"
   version="1.1"
   id="svg8"
   sodipodi:docname="sorcerer.svg"
   inkscape:version="1.0.2-2 (e86c870879, 2021-01-15)"
   inkscape:export-filename="C:\Users\logie\Documents\koding\_GRAFIKI\dnd5eSpells\class icons\fighter.png"
   inkscape:export-xdpi="96"
   inkscape:export-ydpi="96">
  <defs
     id="defs2" />
  <sodipodi:namedview
     id="base"
     pagecolor="#ffffff"
     bordercolor="#666666"
     borderopacity="1.0"
     inkscape:pageopacity="0.0"
     inkscape:pageshadow="2"
     inkscape:zoom="1.4"
     inkscape:cx="74.018439"
     inkscape:cy="543.41137"
     inkscape:document-units="mm"
     inkscape:current-layer="layer1"
     inkscape:document-rotation="0"
     showgrid="false"
     inkscape:window-width="3736"
     inkscape:window-height="2126"
     inkscape:window-x="93"
     inkscape:window-y="-11"
     inkscape:window-maximized="1" />
  <metadata
     id="metadata5">
    <rdf:RDF>
      <cc:Work
         rdf:about="">
        <dc:format>image/svg+xml</dc:format>
        <dc:type
           rdf:resource="http://purl.org/dc/dcmitype/StillImage" />
        <dc:title></dc:title>
      </cc:Work>
    </rdf:RDF>
  </metadata>
  <g
     inkscape:label="Layer 1"
     inkscape:groupmode="layer"
     id="layer1">
    <path
       style="fill:#d84c2c;stroke:none;stroke-width:0.264583"
       d="m 78.940327,50.743304 c -0.2831,-2.306321 -2.049459,-4.110911 -3.550441,-5.78538 -0.317764,-0.354568 -1.423193,-1.785699 -2.048933,-1.402239 -0.626269,0.383831 0.543983,1.856926 0.769937,2.167123 1.373452,1.885315 2.909359,3.683794 4.829437,5.020496 m 3.96875,1.852083 c -1.66872,2.793074 -3.54144,5.460524 -5.294045,8.201264 -0.392906,0.614653 -1.659467,2.155772 -1.150937,2.952564 0.67601,1.05881 3.672152,-1.234942 4.328322,-1.628828 -2.648483,4.236774 -6.609031,8.471959 -8.202087,13.229166 2.084123,-0.66834 3.080015,-2.77839 4.239419,-4.497915 2.617258,-3.882232 5.584558,-7.702974 7.666828,-11.906251 -2.07168,0.08385 -3.62585,1.248119 -5.29166,2.38125 l 6.61458,-10.847917 -4.7625,1.322917 c 2.21509,-2.452132 5.84491,-5.61094 6.35,-8.995834 -2.89534,1.74162 -5.06307,5.076138 -7.16994,7.672547 -0.49821,0.613754 -2.176996,2.302801 -1.64598,3.221037 0.60749,1.050608 3.6113,-0.775387 4.318,-1.104 M 37.929912,71.645383 c 2.27754,8.96435 13.45036,7.14375 20.372918,7.14375 1.877748,0 7.410185,0.9406 8.202083,-1.05833 -6.786298,-1.15014 -14.939961,1.54358 -21.431251,-0.84719 -5.01147,-1.84574 -7.96634,-7.712609 -5.52873,-12.646506 0.98213,-1.987471 2.72468,-3.742584 4.73498,-4.685109 1.49701,-0.701808 3.438,-0.572294 4.23334,-2.194111 -4.25503,0.08678 -8.09652,1.866821 -10.09254,5.821707 -1.31206,2.600246 -0.28442,8.169989 -4.4614,7.634738 -3.98674,-0.510911 -6.50981,-5.222346 -4.30953,-8.676852 1.72005,-2.700973 4.61063,-1.943815 6.49816,-3.823891 1.13242,-1.128025 1.49437,-3.07557 2.44502,-4.386872 2.53629,-3.497712 6.91541,-5.614537 11.2432,-4.805865 2.23838,0.418227 4.31641,1.559666 5.96027,3.121422 0.986367,0.937128 1.867165,2.620222 3.185054,3.108537 1.362075,0.504772 3.016779,-0.698818 4.348427,-0.944854 2.928409,-0.541046 5.86449,0.786236 7.76949,2.989236 3.229769,3.734594 2.557198,8.848726 -1.173956,11.956257 -1.165755,0.971286 -3.224213,1.300692 -4.179623,2.389983 -0.477838,0.54478 0.504296,0.70326 0.850106,0.69453 5.344583,-0.13467 8.752681,-6.645011 7.873206,-11.373909 -1.32371,-7.117345 -9.119658,-9.916478 -15.107973,-6.614584 -3.857889,-6.719173 -12.962201,-9.156382 -19.306111,-4.224655 -2.40163,1.867086 -3.01996,4.857539 -5.11916,6.750421 -2.50481,2.258801 -5.88725,1.753314 -7.19217,5.676794 -2.2225,6.681312 4.42992,10.595293 10.18619,8.995353 m 83.872918,-1.058328 c 0,-4.507178 -0.4564,-8.582105 -4.49791,-11.415714 -1.43193,-1.003908 -5.92958,-3.152113 -6.87917,-0.75512 2.3831,0.510275 4.66513,0.934852 6.57781,2.569792 4.65137,3.975735 4.37197,10.88639 -0.51382,14.54848 -3.90869,2.92974 -9.67053,1.93173 -14.26607,1.93173 -2.284953,0 -4.583913,-0.0725 -6.867263,0.0172 -0.34237,0.0132 -2.08413,0.0127 -1.94787,0.69453 0.12409,0.62124 1.51183,0.57706 1.94787,0.59399 2.01983,0.0794 4.05235,0.0172 6.073513,0.0172 7.51707,0 16.42295,1.36737 19.84375,-7.14375 5.8711,1.75895 12.52087,-2.627842 9.9822,-9.259491 -1.42531,-3.722979 -4.53999,-3.229981 -7.0366,-5.410782 -2.57783,-2.251499 -3.13399,-5.665973 -6.38677,-7.605264 -4.11824,-2.455148 -9.75069,-2.355638 -13.75516,0.288846 -1.55602,1.027536 -2.83951,3.195849 -4.607193,3.782722 -1.27979,0.424921 -2.83263,-0.345176 -4.12565,-0.467757 -2.63763,-0.250058 -5.31918,0.53086 -7.34378,2.254329 -5.1636,4.395312 -4.40372,12.902143 1.524,16.246477 0.49187,0.27755 3.80762,1.82827 4.05157,0.59028 0.13652,-0.6932 -3.2602,-1.859487 -3.77746,-2.215352 -2.45057,-1.685925 -4.08014,-4.442619 -3.89704,-7.464425 0.26908,-4.435184 4.4397,-8.311621 8.91354,-8.097256 1.63328,0.07826 3.81186,1.691058 5.360463,1.076537 1.38377,-0.549196 2.32278,-2.407471 3.4163,-3.378756 2.8067,-2.492825 6.60109,-3.645191 10.27324,-2.667265 2.8964,0.771287 5.37713,2.630356 7.0104,5.13715 0.79005,1.212877 1.17158,3.1133 2.31749,4.0336 2.26298,1.817291 4.98792,1.027536 6.58389,4.170283 2.79056,5.495476 -3.44593,8.676564 -7.97428,7.927791 M 64.917413,66.353721 c -2.312723,-0.788194 -5.363104,-2.64295 -3.7973,-5.548154 0.408782,-0.758137 3.944938,-2.632181 3.316023,-3.151717 -0.847989,-0.700749 -2.502429,0.199443 -3.204104,0.723953 -1.966119,1.469549 -2.494492,4.552924 -1.200415,6.637126 0.855663,1.378479 3.87694,3.530336 4.885796,1.338792 m 29.368754,-0.264583 0.26458,1.322916 c 2.45427,-0.52017 4.76488,-1.727993 5.10196,-4.498419 0.25215,-2.074122 -1.64544,-5.932382 -4.27884,-5.211102 -0.84482,0.231405 2.60905,3.194024 2.78209,4.159965 0.42704,2.382229 -1.91082,3.782404 -3.86979,4.22664 m -13.22917,-4.233334 -0.26458,0.264583 0.26458,-0.264583 m -34.449545,1.950138 c -3.47715,0.785389 -4.19364,5.41745 -1.68804,7.609791 2.63816,2.30822 8.00894,1.28931 11.266751,1.28799 1.018911,-5.3e-4 3.114411,0.34819 3.93409,-0.41831 0.577321,-0.53975 -0.807244,-0.80407 -1.081352,-0.8374 -1.456002,-0.17754 -2.976034,-0.0672 -4.440238,-0.0672 -2.464591,0 -11.878201,0.71411 -9.454621,-4.463261 0.56303,-1.202796 1.79705,-1.512094 2.54238,-2.482903 0.52282,-0.681276 -0.70432,-0.713317 -1.07897,-0.628703 m 64.082878,-0.362642 c 0.82206,1.451769 2.60509,1.93384 3.30174,3.482182 0.9189,2.042848 -0.84005,3.925358 -2.77866,4.307677 -3.81185,0.75142 -10.12375,-1.479546 -13.223083,1.20597 3.277933,0.54981 6.739213,0.26538 10.054173,0.26459 1.72985,-5.3e-4 3.67956,0.18944 5.26097,-0.64929 4.81674,-2.554022 1.78277,-8.184303 -2.61514,-8.611129 M 87.406997,75.614133 c -0.27781,-2.56989 -2.13545,-4.817264 -3.60468,-6.864345 -0.3101,-0.4318 -1.31498,-2.095765 -2.03994,-1.807898 -0.7538,0.299244 0.61145,2.271183 0.81174,2.589477 1.34885,2.141806 2.68076,4.666986 4.83288,6.082766 m -71.172915,2.91042 c 1.81636,0.28046 3.55946,0.47784 5.02708,-0.79375 -1.437,-0.39105 -4.36861,-0.8681 -5.02708,0.79375 m 6.61458,-0.79375 c 1.50257,1.30202 3.41101,1.05807 5.29167,1.05833 h 11.1125 c -0.76253,-1.6711 -2.64769,-1.32238 -4.23333,-1.32291 -3.95341,-0.001 -8.28173,-0.49054 -12.17084,0.26458 m 46.072162,0.15372 c -0.62865,0.58764 3.353064,1.24434 4.164012,0.48631 0.62865,-0.58764 -3.353064,-1.2446 -4.164012,-0.48631 m 6.315339,32.125447 c -1.114954,-2.00025 -0.79375,-4.3942 -0.79375,-6.61458 V 90.695393 c 0,-2.18626 0.478367,-5.1562 -0.906462,-7.02549 -2.763309,-3.72983 -7.447756,-0.74983 -7.769225,3.05674 -0.881063,10.43066 -0.05556,21.279897 -0.05556,31.749997 h -0.79375 c 0,-2.90142 0.751417,-7.07655 -0.519906,-9.75096 -1.386946,-2.91756 -5.402792,-3.26205 -7.349596,-0.73263 -2.240227,2.91068 -1.126331,8.86936 -1.126331,12.33567 0,4.94347 -0.410633,10.02506 2.571221,14.28697 7.655983,10.94317 29.187503,11.0072 39.228183,3.54304 6.489703,-4.82442 6.354763,-11.59087 6.354763,-18.88834 V 101.5433 c 0,-3.541967 1.20412,-9.912607 -1.12025,-12.855837 -2.02723,-2.56646 -6.066633,-1.98993 -7.388493,0.96891 -1.04404,2.3368 -0.48709,5.67954 -0.48709,8.18277 0,4.008167 0.35083,8.201807 -0.26459,12.170827 h -0.26458 c -1.16284,-7.49935 0.0386,-15.446107 -0.28522,-23.018747 -0.12647,-2.95699 -2.33045,-5.57239 -5.52873,-4.80563 -3.37794,0.81016 -3.44356,4.38282 -3.4462,7.18688 -0.006,6.72809 0.76676,13.983757 -0.26485,20.637497 -0.8173,-2.53153 -0.52917,-5.30701 -0.52917,-7.9375 V 88.314143 c 0,-2.57652 0.67284,-6.34921 -0.78978,-8.61643 -2.46062,-3.81423 -7.753081,-1.78805 -8.355537,2.26748 -1.330854,8.9588 -0.115094,18.983057 -0.115094,28.044777 M 91.111167,78.524553 c -2.24526,-1.94548 -7.2652,0.11271 -3.42451,0.2458 0.42969,0.0148 0.86096,0.0114 1.29038,-0.004 0.72205,-0.0257 1.42266,-0.12224 2.13413,-0.24156 m 28.575003,0 c 3.94335,0.66145 8.18038,0.27066 12.17057,0.26431 0.44979,-7.9e-4 3.70654,0.2032 3.52372,-0.71146 -0.18706,-0.93557 -3.14405,-0.61039 -3.78804,-0.61092 -3.24882,-0.003 -9.32366,-1.17978 -11.90625,1.05807 m 19.08439,-0.64003 c -0.62283,0.58235 2.59556,1.25015 3.28877,0.39238 0.57944,-0.71703 -2.71594,-0.92763 -3.28877,-0.39238 m -59.283333,1.21788 c 3.01545,-0.4871 3.66792,2.75007 3.68406,4.9784 0.0479,6.52568 0.002,13.05322 0.002,19.579157 0,1.4822 -0.78,7.3316 1.83435,7.10909 2.33522,-0.1987 1.60523,-5.0673 1.60523,-6.57992 0,-5.027077 -0.0111,-10.054167 5.3e-4,-15.081247 0.005,-1.99443 -0.0373,-4.46537 2.15133,-5.37528 2.49951,-1.03928 4.03992,1.35943 4.16718,3.52425 0.33946,5.78168 0.031,11.66972 0.031,17.461447 0,1.45864 -0.62706,5.85919 1.62348,6.05075 2.22515,0.1897 1.81557,-3.69014 1.8161,-4.99242 0.002,-4.6519 -0.53763,-9.672367 0.0834,-14.283267 0.26908,-1.99628 1.99416,-3.54568 4.068493,-2.85035 1.90183,0.63764 2.15133,2.70695 2.18837,4.43415 0.0873,4.05315 0.01,8.116087 0.01,12.170297 0,11.24902 3.49197,27.57514 -8.731253,33.60896 -2.00104,0.98769 -4.16427,1.61555 -6.35,2.03306 -9.468641,1.80843 -24.11227,1.33985 -28.981926,-8.65452 -1.840442,-3.77719 -1.445154,-8.09308 -1.445154,-12.17083 0,-3.0271 -1.112838,-8.91726 0.999331,-11.36306 1.456531,-1.68645 4.018227,-1.11892 4.924425,0.82788 1.131887,2.43152 0.05794,5.54355 0.548217,8.11794 0.272256,1.42955 1.982258,2.61065 2.913062,0.92843 1.055423,-1.90712 0.404548,-5.38772 0.404548,-7.50703 V 92.812253 c 0,-2.54608 -0.904081,-7.43109 1.697567,-9.00112 2.4384,-1.47135 4.226718,0.97419 4.356893,3.18241 0.350573,5.95603 0.03069,12.02293 0.03096,17.989547 0,1.2909 -0.467255,6.73179 2.229908,5.80178 1.99681,-0.68845 1.209675,-5.52133 1.209675,-7.1247 0,-6.261627 -0.03149,-12.524047 0.0019,-18.785417 0.01164,-2.19445 0.167481,-5.32633 2.926294,-5.77215 M 34.225752,106.57059 c 0.99774,2.04681 3.17235,3.58642 5.5536,3.22553 1.20491,-0.18256 2.26827,-1.05039 3.52425,-0.86413 2.96307,0.43947 7.05458,4.94295 10.01421,4.14602 1.350701,-0.36353 1.92617,-5.95524 1.16496,-6.92785 -1.5359,-1.96162 -4.92812,-2.56672 -6.95536,-3.94414 -1.42875,-0.97076 -1.49014,-2.412997 -2.38522,-3.745177 -1.31181,-1.95262 -3.69782,-2.51539 -5.88936,-2.209 -0.4445,-1.72085 -0.8554,-3.91743 -1.99787,-5.32554 -1.97511,-2.43469 -6.38122,-3.68194 -9.11463,-5.10725 -2.04497,-1.06627 -4.50665,-2.91597 -6.87917,-3.00911 -1.88552,-0.0738 -3.85966,1.06971 -5.55625,1.77192 -1.64446,0.68051 -5.07121,1.41552 -5.8999399,3.15727 -0.83056,1.74546 0.5775799,4.89903 1.0002299,6.66062 0.40825,1.70154 0.58933,3.89996 1.66627,5.33321 1.40583,1.871127 4.37586,2.843737 6.40844,3.861057 2.84454,1.42346 6.83578,4.54422 10.05417,4.65535 1.78276,0.0614 3.69147,-0.99325 5.29167,-1.67878 M 120.47992,96.251843 c -3.50176,-0.48922 -6.68364,1.52691 -6.35,5.291657 -4.07565,1.533 -8.17933,2.86385 -8.19918,7.67742 -0.004,1.00779 -0.31617,3.24961 0.83053,3.79095 1.57692,0.74401 4.69953,-1.69572 6.04573,-2.39131 1.20544,-0.62256 2.57572,-1.51447 3.96875,-1.56792 1.19856,-0.0463 2.26192,0.6567 3.43958,0.77364 2.39157,0.23681 4.36166,-1.3536 5.55625,-3.25569 1.51342,0.71966 3.30677,1.7018 5.02709,1.65735 3.39381,-0.0876 7.36441,-3.25888 10.31875,-4.76171 2.02856,-1.03161 5.03925,-1.94892 6.35397,-3.917157 2.0402,-3.05355 2.50322,-8.704 3.17103,-12.29307 -3.47001,-1.44515 -8.11186,-4.39288 -11.90625,-4.45558 -2.31458,-0.0384 -4.63762,1.77191 -6.61459,2.79135 -2.92179,1.50654 -7.60862,2.84983 -9.64459,5.53006 -1.08241,1.42478 -1.4343,3.45969 -1.99707,5.13001 m -84.666668,-5.02709 c -1.63592,2.7641 -3.75259,5.74966 -6.35,7.67292 -3.36868,-4.23836 -10.51875,-9.01885 -7.9375,-14.81667 l 14.2875,7.14375 M 138.207,84.081003 c 2.26034,4.6019 -1.43113,7.21149 -4.30583,10.58307 -0.88265,1.03558 -2.28732,3.42239 -3.84175,3.42239 -2.2606,0 -4.98157,-5.10805 -5.87534,-6.86171 l 14.02292,-7.14375 m 2.11667,0.26458 5.55625,2.91042 c -2.47386,-7.9e-4 -5.39856,0.28972 -5.55625,-2.91042 m -120.385418,0.26459 c -1.32954,2.85379 -3.22181,2.64557 -6.08542,2.64583 l 6.08542,-2.64583 m -7.67292,3.70417 6.35,0.26458 -0.52917,6.08542 c -2.16593,-1.47876 -4.91352,-3.82509 -5.82083,-6.35 m 135.731248,0.26458 -6.35,6.08542 -0.26458,-6.08542 h 6.61458 m -127.793748,1.32292 7.40833,8.73125 c -5.13051,-1.13401 -9.80913,-2.55456 -7.40833,-8.73125 m 119.856248,0 0.26459,6.35 -7.9375,2.38125 c 2.10687,-3.08584 4.71381,-6.42832 7.67291,-8.73125 m -128.587498,0.26458 6.08542,6.35 -4.49792,1.85208 -1.5875,-8.20208 m 137.054168,0 -1.85208,8.20208 -4.23334,-1.85208 6.08542,-6.35 m -111.654168,2.64583 c 1.59411,5.79544 -1.24381,12.100717 -7.14375,14.022917 0.55509,-6.05658 2.99852,-9.262267 6.61458,-14.022917 h 0.52917 m 86.254168,0 c 4.05183,4.03437 6.65242,7.978247 6.87917,13.758337 -5.75707,-1.19354 -9.05272,-8.492067 -6.87917,-13.758337 m -94.191668,7.672917 -0.52917,6.08542 -14.02291,-6.879167 c 5.00147,-3.47186 9.27867,-0.70908 14.55208,0.793747 m 11.45169,-2.850087 c 1.63381,-0.35693 3.71952,0.88926 3.88171,2.614607 0.20161,2.14445 -2.51434,7.69885 -4.79399,8.11636 -1.67137,0.30612 -3.77798,-1.11787 -3.8399,-2.87205 -0.0741,-2.11111 2.53921,-7.375257 4.75218,-7.858917 m 78.233068,-0.004 c 3.77216,-0.4445 8.52725,10.310807 2.40374,10.791287 -3.78646,0.29739 -8.36242,-10.088817 -2.40374,-10.791287 m 26.73191,2.32516 -14.02292,6.614577 -0.52916,-6.08542 c 4.89955,-1.280577 10.25895,-4.835787 14.55208,-0.529157 m -91.810418,6.879157 -0.79375,5.02708 -9.78958,-4.76249 2.11666,-4.23334 8.46667,3.96875 m 61.383338,-3.96875 1.85208,4.23334 -9.525,4.49791 c 2.6e-4,-1.45071 -0.26723,-3.2967 0.40561,-4.63312 1.08955,-2.16455 5.08635,-3.47106 7.26731,-4.09813 m -100.277088,13.22917 8.20208,0.26458 c -0.89059,1.6256 -1.39091,4.27011 -3.48369,4.65323 -1.94461,0.35639 -4.06471,0.0693 -6.03469,0.11932 -0.56349,0.0143 -1.81224,-0.0767 -2.16715,0.50192 -0.45813,0.74718 1.89089,0.79401 2.16715,0.80089 2.55262,0.0648 5.11288,0.0101 7.6663,0.0101 l 1.32292,4.7625 -5.02709,0.26458 c 0.97642,2.13969 3.72907,0.91281 5.55625,1.65232 1.64042,0.66384 2.87576,2.1127 4.49792,2.86888 5.47423,2.55217 8.58388,-0.51991 13.22917,-2.75378 1.85605,-0.89244 4.81991,0.42571 5.82083,-1.76742 h -5.02708 c 0.46884,-1.29302 0.67892,-3.38905 1.70762,-4.35689 1.30333,-1.22635 4.3262,-0.66781 5.96503,-0.67046 0.44979,-7.9e-4 3.70655,0.2032 3.52372,-0.71146 -0.12409,-0.62124 -1.51183,-0.57706 -1.94786,-0.59399 -1.99867,-0.0786 -4.06083,0.17065 -6.04679,-0.0902 -2.33283,-0.30665 -2.74003,-2.82654 -3.46631,-4.68947 2.01798,0 4.06982,0.10927 6.0841,-0.0111 0.3675,-0.022 2.0058,-0.3093 1.3081,-1.01865 -1.3261,-1.34858 -6.10394,0.0585 -7.92136,-0.39952 -2.90698,-0.73263 -4.63921,-3.15648 -7.9375,-3.31735 -2.14816,-0.10504 -4.18757,0.21749 -6.08542,1.2573 -1.21867,0.66781 -2.29897,1.87299 -3.70417,2.11006 -1.97485,0.33337 -7.33689,-1.06892 -8.20208,1.11469 m 96.572918,-0.79375 c 0.91281,1.98808 6.00975,1.05833 7.9375,1.05833 -0.66622,1.39012 -1.05833,4.11083 -2.72309,4.60163 -2.46539,0.72681 -8.17695,-1.30095 -9.44774,1.48379 h 10.58333 l 1.05833,5.02708 -5.02708,0.26458 c 0.94483,2.05767 4.03569,0.54716 5.79041,1.24725 2.62678,1.04775 4.11374,3.36867 7.17417,3.91345 2.6125,0.46487 5.43984,-0.19209 7.67292,-1.58962 1.09035,-0.68236 1.96427,-1.86531 3.175,-2.32304 1.67693,-0.63367 3.78513,-0.0548 5.55625,-0.45429 -0.66649,-1.68195 -3.50652,-1.05833 -5.02708,-1.05833 l 1.05833,-5.02708 h 7.9375 c 1.20544,-5.3e-4 2.40718,0.21166 2.91042,-1.05834 l -10.84792,-0.26458 -1.5875,-4.7625 c 2.12143,0 6.89689,0.95753 7.9375,-1.32292 -2.64795,0 -5.92349,0.51144 -8.46667,-0.30638 -2.85406,-0.91732 -4.75429,-2.94349 -7.9375,-3.08293 -3.82084,-0.16748 -5.87613,2.06243 -9.26041,3.09721 -2.66462,0.81492 -5.7158,0.0953 -8.46667,0.55669 m -30.952283,-2.16059 c -2.000516,0.55536 -3.714752,4.21693 -4.709585,5.86475 -2.058723,3.40942 -4.210844,7.54063 -4.0513,11.64167 0.23204,5.97244 6.402123,9.65597 11.931915,8.02164 5.36125,-1.58459 7.27736,-6.95669 5.80655,-11.99039 -0.33761,-1.15491 -0.76783,-2.99244 -1.82536,-3.71872 -1.66132,-1.14088 -3.29142,4.23598 -5.80073,1.19327 -1.92299,-2.33204 0.92472,-5.67822 0.65775,-8.32062 -0.0982,-0.97207 -0.61145,-3.07975 -2.00924,-2.6916 M 32.373662,112.9209 v 0.26458 c -2.85803,1.20041 -5.20012,3.64569 -5.39432,6.87917 -0.30454,5.07365 5.12021,9.16543 9.89065,7.41918 1.36419,-0.49927 2.42729,-1.38086 3.44117,-2.3921 -0.32914,4.45135 -5.7867,7.03845 -9.78958,6.42011 -6.03488,-0.93212 -9.7151,-7.41732 -7.1927,-13.03443 0.69691,-1.55257 1.84759,-2.90671 3.23347,-3.8899 1.74811,-1.23984 3.71581,-1.6002 5.81131,-1.66661 m 87.047918,12.17083 c 2.07434,1.53987 4.16084,3.03874 6.87917,2.80088 4.39976,-0.38523 7.89226,-5.12895 6.5786,-9.41493 -0.7829,-2.55509 -2.6887,-4.12962 -4.9911,-5.2922 10.74182,-1.89574 13.04502,14.84974 3.17421,17.99828 -1.36737,0.43603 -2.81544,0.56383 -4.23254,0.32253 -1.5412,-0.26247 -2.98953,-0.91943 -4.209,-1.89654 -1.51077,-1.21073 -2.48602,-2.74346 -3.19934,-4.51802 m -88.106248,0.79375 v -0.26458 c 7.19984,-1.04378 7.04823,-9.73297 -0.26458,-10.31875 0.99747,-0.57415 2.00607,-1.03664 3.17791,-1.08638 7.67159,-0.32491 8.52672,11.67897 0.79136,12.35948 -1.30968,0.11509 -2.49634,-0.22992 -3.70469,-0.68977 m 97.895838,-10.84792 v 0.26459 c -7.32764,0.53975 -7.63588,9.48504 -0.26459,10.31875 -8.68918,5.00089 -13.48634,-10.24414 -3.96795,-11.35301 1.47478,-0.17171 2.85723,0.30401 4.23254,0.76967 M 80.792417,114.5084 c 0.41222,3.05408 -1.55496,5.55519 -1.20756,8.46349 0.31088,2.60456 2.96704,4.28598 5.40967,3.24829 0.79269,-0.33682 1.47029,-0.87339 2.14789,-1.39303 1.97696,4.66883 1.78408,9.63427 -3.175,12.17083 -0.0947,-1.80657 -0.8218,-6.25131 -3.21628,-6.47541 -2.54238,-0.2376 -3.328722,4.76673 -3.398307,6.47541 -8.885237,-4.54448 -2.235465,-17.83345 3.439587,-22.48958 m -49.468885,2.37886 c 4.53337,-0.85433 5.87931,6.26375 1.29937,7.06994 -4.43574,0.78105 -5.82189,-6.21745 -1.29937,-7.06994 m 96.306748,0.002 c 4.52491,-0.72178 5.62002,6.37699 1.04722,7.10274 -4.47225,0.71014 -5.53667,-6.38651 -1.04722,-7.10274 m -76.471198,28.31068 c 2.27938,-0.0603 5.014381,-0.50641 6.223792,-2.72468 1.483518,-2.72124 -1.920611,-9.36783 -4.430712,-10.72567 -3.20252,-1.73197 -4.90749,1.94865 -7.68853,2.12804 -1.69518,0.10954 -3.21283,-1.00992 -4.95247,-0.76994 -3.86979,0.53393 -8.17218,3.67586 -11.64166,5.41152 -1.41447,0.70776 -3.26126,1.34806 -4.21852,2.67812 -1.09617,1.52241 -1.3044,3.80788 -1.74556,5.59011 -0.4164,1.68196 -1.80115,4.69504 -0.99349,6.36826 0.83693,1.73382 4.26437,2.45401 5.89923,3.16336 1.67772,0.72813 3.67136,1.96506 5.55625,1.87828 2.16773,-0.0998 4.44659,-1.77562 6.35,-2.70828 5.32024,-2.60667 10.64684,-3.81106 11.64167,-10.28912 m 57.149998,0 c 1.12316,6.37276 6.37884,7.64144 11.64167,10.25446 1.94416,0.96547 4.37938,2.7559 6.61458,2.75908 1.79758,0.003 3.68221,-1.17317 5.29167,-1.87167 1.64068,-0.71199 5.08873,-1.43854 5.94016,-3.16627 0.82021,-1.66422 -0.54319,-4.71514 -0.96758,-6.3881 -0.45085,-1.77747 -0.6694,-4.08437 -1.77932,-5.59329 -1.03135,-1.40176 -3.00435,-2.09232 -4.51618,-2.82892 -3.41286,-1.66317 -7.35938,-4.56116 -11.1125,-5.23373 -1.83091,-0.32808 -3.46128,0.95409 -5.24272,0.69745 -2.68975,-0.38735 -4.30133,-3.61607 -7.39986,-2.16403 -2.73685,1.28243 -6.07272,7.98248 -4.53417,10.83283 1.18454,2.19419 3.81344,2.6424 6.06425,2.70219 M 80.792417,131.44161 c 0.46302,0.77232 0.94165,1.54437 1.25809,2.39157 1.65153,4.42119 -4.683919,4.17512 -2.68446,-0.24977 0.3601,-0.79666 0.87868,-1.4687 1.42637,-2.1418 m -30.164885,1.35705 c 3.94838,-0.58182 8.683361,10.04649 2.65668,10.75769 -3.69173,0.43551 -8.41295,-9.90944 -2.65668,-10.75769 m 56.952628,0.14314 c 1.79758,-0.71438 4.14231,0.82523 4.18174,2.7514 0.0436,2.13863 -2.24155,6.926 -4.31351,7.73377 -1.78858,0.69771 -4.1402,-0.82444 -4.17962,-2.74346 -0.0442,-2.16218 2.22594,-6.91277 4.31139,-7.74171 m -67.268998,1.41023 2.38125,9.525 c -4.13385,0.34978 -8.2849,0.74824 -12.43171,0.89746 -1.58565,0.0571 -3.43509,-0.55615 -3.60204,-2.42834 -0.13943,-1.56607 1.95421,-2.2733 3.06996,-2.82178 3.52346,-1.73144 6.97865,-3.61051 10.58254,-5.17234 m 93.397918,7.14375 c -3.02207,5.64356 -11.52922,2.65377 -16.93333,2.38125 l 2.64583,-9.525 14.2875,7.14375 m -84.666668,6.87916 c -5.15911,-3.4917 -5.72241,-8.20446 -7.40833,-13.75833 5.98064,1.17819 9.08897,8.19944 7.40833,13.75833 m 68.791668,-13.75833 c -1.29381,5.6261 -2.3749,10.3587 -7.40833,13.75833 -1.43801,-5.57344 1.32715,-12.50526 7.40833,-13.75833 m -92.604168,8.73125 c 1.54623,2.46407 0.17145,4.3987 -1.85208,6.08542 l 1.85208,-6.08542 m 109.272918,0 1.5875,6.08542 c -1.96294,-1.74334 -3.42344,-3.73909 -1.5875,-6.08542 m -71.702083,9.525 c -6.701102,-4.85643 -0.787929,6.14918 0.264583,8.73125 -0.491331,-0.46514 -2.996671,-3.19881 -3.78169,-2.14286 -0.605895,0.81492 0.586317,2.7223 0.919427,3.46604 1.380067,3.08187 2.74373,6.17141 4.112419,9.2583 0.191823,0.43313 0.381529,0.86916 0.601134,1.28932 0.370152,0.70908 1.939925,2.38707 1.604962,0.4736 -0.21881,-1.25095 -0.894292,-2.46591 -1.412081,-3.61315 -0.47625,-1.05542 -0.941388,-2.11508 -1.407319,-3.175 -0.705644,-1.60417 -1.432983,-3.19855 -2.224352,-4.7625 0.607219,0.48789 2.796381,2.78342 3.681148,2.05423 0.689504,-0.56833 -0.277283,-2.26484 -0.525727,-2.84904 -1.158611,-2.72335 -2.405592,-5.41946 -3.420004,-8.20102 0.455612,0.31723 0.907256,0.64029 1.378479,0.93398 1.926431,1.19988 3.237442,0.88741 2.058458,-1.46976 -1.124744,-2.24817 -2.481262,-4.4495 -3.80365,-6.58707 -1.847321,-2.98582 -2.207948,-0.95647 -0.950648,1.30281 l 1.051719,1.84996 c 0.645848,1.13374 1.27291,2.27198 1.853142,3.44091 m 35.45417,0.52917 c -1.16814,2.73711 -2.34765,5.46973 -3.52875,8.20129 -0.2622,0.60642 -1.22211,2.25875 -0.60299,2.88422 0.83556,0.84455 3.08319,-1.61422 3.60257,-2.08968 l -5.29167,13.22917 c 1.92273,-1.00357 2.51275,-3.14246 3.3282,-5.02708 1.66476,-3.84731 4.05844,-7.77267 4.873893,-11.90626 l -4.233343,2.64584 3.24327,-7.4049 0.24712,-2.5101 -3.49039,1.18375 c 0.72734,-1.0295 1.38589,-2.08756 2.01904,-3.17738 0.35666,-0.61384 0.71358,-1.22767 1.05727,-1.84891 1.103853,-1.99708 1.146443,-4.56274 -0.81809,-1.55549 -1.42875,2.18731 -2.72547,4.52676 -3.93859,6.84001 -1.19406,2.27701 -0.14128,2.80247 1.90844,1.57374 0.55087,-0.3302 1.08532,-0.68924 1.62402,-1.03822 m -57.414585,-8.20209 c -1.33694,1.64227 -4.55004,4.82415 -6.87917,4.45982 -1.77218,-0.27728 -3.33639,-2.16747 -4.49791,-3.40148 l 11.37708,-1.05834 m 7.14375,4.49792 -14.02292,6.87917 c 0.58817,-4.4458 2.24182,-6.00604 5.82084,-8.56086 1.07103,-0.76438 2.48179,-2.0537 3.90445,-1.8886 1.76213,0.20426 3.25041,2.31961 4.29763,3.57029 m 77.522918,6.87917 -14.02292,-6.87917 c 1.09247,-1.26233 2.69743,-3.38217 4.50533,-3.5269 1.44515,-0.11562 2.86729,1.19089 3.96134,1.97115 3.50546,2.49978 5.13556,4.06241 5.55625,8.43492 m 4.49792,-10.31875 -4.49792,4.23333 h -0.26458 l -6.61459,-4.7625 c 3.47742,-0.67125 7.89226,-0.0159 11.37709,0.52917 m -97.631258,4.7625 -8.73125,1.05833 3.70417,-5.29167 5.02708,4.23334 m 103.452088,1.05833 -8.46667,-1.05833 c 3.35545,-4.69159 5.95022,-3.52954 8.46667,1.05833 m -102.658338,0 -0.52916,4.7625 -7.67292,-3.175 8.20208,-1.5875 m 101.600008,1.32292 -7.67292,3.43958 -0.79375,-4.7625 8.46667,1.32292 m -57.150007,1.01229 c -8.746331,1.83753 -5.514446,11.75491 -2.518833,16.97938 0.79375,1.38456 2.795323,5.81316 4.818067,5.45729 1.95844,-0.34422 3.60891,-4.18147 4.49527,-5.72188 3.09562,-5.37871 5.8965,-15.68926 -3.35492,-16.83173 -1.12633,-0.13917 -2.32728,-0.11668 -3.439584,0.11694 m 2.381254,21.21271 h -0.52917 c -2.87708,-4.14311 -8.186209,-10.99556 -5.805488,-16.39755 2.362465,-5.3602 11.145308,-4.79716 12.447848,1.05277 1.19619,5.37343 -3.46604,11.12335 -6.11319,15.34478 M 75.76533,162.13328 c 1.305454,0.62441 2.373842,2.28626 3.649667,2.69425 0.8165,0.26114 1.56051,-0.78555 2.05687,-1.26788 2.79241,-2.71198 0.0574,-3.35148 -1.4732,-6.18887 l -4.233337,4.7625 m 4.233337,-1.85209 1.05833,1.05834 -1.5875,1.5875 -1.058334,-1.05834 1.058334,-1.5875 z"
       id="path1631"
       inkscape:export-filename="C:\Users\logie\Documents\koding\_GRAFIKI\dnd5eSpells\class icons\sorcerer.png"
       inkscape:export-xdpi="96"
       inkscape:export-ydpi="96" />
  </g>
</svg>
