<?xml version="1.0" encoding="UTF-8" standalone="no"?>
<svg
   xmlns:dc="http://purl.org/dc/elements/1.1/"
   xmlns:cc="http://creativecommons.org/ns#"
   xmlns:rdf="http://www.w3.org/1999/02/22-rdf-syntax-ns#"
   xmlns:svg="http://www.w3.org/2000/svg"
   xmlns="http://www.w3.org/2000/svg"
   xmlns:sodipodi="http://sodipodi.sourceforge.net/DTD/sodipodi-0.dtd"
   xmlns:inkscape="http://www.inkscape.org/namespaces/inkscape"
   width="210mm"
   height="297mm"
   viewBox="0 0 210 297"
   version="1.1"
   id="svg8"
   sodipodi:docname="warlock.svg"
   inkscape:version="1.0.2-2 (e86c870879, 2021-01-15)"
   inkscape:export-filename="C:\Users\logie\Documents\koding\_GRAFIKI\dnd5eSpells\class icons\fighter.png"
   inkscape:export-xdpi="96"
   inkscape:export-ydpi="96">
  <defs
     id="defs2" />
  <sodipodi:namedview
     id="base"
     pagecolor="#ffffff"
     bordercolor="#666666"
     borderopacity="1.0"
     inkscape:pageopacity="0.0"
     inkscape:pageshadow="2"
     inkscape:zoom="1.4"
     inkscape:cx="518.31816"
     inkscape:cy="745.69013"
     inkscape:document-units="mm"
     inkscape:current-layer="layer1"
     inkscape:document-rotation="0"
     showgrid="false"
     inkscape:window-width="3736"
     inkscape:window-height="2126"
     inkscape:window-x="93"
     inkscape:window-y="-11"
     inkscape:window-maximized="1" />
  <metadata
     id="metadata5">
    <rdf:RDF>
      <cc:Work
         rdf:about="">
        <dc:format>image/svg+xml</dc:format>
        <dc:type
           rdf:resource="http://purl.org/dc/dcmitype/StillImage" />
        <dc:title></dc:title>
      </cc:Work>
    </rdf:RDF>
  </metadata>
  <g
     inkscape:label="Layer 1"
     inkscape:groupmode="layer"
     id="layer1">
    <path
       style="fill:#6c4f90;stroke:none;stroke-width:0.264583"
       d="m 116.64346,111.03051 2.26484,-3.72054 2.31722,-1.95279 -0.9533,-1.17988 -3.90419,-3.91527 -2.27013,2.43985 -2.68737,2.38879 1.28852,1.4936 3.94441,4.44624 m -0.26458,-8.46667 2.38125,2.38125 v 0.52917 l -2.11667,2.38125 h -0.52917 l -2.38125,-2.38125 v -0.52917 l 2.64584,-2.38125 m -18.52084,2.38125 c -2.82231,5.40065 -4.93024,8.91588 -11.11249,10.84792 0.94562,1.69476 2.88898,1.91466 4.49765,2.77913 2.15953,1.16067 3.90022,2.93372 4.94506,5.15818 0.29977,0.63836 0.85672,3.40246 1.86055,3.25906 0.73184,-0.10478 1.02447,-1.39674 1.23904,-1.94786 0.65987,-1.69461 1.51157,-3.29949 2.75961,-4.63966 1.40917,-1.51323 3.11123,-2.34232 5.03555,-3.00047 0.41963,-0.14357 1.53776,-0.40844 1.44224,-1.04826 -0.16907,-1.12889 -3.94626,-2.15934 -4.8432,-2.79241 -3.2639,-2.30362 -3.72057,-5.5698 -5.82401,-8.61563 m 25.66459,10.84792 c 0.87789,2.3748 5.72452,3.06345 7.57872,5.06415 1.71609,1.85171 1.99443,5.64248 4.06295,6.8421 1.13903,-3.42953 2.35002,-7.00434 5.60705,-8.99345 0.69188,-0.42251 4.6691,-1.4283 4.53098,-2.35268 -0.10742,-0.71826 -1.40546,-1.04777 -1.94786,-1.27312 -1.86346,-0.77396 -3.52716,-1.78549 -4.89585,-3.29155 -1.2655,-1.39271 -1.9476,-2.98434 -2.68314,-4.68376 -0.18335,-0.42352 -0.57282,-1.50116 -1.22264,-1.30688 -1.14829,0.34327 -2.15212,3.94917 -2.93132,4.92649 -2.06427,2.589 -4.99877,4.09466 -8.09889,5.0687 m -25.4,-7.14375 c 1.64676,3.64024 4.06135,5.65259 7.40833,7.67292 -3.5007,1.8161 -5.69092,4.12527 -7.40833,7.67291 -2.2143,-3.30846 -4.27011,-6.09753 -8.20208,-7.40833 l 8.20208,-7.9375 m 36.5125,0 c 1.98887,3.22183 3.91636,5.72596 7.40833,7.40834 v 0.52916 c -3.50943,1.4596 -5.52609,4.059 -7.14375,7.40833 -2.20847,-3.31671 -4.28704,-6.05615 -8.20208,-7.40833 2.95963,-2.75304 5.77374,-4.3412 7.9375,-7.9375 m -19.79242,4.53631 c -0.9533,0.35041 -0.82709,1.57917 -0.60431,2.35109 0.60166,2.08438 1.74016,4.02393 2.45454,6.07718 1.66423,4.78181 2.63631,10.00681 2.57122,15.08125 -0.0325,2.53365 -1.30466,6.18993 -0.60034,8.59261 0.45773,1.5613 4.30636,2.64319 5.72056,2.16958 1.9595,-0.65617 1.5113,-5.44936 1.51791,-7.05802 0.0312,-7.51787 -1.50918,-14.61056 -5.32103,-21.16667 -0.82841,-1.42467 -3.56103,-6.8476 -5.73855,-6.04702 m -18.83675,40.44285 c 0.47916,-2.8567 0.7366,-6.70533 -0.0167,-9.525 -0.63315,-2.3704 -2.32357,-4.51061 -3.53536,-6.61458 -2.60271,-4.51935 -5.27394,-9.0006 -7.92163,-13.49375 -1.39779,-2.37236 -2.74055,-4.78009 -4.17327,-7.13173 -0.26696,-0.43821 -1.22105,-2.32148 -1.97935,-1.90797 -0.73845,0.40267 -0.0405,2.15186 0.13044,2.69148 0.81439,2.57145 1.73197,5.11471 2.59292,7.67114 3.29274,9.7782 5.02735,23.00975 14.90292,28.31041 m 19.31458,-39.42291 c 5.29458,6.40789 8.91435,14.35126 9.23396,22.75416 0.0677,1.78303 0.89139,7.81791 -1.0832,8.75718 -0.9951,0.47361 -2.61382,-0.15399 -3.65284,-0.29051 0.79719,-6.9178 1.00595,-13.55593 -0.6977,-20.37292 -0.93107,-3.72514 -2.97366,-7.1448 -3.80022,-10.84791 m 39.33826,0.83177 c -1.91956,0.51369 -3.68697,5.24261 -4.6236,6.84114 -4.02669,6.87203 -9.55648,13.99196 -12.40155,21.43125 -0.86307,2.25637 -0.69929,5.02338 -0.59928,7.40093 0.0312,0.74718 0.0778,2.27859 1.19856,2.10396 2.21668,-0.34581 5.37687,-3.98488 6.46827,-5.80522 1.45759,-2.43178 2.08995,-5.52344 2.98794,-8.19758 1.65947,-4.94242 3.33772,-9.87849 5.00962,-14.81667 0.77179,-2.27944 1.59782,-4.56361 2.2778,-6.87175 0.10901,-0.36936 0.68977,-2.35572 -0.31776,-2.08606 m -38.54451,7.37031 c -1.99469,1.1566 -2.06719,4.01267 -2.37754,6.08542 -0.85222,5.6933 -0.82153,11.20219 -0.53287,16.93333 l -4.23334,0.79375 c -0.8464,-10.01395 2.42676,-17.98399 5.55625,-27.25208 -2.47702,0.41854 -3.19299,4.03704 -3.92985,6.08541 -1.85473,5.15488 -3.16151,10.63837 -3.20887,16.13959 -0.0146,1.70127 -0.24818,4.06267 0.58605,5.61313 0.9062,1.68407 5.6261,0.26908 6.36191,-1.12368 0.73448,-1.39065 -0.014,-3.7727 -0.0561,-5.2832 -0.0714,-2.56805 0.023,-5.11704 0.27464,-7.67292 0.34157,-3.4671 1.35784,-6.84847 1.55972,-10.31875 m -34.66042,-0.79375 8.46878,14.2875 4.77732,8.73125 0.24765,6.61458 c -1.78303,-1.39276 -3.85683,-2.87575 -5.08291,-4.81224 -2.4093,-3.80577 -3.28692,-9.19215 -4.72414,-13.44401 -1.25597,-3.71528 -2.98952,-7.51099 -3.6867,-11.37708 m 70.64375,0 c -3.45758,9.85494 -5.16652,23.06479 -13.75833,29.63333 0,-2.14603 -0.26935,-4.52569 0.30162,-6.61458 1.20094,-4.39341 4.78816,-8.78179 7.0776,-12.7 2.00846,-3.43694 3.79307,-7.27657 6.37911,-10.31875 m -96.80292,16.25997 c -0.53483,0.48974 0.55118,1.51262 0.85011,1.80843 1.50757,1.49119 3.28469,2.76992 4.93614,4.09707 3.70867,2.98106 7.41257,5.96794 11.1125,8.95985 2.01639,1.63089 4.13491,3.79518 6.61459,4.68259 1.28957,0.46144 6.08832,1.86135 7.16015,0.68713 1.28826,-1.41155 -3.04774,-6.23015 -4.08146,-7.0747 -5.54858,-4.53337 -13.66758,-7.14507 -20.01203,-10.46189 -1.00806,-0.52705 -5.54037,-3.65019 -6.58,-2.69848 m 121.73302,-0.13071 c -2.23864,-0.0188 -5.24034,2.39951 -7.20302,3.38323 -6.06028,3.03768 -13.16619,5.69595 -18.68964,9.61866 -1.74863,1.24169 -2.95407,3.43403 -4.01902,5.25436 -0.43285,0.73978 -1.21867,2.17012 0.11457,2.44158 3.99785,0.81386 8.29495,-1.71265 11.21701,-4.02775 4.61909,-3.65998 9.16014,-7.41813 13.75833,-11.1043 1.5449,-1.23825 3.25914,-2.41856 4.6236,-3.85895 0.34422,-0.36327 1.36233,-1.69704 0.19817,-1.70683 m -115.68218,3.97907 c 7.88484,4.48204 18.592,7.17048 23.28333,15.34584 -6.85271,-0.57785 -10.98365,-4.97735 -16.13958,-9.10749 -2.37014,-1.89865 -5.38851,-3.73142 -7.14375,-6.23835 m 110.06666,0.26459 v 0.26458 c -7.13052,5.4647 -13.99725,13.86575 -23.28333,14.81667 3.00963,-5.41523 7.62794,-7.30277 12.96458,-9.98988 3.40625,-1.71529 6.7781,-3.67268 10.31875,-5.09137 m -55.82708,6.75084 c -10.98524,0.68368 -20.11918,7.51496 -29.36875,12.87462 -2.19393,1.27159 -4.43389,2.46936 -6.60347,3.78249 -0.66384,0.40164 -2.04814,1.05807 -2.04814,1.99072 0,1.00436 1.59623,1.69916 2.30769,2.11641 2.363,1.38535 4.76832,2.69689 7.13767,4.07087 10.07824,5.84386 19.85195,13.25457 32.01458,12.54866 10.01713,-0.58129 19.5969,-8.31294 28.04584,-13.14053 2.11269,-1.20729 4.241,-2.39051 6.33888,-3.62347 0.67866,-0.39872 2.04841,-1.02288 2.04841,-1.97194 0,-0.95091 -1.36922,-1.59702 -2.04841,-2.00474 -2.3495,-1.41076 -4.76726,-2.70458 -7.13263,-4.08729 -9.25566,-5.41099 -19.40164,-13.25853 -30.69167,-12.5558 m 31.48542,14.94499 c -14.50843,-4.77864 -29.85638,-6.10288 -44.97917,-4.09046 -5.1398,0.68395 -10.03618,2.21351 -15.08125,3.29671 2.95936,-2.16641 6.34973,-3.78645 9.525,-5.61234 8.55556,-4.91966 16.60763,-8.81539 26.72292,-6.35529 5.10725,1.24222 9.51309,4.21137 14.02291,6.7892 3.21363,1.83727 7.07073,3.43588 9.78959,5.97218 M 48.64555,152.83467 c 1.40655,2.00369 3.77933,3.09536 5.82083,4.35504 3.70721,2.28706 7.42791,4.99798 11.37708,6.83975 1.12078,0.52281 5.67108,1.62507 6.42435,0.059 0.77205,-1.6047 -2.94772,-4.30874 -4.08702,-4.86278 -3.81026,-1.85208 -8.13141,-3.00937 -12.12691,-4.41378 -2.38286,-0.83767 -4.84323,-2.05422 -7.40833,-1.97723 m 110.86041,11.90625 c 1.97406,0 4.17354,0.25294 6.08542,-0.32067 3.90287,-1.17131 7.66207,-4.35425 11.1125,-6.47594 2.41644,-1.4859 5.4774,-2.73606 7.14375,-5.10964 -2.5863,-0.0823 -5.00407,1.14009 -7.40834,1.96639 -5.8203,2.00051 -14.58674,3.44963 -16.93333,9.93986 m -103.1875,-8.46666 c 4.7289,1.88357 11.24665,2.75272 14.2875,7.14375 -5.39829,-0.0352 -10.13698,-4.07776 -14.55208,-6.87917 l 0.26458,-0.26458 m 120.12083,0 v 0.26458 c -4.40637,2.794 -9.17098,6.84398 -14.55208,6.87917 2.89507,-4.3061 9.82398,-5.62425 14.55208,-7.14375 m -64.55833,3.70416 -1.85208,0.26459 1.85208,-0.26459 m 10.58334,0.52917 -1.32292,-0.26458 1.32292,0.26458 m -13.49376,3.175 c -2.18122,-0.88265 -4.46643,-2.29632 -6.87916,-2.11667 l 6.35,3.175 c -1.18692,3.53537 -4.31668,0.69453 -6.35238,2.53498 -0.79693,0.72046 1.88224,0.88847 2.12354,0.89455 0.52361,0.0132 1.04775,0.01 1.57163,0.01 l 2.39262,2.7e-4 0.26459,1.85208 c -0.77788,0.27199 -5.65018,1.64333 -5.41708,2.69901 0.10874,0.49107 1.20835,0.1532 1.47664,0.0794 1.52876,-0.42175 3.00778,-1.11231 4.4696,-1.72006 l 1.05834,1.5875 v 0.26459 l -1.62269,1.62692 c -0.33073,0.33523 -0.66596,0.66807 -0.98266,1.01679 -4.01479,4.42622 3.29353,-1.77165 4.15686,-0.65934 1.21365,1.56369 -1.73751,4.63338 -0.75776,6.74688 l 2.64583,-6.35 c 3.53537,1.18692 0.69453,4.31667 2.53497,6.35238 0.68581,0.75856 0.87816,-1.62163 0.88742,-1.8632 0.0204,-0.52176 0.0159,-1.0451 0.0169,-1.56739 l 2.7e-4,-2.39263 c 3.4581,0.13388 2.57254,4.61275 5.55625,5.55625 l -2.38125,-6.35 c 1.97776,-0.70776 2.99376,0.2622 4.48177,1.52506 0.21432,0.18177 1.33747,1.28984 1.68752,0.94007 0.34872,-0.34873 -0.75354,-1.47188 -0.93425,-1.68752 -1.16337,-1.38932 -2.03755,-2.36299 -1.53088,-4.21719 2.07936,0.68924 4.45215,2.29473 6.61459,1.32292 l -5.82084,-2.38125 0.26459,-2.38125 2.13465,-2.7e-4 c 0.52017,-0.001 1.0414,0.003 1.56131,-0.0169 5.47317,-0.21405 -3.41683,-1.51474 -3.31549,-2.5916 0.16166,-1.71741 4.14681,-2.52121 5.17578,-4.00579 l -6.35,2.11667 c -1.87616,-4.9358 8.03566,-3.6285 9.14955,-0.72231 3.42847,8.94424 -3.95843,19.22489 -12.58914,21.27567 -9.26862,2.20239 -18.72218,-3.61712 -20.9587,-12.88044 -0.62363,-2.5826 -0.7456,-5.62134 0.095,-8.17325 1.11998,-3.40042 10.41744,-4.40161 9.22205,0.50033 m 6.35,-3.25094 c 8.90456,-1.55813 11.34163,12.41955 2.38126,13.89989 -8.87202,1.46606 -11.30539,-12.33832 -2.38126,-13.89989 m -16.66875,1.13427 c -1.48114,8.20976 0.33285,13.66018 5.55625,20.10834 L 79.07264,167.38676 c 6.01557,-2.82628 12.9585,-5.06122 19.57916,-5.82084 m 55.03334,5.82084 v 0.26458 l -24.87083,14.02292 c 4.94982,-6.16294 7.48717,-11.90043 5.55625,-19.84375 6.59526,0.94482 13.15005,3.07234 19.31458,5.55625 m -83.34349,2.55958 c -5.70785,-2.43232 -13.80045,5.08211 -18.25651,7.75308 -1.38599,0.83079 -2.86594,1.62375 -4.13065,2.63499 -0.29252,0.23389 -1.31736,1.07262 -0.69855,1.48193 1.10778,0.73289 4.00613,-0.9017 5.09378,-1.28456 4.74319,-1.66978 10.83178,-2.88289 15.04209,-5.65017 0.74745,-0.49133 4.88421,-4.1111 2.94984,-4.93527 m 90.48724,0.0863 c 4.6728,7.68085 16.77776,9.74434 24.87083,12.43542 -0.42174,-2.65854 -4.01082,-3.97378 -6.08542,-5.24987 -5.98857,-3.68379 -11.3829,-8.42724 -18.78541,-7.18555 m -91.81042,1.05833 c -2.99826,4.41616 -10.37161,6.08119 -15.34583,7.40834 4.17179,-3.27052 9.9359,-7.38479 15.34583,-7.40834 m 109.5375,7.40834 c -4.96305,-1.592 -12.01129,-2.91492 -15.08125,-7.40834 5.31204,0.0225 11.12441,4.00421 15.08125,7.40834 m -94.31496,-2.82549 c -4.57015,-0.33126 -8.45291,2.80167 -11.51837,5.65415 -3.84466,3.57796 -7.65149,7.22762 -11.37708,10.92967 -1.79592,1.78461 -3.8049,3.42953 -5.48299,5.32368 -0.25863,0.2921 -1.63134,1.89759 -0.57153,2.05872 1.93419,0.29448 5.3031,-2.73156 6.84827,-3.72533 6.14097,-3.94944 13.72896,-7.298 19.14048,-12.20258 1.58565,-1.43722 2.67441,-3.79069 3.51182,-5.73114 0.3638,-0.84323 0.79586,-2.2098 -0.5506,-2.30717 m 63.5799,0.25691 c -0.62759,0.56118 -5.3e-4,1.72958 0.2712,2.31034 0.86863,1.85605 1.85658,4.08226 3.38587,5.4864 5.4663,5.01862 13.36728,8.61404 19.66966,12.53596 1.56448,0.97367 3.11414,2.0402 4.75059,2.88925 0.40746,0.21114 1.38086,0.78793 1.8296,0.3773 0.5371,-0.49186 -0.54081,-1.60946 -0.83106,-1.9349 -1.44992,-1.62481 -3.15807,-3.04668 -4.71011,-4.57412 -3.70655,-3.64728 -7.45226,-7.27234 -11.25644,-10.81749 -1.77112,-1.6502 -3.44646,-3.7584 -5.65758,-4.82917 -1.26921,-0.61463 -6.23782,-2.52889 -7.45173,-1.44357 m -64.25035,1.24566 c -2.54397,6.01239 -7.39167,8.29548 -12.7,11.62632 -3.29883,2.06984 -6.52754,4.43547 -10.05417,6.10076 3.01387,-3.44646 6.52753,-6.56166 9.86234,-9.69592 4.11665,-3.869 7.09004,-7.16571 12.89183,-8.03116 m 88.63541,17.99162 c -3.9034,-2.10688 -7.63376,-4.62175 -11.37708,-7.00009 -5.03291,-3.19801 -9.1395,-5.34828 -11.64167,-10.99158 5.919,0.88291 8.74422,4.18756 12.96459,8.12006 3.3991,3.16733 7.06067,6.31587 10.05416,9.87161 m -96.30833,17.99166 c 4.19894,1.48908 4.67016,-3.74888 0.52917,-3.175 1.50309,-1.55707 3.7293,-2.74214 1.85208,-5.02708 l 0.79375,-2.64583 c 0.68659,0.60642 1.42584,1.31021 2.39739,1.35572 2.89666,0.13547 1.96718,-3.27528 -0.28072,-3.73697 2.17831,-1.03135 4.33308,-1.02738 4.23333,-3.96875 2.87761,-1.44225 6.80138,-4.02167 6.84186,-7.66604 0.0431,-3.86874 -4.2672,-3.28824 -5.78353,-0.80063 0.88239,-6.76222 8.92307,-3.12896 8.704,2.38125 -0.24395,6.14018 -5.93355,10.07613 -8.22404,15.34583 -2.4564,5.65177 -0.0415,12.2174 2.37093,17.4625 2.03544,4.42463 4.318,8.77332 6.79952,12.96432 0.23919,0.40402 2.49476,4.36721 3.17791,3.40519 0.76756,-1.08083 -2.44104,-5.08106 -2.99349,-6.05076 -3.31655,-5.82189 -6.74767,-11.99488 -8.43994,-18.52083 -2.60536,-10.04861 7.47051,-14.63543 8.70452,-23.8125 0.38762,-2.8829 -0.78105,-6.01742 -3.2676,-7.64223 -2.86544,-1.87192 -7.14322,-0.5797 -8.08911,2.87867 -1.14829,4.1992 2.50931,1.39224 3.92827,1.18851 1.62639,-0.23389 1.61105,1.78197 1.12686,2.77098 -1.86267,3.8055 -6.96992,5.4184 -9.74672,8.49762 -5.28823,5.86476 -6.06028,13.61176 -5.94995,21.14603 0.0378,2.57598 0.372,5.14297 0.86254,7.66948 0.12912,0.66543 0.23416,2.05131 0.91625,2.42861 0.96785,0.53525 0.33708,-3.17474 0.28681,-3.48377 -0.70485,-4.34949 -0.83211,-8.57144 -0.75009,-12.96432 m 58.47292,26.72292 c 4.12511,-6.41244 8.04783,-13.23764 10.79103,-20.37292 1.43642,-3.73565 2.64265,-7.89913 1.77535,-11.90625 -1.43801,-6.64316 -9.87398,-11.49165 -8.93022,-18.78541 0.73052,-5.64621 7.10883,-6.876 9.06384,-1.32292 -2.49317,-2.84533 -7.60942,-2.29711 -5.8846,2.37675 0.99615,2.69928 3.53721,3.90604 5.40543,5.86449 0.81254,0.85169 1.0676,2.18043 2.03492,2.87443 0.92683,0.66517 2.20583,0.73607 3.20675,1.31975 -4.03173,1.08373 -0.7165,5.81025 1.5875,2.38125 l 1.5875,2.64583 c -1.58459,1.63883 -0.90673,3.4081 1.32291,3.70417 l 0.26459,1.32291 c -4.03384,-0.50853 -3.36418,4.62016 0.79375,3.175 -0.3392,4.46088 -0.21511,8.76406 -0.90991,13.22917 -0.0627,0.40322 -1.01997,4.24418 0.2413,3.56023 0.73872,-0.40058 0.82577,-1.77985 0.9533,-2.5019 0.38973,-2.20609 0.63764,-4.3934 0.88953,-6.61458 0.88265,-7.78193 -0.65088,-16.91481 -6.22274,-22.75205 -2.86729,-3.00408 -7.86765,-4.61883 -9.7364,-8.46878 -0.55086,-1.1348 -0.28549,-3.35968 1.50865,-2.83925 1.21418,0.35243 3.26549,4.11586 4.07194,0.70909 0.0791,-0.33497 0.045,-0.70935 -0.006,-1.04511 -0.56726,-3.71739 -5.16387,-5.52132 -8.24706,-3.60257 -2.7813,1.73117 -3.84995,5.26019 -3.30597,8.36534 1.39939,7.98803 10.66112,12.80133 9.09532,21.43125 -1.33112,7.33557 -5.44274,14.20971 -9.01832,20.63749 -0.78211,1.40626 -4.57915,5.64224 -2.3323,6.61459 m -31.75001,-2.11667 c -0.127,-4.60745 -3.34195,-9.50621 -4.47569,-14.02292 -2.33733,-9.31068 -1.37557,-17.26141 1.95818,-26.19374 1.02421,-2.74426 2.11535,-5.461 3.15516,-8.19865 0.13626,-0.35877 0.99325,-2.32304 0.19606,-2.46856 -0.91652,-0.16695 -1.59729,2.15768 -1.83409,2.73156 -1.29593,3.13928 -2.55588,6.30317 -3.63961,9.52315 -3.38429,10.05654 -3.24618,19.01084 0.009,29.10416 0.97869,3.03398 1.98358,7.53031 4.63073,9.525 m 26.72292,-51.59375 c -0.0577,2.51275 1.21206,4.85511 2.13069,7.14375 1.35255,3.36868 2.617,6.82334 3.60336,10.31875 2.4003,8.5045 1.30784,16.2949 -1.41684,24.60625 -1.00806,3.07552 -2.22171,6.08515 -3.64093,8.99478 -0.19394,0.3974 -1.47029,2.54846 -0.65008,2.85406 0.94403,0.35163 1.98358,-2.29235 2.24948,-2.85433 1.69148,-3.57664 3.13241,-7.30091 4.2045,-11.11118 3.02339,-10.74578 2.10158,-19.76384 -1.74758,-30.16249 -1.16813,-3.15595 -2.18096,-7.47951 -4.7326,-9.78959 m -13.22917,3.96875 c 2.08598,2.25637 1.97565,6.35582 2.34765,9.26042 1.28879,10.06475 -0.60536,20.32635 -5.83697,29.10416 -1.80023,3.02075 -4.06374,5.70178 -6.5622,8.16558 -0.49768,0.4908 -2.39183,1.90288 -2.08147,2.77468 0.37517,1.0541 3.65548,-2.15186 3.99626,-2.49502 3.32158,-3.34354 6.04097,-7.33293 8.00259,-11.62024 5.46497,-11.94461 4.4786,-23.7056 2.25081,-36.24791 -3.88937,-0.0108 -3.89414,2.79215 -4.38229,6.08542 -0.79031,5.3332 -1.35335,10.75557 -0.6522,16.13958 0.23786,1.828 0.51567,3.7592 1.08744,5.5163 0.11006,0.3384 0.4908,1.55363 1.06494,1.32476 0.67628,-0.26934 0.17516,-1.8833 0.0778,-2.34711 -0.53049,-2.52889 -0.97128,-5.0845 -1.11469,-7.66895 -0.13731,-2.47386 -0.0161,-4.94506 0.21749,-7.40833 0.33787,-3.56024 1.05066,-7.05274 1.58486,-10.58334 m -12.27812,1.59809 c -2.25955,1.39805 0.0582,4.77123 2.26351,3.37634 2.29526,-1.4515 0.002,-4.77811 -2.26351,-3.37634 m 5.2906,7.9e-4 c -2.19101,1.34355 -0.14578,4.6654 2.07275,3.38693 2.33653,-1.3462 0.20267,-4.78234 -2.07275,-3.38693 m 12.94342,-0.0966 c -2.4085,1.16019 -0.52625,4.73154 1.84626,3.60574 2.41221,-1.14485 0.53711,-4.75377 -1.84626,-3.60574 m 5.04904,0.0966 c -2.28017,1.4007 0.0482,4.78023 2.26246,3.37529 2.23414,-1.41764 -0.0537,-4.73207 -2.26246,-3.37529 m -22.12789,1.23693 c 0.48048,0.0656 0.49847,0.8202 -0.0164,0.8202 -0.55933,0 -0.55378,-0.89799 0.0164,-0.8202 m 5.24933,0.001 c 0.57864,0.0767 0.46223,0.9697 -0.11774,0.89403 -0.57468,-0.0751 -0.45561,-0.97023 0.11774,-0.89403 m 12.75265,-0.0955 c 0.58764,0 0.58896,0.91202 0,0.91202 -0.58896,0 -0.58764,-0.91202 0,-0.91202 m 5.26468,-0.002 c 0.62548,0.005 0.60405,0.90858 0.009,0.97234 -0.69241,0.0741 -0.68315,-0.97816 -0.009,-0.97234 m -43.89384,4.13967 -1.05834,0.79375 1.05834,-0.79375 m 45.51865,0.47995 c -3.05356,0.32756 -2.60615,5.1697 0.48736,4.78896 3.01175,-0.37068 2.53762,-5.11334 -0.48736,-4.78896 m 19.30426,-0.47995 0.52917,1.05833 -0.52917,-1.05833 m -83.07916,18.78561 h 0.26458 c 1.81266,0.87762 3.14828,-0.4326 1.85208,-2.11667 v -0.79375 c 4.72758,-2.6416 1.3671,-9.99781 -1.05833,-12.96458 6.20315,3.9788 5.59805,9.64644 3.92694,15.875 -0.48048,1.79096 -2.70536,7.58772 -0.48736,8.46666 1.50971,-6.25131 5.1607,-14.76375 1.85685,-20.90182 -1.11549,-2.07274 -2.95011,-3.84624 -5.02761,-4.94823 -0.60246,-0.31962 -1.79203,-0.94113 -2.41539,-0.33655 -0.68394,0.66331 0.2421,1.84282 0.64559,2.37886 1.47135,1.95342 3.09615,3.78937 3.31814,6.34524 0.3175,3.65152 -2.76305,6.1931 -4.56354,8.98393 -1.75233,2.71595 0.56595,1.58141 1.68805,0.0119 m 36.04974,-18.06971 c -2.75696,1.18163 -1.0631,5.45227 1.72561,4.34975 2.90698,-1.14882 1.15914,-5.58589 -1.72561,-4.34975 m 6.09018,-0.003 c -2.70351,1.18295 -1.0459,5.43798 1.7272,4.36933 2.95433,-1.13824 1.17845,-5.64039 -1.7272,-4.36933 m 14.81667,0.003 c -2.70775,1.17078 -1.05331,5.4602 1.7272,4.37065 2.9501,-1.15544 1.16787,-5.62213 -1.7272,-4.37065 m 39.61632,26.53638 c 1.98729,-0.80142 -0.064,-6.48414 -0.53208,-8.20208 -1.6883,-6.1976 -2.56275,-11.64484 3.4425,-15.875 -2.94085,4.15025 -4.22593,9.35884 -0.52917,13.49375 -1.53802,1.89653 0.30295,2.87364 2.11667,2.11667 1.04616,1.73381 3.21125,2.58021 1.57506,-0.0119 -1.77853,-2.81781 -4.89902,-5.30807 -4.58867,-8.98393 0.20717,-2.45427 1.80975,-4.42701 3.26999,-6.28253 0.41592,-0.52837 1.36287,-1.57956 0.78343,-2.29341 -0.68157,-0.83926 -2.21006,10e-4 -2.89163,0.39635 -2.25716,1.30969 -4.17116,3.38005 -5.17843,5.79834 -2.3315,5.59832 0.62813,14.3772 2.53233,19.84375 M 102.80231,199.1267 c 1.05807,-0.4236 1.59623,1.20782 0.508,1.53564 -0.99509,0.29951 -1.44753,-1.15967 -0.508,-1.53564 m 6.07933,0.0376 c 0.97605,-0.32253 1.53909,1.23931 0.49901,1.4687 -0.88609,0.19553 -1.42425,-1.16284 -0.49901,-1.4687 m 14.81667,-5.3e-4 c 0.97049,-0.32147 1.53908,1.21444 0.49901,1.4486 -0.8853,0.19949 -1.42399,-1.14221 -0.49901,-1.4486 m 6.08542,-0.0497 c 0.95541,-0.40693 1.56078,1.01574 0.67733,1.50098 -0.99086,0.54425 -1.69042,-1.06918 -0.67733,-1.50098 m 36.07223,0.81651 -0.26458,0.26458 0.26458,-0.26458 m -83.87291,2.91041 c -1.45627,-1.10966 0.45958,-1.85261 0,0 m 69.45524,-1.1893 0.23204,0.61701 -0.23204,-0.61701 m -50.38858,2.88607 c -3.6187,0.39503 -2.81913,5.98144 0.75989,5.4827 3.53774,-0.49292 2.72124,-5.86264 -0.75989,-5.4827 m 6.87811,0 c -3.46578,0.37915 -3.01757,5.75258 0.508,5.50334 3.68591,-0.26088 3.10251,-5.89836 -0.508,-5.50334 m 16.41819,0.013 c -3.55467,0.75909 -2.25954,6.2566 1.26154,5.4229 3.43244,-0.81254 2.13624,-6.14865 -1.26154,-5.4229 m 6.87546,-0.007 c -3.58722,0.70353 -2.25848,6.28015 1.26524,5.41443 3.42424,-0.84111 2.10132,-6.07483 -1.26524,-5.41443 m -50.12875,0.61092 c -1.99628,0.95541 -0.47757,4.18518 1.55073,3.14775 2.03887,-1.04325 0.49265,-4.12565 -1.55073,-3.14775 m 69.31078,0.10028 c -1.93966,1.10093 -0.33893,4.20635 1.65523,3.17368 2.08175,-1.07818 0.41884,-4.35055 -1.65523,-3.17368 m -48.88071,0.83505 c 1.5957,0.13255 1.37504,2.58418 -0.21696,2.45639 -1.62401,-0.13044 -1.38615,-2.58974 0.21696,-2.45639 m 6.663,-0.0209 c 1.54914,-0.12567 1.72482,2.31828 0.18812,2.45957 -1.6129,0.14817 -1.77774,-2.33019 -0.18812,-2.45957 m 16.88412,0.0209 c 1.67085,0.13917 1.18825,2.64662 -0.40587,2.37463 -1.50812,-0.25717 -1.04881,-2.49608 0.40587,-2.37463 m 6.24364,0.13837 c 1.50998,-0.62891 2.35559,1.65603 0.82629,2.18493 -1.43483,0.4961 -2.23864,-1.59676 -0.82629,-2.18493 m -53.29925,-0.21246 -0.79375,1.5875 0.26458,-1.5875 h 0.52917 m 4.7625,1.05834 c -1.74043,0.3003 -1.17634,-1.23508 0,0 m 68.40061,-0.70406 0.25294,0.61436 -0.25294,-0.61436 m 4.3598,-0.35428 0.52917,1.5875 c -0.65061,-0.52096 -0.86307,-0.79983 -0.52917,-1.5875 m -73.27344,3.94917 c -2.27171,0.13891 -2.04682,3.7346 0.21881,3.57479 2.1844,-0.15399 2.00528,-3.71105 -0.21881,-3.57479 m 68.51729,0.0296 c -2.25928,0.007 -2.2524,3.54039 0.006,3.56367 2.30637,0.0241 2.27145,-3.57055 -0.006,-3.56367 m -72.50218,2.63578 c -1.84573,-0.84191 0.11536,-2.03148 0,0 m 4.00129,-1.1221 0.11404,0.65669 -0.11404,-0.65669 m 68.38051,-0.0672 0.22807,0.61701 -0.22807,-0.61701 m 4.52173,0 0.21007,0.61701 -0.21007,-0.61701 m -54.67615,0.75168 c -4.14893,0.46938 -3.41683,6.9051 0.66437,6.50875 4.12432,-0.40031 3.46101,-6.97547 -0.66437,-6.50875 m 8.46614,0 c -4.25794,0.48128 -3.379,7.10248 0.78131,6.46166 4.00182,-0.61622 3.23903,-6.91647 -0.78131,-6.46166 m 14.55499,0.0257 c -4.23889,0.55007 -3.40069,6.91171 0.77841,6.42117 4.07246,-0.47784 3.29512,-6.94981 -0.77841,-6.42117 m 8.4672,0.0175 c -4.20476,0.51594 -3.37529,6.93579 0.77787,6.36932 4.07564,-0.55563 3.31523,-6.8715 -0.77787,-6.36932 m -31.67089,1.58486 c 2.1455,-0.60246 3.05726,2.667 0.91466,3.26284 -2.06322,0.57388 -3.01202,-2.67362 -0.91466,-3.26284 m 8.45449,0 c 2.14419,-0.59849 3.0435,2.65773 0.92419,3.2885 -2.08439,0.62071 -3.06096,-2.69187 -0.92419,-3.2885 m 14.57669,-0.0117 c 2.11482,-0.66066 3.17368,2.50931 1.11549,3.2602 -2.09153,0.76306 -3.27554,-2.58577 -1.11549,-3.2602 m 8.4627,0 c 2.09868,-0.65563 3.16071,2.51513 1.11813,3.2602 -2.10211,0.76676 -3.30041,-2.57863 -1.11813,-3.2602 m -63.85745,0.93795 v 0.52917 h -0.52917 v -0.52917 h 0.52917 m 9.64882,0.54531 c -2.2352,1.27423 -0.40825,4.70932 1.87537,3.57055 2.41485,-1.20385 0.51832,-4.93501 -1.87537,-3.57055 m 5.06069,0 c -2.19154,1.3118 -0.14049,4.82018 2.06798,3.44593 2.21165,-1.3761 0.15214,-4.77467 -2.06798,-3.44593 m 65.8704,-0.0971 c -2.40744,1.1504 -0.54345,4.84214 1.83383,3.64728 2.39739,-1.20492 0.56806,-4.79478 -1.83383,-3.64728 m 5.00936,0.10133 c -2.29077,1.30413 -0.0971,4.81251 2.07803,3.42794 2.15742,-1.37318 0.1532,-4.6982 -2.07803,-3.42794 m 12.04198,-0.54954 0.26458,0.52917 h -0.52917 l 0.26459,-0.52917 m -87.1093,1.86478 c 0.52096,-0.19526 0.88926,0.58235 0.34502,0.78979 -0.52309,0.19949 -0.89562,-0.58367 -0.34502,-0.78979 m 5.05513,-0.01 c 0.52572,-0.22516 0.84058,0.61145 0.33126,0.83317 -0.52256,0.22728 -0.84217,-0.6141 -0.33126,-0.83317 m 65.80611,0.0519 0.21695,0.68368 -0.21695,-0.68368 m 5.03316,-0.0577 c 0.52811,-0.20532 0.91414,0.58261 0.36301,0.79904 -0.53128,0.20849 -0.92577,-0.57997 -0.36301,-0.79904 m -88.05518,1.11231 c -1.35176,0.82338 -0.24527,2.98476 1.19936,2.22964 1.51923,-0.79428 0.27463,-3.1279 -1.19936,-2.22964 m 99.22774,-0.001 c -1.34672,0.80989 -0.22568,2.96916 1.20068,2.24394 1.55919,-0.79296 0.30242,-3.14749 -1.20068,-2.24394 m -98.11808,0.74375 -0.79375,0.79375 0.79375,-0.79375 m 99.21875,0 v 0.52916 h -0.79375 v -0.52916 h 0.79375 m -44.71485,1.18665 c -4.12353,0.41355 -3.62479,6.8199 0.52467,6.46774 4.18703,-0.35507 3.67268,-6.88842 -0.52467,-6.46774 m -12.13643,0.22781 c -3.76476,1.338 -1.70842,7.28266 2.06136,6.10129 4.14311,-1.29831 1.99523,-7.54327 -2.06136,-6.10129 m -30.93747,0.64717 c -2.98238,1.14935 -1.20385,5.6687 1.71635,4.3897 2.67335,-1.17078 1.05649,-5.45862 -1.71635,-4.3897 m 5.84332,-0.0124 c -2.83924,1.16443 -1.22158,5.52291 1.69493,4.48415 2.96994,-1.0578 1.16257,-5.65573 -1.69493,-4.48415 m 16.90873,-0.0312 c -3.86292,1.75498 -0.9652,7.47236 2.78104,5.71156 3.70125,-1.7399 0.96387,-7.4131 -2.78104,-5.71156 m 27.0084,0.0997 c -3.75602,2.07989 -0.32834,7.59143 3.24221,5.47212 3.49276,-2.07328 0.29951,-7.43321 -3.24221,-5.47212 m 18.2462,-0.11774 c -2.94402,0.92975 -1.46579,5.46947 1.46632,4.51988 2.88025,-0.93266 1.41367,-5.42925 -1.46632,-4.51988 m 5.82983,0.0492 c -2.85935,1.16707 -1.22238,5.5192 1.69545,4.46352 2.93079,-1.06019 1.14141,-5.62134 -1.69545,-4.46352 m -42.32407,0.81068 c 2.03094,-0.73819 3.17208,2.42094 1.14405,3.17447 -2.06851,0.76835 -3.2385,-2.41353 -1.14405,-3.17447 m 11.37708,-0.082 c 2.17461,-0.6104 3.08451,2.77204 0.90117,3.34936 -2.17434,0.57494 -3.05329,-2.74532 -0.90117,-3.34936 m -18.65366,0.35824 c 2.15239,0.1442 2.00369,3.58643 -0.20372,3.44753 -2.24499,-0.14103 -2.04047,-3.59754 0.20372,-3.44753 m -23.66433,0.39291 c 0.99775,-0.21352 1.33271,1.35811 0.32147,1.55363 -1.0115,0.19527 -1.3253,-1.33879 -0.32147,-1.55363 m 6.03594,-0.0598 c 1.02394,-0.1053 1.18983,1.4613 0.16007,1.56713 -1.03875,0.10663 -1.19221,-1.46076 -0.16007,-1.56713 m 43.9936,-0.10609 c 1.99522,-0.84376 3.41365,2.20556 1.36339,3.06334 -2.00739,0.83953 -3.40465,-2.20001 -1.36339,-3.06334 m 17.96838,0.16774 c 1.00277,-0.22013 1.32768,1.35837 0.32147,1.56713 -1.01838,0.21087 -1.3216,-1.34726 -0.32147,-1.56713 m 6.02192,0.001 c 0.9345,-0.008 1.15331,1.39805 0.16457,1.50309 -1.03902,0.11033 -1.24566,-1.49436 -0.16457,-1.50309 m -72.76571,4.24312 c -3.43588,0.70511 -2.50958,6.06054 1.00965,5.47952 3.56208,-0.5879 2.50137,-6.19998 -1.00965,-5.47952 m 6.87572,0.0532 c -3.54541,1.03373 -1.9804,6.46377 1.52189,5.31336 3.28189,-1.07791 1.83832,-6.29311 -1.52189,-5.31336 m 56.87828,-0.0402 c -3.60045,0.69824 -2.55164,6.20263 1.02367,5.41761 3.39513,-0.74533 2.42358,-6.08621 -1.02367,-5.41761 m 6.89292,0 c -3.54383,0.69692 -2.25187,6.24232 1.25571,5.38718 3.46552,-0.84507 2.14472,-6.05604 -1.25571,-5.38718 m -70.11114,1.4613 c 1.60364,7.9e-4 1.592,2.47438 -0.008,2.45956 -1.54437,-0.0146 -1.53908,-2.46036 0.008,-2.45956 m 6.88578,0.045 c 1.45468,-0.12621 1.88463,2.15661 0.3937,2.41458 -1.59994,0.27676 -2.05211,-2.27065 -0.3937,-2.41458 m 30.14477,-0.17331 c -3.99177,1.30678 -1.9976,7.4213 2.0029,6.16374 3.85127,-1.21074 1.81927,-7.41495 -2.0029,-6.16374 m 26.68455,0.19262 c 1.46103,0.11642 1.533,2.41221 0,2.41274 -1.61766,2.6e-4 -1.65814,-2.54503 0,-2.41274 m 6.7109,0.0132 c 1.53881,-0.38523 2.15661,2.0148 0.6051,2.41168 -1.56634,0.40031 -2.15821,-2.02301 -0.6051,-2.41168 m -47.14505,0.31274 c -3.93726,1.3761 -1.86478,7.47844 2.05343,6.11849 3.91636,-1.35943 1.88092,-7.49353 -2.05343,-6.11849 m 21.72309,0.27411 c -3.81053,1.456 -1.52004,7.60147 2.29631,6.02562 3.88806,-1.6055 1.60814,-7.51735 -2.29631,-6.02562 m -7.39775,0.58578 c 2.15688,-0.46461 2.85062,2.91598 0.67839,3.36153 -2.1254,0.43577 -2.77178,-2.91041 -0.67839,-3.36153 m -13.75569,0.51621 c 2.18334,-0.58129 3.09271,2.75325 0.90778,3.3475 -2.19075,0.59611 -3.10859,-2.76145 -0.90778,-3.3475 m 21.95803,0.27754 c 2.13784,-0.46037 2.86306,2.89693 0.68236,3.31629 -2.09946,0.40402 -2.76383,-2.86782 -0.68236,-3.31629 m -37.9042,6.96278 c 0.15266,-0.34449 0.2876,-0.73422 0.50244,-1.0496 2.02062,-2.96625 2.75775,1.30413 4.26005,1.84335 0.0871,-0.88212 0.17093,-1.76504 -0.20055,-2.60112 -1.46817,-3.30279 -6.75904,-1.07077 -4.56194,1.80737 m 51.32916,0.79375 c 0.11298,-3.61633 2.2569,-2.51116 4.23334,-0.79375 0.0688,-0.62124 0.14472,-1.20253 -0.0818,-1.80552 -1.62031,-4.3172 -7.93247,0.42466 -4.15158,2.59927 z"
       id="path1697"
       inkscape:export-filename="C:\Users\logie\Documents\koding\_GRAFIKI\dnd5eSpells\class icons\warlock.png"
       inkscape:export-xdpi="96"
       inkscape:export-ydpi="96" />
  </g>
</svg>
