<?xml version="1.0" encoding="UTF-8" standalone="no"?>
<svg
   xmlns:dc="http://purl.org/dc/elements/1.1/"
   xmlns:cc="http://creativecommons.org/ns#"
   xmlns:rdf="http://www.w3.org/1999/02/22-rdf-syntax-ns#"
   xmlns:svg="http://www.w3.org/2000/svg"
   xmlns="http://www.w3.org/2000/svg"
   xmlns:sodipodi="http://sodipodi.sourceforge.net/DTD/sodipodi-0.dtd"
   xmlns:inkscape="http://www.inkscape.org/namespaces/inkscape"
   width="210mm"
   height="297mm"
   viewBox="0 0 210 297"
   version="1.1"
   id="svg8"
   sodipodi:docname="wizard.svg"
   inkscape:version="1.0.2-2 (e86c870879, 2021-01-15)"
   inkscape:export-filename="C:\Users\logie\Documents\koding\_GRAFIKI\dnd5eSpells\class icons\fighter.png"
   inkscape:export-xdpi="96"
   inkscape:export-ydpi="96">
  <defs
     id="defs2" />
  <sodipodi:namedview
     id="base"
     pagecolor="#ffffff"
     bordercolor="#666666"
     borderopacity="1.0"
     inkscape:pageopacity="0.0"
     inkscape:pageshadow="2"
     inkscape:zoom="1.4"
     inkscape:cx="518.31816"
     inkscape:cy="745.69013"
     inkscape:document-units="mm"
     inkscape:current-layer="layer1"
     inkscape:document-rotation="0"
     showgrid="false"
     inkscape:window-width="3736"
     inkscape:window-height="2126"
     inkscape:window-x="93"
     inkscape:window-y="-11"
     inkscape:window-maximized="1" />
  <metadata
     id="metadata5">
    <rdf:RDF>
      <cc:Work
         rdf:about="">
        <dc:format>image/svg+xml</dc:format>
        <dc:type
           rdf:resource="http://purl.org/dc/dcmitype/StillImage" />
        <dc:title></dc:title>
      </cc:Work>
    </rdf:RDF>
  </metadata>
  <g
     inkscape:label="Layer 1"
     inkscape:groupmode="layer"
     id="layer1">
    <path
       style="fill:#16636c;stroke:none;stroke-width:0.264583"
       d="m 137.73452,126.01727 c -5.37977,0 -10.75981,-0.0154 -16.13958,7.9e-4 -2.39686,0.007 -5.21283,0.0812 -6.7818,2.21483 -2.22356,3.02339 -0.89112,10.05046 -0.89112,13.65938 v 32.54375 c 0,3.5044 -1.21629,9.79963 0.59478,12.88282 1.92564,3.27766 7.86712,2.73183 11.04689,2.19843 l 0.52916,4.49791 4.49765,-1.03769 3.44197,0.28998 0.79163,-3.7502 2.91042,0.26458 c 0,10.04782 0.19315,20.1168 -0.008,30.1625 -0.063,3.13267 -2.62732,9.6901 3.18108,9.46626 5.7748,-0.22225 2.78633,-6.32407 2.66674,-9.46626 -0.38074,-10.02374 -0.0188,-20.13082 -0.0188,-30.1625 l 24.07709,-0.26458 c -0.49821,-1.17899 -1.34832,-2.41009 -1.46632,-3.7047 -0.13891,-1.52162 0.9472,-2.80167 1.27344,-4.2328 0.42254,-1.85341 0.19288,-3.93145 0.19288,-5.82084 v -33.3375 -11.64166 c -5.3e-4,-1.19671 0.35269,-3.34725 -0.67019,-4.23519 -1.34753,-1.16972 -4.8088,-0.52731 -6.47356,-0.52731 h -16.93334 v -2.64584 l 0.79375,0.26459 0.26459,-2.38125 h 1.32291 c 0,-3.52822 -0.9816,-8.78444 0.30427,-12.09146 0.68713,-1.76718 2.77046,-2.86036 3.92113,-4.32639 2.65351,-3.38058 3.34671,-8.16996 1.68751,-12.15713 -4.74186,-11.39644 -22.11705,-8.55638 -23.03436,3.70414 -0.22939,3.06808 0.57494,6.04899 2.52122,8.45765 1.03584,1.28204 2.62784,2.29944 3.35094,3.80314 0.85752,1.78303 0.69612,4.08279 1.09829,5.99546 0.80433,3.82429 1.94707,7.4385 1.94892,11.37709 m 1.5875,-39.26706 c 13.37839,-1.88494 16.70235,19.20354 3.175,21.13024 -13.84035,1.9713 -17.08891,-19.16983 -3.175,-21.13024 m -7.14375,9.89831 h 0.52917 c 0.89773,-2.46698 1.63221,-4.66927 3.97377,-6.16673 0.41804,-0.26733 2.85512,-1.01986 2.72468,-1.66568 -0.25638,-1.26738 -3.56605,0.4124 -4.02828,0.71956 -2.38786,1.58716 -3.76793,4.27961 -3.19934,7.11285 m -22.75205,-0.24855 c -6.68126,1.8166 -3.73962,12.03891 2.90512,10.29406 6.67121,-1.75194 3.79281,-12.11524 -2.90512,-10.29406 m 59.53284,0.0469 c -6.72492,2.14825 -3.17024,12.36162 3.42688,10.14219 6.49076,-2.18355 3.09589,-12.22581 -3.42688,-10.14219 m -24.03978,0.95067 c -0.6858,0.0848 -1.20147,1.09691 -1.61846,1.55408 -2.18387,2.39533 -2.34923,2.07704 -0.13626,4.5179 0.44133,0.4868 1.10332,1.79382 1.90183,1.69148 0.65881,-0.0844 3.90578,-3.32732 3.82508,-3.97362 -0.10107,-0.80833 -1.4769,-1.49339 -2.00078,-2.02314 -0.45773,-0.46259 -1.19221,-1.86306 -1.97141,-1.7667 m 25.87943,0.141 c 5.06756,0.2237 4.79927,8.11559 -0.25533,7.96163 -5.26494,-0.16034 -4.96385,-8.19206 0.25533,-7.96163 m -60.83856,0.14306 c 5.04984,-1.12022 6.96595,6.53383 1.83568,7.72329 -4.96094,1.15014 -6.86779,-6.60707 -1.83568,-7.72329 m -0.17595,1.52728 c -2.97947,1.36104 -0.80857,6.01183 2.18228,4.62664 2.96413,-1.37293 0.80196,-5.98993 -2.18228,-4.62664 m 59.78208,0.002 c -2.88634,1.29532 -0.99828,5.90452 1.9804,4.65947 3.13055,-1.30845 1.08453,-6.03494 -1.9804,-4.65947 m -24.42343,0.34816 1.5875,1.85209 -2.11666,1.5875 -1.32292,-1.32292 1.85208,-2.11667 m -34.70354,1.0046 c 1.16311,-0.56393 2.02089,1.2129 0.88768,1.8044 -1.14962,0.60005 -2.0447,-1.24341 -0.88768,-1.8044 m 59.77599,0.0348 c 1.21444,-0.47487 1.9812,1.41494 0.72893,1.87582 -1.20359,0.44289 -1.9103,-1.41383 -0.72893,-1.87582 m -44.12271,6.49227 c -5.17843,0.38092 -11.73613,5.40536 -11.90758,10.98913 -0.0381,1.23613 -0.53842,3.3647 0.41884,4.35689 0.83952,0.86995 2.46883,0.65802 3.55177,0.58764 3.15145,-0.20532 6.35899,0.068 9.4951,-0.22939 2.79241,-0.26459 2.13016,-3.43906 2.1508,-5.50889 0.0413,-4.07829 2.21191,-10.63094 -3.70893,-10.19538 m 26.33504,0.40407 c -1.32742,1.1524 -0.67019,4.77719 -0.67019,6.35172 0,2.14366 -0.79137,6.30979 0.42624,8.1624 0.65749,1.00065 2.24764,0.82603 3.27898,0.83185 2.65166,0.0151 5.28982,-0.0238 7.93618,0.1643 1.06892,0.0759 2.67599,0.32306 3.56341,-0.44661 1.15437,-1.00119 0.71808,-3.88012 0.63235,-5.23346 -0.26194,-4.12459 -6.79635,-9.95077 -10.81087,-10.28451 -1.21391,-0.10092 -3.35175,-0.41752 -4.3561,0.45431 m -73.166027,10.84964 c 3.11918,1.01917 5.8637,2.15159 7.73351,5.02893 0.40587,0.62442 1.34937,3.92351 2.26034,3.78619 1.09431,-0.1651 2.16984,-3.94758 2.81543,-4.82494 1.77773,-2.41591 4.22169,-3.34566 7.03447,-3.99018 l -7.75784,-6.08568 -2.10238,-3.66633 -1.89204,2.87284 -8.09149,6.87917 M 191.70952,108.0256 c -1.29619,4.95009 -4.27778,8.00999 -9.26042,9.26042 0.98187,1.84282 3.69597,2.03305 5.27341,3.34962 2.32172,1.93781 3.17659,4.52649 4.25159,7.23371 l 3.83038,-6.24152 6.48837,-4.07723 c -2.62704,-1.15649 -5.24642,-2.26801 -7.12284,-4.54343 -1.29091,-1.56527 -1.65815,-3.93488 -3.46049,-4.98157 m -64.29375,0.26458 c -1.71873,2.41618 -3.36973,2.45586 -6.08542,1.85209 1.77007,-1.64889 3.77984,-1.65656 6.08542,-1.85209 m 32.80833,1.85209 c -2.75616,0.63314 -4.25899,0.45905 -6.08541,-1.85209 2.30954,0.1442 4.31773,0.20426 6.08541,1.85209 m -17.99166,-0.79375 c 0,1.85525 -0.45773,4.17459 1.32291,5.29166 0,-1.9177 -0.56091,-4.68868 1.32292,-5.82083 v 10.05417 c -2.99641,-2.02936 -8.64897,-6.36403 -8.46667,-10.31875 l 5.82084,0.79375 m 11.1125,0 c 2.36855,3.15356 1.23163,5.3086 0,8.73125 h -0.26459 l 0.26459,-8.73125 m -24.60625,0.26458 -0.26459,8.46667 c -1.54702,-3.02075 -2.94613,-6.16506 0.26459,-8.46667 m -24.07709,0.79375 -2.46909,3.47768 -2.1127,2.08571 3.62797,3.88647 1.17131,0.95276 2.51989,-2.79082 2.10926,-2.02195 -2.09391,-1.92669 -2.75273,-3.66316 m 66.41042,6.08542 6.08542,5.02708 2.1844,-3.47319 2.1328,-1.90817 -2.36987,-2.44158 -2.29182,-2.43866 -1.5068,1.29275 -4.23413,3.94177 m -47.36042,-4.49792 -4.7625,4.7625 c -0.7956,-4.02537 0.69983,-5.63086 4.7625,-4.7625 m 38.89375,5.02708 h -0.26458 l -4.49792,-5.02708 c 4.26879,-0.91255 5.58033,0.94059 4.7625,5.02708 m -73.289577,-5.55625 c 1.59941,2.78421 3.49462,4.51326 6.08542,6.35 -2.79374,1.70948 -4.62915,3.68115 -6.08542,6.61459 -1.74757,-2.90248 -3.67056,-5.06466 -6.87917,-6.35 l 6.87917,-6.61459 m 102.922917,0 h 0.26458 c 1.67455,2.87047 3.89123,4.5466 6.61458,6.35 -2.91068,1.57454 -5.16281,3.30227 -6.61458,6.35 h -0.52917 c -1.33376,-2.7006 -3.09668,-4.74239 -5.82083,-6.08541 l 6.08542,-6.61459 m -67.20417,1.5875 2.91042,7.9375 -7.9375,-2.64583 5.02708,-5.29167 m 31.75,0 4.7625,5.02709 -7.9375,2.91041 3.175,-7.9375 m -51.85833,0.26459 2.38125,2.38125 v 0.52916 l -2.38125,2.38125 h -0.26459 l -2.64583,-2.38125 v -0.52916 l 2.91042,-2.38125 m 32.27916,0.26458 c 2.46407,2.05078 5.18716,4.34763 6.35,7.40833 -2.30849,-1.56342 -6.14415,-4.40901 -6.35,-7.40833 m 42.33334,2.38125 -2.64584,2.64583 h -0.52916 l -2.11667,-2.38125 v -0.52916 l 2.11667,-2.11667 3.175,2.38125 m -62.17709,-1.5875 c 0.22199,2.73288 0.30322,4.36404 -2.11666,6.08542 0.0624,-2.38231 0.14472,-4.50136 2.11666,-6.08542 m 47.36042,0 c 1.51183,1.95051 1.58591,3.69834 1.5875,6.08542 l -2.64583,-2.11667 1.05833,-3.96875 m -26.45833,3.70417 c 1.81266,1.55336 3.56049,3.1152 3.96875,5.55625 -1.74334,-1.35679 -4.15925,-3.11971 -3.96875,-5.55625 m -13.22917,3.175 v 0.26458 l -8.46667,0.26458 c 2.40903,-3.37529 5.2033,-1.651 8.46667,-0.52916 m 39.95208,0.26458 h -8.20208 c 2.86226,-1.67005 5.85602,-2.93741 8.20208,0 m -25.66458,1.32292 2.91042,3.175 c -2.27568,-0.0646 -3.35201,-0.77285 -2.91042,-3.175 m 26.9875,4.49791 v 53.975 h -33.86667 l -8.4664,-2.6e-4 -3.56341,-0.52705 -0.66992,-3.70629 -2.7e-4,-9.78931 v -39.95209 h 46.56667 m -47.88958,0.26459 v 53.71041 l -3.175,1.05834 c -0.7874,-4.69451 -0.26459,-9.79964 -0.26459,-14.55209 v -27.25208 c 0,-4.14893 -1.62507,-11.45858 3.43959,-12.96458 m -36.777087,5.55625 3.29116,3.04456 2.79426,3.04085 c 0.88397,-2.67679 2.35426,-4.14311 5.02708,-5.02708 l -4.26667,-3.94123 -1.50071,-1.29329 -1.86188,1.97961 -3.48324,2.19658 m 111.973257,-4.17619 c -1.15464,0.29104 -2.62784,2.88687 -3.68962,3.67533 -0.35665,0.26485 -1.01864,0.66066 -0.94694,1.19486 0.11721,0.87127 1.97485,1.69756 2.54529,2.31431 0.50641,0.54742 1.35149,2.48311 2.25928,2.36723 0.81994,-0.10452 1.39515,-1.54808 1.88198,-2.09868 2.62864,-2.97312 3.51208,-2.02671 0.41116,-5.0374 -0.53234,-0.517 -1.5621,-2.6424 -2.46115,-2.41565 m -70.12094,0.93821 c -2.55561,0.62574 -1.5449,4.52306 0.96203,3.88912 2.54106,-0.64241 1.57004,-4.50903 -0.96203,-3.88912 m 37.59571,-0.0328 c -2.47544,0.744 -1.32715,4.65587 1.17395,3.91609 2.46883,-0.73025 1.32186,-4.66592 -1.17395,-3.91609 m -37.09326,1.49516 c 0.59399,-0.007 0.5879,0.92313 0,0.92816 -0.59029,0.005 -0.58553,-0.92102 0,-0.92816 m 37.60205,0 c 0.56648,-0.007 0.56065,0.92313 0,0.92816 -0.55562,0.005 -0.55086,-0.92102 0,-0.92816 m -74.400567,-0.34105 2.38125,2.38125 v 0.52917 l -2.11666,2.38125 h -0.52917 l -2.64583,-2.38125 v -0.52917 l 2.91041,-2.38125 m 106.891667,0.26458 2.38125,2.11667 v 0.52917 l -2.64583,2.38125 h -0.26459 l -2.38125,-2.38125 2.38125,-2.64584 h 0.52917 m -65.0875,0.52917 c 1.50416,1.55998 4.0857,1.05833 6.08542,1.05833 h 15.34583 c 1.87166,0 5.15726,0.71094 6.08542,-1.32291 -8.88286,0 -18.75605,-1.20492 -27.51667,0.26458 m 47.36042,47.625 c 3.63273,-2.84427 0.38867,-6.78392 1.27317,-10.58333 0.66516,-2.85618 3.20172,-4.93051 4.21825,-7.67292 0.79878,-2.1545 0.20902,-4.02273 0.25242,-6.20713 0.0997,-5.03025 0.35957,-9.9388 -0.2929,-14.96404 -0.30559,-2.35426 -1.91664,-5.09375 -4.39446,-5.66658 -5.42343,-1.25359 -6.03197,7.37526 -6.26454,10.69817 -0.23178,3.31073 0.1733,6.73549 0.19023,10.05416 0.0103,2.01189 -0.43365,3.84096 0.21246,5.82084 0.94536,2.89745 3.63485,4.98819 4.32541,7.9375 0.62945,2.68843 -0.82708,4.70535 -0.76517,7.20672 0.0291,1.18083 0.75327,2.336 1.24513,3.37661 m -37.04167,-44.01264 c -19.68103,2.93422 -20.96162,31.42085 -2.64583,37.45494 2.93264,0.96599 6.22035,1.09352 9.26041,0.63738 19.56541,-2.93555 21.32568,-31.24729 2.91042,-37.36366 -2.99905,-0.99589 -6.39763,-1.19486 -9.525,-0.72866 m 38.1,11.20431 c 0.036,-2.18414 1.76795,-3.85895 1.74704,-5.8166 -0.0273,-2.56144 -3.83169,-3.06996 -4.69953,-0.72893 -0.65669,1.77138 1.57401,4.2754 1.62957,6.28094 -2.90988,-2.06428 -5.26812,-10.27721 0.53208,-10.57672 1.43166,-0.0741 2.60482,1.2409 3.20966,2.39872 1.67931,3.21442 0.054,6.28544 -2.41882,8.44259 m -79.374997,25.13541 c 0.002,1.6047 -0.27199,3.69385 1.03373,4.89347 2.255307,2.07169 9.755977,2.44105 10.698947,-1.25545 0.98981,-3.88011 0.17357,-8.90058 0.17357,-12.89843 v -15.34584 c 0,-2.51592 0.41301,-5.46073 -0.17357,-7.91898 -0.97949,-4.10554 -8.50476,-4.10845 -10.862197,-1.34487 -1.5457,1.81213 -0.87048,5.46417 -0.87048,7.67635 0,5.87746 0.58923,12.01235 -1.00171,17.72709 -0.6268,2.25081 -3.32317,6.48837 -2.74876,8.75797 0.39635,1.5658 2.9718,0.0905 3.75047,-0.29131 M 152.2866,139.7756 c -2.59133,1.72085 -6.14018,5.63324 -9.26041,6.06002 -2.98239,0.40772 -8.06212,-4.64133 -10.05417,-6.58919 5.41364,-2.91491 14.5968,-4.77626 19.31458,0.52917 m -43.65625,12.17083 c -3.34248,-1.13559 -5.90497,-0.9689 -9.260407,0 0,-3.40466 -1.22635,-9.74381 0.42624,-12.76561 1.325557,-2.42412 7.130257,-2.53154 8.428567,-0.041 1.61528,3.09853 0.4056,9.34667 0.4056,12.80662 m 67.86272,-11.91604 c 1.1041,-0.41195 1.67243,1.23455 0.53737,1.55602 -1.03399,0.29263 -1.56951,-1.17105 -0.53737,-1.55602 m -45.10855,0.53896 3.70417,11.64167 -9.78959,6.87916 c -1.72878,-6.85297 0.58288,-14.07583 6.08542,-18.52083 m 22.75417,0 c 5.67187,4.87124 7.14533,11.39851 6.08541,18.52083 l -10.05416,-6.87916 3.96875,-11.64167 m -20.6375,0.79375 7.9375,5.82083 v 0.52917 l -5.29167,3.43958 c -0.92366,-3.05832 -2.77072,-6.56352 -2.64583,-9.78958 m 18.78541,0 -3.175,9.78958 -5.29166,-3.70416 8.46666,-6.08542 m -78.850537,0.7911 c -1.10461,0.79243 -1.02756,2.64081 -1.66645,3.77111 -2.42549,4.29128 -3.75753,8.88233 -0.90477,13.42443 0.99142,1.5785 2.70648,2.58286 3.63617,4.15687 1.17769,1.9939 -0.76317,3.90234 -0.0239,5.78167 0.90913,2.31114 8.91302,2.0365 10.65292,0.8554 1.96797,-1.33588 -0.48631,-4.31112 0.36354,-6.22432 1.64888,-3.71237 5.34696,-4.94877 5.62689,-9.59168 0.22754,-3.77481 -1.46579,-5.92005 -2.95698,-9.15829 -0.46646,-1.01308 -0.40746,-2.50745 -1.46897,-3.1369 -1.81954,-1.0787 -5.38266,-0.40481 -7.43294,-0.40481 -1.65759,0 -4.39984,-0.49583 -5.82554,0.52652 m 122.756557,8e-4 c -1.79149,1.30386 0.46382,4.39076 -0.38894,6.24311 -0.59399,1.2901 -1.96268,2.11296 -2.87046,3.16679 -1.65576,1.92167 -2.64901,4.45823 -2.72627,6.99612 -0.10292,3.38587 1.7362,5.52529 2.96704,8.46534 0.45746,1.09273 0.43471,2.57916 1.5711,3.243 1.85049,1.08108 5.21811,0.46249 7.28318,0.46249 1.67905,0 4.45717,0.48366 5.89439,-0.58182 1.06733,-0.79137 1.09855,-2.53524 1.68936,-3.65178 2.41274,-4.55956 4.03543,-8.98816 0.86466,-13.7496 -1.05119,-1.57824 -3.00646,-2.64901 -3.80709,-4.34922 -0.88873,-1.88754 1.26127,-4.38679 -0.0405,-5.94281 -1.29408,-1.54728 -8.87333,-1.43907 -10.43649,-0.30162 m -109.522687,0.7956 v 1.05833 c -3.06837,0.59584 -6.40807,0.27438 -9.52476,0.26406 -1.43195,-0.005 -2.77667,0.1307 -3.43982,-1.32239 h 12.96458 m 119.327087,0 c -0.71226,1.79811 -8.81274,1.79811 -9.525,0 h 9.525 m -33.3375,2.11667 c 2.50772,2.55455 3.43323,4.37409 3.43958,7.9375 h -0.26458 c -1.77509,-2.36538 -3.71581,-4.81595 -3.175,-7.9375 m 8.46667,0 c -0.11668,3.20807 -1.60364,5.40199 -3.43959,7.9375 h -0.26458 c 0.007,-3.60336 0.90091,-5.57874 3.70417,-7.9375 m 23.8125,0.26458 v 3.43958 h -7.40834 v -3.43958 h 7.40834 m -115.093757,6.08542 c -3.29776,-0.66199 -6.45398,-1.26974 -9.52042,0.57705 -2.4344,1.46632 -4.84529,5.2967 -8.10924,4.76594 -3.46633,-0.56356 -1.14414,-7.39563 0.0553,-9.01144 2.24496,-3.02472 6.57735,-2.15609 9.90147,-2.15212 1.46791,0.002 3.11706,-0.13732 4.40929,0.69056 1.74281,1.11628 2.65006,3.24247 3.26363,5.13001 m 56.620827,8.20208 h -7.67292 l -2.11666,-7.14375 c 3.47715,-2.52677 5.59805,-4.81595 9.50542,-1.79414 0.8718,0.67442 1.84229,1.45918 1.96532,2.63234 0.2077,1.98173 -1.12368,4.4241 -1.68116,6.30555 m 46.56667,-5.82083 c 3.98647,-5.70442 14.65818,-5.3766 17.29264,1.58882 2.00792,5.30833 -4.60349,5.67531 -8.0145,3.90181 -3.4081,-1.77218 -5.34591,-4.52782 -9.27814,-5.49063 m -20.37292,-2.91042 c 2.15318,2.65192 3.41815,4.73922 3.43958,8.20208 h -0.26458 c -1.84679,-2.46089 -3.77005,-4.96437 -3.175,-8.20208 m 8.46667,0 c -0.0783,3.32952 -1.397,5.8293 -3.70417,8.20208 0.0212,-3.42582 1.33641,-5.40676 3.175,-8.20208 h 0.52917 m -109.272917,7.40833 c 4.35409,-0.60457 6.08778,-3.9616 9.797,-5.61181 3.88964,-1.73038 9.83562,-0.40084 7.28689,4.8178 -3.0062,6.15526 -13.56834,6.60717 -17.08389,0.79401 m 36.777077,-3.96875 c -3.30067,-1.03452 -5.94492,-0.90223 -9.260407,0 1.918227,-2.65985 7.516277,-3.08054 9.260407,0 m -23.629137,-1.24804 c -0.52705,0.2421 -0.13176,1.0459 0.36963,0.72523 0.42042,-0.26909 0.0992,-0.9406 -0.36963,-0.72523 m 50.616637,0.45429 1.85209,6.08542 h -10.31875 l 8.46666,-6.08542 m 14.2875,0 8.20209,6.08542 h -10.31875 l 2.11666,-6.08542 m -41.275,18.25625 c -4.8252,-3.43032 -7.9703,-2.99984 -12.964577,-0.26458 1.01812,-3.37079 2.51646,-6.58918 3.22713,-10.05417 0.32649,-1.59252 0.032,-4.18941 1.146697,-5.46391 1.68011,-1.92087 7.17179,-2.04496 8.28648,0.57547 0.60537,1.42346 0.30427,3.37635 0.30427,4.88844 v 10.31875 M 81.952133,155.50297 c -0.49996,0.27385 -0.0429,0.99166 0.43973,0.73343 0.50086,-0.26803 0.0384,-0.99537 -0.43973,-0.73343 m 128.807357,5.17472 c -1.19327,5.89704 -5.22367,6.08568 -10.31875,6.08542 -2.83157,-2.7e-4 -5.35808,0.12277 -7.16333,-2.44052 -1.13638,-1.61396 -3.44911,-8.18885 -0.11403,-8.88656 3.13901,-0.65669 5.63694,3.08795 7.88246,4.56459 3.00223,1.97406 6.44128,1.69598 9.71365,0.67707 m -38.1,-3.70416 c 2.2008,2.76595 3.4208,4.89161 3.43958,8.46666 -2.24895,-2.31299 -4.07696,-5.12709 -3.43958,-8.46666 m 8.46667,0 c -0.0508,3.44593 -1.30625,6.00048 -3.70417,8.46666 0.0185,-3.55124 1.30625,-5.54408 3.175,-8.46666 h 0.52917 m 13.83744,0.83634 0.41831,0.66014 -0.41831,-0.66014 m -112.080667,0.53076 c -1.65306,0.94641 -0.15558,3.43244 1.465,2.51751 1.63512,-0.92313 0.16801,-3.45255 -1.465,-2.51751 m 1.40573,1.01415 v 0.52916 l -1.32292,-0.52916 h 1.32292 m 113.581917,0.89085 0.40216,0.59954 -0.40216,-0.59954 m -56.16734,12.33831 c -7.1845,-1.04246 -13.04078,-4.73339 -15.875,-11.64166 l 8.20182,2.6e-4 3.65098,0.52705 1.57507,3.17765 2.44713,7.9367 m 4.23333,-11.64166 -2.91041,9.525 c -1.99285,-2.34448 -2.91174,-6.53865 -3.43959,-9.525 h 6.35 m 13.49375,0 c -2.67123,7.03818 -8.5635,10.33145 -15.61041,11.64166 l 3.43958,-11.64166 h 12.17083 m 36.66041,1.85155 c -1.81081,0.73051 -0.5125,3.59886 1.25121,2.73553 1.67719,-0.82074 0.4535,-3.42345 -1.25121,-2.73553 M 83.759523,163.5881 v 3.43958 h -7.40833 l 0.26458,-3.70416 7.14375,0.26458 m 113.506247,0.26458 v 0.52917 l -1.05833,0.26458 v -1.05833 l 1.05833,0.26458 m 10.31875,4.23334 v 1.32291 h -12.7 v -1.32291 h 12.7 m -122.502077,1.05833 c -1.85949,0.50588 -8.99777,1.20465 -9.78959,-0.79375 2.86481,0 7.32446,-0.86043 9.78959,0.79375 m 20.372907,3.70417 -6.085407,0.79375 c 0.11112,-3.90393 5.392997,-4.71567 6.085407,-0.79375 m 1.5875,-0.79375 c 3.60786,5.49883 -4.0214,5.16096 -7.408327,3.70416 l 3.174997,-1.85208 -1.05833,1.85208 c 3.60865,1.15994 4.57914,-0.41116 5.29166,-3.70416 m -21.695037,2.09126 c -6.87228,0.91996 -5.60324,11.64431 1.32186,10.69525 6.79212,-0.9308 5.48349,-11.60621 -1.32186,-10.69525 m 109.802347,0.0148 c -6.71803,1.10411 -5.19827,11.62553 1.58618,10.66112 6.96674,-0.99034 5.27553,-11.78904 -1.58618,-10.66112 m -89.69481,0.27517 v 0.52916 l -1.5875,0.26459 c 0.38233,-0.83318 0.69215,-0.95991 1.5875,-0.79375 m 18.03982,0.73077 c -2.55428,0.62548 -1.55892,4.42939 0.94589,3.93806 2.62705,-0.51514 1.61951,-4.56618 -0.94589,-3.93806 m 37.59597,0.0315 c -2.49475,0.93213 -1.10701,4.88633 1.39568,3.77957 2.20848,-0.97657 0.9562,-4.65799 -1.39568,-3.77957 m -75.478477,0.30612 c 5.05725,-0.55086 5.8248,7.40966 0.79058,7.96846 -5.06188,0.56197 -5.90352,-7.41151 -0.79058,-7.96846 m 109.804197,0.0196 c 4.97999,-0.87789 6.31058,6.88129 1.31419,7.87453 -5.11493,1.01653 -6.48335,-6.96357 -1.31419,-7.87453 m -18.25942,0.23495 -0.52917,1.05834 -0.26458,-1.05834 h 0.79375 m -53.15982,0.87022 c 0.59399,-0.007 0.5879,0.92313 0,0.92816 -0.59055,0.005 -0.58553,-0.92102 0,-0.92816 m 37.62534,0.0672 c 0.55615,-0.0781 0.66807,0.82338 0.11271,0.89879 -0.56198,0.0762 -0.66384,-0.82153 -0.11271,-0.89879 m -75.742277,0.25268 c -3.27607,0.14949 -3.06652,5.31733 0.25665,5.07074 3.21072,-0.23813 2.98318,-5.21864 -0.25665,-5.07074 m 43.122587,0.66199 c 6.65692,1.16654 14.1478,0.26458 20.90208,0.26458 1.94363,0 5.65044,0.78952 6.61459,-1.32292 h -20.90209 c -1.70338,0 -5.87666,-0.8038 -6.61458,1.05834 m 66.69035,-0.62574 c -3.25279,0.48842 -2.55059,5.64806 0.75962,5.02364 3.15409,-0.59478 2.43813,-5.50386 -0.75962,-5.02364 m -109.807377,1.45256 c 1.30916,-0.1233 1.50786,1.9341 0.20082,2.06851 -1.34567,0.13811 -1.55046,-1.94098 -0.20082,-2.06851 m 110.070897,0.0196 c 1.26921,-0.11589 1.45944,1.91479 0.19553,2.04893 -1.28085,0.136 -1.47691,-1.93225 -0.19553,-2.04893 m -30.44137,4.18068 c -0.86386,2.09471 -0.82285,3.65098 -0.26458,5.82083 H 134.8241 l -0.26458,-2.11666 h 17.99167 c 2.68128,0 5.90682,0.55985 8.20208,-1.05834 -9.66338,-1.49833 -20.38403,-0.26458 -30.1625,-0.26458 -3.05065,0 -8.41163,-1.05251 -10.84792,1.05833 l 6.08542,0.26459 -0.26458,2.11666 c -2.67997,-0.0436 -6.20792,0.60431 -8.64579,-0.73316 -1.8169,-0.99668 -2.09392,-3.33401 -0.22331,-4.45955 1.34091,-0.80671 3.1361,-0.62653 4.63576,-0.62786 l 9.26042,-2.6e-4 c 11.62738,0 23.30291,-0.31009 34.925,0 m -32.27917,3.70417 v 5.82083 c -2.39871,-0.64638 -3.94785,-0.57044 -6.35,0 v -5.82083 h 6.35 m -52.652077,10.05416 v 0.52917 c 2.56725,1.21788 5.09217,2.29473 6.98077,4.51591 1.32847,1.56236 1.77667,3.97774 3.60256,5.00909 0.66093,-2.89163 2.01772,-5.51736 4.51168,-7.24906 1.56369,-1.08611 3.74491,-1.3544 4.748737,-3.06969 -2.906707,-0.57362 -5.417077,-1.75339 -7.157767,-4.25424 -0.53367,-0.76702 -1.63672,-4.43335 -2.66462,-4.43891 -0.96097,-0.005 -1.98014,3.46657 -2.48285,4.18147 -1.86082,2.64663 -4.66434,3.633 -7.53851,4.77626 m 111.124997,-9.78958 c -2.01401,4.89267 -3.94705,8.40184 -9.525,9.525 1.12051,1.91452 3.84043,2.26377 5.50889,3.67189 2.18493,1.84361 3.02445,4.33705 4.01611,6.91144 1.34647,-1.48166 1.84785,-3.45969 3.10991,-5.0165 1.93226,-2.38336 4.51406,-3.49964 7.20884,-4.77308 v -0.52917 c -2.64054,-1.09881 -5.28637,-1.955 -7.15539,-4.26879 -1.36604,-1.69095 -1.72667,-3.90577 -3.16336,-5.52079 m -49.2125,34.925 h -3.43958 v -31.75 c 4.42727,-0.0124 3.175,4.29895 3.175,7.67292 0,7.82849 -0.93531,16.33775 0.26458,24.07708 M 90.638693,190.31102 c 1.67587,2.69795 3.35994,4.65904 6.08541,6.35 v 0.26458 c -2.56619,1.54199 -4.57253,3.31814 -5.82083,6.08542 l -7.14375,-6.08542 v -0.26458 c 3.07552,-1.50072 5.00962,-3.52928 6.87917,-6.35 m 101.335407,0 c 1.8333,2.85564 3.80895,4.84637 6.87917,6.35 -2.82205,1.97061 -4.89611,3.77481 -6.87917,6.61458 -1.51685,-2.84983 -3.44037,-4.90934 -6.35,-6.35 v -0.26458 c 2.92047,-1.47215 4.62545,-3.64067 6.35,-6.35 m -92.604157,9.525 3.881697,3.9624 1.61025,1.41314 2.33363,-2.55085 2.45533,-2.22409 -1.99734,-1.72032 -2.46274,-3.90737 -5.820827,5.02709 m 76.993747,-5.02709 c -1.26921,2.68896 -2.49635,4.1656 -5.29167,5.29167 l 4.18703,3.70152 1.5539,1.28852 2.35003,-2.36908 2.31193,-2.30214 -1.89812,-1.71132 -3.2131,-3.89917 m -71.4375,3.175 2.38125,2.38125 -2.38125,2.64584 h -0.52917 l -2.38125,-2.38125 v -0.26459 l 2.91042,-2.38125 m 71.96666,0 2.38125,2.38125 v 0.26459 l -2.38125,2.38125 -2.64583,-2.38125 v -0.26459 l 2.11667,-2.38125 h 0.52916 m -62.33742,1.64254 c -1.39753,0.93636 -1.48616,4.00499 -1.81769,5.50121 -0.30083,1.35599 -0.80909,2.83263 -0.55721,4.23334 0.34766,1.93172 1.91426,3.69887 2.9763,5.29166 2.75749,4.13676 4.4667,7.91078 9.61311,9.00245 1.56554,0.33205 4.82361,1.64253 6.29549,0.7112 1.5113,-0.9562 1.40256,-4.94295 1.62349,-6.53865 0.68738,-4.96596 -1.94813,-7.92586 -4.62968,-11.90625 -1.06072,-1.57427 -2.07592,-3.70152 -3.72534,-4.74133 -1.16998,-0.73739 -2.73023,-0.85037 -4.06188,-1.09934 -1.45309,-0.27147 -4.37727,-1.3515 -5.71659,-0.45429 m 51.65275,-0.19924 c -2.32648,-0.41698 -7.933,0.66252 -9.69618,2.24685 -1.87378,1.6838 -3.11282,4.28651 -4.49951,6.36402 -1.18559,1.77615 -2.91941,3.70946 -3.43667,5.82083 -0.59266,2.41962 0.36036,6.04229 0.86413,8.45556 0.20399,0.97631 0.50244,2.07195 1.6301,2.26853 1.23243,0.21511 2.66673,-0.32041 3.86239,-0.57679 1.76979,-0.37941 3.87614,-0.52493 5.45279,-1.47531 2.35982,-1.4224 3.88515,-4.84744 5.37369,-7.08449 1.15173,-1.7309 2.74453,-3.54092 3.35227,-5.55625 0.72523,-2.40506 -0.50879,-5.58138 -1.09775,-7.93115 -0.26353,-1.05172 -0.56886,-2.31007 -1.80526,-2.5318 m -43.81949,2.26087 c -1.43775,1.28164 -2.65457,0.60378 -3.96875,-0.52917 l 3.96875,0.52917 m 40.74583,-0.52917 v 0.26459 c -1.49357,0.88053 -2.62599,1.40652 -4.23333,0.52916 l 4.23333,-0.79375 m -47.09583,0.26459 4.23333,2.64583 -2.11667,3.70417 h -0.26458 l -1.85208,-6.35 m 49.47708,0 -1.85208,6.35 h -0.52917 c -1.75419,-3.44488 -0.84376,-4.5011 2.38125,-6.35 m -41.275,1.05833 7.14375,11.37708 -6.61458,2.38125 -2.91042,-12.17083 2.38125,-1.5875 m 33.3375,0 c 3.25887,3.43112 -0.12435,9.62792 -0.79375,13.75833 l -6.61458,-2.38125 c 1.58379,-3.95287 4.59634,-8.19017 7.40833,-11.37708 m -42.8625,0.26458 2.11667,6.08542 h -3.43959 l 1.32292,-6.08542 m 52.12292,0 1.32291,6.08542 -3.43958,0.26458 2.11667,-6.35 m -46.0375,3.175 2.11666,8.46667 c -3.01122,-2.80511 -4.57385,-4.75906 -2.11666,-8.46667 m 39.95208,0 c 2.19393,3.76555 0.96467,5.84888 -2.38125,8.46667 l 2.38125,-8.46667 m -39.42292,14.81667 h -0.52916 l -6.87917,-10.58333 c 3.39963,0.1053 8.5045,3.34062 8.85111,7.14242 0.11403,1.24963 -0.82762,2.43523 -1.44278,3.44091 m 46.0375,-10.58333 -6.61458,10.58333 c -4.9321,-4.18068 1.83594,-10.41479 6.61458,-10.58333 m -35.71875,5.02708 -1.05833,8.20208 -8.20208,-1.5875 c 1.85234,-4.0685 5.18186,-5.39326 9.26041,-6.61458 m 27.51667,6.61458 -8.20208,1.5875 -1.32292,-8.20208 c 4.22063,1.12659 7.50835,2.57281 9.525,6.61458 m -18.76954,1.1729 c 3.15965,-0.51594 3.97007,4.48469 0.74798,4.94824 -3.22448,0.46381 -3.93912,-4.42728 -0.74798,-4.94824 z"
       id="path1681"
       inkscape:export-filename="C:\Users\logie\Documents\koding\_GRAFIKI\dnd5eSpells\class icons\wizard.png"
       inkscape:export-xdpi="96"
       inkscape:export-ydpi="96" />
  </g>
</svg>
