<?xml version="1.0" encoding="UTF-8" standalone="no"?>
<svg
   xmlns:dc="http://purl.org/dc/elements/1.1/"
   xmlns:cc="http://creativecommons.org/ns#"
   xmlns:rdf="http://www.w3.org/1999/02/22-rdf-syntax-ns#"
   xmlns:svg="http://www.w3.org/2000/svg"
   xmlns="http://www.w3.org/2000/svg"
   xmlns:sodipodi="http://sodipodi.sourceforge.net/DTD/sodipodi-0.dtd"
   xmlns:inkscape="http://www.inkscape.org/namespaces/inkscape"
   width="210mm"
   height="297mm"
   viewBox="0 0 210 297"
   version="1.1"
   id="svg8"
   inkscape:version="1.0.2-2 (e86c870879, 2021-01-15)"
   sodipodi:docname="abjuration.svg">
  <defs
     id="defs2" />
  <sodipodi:namedview
     id="base"
     pagecolor="#ffffff"
     bordercolor="#666666"
     borderopacity="1.0"
     inkscape:pageopacity="0.0"
     inkscape:pageshadow="2"
     inkscape:zoom="0.98994949"
     inkscape:cx="562.05196"
     inkscape:cy="452.7968"
     inkscape:document-units="mm"
     inkscape:current-layer="layer1"
     inkscape:document-rotation="0"
     showgrid="false"
     inkscape:window-width="3736"
     inkscape:window-height="2126"
     inkscape:window-x="93"
     inkscape:window-y="-11"
     inkscape:window-maximized="1" />
  <metadata
     id="metadata5">
    <rdf:RDF>
      <cc:Work
         rdf:about="">
        <dc:format>image/svg+xml</dc:format>
        <dc:type
           rdf:resource="http://purl.org/dc/dcmitype/StillImage" />
        <dc:title></dc:title>
      </cc:Work>
    </rdf:RDF>
  </metadata>
  <g
     inkscape:label="Layer 1"
     inkscape:groupmode="layer"
     id="layer1">
    <path
       style="fill:#000000;stroke-width:0.264583"
       d="M 109.52434,233.77022 C 97.137857,228.1234 85.340947,218.29365 75.513647,205.43086 60.443907,185.70635 48.486767,156.00075 43.272767,125.3336 l -0.91255,-5.36731 V 81.736077 43.505865 h 69.982303 69.98229 v 38.307602 38.307593 l -0.64996,3.95959 c -3.46009,21.07921 -10.44786,42.76539 -19.45375,60.37372 -11.73699,22.94818 -26.52808,38.90527 -44.58692,48.10178 -5.43468,2.76762 -4.88317,2.68506 -8.10984,1.21407 z m 6.87541,-3.21896 c 8.97972,-4.49054 18.32106,-11.86031 25.74053,-20.30777 17.30901,-19.70723 29.67368,-47.72872 36.7981,-83.39388 l 0.87207,-4.36563 0.0717,-38.298428 0.0717,-38.298437 H 112.34771 44.741467 l 6e-5,37.240104 c 6e-5,41.517491 -0.14756,37.749671 1.86846,47.691141 3.80437,18.76026 10.3333,37.79775 18.13114,52.86797 10.70164,20.68214 23.83638,35.4661 39.863603,44.86895 2.69416,1.58061 7.2602,3.84836 7.7673,3.85768 0.16175,0.003 1.97423,-0.8348 4.02772,-1.8617 z m -8.15828,-4.82515 C 95.040457,219.08865 84.058637,208.98695 74.528717,194.71523 62.563547,176.79655 53.091887,151.70261 48.718127,126.33339 l -0.79604,-4.61727 -0.006,-35.070224 c -0.003,-19.288632 -0.004,-35.219068 -0.003,-35.400969 0.002,-0.26367 13.06597,-0.330729 64.428903,-0.330729 51.36292,0 64.42661,0.06706 64.42888,0.330729 0.002,0.181901 2.7e-4,16.140517 -0.003,35.463589 l -0.006,35.132854 -0.78712,4.60562 c -1.8768,10.98164 -5.1787,23.53172 -8.95408,34.03335 -10.46309,29.10415 -25.45649,50.02503 -44.27858,61.78363 -2.51031,1.56824 -9.87574,5.39221 -10.38471,5.3915 -0.15427,-2.1e-4 -2.00689,-0.86843 -4.11695,-1.92936 z m 3.34642,-2.23744 c -0.0887,-1.41883 -0.23845,-3.91914 -0.3327,-5.55625 l -0.17138,-2.97656 h -8.58053 c -4.829223,0 -8.518053,0.10111 -8.437603,0.23128 0.25288,0.40916 4.96571,3.87686 7.713743,5.67576 2.83926,1.85864 8.9968,5.19265 9.60499,5.20066 0.29629,0.004 0.33451,-0.47977 0.20348,-2.57489 z m 4.52975,1.28215 c 3.72395,-1.87657 7.91832,-4.48662 11.33947,-7.05623 1.64261,-1.23376 3.05928,-2.36086 3.14815,-2.50465 0.1055,-0.1707 -2.80652,-0.23722 -8.38912,-0.19162 l -8.55071,0.0698 -0.16885,2.38125 c -0.38967,5.49523 -0.46673,8.59896 -0.21351,8.59896 0.14282,0 1.41838,-0.58389 2.83457,-1.29754 z m -5.34726,-12.39465 c -0.88428,-7.56232 -2.57978,-16.97647 -4.50846,-25.03297 -1.22771,-5.12841 -3.01698,-11.62096 -3.27321,-11.87719 -0.11105,-0.11105 -1.65495,-0.55673 -3.430893,-0.9904 -16.83811,-4.11171 -30.46447,-15.91296 -36.96693,-32.01558 -1.7008,-4.21185 -3.13482,-9.81909 -3.45094,-13.49375 -0.0688,-0.80037 -0.18577,-1.83608 -0.25982,-2.30157 -0.3451,-2.16937 -0.0174,-10.1628 0.54021,-13.17656 1.40442,-7.59073 4.16806,-14.618649 8.10234,-20.604209 l 1.36939,-2.08338 -0.58768,-1.22391 c -1.90707,-3.971665 -11.95366,-22.88683 -12.41701,-23.378053 -0.1005,-0.106551 -1.69984,1.326753 -3.55408,3.185117 l -3.37135,3.378849 0.0737,25.522167 0.0737,25.522169 0.73593,3.70417 c 4.26897,21.48705 10.44524,39.68369 18.73385,55.1941 5.95287,11.13954 12.03479,19.483 19.98913,27.42204 l 3.77758,3.77032 h 9.301243 9.30124 z m -27.119043,-9.9043 c 0.13962,-0.48261 0.50892,-1.82997 0.82067,-2.99414 0.31175,-1.16416 0.72726,-2.35152 0.92335,-2.63856 0.33012,-0.48323 0.35653,-0.45248 0.35653,0.415 0,0.51529 -0.18571,1.56224 -0.41268,2.32655 -0.22698,0.76431 -0.37581,1.4808 -0.33073,1.5922 0.0451,0.1114 1.80836,-0.77416 3.91841,-1.9679 4.0575,-2.29549 5.54616,-2.90432 5.01007,-2.04904 -0.21922,0.34975 -9.03593,5.55875 -10.34111,6.10964 -0.1091,0.046 -0.0841,-0.31114 0.0555,-0.79375 z m -2.7607,-4.62561 c 0.10288,-0.41238 0.56875,-2.119 1.03528,-3.79248 0.46653,-1.67349 0.77408,-3.12337 0.68346,-3.22195 -0.0906,-0.0986 -1.71259,-0.61776 -3.60437,-1.15372 -1.89177,-0.53596 -3.52162,-1.05062 -3.62188,-1.14368 -0.10027,-0.0931 2.20065,-1.51952 5.11316,-3.16992 2.91251,-1.6504 5.32853,-2.96009 5.36894,-2.91042 0.0404,0.0497 -0.38359,1.75292 -0.94222,3.78499 -0.55864,2.03208 -0.9281,3.77602 -0.82102,3.87543 0.10708,0.0994 1.85509,0.64903 3.88446,1.22138 l 3.68977,1.04064 -5.27727,2.99133 c -2.9025,1.64524 -5.37134,3.04462 -5.48631,3.10975 -0.11498,0.0651 -0.12487,-0.21898 -0.022,-0.63135 z m 4.55086,-2.98607 c 4.31895,-2.40856 4.23131,-2.16899 1.11216,-3.04011 -1.52707,-0.42649 -2.77465,-0.64873 -2.8912,-0.51503 -0.21406,0.24558 -1.35015,4.31069 -1.35015,4.83107 0,0.45427 0.0991,0.41385 3.12919,-1.27593 z m -1.6714,-7.695 c 0.40052,-1.46039 0.68285,-2.70001 0.6274,-2.75471 -0.1317,-0.12991 -6.84237,3.64179 -6.84538,3.84741 -0.002,0.14425 4.50324,1.47823 5.19112,1.53702 0.16425,0.014 0.62634,-1.16933 1.02686,-2.62972 z m -8.86613,0.6448 c 0,-0.11136 0.25346,-1.14179 0.56324,-2.28986 0.31722,-1.17563 0.46168,-2.17692 0.33073,-2.29238 -0.12788,-0.11276 -1.2196,-0.47938 -2.42605,-0.81473 l -2.19353,-0.60971 5.07087,-2.8706 c 2.78897,-1.57883 5.32057,-2.8706 5.62576,-2.8706 h 0.55491 l -0.55665,0.55664 c -0.30615,0.30616 -2.3184,1.546 -4.47167,2.7552 l -3.91504,2.19856 1.03945,0.27285 c 0.57169,0.15007 1.36686,0.35188 1.76705,0.44848 0.8385,0.2024 0.88224,0.51567 0.32739,2.34471 -0.21697,0.71521 -0.35385,1.34103 -0.30417,1.39071 0.0497,0.0497 1.87884,-0.92246 4.06482,-2.16029 3.72266,-2.108 5.67242,-2.85476 4.84238,-1.85462 -0.18075,0.21779 -2.48013,1.61678 -5.10971,3.10885 -5.36114,3.04201 -5.20978,2.96395 -5.20978,2.68679 z m -3.96875,-6.9243 c 0,-0.40681 0.38668,-0.65908 5.14052,-3.35377 4.19999,-2.38075 5.63321,-2.96703 5.37745,-2.19975 -0.12603,0.37807 -8.93192,5.41632 -9.88462,5.65543 -0.34834,0.0874 -0.63335,0.0416 -0.63335,-0.10191 z m -0.51311,-1.53563 c 0.18998,-0.22892 0.78978,-0.6429 1.33288,-0.91997 0.92289,-0.47083 1.04082,-0.67553 1.80364,-3.13088 0.82359,-2.65097 0.93906,-3.20585 0.66714,-3.20585 -0.082,0 -1.44307,0.72467 -3.02469,1.61037 -2.76502,1.54841 -4.07144,1.94908 -3.35696,1.02954 0.50157,-0.64551 9.32284,-5.55033 9.98222,-5.55033 0.56693,0 0.57528,0.0265 0.15491,0.49097 -0.24438,0.27004 -0.84386,0.70613 -1.33217,0.96911 -0.80208,0.43195 -0.96758,0.73983 -1.71335,3.18729 -0.45403,1.49003 -0.82551,2.83308 -0.82551,2.98455 0,0.15147 1.22039,-0.42351 2.71198,-1.27774 3.01137,-1.72459 4.28057,-2.195 4.00835,-1.48563 -0.21934,0.5716 -9.32391,5.70661 -10.12616,5.7112 -0.54104,0.003 -0.58002,-0.0539 -0.28228,-0.41263 z m -2.3973,-8.00551 c -1.38245,-0.38852 -2.7413,-0.84105 -3.01966,-1.00562 -1.08161,-0.63945 0.48769,-0.63291 2.83098,0.0118 2.68577,0.73893 2.47146,0.88165 3.24342,-2.15996 0.26776,-1.05503 0.60791,-1.91823 0.75587,-1.91823 0.68678,0 5.361,1.44098 5.70494,1.75874 0.33176,0.3065 0.25574,0.35763 -0.52917,0.3559 -0.50413,-0.001 -1.6905,-0.23834 -2.63638,-0.52715 -0.94589,-0.28882 -1.80577,-0.52604 -1.91084,-0.52715 -0.10508,-10e-4 -0.38191,0.68259 -0.61518,1.51933 -0.73048,2.62025 -0.94909,3.2418 -1.13252,3.21994 -0.0979,-0.0117 -1.30902,-0.33909 -2.69146,-0.7276 z m 44.964343,39.11339 c 0.88949,-8.21879 3.27816,-20.22757 6.11267,-30.73078 0.57525,-2.13157 1.0459,-3.93435 1.0459,-4.00618 0,-0.12686 -1.31175,-0.0575 -5.68854,0.30094 -1.16416,0.0953 -3.72401,0.0298 -5.68854,-0.14573 -1.96453,-0.17549 -3.73459,-0.32451 -3.93346,-0.33116 -0.2501,-0.008 -0.30943,0.17147 -0.19242,0.58322 3.05673,10.75632 6.11893,25.49009 7.02494,33.80053 0.55105,5.05443 0.81811,5.16154 1.31945,0.52916 z m 23.54239,-0.7276 c 12.33668,-12.42041 21.8704,-28.43964 29.56401,-49.67552 3.85201,-10.63231 7.37563,-24.1456 9.20788,-35.31271 l 0.67138,-4.09188 V 96.824891 72.999554 l -3.53484,-3.527563 -3.53484,-3.52756 -0.93135,1.679154 c -1.77767,3.204972 -7.0052,13.083231 -9.57719,18.097621 l -2.58583,5.041385 1.49633,2.29557 c 6.70963,10.293479 9.76575,23.277649 8.33903,35.429059 -1.64892,14.04398 -8.59543,26.8108 -19.30465,35.47951 -6.33095,5.12468 -14.49552,9.09761 -22.12018,10.76381 -1.25945,0.27523 -2.3862,0.59813 -2.50389,0.71755 -0.59649,0.60528 -4.30129,15.87009 -5.79232,23.86593 -0.6711,3.59889 -2.12736,13.40413 -2.12736,14.32389 0,0.16484 3.39421,0.25962 9.29736,0.25962 h 9.29736 z m 0.61982,-11.63971 c -2.79899,-1.70096 -5.00165,-3.17011 -4.89479,-3.26476 0.10685,-0.0947 1.80162,-0.56253 3.76615,-1.03974 1.96454,-0.4772 3.60423,-0.89259 3.64377,-0.9231 0.0395,-0.0305 -0.3467,-1.76016 -0.85829,-3.84369 -0.5116,-2.08352 -0.88702,-3.83138 -0.83427,-3.88413 0.0528,-0.0528 2.45145,1.3338 5.33046,3.08121 2.879,1.74742 5.06754,3.23357 4.86342,3.30257 -0.20412,0.069 -1.85941,0.50611 -3.67842,0.97138 -1.81901,0.46526 -3.40279,0.93022 -3.51952,1.03324 -0.16771,0.14803 0.83102,4.74974 1.56501,7.21089 0.076,0.25467 0.0408,0.45982 -0.0782,0.45591 -0.11895,-0.004 -2.50635,-1.39881 -5.30534,-3.09978 z m 4.05978,0.79179 c -0.0764,-0.25466 -0.39669,-1.50482 -0.71177,-2.77812 -0.31508,-1.27331 -0.70708,-2.31217 -0.87111,-2.30858 -0.70646,0.0154 -4.96431,1.21176 -5.01022,1.4077 -0.0486,0.20734 6.07319,4.0797 6.51574,4.12156 0.11895,0.0112 0.15376,-0.1879 0.0774,-0.44256 z m 2.30168,-7.02198 c 1.28191,-0.32603 2.30681,-0.71004 2.27758,-0.85337 -0.0573,-0.28103 -6.37735,-4.13598 -6.53019,-3.98314 -0.082,0.082 0.17768,1.21247 1.02206,4.45016 0.14232,0.5457 0.403,0.98925 0.5793,0.98566 0.17629,-0.004 1.36936,-0.27328 2.65125,-0.59931 z m 0.19038,-4.16138 c -2.39693,-1.45238 -4.59628,-2.87891 -4.88744,-3.17007 l -0.52938,-0.52938 h 0.55474 c 0.65722,0 9.94053,5.53888 10.08845,6.01927 0.23723,0.77045 -1.12211,0.16708 -5.22637,-2.31982 z m 5.34492,1.42218 c -0.13904,-0.27028 -0.46294,-1.38439 -0.71978,-2.4758 -0.25683,-1.0914 -0.55388,-2.08053 -0.66009,-2.19806 -0.10621,-0.11753 -1.17951,0.0382 -2.38511,0.34598 -1.2056,0.30781 -2.27763,0.46351 -2.38228,0.34598 -0.30748,-0.3453 -1.32265,-4.7463 -1.31347,-5.69422 0.008,-0.79317 0.0402,-0.8275 0.37103,-0.39123 0.19943,0.26303 0.62569,1.54295 0.94723,2.84427 0.32155,1.30132 0.6606,2.36399 0.75345,2.3615 0.0929,-0.002 1.0618,-0.23858 2.15321,-0.52463 1.0914,-0.28606 2.11957,-0.52214 2.28481,-0.52464 0.43451,-0.007 1.82997,5.77611 1.47865,6.12742 -0.19009,0.19009 -0.35282,0.1233 -0.52765,-0.21657 z m -0.23485,-7.09529 c 0.26809,-0.20313 0.98246,-0.45087 1.5875,-0.55054 1.75106,-0.28846 1.9306,-0.49179 0.97082,-1.09948 -0.83212,-0.52686 -0.86134,-0.52726 -2.95517,-0.0397 -1.4121,0.32881 -2.26196,0.41002 -2.55786,0.24442 -0.38108,-0.21327 -0.33908,-0.28755 0.30001,-0.53053 0.40873,-0.1554 1.21504,-0.35801 1.7918,-0.45024 0.57677,-0.0922 1.09676,-0.24551 1.15555,-0.34063 0.0588,-0.0951 -0.96381,-0.82301 -2.27245,-1.61753 -1.30863,-0.79453 -2.56845,-1.65356 -2.79959,-1.90897 -0.38868,-0.42949 -0.37627,-0.46438 0.1651,-0.46438 0.59199,0 10.44478,5.80882 10.22522,6.02839 -0.24072,0.24072 -4.27615,1.09731 -5.17231,1.09791 -0.84881,5.3e-4 -0.88539,-0.0302 -0.43862,-0.36871 z m 3.26246,-4.04561 c -0.0648,-0.10914 -0.27057,-0.88848 -0.45729,-1.73187 -0.18672,-0.84339 -0.4168,-1.58121 -0.51129,-1.63961 -0.0945,-0.0584 -1.05659,0.1236 -2.13801,0.40442 -1.08141,0.28083 -2.3234,0.50885 -2.75996,0.50671 -0.76544,-0.004 -0.77487,-0.0181 -0.26458,-0.40383 0.29104,-0.21997 0.82682,-0.46532 1.19062,-0.54521 0.36381,-0.0799 1.19724,-0.29031 1.85209,-0.46759 l 1.19062,-0.32234 -1.91823,-1.23897 c -1.98162,-1.27992 -2.46455,-1.91881 -1.21296,-1.60468 0.56331,0.14138 6.0489,3.33562 9.61348,5.59788 0.6571,0.41703 0.6475,0.4237 -1.4552,1.01153 -2.31431,0.64699 -2.95027,0.73511 -3.12929,0.43356 z m 2.46068,-1.09495 c 0.6148,-0.1713 0.56718,-0.23261 -0.7884,-1.01526 -0.7935,-0.45812 -1.47167,-0.804 -1.50704,-0.76863 -0.0354,0.0354 0.0571,0.50411 0.20553,1.04163 0.28405,1.02876 0.62589,1.15017 2.08991,0.74226 z m -1.96852,-3.22125 c -4.7584,-2.89561 -5.6664,-3.54191 -5.37937,-3.82894 0.20837,-0.20837 1.65811,0.41744 3.22213,1.39092 1.28118,0.79742 1.29157,0.79902 2.7756,0.42515 0.81928,-0.2064 1.62732,-0.4215 1.79565,-0.47799 0.22288,-0.0748 0.18297,-0.59288 -0.14686,-1.90642 -0.45231,-1.80128 -0.45527,-1.80514 -2.19685,-2.86204 -0.95916,-0.58209 -1.8861,-1.2823 -2.05985,-1.55604 -0.2892,-0.45561 -0.25237,-0.48185 0.43559,-0.31027 1.11494,0.27808 10.14005,5.80836 9.78634,5.99674 -0.16698,0.0889 -1.13702,0.37564 -2.15567,0.63714 -1.01865,0.2615 -1.93885,0.54935 -2.04489,0.63967 -0.10605,0.0903 0.0452,1.16052 0.336,2.37825 0.29084,1.21772 0.4953,2.24754 0.45435,2.28849 -0.041,0.041 -2.21093,-1.22564 -4.82217,-2.81466 z m 3.46127,0.34745 c -0.0757,-0.25466 -0.21565,-0.79044 -0.3111,-1.19063 -0.19388,-0.8129 -0.33654,-0.84711 -1.81751,-0.43594 l -1.03988,0.28872 1.43675,0.89446 c 1.63982,1.02087 1.925,1.09389 1.73174,0.44339 z m 2.41166,-3.73586 c 0.20508,-0.11459 -0.21742,-0.50647 -1.14279,-1.05996 -0.8075,-0.48298 -1.5273,-0.81903 -1.59955,-0.74678 -0.0722,0.0722 0.003,0.63143 0.16786,1.24262 0.29681,1.10228 0.3071,1.10977 1.27416,0.92858 0.53621,-0.10046 1.12136,-0.26447 1.30032,-0.36446 z m -48.22681,-0.72079 c -0.77271,-2.41477 -1.45397,-4.43955 -1.51393,-4.4995 -0.0599,-0.0599 -1.08432,1.78886 -2.27639,4.10848 l -2.16739,4.21747 1.13269,0.1462 c 0.62298,0.0804 1.43035,0.19111 1.79415,0.24599 0.3638,0.0549 1.51068,0.11601 2.54863,0.13583 l 1.88716,0.036 z m 7.11866,4.22225 c 0.67515,-0.0925 1.22381,-0.3009 1.21924,-0.46302 -0.005,-0.16213 -0.69964,-1.72352 -1.5446,-3.46977 l -1.5363,-3.175 -1.10123,3.36217 c -0.60567,1.84919 -1.10122,3.4863 -1.10122,3.63802 0,0.30949 2.17169,0.36698 4.06411,0.1076 z m -3.68834,-3.9086 c 0.66645,-2.09675 1.21173,-4.00373 1.21173,-4.23774 0,-0.56051 -2.85129,-6.23749 -3.13281,-6.23749 -0.11989,0 -0.74076,0.99795 -1.37973,2.21766 l -1.16175,2.21766 1.55978,4.92609 c 0.85788,2.70935 1.58932,4.92609 1.62542,4.92609 0.0361,0 0.61091,-1.71552 1.27736,-3.81227 z m 8.46537,-0.61209 1.12486,-3.69309 -0.60567,-0.75958 c -0.33311,-0.41777 -0.6517,-0.70471 -0.70797,-0.63763 -0.10498,0.12515 -1.52257,8.65216 -1.5136,9.10455 0.017,0.85895 0.73048,-0.82339 1.70238,-4.01425 z m -20.51201,0.96322 c -0.45208,-1.51612 -0.88034,-2.85353 -0.95168,-2.97203 -0.0713,-0.1185 -0.63244,0.47681 -1.246873,1.32292 -1.68572,2.32133 -2.09298,2.99438 -1.91786,3.1695 0.16603,0.16603 4.757583,1.38014 4.872723,1.28845 0.0361,-0.0288 -0.30423,-1.29273 -0.75631,-2.80884 z m 18.83855,-1.74461 c 0.42296,-2.44835 0.76508,-4.7492 0.76025,-5.113 -0.0104,-0.78205 -2.47508,-4.23333 -3.02319,-4.23333 -0.24969,0 -0.69581,1.01991 -1.31817,3.01354 -0.5174,1.65745 -0.94074,3.13991 -0.94074,3.29436 0,0.41585 3.50316,7.73963 3.63771,7.60508 0.0633,-0.0633 0.46117,-2.1183 0.88414,-4.56665 z m 5.54559,3.72209 c 0.7203,-0.21391 1.30964,-0.4987 1.30964,-0.63287 0,-0.32254 -2.98383,-4.51283 -3.11798,-4.37868 -0.0572,0.0572 -0.50325,1.37588 -0.99129,2.93046 l -0.88734,2.82651 1.18866,-0.17825 c 0.65376,-0.098 1.778,-0.35326 2.49831,-0.56717 z m -19.86548,-4.13896 2.2405,-4.33934 -0.68794,-2.22892 c -0.43006,-1.39338 -0.8399,-2.25934 -1.09331,-2.31008 -0.2574,-0.0515 -1.10726,0.90194 -2.32832,2.6122 l -1.92296,2.69337 0.3217,2.67947 c 0.37686,3.13891 0.84738,5.48216 1.07145,5.33597 0.0871,-0.0568 1.1666,-2.05604 2.39888,-4.44267 z m -10.310293,-1.70601 v -4.6828 l -3.24115,3.20426 c -1.78263,1.76235 -3.28633,3.30406 -3.34155,3.42603 -0.11551,0.25512 5.4219,2.72727 6.11968,2.7321 0.42365,0.003 0.46302,-0.39495 0.46302,-4.67959 z m 2.62378,2.24381 c 0.93376,-1.32871 1.697743,-2.54572 1.697743,-2.70447 0,-0.15875 -0.445783,-1.70404 -0.990623,-3.43399 l -0.99063,-3.14536 -0.76147,0.76817 -0.76148,0.76818 -0.18422,5.09323 c -0.10804,2.98705 -0.0856,5.08844 0.0544,5.08164 0.13122,-0.006 1.00256,-1.0987 1.93632,-2.4274 z m 28.946243,-6.6949 c -0.54317,-0.64981 -1.06669,-1.09294 -1.16338,-0.98473 -0.0967,0.10821 -0.53716,1.28984 -0.97883,2.62586 l -0.80303,2.42911 0.82491,1.14276 c 0.4537,0.62852 1.3057,1.7976 1.89334,2.59797 l 1.06843,1.45521 0.0731,-4.04236 0.0731,-4.04236 z m 4.34028,8.32038 c 1.13157,-0.44744 2.13907,-0.89392 2.23888,-0.99219 0.0998,-0.0983 -0.99636,-1.42884 -2.43593,-2.9568 l -2.61739,-2.77813 -0.0115,3.77031 c -0.01,3.1506 0.0526,3.77032 0.37851,3.77032 0.2145,0 1.31583,-0.36608 2.4474,-0.81351 z m 2.45957,-6.95651 c -0.41236,-2.74259 -0.85013,-5.0736 -0.97283,-5.18002 -1.46411,-1.26996 -3.6307,-2.6785 -3.93839,-2.56043 -0.30939,0.11873 -0.38574,0.80108 -0.38574,3.44778 v 3.29975 l 2.94728,3.06579 c 1.621,1.68619 2.9815,3.03156 3.02335,2.98972 0.0418,-0.0418 -0.26131,-2.32001 -0.67367,-5.06259 z m 6.14627,2.4218 c 0.83675,-0.56183 1.52136,-1.06586 1.52136,-1.12009 0,-0.16068 -7.16482,-5.43794 -7.38298,-5.43794 -0.17811,0 0.88537,8.07587 1.17853,8.9495 0.12878,0.38375 1.88723,-0.51422 4.68309,-2.39147 z m -44.575073,-7.74866 c -0.0607,-1.97109 -0.14491,-2.37629 -0.48875,-2.35244 -0.22846,0.0159 -1.54791,0.86524 -2.93209,1.88754 l -2.51671,1.85873 -0.56305,3.00725 c -0.30967,1.65399 -0.6411,3.54303 -0.73649,4.19788 l -0.17345,1.19062 3.74196,-3.70416 3.74195,-3.70417 z m -8.14316,9.31536 c 0,-0.0425 0.29495,-1.6129 0.65545,-3.4897 0.36049,-1.87679 0.61035,-3.45744 0.55523,-3.51255 -0.11056,-0.11056 -5.97318,4.1422 -5.97318,4.33296 0,0.21164 4.09023,2.74657 4.43177,2.7466 0.1819,2e-5 0.33073,-0.0348 0.33073,-0.0773 z m 13.512753,-6.32236 c -0.32562,-2.54604 -0.50729,-3.26922 -0.83708,-3.33217 -0.23166,-0.0442 -0.581773,0.11307 -0.778013,0.34952 -0.30481,0.36728 -0.21174,0.87067 0.638743,3.45474 0.54755,1.66366 1.0848,2.96967 1.19388,2.90225 0.10909,-0.0674 0.0112,-1.58587 -0.21753,-3.37434 z m 14.92833,1.30648 c 0.37556,-1.20055 0.73774,-2.36529 0.80483,-2.58831 0.10367,-0.3446 -0.16604,-0.38981 -1.79581,-0.30099 -1.05479,0.0575 -1.9473,0.13054 -1.98335,0.16236 -0.0757,0.0668 2.11507,4.90975 2.22106,4.90975 0.0387,0 0.3777,-0.98226 0.75327,-2.18281 z m 8.46717,-0.42689 0.72603,-2.21282 -0.95335,-0.95336 c -0.61121,-0.6112 -1.04422,-0.86156 -1.20653,-0.69759 -0.13924,0.14067 -0.40055,1.27918 -0.58068,2.53003 -0.31831,2.21042 -0.31041,2.29825 0.2813,3.12923 0.33484,0.47024 0.69844,0.75651 0.80799,0.63616 0.10956,-0.12035 0.52592,-1.2146 0.92524,-2.43165 z m 16.76221,-1.87898 c -1.47978,-4.42907 -1.0578,-3.92901 -5.17019,-6.12688 -1.52095,-0.81287 -2.25122,-1.07526 -2.44829,-0.87969 -0.19805,0.19654 -0.18869,0.93035 0.0318,2.48916 l 0.3126,2.21046 4.22816,3.13323 c 2.32549,1.72328 4.25982,3.13324 4.29851,3.13324 0.0387,0 -0.52496,-1.78179 -1.25255,-3.95952 z M 82.858437,159.4595 c 0.7611,-2.29195 1.44192,-4.32477 1.51295,-4.51739 0.071,-0.19261 -1.8191,0.62536 -4.20029,1.8177 l -4.32943,2.16791 1.0525,0.91354 c 1.72144,1.49415 4.45833,3.78543 4.52161,3.78543 0.0324,0 0.68157,-1.87523 1.44266,-4.16719 z m 3.02937,1.76236 c 1.98919,-1.46822 3.30832,-2.6275 3.38698,-2.97656 0.68317,-3.03139 1.04098,-5.77097 0.78692,-6.02503 -0.20565,-0.20565 -0.90627,0.0381 -2.48211,0.86359 l -2.19559,1.15012 -1.40619,4.23334 c -0.77341,2.32833 -1.47257,4.44169 -1.55368,4.69635 -0.0811,0.25466 -0.0681,0.46302 0.029,0.46302 0.0971,0 1.64267,-1.08217 3.43465,-2.40483 z m 59.755953,0.55275 c 0.94781,-0.80037 1.6981,-1.55291 1.6673,-1.67232 -0.0639,-0.24795 -6.08108,-3.61611 -6.21982,-3.48161 -0.05,0.0484 0.42039,1.63716 1.04526,3.53049 0.7991,2.42126 1.23221,3.38846 1.46004,3.26053 0.17816,-0.10003 1.09941,-0.83673 2.04722,-1.63709 z m -41.30017,-1.49644 0.99691,-1.3865 -0.99691,-0.28064 c -0.5483,-0.15435 -1.42262,-0.35103 -1.94293,-0.43705 l -0.94601,-0.1564 0.33026,2.47383 c 0.18165,1.3606 0.34324,2.53335 0.35909,2.60612 0.0304,0.13953 0.56258,-0.5426 2.19959,-2.81936 z m 5.34863,0.97607 c 0.36626,-0.72277 0.66592,-1.42515 0.66592,-1.56086 0,-0.22842 -2.30762,-0.55004 -2.5081,-0.34956 -0.10924,0.10924 0.92714,3.22454 1.07272,3.22454 0.057,0 0.40321,-0.59136 0.76946,-1.31412 z m 12.043,-0.10416 c 0,-0.19797 0.0769,-0.921 0.1709,-1.60673 l 0.17088,-1.24678 -1.03078,0.18361 c -0.56693,0.10098 -1.13434,0.27868 -1.26091,0.39487 -0.12657,0.1162 0.1615,0.7566 0.64016,1.42312 0.8817,1.22774 1.30975,1.50616 1.30975,0.85191 z m 6.43846,-2.37015 c -0.0925,-1.40886 -0.2451,-2.56157 -0.339,-2.56157 -0.0939,0 -0.43092,0.80028 -0.74894,1.77841 l -0.5782,1.7784 0.8369,0.86347 c 0.4603,0.4749 0.87304,0.82732 0.9172,0.78316 0.0442,-0.0442 0.005,-1.233 -0.088,-2.64187 z m -30.778643,0.21476 c 0.26481,-0.31907 0.26441,-0.63601 -0.002,-1.5875 -0.18294,-0.65386 -0.43632,-1.18883 -0.56293,-1.18883 -0.1266,0 -0.23019,0.71437 -0.23019,1.5875 0,1.61092 0.19857,1.90777 0.79523,1.18883 z m 48.218993,-4.50089 -2.313,-4.63497 -2.18272,-0.71083 c -1.45439,-0.47364 -2.27097,-0.62259 -2.44717,-0.44639 -0.17621,0.1762 0.0902,1.32451 0.79827,3.44129 l 1.06272,3.17686 3.49998,1.90096 c 1.925,1.04554 3.58885,1.90257 3.69746,1.90452 0.1086,0.002 -0.84339,-2.0822 -2.11554,-4.63144 z m 6.60326,0.56496 c 0.71694,-0.85606 1.20622,-1.64488 1.08729,-1.75292 -0.2185,-0.19852 -8.2488,-2.90831 -8.61857,-2.90831 -0.10985,0 0.76835,1.93332 1.95157,4.29628 l 2.15131,4.29629 1.06243,-1.18743 c 0.58434,-0.65309 1.64902,-1.88785 2.36597,-2.74391 z m -26.4155,2.94554 c 0.25271,-0.94299 0.20388,-1.03926 -0.42855,-0.84486 -0.80837,0.24848 -0.81138,0.25486 -0.4177,0.88524 0.44353,0.71021 0.64771,0.70047 0.84625,-0.0404 z m -45.516573,-2.22511 4.5914,-2.29126 0.7276,-2.2342 c 0.53992,-1.65792 0.65065,-2.31115 0.42927,-2.53252 -0.22138,-0.22138 -1.09417,-0.0266 -3.38381,0.75514 l -3.08548,1.05347 -2.04004,3.77031 c -1.12202,2.07367 -1.99285,3.77031 -1.93518,3.77031 0.0577,0 2.17098,-1.03106 4.69624,-2.29125 z m 12.16944,0.58658 c 0.97014,-0.71929 1.76155,-1.37414 1.75868,-1.45521 -0.0107,-0.30138 -2.99432,-1.88289 -3.17061,-1.6806 -0.10079,0.11565 -0.3361,1.10324 -0.52291,2.19465 -0.18682,1.0914 -0.40264,2.14981 -0.4796,2.35202 -0.17714,0.46536 0.11084,0.29708 2.41444,-1.41086 z m 25.311813,1.04951 c 2.38196,-0.36717 8.54987,-2.21412 8.99442,-2.69333 0.11398,-0.12286 0.88823,-2.12838 1.72056,-4.45672 3.24767,-9.08494 8.77368,-22.64122 14.07002,-34.51624 l 2.76784,-6.20584 -1.12079,-2.39312 c -3.06744,-6.54965 -8.71307,-12.385209 -15.50058,-16.022039 -4.22881,-2.26586 -9.0676,-3.621555 -14.67197,-4.110685 -2.69754,-0.23543 -8.33162,0.48906 -11.68828,1.502995 -3.247233,0.98089 -7.776903,3.19639 -10.394233,5.08392 -2.57043,1.8537 -6.15352,5.35155 -7.90106,7.713099 -1.33927,1.80983 -4.12813,6.60504 -4.47131,7.68805 -0.11867,0.37447 0.49585,2.02547 1.96959,5.29166 5.07938,11.25724 10.74171,25.07868 14.41016,35.17445 l 1.9228,5.29167 2.868813,1.01192 c 1.57785,0.55656 3.94038,1.22809 5.25006,1.4923 2.99965,0.60511 8.37027,0.67258 11.77396,0.14791 z m -7.01145,-5.50112 c -2.39349,-0.98675 -3.98099,-2.47369 -5.00894,-4.69163 -0.81162,-1.75119 -0.87914,-3.63877 -0.18457,-5.15938 0.53599,-1.17342 2.27107,-2.88249 4.03884,-3.97829 2.59375,-1.6078 3.34334,-2.9454 3.92388,-7.00192 0.2703,-1.88875 0.25556,-2.67273 -0.0921,-4.89479 -0.61075,-3.9042 -0.8599,-4.63021 -1.58894,-4.63021 -2.00815,0 -7.05639,-1.85638 -9.09039,-3.3428 -3.098333,-2.26421 -3.949983,-3.62516 -4.323033,-6.90824 -0.38619,-3.39872 -0.73707,-4.51337 -1.73485,-5.51115 -1.61206,-1.61206 -4.39481,-1.81683 -6.96828,-0.51275 -3.28297,1.66361 -4.32597,5.09003 -2.37093,7.78888 0.95202,1.31423 1.99514,1.87148 3.50324,1.87148 1.48145,0 2.78864,-0.84223 3.47161,-2.23679 0.47533,-0.97058 0.48187,-1.11443 0.0989,-2.17932 -0.44071,-1.22554 -0.23147,-1.57937 0.2757,-0.46623 0.48769,1.07035 0.37558,2.98922 -0.23209,3.97244 -1.0586,1.71285 -3.88939,2.44652 -6.01418,1.55873 -2.26838,-0.94779 -3.35628,-2.78758 -3.35628,-5.67591 0,-3.11611 1.16724,-4.84752 4.22106,-6.26125 1.33633,-0.61864 1.94333,-0.73592 3.83646,-0.74128 2.5883,-0.007 4.00931,0.56 5.10751,2.03915 0.9265,1.24788 1.23757,2.3702 1.51231,5.45629 0.19481,2.18825 0.382703,2.97837 0.930573,3.91323 0.75528,1.28879 3.96618,3.98685 5.90958,4.9657 1.48502,0.74798 4.93556,2.00524 5.50335,2.00524 0.22601,0 1.32025,-0.9332 2.43162,-2.07377 2.45328,-2.51772 4.00557,-3.60004 6.78319,-4.72953 3.03443,-1.23391 4.67501,-1.19953 7.88484,0.16524 2.94498,1.25217 4.09817,1.49308 5.28001,1.10304 2.50456,-0.82658 4.43341,-4.99807 3.65233,-7.8988 -0.5677,-2.10827 -2.91082,-4.00874 -4.95985,-4.02287 -2.72636,-0.0188 -5.09653,2.79068 -4.32543,5.12714 0.39098,1.18466 1.63852,2.31219 2.84313,2.56962 0.90234,0.19284 0.86261,0.20576 -0.39938,0.1299 -1.11245,-0.0669 -1.56343,-0.23945 -2.18703,-0.83691 -2.07036,-1.98352 -1.41765,-5.86815 1.24852,-7.43063 2.25106,-1.31921 5.66599,-0.81454 7.60434,1.1238 3.06385,3.06385 2.22934,9.66956 -1.53045,12.11462 -2.04913,1.33257 -4.20689,1.15955 -8.06054,-0.64633 -2.75731,-1.29212 -3.96754,-1.34333 -6.85365,-0.29003 -2.54323,0.92816 -3.81461,1.71049 -6.5932,4.05705 l -2.16303,1.8267 0.60125,1.77411 c 0.97558,2.87868 1.29979,5.15657 1.13299,7.9606 -0.25728,4.32541 -1.03868,6.01639 -3.5902,7.7694 -1.71081,1.1754 -3.44625,2.81531 -3.89247,3.67818 -1.28656,2.48794 1.36288,6.78311 4.80055,7.78246 4.31286,1.25379 8.25454,-3.54192 5.74974,-6.9955 -0.27682,-0.38167 -1.03334,-0.96034 -1.68116,-1.28593 -0.99499,-0.50007 -1.32911,-0.55021 -2.15206,-0.32299 -0.53581,0.14795 -1.2844,0.63765 -1.66354,1.08822 -0.8639,1.0267 -1.08264,0.87563 -0.38741,-0.26757 1.43348,-2.35718 5.46884,-2.02027 6.97989,0.58275 0.91099,1.56931 1.06738,2.78136 0.57669,4.46928 -0.44984,1.54739 -1.70176,3.06261 -3.15273,3.81579 -1.06915,0.55497 -4.27484,0.72514 -5.34548,0.28376 z m -34.017803,2.22166 c 0.89677,-1.65472 1.58646,-3.05261 1.53265,-3.10643 -0.0764,-0.0764 -4.95176,1.47145 -6.75398,2.14425 -0.4581,0.17102 -0.23996,0.52384 1.63604,2.6462 0.85538,0.96772 1.64514,1.66163 1.75502,1.54202 0.10988,-0.1196 0.9335,-1.57132 1.83027,-3.22604 z m 56.247753,1.09035 c -0.10357,-0.83674 -0.21714,-1.55175 -0.25238,-1.5889 -0.12894,-0.13595 -2.25937,1.13155 -2.19759,1.30745 0.0883,0.25146 2.12815,1.76243 2.40935,1.78469 0.12591,0.01 0.14419,-0.66649 0.0406,-1.50324 z m 6.41215,-0.92604 c -0.067,-0.1819 -0.44699,-1.31392 -0.84447,-2.5156 l -0.72267,-2.18487 -0.70519,0.52497 c -0.38786,0.28873 -1.10393,0.86175 -1.59127,1.27337 l -0.88607,0.74842 2.20899,1.21267 c 2.40764,1.32173 2.72404,1.43892 2.54068,0.94104 z m -44.919783,-5.14321 c -4.39395,-11.85097 -8.77721,-22.44098 -15.09093,-36.45983 l -0.59459,-1.32023 -0.34923,1.00874 c -1.26423,3.65164 -1.7583,10.19592 -1.13374,15.01725 0.8847,6.82946 4.54854,14.27285 9.60745,19.51826 2.41933,2.50852 8.70206,7.19189 9.106,6.78795 0.0573,-0.0573 -0.63792,-2.10577 -1.54496,-4.55214 z m 38.105803,2.22328 c 9.41786,-6.66428 15.07777,-17.36953 15.08045,-28.52342 5.3e-4,-1.83225 -0.12654,-4.33256 -0.28217,-5.55625 -0.32975,-2.59265 -1.25451,-5.68803 -1.59701,-5.34552 -0.5351,0.53509 -7.23453,15.98469 -10.81858,24.94877 -2.02088,5.05444 -6.35144,16.50885 -6.35144,16.79968 0,0.27557 1.71427,-0.72795 3.96875,-2.32326 z m -44.916623,0.70543 1.36786,-0.69316 -1.02895,-0.94297 -1.02896,-0.94297 -0.45949,1.30539 c -0.48477,1.37722 -0.59252,1.96686 -0.35942,1.96686 0.0776,0 0.75663,-0.31192 1.50896,-0.69315 z m -12.33999,-0.99618 3.72986,-1.238 1.5181,-2.78497 c 0.83496,-1.53173 1.45222,-2.95668 1.37168,-3.16654 -0.17055,-0.44446 -0.43653,-0.44718 -3.00302,-0.0307 l -1.91394,0.31059 -2.54247,3.43958 c -3.73815,5.05717 -3.70643,5.01017 -3.27331,4.84988 0.21079,-0.078 2.06169,-0.69893 4.1131,-1.37983 z m 78.252813,1.09401 c -1.00888,-1.65425 -4.77042,-6.36394 -5.21548,-6.5301 -1.32212,-0.49362 -6.01707,-1.15657 -6.28602,-0.88762 -0.18844,0.18844 0.0589,0.93503 0.79461,2.39823 l 1.06823,2.12461 4.70613,1.59192 c 5.2371,1.77153 5.21468,1.7656 4.93253,1.30296 z m -77.911813,-7.71128 c -0.10532,-0.091 -9.02373,1.19249 -9.19248,1.32294 -0.12999,0.1005 1.42264,2.81883 2.67656,4.6861 l 1.03341,1.53889 2.79231,-3.72985 c 1.53577,-2.05141 2.74636,-3.76955 2.6902,-3.81808 z m 80.419923,5.23555 c 0.76893,-1.25251 1.36119,-2.31306 1.31614,-2.35678 -0.11211,-0.10881 -7.18113,-1.45269 -7.25077,-1.37844 -0.0854,0.0911 4.2391,5.99638 4.39751,6.00497 0.0765,0.004 0.76819,-1.01724 1.53712,-2.26975 z M 82.759567,148.6232 c 1.20921,-0.3938 2.19857,-0.81819 2.19857,-0.94309 0,-0.12489 -0.49991,-0.80744 -1.11091,-1.51677 -1.26565,-1.46933 -1.06816,-1.57201 -2.67357,1.38991 -0.5324,0.98227 -0.88805,1.78594 -0.79033,1.78594 0.0977,0 1.16703,-0.32219 2.37624,-0.71599 z m 59.877743,0.0457 c 0,-0.0776 -0.31322,-0.7592 -0.69605,-1.51467 l -0.69604,-1.37357 -0.75917,0.90935 c -0.41753,0.50015 -0.75916,0.98225 -0.75916,1.07134 0,0.0891 0.56555,0.35009 1.25677,0.58001 1.44499,0.48063 1.65365,0.52196 1.65365,0.32754 z m 11.49717,-5.74281 -3.69196,-3.76723 -2.24896,-0.18691 c -3.36252,-0.27945 -3.40626,-0.12085 -0.90696,3.28879 l 2.0421,2.78592 3.20274,0.58685 c 1.76151,0.32276 3.61946,0.6813 4.12878,0.79675 0.50933,0.11545 0.98009,0.22186 1.04614,0.23648 0.0661,0.0146 -1.5413,-1.66868 -3.57188,-3.74065 z m 5.11629,0.92296 c 0.81846,-1.78957 1.90737,-4.47629 1.90737,-4.70615 0,-0.0674 -2.1711,-0.1225 -4.82467,-0.1225 h -4.82468 l 3.29935,3.30729 c 1.81464,1.81901 3.37281,3.3073 3.46259,3.3073 0.0898,0 0.5308,-0.80368 0.98004,-1.78594 z m -87.786383,0.45831 c 2.11005,-0.29906 4.10296,-0.60087 4.42869,-0.67067 0.69497,-0.14892 3.63987,-3.9256 3.38393,-4.33971 -0.10404,-0.16834 -1.45596,-0.27658 -3.45465,-0.27658 h -3.28372 l -3.02307,2.84427 c -1.66268,1.56435 -3.03548,2.93584 -3.05066,3.04775 -0.0152,0.11191 0.24029,0.14391 0.56771,0.0711 0.32742,-0.0728 2.32172,-0.37708 4.43177,-0.67615 z m 76.464583,0.38305 c 0,-0.083 -0.6794,-1.09021 -1.50978,-2.23834 l -1.50978,-2.0875 -1.01672,1.60801 c -0.5592,0.8844 -0.94162,1.6833 -0.84982,1.77531 0.0918,0.092 1.13942,0.36103 2.32806,0.59782 2.73801,0.54541 2.55804,0.52116 2.55804,0.3447 z m -80.441783,-5.61135 c -2.07291,-0.0405 -3.81339,-0.0292 -3.86773,0.0252 -0.0896,0.0896 1.59318,4.46008 1.92247,4.99288 0.0763,0.12349 1.39323,-0.93849 2.92648,-2.35994 l 2.78771,-2.58447 z m 13.70204,3.79074 c 0.17633,-0.15621 -1.15879,-2.24648 -1.38752,-2.17231 -0.1439,0.0467 -0.67123,0.65507 -1.17185,1.35202 l -0.91022,1.26718 1.70102,-0.19352 c 0.93556,-0.10644 1.73142,-0.22045 1.76857,-0.25337 z m -6.5459,-6.99847 c 1.69851,-1.59409 2.42409,-2.44371 2.24502,-2.62878 -0.33063,-0.34171 -4.66724,-1.10643 -5.02709,-0.88648 -0.51592,0.31535 -7.6769,5.41126 -7.92426,5.63908 -0.14452,0.13311 1.54397,0.2315 3.97268,0.2315 h 4.22405 z m 3.81204,1.76001 c -0.39773,-1.25656 -1.16071,-2.84427 -1.36683,-2.84427 -0.11851,0 -0.98251,0.7739 -1.91998,1.71979 l -1.70451,1.71979 h 2.58988 c 2.56523,0 2.58808,-0.006 2.40144,-0.59531 z m 70.002773,-0.59531 c -0.64268,-0.65485 -1.25113,-1.19063 -1.35212,-1.19063 -0.10099,0 -0.30214,0.32742 -0.44702,0.72761 -0.14487,0.40018 -0.34785,0.93596 -0.45106,1.19062 -0.16781,0.41404 0.003,0.46302 1.61552,0.46302 h 1.80319 z m 12.03854,0.76656 c -0.29104,-0.22398 -1.83885,-1.3357 -3.43958,-2.4705 l -2.91042,-2.06326 -3.28602,0.43071 c -2.20935,0.2896 -3.32489,0.54734 -3.40466,0.78665 -0.0652,0.19576 0.63611,1.11745 1.55859,2.04819 l 1.67722,1.69227 5.16702,-0.008 c 4.70511,-0.008 5.11971,-0.0448 4.63785,-0.41565 z m -93.646053,-2.90945 c 1.95614,-1.39687 3.61247,-2.63015 3.68074,-2.74062 0.13985,-0.22627 -8.78926,-1.75428 -9.0029,-1.54064 -0.27186,0.27186 1.29092,6.82102 1.62766,6.82102 0.0759,0 1.73837,-1.14289 3.6945,-2.53976 z m 95.588653,-0.0815 c 0.34098,-1.34474 0.5685,-2.49644 0.50561,-2.55933 -0.15653,-0.15653 -7.34605,0.76525 -7.33082,0.9399 0.0231,0.26456 5.67676,4.19448 5.94081,4.1295 0.14544,-0.0358 0.54342,-1.16533 0.8844,-2.51007 z m -12.12906,-1.73921 c 3.20183,-0.36399 3.14937,-0.30547 1.40754,-1.57037 -0.8469,-0.61501 -1.85049,-1.32082 -2.23019,-1.56845 l -0.69037,-0.45025 -0.4348,1.79197 c -0.53841,2.21892 -0.53791,2.25406 0.0296,2.09352 0.25467,-0.072 1.11787,-0.20543 1.91823,-0.29642 z m 8.58516,-1.10466 c 1.89936,-0.24094 3.5396,-0.5117 3.64497,-0.60169 0.10538,-0.09 -1.86791,-1.22869 -4.38508,-2.53045 l -4.57666,-2.36682 -2.22676,0.65795 c -1.38457,0.4091 -2.25234,0.80633 -2.29439,1.05029 -0.0825,0.47856 5.12141,4.22879 5.86798,4.22879 0.2841,0 2.07057,-0.19713 3.96994,-0.43807 z m -82.549503,-0.68641 c -0.40802,-1.86982 -0.38991,-1.86216 -1.90563,-0.80573 -0.76114,0.5305 -1.32668,1.02175 -1.25675,1.09168 0.15639,0.15639 1.89529,0.50213 2.73368,0.54352 0.56089,0.0277 0.59946,-0.0469 0.4287,-0.82947 z m -2.59812,-1.29777 c 1.17722,-0.81381 1.94165,-1.52085 1.89532,-1.753 -0.0482,-0.2418 -1.24966,-0.7635 -3.17362,-1.37812 l -3.09596,-0.98903 -3.91549,1.91242 c -3.80507,1.85848 -3.88938,1.91751 -2.98945,2.09347 2.35365,0.46018 8.13327,1.42482 8.68801,1.45005 0.34778,0.0158 1.48127,-0.5685 2.59119,-1.33579 z m 90.032983,-3.25352 c 0.14959,-1.7224 0.21773,-3.21942 0.15141,-3.32672 -0.11449,-0.18525 -8.6521,2.35644 -8.9639,2.6686 -0.0815,0.0816 1.72321,1.11697 4.01052,2.30077 3.00284,1.55414 4.21034,2.06019 4.34437,1.82069 0.1021,-0.18243 0.30802,-1.74094 0.4576,-3.46334 z m -95.952313,-1.22999 c -0.16717,-0.15797 -1.55647,-0.62024 -6.73107,-2.23966 -0.46909,-0.14681 -0.47318,0.15845 -0.0575,4.28948 l 0.13703,1.36177 3.42602,-1.61106 c 1.88431,-0.88608 3.33579,-1.69632 3.22551,-1.80053 z m 7.60471,-0.32618 c 0,-0.92164 -0.0711,-1.7468 -0.158,-1.83369 -0.16036,-0.16037 -4.02272,1.50214 -4.42921,1.9065 -0.21929,0.21814 3.23122,1.54171 4.12419,1.58199 0.39443,0.0178 0.46302,-0.22734 0.46302,-1.6548 z m 76.332293,1.02562 0.79375,-0.3232 -1.38027,-0.70399 c -0.75914,-0.3872 -1.50328,-0.70399 -1.65364,-0.70399 -0.15036,0 -0.27338,0.54524 -0.27338,1.21165 v 1.21164 l 0.8599,-0.18445 c 0.47294,-0.10145 1.21708,-0.3299 1.65364,-0.50766 z m 6.95046,-2.17497 c 2.65953,-0.82617 4.74351,-1.58372 4.63107,-1.68346 -0.30261,-0.26841 -7.0844,-2.37041 -7.65354,-2.37221 -0.76084,-0.002 -6.17695,2.70045 -6.17695,3.08254 0,0.32491 3.54909,2.46444 4.10018,2.47175 0.14505,0.002 2.43971,-0.67245 5.09924,-1.49862 z m -86.420403,-0.39134 c 1.91138,-0.90764 2.87307,-1.50784 2.87307,-1.79313 0,-0.27395 -0.78831,-0.81657 -2.18282,-1.5025 l -2.18281,-1.07369 -4.36562,1.39106 c -2.4011,0.76509 -4.60375,1.46894 -4.89479,1.56413 -0.37399,0.12231 0.59587,0.54701 3.30729,1.44827 2.11005,0.70137 4.00209,1.28757 4.20453,1.30268 0.20244,0.0151 1.66096,-0.58646 3.24115,-1.33682 z m 81.792763,-4.21155 c -0.17817,-0.16748 -4.39196,-1.5679 -4.71773,-1.5679 -0.16973,0 -0.14114,1.81305 0.0465,2.94756 l 0.15929,0.9632 2.35906,-1.07454 c 1.29748,-0.591 2.26628,-1.16174 2.15289,-1.26832 z m -88.244103,0.64171 c 2.07485,-0.65717 3.70969,-1.29642 3.63297,-1.42055 -0.0767,-0.12414 -1.88517,-1.12831 -4.01877,-2.23149 -2.75719,-1.42562 -3.93629,-1.91353 -4.07641,-1.68681 -0.10843,0.17544 -0.268,1.33824 -0.3546,2.584 -0.0866,1.24577 -0.20455,2.72193 -0.26209,3.28036 -0.12441,1.20734 -0.52211,1.24848 5.0789,-0.52551 z m 98.080013,-0.42368 c -0.0815,-1.05502 -0.20509,-2.29642 -0.27477,-2.75866 l -0.12668,-0.84044 -3.10051,1.45386 c -1.70528,0.79963 -3.20476,1.55591 -3.33217,1.68063 -0.2035,0.19921 5.76883,2.32514 6.64965,2.36703 0.25083,0.0119 0.29617,-0.45569 0.18448,-1.90242 z m -88.491023,-0.46302 c 0,-0.7276 -0.0446,-1.32291 -0.099,-1.32291 -0.0875,0 -1.73977,0.55653 -2.79879,0.94269 -0.25268,0.0921 0.0644,0.40318 0.92604,0.9083 1.82605,1.07053 1.97178,1.0315 1.97178,-0.52808 z m 83.930823,-2.04007 c 2.81806,-1.3503 3.58745,-1.82211 3.21282,-1.97019 -0.62983,-0.24893 -8.58178,-1.54898 -9.40023,-1.53681 -0.75517,0.0112 -4.26035,2.54715 -4.12471,2.98415 0.0887,0.28571 5.40054,2.21997 6.24764,2.27501 0.19748,0.0128 2.02649,-0.77564 4.06448,-1.75216 z m -85.856433,0.5276 c 1.55476,-0.50633 2.1849,-0.83317 2.13235,-1.10602 -0.041,-0.21301 -1.25108,-1.23598 -2.68902,-2.27326 l -2.61443,-1.88597 -3.86779,0.49462 c -2.12728,0.27204 -4.04292,0.55323 -4.25697,0.62486 -0.3489,0.11676 8.22804,4.82552 8.84009,4.85323 0.13685,0.006 1.24195,-0.31216 2.45577,-0.70746 z m 2.83602,-4.15002 c 0.23261,-1.00299 0.39082,-1.85146 0.35157,-1.88549 -0.0873,-0.0757 -3.53249,0.35805 -4.4065,0.55477 -0.56598,0.1274 -0.41607,0.30076 1.45521,1.68291 1.1474,0.84748 2.10657,1.52525 2.13149,1.50615 0.0249,-0.0191 0.23562,-0.85535 0.46823,-1.85834 z m 73.857273,0.85514 c 0.64226,-0.46123 1.16774,-0.92376 1.16774,-1.02785 0,-0.19629 -2.88099,-0.63242 -3.05148,-0.46194 -0.127,0.12701 0.43366,2.32839 0.59301,2.32839 0.0676,0 0.64848,-0.37737 1.29073,-0.8386 z m 13.07365,-0.41817 c -5.3e-4,-0.60273 -1.26893,-5.8381 -1.52568,-6.29688 -0.14543,-0.25987 -1.17205,0.33835 -3.89767,2.27121 -2.03513,1.44321 -3.73276,2.72159 -3.77252,2.84085 -0.0642,0.1925 7.08441,1.53585 8.6009,1.61627 0.40271,0.0214 0.5952,-0.11822 0.59497,-0.43145 z m -97.366333,-1.66208 c 3.89903,-0.49448 3.87004,-0.27363 0.36443,-2.77626 -2.36608,-1.68913 -3.17659,-2.14398 -3.33046,-1.86903 -0.19774,0.35335 -1.26174,4.56384 -1.26545,5.00771 -10e-4,0.12193 0.44463,0.15444 0.99034,0.0722 0.5457,-0.0822 2.00421,-0.27779 3.24114,-0.43466 z m 95.227953,-5.71479 c 0.0606,-0.0537 -1.78483,-0.0952 -4.10104,-0.0923 l -4.21128,0.005 -2.58656,2.44207 c -1.62056,1.53003 -2.50988,2.5543 -2.38125,2.7426 0.11292,0.16529 1.21734,0.46721 2.45426,0.67094 l 2.24896,0.37041 4.23334,-3.02073 c 2.32833,-1.66141 4.28294,-3.06465 4.34357,-3.11834 z m -84.446183,4.25788 c 0.32742,-0.0727 0.59531,-0.27581 0.59531,-0.45129 0,-0.17547 -0.80048,-1.1257 -1.77884,-2.11162 l -1.77884,-1.79258 h -5.14464 -5.14463 l 3.63893,2.59271 3.63893,2.59271 2.68923,-0.34885 c 1.47908,-0.19187 2.95713,-0.40835 3.28455,-0.48108 z m 72.958863,-2.5034 1.83789,-1.85209 h -1.65596 -1.65595 l -0.51976,1.21256 c -0.66517,1.55178 -0.66727,2.49161 -0.006,2.49161 0.0888,0 0.98849,-0.83344 1.99933,-1.85208 z m -72.495843,-0.52917 c -0.54787,-1.08117 -0.79727,-1.32292 -1.36477,-1.32292 -0.68584,0 -0.68009,0.016 0.46748,1.296 0.63903,0.7128 1.25318,1.30811 1.36477,1.32291 0.11159,0.0148 -0.0988,-0.56839 -0.46748,-1.29599 z m 1.35048,-1.25126 c -0.26895,-0.26895 -0.49087,0.13597 -0.2702,0.49302 0.1667,0.26972 0.22902,0.26993 0.31864,0.001 0.0613,-0.18383 0.0395,-0.40617 -0.0484,-0.49409 z m 68.102653,0.17731 c 0,-0.13693 -0.11907,-0.24897 -0.26459,-0.24897 -0.14552,0 -0.26458,0.18562 -0.26458,0.41249 0,0.22687 0.11906,0.33891 0.26458,0.24897 0.14552,-0.0899 0.26459,-0.27556 0.26459,-0.41249 z m -76.769553,-4.21772 c -1.78968,-1.89177 -3.32622,-3.439579 -3.41453,-3.439579 -0.1659,0 -1.90632,3.878659 -2.51669,5.608619 l -0.34557,0.97945 1.37265,0.0966 c 0.75496,0.0531 2.89937,0.11863 4.76536,0.14555 l 3.39273,0.049 z m 6.1258,3.08186 c 0,-0.19675 -0.63997,-1.6617 -1.42216,-3.25545 l -1.42215,-2.897719 -2.61274,-0.45294 c -1.43701,-0.24912 -2.78974,-0.45104 -3.00608,-0.44872 -0.21633,0.002 1.27036,1.671099 3.30375,3.708389 2.97126,2.97696 3.84062,3.70417 4.42823,3.70417 0.43796,0 0.73115,-0.14345 0.73115,-0.35773 z m 3.27848,-0.18995 c -0.0617,-0.89036 -4.33682,-6.236659 -4.33682,-5.423529 0,0.145469 2.27623,4.885919 2.65273,5.524559 0.35571,0.60336 1.72724,0.52108 1.68409,-0.10103 z m 68.783663,-1.55873 c 1.10493,-2.41719 1.15994,-2.71285 0.45573,-2.44913 -0.68828,0.25775 -3.19066,3.73512 -3.01579,4.19082 0.077,0.20059 0.46783,0.36472 0.86857,0.36472 0.65347,0 0.82794,-0.21728 1.69149,-2.10641 z m 7.26994,-0.87016 c 1.71803,-1.63711 3.10478,-3.006759 3.08165,-3.043669 -0.0231,-0.0369 -1.57951,0.170179 -3.45863,0.460219 -1.87911,0.29003 -3.57084,0.52859 -3.7594,0.53013 -0.30511,0.002 -2.43529,4.19382 -2.43529,4.79165 0,0.13103 0.7758,0.23824 1.72399,0.23824 h 1.72398 z m 5.77879,2.62056 c 0.0884,-0.0884 -1.70557,-4.69772 -1.90667,-4.89882 -0.15287,-0.15287 -5.4167,4.78122 -5.4167,5.07739 0,0.23612 7.08135,0.0635 7.32337,-0.17857 z m -80.214383,-2.85775 c 0.49189,-0.77905 0.81179,-1.49182 0.7109,-1.58393 -0.18736,-0.17106 -4.63036,-1.02912 -4.74391,-0.91617 -0.0344,0.0342 0.61332,0.97386 1.43937,2.08808 0.82606,1.11423 1.54633,1.98145 1.60061,1.92717 0.0543,-0.0543 0.50114,-0.7361 0.99303,-1.51515 z m 65.227903,0.0611 0.89772,-1.16824 -1.28444,0.17605 c -0.70644,0.0968 -1.44642,0.17606 -1.64439,0.17606 -0.19797,0 -0.35995,0.11225 -0.35995,0.24946 0,0.4803 1.13223,2.16339 1.31191,1.95019 0.0998,-0.1184 0.58541,-0.74099 1.07915,-1.38352 z m 0.38707,-1.8427 c 0.98865,-0.15667 1.2287,-0.39405 3.64599,-3.605469 2.92542,-3.88647 3.55953,-4.90275 3.04153,-4.87466 -0.18564,0.0101 -1.93025,0.57562 -3.87692,1.25677 l -3.5394,1.23847 -1.57501,2.86285 c -0.86795,1.57765 -1.507,3.040079 -1.42351,3.257649 0.15421,0.40185 0.38983,0.39328 3.72732,-0.13561 z m 3.78512,-1.761489 c 0.31549,-0.64938 0.52594,-1.18069 0.46766,-1.18069 -0.16469,0 -1.73924,2.195439 -1.73924,2.425069 0,0.5498 0.76235,-0.19625 1.27158,-1.244379 z m -67.559443,0.951719 c 0.0846,-0.13686 -0.34071,-1.245899 -0.94509,-2.464549 l -1.09889,-2.21571 -4.53744,-1.5042 c -2.4956,-0.82731 -4.62731,-1.5042 -4.73715,-1.5042 -0.33417,0 0.33886,1.0599 2.52016,3.96875 l 2.08326,2.77812 2.70098,0.56827 c 3.11195,0.654729 3.80076,0.718829 4.01417,0.373519 z m 72.307133,-0.464269 c 1.78263,-0.25277 3.24114,-0.58113 3.24114,-0.72969 0,-0.39201 -3.23806,-5.70095 -3.47716,-5.70095 -0.16335,0 -3.402,6.45905 -3.402,6.784839 0,0.15144 0.22958,0.12909 3.63802,-0.354199 z m -11.6264,-1.96667 c 0.62687,-1.17721 1.09453,-2.1856 1.03926,-2.24087 -0.0553,-0.0553 -1.19144,0.26539 -2.52481,0.71258 l -2.42432,0.81307 1.23709,1.43292 c 0.68039,0.7881 1.30367,1.43061 1.38506,1.42779 0.0814,-0.003 0.66086,-0.96828 1.28772,-2.14549 z m -68.956873,0.77036 c -0.18985,-0.18985 -0.31309,-0.20547 -0.31309,-0.0397 0,0.15037 0.0794,0.35278 0.17639,0.44979 0.097,0.097 0.23791,0.11487 0.31309,0.0397 0.0752,-0.0752 -0.004,-0.27759 -0.17639,-0.4498 z m 10.09596,-0.64167 0.74765,-0.83129 -1.41116,-0.46402 c -0.77614,-0.25521 -1.57009,-0.52282 -1.76434,-0.59469 -0.20784,-0.0769 -0.009,0.55121 0.48331,1.52638 0.46006,0.91138 0.91757,1.55307 1.01668,1.42598 0.0991,-0.12709 0.51665,-0.60515 0.92786,-1.06236 z m -13.05488,-1.94683 c -0.73026,-1.45521 -1.41622,-2.64583 -1.52436,-2.64583 -0.23729,0 -2.82693,4.20372 -2.67991,4.35024 0.15317,0.15265 3.95686,0.87338 4.80199,0.90989 l 0.73002,0.0315 z m 14.69561,0.19841 c 0.0698,-0.18191 -0.32974,-1.69996 -0.88787,-3.37344 l -1.0148,-3.04268 -3.68449,-2.014425 c -2.02647,-1.10793 -3.72272,-1.98252 -3.76944,-1.94352 -0.0467,0.039 0.96532,2.13151 2.24896,4.650045 l 2.3339,4.57915 2.11667,0.71708 c 2.51408,0.85171 2.49555,0.84873 2.65707,0.42779 z m 56.104073,-0.8287 2.93406,-0.97264 1.99056,-3.6303 c 1.0948,-1.99667 1.9609,-3.666385 1.92465,-3.710485 -0.0362,-0.0441 -2.14468,0.9572 -4.68541,2.225105 l -4.61952,2.30528 -0.71835,2.20582 c -0.69121,2.12246 -0.70986,2.8981 -0.064,2.6613 0.16718,-0.0613 1.62429,-0.54913 3.23802,-1.08408 z m -53.741843,-1.33631 1.43994,-1.17285 -2.23492,-1.2084 c -1.2292,-0.66462 -2.28714,-1.2084 -2.35096,-1.2084 -0.0638,0 0.24333,1.07156 0.68258,2.38125 0.43925,1.30969 0.84921,2.38125 0.91102,2.38125 0.0618,0 0.76037,-0.52778 1.55234,-1.17285 z m 49.755153,-0.16721 c 0.2448,-0.73703 0.38527,-1.39988 0.31215,-1.473 -0.0731,-0.0731 -0.73986,0.17461 -1.48164,0.55051 l -1.34871,0.68344 0.85937,0.7818 c 0.47266,0.42999 0.93911,0.78529 1.03656,0.78955 0.0974,0.004 0.37746,-0.59527 0.62227,-1.3323 z m -58.346323,0.41071 c 0,-0.0746 -0.90135,-1.93528 -2.00299,-4.1349 l -2.00299,-3.999295 -0.92732,0.89375 c -1.15515,1.113325 -3.90673,4.450025 -3.76816,4.569435 0.17713,0.15264 8.02325,2.76378 8.37073,2.78572 0.1819,0.0115 0.33073,-0.0401 0.33073,-0.11471 z m 70.170083,-1.51044 c 1.86125,-0.61427 3.38408,-1.19141 3.38408,-1.28254 0,-0.0911 -0.79162,-1.09345 -1.75916,-2.2274 l -1.75917,-2.061735 -0.395,0.76459 c -0.21726,0.420515 -1.02335,1.925445 -1.79133,3.344265 -0.76797,1.41883 -1.32143,2.57969 -1.22991,2.57969 0.0915,0 1.68924,-0.50259 3.55049,-1.11687 z m -9.26324,-6.553165 c 0.84521,-2.545036 1.50431,-4.724626 1.46467,-4.843533 -0.0396,-0.118903 -1.57479,0.913977 -3.41147,2.295293 l -3.3394,2.51149 -0.59963,3.216885 c -0.74889,4.01771 -0.68794,4.08737 2.23553,2.55502 l 2.11357,-1.10783 z m -49.668573,5.828495 c 0.0864,-0.13973 0.009,-1.27728 -0.17175,-2.52789 l -0.32876,-2.273835 -4.11104,-3.03158 c -2.26107,-1.667367 -4.14181,-2.93927 -4.17942,-2.826449 -0.0376,0.112821 0.50371,1.916703 1.20291,4.008628 l 1.27128,3.803496 2.76478,1.53266 c 2.8623,1.58673 3.2869,1.74391 3.552,1.31497 z m 43.080273,-2.65637 c 0.223,-1.23693 0.35909,-2.295475 0.30241,-2.352335 -0.0567,-0.0569 -1.00881,0.57836 -2.11586,1.411585 -1.10705,0.83323 -1.9456,1.58219 -1.86345,1.66434 0.46942,0.46941 2.96323,1.82633 3.10396,1.68891 0.0921,-0.09 0.34993,-1.17558 0.57294,-2.4125 z m -40.972213,1.29678 c 0.51764,-0.30542 0.94117,-0.59762 0.94117,-0.64934 0,-0.18843 -2.46748,-1.972325 -2.57684,-1.86296 -0.19749,0.19748 0.24743,3.0676 0.47553,3.0676 0.12044,0 0.6425,-0.24989 1.16014,-0.5553 z m 54.880393,-5.186405 c -0.88194,-0.960042 -4.50166,-4.047875 -4.74514,-4.047875 -0.11123,0 -0.82496,1.875235 -1.58605,4.167185 -0.7611,2.29196 -1.44192,4.324775 -1.51295,4.517395 -0.071,0.19261 1.80562,-0.61861 4.17034,-1.80271 l 4.29948,-2.152905 z M 74.757817,84.109192 c 1.17987,-1.169752 3.12418,-2.885655 4.32069,-3.813117 1.1965,-0.92746 2.17162,-1.756328 2.16691,-1.841926 -0.005,-0.0856 -1.33412,-0.870011 -2.95427,-1.743136 -4.17858,-2.251908 -10.85527,-6.746386 -15.00194,-10.098704 -1.94973,-1.576234 -3.77085,-3.032821 -4.04691,-3.236862 -0.45114,-0.333428 -0.59447,-0.281308 -1.41597,0.514924 -0.50271,0.487249 -0.91402,0.962488 -0.91402,1.05609 0,0.0936 1.75617,3.4456 3.9026,7.448883 2.14643,4.003283 5.0337,9.499047 6.41615,12.212812 l 2.51354,4.934115 1.434,-1.653125 c 0.7887,-0.90923 2.39935,-2.610202 3.57922,-3.779954 z m 21.04576,2.561534 -0.002,-2.55138 -2.04805,-0.629875 c -1.12642,-0.346429 -2.27237,-0.691917 -2.54656,-0.767746 -0.46199,-0.127768 -0.48444,-0.02514 -0.30633,1.400389 0.1057,0.846045 0.27691,1.767282 0.38046,2.047192 0.24785,0.67003 3.76916,3.337115 4.1947,3.177135 0.23337,-0.0877 0.33,-0.87541 0.32826,-2.675715 z m 39.200583,-1.707417 c 0.43669,-1.470425 0.38639,-1.493279 -1.82571,-0.829493 -1.12778,0.338416 -2.55653,0.746083 -3.175,0.905926 l -1.12448,0.290624 v 1.95213 c 0,1.298285 0.10785,1.988075 0.322,2.059455 0.47936,0.15979 5.6036,-3.706575 5.80319,-4.378642 z m 23.77555,-2.828338 c 2.0723,-4.001823 4.94348,-9.43873 6.38042,-12.082015 1.43692,-2.643285 2.61259,-4.914482 2.61259,-5.047107 0,-0.132625 -0.2964,-0.519597 -0.65868,-0.859941 -0.76302,-0.71682 -0.47724,-0.878205 -3.67453,2.075069 -4.33966,4.008438 -12.65795,10.019826 -16.90189,12.214503 -0.97993,0.506751 -1.77845,0.980898 -1.77449,1.053658 0.004,0.07276 0.52461,0.521867 1.15699,0.998014 1.90825,1.436809 5.47609,4.889104 7.27462,7.039024 0.93164,1.113655 1.72163,1.993325 1.75553,1.954835 0.0339,-0.0385 1.75715,-3.344215 3.82944,-7.34604 z m -59.071053,5.367685 c 0.1819,-0.073 0.330733,-0.2051 0.330733,-0.29367 0,-0.38779 -2.539393,-2.692765 -2.966623,-2.692765 -0.41474,0 -0.47296,0.260073 -0.47296,2.112805 v 2.112805 l 1.38906,-0.55328 c 0.76398,-0.304295 1.53789,-0.612955 1.71979,-0.685895 z m 28.327183,-1.2005 -0.0829,-0.85989 -1.19062,1.10689 -1.19063,1.1069 1.19063,0.536145 1.19062,0.53614 0.0829,-0.783145 c 0.0456,-0.43073 0.0456,-1.17009 0,-1.64304 z m -45.369603,-1.38906 c -0.6567,-1.964531 -1.27288,-3.570684 -1.36928,-3.569226 -0.0964,0.0016 -1.10784,0.789382 -2.24764,1.750946 l -2.07237,1.748298 3.26299,1.790362 c 1.79465,0.9847 3.34339,1.804115 3.44165,1.820925 0.0983,0.0168 -0.35864,-1.576775 -1.01535,-3.541305 z m 42.689953,1.93826 c 0.83052,-0.78024 0.77324,-0.92474 -0.31613,-0.79756 -1.07404,0.12538 -1.36689,0.44181 -0.91397,0.98756 0.41833,0.50405 0.50567,0.49056 1.2301,-0.19 z m -23.51491,-0.66547 c 0.0693,-0.48433 -0.0959,-0.61098 -1.05834,-0.81163 -0.62723,-0.130759 -1.191283,-0.197473 -1.253433,-0.148255 -0.0622,0.04922 0.23161,0.449185 0.652803,0.888815 0.86131,0.89901 1.53639,0.92794 1.65897,0.0711 z m 21.48144,0.447 c 0,-0.14552 -0.26789,-0.26276 -0.59531,-0.26053 -0.48139,0.003 -0.51937,0.0531 -0.19844,0.26053 0.51297,0.3315 0.79375,0.3315 0.79375,0 z m -19.46557,-0.55942 c -0.23026,-0.37256 -1.17193,-0.27144 -1.17193,0.12586 0,0.24107 0.21772,0.31856 0.65838,0.23433 0.36211,-0.0692 0.5932,-0.23131 0.51355,-0.36019 z m -13.438083,-0.69729 c -0.072,-0.25466 -0.20805,-1.071712 -0.30224,-1.815668 l -0.17125,-1.35265 -3.14951,-1.326499 c -2.7608,-1.162786 -3.20735,-1.281547 -3.6182,-0.962261 -0.40831,0.317318 -0.41757,0.396616 -0.0718,0.615583 0.21828,0.138239 1.88515,1.379108 3.70416,2.757487 1.81901,1.378381 3.40461,2.515348 3.52356,2.526588 0.11895,0.0113 0.15733,-0.18792 0.0853,-0.44258 z m 20.628403,-1.479784 c -0.33284,-0.750467 -0.8456,-1.831539 -1.13946,-2.40238 l -0.5343,-1.037897 -0.69841,2.097133 c -0.38413,1.153422 -0.69841,2.237271 -0.69841,2.408555 0,0.381923 0.79554,0.509363 2.43319,0.389793 l 1.24257,-0.09072 z m 5.92525,1.579194 c 0,-0.0878 -0.55939,-1.748149 -0.94494,-2.804654 -0.0953,-0.261149 -0.39854,0.04503 -0.91712,0.926041 -0.9114,1.54835 -0.9272,1.636774 -0.32075,1.795253 0.58784,0.15362 2.18281,0.21453 2.18281,0.0834 z m 3.50573,-2.426824 c 0.98227,-1.38167 1.78664,-2.777567 1.78749,-3.101991 0.003,-1.060635 -0.90763,-7.866015 -1.05172,-7.861721 -0.0772,0.0024 -1.20131,2.057787 -2.49792,4.567746 l -2.35746,4.56356 0.59223,1.8484 c 0.32573,1.016619 0.63871,1.997228 0.69551,2.179129 0.26823,0.858911 1.14242,0.181291 2.83187,-2.195123 z m 2.25316,2.114807 c 0.23448,-0.07332 0.28899,-0.443974 0.18177,-1.235906 -0.34982,-2.583828 -0.28581,-2.564188 -1.72052,-0.527802 -0.72034,1.02244 -1.30972,1.915405 -1.30972,1.984365 0,0.13312 2.28259,-0.0437 2.84847,-0.220657 z m -14.75089,-2.858561 c 0.46065,-1.442308 0.7668,-2.871899 0.68491,-3.198191 -0.0814,-0.324525 -0.88555,-2.115593 -1.78689,-3.980154 -1.2311,-2.54671 -1.68291,-3.264998 -1.8161,-2.887223 -0.0975,0.276585 -0.5093,2.545353 -0.91509,5.041702 l -0.73779,4.538818 1.12094,1.598012 c 1.02224,1.457301 1.91696,2.059944 2.4363,1.640983 0.0994,-0.08019 0.55557,-1.319467 1.01372,-2.753947 z m 6.42044,1.016272 c 0.54124,-1.093814 0.98406,-2.184318 0.98406,-2.42334 0,-0.508161 -2.87783,-9.610825 -3.03849,-9.610825 -0.13362,0 -2.51776,7.494857 -2.51776,7.914917 0,0.166032 0.61277,1.608252 1.36171,3.204938 0.91676,1.954485 1.50297,2.903066 1.79406,2.903066 0.27447,0 0.79173,-0.726281 1.41642,-1.988756 z m 12.14888,1.18953 1.50752,-0.290886 0.15964,-1.108593 c 0.0878,-0.609725 0.12379,-3.009268 0.08,-5.33232 l -0.0797,-4.223729 -2.52651,3.536709 -2.52651,3.536707 0.2264,1.877647 c 0.29873,2.477513 0.34108,2.575227 1.05049,2.423726 0.33062,-0.07061 1.27951,-0.259276 2.10865,-0.419261 z m -22.2832,0.07162 c -0.003,-0.10914 -0.22705,-0.486137 -0.49736,-0.837771 l -0.49149,-0.639337 -0.18117,0.570823 c -0.0996,0.313952 -0.10693,0.690949 -0.0162,0.837771 0.19017,0.307705 1.19502,0.365744 1.1862,0.06851 z m -1.80145,-1.523481 c 0.0613,-0.96714 -0.18876,-1.413193 -2.965463,-5.28954 l -3.03242,-4.233333 -0.0818,3.042708 c -0.10955,4.072398 0.0945,5.616184 0.83409,6.311011 0.60019,0.563843 4.639273,1.684454 4.991343,1.384803 0.10303,-0.08769 0.21747,-0.634735 0.25429,-1.215649 z m 35.54171,0.134419 c 1.01064,-0.727605 1.75277,-1.322917 1.64915,-1.322917 -0.1036,0 -0.95112,0.30535 -1.88337,0.678556 -1.3289,0.531992 -1.72161,0.817729 -1.81818,1.322916 -0.0678,0.354399 -0.0471,0.644361 0.0458,0.644361 0.093,0 0.99591,-0.595312 2.00656,-1.322916 z m -4.50758,-0.502754 2.107,-0.687871 0.34308,-1.852084 c 0.5765,-3.112198 0.51294,-3.103536 -2.96958,0.404646 -3.50466,3.53047 -3.523,3.455064 0.5195,2.135309 z m 2.20027,-6.135214 c 0.11878,-0.250078 -5.87849,-2.887032 -6.56603,-2.887032 -0.15398,0 -0.25479,1.901864 -0.25479,4.806839 v 4.806841 l 3.37344,-3.285487 c 1.85539,-1.807017 3.40671,-3.355539 3.44738,-3.441161 z m -42.696113,3.132239 c -3.06422,-3.160197 -3.42311,-3.460983 -3.19423,-2.677137 0.0794,0.271878 0.22237,1.16064 0.31775,1.975028 0.0954,0.814384 0.25842,1.618236 0.36231,1.786337 0.21828,0.353187 4.14389,1.860322 4.89543,1.87947 0.34846,0.0089 -0.38939,-0.909452 -2.38126,-2.963698 z m 45.693003,1.112882 c 1.07414,-0.442942 2.04783,-0.900187 2.16374,-1.016103 0.11592,-0.115914 -0.24053,-0.509172 -0.79211,-0.873903 -1.24008,-0.819997 -2.74412,-1.605981 -2.8538,-1.491345 -0.19914,0.20814 -0.82303,4.186698 -0.65653,4.186698 0.10214,0 1.06456,-0.362405 2.1387,-0.805347 z M 95.678237,73.716934 c -0.14553,-0.145526 -5.16385,1.795278 -5.16385,1.997088 0,0.06087 1.16086,1.354106 2.57969,2.87386 l 2.57968,2.763186 0.0736,-3.745669 c 0.0405,-2.060117 0.009,-3.809929 -0.0692,-3.888465 z m 7.924563,2.693564 c 0.82031,-4.903742 0.81962,-4.858721 0.0746,-4.859112 -0.9982,-5.29e-4 -6.283853,1.387686 -6.283853,1.650373 0,0.232928 4.116473,6.137217 4.997273,7.167636 0.49838,0.583023 0.39655,0.915641 1.21197,-3.958897 z M 89.621897,80.08451 c -0.0739,-0.254661 -0.21473,-1.14763 -0.3129,-1.984375 -0.0982,-0.836744 -0.30309,-1.521354 -0.45537,-1.521354 -0.35895,0 -3.63091,1.9122 -3.63091,2.121975 0,0.189005 3.6784,1.792925 4.18502,1.824826 0.21049,0.01325 0.29532,-0.161462 0.21416,-0.441072 z M 118.4419,75.511161 c 1.08372,-2.085247 1.97041,-3.873333 1.97041,-3.973526 0,-0.18293 -1.28642,-0.354221 -5.09323,-0.678177 -1.57519,-0.134048 -2.05052,-0.09642 -2.05052,0.162319 0,0.185251 0.60493,2.239926 1.3443,4.565944 0.87034,2.73808 1.43496,4.138459 1.60146,3.971962 0.14144,-0.141441 1.14385,-1.963277 2.22758,-4.048522 z m 7.09001,0.466894 c 1.95986,-2.75105 2.00942,-2.857439 1.43182,-3.073794 -1.07397,-0.402288 -4.68897,-1.186542 -4.82809,-1.047424 -0.13249,0.132487 0.58762,6.337845 0.82176,7.081292 0.14583,0.463074 0.0907,0.52651 2.57451,-2.960074 z m 20.94363,0.964494 c 5.27617,-2.969911 11.85649,-7.846198 16.75426,-12.415618 l 2.20395,-2.056196 -5.24417,-5.249101 -5.24419,-5.249103 h -42.603 -42.603023 l -4.98979,4.994989 -4.9898,4.994989 2.36303,1.966752 c 6.05136,5.036548 13.65241,10.174439 18.99887,12.842182 l 1.5875,0.79212 3.06354,-1.761842 c 5.60556,-3.22376 12.51643,-5.579014 19.039893,-6.488882 3.94805,-0.550656 11.11176,-0.550656 15.05981,0 7.46949,1.041815 15.46604,3.971348 21.17739,7.758327 1.0914,0.723672 2.16377,1.325649 2.38302,1.337733 0.21926,0.01209 1.58848,-0.647777 3.04271,-1.46635 z M 86.376077,66.079493 c 0.21543,-0.410028 0.93573,-1.275038 1.60067,-1.922243 l 1.20896,-1.17674 0.79663,0.76322 0.79663,0.76322 v -4.070153 -4.070154 l -0.8804,0.853324 -0.88041,0.853324 -1.36855,-1.447042 c -1.27997,-1.353372 -1.72407,-2.272468 -1.09806,-2.272468 0.14877,0 0.80868,0.496076 1.46645,1.102391 l 1.19595,1.102391 1.17939,-1.157479 1.17938,-1.157479 -0.0118,6.338942 -0.0118,6.338943 -1.17631,-1.312873 -1.17631,-1.312874 -0.99465,0.950863 c -0.54705,0.522972 -1.26976,1.092054 -1.60601,1.264626 -0.60412,0.310047 -0.60672,0.304935 -0.21966,-0.431739 z m 8.43932,-1.206214 -1.9167,-1.9299 1.37442,-1.374416 1.37441,-1.374416 -1.77282,-1.836324 c -0.97505,-1.009978 -1.77282,-1.966963 -1.77282,-2.126633 0,-0.59093 0.60768,-0.252888 2.09408,1.1649 0.8391,0.800364 1.60417,1.455208 1.70015,1.455208 0.096,0 0.17452,-1.012031 0.17452,-2.248958 0,-1.293797 0.11023,-2.248959 0.25954,-2.248959 0.47278,0 0.55226,1.13701 0.47673,6.820011 l -0.0748,5.629387 z m 1.13429,-3.320311 c -0.082,-0.08203 -0.50601,0.192744 -0.94218,0.610615 l -0.79302,0.759767 0.86193,0.891466 0.86193,0.891466 0.0802,-1.502082 c 0.0441,-0.826146 0.0131,-1.5692 -0.0689,-1.651232 z m 3.49033,3.182021 c -1.12555,-1.132197 -2.04646,-2.178407 -2.04646,-2.324912 0,-0.146506 0.77402,-1.033518 1.72005,-1.971139 l 1.720053,-1.704765 -1.557873,-1.594883 c -0.85683,-0.877186 -1.7006,-1.874041 -1.87505,-2.215233 -0.29606,-0.57903 -0.27602,-0.60804 0.30084,-0.43554 0.33991,0.101646 1.36216,0.913145 2.27166,1.803331 l 1.653653,1.618522 1.65365,-1.618522 c 0.9095,-0.890186 1.93016,-1.701178 2.26811,-1.802204 0.60018,-0.17941 0.60527,-0.166198 0.21882,0.567831 -0.21761,0.413333 -1.06021,1.402825 -1.87244,2.198872 l -1.4768,1.447357 1.78264,1.796402 1.78264,1.796401 -2.24851,2.248511 -2.24851,2.248511 z m 3.717623,-0.931037 1.38038,-1.397746 -1.45556,-1.437487 -1.45557,-1.437486 -1.45557,1.437486 -1.455563,1.437487 1.380383,1.397746 c 0.75921,0.76876 1.44805,1.397746 1.53075,1.397746 0.0827,0 0.77154,-0.628986 1.53075,-1.397746 z m 5.67453,0.783577 c -1.19801,-1.227376 -2.1782,-2.365202 -2.1782,-2.528503 0,-0.597674 0.60255,-0.264387 2.09409,1.158297 0.8391,0.800365 1.60416,1.455208 1.70015,1.455208 0.096,0 0.17451,-2.25516 0.17451,-5.011468 0,-4.546256 0.19311,-6.035493 0.63374,-4.887247 0.088,0.229347 0.16001,2.550382 0.16001,5.157855 0,2.671472 0.1051,4.74086 0.24077,4.74086 0.13241,0 0.75749,-0.584843 1.38906,-1.299652 1.13665,-1.286473 2.33892,-1.968689 2.33892,-1.3272 0,0.175573 -0.98434,1.321422 -2.18742,2.546332 l -2.18742,2.227106 z m 7.08222,-3.538475 c 0,-3.222034 0.072,-6.045891 0.16001,-6.275238 0.43813,-1.141735 0.63374,0.325938 0.63374,4.754955 0,2.683548 0.0852,4.879177 0.18935,4.879177 0.10414,0 0.75899,-0.56107 1.45521,-1.246825 l 1.26586,-1.246824 1.32291,1.303024 1.32292,1.303025 v -4.664769 c 0,-2.565623 0.072,-4.852416 0.16001,-5.081763 0.45664,-1.189978 0.63374,0.450894 0.63374,5.871791 v 5.996012 l -1.72007,-1.704777 -1.72007,-1.704779 -1.8518,1.837619 -1.85181,1.837615 z m 15.40737,3.538475 c -1.19801,-1.227376 -2.1782,-2.365202 -2.1782,-2.528503 0,-0.597674 0.60255,-0.264387 2.09408,1.158297 0.8391,0.800365 1.60417,1.455208 1.70015,1.455208 0.096,0 0.17452,-2.25516 0.17452,-5.011468 0,-4.546256 0.19311,-6.035493 0.63373,-4.887247 0.088,0.229347 0.16002,2.629188 0.16002,5.33298 v 4.915985 l 1.38906,-1.482246 c 1.3569,-1.44793 2.57969,-2.156498 2.57969,-1.494856 0,0.175573 -0.98434,1.321422 -2.18743,2.546332 l -2.18742,2.227106 z m -7.44929,-0.245727 c 0.16708,-0.327422 1.03116,-1.339577 1.92017,-2.249234 l 1.61639,-1.653922 -1.74214,-1.785661 c -0.95817,-0.982114 -1.81486,-1.995425 -1.90375,-2.251802 -0.29394,-0.847772 1.12544,0.138341 3.13146,2.175575 l 1.85208,1.880904 -2.27829,2.239726 c -2.29062,2.251839 -3.19976,2.827747 -2.59592,1.644414 z m -13.5224,10.44202 c 0.58652,-1.860355 1.0664,-3.538342 1.0664,-3.728861 0,-0.274693 -0.534,-0.307334 -2.57968,-0.157689 -1.41883,0.103788 -2.65876,0.23467 -2.75541,0.290846 -0.14937,0.08683 2.94759,6.978163 3.13598,6.978163 0.0365,0 0.54619,-1.522108 1.13271,-3.382459 z M 52.683767,60.343974 c -1.41625,-2.494241 -2.8297,-4.951703 -3.14099,-5.461026 l -0.56599,-0.926042 -0.001,8.594823 -10e-4,8.594823 3.14198,-3.133796 3.14198,-3.133797 -2.575,-4.534985 z m 123.291043,2.211891 c 0,-4.656667 -0.0893,-8.464765 -0.19844,-8.462441 -0.22043,0.0047 -6.15156,10.348655 -6.15156,10.728391 0,0.289843 5.8599,6.200716 6.14725,6.200716 0.11151,0 0.20275,-3.81 0.20275,-8.466666 z M 55.242077,59.636989 c -1.48247,-1.420447 -2.72512,-2.555304 -2.76144,-2.521906 -0.0363,0.0334 0.78664,1.573548 1.82881,3.422555 l 1.89486,3.361828 0.86659,-0.839922 0.86658,-0.839926 z m 115.152553,0.934501 1.62583,-2.910417 -2.36218,2.513542 -2.36217,2.513541 0.5523,0.598816 c 0.30377,0.329351 0.63513,0.507944 0.73635,0.396875 0.10122,-0.111067 0.91567,-1.511628 1.80987,-3.112357 z m -1.39932,-1.785938 c 2.5687,-2.651358 5.92116,-6.437725 5.92116,-6.687523 0,-0.06902 -4.13618,-0.125498 -9.19151,-0.125498 h -9.19151 l 4.75698,4.7625 c 2.61635,2.619375 4.82909,4.7625 4.91722,4.7625 0.0881,0 1.34257,-1.22039 2.78766,-2.711979 z M 63.547247,52.032503 c -2.46628,-0.03978 -6.60518,-0.03978 -9.19756,0 l -4.71342,0.07232 4.59666,4.594815 4.59666,4.594816 4.6009,-4.594816 4.60091,-4.594815 z M 53.208137,205.2327 c -8.45801,-2.2958 -10.22453,-11.43499 -3.79788,-19.64853 1.43412,-1.83287 3.97425,-4.13903 5.61715,-5.09976 l 0.80797,-0.47248 0.63289,1.00165 c 0.34808,0.55091 3.45903,5.45258 6.91322,10.89261 4.87602,7.67929 6.20085,9.94693 5.92485,10.14129 -0.93337,0.65727 -5.2923,2.59655 -6.70549,2.98326 -2.44692,0.66958 -7.28657,0.77364 -9.39271,0.20196 z m 8.46667,-1.03655 c 2.17999,-0.52441 6.39719,-2.45194 6.29487,-2.87715 -0.0424,-0.17639 -2.87333,-4.72665 -6.29088,-10.11169 l -6.21371,-9.79099 -1.5647,1.2255 c -4.42904,3.4689 -7.30128,8.42955 -7.37357,12.73487 -0.0418,2.48716 0.62148,4.2096 2.33257,6.05778 2.9105,3.14368 7.29748,4.08906 12.81542,2.76168 z m -12.16329,-4.4802 c 0.004,-0.13102 1.34667,-2.81827 2.98338,-5.97166 l 2.97585,-5.73344 3.56505,5.44629 c 1.96078,2.99546 3.59856,5.52723 3.63953,5.62615 0.041,0.0989 -1.62591,0.25932 -3.70417,0.35643 -2.07825,0.0971 -5.05857,0.2526 -6.62291,0.34551 -1.63653,0.0972 -2.84107,0.0678 -2.83673,-0.0693 z m 12.07349,-0.98627 c 0.16788,-0.16787 -5.77761,-9.41972 -6.06044,-9.43073 -0.15286,-0.006 -5.22685,9.81045 -5.22685,10.11213 0,0.13231 11.14648,-0.54059 11.28729,-0.6814 z m 102.086673,6.57439 c -2.95452,-0.65009 -8.06979,-2.92208 -8.06979,-3.58427 0,-0.18883 13.30863,-21.32184 13.63718,-21.65471 0.23041,-0.23344 3.58772,2.44357 5.17572,4.12693 5.63933,5.97799 6.72564,13.47776 2.62816,18.14453 -0.97279,1.10796 -3.38747,2.41791 -5.44476,2.95376 -1.88142,0.49005 -5.73151,0.49673 -7.92651,0.0138 z m 8.33531,-1.17601 c 2.69875,-0.83995 4.8521,-2.74009 6.01961,-5.31178 0.28285,-0.62304 0.42196,-1.7052 0.42516,-3.3073 0.008,-3.84931 -1.36255,-6.84136 -4.79421,-10.46879 -1.84278,-1.9479 -3.91234,-3.63043 -4.1604,-3.38237 -0.28817,0.28817 -12.34334,19.39416 -12.38899,19.63506 -0.13303,0.70194 5.26248,2.87813 8.30046,3.34786 1.88757,0.29186 4.72066,0.0717 6.59837,-0.51268 z m -4.71341,-4.59295 c -4.28912,-0.22415 -4.82597,-0.30217 -4.68087,-0.68029 0.25382,-0.66144 6.81109,-10.62272 6.98784,-10.61537 0.0861,0.004 1.49412,2.62295 3.12892,5.82083 l 2.97237,5.81433 -1.78174,-0.0432 c -0.97997,-0.0237 -3.9619,-0.15709 -6.62652,-0.29634 z m 7.35831,-0.32012 c 0,-0.31082 -4.90533,-9.92371 -5.06394,-9.92371 -0.23395,0 -6.32554,9.33621 -6.18396,9.47779 0.27142,0.27141 11.2479,0.70658 11.2479,0.44592 z"
       id="path863"
       inkscape:export-filename="C:\Users\logie\Documents\koding\_GRAFIKI\dnd5eSpells\spell icons\abjuration.png"
       inkscape:export-xdpi="96"
       inkscape:export-ydpi="96" />
  </g>
</svg>
