<?xml version="1.0" encoding="UTF-8" standalone="no"?>
<svg
   xmlns:dc="http://purl.org/dc/elements/1.1/"
   xmlns:cc="http://creativecommons.org/ns#"
   xmlns:rdf="http://www.w3.org/1999/02/22-rdf-syntax-ns#"
   xmlns:svg="http://www.w3.org/2000/svg"
   xmlns="http://www.w3.org/2000/svg"
   xmlns:sodipodi="http://sodipodi.sourceforge.net/DTD/sodipodi-0.dtd"
   xmlns:inkscape="http://www.inkscape.org/namespaces/inkscape"
   width="210mm"
   height="297mm"
   viewBox="0 0 210 297"
   version="1.1"
   id="svg8"
   inkscape:version="1.0.2-2 (e86c870879, 2021-01-15)"
   sodipodi:docname="conjuration.svg">
  <defs
     id="defs2" />
  <sodipodi:namedview
     id="base"
     pagecolor="#ffffff"
     bordercolor="#666666"
     borderopacity="1.0"
     inkscape:pageopacity="0.0"
     inkscape:pageshadow="2"
     inkscape:zoom="0.98994949"
     inkscape:cx="576.24504"
     inkscape:cy="452.7968"
     inkscape:document-units="mm"
     inkscape:current-layer="layer1"
     inkscape:document-rotation="0"
     showgrid="false"
     inkscape:window-width="3736"
     inkscape:window-height="2126"
     inkscape:window-x="93"
     inkscape:window-y="-11"
     inkscape:window-maximized="1" />
  <metadata
     id="metadata5">
    <rdf:RDF>
      <cc:Work
         rdf:about="">
        <dc:format>image/svg+xml</dc:format>
        <dc:type
           rdf:resource="http://purl.org/dc/dcmitype/StillImage" />
        <dc:title></dc:title>
      </cc:Work>
    </rdf:RDF>
  </metadata>
  <g
     inkscape:label="Layer 1"
     inkscape:groupmode="layer"
     id="layer1">
    <path
       style="fill:#000000;stroke-width:0.264583"
       d="m 61.361203,239.42352 c -4.45666,-0.97606 -8.26475,-3.92095 -10.27336,-7.94462 -1.82363,-3.6531 -2.15376,-8.12374 -0.87585,-11.8607 1.03318,-3.02129 2.771,-5.53756 5.0014,-7.24172 l 0.73135,-0.5588 -11.84385,-35.34485 -11.84386,-35.34484 -1.33347,-0.002 c -4.91617,-0.008 -10.35172,-3.54662 -12.60208,-8.20427 -1.21087,-2.50616 -1.63805,-4.33465 -1.63805,-7.01145 0,-4.29204 1.46877,-7.86956 4.455,-10.85114 2.98315,-2.97852 6.41092,-4.36241 10.80527,-4.36241 3.47838,0 6.65978,0.98224 9.09246,2.80725 l 0.84162,0.63139 29.32088,-21.724361 c 16.12648,-11.948513 29.538847,-21.932708 29.805257,-22.187216 0.45685,-0.436425 0.46061,-0.54283 0.0661,-1.871111 -0.54046,-1.81993 -0.54765,-5.99597 -0.0139,-8.045362 1.35818,-5.214375 5.64949,-9.490154 10.8786,-10.839216 2.04331,-0.527156 5.53281,-0.532852 7.73974,-0.01263 5.20462,1.226836 9.6245,5.602963 10.98495,10.876202 0.51166,1.983254 0.54007,5.835132 0.0564,7.65125 l -0.3567,1.339441 29.88752,21.282432 c 16.43814,11.705341 30.04676,21.373531 30.24139,21.484871 0.21353,0.12215 1.01616,-0.15847 2.02388,-0.7076 2.5235,-1.3751 4.43734,-1.84849 7.49084,-1.85288 4.52248,-0.007 8.3125,1.61093 11.23431,4.79438 2.67263,2.91194 3.97925,6.32556 3.97925,10.39596 0,4.44076 -1.37508,7.77726 -4.47514,10.85852 -2.85985,2.8425 -6.54255,4.47213 -10.13173,4.4834 l -1.24541,0.004 -1.32188,4.16719 c -0.72703,2.29196 -5.73133,18.20156 -11.12065,35.35467 l -9.79878,31.18748 1.78273,1.65277 c 3.35457,3.11004 4.88499,6.63062 4.88882,11.24623 0.002,2.27803 -0.12216,3.16285 -0.6891,4.91531 -1.24445,3.84674 -3.9806,7.02789 -7.62877,8.86948 -4.39975,2.22099 -10.47228,2.02595 -14.74312,-0.47351 -2.7513,-1.61017 -5.59319,-5.01453 -6.52306,-7.81413 l -0.44794,-1.3486 -16.96413,0.17441 c -9.33028,0.0959 -26.04265,0.25341 -37.138617,0.34997 -15.61825,0.13591 -20.17448,0.24856 -20.17448,0.4988 0,0.17779 -0.49516,1.31255 -1.10036,2.5217 -3.12158,6.23673 -10.1484,9.56216 -17.0236,8.0564 z m 6.86817,-1.33829 c 6.06166,-1.57886 10.54003,-7.36704 10.52773,-13.60682 -0.0124,-6.28405 -4.46634,-12.04997 -10.52773,-13.62876 -1.94607,-0.50689 -5.10398,-0.51629 -6.96581,-0.0207 -6.10253,1.62424 -10.61799,7.42423 -10.61799,13.63853 0,6.15004 4.48746,11.97249 10.50167,13.62584 1.75459,0.48235 5.21446,0.47842 7.08213,-0.008 z m -6.96278,-4.34208 c -2.51441,-0.93138 -4.18762,-2.48698 -5.42358,-5.04238 -0.75363,-1.55815 -0.83181,-1.95603 -0.83181,-4.23333 0,-2.26708 0.0806,-2.68217 0.82245,-4.23333 0.98678,-2.06342 2.61818,-3.73337 4.59819,-4.70686 1.30498,-0.64161 1.75099,-0.7171 4.23665,-0.7171 2.45281,0 2.94853,0.0813 4.23333,0.69463 2.15827,1.03023 3.55905,2.38523 4.55295,4.40414 0.81799,1.66157 0.87101,1.93906 0.87101,4.55852 0,2.61946 -0.053,2.89695 -0.87101,4.55852 -0.9976,2.02643 -2.40676,3.38564 -4.55295,4.39157 -2.00636,0.9404 -5.56573,1.0922 -7.63523,0.32562 z m 6.5769,-0.41168 c 2.85312,-0.99221 5.48607,-3.99259 6.10037,-6.95168 1.02289,-4.92722 -2.10418,-9.7748 -7.13241,-11.05664 -3.15651,-0.80469 -6.47457,0.22025 -8.79914,2.71801 -1.51909,1.63228 -2.20799,2.94872 -2.57117,4.91332 -0.52884,2.8608 0.34114,5.54847 2.56593,7.92695 2.62186,2.80298 6.23425,3.70275 9.83642,2.45004 z m -4.16719,-3.90238 c -1.05502,-1.06226 -1.91823,-2.05137 -1.91823,-2.19803 0,-0.14665 0.71438,-0.97356 1.5875,-1.83758 l 1.5875,-1.57093 v -2.96923 c 0,-1.6343 0.11547,-3.04059 0.25683,-3.12796 0.46999,-0.29047 0.55434,1.00234 0.47918,7.34433 l -0.0745,6.29078 z m 1.25677,-2.23861 v -2.30405 l -1.19114,1.16902 -1.19115,1.16902 1.11395,1.13503 c 0.61266,0.62426 1.14868,1.13502 1.19114,1.13502 0.0425,0 0.0772,-1.03682 0.0772,-2.30404 z m 107.813277,9.95239 c 5.50211,-1.72259 9.49401,-6.80611 9.84967,-12.54314 0.2548,-4.11002 -1.13929,-7.69145 -4.1861,-10.75416 -4.3444,-4.36706 -10.46307,-5.38473 -16.06143,-2.67136 -1.99845,0.9686 -5.05248,3.89368 -6.07234,5.81596 -3.48765,6.57368 -1.56843,14.37251 4.53369,18.42286 3.69239,2.45087 7.75359,3.03942 11.93651,1.72984 z m -7.19592,-3.25479 c -3.61887,-1.17934 -6.05817,-4.03532 -6.66502,-7.80353 -0.71476,-4.43828 1.50265,-8.70321 5.49925,-10.57718 1.31067,-0.61456 1.81633,-0.69722 4.26509,-0.69722 2.5251,0 2.91066,0.0678 4.23333,0.74472 1.9982,1.0226 3.78244,2.84709 4.6768,4.78232 0.65394,1.415 0.74716,1.93032 0.74716,4.13025 0,2.19993 -0.0932,2.71526 -0.74716,4.13025 -0.89845,1.94408 -2.68944,3.77025 -4.6768,4.76869 -1.20838,0.60709 -1.8591,0.74415 -3.83646,0.80807 -1.50444,0.0486 -2.79178,-0.0568 -3.49619,-0.28637 z m 6.98121,-0.96024 c 5.73594,-2.81099 7.19609,-10.03356 2.96447,-14.66363 -1.54818,-1.69396 -3.8457,-2.94172 -5.88602,-3.19664 -2.82732,-0.35325 -6.335,1.10907 -8.24163,3.43587 -1.5818,1.93038 -2.10625,3.41539 -2.10625,5.964 0,1.77449 0.12612,2.52361 0.59779,3.5508 2.33562,5.08645 7.90644,7.24485 12.67164,4.9096 z m -5.31576,-4.02556 c -1.10314,-1.19885 -2.00572,-2.27041 -2.00572,-2.38125 0,-0.49162 0.57978,-0.0875 2.08301,1.45214 l 1.6146,1.65365 0.003,-1.41304 c 0.003,-1.38323 -0.0358,-1.45543 -1.8488,-3.42303 -1.01865,-1.10549 -1.85209,-2.10674 -1.85209,-2.22498 0,-0.52796 0.64503,-0.10659 1.89853,1.24021 0.74491,0.80037 1.45592,1.45521 1.58002,1.45521 0.12409,0 0.22562,-1.65985 0.22562,-3.68855 0,-2.17363 0.10867,-3.75571 0.26458,-3.85207 0.17376,-0.10739 0.26459,2.15801 0.26459,6.59896 0,3.71937 -0.0499,6.76249 -0.11095,6.76249 -0.061,0 -1.01352,-0.98088 -2.11667,-2.17974 z m -47.91093,-2.1872 c 10.33198,-0.0749 22.23823,-0.20765 26.45834,-0.29496 l 7.67292,-0.15872 v -2.74929 -2.74929 l -5.68855,0.0229 c -15.5764,0.0627 -67.700597,0.65587 -67.777497,0.7713 -0.0485,0.0728 -0.0501,1.36825 -0.004,2.87887 l 0.0845,2.74658 10.2343,-0.16558 c 5.62887,-0.0911 18.687727,-0.22687 29.019697,-0.3018 z M 85.074003,213.48723 c -0.0548,-3.92906 -0.14957,-7.19879 -0.21052,-7.26607 -0.12618,-0.13928 -4.80535,2.28332 -5.31636,2.7525 -0.26122,0.23985 -0.29559,1.57256 -0.15621,6.05708 l 0.17869,5.74958 2.80205,-0.0747 2.80205,-0.0747 z m 7.25511,-1.78594 c -0.10672,-4.98408 -0.25356,-9.12151 -0.32632,-9.19427 -0.0728,-0.0728 -1.40095,0.53657 -2.95152,1.35407 l -2.81924,1.48636 0.0957,7.50948 c 0.0527,4.13021 0.14899,7.59877 0.21405,7.70791 0.0651,0.10914 1.43749,0.19843 3.04982,0.19843 h 2.93149 z m 7.45182,8.6858 c 0.1365,-0.1059 -0.28982,-21.84873 -0.42839,-21.84803 -0.0858,5.3e-4 -1.45599,0.68505 -3.04497,1.52136 l -2.88905,1.52056 0.0488,7.80521 c 0.0269,4.29287 0.12045,8.59391 0.20798,9.55787 l 0.15914,1.75266 2.94565,-0.13342 c 1.62011,-0.0734 2.97047,-0.15268 3.0008,-0.17621 z m 7.625507,-3.12954 c -0.0731,-1.78264 -0.19724,-7.58019 -0.27583,-12.88345 -0.0786,-5.30327 -0.19153,-9.69094 -0.25096,-9.75037 -0.0594,-0.0594 -1.50348,0.63628 -3.20899,1.54603 l -3.10093,1.65409 0.17334,5.95622 c 0.0953,3.27592 0.17334,8.37776 0.17334,11.33742 v 5.3812 h 3.31148 3.31149 z m 8.09053,-7.73907 c -0.0571,-5.96635 -0.17616,-12.76254 -0.26458,-15.10264 l -0.16077,-4.25472 -3.30729,1.74118 -3.30729,1.74118 -0.0873,2.51354 c -0.048,1.38245 -0.004,7.42823 0.0974,13.43507 l 0.18467,10.92153 3.4745,-0.0736 3.4745,-0.0736 z m 7.78493,10.66405 c 0.10073,-0.10112 0.0949,-6.13854 -0.0131,-13.41648 l -0.19623,-13.23262 -3.30297,-1.70849 -3.30298,-1.70849 0.19316,14.99268 c 0.10623,8.24598 0.252,15.0919 0.32392,15.21317 0.15406,0.25977 6.0301,0.12937 6.29818,-0.13977 z m 8.3945,-6.62915 c -0.0382,-3.6744 -0.14057,-8.70479 -0.2274,-11.17865 l -0.15788,-4.49791 -3.43542,-1.80801 c -1.88948,-0.99441 -3.4766,-1.76683 -3.52693,-1.7165 -0.0653,0.0653 0.24621,20.43517 0.3908,25.55107 0.007,0.24748 0.89242,0.33073 3.51785,0.33073 h 3.50851 z m 7.71968,6.44399 c 0.0805,-0.1302 0.0685,-4.22447 -0.0266,-9.09837 l -0.17294,-8.86163 -3.09608,-1.61726 c -1.70284,-0.88949 -3.17212,-1.61725 -3.26505,-1.61725 -0.21515,0 -0.2133,3.94331 0.006,13.69218 l 0.17443,7.73907 h 3.11676 c 1.71421,0 3.18259,-0.10653 3.26306,-0.23674 z m 6.88188,-0.004 c 0.082,-0.13262 0.0699,-3.40651 -0.0268,-7.2753 l -0.17583,-7.03418 -2.72645,-1.45595 c -1.49954,-0.80077 -2.76731,-1.45594 -2.81727,-1.45594 -0.12642,0 0.082,16.7244 0.21353,17.13177 0.12716,0.39392 5.29304,0.47759 5.53283,0.0896 z m 6.4436,-0.15417 c 0.0435,-0.0394 -0.004,-2.50392 -0.10498,-5.47675 l -0.18408,-5.40514 -2.43249,-1.24058 c -1.33786,-0.68231 -2.48125,-1.24066 -2.54085,-1.24077 -0.15362,-2.7e-4 0.003,13.02113 0.16222,13.4557 0.1044,0.28561 0.62895,0.32 2.57608,0.16889 1.34475,-0.10435 2.4806,-0.22196 2.5241,-0.26135 z m 2.24957,-3.11043 c 0.52466,-1.05503 1.50088,-2.53916 2.16936,-3.29808 l 1.21542,-1.37985 -2.12325,-1.06754 c -1.16779,-0.58716 -2.18542,-1.06755 -2.26141,-1.06755 -0.076,0 -0.13817,1.96453 -0.13817,4.36562 0,2.4011 0.0414,4.36563 0.0921,4.36563 0.0506,0 0.52133,-0.86321 1.046,-1.91823 z m -76.808887,-3.5038 v -3.56995 l -2.24038,1.11112 -2.24039,1.11112 1.42163,1.26708 c 0.78189,0.69689 1.7603,1.80315 2.17424,2.45835 0.41394,0.6552 0.78238,1.19149 0.81876,1.19175 0.0364,2.6e-4 0.0661,-1.606 0.0661,-3.56947 z m 84.666667,-3.71702 c 0.65485,-0.2356 1.90412,-0.57792 2.77615,-0.76069 l 1.58553,-0.33232 -4.09933,-1.36626 c -2.25462,-0.75145 -4.17098,-1.36627 -4.25856,-1.36627 -0.13937,0 0.32453,3.29844 0.69777,4.9613 l 0.13371,0.59567 0.98705,-0.65152 c 0.54289,-0.35835 1.52284,-0.8443 2.17768,-1.07991 z m -101.356777,-0.0163 c 0.59383,-0.095 1.07969,-0.20377 1.07969,-0.24181 0,-0.17875 -23.30505,-69.55854 -23.39546,-69.64895 -0.0568,-0.0568 -0.45503,0.0786 -0.88495,0.30094 -0.42992,0.22232 -1.57207,0.60276 -2.53813,0.84543 -0.96605,0.24266 -1.75622,0.51603 -1.75592,0.60747 2.6e-4,0.0915 5.23904,15.75956 11.64166,34.81801 6.40263,19.05845 11.64114,34.67706 11.64114,34.70802 0,0.031 0.70476,-0.23007 1.56614,-0.58008 0.86138,-0.35001 2.05201,-0.71407 2.64583,-0.80903 z m 11.02885,-0.68382 c 0.20293,-1.06411 0.36911,-2.07948 0.36928,-2.25638 2e-4,-0.20559 -1.43805,0.17632 -3.98569,1.05833 l -3.986,1.37998 2.0473,0.34196 c 1.12602,0.18809 2.71136,0.61249 3.52298,0.94313 0.81163,0.33064 1.51787,0.57113 1.56942,0.53443 0.0516,-0.0367 0.25978,-0.93735 0.46271,-2.00145 z m 104.588837,-3.05922 c 1.46118,-4.61628 20.34858,-64.76892 20.55055,-65.44948 0.0976,-0.32884 -0.12489,-0.46841 -0.95939,-0.60185 -0.59755,-0.0956 -1.7851,-0.45763 -2.63902,-0.8046 l -1.55257,-0.63087 -0.53239,1.6296 c -0.99719,3.05235 -21.17865,67.37116 -21.33635,67.99949 -0.14583,0.58103 -0.0472,0.64808 1.38344,0.94072 0.84724,0.17331 1.89764,0.47847 2.3342,0.67815 0.43656,0.19968 0.93747,0.37272 1.11312,0.38454 0.1861,0.0125 0.86978,-1.71742 1.63841,-4.1457 z m -82.394117,-7.2099 c 10.685837,-5.60255 19.427477,-10.24599 19.425857,-10.31875 -0.002,-0.0728 -7.17038,-5.32872 -15.930597,-11.67992 -12.81821,-9.29325 -15.96412,-11.46268 -16.11434,-11.1125 -0.10266,0.23932 -1.80511,9.96013 -3.78322,21.6018 -1.9781,11.64167 -3.64986,21.32414 -3.71501,21.51662 -0.0703,0.20779 0.0454,0.31527 0.28503,0.26458 0.22192,-0.0469 9.14644,-4.66927 19.83228,-10.27183 z m -12.02918,0.99219 c 0.0217,-1.13166 4.42259,-25.73073 4.6033,-25.73073 0.37587,0 18.905367,13.47929 18.847677,13.71075 -0.0297,0.11936 -4.63521,2.62821 -10.234357,5.57523 -5.59915,2.94703 -10.77464,5.67711 -11.50108,6.06685 -1.48662,0.79759 -1.72462,0.85001 -1.71554,0.3779 z m 5.14928,-6.94531 c 1.98873,-2.54662 3.66738,-4.63021 3.73032,-4.63021 0.0629,0 -1.25205,2.04767 -2.9222,4.55037 -1.67015,2.5027 -3.00042,4.58658 -2.95615,4.63085 0.0443,0.0443 3.86954,-1.90587 8.50061,-4.33363 6.454787,-3.38383 8.302167,-4.46037 7.914797,-4.61226 -0.27792,-0.10898 -1.815,-0.22059 -3.415727,-0.24804 -4.51546,-0.0774 -5.0945,-0.44565 -0.79375,-0.50476 2.0373,-0.028 4.223947,-0.13139 4.859237,-0.22975 l 1.15507,-0.17882 -7.593167,-5.51225 c -4.17624,-3.03174 -7.6374,-5.46802 -7.69145,-5.41396 -0.0541,0.054 0.54906,2.29644 1.34026,4.98308 0.79119,2.68664 1.41006,4.97647 1.37524,5.08851 -0.0348,0.11204 -0.82491,-1.85249 -1.75578,-4.36563 -1.59131,-4.29617 -2.14045,-5.51545 -2.14045,-4.75254 0,0.33445 -3.08403,18.52898 -3.31615,19.56393 -0.0734,0.32743 -0.0825,0.59532 -0.02,0.59532 0.0624,0 1.7406,-2.0836 3.72934,-4.63021 z m 69.192277,15.86946 c 0,-0.60242 -7.13709,-42.23681 -7.35376,-42.89833 -0.16974,-0.51826 -1.64656,0.48775 -16.11871,10.98021 -8.76251,6.35291 -15.93203,11.61027 -15.93227,11.68303 -5.2e-4,0.14864 38.89606,20.614 39.2063,20.62833 0.10914,0.005 0.19844,-0.17191 0.19844,-0.39324 z m -17.51812,-15.30152 c -6.36075,-3.3683 -11.62995,-6.19433 -11.70933,-6.28005 -0.0794,-0.0857 4.15471,-3.27837 9.4091,-7.09478 5.25439,-3.81642 9.58161,-6.90144 9.61605,-6.85561 0.0344,0.0458 0.81097,4.48864 1.72561,9.87291 0.91465,5.38428 1.93055,11.30764 2.25756,13.16303 0.32701,1.85539 0.52064,3.36112 0.43028,3.34607 -0.0904,-0.0151 -5.36852,-2.78326 -11.72927,-6.15157 z m 6.14433,-1.35676 c -1.89358,-2.83494 -3.44214,-5.30549 -3.44125,-5.4901 8e-4,-0.18462 0.16755,-0.0177 0.37034,0.37103 0.3889,0.74539 6.67818,8.86151 7.04034,9.08535 0.1162,0.0718 0.16424,-0.078 0.10677,-0.33283 -0.0575,-0.25486 -0.82459,-4.6845 -1.70471,-9.84364 -0.88012,-5.15914 -1.64026,-9.42029 -1.6892,-9.46923 -0.0489,-0.0489 -0.83623,1.9419 -1.74955,4.42407 -0.91331,2.48216 -1.70962,4.46398 -1.76957,4.40404 -0.0599,-0.06 0.50595,-2.21265 1.25754,-4.78378 0.75159,-2.57114 1.32054,-4.72079 1.26432,-4.777 -0.19068,-0.19069 -14.75408,10.52962 -14.61346,10.75716 0.0768,0.12432 1.88885,0.22786 4.02669,0.23009 2.13784,0.002 4.06558,0.11947 4.28386,0.26053 0.27009,0.17455 -0.57515,0.26614 -2.64583,0.2867 -1.67349,0.0166 -3.65384,0.10774 -4.40078,0.20249 l -1.35807,0.17227 9.16328,4.82169 c 5.0398,2.65193 9.19453,4.82482 9.23272,4.82865 0.0382,0.004 -1.47985,-2.31255 -3.37344,-5.14749 z m -73.747597,13.40384 c 0.86346,-0.28545 1.30316,-0.59032 1.38504,-0.96037 0.37136,-1.67813 0.92953,-5.51737 0.81832,-5.62858 -0.11413,-0.11412 -9.71064,3.12378 -11.99054,4.04566 l -0.8492,0.34337 0.78444,2.33307 c 0.43144,1.28319 0.83784,2.4773 0.90311,2.65358 0.0831,0.22437 1.25319,-0.0828 3.90121,-1.02401 2.0804,-0.73949 4.35183,-1.53271 5.04762,-1.76272 z m 98.796207,-0.0672 c 0.55607,-1.81493 0.72085,-2.70033 0.51628,-2.77411 -0.92643,-0.33412 -13.5557,-4.34518 -13.68781,-4.34725 -0.20372,-0.003 0.79137,5.89377 1.03367,6.12556 0.19496,0.18651 10.57563,3.61032 11.04365,3.64248 0.15261,0.0105 0.64501,-1.18052 1.09421,-2.64668 z M 69.960163,198.53664 c 2.25557,-0.7719 4.23368,-1.53379 4.39579,-1.6931 0.32552,-0.31989 1.29382,-5.93301 1.06326,-6.16358 -0.2453,-0.2453 -16.30697,5.26763 -16.30697,5.59713 0,0.34548 1.46151,4.75368 1.7086,5.15349 0.0923,0.14935 1.16736,-0.10633 2.59787,-0.61785 1.34222,-0.47995 4.28588,-1.50419 6.54145,-2.27609 z m 102.832047,-0.15047 c 0.46671,-1.44431 0.76738,-2.70292 0.66816,-2.79691 -0.20178,-0.19114 -17.30696,-5.5474 -17.39923,-5.44834 -0.0644,0.0691 0.86964,5.6519 1.02219,6.10957 0.0982,0.29467 14.14626,4.93622 14.60243,4.82473 0.14184,-0.0347 0.63974,-1.24475 1.10645,-2.68905 z m -97.263137,-9.37968 c 0.56657,-0.30322 1.67234,-6.6078 1.15895,-6.6078 -0.40152,0 -19.66071,6.49466 -19.86501,6.69895 -0.12131,0.12132 1.32876,4.91659 1.6706,5.5245 0.0956,0.17011 16.05442,-5.09061 17.03546,-5.61565 z m 99.430797,2.48932 c 0.4729,-1.54502 0.80626,-2.86268 0.7408,-2.92814 -0.1725,-0.1725 -20.92551,-6.64655 -21.02572,-6.55913 -0.21658,0.18893 1.06347,6.37103 1.36109,6.57356 0.33098,0.22522 17.23798,5.63806 17.78626,5.69433 0.15277,0.0157 0.66468,-1.2356 1.13757,-2.78062 z M 66.580923,184.35297 c 5.49022,-1.83846 10.16535,-3.47676 10.38919,-3.64066 0.39768,-0.2912 1.63519,-6.42542 1.35315,-6.70746 -0.1488,-0.14881 -23.46454,7.56387 -23.80467,7.87441 -0.12542,0.11451 0.15848,1.37955 0.63088,2.81121 0.94561,2.86576 1.00168,2.9987 1.26641,3.00253 0.10055,10e-4 4.67482,-1.50156 10.16504,-3.34003 z m 58.191377,-3.07545 8.48402,-6.15487 -0.17474,-4.10104 c -0.32304,-7.58191 -1.29904,-12.40405 -3.3569,-16.58553 -1.6259,-3.30374 -4.74513,-6.43322 -6.41215,-6.43322 -0.33754,0 -0.29552,0.22303 0.23675,1.25677 2.92543,5.68153 -0.29992,13.3311 -8.04094,19.07071 -3.72706,2.76345 -8.95666,5.46085 -13.40918,6.91638 -1.01432,0.33158 -1.92268,0.67744 -2.01859,0.76857 -0.252477,0.23988 15.45428,11.64825 15.86397,11.52256 0.18906,-0.058 4.16155,-2.87516 8.82776,-6.26033 z m 52.30715,3.43627 c 0.42989,-1.34606 0.82243,-2.67213 0.87231,-2.94681 0.0802,-0.44183 -1.32678,-0.93603 -12.20351,-4.28634 -6.76182,-2.08281 -12.34937,-3.73178 -12.41678,-3.66437 -0.13006,0.13006 0.93481,6.45798 1.1175,6.64067 0.17999,0.17999 20.91545,6.65226 21.39825,6.67915 0.34201,0.019 0.63896,-0.56468 1.23223,-2.4223 z M 66.255963,176.54614 c 6.62122,-2.20026 12.17037,-4.13502 12.33145,-4.29948 0.30689,-0.31333 1.53306,-7.29252 1.31885,-7.50673 -0.23226,-0.23226 -28.20235,9.23402 -28.20227,9.54486 4e-5,0.16978 0.4206,1.49932 0.93457,2.95452 0.51396,1.45521 0.98644,2.79467 1.04994,2.97657 0.0635,0.1819 0.20849,0.33073 0.32218,0.33073 0.11369,0 5.62407,-1.80021 12.24528,-4.00047 z m 113.331437,0.25885 c 0.54975,-1.76684 0.90328,-3.30017 0.78563,-3.40738 -0.36351,-0.33127 -28.38877,-8.81747 -28.55855,-8.64768 -0.0879,0.0879 0.12503,1.80134 0.47319,3.80764 l 0.63301,3.64781 12.56089,3.88634 c 6.90849,2.13749 12.68361,3.8952 12.8336,3.90603 0.14999,0.0108 0.72249,-1.42591 1.27223,-3.19276 z m -75.87586,-3.01785 c 9.27808,-4.57548 15.62088,-10.00851 17.72242,-15.18043 0.81213,-1.99867 0.84709,-3.79358 0.0978,-5.02259 l -0.54931,-0.90103 -0.8614,1.56248 c -2.38206,4.32077 -8.69292,5.98023 -14.90118,3.91833 -5.15529,-1.71218 -10.613297,-5.88001 -15.039257,-11.4842 -0.86205,-1.09154 -1.66574,-2.04404 -1.78598,-2.11667 -0.26322,-0.15899 -6.2774,18.18359 -6.10374,18.61572 0.11399,0.28365 16.97017,12.60536 17.24422,12.60536 0.0699,0 1.949217,-0.89864 4.176387,-1.99697 z m 37.92052,-4.74991 c 4.22438,-3.05594 7.73548,-5.68934 7.80246,-5.852 0.16503,-0.4008 -6.17239,-19.7622 -6.54824,-20.00544 -0.70025,-0.45318 -7.14765,-2.70068 -9.82299,-3.42419 -6.96223,-1.88286 -13.95197,-1.03068 -16.78874,2.04685 -1.01822,1.10463 -1.30944,1.79115 -0.8722,2.05607 0.10914,0.0661 0.94869,-0.0639 1.86567,-0.28891 1.40818,-0.34557 1.95077,-0.35848 3.49211,-0.083 2.0237,0.36165 4.95862,1.66118 6.29136,2.78569 2.20566,1.86106 4.83958,6.19092 5.9617,9.80037 1.39313,4.4812 1.60264,11.1685 0.5543,17.69251 -0.10578,0.65829 -0.0666,0.98888 0.1097,0.92604 0.15081,-0.0537 3.7305,-2.59803 7.95487,-5.65397 z m -76.184647,-0.95754 c 7.50248,-2.49118 13.72837,-4.60868 13.8353,-4.70557 0.10694,-0.0969 -0.93588,-1.30177 -2.31736,-2.6775 l -2.51179,-2.50135 -11.83784,3.93342 c -6.51082,2.16338 -12.21735,4.08761 -12.68117,4.27607 l -0.84332,0.34266 0.96827,2.93084 c 0.64922,1.9651 1.09657,2.93085 1.35765,2.93085 0.21416,0 6.52777,-2.03824 14.03026,-4.52942 z m 116.545447,1.03749 c 0.51034,-1.62952 0.86757,-3.02309 0.79383,-3.09683 -0.0737,-0.0737 -5.81479,-1.88598 -12.7579,-4.02722 l -12.62383,-3.89316 -2.57113,2.54472 c -1.41412,1.3996 -2.51738,2.59848 -2.45168,2.66418 0.14804,0.14804 27.91891,8.71195 28.36218,8.74625 0.18416,0.0143 0.71557,-1.23623 1.24853,-2.93794 z M 72.932463,157.28714 c 0.1068,-0.0958 -1.02625,-1.39038 -2.51788,-2.87693 l -2.71206,-2.70284 -10.31441,3.43862 c -5.67293,1.89124 -10.45715,3.49243 -10.63161,3.5582 -0.22394,0.0844 -0.0162,1.01568 0.70663,3.16713 0.56311,1.67615 1.09371,3.1606 1.17912,3.29878 0.1397,0.22605 23.81583,-7.45762 24.29021,-7.88296 z m 111.453277,4.19631 c 0.58114,-1.83029 0.91083,-3.27613 0.77408,-3.39472 -0.28817,-0.24989 -20.25408,-6.38171 -20.77958,-6.38171 -0.20359,0 -1.59357,1.22759 -3.08885,2.72799 l -2.7187,2.72798 12.11613,3.73673 c 6.66388,2.05521 12.24405,3.74464 12.40039,3.75431 0.15634,0.01 0.73978,-1.4171 1.29653,-3.17058 z M 87.289393,143.03471 c 3.31534,-10.2268 5.95551,-18.66656 5.86705,-18.75502 -0.14307,-0.14308 -28.21607,3.78655 -31.53066,4.41363 -0.7276,0.13765 -3.70416,0.56765 -6.61458,0.95555 -2.91042,0.3879 -5.38838,0.7903 -5.50659,0.89423 -0.1182,0.10393 6.94666,7.17995 15.6997,15.72449 8.75304,8.54454 15.9467,15.49632 15.98591,15.44842 0.0392,-0.0479 2.78384,-8.4545 6.09917,-18.6813 z m -17.19018,1.16265 -9.51824,-9.3425 0.91928,-0.16062 c 2.97444,-0.51969 25.42867,-3.67748 25.51756,-3.58859 0.1367,0.13669 -7.09044,22.45221 -7.26807,22.4419 -0.0728,-0.004 -4.4155,-4.21181 -9.65053,-9.35019 z m 7.01045,1.55078 c -0.72099,-2.60173 -1.2729,-4.76841 -1.22648,-4.81483 0.0464,-0.0464 0.82472,1.97828 1.72955,4.49933 0.90484,2.52105 1.74564,4.74631 1.86844,4.94502 0.14644,0.23694 1.19566,-2.62058 3.04848,-8.30248 1.55385,-4.76507 2.76644,-8.7225 2.69464,-8.7943 -0.0718,-0.0718 -2.34497,1.3738 -5.0515,3.21245 -2.70653,1.83865 -4.92096,3.29379 -4.92096,3.23364 0,-0.0602 2.01905,-1.70034 4.48679,-3.64487 2.46774,-1.94453 4.44982,-3.57249 4.40463,-3.61768 -0.10578,-0.10578 -18.30963,2.5121 -19.28546,2.77343 -0.63061,0.16887 -0.0102,0.45979 4.30725,2.01956 2.7742,1.00225 5.0085,1.85775 4.96513,1.90113 -0.0434,0.0434 -2.33618,-0.56829 -5.09512,-1.35925 -2.75895,-0.79095 -5.07844,-1.43247 -5.15443,-1.42559 -0.076,0.007 3.13605,3.21154 7.13787,7.12147 4.00182,3.90992 7.3044,7.0807 7.33905,7.04618 0.0347,-0.0345 -0.52689,-2.19147 -1.24788,-4.79321 z m 90.690977,-0.75795 c 8.04595,-7.84823 14.53486,-14.34933 14.41979,-14.44688 -0.2591,-0.21964 -43.32381,-6.45203 -43.65423,-6.31771 -0.1313,0.0534 2.49902,8.5156 5.84515,18.80495 l 6.08387,18.7079 1.3382,-1.23937 c 0.73601,-0.68165 7.92126,-7.66065 15.96722,-15.50889 z m -18.80098,-3.91842 c -1.98968,-6.14044 -3.59135,-11.18719 -3.55928,-11.21501 0.11931,-0.1035 26.0962,3.74682 26.23846,3.88908 0.15624,0.15624 -18.56201,18.49035 -18.87776,18.49035 -0.1011,0 -1.81174,-5.02399 -3.80142,-11.16442 z m 19.53704,-5.70558 c -0.0498,-0.0498 -2.20159,0.51701 -4.78174,1.25958 -2.58016,0.74257 -4.7393,1.30202 -4.7981,1.24323 -0.0588,-0.0588 1.98325,-0.85708 4.53787,-1.77396 2.55461,-0.91688 4.68969,-1.73976 4.74462,-1.82863 0.0549,-0.0889 -4.47371,-0.82434 -10.06363,-1.63439 -5.58991,-0.81005 -10.16347,-1.44452 -10.16347,-1.40993 0,0.0346 1.96453,1.63281 4.36562,3.5516 2.4011,1.91879 4.36563,3.54039 4.36563,3.60355 0,0.0632 -2.10342,-1.31712 -4.67426,-3.06731 -2.57084,-1.7502 -4.7147,-3.14173 -4.76414,-3.09229 -0.0696,0.0696 4.72142,15.14299 5.34472,16.81527 0.0756,0.20273 0.19814,0.30785 0.27239,0.23359 0.0743,-0.0743 0.95906,-2.38325 1.96623,-5.1311 1.00716,-2.74785 1.83658,-4.90841 1.84313,-4.80125 0.007,0.10716 -0.58338,2.31806 -1.31099,4.91312 -0.7276,2.59506 -1.32292,4.86822 -1.32292,5.05146 0,0.18324 3.26916,-2.85625 7.2648,-6.75441 3.99563,-3.89817 7.22404,-7.12832 7.17424,-7.17813 z M 56.334073,154.18435 c 5.52982,-1.83893 10.11374,-3.3986 10.1865,-3.46594 0.0728,-0.0673 -1.04665,-1.22009 -2.48758,-2.56166 l -2.61987,-2.43923 -8.49263,2.76048 c -4.67094,1.51827 -8.57995,2.84012 -8.68667,2.93744 -0.1979,0.18048 1.65226,6.11242 1.90645,6.11242 0.0768,0 4.66399,-1.50458 10.1938,-3.34351 z m 56.753177,2.79211 c 1.49771,-0.679 2.38144,-1.49817 2.38059,-2.2067 -5.3e-4,-0.50154 -0.15555,-0.5492 -1.78594,-0.5492 -6.5272,0 -10.17641,-6.78325 -8.1133,-15.08125 0.91818,-3.693 4.46463,-9.624 8.74098,-14.61823 l 0.96285,-1.12448 h -9.92374 c -8.680637,0 -9.966767,0.0519 -10.267307,0.41399 -0.34041,0.41017 -6.58843,19.25472 -6.59629,19.895 -0.007,0.56762 7.15158,7.59084 9.46501,9.28606 4.181107,3.0638 7.877387,4.4894 11.697557,4.51155 1.71886,0.01 2.5296,-0.1142 3.43959,-0.52674 z m 73.74056,-3.24603 c 0.49825,-1.57926 0.84779,-2.9295 0.77676,-3.00054 -0.071,-0.071 -3.91817,-1.29522 -8.54919,-2.72041 l -8.42003,-2.59127 -1.45582,1.27037 c -2.0634,1.80056 -3.83071,3.65779 -3.65136,3.83714 0.25415,0.25415 19.63004,6.18273 20.02588,6.12745 0.22078,-0.0308 0.73001,-1.19929 1.27376,-2.92274 z m -75.96355,-3.71547 c 0.0779,-0.20303 0.008,-0.86595 -0.15563,-1.47316 -0.60946,-2.26335 0.69549,-5.79653 2.83718,-7.68172 2.59876,-2.28752 5.92812,-3.288 10.91852,-3.28104 5.00294,0.007 8.97658,1.02429 15.8431,4.05611 1.36491,0.60265 2.51648,1.0609 2.55905,1.01833 0.1461,-0.1461 -5.91458,-18.47836 -6.2377,-18.86769 -0.27412,-0.33029 -1.87676,-0.38919 -10.59078,-0.38919 h -10.26778 l -1.8816,2.5034 c -5.76704,7.67285 -8.39613,13.85131 -7.70317,18.10278 0.52597,3.22704 1.35893,4.82656 3.06534,5.88637 0.94757,0.58851 1.42173,0.62548 1.61347,0.12581 z m -58.895837,-2.57748 c 4.43842,-1.47512 8.12398,-2.72979 8.19013,-2.78815 0.0661,-0.0584 -0.856,-1.08237 -2.04922,-2.27559 l -2.16948,-2.16948 -7.01276,2.33199 c -3.85702,1.2826 -7.01277,2.41191 -7.01277,2.50958 0,0.4415 1.65039,5.07369 1.80769,5.07369 0.0971,0 3.80799,-1.20692 8.24641,-2.68204 z m 137.042167,-0.67209 c 0.44018,-1.40821 0.77181,-2.58584 0.73693,-2.61694 -0.0349,-0.0311 -3.08773,-1.03296 -6.78415,-2.22635 l -6.72075,-2.1698 -2.26311,2.26312 c -1.24471,1.24471 -2.20897,2.31555 -2.14279,2.37965 0.18914,0.1832 15.4127,4.87152 15.91985,4.90276 0.349,0.0215 0.63838,-0.5629 1.25402,-2.53244 z M 54.782313,139.19181 c 0.0528,-0.0528 -0.79617,-0.89774 -1.88666,-1.87759 l -1.9827,-1.78155 -5.34701,1.87931 c -2.94085,1.03363 -5.39455,1.92687 -5.45267,1.98498 -0.0581,0.0581 0.21037,1.05463 0.59663,2.21446 l 0.70229,2.1088 6.63704,-2.21618 c 3.65037,-1.2189 6.68025,-2.2594 6.73308,-2.31223 z m 136.225537,1.24315 c 0.38187,-1.25193 0.65696,-2.30889 0.61133,-2.3488 -0.1458,-0.12753 -9.80105,-3.04789 -10.07686,-3.04789 -0.397,0 -4.20835,3.48029 -4.02065,3.6714 0.25731,0.26199 11.57004,3.94294 12.21259,3.97375 0.5034,0.0241 0.67026,-0.27045 1.27359,-2.24846 z M 34.391253,139.77655 c 2.75186,-0.50621 5.22408,-1.84943 7.3701,-4.00433 2.22406,-2.23327 3.38537,-4.3596 4.01346,-7.34853 1.56065,-7.4267 -3.97749,-15.14891 -11.78957,-16.43905 -4.97368,-0.82138 -10.45698,1.57083 -13.48556,5.88337 -1.8772,2.67304 -2.53015,4.74844 -2.53015,8.04214 0,3.29943 0.65307,5.36926 2.54336,8.06094 3.17715,4.5241 8.57329,6.78136 13.87836,5.80546 z m -5.17693,-4.35116 c -3.14655,-0.87754 -5.61958,-3.28359 -6.61336,-6.43426 -2.30218,-7.29876 3.85479,-14.26643 11.25537,-12.73738 2.26418,0.46781 3.81508,1.34472 5.35162,3.02594 4.46637,4.88693 2.95426,12.73726 -2.99207,15.53375 -2.03511,0.95708 -4.87427,1.20523 -7.00156,0.61195 z m 6.41635,-0.85482 c 1.74715,-0.77985 4.0167,-3.00785 4.8838,-4.79439 0.62081,-1.2791 0.72074,-1.81465 0.72141,-3.86603 8e-4,-2.09807 -0.0901,-2.56267 -0.76368,-3.90675 -0.90947,-1.81487 -3.09556,-3.96831 -4.84153,-4.76923 -1.93718,-0.88863 -5.49354,-0.83097 -7.52667,0.12204 -1.8369,0.86103 -3.63259,2.60548 -4.62797,4.49589 -0.67129,1.27489 -0.74361,1.66949 -0.7438,4.05805 -1.7e-4,2.2834 0.0866,2.80892 0.63329,3.83645 1.36885,2.57272 2.77482,3.88681 5.2986,4.95234 1.89242,0.79898 5.01799,0.74138 6.96655,-0.12837 z m -4.0351,-5.29693 v -3.1188 l -1.30114,-1.28159 c -1.45011,-1.42829 -1.97541,-2.47545 -0.98799,-1.96947 0.31314,0.16045 0.95629,0.658 1.42924,1.10564 l 0.85989,0.81391 v -2.68213 c 0,-1.50267 0.11635,-2.75402 0.26459,-2.84564 0.1707,-0.1055 0.26458,0.94866 0.26458,2.9709 v 3.13441 l 1.30115,1.28158 c 2.1558,2.12339 1.86538,3.05233 -0.30896,0.98823 l -0.99219,-0.94189 v 2.83183 c 0,1.71149 -0.10467,2.83182 -0.26458,2.83182 -0.16143,0 -0.26459,-1.21599 -0.26459,-3.1188 z m 173.116697,8.71606 c 2.99534,-1.05277 6.1201,-3.73788 7.66566,-6.58709 0.85789,-1.58151 1.78213,-4.97903 1.77556,-6.52697 -0.0265,-6.23373 -4.6686,-12.19719 -10.72203,-13.77391 -6.96901,-1.81519 -14.43445,2.31703 -16.82704,9.31402 -0.85416,2.49792 -0.85696,6.10165 -0.007,8.58749 2.60765,7.62356 10.64614,11.61139 18.11452,8.98646 z m -7.40175,-3.84684 c -2.44926,-0.79825 -4.6597,-2.81816 -5.8243,-5.3223 -0.64418,-1.38511 -0.73865,-1.90866 -0.74103,-4.1066 -0.002,-2.31024 0.0686,-2.66393 0.85714,-4.26577 1.01943,-2.07075 2.68005,-3.69655 4.78233,-4.68206 1.31215,-0.61511 1.83528,-0.7039 4.14738,-0.7039 2.31001,0 2.83054,0.0882 4.10104,0.69463 2.02466,0.96646 3.4669,2.30583 4.43131,4.11523 2.75117,5.16172 0.93434,11.09452 -4.209,13.74435 -1.19708,0.61673 -1.79693,0.74005 -3.92647,0.80722 -1.60991,0.0508 -2.91075,-0.0502 -3.6184,-0.2808 z m 6.93179,-0.79314 c 4.2118,-1.92823 6.55754,-6.80745 5.31976,-11.06528 -2.01294,-6.92425 -10.52223,-9.22772 -15.52495,-4.20262 -2.00441,2.01337 -2.70601,3.55162 -2.84147,6.22989 -0.0871,1.72109 0.002,2.41811 0.46588,3.64807 1.03686,2.74896 3.90661,5.27983 6.81891,6.01368 1.54087,0.38828 4.17393,0.10324 5.76187,-0.62374 z m -6.38412,-2.21405 c 0.21035,-0.40019 0.92746,-1.2581 1.59359,-1.90648 l 1.21113,-1.17887 1.05904,1.03413 1.05905,1.03413 v -4.94849 c 0,-2.72167 -0.0836,-4.94849 -0.18584,-4.94849 -0.10221,0 -0.5792,0.38126 -1.05997,0.84724 l -0.87412,0.84724 -1.21022,-1.17797 c -1.1154,-1.08569 -2.18511,-2.63317 -1.82018,-2.63317 0.0852,0 0.80679,0.61651 1.60352,1.37002 l 1.4486,1.37003 1.31369,-1.29394 1.31369,-1.29393 v 6.72698 6.72699 l -1.31369,-1.29394 -1.31369,-1.29393 -1.4486,1.37003 c -0.79673,0.75351 -1.51831,1.37002 -1.60352,1.37002 -0.0852,0 0.0172,-0.32742 0.22752,-0.7276 z m -151.529457,4.66632 c 1.71942,-0.59861 3.21425,-1.16884 3.32185,-1.2672 0.1076,-0.0984 -0.56675,-0.93443 -1.49855,-1.85795 l -1.69419,-1.67913 -0.60665,1.41019 c -0.51241,1.19115 -1.26223,2.35169 -2.68239,4.15173 -0.36704,0.46521 -0.32058,0.45407 3.15993,-0.75764 z m 142.787917,-0.0361 c -0.11101,-0.18191 -0.68358,-0.92605 -1.27239,-1.65365 -0.5888,-0.7276 -1.29961,-1.83474 -1.57958,-2.4603 l -0.50902,-1.13739 -1.68583,1.66655 -1.68582,1.66656 3.38547,1.09988 c 1.86201,0.60493 3.42227,1.11095 3.46724,1.12448 0.045,0.0135 -0.009,-0.12423 -0.12007,-0.30613 z M 49.454933,128.38992 c 1.10329,-0.16409 1.97136,-0.37791 1.92904,-0.47514 -0.14886,-0.34207 -4.55153,-6.34949 -4.61028,-6.29073 -0.0327,0.0327 0.06,0.61982 0.20608,1.30467 0.14606,0.68485 0.22695,2.2612 0.17975,3.50299 -0.0472,1.24179 -10e-4,2.25752 0.10181,2.25718 0.1032,-2.7e-4 1.09032,-0.13488 2.1936,-0.29897 z m 135.404927,-2.67821 c -0.0557,-1.63711 -0.12473,-3.14961 -0.15332,-3.36111 -0.0456,-0.33748 -3.75655,4.63424 -4.07136,5.45463 -0.0784,0.20442 0.32807,0.37579 1.15671,0.48763 0.70271,0.0949 1.39671,0.21322 1.54223,0.26304 0.14552,0.0498 0.57115,0.1 0.94583,0.11148 l 0.68124,0.0209 -0.10133,-2.97656 z m -127.640257,1.56791 2.20839,-0.31114 -3.48363,-4.7625 c -1.916,-2.61938 -3.64261,-4.92554 -3.83692,-5.12481 -0.29766,-0.30525 -0.69107,-0.118 -2.49854,1.18924 -1.38004,0.99811 -2.09517,1.68204 -2.00486,1.91738 0.0772,0.20121 1.33783,2.01752 2.80137,4.03625 l 2.66098,3.67041 0.9724,-0.15184 c 0.53483,-0.0835 1.96619,-0.29186 3.18081,-0.46299 z m 124.862857,-3.99253 c 1.77982,-2.53409 3.23604,-4.72854 3.23604,-4.87657 0,-0.42742 -4.24797,-3.30802 -4.49798,-3.05013 -0.46828,0.48306 -8.23144,11.53419 -8.15257,11.60549 0.081,0.0732 4.98085,0.83395 5.77649,0.89686 0.23807,0.0188 1.7215,-1.84694 3.63802,-4.57565 z m -6.67443,-2.68865 c 2.43099,-3.43076 4.31588,-6.33386 4.18866,-6.45133 -0.12722,-0.11748 -1.17633,-0.88561 -2.33134,-1.70695 -1.6839,-1.19745 -2.16327,-1.4264 -2.41924,-1.15544 -0.78206,0.82787 -10.15835,14.3235 -10.03628,14.44557 0.075,0.075 1.41621,0.33906 2.98037,0.58668 1.56416,0.24763 2.92356,0.46575 3.02089,0.48472 0.0973,0.019 2.16596,-2.77249 4.59694,-6.20325 z m -110.776777,5.58674 c 1.36196,-0.20732 2.52941,-0.43005 2.59433,-0.49497 0.0649,-0.0649 -2.0568,-3.09784 -4.71493,-6.73981 l -4.83296,-6.62179 -1.46764,1.0295 c -0.80721,0.56622 -1.87031,1.36564 -2.36244,1.7765 l -0.8948,0.74701 3.92376,5.34499 c 4.43229,6.03772 3.70795,5.57455 7.75468,4.95857 z m 8.57835,-1.22899 c 1.35427,-0.18605 2.28541,-0.43316 2.23232,-0.59243 -0.16586,-0.49758 -11.69539,-16.28178 -11.9045,-16.29754 -0.43761,-0.033 -4.66331,3.30951 -4.56121,3.60788 0.0595,0.17382 2.33765,3.37067 5.06259,7.10411 l 4.95444,6.78808 0.94648,-0.14547 c 0.52056,-0.08 1.99201,-0.28909 3.26988,-0.46463 z m 95.374007,-7.21912 c 2.97064,-4.20414 5.2942,-7.71649 5.16348,-7.8052 -0.13072,-0.0887 -1.2212,-0.86057 -2.42328,-1.71523 -1.20309,-0.85537 -2.28224,-1.45007 -2.40058,-1.32291 -0.54646,0.58719 -12.47793,17.61579 -12.39853,17.69519 0.17373,0.17373 5.12187,0.87443 5.88567,0.83347 0.69705,-0.0374 1.29698,-0.78427 6.17324,-7.68532 z m -84.668137,5.55075 c 0.14132,-0.14132 -14.03851,-19.71543 -14.29004,-19.72626 -0.11134,-0.005 -1.26558,0.78762 -2.56496,1.7609 -1.49064,1.11653 -2.29473,1.88609 -2.17881,2.08526 0.10104,0.17361 2.91735,4.05677 6.25847,8.62924 l 6.07476,8.31359 3.29907,-0.48015 c 1.81449,-0.26408 3.34517,-0.52624 3.40151,-0.58258 z m 77.366527,-7.9589 c 3.54294,-5.01931 6.44171,-9.26023 6.44171,-9.42425 0,-0.16403 -1.09104,-1.06002 -2.42453,-1.99108 l -2.42453,-1.69284 -7.39705,10.52178 c -4.06837,5.78698 -7.36212,10.56215 -7.31945,10.61148 0.0427,0.0493 1.48582,0.30381 3.20699,0.5655 1.72117,0.26168 3.20719,0.48921 3.30228,0.50561 0.0951,0.0164 3.07164,-4.07689 6.61458,-9.0962 z m -70.999757,7.12304 c 1.97743,-0.2948 2.95277,-0.54792 2.87656,-0.74652 -0.0823,-0.21445 -16.07781,-22.326331 -16.741,-23.142411 -0.0425,-0.0523 -1.33485,0.82774 -2.87196,1.955581 -1.82083,1.33602 -2.71784,2.15285 -2.5741,2.34399 0.12135,0.16136 3.47828,4.79701 7.45985,10.30144 7.13679,9.86647 7.25067,10.00613 8.04899,9.87101 0.44538,-0.0754 2.15613,-0.33777 3.80166,-0.58309 z M 154.0656,112.43884 c 4.1274,-5.88125 7.50818,-10.79258 7.51286,-10.91407 0.0102,-0.26482 -5.15168,-4.057161 -5.41638,-3.979321 -0.23694,0.0697 -17.36809,24.366181 -17.26452,24.485651 0.0973,0.11224 6.09931,1.03062 7.00012,1.0711 0.58362,0.0262 1.5677,-1.2585 8.16792,-10.66336 z m -18.48591,9.70099 c 0.005,-0.35027 -19.67084,-40.017618 -19.79034,-39.898109 -0.22099,0.220983 -19.635437,39.639209 -19.635437,39.866899 0,0.12776 8.745687,0.22965 19.711457,0.22965 10.8413,0 19.71275,-0.0893 19.71432,-0.19844 z m -31.48828,-4.44868 c 0,-0.0821 2.64787,-5.51753 5.88415,-12.0788 l 5.88415,-11.929591 5.88981,11.973871 c 3.2394,6.58562 5.88981,12.02108 5.88981,12.07879 0,0.0577 -5.29828,0.10493 -11.77396,0.10493 -6.47568,0 -11.77396,-0.0671 -11.77396,-0.1492 z m 21.16667,-0.75487 c 0,-0.16165 -9.20103,-7.29801 -9.40945,-7.29801 -0.20966,0 -9.37597,7.13303 -9.37597,7.29618 0,0.0617 4.22672,0.11215 9.39271,0.11215 5.16599,0 9.39271,-0.0496 9.39271,-0.11032 z m -13.83027,-4.70078 c 2.36154,-1.574 4.35737,-2.86181 4.4352,-2.86181 0.0778,0 2.18762,1.36546 4.68844,3.03435 2.50082,1.6689 4.59215,2.98916 4.64739,2.93391 0.0553,-0.0553 -1.89756,-4.12938 -4.33957,-9.05363 l -4.44003,-8.953171 -0.17971,2.64583 c -0.0988,1.455211 -0.21155,4.134111 -0.25047,5.953121 l -0.0708,3.3073 -0.2117,-4.49792 c -0.11644,-2.47386 -0.24741,-5.152761 -0.29105,-5.953131 l -0.0794,-1.4552 -4.43177,8.795841 c -2.43747,4.83771 -4.43177,8.92262 -4.43177,9.07759 0,0.34591 -0.24519,0.49302 4.95515,-2.97308 z m 34.97864,-3.34647 c 4.53948,-6.4512 8.31007,-11.876621 8.37909,-12.056481 0.11523,-0.30029 -4.82706,-4.05469 -5.03827,-3.8273 -0.36969,0.39802 -15.06145,21.341101 -15.17071,21.625831 -0.077,0.20074 0.55895,1.77866 1.41328,3.50649 1.20121,2.42936 1.62244,3.06663 1.85817,2.8112 0.16766,-0.18166 4.01895,-5.60855 8.55844,-12.05974 z m -50.449787,8.64317 1.52255,-3.20057 -1.65484,-2.29261 c -0.91016,-1.26094 -4.26539,-5.87338 -7.45606,-10.24987 l -5.80123,-7.957261 -2.40086,1.78332 c -1.32047,0.98083 -2.40085,1.95163 -2.40085,2.15732 0,0.3633 16.27179,22.954011 16.53646,22.958161 0.0728,0.001 0.81743,-1.43818 1.65483,-3.19849 z M 75.939653,97.725029 C 92.077973,85.762548 105.3285,75.932433 105.38529,75.880323 c 0.0568,-0.05211 -0.32593,-0.569788 -0.85048,-1.1504 -0.52455,-0.580615 -1.25988,-1.540653 -1.63408,-2.133418 -0.42983,-0.680887 -0.79865,-1.007978 -1.00161,-0.888262 -0.24682,0.14559 -58.203067,43.028357 -58.624877,43.377497 -0.0524,0.0434 0.51314,0.98854 1.25678,2.10037 0.74363,1.11182 1.35205,2.14332 1.35205,2.29222 0,0.1489 0.1607,0.20906 0.3571,0.13369 0.19641,-0.0754 13.56118,-9.92451 29.69948,-21.886991 z M 188.65545,114.38544 189.56,113.44406 159.93901,92.356869 C 143.64747,80.758917 130.1428,71.202442 129.92862,71.120257 c -0.24524,-0.09411 -0.45576,0.05964 -0.56864,0.415309 -0.0986,0.310607 -0.74396,1.310827 -1.43416,2.222717 l -1.25492,1.657977 10.1827,7.255272 c 5.60048,3.990401 10.86455,7.731527 11.69794,8.313607 0.83338,0.58208 5.60146,3.97537 10.59573,7.54063 4.99427,3.565261 9.38379,6.683131 9.7545,6.928591 0.37071,0.24547 4.41516,3.12383 8.98766,6.39635 l 8.31363,5.95004 0.77393,-1.23697 c 0.42565,-0.68033 1.18096,-1.66059 1.67846,-2.17834 z m -47.55244,-11.47081 c 3.94492,-5.589771 7.23594,-10.328291 7.31335,-10.530041 0.0921,-0.23998 -0.78907,-1.03296 -2.54842,-2.29339 -2.216,-1.587589 -2.74824,-1.864661 -3.02479,-1.574656 -0.29904,0.313589 -11.14565,15.698347 -12.17137,17.263797 -0.39187,0.59807 -0.33262,0.78595 1.24975,3.96268 0.91362,1.83416 1.73937,3.33483 1.835,3.33483 0.0956,0 3.40155,-4.57345 7.34648,-10.16322 z m -41.143567,6.52078 1.692647,-3.37785 -5.938927,-8.197671 c -3.26641,-4.50872 -6.08832,-8.34948 -6.27091,-8.53504 -0.26809,-0.272443 -0.85329,0.0467 -3.0406,1.65832 -1.79977,1.32606 -2.64276,2.1051 -2.51236,2.32175 0.42151,0.70033 14.18948,19.508351 14.28062,19.508351 0.0533,0 0.85857,-1.52004 1.78953,-3.37786 z M 135.95377,95.909929 c 3.30363,-4.71293 5.90976,-8.652371 5.79139,-8.754321 -0.54071,-0.465725 -4.81111,-3.44651 -4.93762,-3.44651 -0.0782,0 -2.47403,3.328853 -5.32413,7.397451 l -5.18199,7.39745 1.61402,3.219771 c 0.88772,1.77088 1.70801,3.11523 1.82288,2.98745 0.11487,-0.12778 2.91182,-4.08836 6.21545,-8.801291 z m -30.6704,2.13516 c -0.0718,-0.19161 -2.2885,-3.32432 -4.92597,-6.96158 -3.539287,-4.880925 -4.902467,-6.572112 -5.204137,-6.456352 -0.2248,0.08626 -1.39972,0.890815 -2.61093,1.787885 l -2.2022,1.63104 0.44162,0.673986 c 0.24288,0.370695 2.94457,4.121141 6.00374,8.334321 l 5.562117,7.660341 1.53316,-3.16062 c 0.84324,-1.738351 1.47441,-3.317411 1.4026,-3.509021 z m 25.40823,-8.14246 c 2.71849,-3.8696 4.84048,-7.129328 4.71553,-7.243842 -0.12495,-0.114512 -1.11248,-0.833469 -2.19452,-1.597684 l -1.96734,-1.389481 -0.49279,0.608571 c -0.27104,0.334717 -2.15269,2.955629 -4.18145,5.824249 l -3.68866,5.215677 1.31503,2.80908 c 0.72326,1.54499 1.36823,2.80907 1.43326,2.80907 0.065,0 2.34245,-3.16604 5.06094,-7.03564 z m -23.14593,4.09598 c 0.73833,-1.47129 1.28607,-2.82192 1.2172,-3.00139 -0.092,-0.23967 -7.17288,-10.022878 -7.74063,-10.69469 -0.16748,-0.198181 -4.329277,3.017629 -4.268927,3.298587 0.0595,0.277019 9.242897,13.072563 9.382207,13.072563 0.0373,0 0.67182,-1.20378 1.41015,-2.67507 z m 18.63054,-9.666298 c 2.13054,-3.004214 3.77781,-5.545963 3.6606,-5.648333 -1.10721,-0.967034 -3.86353,-2.668871 -4.02466,-2.484948 -0.21893,0.249898 -5.60038,7.954227 -5.93072,8.490688 -0.17037,0.276677 2.01823,5.104801 2.31402,5.104801 0.0589,0 1.85023,-2.457997 3.98076,-5.462208 z m -15.21381,2.83306 c 0.83337,-1.700223 1.0839,-2.46217 0.89168,-2.711979 -0.14703,-0.191082 -1.49241,-2.04406 -2.98974,-4.117732 -1.49733,-2.073672 -2.78227,-3.770312 -2.85542,-3.770312 -0.0731,0 -0.95778,0.611439 -1.96585,1.358752 -1.18896,0.881417 -1.78236,1.490326 -1.68913,1.733285 0.22376,0.583102 7.06137,9.872544 7.26682,9.872544 0.10045,0 0.70418,-1.064051 1.34164,-2.364558 z m 10.05695,-6.451039 c 0.90458,-1.283316 1.59617,-2.381821 1.53688,-2.441117 -0.0593,-0.0593 -0.71118,0.121449 -1.44862,0.401656 -0.73744,0.280207 -1.95074,0.590375 -2.69621,0.689266 -0.74547,0.09889 -1.3554,0.226965 -1.3554,0.28461 0,0.464484 1.93995,3.809664 2.10531,3.630311 0.11734,-0.127281 0.95347,-1.281407 1.85804,-2.564726 z m -7.19514,0.740799 c 0.46779,-0.948642 0.85054,-1.78208 0.85054,-1.852083 0,-0.07001 -0.35266,-0.127283 -0.78367,-0.127283 -0.43102,0 -1.68118,-0.285012 -2.77813,-0.633357 -1.09695,-0.348348 -1.99445,-0.588693 -1.99445,-0.534104 0,0.223655 3.50379,4.871627 3.67239,4.871627 0.10053,0 0.56552,-0.77616 1.03332,-1.7248 z m 5.02044,-3.436049 c 5.46453,-1.288393 9.99397,-6.069092 10.91314,-11.518515 1.40442,-8.326371 -5.3385,-16.208576 -13.89242,-16.239669 -3.9123,-0.01422 -7.19264,1.399244 -10.00286,4.310123 -3.47453,3.598987 -4.81792,8.157334 -3.74522,12.70811 1.78871,7.588351 9.39123,12.469617 16.72736,10.739951 z m -5.48411,-4.241527 c -6.47941,-1.81755 -9.19199,-9.371819 -5.42735,-15.114624 1.05673,-1.61199 2.09206,-2.45174 4.23918,-3.438354 2.1101,-0.969606 5.29704,-1.019809 7.59472,-0.119636 5.27116,2.065104 7.64903,8.456826 5.09114,13.684966 -1.98835,4.064046 -7.01572,6.244895 -11.49769,4.987648 z m 6.00064,-0.69374 c 1.14156,-0.425765 1.97998,-1.019011 3.29433,-2.331001 1.55869,-1.555882 1.83102,-1.983628 2.34933,-3.690048 1.37169,-4.515975 -0.65793,-9.074473 -5.03843,-11.316241 -1.27718,-0.653613 -1.74652,-0.74472 -3.83646,-0.74472 -2.02778,0 -2.60497,0.104871 -3.88844,0.706486 -1.8369,0.861029 -3.6326,2.605472 -4.62797,4.495884 -0.67135,1.275006 -0.7436,1.669279 -0.7436,4.058047 0,2.374666 0.0745,2.787196 0.72691,4.025129 1.31646,2.497954 3.11323,4.069905 5.71375,4.998836 1.531,0.546885 4.28899,0.454638 6.05058,-0.202372 z m -6.8031,-2.503922 c 0,-0.09054 0.97652,-1.165074 2.17004,-2.38785 l 2.17004,-2.223232 -2.10389,-2.122104 -2.1039,-2.122104 2.24896,-2.106547 c 2.46509,-2.308991 3.175,-2.833157 3.175,-2.344273 0,0.168421 -0.94896,1.27844 -2.1088,2.466707 l -2.1088,2.160486 2.04266,2.046997 2.04265,2.046997 -2.40913,2.374772 c -2.13073,2.100352 -3.01483,2.74848 -3.01483,2.210151 z"
       id="path927"
       inkscape:export-filename="C:\Users\logie\Documents\koding\_GRAFIKI\dnd5eSpells\spell icons\conjuration.png"
       inkscape:export-xdpi="96"
       inkscape:export-ydpi="96" />
  </g>
</svg>
