<?xml version="1.0" encoding="UTF-8" standalone="no"?>
<svg
   xmlns:dc="http://purl.org/dc/elements/1.1/"
   xmlns:cc="http://creativecommons.org/ns#"
   xmlns:rdf="http://www.w3.org/1999/02/22-rdf-syntax-ns#"
   xmlns:svg="http://www.w3.org/2000/svg"
   xmlns="http://www.w3.org/2000/svg"
   xmlns:sodipodi="http://sodipodi.sourceforge.net/DTD/sodipodi-0.dtd"
   xmlns:inkscape="http://www.inkscape.org/namespaces/inkscape"
   width="210mm"
   height="297mm"
   viewBox="0 0 210 297"
   version="1.1"
   id="svg8"
   inkscape:version="1.0.2-2 (e86c870879, 2021-01-15)"
   sodipodi:docname="divination.svg">
  <defs
     id="defs2" />
  <sodipodi:namedview
     id="base"
     pagecolor="#ffffff"
     bordercolor="#666666"
     borderopacity="1.0"
     inkscape:pageopacity="0.0"
     inkscape:pageshadow="2"
     inkscape:zoom="0.98994949"
     inkscape:cx="270.68007"
     inkscape:cy="594.21815"
     inkscape:document-units="mm"
     inkscape:current-layer="layer1"
     inkscape:document-rotation="0"
     showgrid="false"
     inkscape:window-width="3736"
     inkscape:window-height="2126"
     inkscape:window-x="93"
     inkscape:window-y="-11"
     inkscape:window-maximized="1" />
  <metadata
     id="metadata5">
    <rdf:RDF>
      <cc:Work
         rdf:about="">
        <dc:format>image/svg+xml</dc:format>
        <dc:type
           rdf:resource="http://purl.org/dc/dcmitype/StillImage" />
        <dc:title></dc:title>
      </cc:Work>
    </rdf:RDF>
  </metadata>
  <g
     inkscape:label="Layer 1"
     inkscape:groupmode="layer"
     id="layer1">
    <path
       style="fill:#000000;stroke-width:0.264583"
       d="M 100.18156,201.33392 85.130054,175.257 56.092034,175.256 c -15.97091,-5.8e-4 -29.03802,-0.0988 -29.03802,-0.21833 0,-0.1195 6.49039,-11.45976 14.4231,-25.20057 7.9327,-13.74081 14.36732,-25.12864 14.29914,-25.3063 -0.0682,-0.17766 -6.55857,-11.46731 -14.4231,-25.088098 -7.86452,-13.620834 -14.29914,-24.816103 -14.29914,-24.87841 0,-0.06231 13.05605,-0.143574 29.01344,-0.180597 l 29.01344,-0.06731 15.014096,-26.01008 c 8.25775,-14.305546 15.11491,-26.012093 15.23812,-26.01455 0.12322,-0.0025 6.98317,11.702081 15.24434,26.010081 l 15.0203,26.014549 29.04204,0.132292 29.04205,0.132292 -14.48431,25.082703 -14.4843,25.082718 14.54306,25.18811 14.54306,25.18812 -29.15998,0.1323 -29.15999,0.13229 -14.87426,25.76293 c -8.18084,14.16961 -14.98626,25.87493 -15.12315,26.01182 -0.15547,0.15546 -5.89876,-9.53957 -15.30041,-25.82804 z m 29.1053,-2.63325 c 7.37343,-12.78926 13.36235,-23.29708 13.30871,-23.35072 -0.0536,-0.0536 -12.37087,-0.0672 -27.37164,-0.0301 l -27.274126,0.0674 13.642986,23.633 c 10.95615,18.97874 13.70649,23.56414 13.96541,23.28333 0.17734,-0.19232 6.35523,-10.81361 13.72866,-23.60287 z m -14.09722,13.46362 c -0.0188,-0.43656 -0.32285,-2.06629 -0.67567,-3.62161 -1.66565,-7.34255 -4.79341,-13.99679 -9.46139,-20.1289 -1.71684,-2.25534 -5.908976,-6.61292 -8.016276,-8.33265 l -1.32291,-1.07961 3.43958,1.15765 c 11.048576,3.71857 23.314656,3.57165 33.636366,-0.40288 1.12595,-0.43357 2.08225,-0.75324 2.1251,-0.71039 0.0429,0.0429 -0.48501,0.50779 -1.17302,1.0332 -2.79262,2.13258 -6.80754,6.43124 -9.4255,10.0916 -4.32825,6.05165 -7.04457,12.67959 -8.85092,21.59671 -0.19838,0.97931 -0.24725,1.04975 -0.27536,0.39688 z m 0.91728,-7.40268 c 2.26675,-7.81879 6.62379,-15.3547 12.20296,-21.10617 0.95284,-0.98227 1.66759,-1.78594 1.58834,-1.78594 -0.0792,0 -1.13576,0.23211 -2.3478,0.51581 -5.49924,1.28718 -13.11366,1.72336 -18.48252,1.05872 -2.06039,-0.25506 -6.07312,-1.03069 -7.66597,-1.48177 -0.52144,-0.14767 -0.23552,0.28477 1.3506,2.04277 4.06168,4.50181 6.58953,8.24834 8.96924,13.29332 1.27026,2.69293 3.43849,8.75521 3.43849,9.61384 0,0.80468 0.26334,0.20645 0.94666,-2.15058 z M 83.162514,171.88148 c -1.90758,-3.61831 -25.66081,-44.37755 -25.84683,-44.35176 -0.19373,0.0269 -24.20407,41.32572 -25.78524,44.35176 l -0.51843,0.99219 h 26.33679 26.3368 z m -43.21686,-4.2618 c 9.24368,-7.9912 15.35373,-18.54437 17.38484,-30.02676 0.24328,-1.37535 0.3748,-1.71228 0.4808,-1.23175 1.63853,7.42782 3.11672,11.83186 5.41715,16.13958 2.81035,5.26257 7.47501,11.12404 11.66734,14.66083 1.19211,1.0057 2.1273,1.86871 2.07822,1.91779 -0.0491,0.0491 -0.83116,-0.21222 -1.73795,-0.58067 -0.90678,-0.36846 -2.98471,-1.01441 -4.61762,-1.43543 -10.02836,-2.58571 -20.76986,-2.11684 -30.071,1.3126 -1.18384,0.4365 -2.2069,0.79363 -2.27347,0.79363 -0.0666,0 0.68569,-0.69742 1.67169,-1.54982 z m 9.46565,-2.57522 c 1.97722,-0.35865 4.0165,-0.48249 8.06979,-0.49004 5.60866,-0.0104 8.64594,0.32359 12.87966,1.41649 l 1.89945,0.49033 -2.31897,-2.61327 c -5.32404,-5.99972 -8.70238,-11.84264 -11.02605,-19.06983 -0.52927,-1.64616 -1.01986,-3.17161 -1.09021,-3.38989 -0.0703,-0.21828 -0.51233,0.85328 -0.98221,2.38125 -2.40631,7.82502 -6.43213,14.82538 -11.73094,20.39854 -1.05502,1.10966 -1.91823,2.07253 -1.91823,2.13972 0,0.0672 0.80368,-0.0816 1.78594,-0.33061 0.98227,-0.24902 2.97656,-0.66873 4.43177,-0.93269 z M 155.50802,153.22835 c 6.22952,-10.80492 11.39049,-19.76437 11.46882,-19.90989 0.0783,-0.14552 -0.62438,0.44208 -1.56156,1.30578 -12.28892,11.32532 -31.28401,17.3481 -52.76856,16.73134 -6.41661,-0.1842 -10.85262,-0.66332 -16.280496,-1.75839 -12.31721,-2.485 -22.47523,-7.36284 -31.01807,-14.89475 l -1.79024,-1.57839 3.64232,6.31749 c 2.00328,3.47462 7.15467,12.41559 11.44753,19.86883 l 7.80521,13.55134 28.864326,0.006 28.86432,0.006 11.3264,-19.64531 z m -44.15649,10.49828 c -2.15011,-3.72407 -3.85766,-6.82269 -3.79455,-6.8858 0.0631,-0.0631 3.63069,-0.0832 7.92794,-0.0446 l 7.8132,0.0701 -3.8236,6.61458 c -2.10299,3.63802 -3.91138,6.70506 -4.01865,6.81565 -0.10728,0.11059 -1.95423,-2.8459 -4.10434,-6.56998 z m 7.47219,-0.70869 3.17241,-5.49011 h -6.61498 c -3.64902,0 -6.57544,0.10335 -6.52679,0.23051 0.42225,1.10357 6.45145,11.1055 6.60138,10.95111 0.10756,-0.11078 1.62316,-2.67196 3.36798,-5.69151 z m 80.73863,9.69342 c 0,-0.27263 -26.05093,-45.3378 -26.21098,-45.34205 -0.12885,-0.003 -4.18246,6.97218 -23.09896,39.74967 l -3.32114,5.75469 h 26.31554 c 14.47354,0 26.31554,-0.073 26.31554,-0.16231 z m -45.11146,-4.40398 c 5.12211,-4.0866 10.32516,-10.56958 13.41777,-16.71851 2.37122,-4.71462 4.33572,-10.71126 4.85856,-14.83083 l 0.20148,-1.5875 0.45548,2.54752 c 1.52404,8.52411 5.44455,16.84244 11.14468,23.64623 2.08424,2.4878 5.198,5.58333 6.90475,6.86433 0.54966,0.41255 0.95725,0.79223 0.90574,0.84373 -0.0515,0.0515 -1.08868,-0.26949 -2.30484,-0.71334 -10.6256,-3.87786 -23.12715,-3.92822 -33.73154,-0.13587 -1.45521,0.52041 -2.70536,0.94225 -2.77812,0.93741 -0.0728,-0.005 0.34395,-0.38876 0.92604,-0.85317 z m 7.9375,-2.79282 c 8.14262,-1.68597 14.19155,-1.51556 24.47261,0.68941 0.54564,0.11703 0.34454,-0.19856 -1.1597,-1.81988 -5.85004,-6.30537 -10.18673,-14.10381 -12.34651,-22.20209 -0.36986,-1.38684 -0.27657,-1.54636 -1.70207,2.91042 -2.23671,6.99306 -6.17031,13.64353 -11.41057,19.29167 -1.50425,1.62132 -1.70535,1.93691 -1.15971,1.81988 0.36306,-0.0779 1.85074,-0.3881 3.30595,-0.68941 z m -47.49271,-15.31989 c 0,-0.36073 -2.16413,-7.08741 -2.33846,-7.26854 -0.0963,-0.10005 -1.2072,1.26917 -2.46867,3.04271 -1.81289,2.54878 -2.21295,3.27007 -1.90879,3.44149 1.07881,0.608 6.71592,1.26635 6.71592,0.78434 z m 5.50126,-0.22801 c 1.12165,-0.22959 2.12869,-0.50346 2.23787,-0.60862 0.17281,-0.16643 -4.15637,-6.64687 -4.44036,-6.64687 -0.0592,0 -0.60387,1.57758 -1.21037,3.50573 -0.6065,1.92815 -1.15865,3.65455 -1.227,3.83645 -0.17774,0.47306 2.1144,0.43023 4.63986,-0.0867 z m -15.82001,-0.74525 c -7.321946,-3.07495 -12.876586,-9.61887 -15.143816,-17.84091 -0.81498,-2.95552 -0.81607,-10.36277 -0.002,-13.31432 1.15649,-4.19281 3.46389,-8.44312 6.26097,-11.5329 1.763,-1.9475 5.189206,-4.46339 7.767836,-5.704 1.20468,-0.57958 2.14585,-1.098258 2.0915,-1.152608 -0.15235,-0.15235 -4.84177,1.110658 -7.061196,1.901788 -3.21815,1.14714 -7.93277,3.71683 -10.8777,5.92887 -3.19053,2.39651 -7.64255,6.91886 -9.82772,9.98298 -0.83842,1.17565 -2.13121,3.29022 -2.87288,4.69903 l -1.3485,2.5615 0.85882,1.74449 c 0.47234,0.95947 1.66889,2.94672 2.65899,4.4161 6.13409,9.10346 14.77584,15.34905 25.114406,18.15078 3.38088,0.91621 4.33583,0.98006 2.38125,0.1592 z m 24.87083,-0.44394 c 7.26688,-2.14183 13.00351,-5.57801 18.52014,-11.09339 3.35168,-3.35091 5.92298,-6.78489 7.86106,-10.49847 l 1.2675,-2.42868 -0.88301,-1.80465 c -0.48566,-0.99256 -1.64091,-2.93575 -2.56723,-4.3182 -5.47553,-8.17169 -13.16452,-14.15087 -22.21408,-17.27428 -2.46652,-0.8513 -6.21771,-1.836898 -6.21771,-1.633658 0,0.0493 0.97064,0.575498 2.15699,1.169278 9.84515,4.92766 15.53607,15.31612 14.48863,26.44818 -0.88407,9.3958 -6.59556,17.54358 -15.15498,21.61948 -1.69032,0.80491 -1.77695,0.88086 -0.82918,0.72702 0.58208,-0.0945 2.18942,-0.50517 3.57187,-0.91263 z m -13.10112,-2.1637 c 0.51731,-1.63711 1.00581,-3.18492 1.08555,-3.43958 0.13022,-0.41588 -0.0826,-0.46302 -2.09011,-0.46302 h -2.2351 l 1.07431,3.43958 c 0.59088,1.89177 1.10817,3.43958 1.14955,3.43958 0.0414,0 0.49848,-1.33945 1.0158,-2.97656 z M 98.359224,148.376 c -9.3154,-3.24806 -17.74908,-10.26255 -22.97481,-19.10867 -0.75177,-1.27261 -1.59331,-2.81651 -1.87009,-3.43088 l -0.50323,-1.11706 0.99486,-2.01295 c 4.6705,-9.45012 13.64101,-17.54197 23.62356,-21.30963 1.20887,-0.45626 2.15748,-0.87002 2.10802,-0.91949 -0.19274,-0.19273 -5.77111,1.54249 -8.75423,2.72312 -9.71394,3.84447 -18.70008,11.25205 -23.76647,19.5915 -0.55247,0.90938 -1.00449,1.8158 -1.00449,2.01428 0,0.19847 0.82322,1.5996 1.82938,3.11363 6.38588,9.60925 15.91275,16.44699 28.1574,20.20945 3.37757,1.03784 4.941256,1.21642 2.1601,0.2467 z m 8.863536,-3.44827 c 0,-3.26661 -0.0694,-4.07987 -0.33073,-3.87798 -0.1819,0.1405 -1.67018,1.23649 -3.30729,2.43553 -1.63711,1.19905 -2.97656,2.22115 -2.97656,2.27133 0,0.36129 5.62546,3.24881 6.41614,3.29337 0.10914,0.006 0.19844,-1.84886 0.19844,-4.12225 z m 19.4899,2.80032 c 1.47886,-0.73428 2.82541,-1.4996 2.99231,-1.70071 0.24494,-0.29513 -0.31591,-0.83338 -2.90776,-2.79057 -1.76619,-1.33371 -3.27533,-2.36083 -3.35366,-2.2825 -0.1978,0.1978 0.20387,8.10667 0.41177,8.10786 0.0927,5.3e-4 1.37847,-0.5998 2.85734,-1.33408 z m 6.87269,0.65899 c 12.70329,-3.6523 22.92242,-10.94646 29.42406,-21.00215 l 1.61253,-2.49399 -0.85219,-1.55795 c -2.18102,-3.98728 -7.45721,-9.87281 -11.77411,-13.13389 -5.61565,-4.24219 -11.7698,-7.26577 -18.59569,-9.13622 -2.98646,-0.81835 -2.80632,-0.58066 0.54573,0.72004 5.29246,2.05366 10.02559,5.19996 14.41128,9.57975 3.31487,3.31041 5.87413,6.75075 7.82983,10.52542 1.03522,1.99806 1.30596,2.76214 1.18074,3.33227 -0.23289,1.06034 -2.947,5.66622 -4.75282,8.06559 -5.15448,6.84871 -11.55248,11.67367 -19.72141,14.87263 -2.71121,1.06172 -2.47605,1.13936 0.69205,0.2285 z m -23.71608,-3.04913 c 1.04617,-1.46531 1.83004,-2.7363 1.74193,-2.82441 -0.0881,-0.0881 -0.98551,-0.42187 -1.99422,-0.74169 -1.55611,-0.49336 -1.85642,-0.52311 -1.98183,-0.1963 -0.25126,0.65477 -0.16611,6.73445 0.0921,6.57488 0.13194,-0.0815 1.09585,-1.34716 2.14203,-2.81248 z m 13.15158,-4.11477 c -0.051,-0.051 -0.766,0.14384 -1.58882,0.43304 -0.82283,0.2892 -1.67059,0.52582 -1.88392,0.52582 -0.80926,0 -0.59575,0.51372 1.38163,3.32424 l 2.03573,2.89347 0.0741,-3.5419 c 0.0407,-1.94804 0.0323,-3.58364 -0.0187,-3.63467 z m -31.473536,5.85423 c -7.4785,-2.92764 -14.77359,-7.80789 -19.4492,-13.01109 -3.712,-4.13085 -6.59957,-8.57511 -6.3131,-9.7165 0.0856,-0.34085 0.85077,-1.67702 1.70049,-2.96927 5.44938,-8.2874 13.40403,-14.65214 23.27938,-18.62647 3.08131,-1.24008 3.31103,-1.44999 0.81439,-0.74416 -10.02481,2.83413 -18.39981,7.28533 -25.4172,13.5089 -2.6435,2.34446 -5.48343,5.66672 -6.53561,7.64562 l -0.89734,1.68769 1.14833,1.91718 c 4.6687,7.79452 17.30843,16.38577 29.48594,20.04164 1.30968,0.39319 2.6789,0.81282 3.0427,0.93252 1.76273,0.57996 1.19058,0.13621 -0.85878,-0.66606 z m 51.129616,-0.71827 c 9.73064,-3.17278 17.72994,-8.08124 24.36907,-14.95316 2.50408,-2.59189 4.7351,-5.74081 4.7351,-6.68327 0,-0.76784 -2.26316,-4.05264 -4.27313,-6.20214 -6.76451,-7.23405 -16.5268,-13.03742 -27.16508,-16.14878 -2.85042,-0.83365 -3.47751,-0.76176 -1.04574,0.11989 0.91299,0.33101 3.02921,1.28791 4.7027,2.12644 8.677,4.34777 15.59966,10.62925 20.14371,18.27803 l 1.07565,1.81059 -0.95294,1.70403 c -4.63563,8.28927 -13.84033,16.05631 -23.8746,20.14568 -1.53006,0.62356 -2.85153,1.20336 -2.93661,1.28843 -0.19188,0.19188 1.91673,-0.40807 5.22187,-1.48574 z m -41.86534,-3.4495 c 1.28347,-3.57973 1.71076,-4.98704 1.55995,-5.13784 -0.0785,-0.0785 -1.81871,0.41596 -3.867246,1.09869 l -3.72463,1.24133 0.79632,1.00543 c 0.94021,1.18712 3.90596,3.97521 4.22851,3.97521 0.12346,0 0.576646,-0.98227 1.007096,-2.18282 z m 32.70646,-0.19986 c 1.43061,-1.43061 2.28282,-2.47432 2.13276,-2.61201 -0.47117,-0.43235 -7.57483,-2.65812 -7.45441,-2.33567 0.0655,0.1754 0.63831,1.89648 1.27293,3.82463 0.6346,1.92815 1.26908,3.50573 1.40994,3.50573 0.14086,0 1.32831,-1.07221 2.63878,-2.38268 z m -29.338,-0.35189 c 1.16417,-0.87328 2.1762,-1.64125 2.24896,-1.7066 0.0728,-0.0653 -0.092,-0.25368 -0.36607,-0.41851 -0.27411,-0.16483 -1.07983,-0.75057 -1.7905,-1.30164 -0.88686,-0.68769 -1.33198,-0.89515 -1.41919,-0.66146 -0.0699,0.18727 -0.59909,1.7502 -1.17602,3.47319 l -1.04896,3.1327 0.71756,-0.46495 c 0.39466,-0.25572 1.67006,-1.17945 2.83422,-2.05273 z m 24.66882,-1.02036 -1.1209,-3.32112 -1.80896,1.27668 -1.80897,1.27669 2.864,2.1103 c 1.57519,1.16067 2.89363,2.08066 2.92986,2.04444 0.0362,-0.0362 -0.43854,-1.56038 -1.05503,-3.38699 z m -9.93132,0.0285 c 0.77115,-0.15778 2.50103,-0.81411 3.84418,-1.45853 4.07565,-1.9554 7.12779,-5.42687 8.73937,-9.94003 0.96911,-2.71395 1.01714,-7.08232 0.11006,-10.01041 -1.20324,-3.88412 -4.16686,-7.71474 -7.5372,-9.74217 -4.41689,-2.65698 -10.38721,-3.17749 -14.86682,-1.29612 -6.50977,2.73401 -10.711376,8.77638 -10.803236,15.53621 -0.0414,3.04748 0.33809,4.72264 1.738256,7.67291 0.87394,1.84149 1.48025,2.66104 3.34636,4.52335 2.4346,2.42963 4.75421,3.81021 7.70299,4.58465 1.74791,0.45905 5.78601,0.52707 7.72604,0.13014 z m -5.7727,-7.88621 c -2.55204,-0.65721 -4.90775,-2.62027 -6.01161,-5.00961 -0.45868,-0.99281 -0.57158,-1.73347 -0.57174,-3.75065 -1.7e-4,-2.21323 0.0877,-2.69248 0.73529,-4.01122 0.88529,-1.80276 2.38519,-3.21793 4.39214,-4.14404 1.86721,-0.86164 4.72577,-0.95313 6.84782,-0.21917 1.95898,0.67755 4.02175,2.63172 4.94161,4.68146 0.6555,1.46063 0.71831,1.86008 0.63624,4.04587 -0.0702,1.86912 -0.23128,2.70993 -0.70253,3.66687 -1.43546,2.91492 -4.26784,4.73762 -7.57588,4.87524 -1.0266,0.0427 -2.23771,-0.0179 -2.69134,-0.13475 z m 5.02963,-0.72169 c 1.72174,-0.58666 4.15023,-2.87521 4.94744,-4.66236 0.92623,-2.07639 0.88748,-4.85115 -0.0957,-6.85323 -1.41386,-2.87904 -4.12336,-4.73137 -7.20448,-4.92527 -4.33228,-0.27265 -8.06065,2.74728 -8.88285,7.195 -0.72119,3.90124 2.05987,8.19688 6.10301,9.42675 1.16662,0.35486 3.83639,0.26077 5.1326,-0.18089 z m -3.63647,-2.87588 -0.73133,-2.24565 -1.30758,0.6626 c -0.71918,0.36444 -1.30759,0.59633 -1.30759,0.51532 0,-0.081 0.23813,-0.61405 0.52917,-1.18454 0.29104,-0.57049 0.52917,-1.1401 0.52917,-1.2658 0,-0.12569 -0.89297,-0.50859 -1.98438,-0.85087 -1.09141,-0.34228 -1.98438,-0.69947 -1.98438,-0.79375 0,-0.0943 0.89297,-0.45147 1.98438,-0.79375 1.09141,-0.34228 1.98438,-0.72517 1.98438,-0.85087 0,-0.1257 -0.24055,-0.70005 -0.53455,-1.27634 -0.60355,-1.18305 -0.41871,-1.2749 1.05388,-0.52364 l 1.02741,0.52415 0.7702,-2.31009 0.7702,-2.31008 0.74139,2.24895 c 0.40777,1.23693 0.77318,2.28703 0.81204,2.33357 0.0388,0.0465 0.56997,-0.17014 1.18026,-0.48148 0.61029,-0.31135 1.16591,-0.50979 1.23472,-0.44097 0.0688,0.0688 -0.12963,0.62443 -0.44097,1.23472 -0.31135,0.61029 -0.52801,1.14145 -0.48148,1.18037 0.0465,0.0389 0.91804,0.33977 1.93669,0.66856 1.01864,0.3288 1.94355,0.68049 2.05534,0.78155 0.11179,0.10106 -0.69923,0.46678 -1.80228,0.81271 -1.10304,0.34594 -2.06222,0.72068 -2.1315,0.83277 -0.0693,0.11209 0.11668,0.6794 0.41322,1.26067 0.29655,0.58128 0.53918,1.12357 0.53918,1.20508 0,0.0815 -0.47151,-0.0923 -1.0478,-0.38634 -0.57628,-0.29399 -1.16182,-0.53454 -1.30119,-0.53454 -0.13936,0 -0.5706,0.9525 -0.95831,2.11667 -0.3877,1.16416 -0.73012,2.11666 -0.76094,2.11666 -0.0308,0 -0.38512,-1.01054 -0.78735,-2.24564 z m -17.545366,6.14825 2.28948,-3.10886 h -4.09947 c -2.47638,0 -4.09947,0.10177 -4.09947,0.25704 0,0.96044 3.10422,6.55454 3.42941,6.18011 0.10482,-0.12069 1.22084,-1.61842 2.48005,-3.32829 z m 1.96782,2.15879 3.247856,-1.08235 -0.77098,-0.87809 c -0.42404,-0.48295 -0.98833,-1.24605 -1.25399,-1.69578 -0.265656,-0.44972 -0.549716,-0.81768 -0.631256,-0.81768 -0.0815,0 -0.79057,0.86321 -1.57564,1.91823 -0.78508,1.05503 -1.71886,2.30519 -2.07508,2.77813 -0.35621,0.47294 -0.54441,0.85989 -0.41821,0.85989 0.12619,0 1.69098,-0.48705 3.4773,-1.08235 z m 36.308136,0.99427 c 0,-0.0484 -0.93368,-1.35978 -2.07484,-2.91409 l -2.07483,-2.82601 -0.82567,1.26045 c -0.45412,0.69324 -1.01215,1.51162 -1.24008,1.81862 -0.40706,0.54829 -0.36151,0.57712 2.56978,1.62652 2.80641,1.00469 3.64564,1.24284 3.64564,1.03451 z m 2.11208,-1.26824 c 0.95923,-1.55894 2.12125,-4.09511 2.12125,-4.62972 0,-0.29277 -0.77928,-0.36396 -3.98437,-0.36396 -3.11139,0 -3.94316,0.0725 -3.79632,0.33073 0.53088,0.93372 4.42633,6.01927 4.61066,6.01927 0.11782,0 0.58977,-0.61034 1.04878,-1.35632 z m -39.015056,-5.59883 c 0.52736,-0.0555 0.52526,-0.0873 -0.13721,-2.08005 l -0.67279,-2.02372 -2.7732,1.97149 c -1.52526,1.08432 -2.85723,2.05521 -2.95993,2.15753 -0.15992,0.15934 4.97653,0.13952 6.54313,-0.0252 z m 40.486036,0.0941 c -0.0838,-0.13556 -1.42553,-1.15017 -2.98168,-2.25469 l -2.82935,-2.00821 -0.485,1.65937 c -0.26675,0.91266 -0.55227,1.86397 -0.63448,2.11402 -0.13496,0.41049 0.16814,0.46276 3.12034,0.53811 1.7984,0.0459 3.42567,0.1092 3.61616,0.14066 0.19049,0.0315 0.2778,-0.0537 0.19401,-0.18926 z m -45.428406,-1.91306 c 1.25957,-0.89671 2.69269,-1.9267 3.1847,-2.28887 l 0.89457,-0.6585 -3.5404,-1.1458 c -4.62926,-1.4982 -4.52459,-1.50385 -4.32542,0.23343 0.27025,2.35732 0.98075,5.4901 1.24513,5.4901 0.1382,0 1.28184,-0.73366 2.54142,-1.63036 z m 46.852026,0.63818 c 0.40952,-1.53569 0.86093,-4.73605 0.76665,-5.43539 l -0.0848,-0.62901 -3.92547,1.237 -3.92547,1.237 3.13172,2.26979 c 1.72244,1.24839 3.27596,2.27947 3.45225,2.29129 0.17629,0.0118 0.43959,-0.42498 0.58511,-0.97068 z m -42.936496,-8.45082 c -0.11394,-0.11394 -6.14052,1.68453 -6.63838,1.98105 -0.13777,0.0821 1.29098,0.6376 3.175,1.23455 l 3.42549,1.08537 0.0774,-2.09206 c 0.0426,-1.15063 0.0248,-2.14464 -0.0395,-2.20891 z m 39.539056,3.17529 c 1.73749,-0.53683 3.06847,-1.06045 2.95773,-1.16361 -0.21023,-0.19582 -5.98028,-2.09368 -6.36543,-2.09368 -0.1214,0 -0.22073,0.9525 -0.22073,2.11667 0,1.16417 0.1056,2.11667 0.23467,2.11667 0.12908,0 1.65626,-0.43922 3.39376,-0.97605 z m -40.402806,-3.59369 1.02624,-0.35608 -3.21759,-2.29959 c -1.76967,-1.26477 -3.31558,-2.29959 -3.43535,-2.29959 -0.40161,0 -1.53266,6.61096 -1.18973,6.95389 0.11644,0.11644 4.01608,-1.02697 6.81643,-1.99863 z m 44.498076,0.27026 c -0.23602,-2.45136 -0.93371,-5.27239 -1.27576,-5.15837 -0.46622,0.15541 -6.25898,4.29177 -6.27011,4.47722 -0.009,0.15105 6.80914,2.48958 7.49794,2.57166 0.12985,0.0155 0.15102,-0.81977 0.0479,-1.89051 z M 70.554224,99.477552 c 7.21634,-12.500625 13.12062,-22.769765 13.12062,-22.820308 0,-0.05055 -11.85664,-0.0919 -26.34809,-0.0919 -15.1458,0 -26.31059,0.09942 -26.25989,0.233836 0.17552,0.465365 26.24763,45.52924 26.3064,45.46882 0.0332,-0.0341 5.96462,-10.28983 13.18096,-22.790448 z m -13.18076,12.749228 c -0.26899,-2.11066 -1.65122,-7.11598 -2.71497,-9.83145 -3.13629,-8.006038 -8.54817,-15.568593 -14.85207,-20.75422 -0.91706,-0.75438 -1.56267,-1.3716 -1.43468,-1.3716 0.12799,0 0.9751,0.301665 1.88248,0.670364 0.90738,0.3687 2.98977,1.015865 4.62753,1.438146 9.80556,2.528257 20.59857,2.058048 29.79443,-1.298025 1.21615,-0.443841 2.25357,-0.764601 2.30538,-0.712798 0.0518,0.0518 -0.75205,0.786516 -1.78633,1.632699 -3.86415,3.161379 -8.51327,8.789659 -11.23749,13.604226 -2.62944,4.647048 -4.69628,10.198418 -5.67121,15.232368 -0.27124,1.40055 -0.54757,2.60083 -0.61404,2.66732 -0.0665,0.0665 -0.20105,-0.50819 -0.29903,-1.27703 z m 1.25094,-6.74402 c 2.09828,-7.196628 6.36131,-14.56607 11.93106,-20.625092 l 1.74118,-1.894133 -1.3885,0.367807 c -4.11791,1.090811 -7.98354,1.545789 -13.16246,1.549189 -5.33073,0.0035 -8.51271,-0.353455 -12.63389,-1.417273 l -1.91827,-0.495167 0.85994,0.99886 c 0.47296,0.549375 1.67525,1.936491 2.67176,3.08248 4.03976,4.645763 7.6076,10.995321 9.67962,17.226469 0.59194,1.78014 1.07625,3.44106 1.07625,3.69094 0,0.88509 0.4392,-0.0692 1.14331,-2.48408 z M 186.40006,99.747102 c 7.0899,-12.279608 12.96457,-22.518983 13.05481,-22.75416 0.15042,-0.39197 -2.02081,-0.427598 -26.05797,-0.427598 -15.50968,0 -26.22205,0.09802 -26.22205,0.239942 0,0.351288 25.95956,45.268384 26.16258,45.268384 0.0945,0 5.97272,-10.04696 13.06263,-22.326568 z m -13.67284,12.933858 c -0.11081,-0.87312 -0.53897,-2.89719 -0.95146,-4.49792 -2.714,-10.532038 -8.72431,-19.933324 -17.32487,-27.099434 -0.58209,-0.484999 -0.82021,-0.79653 -0.52917,-0.69229 3.37481,1.208725 6.41315,2.094505 9.26042,2.699729 3.21126,0.682593 3.8611,0.731126 9.78958,0.731126 5.92848,0 6.57832,-0.04853 9.78958,-0.731126 2.84727,-0.605224 5.88561,-1.491004 9.26042,-2.699729 0.29104,-0.10424 0.0529,0.207291 -0.52917,0.69229 -9.56506,7.969748 -15.99413,18.856246 -18.11306,30.671314 l -0.45079,2.51354 z m 1.59933,-8.44834 c 1.19684,-3.75562 3.65777,-8.893728 5.83809,-12.189152 1.61721,-2.444311 4.92515,-6.539494 6.39819,-7.920855 0.45578,-0.427408 0.82868,-0.86224 0.82868,-0.966293 0,-0.104055 -0.5289,-0.03001 -1.17534,0.164537 -6.93665,2.087626 -19.55225,2.087626 -26.4889,0 -0.64644,-0.194548 -1.17534,-0.268592 -1.17534,-0.164537 0,0.104053 0.37291,0.538885 0.82868,0.966293 1.53324,1.43782 4.81075,5.519682 6.49715,8.091662 2.73792,4.175677 5.52749,10.419145 6.72106,15.042725 0.3596,1.39297 0.27009,1.54966 1.72773,-3.02438 z m -77.226036,12.86829 c -0.99393,-0.0429 -2.59003,-0.0429 -3.54688,0 l -1.73972,0.078 2.87316,2.04944 2.87316,2.04945 0.67372,-2.04945 0.67372,-2.04944 z m 38.994356,2.06234 2.95684,-2.11667 h -3.72876 -3.72877 l 0.49339,1.12448 c 0.27135,0.61847 0.57556,1.57097 0.67602,2.11667 0.10046,0.5457 0.2258,0.99219 0.27854,0.99219 0.0528,0 1.42648,-0.9525 3.05274,-2.11667 z m -37.074186,-2.78039 c 0,-0.074 -1.06046,-1.57231 -2.35658,-3.32955 l -2.35658,-3.195 -1.04828,1.8082 c -1.06161,1.83118 -2.17606,4.19726 -2.17606,4.61996 0,0.12702 1.78593,0.23095 3.96875,0.23095 2.18281,0 3.96875,-0.0606 3.96875,-0.13456 z m 40.193446,-1.12221 c -0.7762,-1.86498 -2.46859,-4.9096 -2.7883,-5.01617 -0.2221,-0.074 -3.75938,4.40642 -4.67611,5.92292 -0.17188,0.28435 0.55761,0.35002 3.88794,0.35002 h 4.09953 z m -71.414286,-2.51009 c 5.6245,-4.57364 12.43132,-8.15571 20.39998,-10.73541 15.623746,-5.057898 36.330346,-5.273608 52.592746,-0.54788 9.23892,2.68475 17.7004,7.25969 24.35845,13.17007 l 1.96888,1.74779 -0.91055,-1.60323 c -0.5008,-0.88178 -5.66887,-9.84123 -11.48461,-19.909888 L 144.15068,76.565344 H 115.37407 86.597464 l -0.38349,0.595312 c -0.21092,0.327422 -5.38198,9.257929 -11.49125,19.845566 -9.61192,16.657898 -10.95959,19.122848 -10.00751,18.304108 0.60514,-0.52038 1.99323,-1.67227 3.08463,-2.55977 z M 107.48734,93.851712 c 0,-0.0969 1.74221,-3.202212 3.87156,-6.900761 3.12321,-5.42481 3.93409,-6.656533 4.19506,-6.37231 0.25061,0.272947 3.39061,5.658112 7.7263,13.250761 0.0623,0.10914 -3.46559,0.19844 -7.8398,0.19844 -4.37421,0 -7.95312,-0.0793 -7.95312,-0.17613 z m 14.22818,-1.212932 c -0.21162,-0.327421 -1.61107,-2.738437 -3.10988,-5.357812 -1.49881,-2.619375 -2.87044,-4.920109 -3.04806,-5.112747 -0.26005,-0.282017 -0.9487,0.733488 -3.53514,5.213011 -1.7667,3.059792 -3.21218,5.62842 -3.21218,5.70806 0,0.0796 2.99026,0.1448 6.64502,0.1448 h 6.64501 z m 11.55737,20.47921 c 1.11756,-1.50588 1.98518,-2.78471 1.92805,-2.84184 -0.10854,-0.10853 -6.26938,1.90678 -6.48344,2.12084 -0.0675,0.0675 0.29162,0.63522 0.79798,1.26166 0.50637,0.62644 1.06511,1.41706 1.24166,1.75695 0.17655,0.33988 0.35763,0.57801 0.40241,0.52917 0.0448,-0.0488 0.99579,-1.3209 2.11334,-2.82678 z m -33.1649,2.01037 c 0.17169,-0.32743 0.66649,-1.04729 1.09953,-1.5997 0.43305,-0.55242 0.73113,-1.06063 0.66239,-1.12937 -0.19126,-0.19126 -6.370096,-2.23879 -6.466146,-2.14274 -0.13914,0.13915 3.92026,5.46712 4.16543,5.46712 0.12464,0 0.3671,-0.26789 0.538796,-0.59531 z m 1.16718,-7.06099 c -0.68202,-2.04643 -1.352446,-3.72078 -1.489826,-3.72078 -0.39347,0 -5.06976,4.7785 -4.8729,4.97941 0.22162,0.22618 7.381886,2.64977 7.509146,2.54168 0.0515,-0.0437 -0.46439,-1.75388 -1.14642,-3.80031 z m 34.36849,1.28106 c 0.2455,-0.22468 -4.31854,-5.00184 -4.77869,-5.00184 -0.133,0 -0.76104,1.57757 -1.39564,3.50572 -0.63462,1.92816 -1.20743,3.64924 -1.27293,3.82463 -0.1191,0.31894 6.97972,-1.90063 7.44726,-2.32851 z m -29.2612,-0.37213 c 0.0471,-0.0455 -1.12252,-0.99781 -2.59928,-2.11617 -1.47676,-1.11836 -2.74808,-1.97033 -2.82515,-1.89326 -0.11684,0.11685 1.60834,5.71912 1.94521,6.31675 0.0798,0.14153 2.83638,-1.68657 3.47922,-2.30732 z m 22.47001,-0.84381 c 0.61135,-1.84682 1.0835,-3.38589 1.04922,-3.42017 -0.0615,-0.0615 -5.14547,3.69476 -5.56467,4.11135 -0.11877,0.11803 0.29809,0.51585 0.92636,0.88405 0.62828,0.36819 1.36899,0.9199 1.64602,1.22603 0.27704,0.30612 0.57747,0.55659 0.66762,0.55659 0.0901,0 0.6641,-1.51104 1.27545,-3.35785 z m -21.82081,-7.5206 c -0.23395,-0.23187 -4.00368,1.47776 -5.49909,2.49392 l -0.99078,0.67325 3.27434,2.42303 3.27434,2.42303 0.0735,-3.90464 c 0.0404,-2.14756 -0.0191,-3.99642 -0.13229,-4.10859 z m 19.85303,5.58678 c 1.69453,-1.23693 3.0835,-2.33255 3.0866,-2.43472 0.008,-0.26402 -2.94836,-1.96222 -4.71838,-2.71032 l -1.49369,-0.63132 -0.17218,2.16058 c -0.25385,3.18551 -0.25579,6.05355 -0.004,5.95293 0.12139,-0.0485 1.60713,-1.10022 3.30167,-2.33715 z m -16.68537,1.36797 c 0.83675,-0.23682 1.52136,-0.52186 1.52136,-0.63343 0,-0.23736 -3.94892,-5.76162 -4.11859,-5.76162 -0.0631,0 -0.11475,1.62122 -0.11475,3.60273 v 3.60273 l 0.59532,-0.18991 c 0.32742,-0.10446 1.27992,-0.38368 2.11666,-0.6205 z m 12.89844,-2.8761 c 0,-2.07875 -0.0984,-3.51758 -0.23082,-3.37343 -0.48943,0.53297 -3.77726,5.20535 -3.91446,5.56291 -0.0992,0.25863 0.0511,0.3815 0.47895,0.39137 0.343,0.008 1.15941,0.23369 1.81425,0.50173 1.9391,0.79371 1.85208,0.93854 1.85208,-3.08258 z m -5.55602,2.07786 c -1.2e-4,-0.0505 -0.49684,-1.6578 -1.10381,-3.57188 l -1.10358,-3.480138 -1.10266,3.439578 c -0.60646,1.89177 -1.07336,3.49911 -1.03755,3.57188 0.0722,0.1467 4.34796,0.18659 4.3476,0.0406 z m -3.77045,-3.68146 c 0.61851,-1.99933 1.12452,-3.724438 1.12448,-3.833578 -2e-4,-0.45811 -5.75874,0.23808 -6.80296,0.822448 -0.22528,0.12608 0.38728,1.18682 1.97348,3.41742 1.26509,1.77903 2.36323,3.23331 2.4403,3.23173 0.0771,-0.002 0.64619,-1.63868 1.2647,-3.63802 z m 6.80145,0.43662 c 1.25954,-1.76235 2.2362,-3.25816 2.17034,-3.32402 -0.29605,-0.296048 -3.13985,-0.888908 -5.03385,-1.049428 l -2.08123,-0.1764 0.19233,0.63592 c 0.20223,0.668598 1.94071,6.218978 2.12597,6.787478 0.0593,0.1819 0.1592,0.33073 0.22206,0.33073 0.0629,0 1.14483,-1.44193 2.40438,-3.20428 z m 22.10419,-29.28928 c 0,-0.236403 -26.89502,-46.889375 -27.22137,-47.219056 -0.16531,-0.167 -27.547376,46.84774 -27.547376,47.298574 0,0.07418 12.322966,0.134879 27.384366,0.134879 15.06141,0 27.38438,-0.09648 27.38438,-0.214397 z M 95.845684,70.36323 c 0,-0.03872 1.10906,-1.026462 2.46458,-2.194978 8.462416,-7.29497 14.600926,-18.101989 16.570996,-29.17374 l 0.44725,-2.513542 0.46087,2.513542 c 1.54311,8.415908 5.16226,16.256541 10.57989,22.920541 1.72838,2.126014 6.17269,6.572252 7.84099,7.844411 0.87444,0.666798 0.73437,0.64113 -2.51354,-0.4606 -11.0936,-3.763081 -23.46221,-3.635742 -33.807996,0.348062 -1.12367,0.432689 -2.04304,0.755026 -2.04304,0.716304 z m 9.119256,-3.723097 c 7.74302,-1.567786 16.65413,-1.26291 24.48282,0.837631 0.51552,0.138321 0.22309,-0.284393 -1.3254,-1.915909 C 122.41411,59.547532 118.13849,51.9479 115.78035,43.62472 l -0.44977,-1.5875 -0.25803,0.926042 c -2.48945,8.934431 -6.01085,15.317771 -12.47043,22.605541 -1.02391,1.155187 -1.63647,2.015672 -1.36126,1.912194 0.27521,-0.103476 1.95105,-0.481867 3.72408,-0.840864 z M 68.852074,208.51944 c -5.59486,-1.90769 -9.5097,-7.32367 -9.5097,-13.15619 0,-4.54483 2.41475,-9.1546 6.0763,-11.59969 2.49485,-1.666 4.64149,-2.28351 7.93742,-2.28331 3.06941,1.8e-4 4.64471,0.39499 7.10955,1.78179 4.40254,2.47703 7.34071,8.24856 6.76662,13.29183 -0.66137,5.81005 -4.33626,10.41986 -9.60456,12.04804 -2.42401,0.74914 -6.44757,0.71133 -8.77563,-0.0825 z m 6.9384,-0.74858 c 3.46372,-0.72231 7.08916,-3.41074 8.73556,-6.47779 3.1483,-5.86492 1.17188,-13.10258 -4.58712,-16.79812 -3.70183,-2.37546 -8.88087,-2.46219 -12.84048,-0.21504 -2.75627,1.56424 -5.46161,5.16559 -6.16173,8.2025 -2.01936,8.75932 6.09811,17.11433 14.85377,15.28845 z m -5.79406,-4.23267 c -1.86869,-0.71843 -3.85501,-2.56399 -4.75412,-4.41723 -0.63324,-1.30522 -0.73211,-1.82998 -0.73297,-3.89 -8e-4,-1.86819 0.12049,-2.6478 0.56286,-3.61836 0.7571,-1.66112 2.54414,-3.54955 4.17225,-4.40897 1.19883,-0.63281 1.61418,-0.70392 4.11166,-0.70392 2.50134,0 2.90993,0.0702 4.10105,0.70474 6.75107,3.59644 6.23729,13.70751 -0.83091,16.35206 -1.90381,0.71231 -4.74983,0.70444 -6.62982,-0.0183 z m 5.2954,-0.10359 c 0.83475,-0.21743 1.79358,-0.57606 2.13072,-0.79697 l 0.61299,-0.40164 -2.40586,-2.37004 -2.40586,-2.37004 -2.30529,2.29182 c -2.6328,2.61742 -2.63531,2.69784 -0.10932,3.49862 1.99132,0.63128 2.55638,0.64997 4.48262,0.14825 z m 6.01702,-5.38117 c 0.7286,-1.92994 0.61884,-4.646 -0.25679,-6.3545 -1.3012,-2.53887 -3.88988,-4.50029 -6.50532,-4.92903 l -1.05833,-0.17349 2.64059,2.66335 2.64059,2.66335 -2.35979,2.37078 -2.3598,2.37078 2.36504,2.49386 2.36503,2.49386 0.98133,-1.0497 c 0.53974,-0.57733 1.23609,-1.7245 1.54745,-2.54926 z m -11.13868,0.97381 2.23802,-2.35198 -2.36507,-2.37607 -2.36507,-2.37608 2.6406,-2.65161 c 2.54576,-2.5564 2.60733,-2.64548 1.71455,-2.48065 -2.74376,0.50654 -5.30153,2.54918 -6.47983,5.17478 -0.64204,1.43065 -0.7134,1.85769 -0.60727,3.63387 0.0799,1.3365 0.30853,2.37863 0.68062,3.10186 0.61159,1.18874 1.85189,2.76789 2.13052,2.71258 0.0962,-0.0191 1.18202,-1.09311 2.41293,-2.3867 z m 4.9785,-8.88329 -1.912,-1.92485 -1.92485,1.91201 -1.92486,1.912 1.91201,1.92485 1.91201,1.92485 1.92485,-1.912 1.92485,-1.91201 z m 77.847026,17.05257 c -3.54779,-1.21399 -6.26322,-3.43845 -7.8631,-6.4414 -2.18789,-4.10663 -2.24244,-9.48332 -0.13636,-13.44186 0.99926,-1.8782 4.10342,-4.93166 5.88279,-5.78671 5.75272,-2.76436 12.44598,-1.62248 16.60324,2.83256 7.17049,7.68409 3.61706,20.41808 -6.42777,23.03443 -2.33739,0.60881 -5.96285,0.52018 -8.0588,-0.19702 z m 7.13298,-0.86866 c 3.04451,-0.69245 6.18986,-2.94024 7.95404,-5.68424 3.15295,-4.90407 2.38987,-11.39373 -1.83669,-15.62029 -5.20478,-5.20478 -13.39984,-4.96596 -18.34534,0.53464 -4.60019,5.11651 -4.31313,12.61617 0.66591,17.3973 3.35288,3.2196 7.24419,4.35467 11.56208,3.37259 z m -6.3301,-4.13899 c -3.22871,-1.23948 -5.3008,-4.46192 -5.3008,-8.24362 0,-3.57118 1.49275,-6.16698 4.49792,-7.82157 1.6328,-0.89899 1.84693,-0.94689 4.23333,-0.94689 2.15925,0 2.72189,0.0977 3.99163,0.69316 1.80029,0.84426 3.17722,2.17729 4.14413,4.01204 0.65377,1.24056 0.72709,1.64794 0.72453,4.02605 -0.002,2.26883 -0.0953,2.83433 -0.65163,3.96875 -0.90928,1.8541 -2.85744,3.67716 -4.64365,4.34547 -1.98769,0.74369 -5.00882,0.72927 -6.99546,-0.0334 z m 7.42165,-0.77352 c 2.88939,-1.54002 4.57743,-4.30854 4.57743,-7.50731 0,-2.25366 -0.62295,-3.7945 -2.24598,-5.55528 -3.45983,-3.75347 -8.63497,-3.90636 -12.18146,-0.35987 -1.68545,1.68546 -2.48101,3.65079 -2.44797,6.04744 0.0161,1.17107 0.19687,2.36392 0.44096,2.91042 2.17834,4.8772 7.39651,6.84203 11.85702,4.4646 z m -4.49123,-0.31464 c -0.1874,-0.47522 -0.29372,-3.12669 -0.29372,-7.32496 0,-4.19827 0.10632,-6.84975 0.29372,-7.32496 0.27292,-0.69207 0.30909,-0.70735 0.51058,-0.21567 0.11926,0.29105 0.21684,3.68433 0.21684,7.54063 0,3.8563 -0.0976,7.24958 -0.21684,7.54062 -0.20149,0.49168 -0.23766,0.47641 -0.51058,-0.21566 z M 29.038394,138.45036 c -2.01788,-0.40883 -4.94984,-1.93666 -6.58573,-3.43178 -6.49552,-5.93653 -5.68657,-16.98777 1.5974,-21.8226 2.44969,-1.626 4.7927,-2.31174 7.89874,-2.31174 2.1417,0 3.00387,0.12572 4.52492,0.6598 5.78075,2.02977 9.36571,7.07301 9.36571,13.17546 0,7.62333 -5.6538,13.56348 -13.22917,13.89922 -1.23693,0.0548 -2.84427,-0.0209 -3.57187,-0.16836 z m 6.56023,-1.56248 c 5.89555,-1.82095 9.85145,-7.98347 8.92088,-13.89699 -0.96038,-6.10291 -6.53453,-10.96511 -12.5707,-10.96511 -7.4993,0 -13.73705,7.14806 -12.60169,14.44072 0.32392,2.08063 1.70146,5.08843 3.02713,6.60962 3.20168,3.67391 8.61705,5.23482 13.22438,3.81176 z m -5.97352,-3.44454 c -2.27629,-0.57426 -4.5644,-2.43079 -5.68435,-4.61217 -0.98417,-1.91693 -1.13612,-5.22177 -0.33748,-7.34002 0.78962,-2.09432 2.50145,-3.91639 4.56186,-4.85563 1.38292,-0.63041 2.02867,-0.76159 3.78924,-0.76974 1.87545,-0.009 2.32763,0.0913 3.88867,0.8598 3.23128,1.59075 4.9693,4.38665 4.9693,7.99392 0,3.51852 -1.86903,6.60101 -4.90225,8.08503 -1.56963,0.76795 -4.56592,1.07249 -6.28499,0.63881 z m 5.76329,-1.01125 c 5.77678,-2.74249 6.78527,-10.0241 1.96031,-14.15409 -3.21711,-2.75373 -7.83725,-2.64906 -11.06239,0.25062 -1.90786,1.71533 -2.77567,3.64997 -2.77701,6.19088 -0.001,2.39889 0.58714,3.88235 2.26436,5.70876 1.65108,1.79795 3.79989,2.75749 6.17514,2.75749 1.48804,0 2.16412,-0.14814 3.43959,-0.75366 z m -3.78257,-0.42393 c -0.19285,-0.42326 -0.31848,-1.97693 -0.31848,-3.93873 v -3.23975 l -1.21184,-1.17957 c -2.40973,-2.34554 -2.38474,-3.76593 0.0271,-1.54274 l 1.18471,1.09203 v -2.53479 c 0,-2.53175 0.40174,-4.24306 0.83559,-3.55939 0.11805,0.18603 0.21647,1.87594 0.21869,3.75535 l 0.004,3.41711 1.5875,1.65322 c 1.74674,1.81904 2.14082,2.79422 0.8599,2.12783 -0.40018,-0.20819 -1.01625,-0.6875 -1.36904,-1.06513 -0.35279,-0.37763 -0.73974,-0.6866 -0.85989,-0.6866 -0.12016,0 -0.22683,1.22039 -0.23706,2.71198 -0.0102,1.49159 -0.10504,2.93162 -0.2107,3.20007 -0.17175,0.43639 -0.22582,0.41405 -0.51057,-0.21089 z m 163.987776,6.32078 c -7.9768,-1.72268 -12.69971,-10.25418 -10.04275,-18.14126 3.20443,-9.51221 15.47769,-12.50112 22.84278,-5.56291 5.55628,5.23423 5.66672,14.5432 0.23696,19.97295 -3.38077,3.38078 -8.23141,4.76904 -13.03699,3.73122 z m 6.25253,-1.27724 c 3.30522,-0.88008 6.6789,-3.57424 8.1765,-6.5296 2.56385,-5.05952 1.65822,-10.62224 -2.38808,-14.66855 -5.03305,-5.03305 -12.29185,-5.13153 -17.57694,-0.23848 -2.33564,2.1624 -3.72726,5.0362 -3.91782,8.09061 -0.25852,4.14382 0.8073,6.96149 3.74422,9.8984 1.88331,1.88331 3.80815,3.0346 5.89439,3.52556 1.5424,0.36298 4.55724,0.32425 6.06773,-0.0779 z m -5.75772,-3.73458 c -5.33241,-1.71079 -7.78145,-7.61152 -5.27347,-12.70595 1.82281,-3.70264 5.97178,-5.55544 10.09662,-4.50881 7.97173,2.02272 9.25598,12.98164 1.94318,16.58172 -2.06833,1.01823 -4.7761,1.27156 -6.76633,0.63304 z m 5.71602,-0.68027 c 1.78801,-0.66898 3.74197,-2.49513 4.64961,-4.34547 0.5356,-1.09188 0.64828,-1.7157 0.64522,-3.57188 -0.003,-1.91995 -0.10636,-2.44249 -0.70533,-3.57187 -0.84489,-1.59307 -2.56448,-3.29236 -4.18575,-4.13635 -1.74012,-0.90586 -5.14085,-0.89481 -7.01146,0.0228 -3.73431,1.83179 -5.71686,6.17026 -4.62161,10.11362 0.38846,1.39861 1.79397,3.36942 3.12083,4.37605 1.23016,0.93328 1.63307,1.06456 1.63307,0.53213 0,-0.18512 1.00405,-1.3354 2.23121,-2.55619 l 2.2312,-2.21961 -2.23538,-2.39559 -2.23538,-2.39559 2.45157,-2.47865 c 2.20273,-2.22706 3.4991,-3.19493 3.83262,-2.8614 0.26572,0.26572 -0.62967,1.47082 -2.52893,3.40368 l -2.01507,2.0507 2.23753,2.24922 2.23753,2.24921 -2.63546,2.6454 c -1.44951,1.45495 -2.81034,2.64538 -3.02408,2.64538 -0.24041,0 -0.29276,0.0911 -0.13725,0.2389 0.75122,0.71401 4.16342,0.71712 6.06531,0.006 z M 69.724564,67.691473 c -4.56427,-1.229331 -8.10772,-4.56343 -9.63676,-9.067408 -0.84532,-2.490012 -0.84532,-6.342012 0,-8.832024 2.78462,-8.202464 11.98821,-11.879461 19.81856,-7.917863 7.22674,3.656219 9.59118,13.275413 4.97325,20.232613 -1.77989,2.681518 -4.715,4.740857 -7.96263,5.586759 -1.91174,0.49794 -5.33962,0.496951 -7.19242,-0.0021 z m 5.48362,-0.923306 c 5.78286,-0.901763 10.37947,-5.92619 10.78275,-11.786322 0.44112,-6.410078 -4.2854,-12.24558 -10.80977,-13.346059 -7.3788,-1.244595 -14.52507,4.940903 -14.52507,12.572267 0,6.719061 5.40982,12.287202 12.43542,12.799361 0.21828,0.0159 1.17078,-0.09175 2.11667,-0.239247 z m -5.21177,-4.252886 c -1.86869,-0.718423 -3.85501,-2.563984 -4.75412,-4.417229 -0.63324,-1.305219 -0.73211,-1.82998 -0.73297,-3.889999 -8e-4,-1.868186 0.12049,-2.647797 0.56286,-3.618354 0.7571,-1.661126 2.54414,-3.549555 4.17225,-4.408972 1.19883,-0.632814 1.61418,-0.703924 4.11166,-0.703924 3.06458,0 4.02686,0.328578 5.97714,2.040954 4.89189,4.295129 3.37714,12.73948 -2.69257,15.010449 -1.91866,0.717862 -4.75776,0.71234 -6.64425,-0.01291 z m 5.46892,-0.12745 c 1.82717,-0.542612 3.13626,-1.382609 4.33227,-2.779879 3.60139,-4.207422 2.1527,-10.627208 -2.96296,-13.130064 -1.9438,-0.951015 -4.79197,-1.013338 -6.71102,-0.146846 -1.85869,0.83924 -3.72031,2.717726 -4.57027,4.611682 -1.96516,4.378965 0.5651,9.833903 5.2503,11.319026 2.01119,0.63751 2.86202,0.660521 4.66168,0.126081 z m -3.26539,-1.234466 c -0.23775,-0.887174 -0.20027,-15.073524 0.0396,-14.971005 0.11348,0.04851 1.20655,1.135303 2.42905,2.415103 l 2.22273,2.32691 -1.89988,1.912643 -1.89988,1.912647 v 3.080993 c 0,3.029209 -0.11947,3.918021 -0.52662,3.918021 -0.11298,0 -0.27721,-0.26789 -0.36495,-0.595312 z m 2.21958,-9.331819 0.90265,-0.931299 -1.11533,-1.11533 -1.11533,-1.115333 v 2.046632 c 0,1.125646 0.0957,2.046628 0.21268,2.046628 0.11698,0 0.61887,-0.419084 1.11533,-0.931298 z m 79.430036,15.894287 c -3.49468,-0.846296 -7.08279,-3.595322 -8.73241,-6.690309 -2.93312,-5.503111 -1.965,-12.409733 2.34345,-16.718179 2.65939,-2.659399 5.96664,-3.992568 9.89015,-3.986776 4.01715,0.0059 6.97364,1.233003 9.82455,4.077628 4.34586,4.336267 5.3255,10.55266 2.56749,16.292147 -0.91875,1.911948 -3.98725,4.980443 -5.89919,5.899195 -3.04273,1.462132 -6.84008,1.890077 -9.99404,1.126294 z m 5.80665,-1.058913 c 9.91882,-2.102223 13.73449,-13.783862 6.89183,-21.099223 -3.03311,-3.242638 -7.45764,-4.702643 -11.60135,-3.828206 -2.65234,0.559718 -4.44636,1.557713 -6.51021,3.621561 -2.088,2.088004 -3.18847,4.178575 -3.65474,6.942939 -1.1164,6.618758 3.74215,13.255354 10.59519,14.472628 1.77491,0.315267 2.34287,0.30071 4.27928,-0.109699 z m -5.23276,-3.945384 c -3.65657,-1.195557 -5.92569,-4.449075 -5.92569,-8.496395 0,-2.730302 0.73881,-4.616863 2.49629,-6.374344 1.74667,-1.746676 3.64753,-2.496286 6.33005,-2.496286 3.57118,0 6.16697,1.492753 7.82157,4.497917 0.90841,1.649912 0.94688,1.8273 0.94668,4.365625 -1.8e-4,2.374852 -0.0747,2.787192 -0.72758,4.02605 -0.93018,1.765049 -2.23615,3.064756 -3.97742,3.958347 -1.11243,0.570886 -1.81654,0.724389 -3.62917,0.791199 -1.38806,0.05116 -2.66459,-0.053 -3.33473,-0.272113 z m 6.37508,-0.799187 c 4.20859,-1.938605 6.18571,-6.999272 4.31736,-11.050736 -1.99496,-4.325998 -7.0027,-6.328645 -11.07395,-4.428587 -2.09137,0.976045 -3.28979,2.138672 -4.28197,4.15408 -0.72906,1.480933 -0.86533,2.051147 -0.86533,3.620947 0,6.11333 6.38564,10.246171 11.90389,7.704296 z m -4.06955,-0.511625 c -0.1874,-0.475218 -0.29372,-3.12669 -0.29372,-7.324963 0,-4.198273 0.10632,-6.849745 0.29372,-7.324963 0.27292,-0.692065 0.30909,-0.707342 0.51058,-0.215662 0.11926,0.291042 0.21684,3.684323 0.21684,7.540625 0,3.856302 -0.0976,7.249583 -0.21684,7.540625 -0.20149,0.49168 -0.23766,0.476403 -0.51058,-0.215662 z"
       id="path847"
       inkscape:export-xdpi="96"
       inkscape:export-ydpi="96" />
  </g>
</svg>
