<?xml version="1.0" encoding="UTF-8" standalone="no"?>
<svg
   xmlns:dc="http://purl.org/dc/elements/1.1/"
   xmlns:cc="http://creativecommons.org/ns#"
   xmlns:rdf="http://www.w3.org/1999/02/22-rdf-syntax-ns#"
   xmlns:svg="http://www.w3.org/2000/svg"
   xmlns="http://www.w3.org/2000/svg"
   xmlns:sodipodi="http://sodipodi.sourceforge.net/DTD/sodipodi-0.dtd"
   xmlns:inkscape="http://www.inkscape.org/namespaces/inkscape"
   width="210mm"
   height="297mm"
   viewBox="0 0 210 297"
   version="1.1"
   id="svg8"
   inkscape:version="1.0.2-2 (e86c870879, 2021-01-15)"
   sodipodi:docname="evocation.svg">
  <defs
     id="defs2" />
  <sodipodi:namedview
     id="base"
     pagecolor="#ffffff"
     bordercolor="#666666"
     borderopacity="1.0"
     inkscape:pageopacity="0.0"
     inkscape:pageshadow="2"
     inkscape:zoom="0.98994949"
     inkscape:cx="487.18248"
     inkscape:cy="452.7968"
     inkscape:document-units="mm"
     inkscape:current-layer="layer1"
     inkscape:document-rotation="0"
     showgrid="false"
     inkscape:window-width="3736"
     inkscape:window-height="2126"
     inkscape:window-x="93"
     inkscape:window-y="-11"
     inkscape:window-maximized="1" />
  <metadata
     id="metadata5">
    <rdf:RDF>
      <cc:Work
         rdf:about="">
        <dc:format>image/svg+xml</dc:format>
        <dc:type
           rdf:resource="http://purl.org/dc/dcmitype/StillImage" />
        <dc:title></dc:title>
      </cc:Work>
    </rdf:RDF>
  </metadata>
  <g
     inkscape:label="Layer 1"
     inkscape:groupmode="layer"
     id="layer1">
    <path
       style="fill:#000000;stroke-width:0.264583"
       d="m 111.25098,237.21903 c -8.82805,-1.91554 -14.205868,-10.7123 -11.947368,-19.54292 1.143568,-4.47132 4.085268,-8.13084 8.173068,-10.16743 l 2.21345,-1.10276 H 62.695952 c -25.8468,0 -46.994181,-0.0648 -46.994181,-0.14401 0,-0.10046 38.778771,-67.40101 40.698371,-70.63204 0.0865,-0.14552 -0.13538,-0.0559 -0.49298,0.19909 -5.04068,3.59472 -10.40653,4.47294 -15.78316,2.58321 -4.92098,-1.72959 -8.91165,-6.32367 -10.001275,-11.51355 -2.357486,-11.22864 7.133275,-21.07337 18.387375,-19.07315 4.82783,0.85806 9.09935,3.95446 11.17958,8.104 1.44763,2.88768 1.85904,4.82786 1.74295,8.21959 -0.0535,1.56352 -0.008,2.70273 0.10219,2.53158 0.10972,-0.17115 12.07709,-20.87915 26.59416,-46.017789 14.517058,-25.13863 26.467748,-45.706674 26.557068,-45.706764 0.0893,-9e-5 12.15704,20.776234 26.81714,46.169624 14.66011,25.393379 26.67376,46.169789 26.69701,46.169789 0.0232,0 -0.002,-1.28804 -0.0557,-2.86231 -0.14815,-4.32818 0.75051,-7.2647 3.22274,-10.53094 1.3292,-1.7561 3.27097,-3.35393 5.36606,-4.41559 3.4646,-1.75564 8.31469,-2.10549 12.13827,-0.87555 9.27112,2.98225 13.58983,13.46726 9.22172,22.38856 -1.36051,2.77866 -4.25642,5.66251 -6.97276,6.94372 -2.67244,1.26051 -4.41897,1.6455 -7.40833,1.63301 -3.62212,-0.0151 -6.55561,-0.99556 -9.5852,-3.20354 l -1.25082,-0.9116 3.17503,5.50826 c 1.74627,3.02955 10.94493,18.96233 20.44147,35.40619 l 17.26645,29.89791 -47.07405,0.1323 c -40.31152,0.11328 -46.92633,0.18439 -46.04586,0.495 4.32562,1.52599 8.37278,6.19278 9.49378,10.94728 0.50646,2.14806 0.50429,5.75702 -0.005,7.75056 -0.86747,3.39784 -2.94956,6.64842 -5.48283,8.55985 -3.92265,2.95975 -8.76232,4.06553 -13.39453,3.06042 z m 8.29975,-1.71246 c 5.91656,-2.25336 9.76783,-7.67165 9.7768,-13.75482 0.006,-4.08869 -1.44474,-7.4939 -4.4529,-10.45179 -4.69393,-4.61549 -11.14742,-5.60637 -16.90135,-2.59506 -4.85694,2.54187 -7.92234,7.53892 -7.92234,12.91456 0,6.54831 4.56328,12.49213 10.97346,14.29326 2.07472,0.58296 6.48029,0.3731 8.52633,-0.40615 z m -6.22414,-3.44905 -1.70074,-3.43394 1.59695,-1.59695 1.59695,-1.59694 1.65276,1.53446 1.65276,1.53447 -1.4916,3.43905 c -0.82038,1.89148 -1.51742,3.46487 -1.54897,3.49643 -0.0316,0.0315 -0.8227,-1.48791 -1.75811,-3.37658 z m -2.90399,-6.2165 c 0,-0.0792 0.19529,-0.92152 0.43398,-1.87174 l 0.43398,-1.72767 1.28581,1.26647 c 0.7072,0.69657 1.28582,1.34074 1.28582,1.43149 0,0.0908 -0.71258,0.36312 -1.58351,0.60526 -1.75171,0.48702 -1.85608,0.50367 -1.85608,0.29619 z m 6.54844,-0.30759 c -0.83674,-0.21952 -1.52135,-0.48008 -1.52135,-0.579 0,-0.0989 0.57506,-0.74628 1.27792,-1.43857 l 1.27792,-1.2587 0.54374,1.86396 c 0.35907,1.23091 0.44175,1.85504 0.24344,1.8377 -0.16518,-0.0144 -0.98492,-0.20587 -1.82167,-0.42539 z m -12.88929,-2.04837 -3.29816,-1.4075 3.22794,-1.61811 c 1.77536,-0.88997 3.38232,-1.61812 3.57102,-1.61812 0.18869,0 1.0241,0.6882 1.85645,1.52934 l 1.51338,1.52933 -1.52933,1.51337 c -0.84113,0.83236 -1.64494,1.50569 -1.78624,1.49629 -0.1413,-0.009 -1.74108,-0.65047 -3.55506,-1.4246 z m 16.06429,-0.25111 c -0.83674,-0.77239 -1.51588,-1.51116 -1.5092,-1.64171 0.007,-0.13055 0.64348,-0.93224 1.41511,-1.78153 l 1.40296,-1.54416 2.61978,1.11867 c 1.44089,0.61526 3.03639,1.29436 3.54557,1.50909 l 0.92578,0.39043 -3.30703,1.67497 c -1.81887,0.92123 -3.36656,1.67578 -3.43932,1.67678 -0.0728,0.001 -0.8169,-0.63014 -1.65365,-1.40254 z m -6.4218,-0.95894 -0.76611,-0.79965 0.8489,-0.84891 0.84891,-0.8489 0.8489,0.8489 0.84891,0.84891 -0.76612,0.79965 c -0.42136,0.43981 -0.84062,0.79965 -0.93169,0.79965 -0.0911,0 -0.51034,-0.35984 -0.9317,-0.79965 z m -2.87184,-2.93815 c -0.2479,-0.89162 -0.39906,-1.67279 -0.33592,-1.73593 0.15377,-0.15377 3.34618,0.51261 3.344,0.69803 -0.003,0.2448 -2.14265,2.65904 -2.35675,2.65904 -0.11034,0 -0.40344,-0.72951 -0.65133,-1.62114 z m 5.83887,0.38606 c -0.69958,-0.66219 -1.21841,-1.25754 -1.15294,-1.32301 0.27338,-0.27337 3.35094,-1.07922 3.35094,-0.87743 0,0.44556 -0.62275,3.04448 -0.77193,3.22153 -0.0848,0.10059 -0.72649,-0.3589 -1.42607,-1.02109 z m -3.83031,-3.33731 c -0.75901,-0.76855 -1.38002,-1.5319 -1.38002,-1.69632 0,-0.28754 2.57132,-6.44497 2.77749,-6.65114 0.11334,-0.11334 3.30792,6.17648 3.30792,6.51297 0,0.36446 -2.66768,3.23188 -3.00676,3.23188 -0.17523,0 -0.93962,-0.62882 -1.69863,-1.39739 z m -85.252939,-13.0224 v -2.24896 H 26.268175 24.92833 l 0.593153,-1.05537 c 0.326234,-0.58046 0.542211,-1.09636 0.47995,-1.14644 -0.112994,-0.0909 -3.398971,-2.03655 -3.72463,-2.20538 -0.143647,-0.0745 -5.252115,8.48576 -5.252115,8.80094 0,0.0573 2.38125,0.10417 5.291667,0.10417 h 5.291666 z m 3.704171,0 v -2.24896 h -1.719796 -1.719791 v 2.24896 2.24896 h 1.719791 1.719796 z m 3.70416,0 v -2.24896 h -1.71979 -1.71979 v 2.24896 2.24896 h 1.71979 1.71979 z m 3.70417,0 v -2.24896 h -1.71979 -1.71979 v 2.24896 2.24896 h 1.71979 1.71979 z m 3.70417,0 v -2.24896 h -1.7198 -1.71979 v 2.24896 2.24896 h 1.71979 1.7198 z m 3.70416,0 v -2.24896 h -1.71979 -1.71979 v 2.24896 2.24896 h 1.71979 1.71979 z m 3.70417,0 v -2.24896 h -1.71979 -1.71979 v 2.24896 2.24896 h 1.71979 1.71979 z m 3.70417,0 v -2.24896 h -1.7198 -1.71979 v 2.24896 2.24896 h 1.71979 1.7198 z m 3.70416,0 v -2.24896 h -1.71979 -1.71979 v 2.24896 2.24896 h 1.71979 1.71979 z m 3.70417,0 v -2.24896 h -1.71979 -1.71979 v 2.24896 2.24896 h 1.71979 1.71979 z m 3.70417,0 v -2.24896 h -1.7198 -1.71979 v 2.24896 2.24896 h 1.71979 1.7198 z m 3.70416,0 v -2.24896 h -1.71979 -1.71979 v 2.24896 2.24896 h 1.71979 1.71979 z m 3.70417,0 v -2.24896 h -1.71979 -1.71979 v 2.24896 2.24896 h 1.71979 1.71979 z m 3.70417,0 v -2.24896 h -1.71979 -1.7198 v 2.24896 2.24896 h 1.7198 1.71979 z m 3.70416,0 v -2.24896 h -1.71979 -1.71979 v 2.24896 2.24896 h 1.71979 1.71979 z m 3.70417,0 v -2.24896 h -1.71979 -1.71979 v 2.24896 2.24896 h 1.71979 1.71979 z m 3.70417,0 v -2.24896 h -1.71979 -1.7198 v 2.24896 2.24896 h 1.7198 1.71979 z m 3.70416,0 v -2.24896 h -1.71979 -1.71979 v 2.24896 2.24896 h 1.71979 1.71979 z m 3.70417,0 v -2.24896 h -1.71979 -1.71979 v 2.24896 2.24896 h 1.71979 1.71979 z m 3.70417,0 v -2.24896 h -1.71979 -1.7198 v 2.24896 2.24896 h 1.7198 1.71979 z m 3.704158,0 v -2.24896 h -1.719788 -1.71979 v 2.24896 2.24896 h 1.71979 1.719788 z m 3.70417,0 v -2.24896 h -1.71979 -1.71979 v 2.24896 2.24896 h 1.71979 1.71979 z m 3.70417,0 v -2.24896 h -1.71979 -1.7198 v 2.24896 2.24896 h 1.7198 1.71979 z m 3.70416,0 v -2.24896 h -1.71979 -1.71979 v 2.24896 2.24896 h 1.71979 1.71979 z m 3.70417,0 v -2.24896 h -1.71979 -1.71979 v 2.24896 2.24896 h 1.71979 1.71979 z m 3.70417,0 v -2.24896 h -1.71979 -1.7198 v 2.24896 2.24896 h 1.7198 1.71979 z m 3.70416,0 v -2.24896 h -1.71979 -1.71979 v 2.24896 2.24896 h 1.71979 1.71979 z m 3.70417,0 v -2.24896 h -1.71979 -1.71979 v 2.24896 2.24896 h 1.71979 1.71979 z m 3.70417,0 v -2.24896 h -1.71979 -1.7198 v 2.24896 2.24896 h 1.7198 1.71979 z m 3.70416,0 v -2.24896 h -1.71979 -1.71979 v 2.24896 2.24896 h 1.71979 1.71979 z m 3.70417,0 v -2.24896 h -1.71979 -1.71979 v 2.24896 2.24896 h 1.71979 1.71979 z m 3.70417,0 v -2.24896 h -1.71979 -1.7198 v 2.24896 2.24896 h 1.7198 1.71979 z m 3.70416,0 v -2.24896 h -1.71979 -1.71979 v 2.24896 2.24896 h 1.71979 1.71979 z m 3.70417,0 v -2.24896 h -1.71979 -1.71979 v 2.24896 2.24896 h 1.71979 1.71979 z m 3.70417,0 v -2.24896 h -1.71979 -1.7198 v 2.24896 2.24896 h 1.7198 1.71979 z m 3.70416,0 v -2.24896 h -1.71979 -1.71979 v 2.24896 2.24896 h 1.71979 1.71979 z m 3.70417,0 v -2.24896 h -1.71979 -1.71979 v 2.24896 2.24896 h 1.71979 1.71979 z m 3.70417,0 v -2.24896 h -1.71979 -1.7198 v 2.24896 2.24896 h 1.7198 1.71979 z m 3.70416,0 v -2.24896 h -1.71979 -1.71979 v 2.24896 2.24896 h 1.71979 1.71979 z m 3.70417,0 v -2.24896 h -1.71979 -1.71979 v 2.24896 2.24896 h 1.71979 1.71979 z m 3.70418,0 v -2.24896 h -1.7198 -1.7198 v 2.24896 2.24896 h 1.7198 1.7198 z m 3.70416,0 v -2.24896 h -1.71979 -1.71979 v 2.24896 2.24896 h 1.71979 1.71979 z m 3.70417,0 v -2.24896 h -1.71979 -1.71979 v 2.24896 2.24896 h 1.71979 1.71979 z m 3.70417,0 v -2.24896 h -1.71979 -1.71979 v 2.24896 2.24896 h 1.71979 1.71979 z m 3.70417,0 v -2.24896 h -1.7198 -1.71979 v 2.24896 2.24896 h 1.71979 1.7198 z m 3.70416,0 v -2.24896 h -1.71979 -1.71979 v 2.24896 2.24896 h 1.71979 1.71979 z m 3.70417,0 v -2.24896 h -1.71979 -1.71979 v 2.24896 2.24896 h 1.71979 1.71979 z m 3.70417,0 v -2.24896 h -1.7198 -1.71979 v 2.24896 2.24896 h 1.71979 1.7198 z m 10.58333,2.10951 c 0,-0.18334 -4.36169,-7.78373 -4.83782,-8.43007 -0.35324,-0.4795 -0.4448,-0.45495 -2.26307,0.60699 -1.04222,0.60868 -1.89494,1.16572 -1.89494,1.23786 0,0.0721 0.24054,0.60267 0.53454,1.17896 l 0.53454,1.04779 h -1.196 -1.196 v 2.24896 2.24896 h 5.15937 c 2.83766,0 5.15938,-0.0628 5.15938,-0.13945 z M 47.557982,196.31088 c 1.10575,-1.91425 2.01046,-3.57844 2.01046,-3.6982 0,-0.11976 -2.14422,-0.25019 -4.76492,-0.28986 l -4.76493,-0.0721 2.13807,-3.70417 c 1.17593,-2.03729 2.25277,-3.91253 2.39298,-4.16719 0.23799,-0.43227 -0.0253,-0.46302 -3.96485,-0.46302 h -4.21977 l -4.52079,7.82711 c -2.486436,4.30491 -4.520794,7.87678 -4.520794,7.9375 0,0.0607 4.095914,0.11039 9.102044,0.11039 h 9.10204 z m -13.13694,-0.14864 c -0.40018,-0.0606 -0.7276,-0.16423 -0.7276,-0.23023 0,-0.56043 4.32681,-8.31151 4.63966,-8.31151 0.17528,0 -0.66814,2.57246 -1.60679,4.90076 -0.51316,1.2729 -0.89947,2.33704 -0.85847,2.36475 0.041,0.0277 1.47505,0.25417 3.18677,0.50325 4.80418,0.69907 4.85434,0.93206 0.19508,0.90607 -2.25558,-0.0126 -4.42847,-0.0725 -4.82865,-0.13309 z m 66.608858,2.86546 c -6.866558,-1.88483 -13.588418,-5.34837 -19.022168,-9.80146 -3.79256,-3.1081 -8.93952,-8.92429 -10.83323,-12.2418 -0.31443,-0.55084 -0.63122,-1.00087 -0.70398,-1.00007 -0.0728,7.9e-4 -2.23799,3.66106 -4.81162,8.1339 l -4.67934,8.13244 -4.97795,0.0755 -4.97797,0.0755 -2.05052,3.5497 c -1.12778,1.95235 -2.05052,3.61503 -2.05052,3.69486 0,0.0798 12.76946,0.13673 28.37657,0.12646 l 28.376558,-0.0187 -2.64583,-0.72627 z m 22.3073,0.37592 c 10.61974,-1.86894 20.33888,-7.05685 27.83844,-14.85968 3.1037,-3.22921 7.62872,-9.30766 7.22758,-9.7088 -0.0743,-0.0743 0.10671,-0.37697 0.40229,-0.67255 0.29558,-0.29558 1.06584,-1.64579 1.71168,-3.00048 5.77928,-12.12228 6.50328,-26.01871 2.01647,-38.70366 -1.05675,-2.98761 -1.48776,-3.86802 -4.21146,-8.60253 -2.63878,-4.58692 -3.81958,-6.17647 -7.14673,-9.62077 -8.79909,-9.10888 -20.1446,-14.486419 -32.68307,-15.491079 -2.33032,-0.18672 -2.98537,-0.16184 -3.28646,0.12481 -0.31641,0.30124 -0.42129,0.29774 -0.66146,-0.0221 -0.24072,-0.32058 -0.79899,-0.33796 -3.56471,-0.11095 -14.236528,1.16851 -26.906728,7.828469 -35.709028,18.770079 -2.56047,3.18277 -6.84017,10.63819 -8.20158,14.2875 -4.90337,13.14369 -4.06346,27.73938 2.32775,40.45087 0.59374,1.18088 1.24563,2.14705 1.44867,2.14705 0.22206,0 0.32065,0.18548 0.24742,0.4655 -0.0742,0.28381 0.59347,1.49724 1.71064,3.10885 7.68804,11.09062 18.76888,18.44235 31.930418,21.18466 2.57487,0.53649 3.68829,0.60836 9.65729,0.62334 4.80937,0.0121 7.37836,-0.0942 8.94585,-0.37006 z m -21.75525,-7.13336 -1.52981,-3.57692 -0.834038,0.3492 c -0.45872,0.19206 -1.99687,0.86151 -3.4181,1.48767 -1.42124,0.62616 -2.64831,1.07424 -2.72681,0.99573 -0.0785,-0.0785 1.39297,-3.97048 3.26995,-8.64884 1.87698,-4.67836 3.32487,-8.56038 3.21755,-8.62671 -0.10732,-0.0663 -0.25318,0.0307 -0.32413,0.21555 -0.16794,0.43763 -11.01202,13.79315 -11.27774,13.8896 -0.33863,0.12292 -0.93702,-8.39632 -0.61256,-8.72079 0.38731,-0.3873 0.83944,1.33443 0.88117,3.35554 0.018,0.87313 0.10799,1.93099 0.19991,2.3508 l 0.16714,0.76329 1.2753,-1.62444 1.27531,-1.62443 -0.28864,-3.40037 c -0.16665,-1.96327 -0.19248,-3.66031 -0.0611,-4.01541 0.22083,-0.59696 0.23656,-0.58914 0.53469,0.26609 0.16894,0.48463 0.3082,1.36939 0.30947,1.96614 0.003,1.53562 0.30514,3.86312 0.50106,3.86312 0.0908,0 0.6835,-0.6638 1.31715,-1.47512 0.63364,-0.81131 2.07576,-2.58002 3.2047,-3.93046 l 2.05262,-2.45534 -1.76305,-1.34456 c -0.96968,-0.7395 -1.98123,-1.58564 -2.24789,-1.8803 -0.47134,-0.52082 -0.49685,-0.52206 -0.91597,-0.0446 -0.57994,0.66068 -14.10864,10.90252 -14.23478,10.77638 -0.0898,-0.0898 0.72316,-7.35448 0.84176,-7.52165 0.0275,-0.0387 1.39439,0.11709 3.03758,0.34627 1.64318,0.22919 3.06988,0.32041 3.17044,0.20272 0.10056,-0.11768 0.39416,-1.82132 0.65244,-3.78585 0.25829,-1.96453 0.59663,-3.81 0.75186,-4.10104 0.57306,-1.07444 0.65628,0.72631 0.18389,3.97877 -0.25283,1.74074 -0.42319,3.20577 -0.37858,3.25563 0.0446,0.0499 1.27481,-0.81334 2.73378,-1.91823 1.45896,-1.10488 2.78259,-2.00888 2.94141,-2.00888 0.15881,0 -0.37843,-0.82575 -1.19387,-1.835 -1.74301,-2.1573 -3.61825,-5.34906 -4.40682,-7.50068 -0.30851,-0.84176 -0.6923,-1.48278 -0.85287,-1.42448 -0.16058,0.0583 -3.65507,1.1042 -7.76555,2.32423 -4.11047,1.22002 -7.47389,2.27776 -7.47425,2.35052 -2.7e-4,0.0728 1.33868,0.8393 2.97567,1.70343 2.70343,1.42708 3.60555,2.06777 3.62939,2.57757 0.0184,0.39382 -1.80137,-0.38217 -5.17725,-2.20767 -1.95007,-1.0545 -3.54559,-2.02691 -3.54559,-2.1609 0,-0.27791 2.95133,-5.88834 3.88583,-7.38691 0.3403,-0.54571 0.73629,-0.99219 0.87999,-0.99219 0.60191,0 0.1615,1.26912 -1.44758,4.17151 -0.93986,1.69528 -1.67956,3.11161 -1.64378,3.14739 0.0358,0.0358 3.43285,-0.94148 7.54903,-2.17171 4.11619,-1.23022 7.63196,-2.23677 7.81283,-2.23677 0.24991,0 0.21816,-0.46046 -0.13229,-1.91823 -0.25363,-1.05503 -0.53908,-2.61186 -0.63433,-3.45963 -0.13222,-1.17664 -0.2618,-1.50739 -0.54763,-1.39771 -0.42006,0.16119 -16.65238,-1.5502 -17.37572,-1.83195 -0.25466,-0.0992 -0.46302,-0.27279 -0.46302,-0.38577 0,-0.36876 0.90136,-0.4531 2.64511,-0.2475 0.94169,0.11104 1.84943,0.12228 2.01719,0.025 0.90871,-0.52703 8.26048,-6.26003 8.15845,-6.36206 -0.0665,-0.0665 -2.55197,-0.38756 -5.52332,-0.71353 -2.97136,-0.32597 -5.65024,-0.67131 -5.95307,-0.76743 -0.72314,-0.22951 -0.70135,-0.57871 0.0447,-0.71661 0.45907,-0.0849 12.60901,1.11538 16.94047,1.67347 0.70116,0.0904 0.76831,-0.002 1.46931,-2.02199 0.40401,-1.16417 1.23497,-3.06917 1.84657,-4.23334 1.03497,-1.97002 1.07982,-2.14005 0.64736,-2.45416 -0.25556,-0.18563 -3.46718,-2.805 -7.13694,-5.82084 l -6.67228,-5.48333 1.24833,-0.16692 c 2.82224,-0.37738 7.66043,-0.55757 7.82491,-0.29143 0.26554,0.42966 -0.56078,0.61531 -3.47708,0.78121 -1.49674,0.0851 -2.76856,0.23121 -2.82627,0.3246 -0.0577,0.0934 0.57979,0.72407 1.41669,1.40151 l 1.52163,1.23171 3.42131,-0.26784 c 2.14735,-0.1681 3.6676,-0.17551 4.08276,-0.0199 0.6424,0.2408 0.63097,0.25648 -0.39688,0.54425 -0.58208,0.16297 -1.71318,0.30383 -2.51354,0.31303 -0.80036,0.009 -1.91125,0.0992 -2.46864,0.19991 l -1.01343,0.18319 3.21097,2.61959 c 1.76604,1.44077 3.56114,2.94668 3.98912,3.34647 l 0.77814,0.7269 0.83954,-1.09752 c 0.46175,-0.60364 1.36766,-1.65013 2.01314,-2.32554 0.9113,-0.95356 1.09169,-1.2788 0.80713,-1.45521 -0.71592,-0.44384 -11.0031,-11.90505 -11.43473,-12.73973 -0.24145,-0.4669 -0.38201,-0.84892 -0.31236,-0.84892 0.64151,0 2.13487,1.46424 7.0307,6.8936 3.1287,3.46964 5.77539,6.22175 5.88154,6.11579 0.10614,-0.10597 -1.45154,-2.68947 -3.46152,-5.74113 -6.70838,-10.18499 -6.71971,-10.20381 -6.05482,-10.05159 0.32565,0.0746 2.00667,0.4294 3.73559,0.78853 1.72893,0.35914 3.2068,0.71628 3.28417,0.79365 0.0774,0.0774 -0.13177,1.45573 -0.46474,3.06304 -0.33297,1.6073 -0.56069,2.96374 -0.50604,3.01432 0.0547,0.0506 1.64718,0.4177 3.53895,0.81584 1.89177,0.39814 3.72936,0.87268 4.08353,1.05453 1.344728,0.69045 -0.38714,0.68627 -3.67956,-0.009 -1.78131,-0.3761 -3.27133,-0.64695 -3.31115,-0.6019 -0.0398,0.0451 0.74419,1.33208 1.74223,2.86004 0.99805,1.52797 1.85163,2.88117 1.89685,3.00711 0.0452,0.12594 1.10972,-0.44078 2.36556,-1.25938 2.621808,-1.70898 5.199628,-2.87186 8.411908,-3.79467 2.81821,-0.80961 9.16525,-1.12087 12.37388,-0.60681 2.5499,0.40852 5.80903,1.4207 7.79306,2.42026 1.74705,0.88017 1.79348,0.89006 1.79348,0.3819 0,-0.41872 7.35134,-13.25549 8.38078,-14.63434 0.78225,-1.04777 1.11655,-1.09899 0.93381,-0.14307 -0.12304,0.64366 -7.06038,12.90944 -8.31033,14.69335 -0.49074,0.70036 -0.45605,1.25857 0.0782,1.25857 0.14163,0 0.34296,-0.22921 0.44741,-0.50936 0.32064,-0.86 11.23359,-14.08671 11.43482,-13.85923 0.18451,0.20858 0.79477,5.36785 0.79402,6.71273 -2.7e-4,0.66924 -0.0407,0.68274 -2.94959,0.98688 -1.62207,0.16961 -3.00335,0.36251 -3.06953,0.42869 -0.0662,0.0662 0.0218,1.58661 0.19552,3.37874 0.17372,1.79213 0.27508,3.73468 0.22526,4.31676 -0.16639,1.9439 -0.69111,0.23835 -1.0429,-3.38982 -0.17903,-1.84638 -0.39518,-3.35238 -0.48035,-3.34667 -0.0852,0.006 -0.77432,0.80977 -1.53148,1.78681 -0.75715,0.97704 -1.80787,2.24724 -2.33495,2.82268 l -0.95832,1.04624 0.74708,0.54038 c 0.4109,0.29721 1.56767,1.24498 2.57061,2.10615 1.73664,1.49116 1.8412,1.54159 2.19433,1.05834 0.42666,-0.58388 15.26336,-10.16874 15.36414,-9.9256 0.0367,0.0885 -0.28586,1.76349 -0.71673,3.72227 -0.43086,1.95879 -0.67755,3.62685 -0.54819,3.70679 0.12935,0.0799 1.85001,0.49026 3.82369,0.91181 l 3.5885,0.76645 -0.85801,0.58099 c -3.90374,2.64338 -14.22955,9.07575 -14.78878,9.21255 l -0.70161,0.17162 0.63067,1.81348 c 0.73484,2.11303 1.43377,5.26773 1.43455,6.47502 l 5.3e-4,0.84259 2.44685,0.0286 c 1.34577,0.0157 5.66096,0.11935 9.58933,0.23023 l 7.14247,0.20161 -2.90914,2.74268 -2.90914,2.74267 -2.36143,-2.41131 -2.36143,-2.41131 -4.12086,-0.17703 c -2.26648,-0.0974 -4.1341,-0.17149 -4.15028,-0.16472 -0.0162,0.007 -0.10662,1.24109 -0.20099,2.74293 -0.15881,2.5275 -0.13694,2.72001 0.294,2.58801 0.25606,-0.0784 4.42119,0.83592 9.25583,2.03189 l 8.79026,2.17448 -3.4986,2.01846 c -1.92422,1.11015 -3.85577,2.09972 -4.29234,2.19903 l -0.79375,0.18058 0.66146,-0.66423 c 0.3638,-0.36532 1.73018,-1.25899 3.03638,-1.98594 1.47365,-0.82013 2.22671,-1.37557 1.98438,-1.46362 -0.2148,-0.0781 -1.11912,-0.30858 -2.0096,-0.51228 l -1.61904,-0.37038 -2.87887,1.64904 c -1.58338,0.90697 -3.20917,1.7292 -3.61287,1.82719 -1.40375,0.34071 -0.2358,-0.76499 2.37064,-2.24428 1.35618,-0.76971 2.37618,-1.47892 2.26666,-1.57602 -0.10953,-0.0971 -2.28273,-0.68603 -4.82934,-1.30873 -2.54662,-0.6227 -4.77414,-1.24464 -4.95004,-1.38208 -0.22878,-0.17876 -0.36697,-0.0361 -0.48544,0.50106 -0.74605,3.38292 -1.39246,5.36787 -2.51737,7.73027 -1.44465,3.03387 -1.41211,2.94256 -1.04864,2.94256 0.14241,0 3.21573,1.96453 6.82958,4.36562 3.61387,2.4011 6.63876,4.36563 6.722,4.36563 0.0832,0 -0.16798,-1.51805 -0.55827,-3.37344 -0.68431,-3.25318 -0.75648,-4.29948 -0.29656,-4.29948 0.11928,0 0.30469,0.20836 0.41202,0.46302 0.19076,0.45262 1.97371,8.90536 1.8888,8.95461 -0.21435,0.12432 -8.65222,1.69519 -9.10494,1.69505 -0.32742,-10e-5 -0.59531,-0.0991 -0.59531,-0.22005 0,-0.43002 1.22981,-0.84279 4.10104,-1.37648 1.60073,-0.29754 3.08356,-0.60145 3.29519,-0.67537 0.22911,-0.08 -2.36659,-1.94407 -6.41615,-4.6076 -3.74049,-2.46026 -6.8009,-4.61089 -6.8009,-4.77917 0,-0.16828 -0.55032,0.4416 -1.22294,1.35528 -2.62753,3.56925 -7.3366,7.40942 -11.02081,8.98729 -1.28753,0.55142 -1.50235,0.73778 -1.36441,1.18363 0.09,0.29105 1.14329,4.47129 2.34054,9.28943 l 2.17683,8.76027 -3.32596,-1.9902 c -1.82928,-1.09461 -3.36833,-2.02316 -3.42011,-2.06344 -0.0518,-0.0403 0.64039,-1.28918 1.53817,-2.77532 1.24825,-2.06629 1.55054,-2.75503 1.28478,-2.92718 -0.19115,-0.12383 -1.5482,-0.94029 -3.01567,-1.81436 -1.46747,-0.87407 -2.95575,-1.89549 -3.30729,-2.2698 l -0.63917,-0.68059 0.79375,0.18877 c 0.43656,0.10383 1.96907,0.89281 3.40556,1.7533 1.4365,0.86049 2.67261,1.50373 2.74693,1.42941 0.0743,-0.0743 -0.17827,-1.38576 -0.56129,-2.91433 -0.38303,-1.52857 -0.69641,-3.09439 -0.69641,-3.47959 0,-0.60025 -0.0851,-0.6761 -0.59531,-0.53055 -4.385,1.25094 -5.0788,1.34507 -9.92194,1.34609 -4.01115,7.9e-4 -4.8287,0.0651 -4.82865,0.37951 6e-5,0.33812 -6.13266,16.05363 -6.59411,16.89786 -0.11302,0.20676 -0.79519,-1.07784 -1.71731,-3.23389 z m 4.46087,-6.36955 c 1.55411,-3.92907 2.9372,-7.25686 3.07355,-7.39511 0.40512,-0.41076 0.28448,-0.67468 -0.30839,-0.67468 -0.82712,0 -5.01991,-1.4564 -6.84477,-2.37758 -1.40551,-0.7095 -1.59477,-0.74905 -1.59477,-0.33327 0,0.25948 -1.255998,3.60894 -2.791118,7.44326 -1.53511,3.83431 -2.73528,7.0273 -2.66704,7.09554 0.0682,0.0682 1.23494,-0.37343 2.59267,-0.98147 1.35774,-0.60804 2.603288,-1.16142 2.767888,-1.22974 0.17231,-0.0715 0.64215,0.69647 1.10747,1.81025 0.4445,1.06395 1.00141,2.39382 1.23757,2.95525 0.23617,0.56143 0.46807,0.97815 0.51534,0.92604 0.0473,-0.0521 1.3575,-3.30943 2.9116,-7.23849 z m 22.17149,4.03489 c -0.36712,-1.49159 -0.75236,-2.80747 -0.85609,-2.9242 -0.16733,-0.18829 -2.06804,2.68844 -2.19945,3.32888 -0.0552,0.26911 2.9185,2.25732 3.42311,2.28867 0.1977,0.0123 0.0724,-0.90561 -0.36757,-2.69335 z m -44.797788,-12.87287 2.23037,-1.73126 -0.87813,-0.1796 c -0.48298,-0.0988 -1.50182,-0.25753 -2.2641,-0.35276 l -1.38595,-0.17317 -0.1809,1.80093 c -0.0995,0.9905 -0.24591,2.02419 -0.32536,2.29708 -0.1836,0.63059 -0.0351,0.54263 2.80407,-1.66122 z m 37.561668,-0.827 c 1.33994,-0.31458 2.39893,-0.68398 2.3533,-0.82088 -0.0456,-0.13689 -1.80794,-1.83819 -3.91624,-3.78064 l -3.83327,-3.53174 -0.18319,0.96162 c -0.10075,0.52889 -0.20414,2.09271 -0.22974,3.47516 -0.0581,3.13844 -0.43474,4.97986 -0.48181,2.35575 -0.0172,-0.95991 -0.10853,-2.83326 -0.20292,-4.16301 l -0.17161,-2.41771 -3.33412,3.09133 c -5.94467,5.51178 -6.02192,5.43797 -0.52207,-0.49882 l 4.00267,-4.32067 -0.16462,-2.11666 c -0.0906,-1.16417 -0.16534,-2.66468 -0.16621,-3.33447 l -0.002,-1.21781 -2.79095,-0.18043 c -1.53502,-0.0993 -3.14224,-0.2507 -3.5716,-0.33657 l -0.78065,-0.15613 0.58029,1.28979 c 0.82538,1.83451 0.82406,4.77309 -0.003,6.58145 -1.24164,2.715 -3.59721,4.31094 -6.78331,4.59581 l -1.864378,0.16669 1.625818,0.99444 c 6.12831,3.74842 13.57788,4.97433 20.43914,3.3635 z m 5.98087,-2.14293 c 1.16417,-0.56795 2.41433,-1.26626 2.77813,-1.5518 l 0.66146,-0.51915 -1.34193,-0.006 c -2.84093,-0.0125 -5.17367,-1.42961 -6.604,-4.01199 -0.69796,-1.26011 -0.78532,-1.66811 -0.78532,-3.6674 0,-1.90279 0.10848,-2.46875 0.70378,-3.67165 l 0.70379,-1.4221 -1.36524,0.15592 c -0.75089,0.0858 -2.46658,0.23704 -3.81265,0.33618 l -2.44739,0.18025 0.004,3.20319 0.004,3.20318 4.1631,4.53953 c 3.30602,3.60497 4.27204,4.51121 4.69226,4.40195 0.29104,-0.0757 1.48167,-0.60227 2.64583,-1.17022 z m 3.76603,-2.77753 c 0.53275,-0.14279 0.48056,-0.21419 -0.52916,-0.72399 -1.5522,-0.78368 -2.44864,-2.56075 -2.18355,-4.32855 0.2595,-1.73042 1.65537,-3.12629 3.38579,-3.38578 1.78197,-0.26723 3.54438,0.63014 4.34199,2.2108 l 0.57901,1.14747 0.1804,-0.9616 c 0.38461,-2.05019 -0.44891,-4.39492 -2.17646,-6.12248 -4.41911,-4.41911 -12.04717,-1.11103 -12.04717,5.22453 0,4.25194 4.54605,7.98578 8.44915,6.9396 z m -27.51717,-0.88342 c 0.61584,-0.27955 1.64613,-1.04994 2.28955,-1.71197 3.35542,-3.45247 2.33997,-8.97393 -2.08632,-11.34431 -1.49311,-0.79959 -4.592318,-0.79959 -6.085418,0 -1.41947,0.76016 -2.89521,2.33354 -3.55159,3.7866 -0.574,1.2707 -0.73435,3.8024 -0.28487,4.49791 0.21261,0.32899 0.25734,0.30636 0.26152,-0.13229 0.003,-0.29104 0.22867,-0.89588 0.50198,-1.34409 1.37747,-2.25889 5.50559,-2.25026 6.905248,0.0144 0.64523,1.04401 0.71626,3.25116 0.14045,4.36465 -0.44105,0.85291 -1.718728,1.85981 -2.359938,1.85981 -0.2322,0 -0.42218,0.11906 -0.42218,0.26459 0,0.48342 3.481568,0.29395 4.691568,-0.25532 z m 30.93515,-1.42421 c 1.50468,-1.50468 1.67901,-2.06946 1.02758,-3.32918 -1.02472,-1.98159 -3.09123,-2.67392 -4.8253,-1.61659 -2.39162,1.45826 -2.06551,4.81031 0.58246,5.98722 1.30406,0.57959 1.73324,0.44057 3.21526,-1.04145 z m -34.693928,0.35244 c 0.923038,-0.57047 1.713668,-1.93105 1.712058,-2.94623 -10e-4,-0.83106 -0.86417,-2.2025 -1.751498,-2.7839 -1.50829,-0.98826 -3.56126,-0.4017 -4.60915,1.3169 -0.86619,1.42059 -0.69091,2.46156 0.63828,3.79075 0.95522,0.95522 1.32863,1.15582 2.15159,1.15582 0.54767,0 1.3841,-0.24001 1.85872,-0.53334 z m -6.85913,-5.80168 c 0.0649,-4.4427 3.2445,-7.51433 7.778428,-7.51433 1.90188,0 2.34041,0.12329 4.85138,1.36391 0.12165,0.0601 0.13352,-0.58867 0.0264,-1.44171 -0.10713,-0.85304 -0.26619,-2.50348 -0.35346,-3.66765 l -0.15868,-2.11666 -3.44748,-0.0734 -3.447478,-0.0734 -4.49002,4.1373 c -2.91356,2.68469 -4.45773,4.28822 -4.39805,4.56714 0.22614,1.05688 3.20897,6.66318 3.54022,6.65393 0.0396,-0.001 0.084,-0.8269 0.0988,-1.83509 z m 45.926218,-0.0811 c 1.2321,-2.14132 1.41463,-2.50737 2.03448,-4.07994 l 0.51752,-1.31293 -4.42433,-4.06411 -4.42432,-4.0641 -3.15942,0.0652 c -1.73769,0.0359 -3.23352,0.14621 -3.32408,0.24517 -0.0906,0.099 -0.23927,1.74604 -0.33048,3.66016 l -0.16583,3.48021 1.38881,-0.53117 c 1.07234,-0.41012 1.81086,-0.50416 3.2409,-0.41267 4.14468,0.26516 7.17302,3.22961 7.34437,7.1894 0.0352,0.81297 0.12852,1.47819 0.20743,1.47826 0.0789,7e-5 0.57163,-0.74401 1.09495,-1.65352 z m -26.96245,-5.10938 2.58638,-0.18962 -0.0728,-3.99816 -0.0728,-3.99815 -3.71326,-0.0731 -3.71327,-0.0731 -0.32118,4.02148 c -0.38146,4.77619 -0.2844,5.06095 1.60478,4.70842 0.61371,-0.11452 2.27972,-0.29355 3.70223,-0.39784 z m 12.55197,-0.0559 c 0.55334,-0.43147 0.57235,-0.56114 0.33849,-2.30922 -0.13628,-1.01864 -0.32096,-2.77482 -0.41041,-3.9026 l -0.16262,-2.05052 h -4.07847 -4.07847 v 4.10104 4.10104 l 2.18281,0.0262 c 1.20055,0.0144 2.83766,0.11669 3.63802,0.22733 0.80037,0.11064 1.57427,0.21528 1.7198,0.23253 0.14552,0.0172 0.5284,-0.17434 0.85085,-0.42577 z m -30.888508,-5.02541 c 1.6487,-1.78495 2.94992,-3.28822 2.8916,-3.34059 -0.0583,-0.0524 -2.09278,-0.17979 -4.52103,-0.28316 l -4.41501,-0.18795 0.13257,1.54415 c 0.16148,1.88091 0.81431,5.40579 1.17866,6.36411 l 0.26689,0.70197 0.73435,-0.77659 c 0.40389,-0.42712 2.08328,-2.237 3.73197,-4.02194 z m 48.548848,2.28236 c 0.23558,-1.03576 0.50163,-2.8338 0.59123,-3.99563 l 0.1629,-2.11244 -4.20871,0.19288 c -2.31478,0.10608 -4.25204,0.23228 -4.30501,0.28046 -0.15696,0.14273 6.95914,7.7154 7.15337,7.61233 0.0978,-0.0519 0.37064,-0.94184 0.60622,-1.9776 z m 16.96658,-5.56502 c 1.04185,-0.98534 1.35234,-1.42881 1.10864,-1.58345 -0.18617,-0.11814 -1.58493,-0.21663 -3.10834,-0.21886 l -2.76984,-0.004 1.57093,1.5875 c 0.86402,0.87313 1.61156,1.5875 1.66121,1.5875 0.0496,0 0.74147,-0.61589 1.5374,-1.36864 z M 85.816352,148.8782 c 0,-0.93536 0.12705,-2.61409 0.28233,-3.73052 0.15528,-1.11643 0.23483,-2.07737 0.17678,-2.13543 -0.0581,-0.058 -1.00302,-0.18142 -2.09991,-0.27414 l -1.99436,-0.16858 -4.12707,3.14476 c -2.26989,1.72962 -4.13088,3.2107 -4.13554,3.2913 -0.005,0.0806 2.51822,0.41456 5.6064,0.74214 3.08818,0.32757 5.66787,0.64858 5.73264,0.71335 0.39123,0.39123 0.55873,-0.0833 0.55873,-1.58288 z m 10.2907,-0.0496 c 0.0573,-0.0494 -0.9547,-1.24025 -2.24896,-2.64637 -1.29426,-1.40612 -2.96728,-3.22452 -3.71784,-4.0409 l -1.36464,-1.48432 -0.27923,0.71913 c -0.37128,0.95618 -1.0262,4.46073 -1.18916,6.36332 l -0.13072,1.52621 4.41316,-0.17365 c 2.42723,-0.0955 4.46006,-0.21404 4.51739,-0.26342 z m 46.238388,-1.75545 c -0.16789,-2.15808 -0.94536,-5.75405 -1.26301,-5.84169 -0.17726,-0.0489 -7.11191,7.35921 -7.11191,7.59748 0,0.0792 1.22039,0.18252 2.71198,0.22968 1.49159,0.0472 3.41415,0.11086 4.27237,0.14155 l 1.56038,0.0558 z m -37.42583,-1.65364 c 0.10205,-1.74625 0.23974,-3.38336 0.30596,-3.63802 0.1517,-0.58336 0.20177,-0.59147 -1.364,0.22088 -3.54453,1.83897 -8.264528,0.61271 -10.360018,-2.69153 -0.77644,-1.22431 -1.47838,-4.19054 -1.17733,-4.97506 0.0898,-0.23411 0.0528,-0.42565 -0.0824,-0.42565 -0.3165,0 -2.2738,3.44172 -2.93414,5.15938 l -0.50859,1.32291 4.52789,4.16981 4.52789,4.16981 3.439578,-0.0688 3.43958,-0.0688 z m 7.95039,3.04407 1.25677,-0.001 v -3.93073 -3.93073 l -3.37344,-0.15665 c -1.85539,-0.0862 -3.63113,-0.23354 -3.94609,-0.32753 -0.89589,-0.26736 -1.15728,0.52457 -0.8837,2.67724 0.12805,1.00757 0.31153,2.77186 0.40772,3.92065 l 0.1749,2.0887 2.55353,-0.16911 c 1.40445,-0.093 3.11909,-0.16972 3.81031,-0.17048 z m 11.26332,-3.75989 c 0.3951,-5.01647 0.4701,-4.88809 -2.61318,-4.47314 -1.20221,0.16179 -3.00035,0.29417 -3.99585,0.29417 h -1.81002 v 3.95425 3.95425 l 1.25677,0.0991 c 0.69123,0.0545 2.51422,0.12056 4.0511,0.14679 l 2.79433,0.0477 z m 12.50099,0.0121 c 2.73812,-2.5261 4.31537,-4.16679 4.26042,-4.43177 -0.16545,-0.79779 -2.34689,-5.18476 -2.90632,-5.84471 l -0.5607,-0.66146 -0.009,1.20964 c -0.0191,2.6252 -1.51551,5.10979 -3.93362,6.53129 -1.12371,0.66058 -1.47212,0.72574 -3.88039,0.72574 -2.2862,0 -2.78584,-0.0827 -3.67582,-0.60869 l -1.02998,-0.60869 0.17303,1.26244 c 0.0952,0.69434 0.24121,2.27794 0.32452,3.51911 0.0833,1.24116 0.19732,2.40549 0.25334,2.58739 0.0743,0.24123 0.98603,0.33073 3.36925,0.33073 h 3.26741 l 4.34767,-4.01102 z m -33.41919,-3.28282 c 2.55358,-1.2725 4.01686,-3.60073 4.02667,-6.40685 0.007,-1.86269 -0.41233,-3.07912 -1.55848,-4.52626 -1.44345,-1.8225 -4.75006,-3.07348 -6.778328,-2.56441 -0.70877,0.17789 -0.70558,0.18341 0.4409,0.76184 2.434658,1.22834 3.047428,4.56381 1.181268,6.42997 -2.119198,2.1192 -5.608308,1.58373 -6.783468,-1.04106 l -0.48207,-1.07675 -0.18499,0.73705 c -0.41708,1.66178 0.3478,4.35582 1.66342,5.85886 0.71195,0.81337 2.22659,1.87714 3.11486,2.18763 1.53261,0.53573 3.878928,0.37814 5.360218,-0.36002 z m 29.76416,-0.57957 c 2.55433,-1.4347 4.16896,-4.50306 3.76991,-7.16415 l -0.18416,-1.22808 -0.56965,1.17154 c -0.71655,1.47364 -1.63629,2.15072 -3.15388,2.32178 -2.53753,0.28601 -4.39418,-1.15657 -4.62861,-3.59635 -0.17919,-1.86481 0.64497,-3.34661 2.26865,-4.07894 l 1.24002,-0.5593 -1.05833,-0.18652 c -2.27736,-0.40138 -4.57778,0.49277 -6.35588,2.47044 -2.22818,2.47827 -2.48719,5.51761 -0.71561,8.39711 0.76774,1.24786 2.69897,2.73389 4.12528,3.17428 1.45511,0.44928 3.73372,0.13673 5.26226,-0.72181 z m -21.82907,-1.55468 2.97656,-0.17786 v -1.1095 c 0,-0.61023 0.0754,-2.17225 0.16764,-3.47116 l 0.16763,-2.36164 -4.01669,-4.35973 c -2.20918,-2.39785 -4.19616,-4.39948 -4.41552,-4.44808 -0.48635,-0.10773 -5.50514,2.33645 -6.535798,3.18298 l -0.74211,0.60954 1.691698,0.0349 c 2.92414,0.0604 5.39284,1.58689 6.75112,4.17459 0.60647,1.15542 0.70635,1.66623 0.70304,3.5957 -0.004,2.1533 -0.065,2.40222 -1.13378,4.60151 -0.063,0.12973 0.22834,0.16179 0.64751,0.0712 0.41917,-0.0906 2.10159,-0.24468 3.7387,-0.3425 z m 11.91434,-0.0308 c -0.86275,-1.67605 -1.11601,-2.58592 -1.21042,-4.3485 -0.0932,-1.7392 -0.0154,-2.23684 0.53749,-3.43958 1.32283,-2.87769 3.45497,-4.40992 6.47372,-4.65224 l 1.71383,-0.13757 -1.28088,-0.80051 c -1.57919,-0.98693 -5.07622,-2.62462 -5.36567,-2.51277 -0.11716,0.0453 -2.07375,2.10394 -4.34797,4.57481 l -4.13496,4.49251 v 3.22398 3.22399 l 1.91823,0.15863 c 1.05502,0.0873 2.51354,0.19501 3.24114,0.23947 0.72761,0.0445 1.60073,0.10229 1.94028,0.12852 0.33955,0.0262 0.5714,-0.0416 0.51521,-0.15074 z m 18.92313,-2.00876 c 0.0749,-0.19531 3.06424,-2.22995 6.64289,-4.52142 3.57864,-2.29147 6.50662,-4.25487 6.50662,-4.3631 0,-0.10823 -1.18417,-0.41406 -2.63148,-0.67961 -1.44731,-0.26556 -2.77957,-0.57435 -2.96056,-0.68622 -0.25538,-0.15782 -0.17689,-0.86321 0.35044,-3.14934 0.54394,-2.35812 0.60335,-2.91672 0.29773,-2.79944 -0.20999,0.0806 -3.16712,1.93325 -6.57141,4.11704 -3.40429,2.18379 -6.36617,3.97053 -6.58197,3.97053 -0.77731,0 -0.60739,0.43166 1.02102,2.59369 0.91002,1.20825 2.0586,3.02149 2.55239,4.02943 0.91863,1.87514 1.13571,2.11024 1.37433,1.48844 z m -42.847248,-1.99912 c 1.087768,-0.71716 1.753418,-1.85998 1.755428,-3.01383 0.002,-1.4296 -1.540438,-3.07191 -3.080038,-3.27841 -1.00931,-0.13538 -1.19159,-0.0588 -2.30749,0.96983 -1.40068,1.2911 -1.75869,2.4231 -1.14157,3.6096 1.06075,2.03948 3.14427,2.78705 4.77367,1.71281 z m 34.510778,-0.28959 c 0.8856,-0.40193 1.25027,-0.77409 1.65495,-1.68894 0.6303,-1.4249 0.51793,-1.79573 -1.03219,-3.4063 -1.0378,-1.07827 -1.35635,-1.25677 -2.24286,-1.25677 -0.84747,0 -1.21796,0.18469 -2.06047,1.0272 -0.8916,0.89161 -1.0272,1.18581 -1.0272,2.22866 0,1.38253 0.87846,2.6599 2.23584,3.25114 1.05038,0.45752 1.13389,0.45228 2.47193,-0.15499 z m -10.6609,-11.16206 c 0.68983,-0.65055 0.43213,-0.80753 -2.3456,-1.42884 -2.99066,-0.66894 -8.54461,-0.67529 -11.41273,-0.013 -1.16417,0.26881 -2.24852,0.56506 -2.40966,0.65836 -0.16873,0.0977 1.3582,1.70336 3.59996,3.78564 l 3.89296,3.61601 0.17035,-2.39989 c 0.0937,-1.31994 0.18443,-3.18527 0.20165,-4.14518 0.0457,-2.54601 0.4262,-0.81657 0.46656,2.12039 0.0172,1.25299 0.10664,2.82782 0.19872,3.4996 l 0.16741,1.22143 3.47061,-3.20771 c 1.90883,-1.76425 3.70873,-3.43229 3.99977,-3.70676 z m -31.019888,-9.05538 0.0636,-1.03313 -2.06249,-0.44566 c -1.54765,-0.33441 -2.03103,-0.36365 -1.93644,-0.11715 0.0693,0.18068 0.81016,1.38192 1.64628,2.66942 l 1.52021,2.3409 0.35258,-1.19062 c 0.19391,-0.65484 0.38121,-1.65553 0.41622,-2.22376 z m 49.866848,2.08126 c 0.19621,-0.0613 0.27917,-0.39583 0.20824,-0.83962 -0.0648,-0.40572 -0.19012,-1.42006 -0.2784,-2.25408 l -0.16051,-1.51641 -1.77856,2.17787 c -2.54259,3.11342 -2.52232,2.90442 -0.26229,2.70545 1.06997,-0.0942 2.09216,-0.21715 2.27152,-0.27321 z m -6.59459,74.22583 c -5.33982,-8.37133 -8.68049,-13.87467 -8.68049,-14.30003 0,-1.39749 0.56784,-0.64012 5.82051,7.7632 2.04378,3.26967 3.34223,5.10853 3.4563,4.8948 0.1005,-0.18829 0.44023,-1.52769 0.75495,-2.97646 0.31473,-1.44877 0.59925,-2.66113 0.63226,-2.69414 0.033,-0.033 1.34608,0.24142 2.91792,0.60986 1.57185,0.36843 2.91373,0.61405 2.98196,0.54582 0.0682,-0.0682 -1.72574,-3.07097 -3.98659,-6.67275 -3.92851,-6.25852 -4.78169,-7.96678 -3.61513,-7.23824 0.43996,0.27476 10.11924,15.33462 9.96662,15.50693 -0.0337,0.038 -1.69157,-0.30475 -3.68413,-0.76178 -1.99257,-0.45704 -3.69274,-0.76108 -3.77816,-0.67566 -0.0854,0.0854 -0.5024,1.67837 -0.92662,3.5399 -0.42423,1.86153 -0.80728,3.50366 -0.85124,3.64918 -0.044,0.14552 -0.49763,-0.39026 -1.00816,-1.19063 z m -16.34489,-71.4375 c -0.004,-1.16578 4.84906,-16.34806 5.40282,-16.90181 0.36961,-0.36961 0.40949,-0.31701 0.40949,0.53998 0,0.52221 -0.17859,1.45566 -0.39687,2.07433 -0.21828,0.61868 -0.39688,1.17907 -0.39688,1.24532 0,0.0662 0.98227,-0.41166 2.18282,-1.06201 1.20054,-0.65036 2.59953,-1.27019 3.10885,-1.37741 l 0.92604,-0.19493 -0.51738,0.57698 c -0.28457,0.31735 -1.73064,1.22777 -3.21351,2.02318 -1.48287,0.7954 -2.81211,1.59242 -2.95386,1.77117 -0.32762,0.4131 -0.94453,2.3089 -0.79878,2.45466 0.0604,0.0604 2.33504,-1.06523 5.05472,-2.50143 2.71969,-1.43619 5.30311,-2.66383 5.74093,-2.72809 l 0.79605,-0.11684 -0.58407,0.62172 c -0.32124,0.34195 -2.73386,1.75019 -5.36138,3.12943 -7.00008,3.67449 -6.22379,2.96069 -7.43601,6.83749 -0.575,1.83891 -1.25117,3.61141 -1.50259,3.93889 l -0.45714,0.59541 z m 63.49149,80.00839 c 0,-0.0882 -0.90666,-1.75507 -2.01481,-3.70417 l -2.01481,-3.5438 h -4.94964 -4.94962 l -4.71575,-8.20208 c -2.59366,-4.51115 -4.7488,-8.20209 -4.7892,-8.20209 -0.0404,0 -0.6426,0.85612 -1.33822,1.90248 -6.89495,10.37147 -17.61063,18.08504 -29.48587,21.22509 l -2.49521,0.65978 28.37656,0.0126 c 15.60711,0.007 28.37657,-0.0596 28.37657,-0.14778 z m 19.56995,-0.0381 c -0.005,-0.10914 -2.00706,-3.65125 -4.44887,-7.87135 l -4.43965,-7.67292 -4.2773,-0.0727 -4.27731,-0.0727 2.37618,4.09404 c 1.30689,2.25171 2.37617,4.15965 2.37617,4.23986 0,0.0802 -2.14313,0.14583 -4.7625,0.14583 -2.61938,0 -4.7625,0.0781 -4.7625,0.17353 0,0.0954 0.91456,1.76232 2.03235,3.70417 l 2.03235,3.53063 h 9.08015 c 4.99408,0 9.076,-0.0893 9.07093,-0.19844 z m -14.67516,-3.63734 c 0.72761,-0.20743 2.43247,-0.52246 3.78859,-0.70006 2.02879,-0.26569 2.44345,-0.39642 2.34025,-0.7378 -0.069,-0.2282 -0.6196,-1.70472 -1.22361,-3.28117 -0.60401,-1.57645 -1.05207,-3.00467 -0.99568,-3.17382 0.11876,-0.35627 2.16862,3.03781 3.53853,5.85896 0.51693,1.06455 0.85847,2.01705 0.75898,2.11667 -0.0995,0.0996 -2.28443,0.20661 -4.85543,0.23775 -4.43908,0.0538 -4.60791,0.0376 -3.35163,-0.32053 z m -160.094148,1.28642 c 0.375475,-0.6718 0.682683,-1.32027 0.682683,-1.44104 0,-0.36407 -3.74036,-2.43095 -3.959613,-2.18804 -0.111854,0.12393 -0.523867,0.78352 -0.915587,1.46578 l -0.712216,1.24046 0.610895,0.37476 c 2.487993,1.52627 3.279419,1.9572 3.433942,1.86979 0.09747,-0.0551 0.48442,-0.64991 0.859896,-1.32171 z m 177.824138,0.14736 c 1.01562,-0.59349 1.88026,-1.11276 1.92143,-1.15393 0.0412,-0.0412 -0.30762,-0.74073 -0.77507,-1.55459 l -0.84992,-1.47974 -1.60488,0.92112 c -0.88268,0.50661 -1.78347,1.03098 -2.00175,1.16526 -0.3393,0.20873 -0.28306,0.4572 0.38759,1.71256 0.43146,0.80762 0.85007,1.46841 0.93024,1.46841 0.0802,0 0.97674,-0.48559 1.99236,-1.07909 z M 29.02118,194.00084 c 0.386929,-0.71092 0.703508,-1.36051 0.703508,-1.44354 0,-0.083 -0.852723,-0.64898 -1.894942,-1.25766 -2.127587,-1.24258 -2.044421,-1.26548 -3.14901,0.86685 l -0.504611,0.97411 1.914386,1.07006 c 1.052912,0.58854 1.98476,1.07292 2.070773,1.07641 0.08601,0.003 0.472966,-0.57531 0.859896,-1.28623 z m 175.76968,-0.87628 c 0.22583,-0.17614 0.0882,-0.62501 -0.51179,-1.6697 l -0.82065,-1.42879 -1.60489,0.92112 c -0.88268,0.50661 -1.78347,1.03098 -2.00175,1.16526 -0.33936,0.20877 -0.28373,0.45595 0.38385,1.70563 l 0.78072,1.46147 1.73282,-0.95705 c 0.95305,-0.52637 1.87181,-1.06545 2.04169,-1.19794 z M 30.873263,190.82584 c 0.386929,-0.71092 0.703509,-1.36051 0.703509,-1.44354 0,-0.083 -0.852724,-0.64898 -1.894944,-1.25766 -2.127586,-1.24258 -2.04442,-1.26548 -3.149008,0.86685 l -0.504611,0.97411 1.914385,1.07006 c 1.052913,0.58854 1.98476,1.07292 2.070773,1.07641 0.08601,0.003 0.472967,-0.57531 0.859896,-1.28623 z m 172.062817,-0.92413 c 0.23063,-0.22359 0.10998,-0.63976 -0.48896,-1.68661 l -0.79513,-1.38976 -1.62771,0.93398 c -0.89524,0.51369 -1.8063,1.04156 -2.02458,1.17305 -0.33855,0.20394 -0.28079,0.45385 0.39305,1.70048 l 0.78993,1.4614 1.72361,-0.94785 c 0.94799,-0.52132 1.8614,-1.08143 2.02979,-1.24469 z m -138.151728,-6.38225 4.56978,-7.9375 -9.14853,-0.0696 c -5.03169,-0.0383 -9.23172,0.0212 -9.3334,0.13229 -0.3576,0.39059 -8.97668,15.47783 -8.97668,15.71321 0,0.13806 3.85223,0.20901 9.15953,0.1687 l 9.15952,-0.0696 z m 122.618448,7.73906 c -0.007,-0.1819 -2.0091,-3.78354 -4.44807,-8.00365 l -4.43451,-7.67291 -9.29651,-0.0695 -9.2965,-0.0695 3.85406,6.6841 c 2.11973,3.67625 4.2085,7.30917 4.6417,8.07316 l 0.78765,1.38906 h 9.10288 c 7.11314,0 9.0999,-0.0723 9.0893,-0.33073 z M 32.701252,187.64738 c 0.40018,-0.71252 0.7276,-1.36199 0.7276,-1.44327 0,-0.29765 -3.71901,-2.30983 -3.975809,-2.15112 -0.285279,0.17631 -1.436003,2.2393 -1.443567,2.58798 -0.004,0.18649 3.494526,2.28341 3.831876,2.2967 0.0728,0.003 0.45972,-0.57777 0.8599,-1.29029 z m 166.589158,0.19574 c 2.2952,-1.28958 2.23019,-1.15917 1.34355,-2.69501 -0.43311,-0.75024 -0.91789,-1.33012 -1.07728,-1.28863 -0.61321,0.15962 -3.67365,2.03313 -3.67365,2.2489 0,0.42752 1.37272,2.57045 1.64658,2.57045 0.15036,0 0.94272,-0.37607 1.7608,-0.83571 z M 34.553332,184.47238 c 0.40018,-0.71252 0.72685,-1.39701 0.72593,-1.52108 -7.9e-4,-0.12408 -0.32834,-0.41141 -0.7276,-0.63852 -0.39926,-0.22711 -1.27246,-0.7333 -1.94045,-1.12486 l -1.21451,-0.71193 -0.769861,1.38944 c -0.423424,0.7642 -0.769861,1.48444 -0.769861,1.60054 0,0.18703 3.502042,2.28353 3.836462,2.2967 0.0728,0.003 0.45971,-0.57777 0.85989,-1.29029 z m 162.884988,0.19574 c 2.31211,-1.29907 2.25044,-1.1901 1.45639,-2.57356 -0.38543,-0.67152 -0.79229,-1.32233 -0.90415,-1.44625 -0.21925,-0.24292 -3.95961,1.82396 -3.95961,2.18804 0,0.43666 1.37493,2.66748 1.64406,2.66748 0.15175,0 0.94524,-0.37607 1.76331,-0.83571 z m -149.580248,-5.98226 2.39069,-4.16224 9.65138,-0.0693 9.65138,-0.0693 -1.2397,-2.57649 c -1.54497,-3.21097 -3.18908,-7.95475 -3.88458,-11.20826 -0.95456,-4.46539 -1.18051,-7.35284 -1.01876,-13.01898 0.15141,-5.30413 0.55899,-8.27854 1.64746,-12.02275 0.23035,-0.79237 0.36981,-1.48967 0.30992,-1.54957 -0.0989,-0.0989 -28.23284,48.46411 -28.23284,48.7337 0,0.0635 1.87523,0.11318 4.16719,0.11045 l 4.16718,-0.005 2.39068,-4.16224 z m 144.235638,3.80269 c -0.21115,-0.55025 -27.98594,-48.66759 -28.26859,-48.97283 -0.13348,-0.14413 -0.054,0.27259 0.17663,0.92605 0.74656,2.11527 1.69443,7.44542 2.00415,11.26985 0.68948,8.51369 -1.06125,17.92197 -4.78594,25.71927 -0.72615,1.52013 -1.32027,2.8081 -1.32027,2.86216 0,0.0541 4.31601,0.1 9.59114,0.10208 l 9.59116,0.004 1.98437,3.47224 c 1.09141,1.90973 2.19099,3.81302 2.44351,4.22953 l 0.45913,0.7573 h 4.13324 c 3.42894,0 4.10908,-0.063 3.99147,-0.36945 z M 36.457802,181.14557 c 0.42899,-0.7953 0.72665,-1.48938 0.66146,-1.54239 -0.35793,-0.29108 -3.3438,-2.00711 -3.62162,-2.0814 -0.18044,-0.0483 -0.68707,0.53419 -1.12583,1.29433 l -0.79776,1.38208 0.59667,0.36543 c 0.32817,0.20099 1.19199,0.73164 1.91959,1.17921 0.72761,0.44757 1.38245,0.82163 1.45521,0.83125 0.0728,0.01 0.48328,-0.63321 0.91228,-1.42851 z m 159.343238,0.0788 1.93031,-1.10444 -0.69475,-1.21066 c -0.38211,-0.66587 -0.78627,-1.31206 -0.89812,-1.43598 -0.22773,-0.2523 -3.95961,1.83114 -3.95961,2.21058 0,0.28979 1.39941,2.64494 1.5716,2.64494 0.0661,0 0.98889,-0.497 2.05057,-1.10444 z M 38.309882,177.97055 c 0.429,-0.7953 0.72665,-1.48938 0.66146,-1.54239 -0.35793,-0.29108 -3.34379,-2.00711 -3.62161,-2.0814 -0.18045,-0.0483 -0.68707,0.53419 -1.12584,1.29433 l -0.79776,1.38208 0.59668,0.36543 c 0.32817,0.20099 1.19198,0.73164 1.91958,1.17921 0.72761,0.44757 1.38245,0.82163 1.45521,0.83125 0.0728,0.01 0.48329,-0.63321 0.91228,-1.42851 z m 155.626478,0.086 1.91773,-1.09724 -0.49398,-0.95328 c -1.09269,-2.10865 -1.01317,-2.08721 -3.13838,-0.84602 -1.04223,0.60869 -1.89495,1.17464 -1.89495,1.25767 0,0.26288 1.40057,2.73611 1.54944,2.73611 0.0783,0 1.00539,-0.49376 2.06014,-1.09724 z m -153.781858,-3.3042 c 0.37548,-0.6718 0.68193,-1.29576 0.68101,-1.38657 -7.9e-4,-0.0908 -0.32834,-0.35093 -0.7276,-0.57804 -0.39926,-0.22711 -1.27812,-0.73661 -1.95302,-1.13223 l -1.22709,-0.71929 -0.67643,1.15423 c -0.37203,0.63483 -0.71281,1.3077 -0.75729,1.49526 -0.0811,0.34205 3.46778,2.66036 3.80053,2.4827 0.0975,-0.052 0.48442,-0.64427 0.85989,-1.31606 z m 151.894968,0.14736 c 1.01562,-0.59349 1.88382,-1.11631 1.92932,-1.16181 0.10647,-0.10648 -1.53847,-2.78619 -1.71031,-2.78619 -0.24819,0 -3.79378,2.14109 -3.79378,2.29097 0,0.2819 1.40609,2.73611 1.5676,2.73611 0.0883,0 0.99155,-0.48558 2.00717,-1.07908 z M 42.006592,171.57735 c 0.37547,-0.6718 0.68268,-1.32027 0.68268,-1.44104 0,-0.36408 -3.74036,-2.43096 -3.95961,-2.18804 -0.11186,0.12392 -0.52387,0.78352 -0.91559,1.46578 l -0.71222,1.24046 0.6109,0.37475 c 2.48799,1.52628 3.27942,1.95721 3.43394,1.86979 0.0975,-0.0551 0.48442,-0.64991 0.8599,-1.3217 z m 148.190798,0.14736 c 1.01562,-0.59349 1.88026,-1.11276 1.92143,-1.15393 0.0412,-0.0412 -0.30761,-0.74073 -0.77507,-1.55459 l -0.84992,-1.47974 -1.60488,0.92111 c -0.88268,0.50662 -1.78347,1.03099 -2.00175,1.16527 -0.3393,0.20873 -0.28306,0.4572 0.38759,1.71256 0.43146,0.80762 0.85007,1.4684 0.93025,1.4684 0.0802,0 0.97673,-0.48558 1.99235,-1.07908 z M 43.837842,168.33622 c 0.38693,-0.71092 0.70351,-1.36051 0.70351,-1.44354 0,-0.083 -0.85272,-0.64898 -1.89494,-1.25767 -2.12759,-1.24258 -2.04442,-1.26547 -3.14901,0.86685 l -0.50461,0.97412 1.91439,1.07006 c 1.05291,0.58853 1.98476,1.07292 2.07077,1.07641 0.086,0.003 0.47297,-0.57532 0.85989,-1.28623 z m 146.136348,-0.87629 c 0.22584,-0.17613 0.0883,-0.62501 -0.51179,-1.66969 l -0.82065,-1.42879 -1.60488,0.92111 c -0.88268,0.50662 -1.78347,1.03099 -2.00175,1.16527 -0.33936,0.20877 -0.28374,0.45595 0.38384,1.70562 l 0.78072,1.46148 1.73282,-0.95705 c 0.95305,-0.52638 1.87181,-1.06545 2.04169,-1.19795 z M 45.689932,165.16122 c 0.38693,-0.71092 0.70351,-1.36051 0.70351,-1.44354 0,-0.083 -0.85273,-0.64898 -1.89495,-1.25767 -2.12758,-1.24258 -2.04442,-1.26547 -3.14901,0.86685 l -0.50461,0.97412 1.91439,1.07006 c 1.05291,0.58853 1.98476,1.07292 2.07077,1.07641 0.086,0.003 0.47297,-0.57532 0.8599,-1.28623 z m 142.429478,-0.92414 c 0.23063,-0.22358 0.10998,-0.63976 -0.48895,-1.6866 l -0.79514,-1.38976 -1.6277,0.93398 c -0.89524,0.51369 -1.80631,1.04156 -2.02459,1.17305 -0.33855,0.20393 -0.28078,0.45385 0.39305,1.70048 l 0.78993,1.4614 1.72362,-0.94786 c 0.94798,-0.52131 1.86139,-1.08142 2.02978,-1.24469 z M 47.517922,161.98276 c 0.40018,-0.71253 0.7276,-1.362 0.7276,-1.44327 0,-0.29765 -3.71901,-2.30984 -3.97581,-2.15112 -0.28528,0.17631 -1.436,2.23929 -1.44357,2.58798 -0.004,0.18648 3.49453,2.28341 3.83188,2.29669 0.0728,0.003 0.45971,-0.57776 0.8599,-1.29028 z m 136.955818,0.19574 c 2.29521,-1.28958 2.23019,-1.15917 1.34356,-2.69501 -0.43311,-0.75024 -0.91789,-1.33013 -1.07729,-1.28863 -0.61321,0.15961 -3.67365,2.03313 -3.67365,2.2489 0,0.42752 1.37272,2.57045 1.64659,2.57045 0.15035,0 0.94271,-0.37607 1.76079,-0.83571 z M 49.370002,158.80776 c 0.40018,-0.71253 0.72685,-1.39701 0.72593,-1.52109 -7.9e-4,-0.12407 -0.32834,-0.4114 -0.7276,-0.63851 -0.39927,-0.22711 -1.27247,-0.7333 -1.94045,-1.12486 l -1.21452,-0.71193 -0.76985,1.38944 c -0.42343,0.76419 -0.76987,1.48444 -0.76987,1.60054 0,0.18703 3.50205,2.28352 3.83646,2.29669 0.0728,0.003 0.45972,-0.57776 0.8599,-1.29028 z m 133.251658,0.19574 c 2.3121,-1.29907 2.25043,-1.1901 1.45638,-2.57356 -0.38543,-0.67152 -0.79229,-1.32233 -0.90414,-1.44626 -0.21926,-0.24291 -3.95962,1.82397 -3.95962,2.18804 0,0.43667 1.37493,2.66749 1.64406,2.66749 0.15175,0 0.94524,-0.37607 1.76332,-0.83571 z M 51.274462,155.48099 c 0.429,-0.7953 0.72666,-1.48938 0.66146,-1.54239 -0.35793,-0.29108 -3.34379,-2.00711 -3.62161,-2.08141 -0.18044,-0.0482 -0.68707,0.5342 -1.12584,1.29434 l -0.79775,1.38207 0.59667,0.36544 c 0.32817,0.20099 1.19198,0.73163 1.91959,1.1792 0.7276,0.44758 1.38245,0.82164 1.45521,0.83126 0.0728,0.01 0.48328,-0.63322 0.91227,-1.42851 z m 129.709908,0.0788 1.93032,-1.10445 -0.69475,-1.21066 c -0.38212,-0.66586 -0.78628,-1.31205 -0.89813,-1.43598 -0.22772,-0.25229 -3.95961,1.83115 -3.95961,2.21058 0,0.28979 1.39941,2.64495 1.5716,2.64495 0.0661,0 0.9889,-0.497 2.05057,-1.10444 z M 53.126552,152.30597 c 0.42899,-0.7953 0.72665,-1.48938 0.66146,-1.54239 -0.35793,-0.29108 -3.3438,-2.00711 -3.62162,-2.08141 -0.18044,-0.0482 -0.68707,0.5342 -1.12583,1.29434 l -0.79776,1.38207 0.59667,0.36544 c 0.32817,0.20099 1.19199,0.73163 1.91959,1.1792 0.72761,0.44758 1.38245,0.82164 1.45521,0.83126 0.0728,0.01 0.48329,-0.63322 0.91228,-1.42851 z m 125.993148,0.086 1.91772,-1.09724 -0.49398,-0.95328 c -1.09269,-2.10865 -1.01317,-2.08721 -3.13838,-0.84602 -1.04222,0.60869 -1.89496,1.17464 -1.89496,1.25766 0,0.26288 1.40058,2.73612 1.54945,2.73612 0.0783,0 1.0054,-0.49376 2.06015,-1.09724 z M 54.971172,149.08776 c 0.37548,-0.6718 0.68193,-1.29575 0.68101,-1.38656 -7.9e-4,-0.0908 -0.32834,-0.35093 -0.7276,-0.57804 -0.39927,-0.22711 -1.27813,-0.73661 -1.95303,-1.13223 l -1.22709,-0.7193 -0.67642,1.15424 c -0.37204,0.63483 -0.71281,1.3077 -0.75729,1.49526 -0.0811,0.34205 3.46778,2.66036 3.80052,2.4827 0.0975,-0.052 0.48442,-0.64427 0.8599,-1.31607 z m 122.296438,0.12921 1.91773,-1.09724 -0.49398,-0.95328 c -1.09269,-2.10865 -1.01317,-2.08721 -3.1384,-0.84602 -1.04222,0.60869 -1.89494,1.17464 -1.89494,1.25767 0,0.26287 1.40057,2.73611 1.54944,2.73611 0.0783,0 1.0054,-0.49376 2.06015,-1.09724 z M 56.823252,145.91276 c 0.37548,-0.6718 0.68269,-1.32027 0.68269,-1.44104 0,-0.36407 -3.74036,-2.43095 -3.95962,-2.18804 -0.11185,0.12393 -0.52386,0.78353 -0.91558,1.46578 l -0.71222,1.24046 0.61089,0.37476 c 2.488,1.52627 3.27943,1.95721 3.43395,1.86979 0.0975,-0.0551 0.48442,-0.64991 0.85989,-1.32171 z m 118.557458,0.14737 c 1.01563,-0.5935 1.88028,-1.11277 1.92144,-1.15393 0.0412,-0.0412 -0.30761,-0.74074 -0.77507,-1.55459 l -0.84992,-1.47975 -1.60489,0.92112 c -0.88268,0.50661 -1.78347,1.03098 -2.00175,1.16527 -0.33929,0.20872 -0.28306,0.4572 0.3876,1.71255 0.43145,0.80763 0.85006,1.46841 0.93024,1.46841 0.0802,0 0.97673,-0.48559 1.99235,-1.07908 z m -116.726198,-3.3885 c 0.38693,-0.71091 0.70351,-1.36051 0.70351,-1.44353 0,-0.083 -0.85272,-0.64898 -1.89494,-1.25767 -2.12759,-1.24258 -2.04442,-1.26547 -3.14901,0.86685 l -0.50461,0.97411 1.91438,1.07007 c 1.05292,0.58853 1.98476,1.07291 2.07078,1.0764 0.086,0.004 0.47296,-0.57531 0.85989,-1.28623 z m 116.503008,-0.87628 c 0.22583,-0.17614 0.0882,-0.62501 -0.51179,-1.66969 l -0.82066,-1.4288 -1.60488,0.92112 c -0.88268,0.50661 -1.78347,1.03098 -2.00175,1.16527 -0.33936,0.20877 -0.28374,0.45594 0.38384,1.70562 l 0.78072,1.46148 1.73282,-0.95705 c 0.95306,-0.52638 1.87182,-1.06546 2.0417,-1.19795 z m -114.641198,-2.31658 0.71323,-1.31045 -0.60503,-0.37074 c -0.33277,-0.2039 -1.22088,-0.73851 -1.97356,-1.18801 l -1.36852,-0.81727 -0.37818,0.58023 c -0.20801,0.31912 -0.57316,0.95879 -0.81146,1.42149 l -0.43327,0.84126 1.91539,1.07062 c 1.05347,0.58884 1.98577,1.07348 2.07178,1.07696 0.086,0.004 0.47734,-0.58335 0.86962,-1.30409 z M 173.30274,138.5725 c 0.23062,-0.22359 0.10997,-0.63976 -0.48896,-1.6866 l -0.79513,-1.38977 -1.62771,0.93398 c -0.89524,0.5137 -1.8063,1.04157 -2.02459,1.17306 -0.33854,0.20393 -0.28078,0.45384 0.39306,1.70047 l 0.78992,1.46141 1.72362,-0.94786 c 0.94799,-0.52132 1.86139,-1.08143 2.02979,-1.24469 z m 13.99189,-0.56714 c 2.7334,-0.69783 4.84051,-1.90834 6.8617,-3.94195 3.02814,-3.04673 4.37254,-6.22586 4.37254,-10.33983 0,-5.0299 -2.43717,-9.50648 -6.66515,-12.24253 -5.96674,-3.86125 -13.12891,-3.06245 -18.23095,2.0333 -2.26728,2.26449 -3.45982,4.41476 -4.08525,7.3661 -0.47861,2.2585 -0.47608,3.43746 0.0123,5.75355 1.13035,5.36002 5.67796,10.09234 10.91956,11.36308 2.03901,0.49432 4.89781,0.4978 6.81521,0.008 z m -9.08976,-3.89688 c -2.6534,-3.87363 -2.75979,-6.04485 -0.53308,-10.87923 0.99021,-2.14985 1.06919,-2.48231 0.94279,-3.96875 -0.0759,-0.89228 -0.39169,-2.20473 -0.70182,-2.91655 -0.31012,-0.71182 -0.50515,-1.35292 -0.4334,-1.42468 0.49439,-0.49439 2.87851,1.43739 3.65127,2.95852 l 0.39056,0.76879 0.18917,-1.03337 c 0.37657,-2.05706 1.79741,-3.80843 4.01693,-4.95138 l 0.82446,-0.42456 -0.13011,2.96503 c -0.20156,4.59321 0.62668,7.35274 2.39333,7.97403 1.00437,0.35322 1.37952,-0.11447 1.37952,-1.71979 0,-1.14014 0.0454,-1.25247 0.34238,-0.84666 0.77441,1.05825 1.21399,3.37119 1.19519,6.2887 -0.0212,3.29047 -0.30186,4.30447 -1.84555,6.66816 l -1.00179,1.53393 -0.1716,-2.03027 c -0.21571,-2.55205 -0.99722,-4.24629 -2.38116,-5.16214 -0.8936,-0.59136 -1.23439,-0.66158 -2.74419,-0.56544 -1.52867,0.0973 -1.8286,0.21126 -2.64854,1.00598 -1.22836,1.19056 -1.84256,2.8807 -1.85068,5.0926 -0.004,0.98385 -0.0306,1.78944 -0.06,1.79019 -0.0294,7.9e-4 -0.40005,-0.50465 -0.82368,-1.12311 z m -129.229028,3.63655 c 2.692,-0.63471 4.7406,-1.83457 6.94798,-4.06942 1.09438,-1.10799 2.31737,-2.63073 2.71777,-3.38387 0.91315,-1.71762 1.77476,-5.03478 1.77476,-6.83274 0,-1.79796 -0.86161,-5.11512 -1.77476,-6.83274 -1.00359,-1.88772 -4.34075,-5.16381 -6.31137,-6.19586 l -1.60384,-0.83996 -2.96022,5.28596 c -1.62813,2.90728 -2.96022,5.34 -2.96022,5.40604 0,0.066 1.79048,0.15294 3.97884,0.19311 l 3.97884,0.073 -6.62006,7.9375 c -3.64104,4.36563 -6.62214,8.02975 -6.62468,8.14249 -0.003,0.11274 0.32281,0.33035 0.72299,0.48356 2.79263,1.06921 5.9217,1.29596 8.73397,0.6329 z m 13.30479,-1.34275 c 0.46463,-0.81209 0.74125,-1.57007 0.61473,-1.6844 -0.12653,-0.11434 -1.01795,-0.64196 -1.98095,-1.1725 -1.35752,-0.74789 -1.80917,-0.88959 -2.01026,-0.6307 -0.4859,0.62557 -1.49271,2.57662 -1.37912,2.67252 0.11775,0.0994 3.78194,2.26243 3.86409,2.28102 0.0257,0.006 0.42688,-0.65386 0.89151,-1.46594 z m 107.376428,0.11163 c 2.29521,-1.28957 2.2302,-1.15917 1.34356,-2.69501 -0.43311,-0.75023 -0.91789,-1.33012 -1.07729,-1.28863 -0.61321,0.15962 -3.67364,2.03314 -3.67364,2.24891 0,0.42752 1.37272,2.57045 1.64658,2.57045 0.15036,0 0.94272,-0.37607 1.76079,-0.83572 z M 41.865272,131.22078 c 1.47185,-2.71605 2.67608,-5.07895 2.67608,-5.2509 0,-0.22992 -0.98,-0.28841 -3.70434,-0.22111 -2.03739,0.0503 -3.70426,0.0114 -3.70417,-0.0866 1e-4,-0.0979 1.30559,-3.84278 2.90108,-8.32184 1.5955,-4.47906 2.84851,-8.19614 2.78447,-8.26018 -0.30685,-0.30685 -4.16387,1.4398 -5.73431,2.59678 -3.91214,2.88217 -6.0302,7.02052 -6.0302,11.78208 0,3.65825 1.26342,6.98926 3.67556,9.69069 1.38602,1.55224 4.00067,3.49383 4.29156,3.18682 0.0925,-0.0976 1.37242,-2.39973 2.84427,-5.11577 z m 22.35021,1.87118 c 0.41603,-0.74071 0.65415,-1.43904 0.52917,-1.55184 -0.12499,-0.1128 -1.02401,-0.64411 -1.99781,-1.18069 l -1.77055,-0.9756 -0.41226,0.67563 c -0.22674,0.37159 -0.60194,0.98601 -0.83377,1.36537 -0.23183,0.37935 -0.32112,0.78507 -0.19844,0.9016 0.39269,0.37295 3.38821,2.09258 3.66266,2.10261 0.14552,0.005 0.60497,-0.59637 1.021,-1.33708 z m 103.774798,0.13521 c 0.93185,-0.52112 1.74621,-1.03152 1.80968,-1.13422 0.0635,-0.1027 -0.2443,-0.80976 -0.68394,-1.57125 l -0.79935,-1.38453 -1.49651,0.84734 c -2.19949,1.24535 -2.42256,1.39034 -2.42256,1.57464 0,0.38873 1.39054,2.61552 1.63328,2.61552 0.14581,0 1.02754,-0.42638 1.9594,-0.9475 z M 66.038752,129.93738 c 0.40018,-0.72558 0.7276,-1.37037 0.7276,-1.43286 0,-0.16013 -3.98667,-2.3431 -4.07042,-2.22883 -0.64942,0.88599 -1.4843,2.71194 -1.31397,2.87378 0.39904,0.37917 3.39127,2.0947 3.6646,2.10103 0.14552,0.003 0.59201,-0.58753 0.99219,-1.31312 z m 99.914148,0.22657 c 2.3121,-1.29907 2.25043,-1.1901 1.45638,-2.57355 -0.38543,-0.67152 -0.79229,-1.32233 -0.90414,-1.44626 -0.21926,-0.24291 -3.95962,1.82397 -3.95962,2.18804 0,0.43667 1.37493,2.66749 1.64406,2.66749 0.15175,0 0.94524,-0.37607 1.76332,-0.83572 z m -98.062068,-3.40157 c 0.40018,-0.72558 0.72761,-1.37037 0.72761,-1.43286 0,-0.16013 -3.98668,-2.3431 -4.07043,-2.22883 -0.64942,0.88599 -1.4843,2.71194 -1.31397,2.87378 0.39904,0.37917 3.39127,2.0947 3.6646,2.10103 0.14553,0.003 0.59201,-0.58753 0.99219,-1.31312 z m 96.412188,-0.035 1.91773,-1.09724 -0.49399,-0.95328 c -1.09269,-2.10865 -1.01316,-2.08722 -3.13838,-0.84602 -1.04222,0.60868 -1.89494,1.17463 -1.89494,1.25766 0,0.26288 1.40057,2.73612 1.54943,2.73612 0.0783,0 1.0054,-0.49376 2.06015,-1.09724 z m -94.563378,-3.24135 c 0.406,-0.69101 0.67594,-1.35709 0.59988,-1.48016 -0.0761,-0.12307 -0.92013,-0.66099 -1.87571,-1.19538 -0.95557,-0.53439 -1.67778,-1.03124 -1.6049,-1.10412 0.0729,-0.0729 0.94489,0.34343 1.9378,0.92514 0.9929,0.58172 1.88521,1.00826 1.98291,0.94789 0.34671,-0.21429 1.53612,-2.54767 1.40597,-2.75826 -0.0728,-0.11772 -0.91412,-0.65126 -1.86969,-1.18565 -0.95558,-0.53439 -1.67516,-1.03387 -1.59906,-1.10997 0.0761,-0.0761 0.56133,0.11336 1.0783,0.421 0.51698,0.30764 1.3508,0.80355 1.85294,1.10202 l 0.91298,0.54267 0.79167,-1.38618 c 0.43543,-0.7624 0.7379,-1.47319 0.67217,-1.57955 -0.0657,-0.10635 -0.90134,-0.6306 -1.85692,-1.16499 -0.95558,-0.53439 -1.67516,-1.03387 -1.59906,-1.10997 0.0761,-0.0761 0.53157,0.095 1.01216,0.38012 0.4806,0.28516 1.31442,0.78106 1.85294,1.10202 l 0.97912,0.58355 0.79833,-1.39782 c 0.43908,-0.76881 0.70119,-1.49497 0.58245,-1.61371 -0.11873,-0.11873 -1.00751,-0.67848 -1.97506,-1.24388 l -1.75919,-1.02801 -0.70228,1.23914 c -0.38625,0.68153 -1.02364,1.77493 -1.41642,2.42977 -3.05627,5.09538 -5.06102,8.80105 -4.86322,8.98936 0.51137,0.4868 3.42458,2.09732 3.66605,2.02671 0.14172,-0.0414 0.58984,-0.64072 0.99584,-1.33174 z m 92.711298,0.0663 1.91772,-1.09724 -0.49398,-0.95328 c -1.09269,-2.10865 -1.01317,-2.08722 -3.13838,-0.84602 -1.04222,0.60868 -1.89495,1.17463 -1.89495,1.25766 0,0.26288 1.40057,2.73612 1.54944,2.73612 0.0783,0 1.0054,-0.49376 2.06015,-1.09724 z m -1.88689,-3.15685 c 1.01562,-0.59349 1.87867,-1.11117 1.91789,-1.15039 0.11051,-0.11051 -1.27138,-2.50924 -1.54186,-2.6764 -0.2398,-0.14821 -3.95081,1.88687 -3.95081,2.16657 0,0.24971 1.44643,2.73875 1.5917,2.73904 0.0751,1.4e-4 0.96745,-0.48532 1.98308,-1.07882 z m -1.85209,-3.175 c 1.01562,-0.59349 1.88027,-1.11276 1.92143,-1.15393 0.0412,-0.0412 -0.30761,-0.74073 -0.77507,-1.55459 l -0.84992,-1.47974 -1.60488,0.92112 c -0.88268,0.50661 -1.78347,1.03098 -2.00175,1.16526 -0.33929,0.20873 -0.28306,0.4572 0.3876,1.71256 0.43145,0.80762 0.85006,1.46841 0.93024,1.46841 0.0802,0 0.97673,-0.48559 1.99235,-1.07909 z m -0.22589,-4.31262 c 0.23063,-0.22359 0.10998,-0.63976 -0.48896,-1.6866 l -0.79513,-1.38977 -1.62771,0.93398 c -0.89524,0.51369 -1.8063,1.04157 -2.02458,1.17306 -0.33855,0.20393 -0.28079,0.45384 0.39305,1.70047 l 0.78993,1.4614 1.72361,-0.94785 c 0.94799,-0.52132 1.8614,-1.08143 2.02979,-1.24469 z M 83.500512,108.3582 c 8.04878,-6.07558 17.707688,-9.691389 27.596428,-10.330709 2.39057,-0.15455 2.76831,-0.2404 2.63109,-0.59797 -0.0881,-0.22964 -2.19349,-3.93242 -4.67861,-8.22842 -2.48513,-4.296 -4.55331,-7.87474 -4.59597,-7.95276 -0.0426,-0.078 1.03298,-2.04255 2.3903,-4.36563 l 2.46786,-4.22377 -0.81905,-1.45521 c -0.45047,-0.80036 -1.42816,-2.49629 -2.17265,-3.76873 l -1.35361,-2.31353 -13.477578,23.33331 C 84.076052,101.2881 77.610972,112.4905 77.121872,113.34899 l -0.88928,1.5609 2.34449,-2.30249 c 1.28946,-1.26637 3.50501,-3.17851 4.92343,-4.2492 z M 138.93078,90.285421 c -7.74861,-13.41975 -14.20745,-24.39137 -14.35297,-24.38138 -0.14552,0.01 -1.13549,1.51496 -2.19993,3.34439 l -1.93535,3.32623 2.43213,4.22845 c 2.10231,3.65505 2.39486,4.31024 2.15732,4.83157 -0.15113,0.33172 -2.24992,4.00809 -4.66396,8.16972 -2.41404,4.16163 -4.38917,7.66758 -4.38917,7.79101 0,0.12342 1.55254,0.36511 3.45009,0.53707 8.65245,0.78413 16.77712,3.661769 23.96238,8.487129 3.17854,2.13459 7.24328,5.50898 8.70316,7.22502 0.43656,0.51317 0.82321,0.91218 0.85921,0.88668 0.036,-0.0255 -6.27431,-11.02614 -14.02291,-24.445889 z m -61.732978,20.291389 0.71222,-1.24046 -0.6109,-0.37457 c -2.93053,-1.79689 -3.35766,-1.99823 -3.59324,-1.69375 -0.47627,0.61558 -1.47572,2.56036 -1.36419,2.65452 0.62226,0.52536 3.85583,2.20933 3.98063,2.07303 0.0898,-0.0981 0.48376,-0.73651 0.87548,-1.41877 z m 77.642598,0.27246 c 2.2952,-1.28958 2.23019,-1.15917 1.34355,-2.69501 -0.43311,-0.75024 -0.91789,-1.33012 -1.07728,-1.28863 -0.61321,0.15962 -3.67365,2.03313 -3.67365,2.24891 0,0.42751 1.37272,2.57044 1.64658,2.57044 0.15036,0 0.94272,-0.37607 1.7608,-0.83571 z m -75.891018,-3.28664 c 0.46463,-0.81208 0.74125,-1.57006 0.61473,-1.6844 -0.12653,-0.11433 -1.01795,-0.64195 -1.98095,-1.17249 -1.35752,-0.74789 -1.80917,-0.88959 -2.01026,-0.6307 -0.4859,0.62557 -1.49271,2.57661 -1.37912,2.67251 0.11775,0.0994 3.78194,2.26244 3.86409,2.28103 0.0257,0.006 0.42688,-0.65386 0.89151,-1.46595 z m 74.224228,-1.4e-4 c 0.93186,-0.52113 1.74621,-1.03153 1.80969,-1.13422 0.0635,-0.1027 -0.24431,-0.80976 -0.68395,-1.57125 l -0.79935,-1.38453 -1.49651,0.84733 c -2.19948,1.24535 -2.42255,1.39035 -2.42255,1.57465 0,0.38873 1.39053,2.61551 1.63327,2.61551 0.14582,0 1.02755,-0.42637 1.9594,-0.94749 z M 80.855422,104.2727 c 0.40018,-0.72558 0.7276,-1.37037 0.7276,-1.43286 0,-0.16013 -3.98667,-2.3431 -4.07043,-2.22884 -0.64942,0.88599 -1.48429,2.71195 -1.31397,2.87379 0.39904,0.37916 3.39128,2.0947 3.66461,2.10103 0.14552,0.003 0.592,-0.58754 0.99219,-1.31312 z m 70.280808,0.22657 c 2.3121,-1.29907 2.25044,-1.1901 1.45638,-2.57356 -0.38542,-0.67151 -0.79229,-1.32233 -0.90414,-1.44625 -0.21926,-0.24292 -3.95962,1.82396 -3.95962,2.18804 0,0.43666 1.37493,2.66748 1.64406,2.66748 0.15175,0 0.94524,-0.37607 1.76332,-0.83571 z M 82.707502,101.0977 c 0.40018,-0.72558 0.7276,-1.370369 0.7276,-1.432859 0,-0.16013 -3.98667,-2.3431 -4.07042,-2.22884 -0.64942,0.88599 -1.4843,2.711949 -1.31397,2.873789 0.39904,0.37916 3.39127,2.0947 3.6646,2.10103 0.14552,0.003 0.59201,-0.58754 0.99219,-1.31312 z m 66.778848,-0.035 1.91773,-1.097229 -0.49398,-0.95329 c -1.09269,-2.10865 -1.01317,-2.08721 -3.13839,-0.84602 -1.04222,0.60869 -1.89494,1.17464 -1.89494,1.25767 0,0.26288 1.40057,2.736109 1.54944,2.736109 0.0783,0 1.00539,-0.49375 2.06014,-1.09724 z M 84.556312,97.821361 c 0.40599,-0.69102 0.67594,-1.35709 0.59988,-1.48016 -0.0761,-0.12307 -0.92013,-0.66099 -1.87571,-1.19538 -0.95558,-0.53439 -1.67778,-1.03125 -1.6049,-1.10413 0.0729,-0.0729 0.94489,0.34344 1.93779,0.92515 0.99291,0.58171 1.88522,1.00826 1.98291,0.94788 0.34672,-0.21428 1.53613,-2.54766 1.40598,-2.75825 -0.0728,-0.11772 -0.91412,-0.65126 -1.8697,-1.18565 -0.95557,-0.53439 -1.67515,-1.03388 -1.59906,-1.10997 0.0761,-0.0761 0.56133,0.11336 1.07831,0.421 0.51698,0.30764 1.3508,0.80355 1.85294,1.10201 l 0.91297,0.54268 0.79168,-1.38618 c 0.43543,-0.7624 0.7379,-1.4732 0.67217,-1.57955 -0.0657,-0.10636 -0.90135,-0.6306 -1.85692,-1.16499 -0.95558,-0.53439 -1.67516,-1.03388 -1.59906,-1.10997 0.0761,-0.0761 0.53156,0.095 1.01216,0.38012 0.4806,0.28515 1.31442,0.78106 1.85293,1.10201 l 0.97913,0.58356 0.79833,-1.39783 c 0.43908,-0.7688 0.70118,-1.49496 0.58245,-1.6137 -0.11873,-0.11873 -1.00751,-0.67848 -1.97507,-1.24389 l -1.75919,-1.02801 -0.70227,1.23915 c -0.38625,0.68153 -1.02364,1.77492 -1.41643,2.42977 -3.05626,5.09537 -5.06102,8.80105 -4.86321,8.98935 0.51137,0.48681 3.42458,2.09733 3.66605,2.02672 0.14171,-0.0414 0.58984,-0.64072 0.99584,-1.33174 z m 63.077958,0.0663 1.91773,-1.09723 -0.49399,-0.95329 c -1.09269,-2.10865 -1.01316,-2.08721 -3.13838,-0.84602 -1.04222,0.60869 -1.89494,1.17464 -1.89494,1.25767 0,0.26288 1.40057,2.73611 1.54943,2.73611 0.0783,0 1.0054,-0.49375 2.06015,-1.09724 z m -28.06108,-8.81806 c 2.43725,-4.21649 4.43136,-7.78857 4.43136,-7.93796 0,-0.36839 -8.90715,-15.74253 -9.12261,-15.74604 -0.23768,-0.004 -9.25833,15.63521 -9.16514,15.88957 0.34785,0.94937 9.11252,15.76473 9.24823,15.63274 0.0972,-0.0946 2.17092,-3.62182 4.60816,-7.83831 z m 26.17419,5.66122 c 1.01562,-0.59349 1.87867,-1.11117 1.91789,-1.15039 0.11051,-0.11051 -1.27138,-2.50924 -1.54186,-2.67641 -0.2398,-0.1482 -3.95081,1.88687 -3.95081,2.16658 0,0.24971 1.44643,2.73875 1.5917,2.73903 0.0751,1.5e-4 0.96746,-0.48531 1.98308,-1.07881 z m -1.85208,-3.175 c 1.01561,-0.59349 1.88026,-1.11276 1.92143,-1.15393 0.0412,-0.0412 -0.30762,-0.74073 -0.77507,-1.55459 l -0.84992,-1.47974 -1.60488,0.92112 c -0.88268,0.50661 -1.78347,1.03098 -2.00176,1.16526 -0.33929,0.20873 -0.28305,0.4572 0.3876,1.71256 0.43146,0.80762 0.85007,1.4684 0.93024,1.4684 0.0802,0 0.97673,-0.48558 1.99236,-1.07908 z m -0.2259,-4.31262 c 0.23063,-0.22359 0.10998,-0.63976 -0.48895,-1.68661 l -0.79514,-1.38976 -1.62771,0.93398 c -0.89523,0.51369 -1.8063,1.04156 -2.02458,1.17305 -0.33855,0.20394 -0.28078,0.45385 0.39305,1.70048 l 0.78993,1.4614 1.72361,-0.94785 c 0.94799,-0.52132 1.8614,-1.08143 2.02979,-1.24469 z m -51.755438,-2.17023 c 0.46463,-0.81208 0.74126,-1.57006 0.61473,-1.6844 -0.12652,-0.11433 -1.01795,-0.64196 -1.98095,-1.17249 -1.35751,-0.74789 -1.80917,-0.88959 -2.01026,-0.63071 -0.48589,0.62557 -1.49271,2.57662 -1.37912,2.67252 0.11776,0.0994 3.78195,2.26244 3.8641,2.28102 0.0257,0.006 0.42687,-0.65386 0.8915,-1.46594 z m 48.109768,0.11164 c 2.2952,-1.28958 2.23019,-1.15917 1.34356,-2.69501 -0.43311,-0.75024 -0.91789,-1.33013 -1.07729,-1.28863 -0.61321,0.15961 -3.67365,2.03313 -3.67365,2.2489 0,0.42752 1.37272,2.57045 1.64659,2.57045 0.15035,0 0.94271,-0.37607 1.76079,-0.83571 z m -46.174918,-3.422 c 0.41603,-0.74071 0.65416,-1.43904 0.52917,-1.55184 -0.12499,-0.11279 -1.024,-0.6441 -1.99781,-1.18068 l -1.77055,-0.97561 -0.41226,0.67563 c -0.22674,0.37159 -0.60193,0.98601 -0.83376,1.36537 -0.23183,0.37936 -0.32113,0.78508 -0.19844,0.9016 0.39269,0.37295 3.38821,2.09259 3.66265,2.10262 0.14552,0.005 0.60497,-0.59637 1.021,-1.33709 z m 44.508128,0.13521 c 0.93186,-0.52112 1.74622,-1.03152 1.80969,-1.13422 0.0635,-0.1027 -0.2443,-0.80976 -0.68395,-1.57125 l -0.79935,-1.38452 -1.49651,0.84733 c -2.19948,1.24535 -2.42255,1.39035 -2.42255,1.57465 0,0.38873 1.39053,2.61551 1.63328,2.61551 0.14581,0 1.02754,-0.42637 1.95939,-0.9475 z m -42.665948,-3.32365 c 0.41059,-0.74421 0.64871,-1.44095 0.52917,-1.5483 -0.11954,-0.10735 -1.01514,-0.63478 -1.99021,-1.17207 l -1.77286,-0.9769 -0.69056,1.09393 c -1.09881,1.74062 -1.10692,1.71304 0.84373,2.87121 0.99278,0.58944 1.92411,1.07476 2.06964,1.07848 0.14552,0.004 0.60051,-0.60214 1.01109,-1.34635 z m 40.628568,0.26044 c 2.31211,-1.29907 2.25044,-1.1901 1.45639,-2.57356 -0.38543,-0.67152 -0.7923,-1.32233 -0.90415,-1.44625 -0.21925,-0.24292 -3.95961,1.82396 -3.95961,2.18803 0,0.43667 1.37493,2.66749 1.64406,2.66749 0.15174,0 0.94523,-0.37607 1.76331,-0.83571 z m -38.795388,-3.40157 c 0.40018,-0.72559 0.7276,-1.37038 0.7276,-1.43287 0,-0.16012 -3.98667,-2.34309 -4.07043,-2.22883 -0.64942,0.88599 -1.48429,2.71195 -1.31397,2.87379 0.39904,0.37916 3.39128,2.09469 3.66461,2.10102 0.14552,0.003 0.592,-0.58753 0.99219,-1.31311 z m 37.145518,-0.035 1.91772,-1.09724 -0.49398,-0.95328 c -1.09269,-2.10865 -1.01317,-2.08721 -3.13838,-0.84602 -1.04222,0.60869 -1.89495,1.17464 -1.89495,1.25767 0,0.26288 1.40057,2.73611 1.54944,2.73611 0.0783,0 1.0054,-0.49376 2.06015,-1.09724 z m -35.319878,-3.15626 c 0.39185,-0.64375 0.721808,-1.25141 0.733248,-1.35036 0.0233,-0.20185 -3.937308,-2.4419 -4.057998,-2.29512 -0.5827,0.70869 -1.49368,2.6943 -1.31442,2.86497 0.51314,0.48854 3.42524,2.09771 3.66778,2.02674 0.14242,-0.0417 0.57954,-0.60248 0.97139,-1.24623 z m 33.467788,-0.0187 1.91773,-1.09724 -0.49398,-0.95328 c -1.09269,-2.10865 -1.01317,-2.08722 -3.13839,-0.84602 -1.04222,0.60869 -1.89494,1.17464 -1.89494,1.25766 0,0.26288 1.40057,2.73612 1.54944,2.73612 0.0783,0 1.00539,-0.49376 2.06014,-1.09724 z m -17.93921,-8.95666 c 0.0959,1.5e-4 0.97792,1.39914 1.95998,3.10886 0.98206,1.70972 2.06388,3.56706 2.40404,4.12742 l 0.61848,1.01885 2.05241,-3.58413 2.05241,-3.58412 -4.58874,-7.94137 c -3.43776,-5.94946 -4.66155,-7.86106 -4.87902,-7.62118 -0.15964,0.17611 -2.22534,3.68276 -4.59043,7.79257 l -4.30016,7.47238 0.72455,1.25887 c 0.3985,0.69238 1.37451,2.37336 2.1689,3.73551 l 1.44435,2.47663 2.37941,-4.13028 c 1.30867,-2.27165 2.45789,-4.13016 2.55382,-4.13001 z m -3.88801,-1.32319 c 1.32139,-2.51009 3.61282,-6.08542 3.90013,-6.08542 0.26307,0 2.64163,3.69738 3.99991,6.21771 l 1.14074,2.11667 -1.11843,-1.05834 c -0.61514,-0.58208 -1.77782,-1.91668 -2.58374,-2.96578 l -1.4653,-1.90744 -1.79008,2.30432 c -0.98455,1.26737 -2.12243,2.60198 -2.52862,2.96578 -0.68303,0.61174 -0.64956,0.49243 0.44539,-1.5875 z m -9.76532,7.0385 c 0.40599,-0.69102 0.67594,-1.35709 0.59988,-1.48016 -0.0761,-0.12307 -0.92013,-0.661 -1.875708,-1.19538 -0.95558,-0.53439 -1.67516,-1.03388 -1.59906,-1.10997 0.0761,-0.0761 0.53157,0.095 1.01216,0.38011 0.4806,0.28516 1.314418,0.78107 1.852938,1.10202 l 0.97912,0.58355 0.79168,-1.38617 c 0.43542,-0.7624 0.7379,-1.4732 0.67217,-1.57956 -0.0657,-0.10635 -0.90135,-0.63059 -1.85693,-1.16498 -0.95557,-0.53439 -1.67515,-1.03388 -1.59906,-1.10997 0.0761,-0.0761 0.56133,0.11335 1.07831,0.42099 0.51698,0.30764 1.3508,0.80355 1.85294,1.10202 l 0.91297,0.54267 0.79833,-1.39782 c 0.43908,-0.7688 0.70119,-1.49497 0.58245,-1.6137 -0.11873,-0.11873 -1.00751,-0.67848 -1.97506,-1.24389 l -1.75919,-1.02801 -0.70227,1.23914 c -0.38626,0.68153 -1.023468,1.77493 -1.416028,2.42977 -2.296,3.82997 -3.22081,5.61509 -3.01198,5.81391 0.51163,0.4871 3.42489,2.09781 3.666498,2.02716 0.14171,-0.0414 0.58984,-0.64072 0.99584,-1.33173 z m 29.70565,0.0845 c 1.01562,-0.5935 1.87867,-1.11117 1.91789,-1.15039 0.11052,-0.11051 -1.27137,-2.50924 -1.54186,-2.67641 -0.23979,-0.1482 -3.9508,1.88687 -3.9508,2.16658 0,0.24971 1.44642,2.73875 1.5917,2.73903 0.0751,1.5e-4 0.96745,-0.48532 1.98307,-1.07881 z m -1.85208,-3.175 c 1.01562,-0.5935 1.88026,-1.11276 1.92143,-1.15393 0.0412,-0.0412 -0.30762,-0.74073 -0.77507,-1.55459 l -0.84992,-1.47975 -1.60488,0.92112 c -0.88268,0.50662 -1.78347,1.03099 -2.00175,1.16527 -0.3393,0.20872 -0.28306,0.4572 0.38759,1.71256 0.43146,0.80762 0.85007,1.4684 0.93024,1.4684 0.0802,0 0.97674,-0.48559 1.99236,-1.07908 z m -2.01948,-3.19622 c 2.2952,-1.28957 2.23019,-1.15916 1.34355,-2.695 -0.43311,-0.75024 -0.91789,-1.33013 -1.07728,-1.28864 -0.56531,0.14715 -3.67365,2.02477 -3.67365,2.2191 0,0.36522 1.44889,2.60026 1.68566,2.60026 0.12887,0 0.90364,-0.37607 1.72172,-0.83572 z m -20.22801,-3.44745 0.71221,-1.24046 -0.61089,-0.37458 c -2.93054,-1.79688 -3.35767,-1.99822 -3.59324,-1.69375 -0.47628,0.61559 -1.47572,2.56037 -1.36419,2.65453 0.62225,0.52536 3.85582,2.20932 3.98063,2.07302 0.0898,-0.0981 0.48376,-0.73651 0.87548,-1.41876 z m 18.56122,0.16067 c 0.93186,-0.52112 1.74138,-1.02714 1.79893,-1.12448 0.0576,-0.0973 -0.25071,-0.80238 -0.68504,-1.56675 l -0.78969,-1.38977 -1.62771,0.93399 c -0.89523,0.51369 -1.79267,1.03378 -1.9943,1.15577 -0.29802,0.1803 -0.22829,0.4759 0.37278,1.58026 0.40666,0.74717 0.84993,1.35848 0.98506,1.35848 0.13513,0 1.00812,-0.42638 1.93997,-0.9475 z m -16.80965,-3.17485 c 0.46463,-0.81209 0.74126,-1.57007 0.61473,-1.6844 -0.12652,-0.11434 -1.01795,-0.64196 -1.98095,-1.1725 -1.35751,-0.74788 -1.80917,-0.88959 -2.01026,-0.6307 -0.48589,0.62557 -1.49271,2.57662 -1.37912,2.67252 0.11776,0.0994 3.78195,2.26243 3.8641,2.28102 0.0257,0.006 0.42687,-0.65386 0.8915,-1.46594 z m 14.95757,-1.5e-4 c 0.93185,-0.52112 1.74621,-1.03152 1.80968,-1.13422 0.0635,-0.1027 -0.24354,-0.80844 -0.68225,-1.56832 l -0.79766,-1.38159 -1.6305,0.93555 c -0.89677,0.51455 -1.79546,1.03535 -1.99708,1.15734 -0.29802,0.1803 -0.22829,0.4759 0.37278,1.58026 0.40665,0.74716 0.84993,1.35848 0.98506,1.35848 0.13513,0 1.00811,-0.42638 1.93997,-0.9475 z m -13.03262,-3.32365 c 0.41058,-0.74422 0.64871,-1.44095 0.52917,-1.5483 -0.11955,-0.10735 -1.01514,-0.63478 -1.99021,-1.17207 l -1.77286,-0.9769 -0.69057,1.09393 c -1.0988,1.74062 -1.10691,1.71304 0.84374,2.8712 0.99278,0.58945 1.92411,1.07477 2.06963,1.07849 0.14552,0.004 0.60052,-0.60214 1.0111,-1.34635 z m 10.99524,0.26043 c 2.3121,-1.29906 2.25043,-1.1901 1.45638,-2.57355 -0.38543,-0.67152 -0.79229,-1.32233 -0.90415,-1.44625 -0.19193,-0.21265 -3.95961,1.80099 -3.95961,2.11622 0,0.34422 1.47535,2.73878 1.68758,2.73903 0.12781,1.5e-4 0.90172,-0.3758 1.7198,-0.83545 z m -9.16207,-3.40156 c 0.40019,-0.72559 0.72761,-1.37037 0.72761,-1.43287 0,-0.16012 -3.98668,-2.34309 -4.07043,-2.22883 -0.64942,0.88599 -1.4843,2.71195 -1.31397,2.87379 0.39904,0.37916 3.39128,2.09469 3.66461,2.10102 0.14552,0.003 0.592,-0.58753 0.99218,-1.31311 z m 7.51219,-0.035 1.91772,-1.09724 -0.49398,-0.95328 c -1.09269,-2.10865 -1.01316,-2.08722 -3.13838,-0.84602 -1.04222,0.60868 -1.89494,1.1732 -1.89494,1.25447 0,0.23071 1.44082,2.73874 1.57353,2.73904 0.0651,1.5e-4 0.9813,-0.49349 2.03605,-1.09697 z m -5.85854,-2.9548 c 0.29104,-0.53549 0.59971,-0.97394 0.68594,-0.97433 0.0862,-4e-4 0.38119,0.416 0.65548,0.92533 0.27429,0.50932 0.55464,0.92604 0.62301,0.92604 0.30288,0 3.96047,-2.21591 3.88976,-2.35657 -0.72615,-1.44447 -5.03715,-8.755932 -5.16269,-8.755932 -0.33994,0 -5.37424,9.048902 -5.1519,9.260262 0.51027,0.48508 3.42105,2.09046 3.66665,2.02227 0.14552,-0.0404 0.50271,-0.51158 0.79375,-1.04707 z"
       id="path943"
       inkscape:export-filename="C:\Users\logie\Documents\koding\_GRAFIKI\dnd5eSpells\spell icons\evocation.png"
       inkscape:export-xdpi="96"
       inkscape:export-ydpi="96" />
  </g>
</svg>
