<?xml version="1.0" encoding="UTF-8" standalone="no"?>
<svg
   xmlns:dc="http://purl.org/dc/elements/1.1/"
   xmlns:cc="http://creativecommons.org/ns#"
   xmlns:rdf="http://www.w3.org/1999/02/22-rdf-syntax-ns#"
   xmlns:svg="http://www.w3.org/2000/svg"
   xmlns="http://www.w3.org/2000/svg"
   xmlns:sodipodi="http://sodipodi.sourceforge.net/DTD/sodipodi-0.dtd"
   xmlns:inkscape="http://www.inkscape.org/namespaces/inkscape"
   width="210mm"
   height="297mm"
   viewBox="0 0 210 297"
   version="1.1"
   id="svg8"
   inkscape:version="1.0.2-2 (e86c870879, 2021-01-15)"
   sodipodi:docname="necromancy.svg">
  <defs
     id="defs2" />
  <sodipodi:namedview
     id="base"
     pagecolor="#ffffff"
     bordercolor="#666666"
     borderopacity="1.0"
     inkscape:pageopacity="0.0"
     inkscape:pageshadow="2"
     inkscape:zoom="0.98994949"
     inkscape:cx="576.24504"
     inkscape:cy="452.7968"
     inkscape:document-units="mm"
     inkscape:current-layer="layer1"
     inkscape:document-rotation="0"
     showgrid="false"
     inkscape:window-width="3736"
     inkscape:window-height="2126"
     inkscape:window-x="93"
     inkscape:window-y="-11"
     inkscape:window-maximized="1" />
  <metadata
     id="metadata5">
    <rdf:RDF>
      <cc:Work
         rdf:about="">
        <dc:format>image/svg+xml</dc:format>
        <dc:type
           rdf:resource="http://purl.org/dc/dcmitype/StillImage" />
        <dc:title></dc:title>
      </cc:Work>
    </rdf:RDF>
  </metadata>
  <g
     inkscape:label="Layer 1"
     inkscape:groupmode="layer"
     id="layer1">
    <path
       style="fill:#000000;stroke-width:0.264583"
       d="m 115.17429,180.70231 -18.505401,-18.50682 -2.05744,1.96567 c -6.26331,5.98393 -13.90595,9.88642 -21.51993,10.98851 -2.75318,0.39851 -7.88154,0.32487 -10.58218,-0.15195 -12.08148,-2.13308 -22.11805,-11.12336 -26.58155,-23.81047 -0.90025,-2.55887 -1.86232,-6.37667 -1.86232,-7.39028 0,-0.86274 0.66788,-1.04332 1.1481,-0.31042 1.25845,1.92064 3.97367,4.93711 5.62585,6.25004 3.55263,2.82314 6.67964,4.20878 10.79837,4.78496 4.00451,0.56021 8.42429,-0.44742 12.15104,-2.7702 4.13295,-2.57595 7.62875,-6.93114 9.17809,-11.43438 l 0.46693,-1.35716 -12.67273,-12.67067 -12.67274,-12.67067 12.56772,-12.56976 c 6.91224,-6.913371 12.56771,-12.724661 12.56771,-12.913971 0,-0.18932 -0.34861,-1.16343 -0.77469,-2.16471 -4.02602,-9.46099 -13.49338,-14.82935 -22.58871,-12.80867 -5.23806,1.16373 -10.78004,5.15609 -14.20744,10.23482 -0.6829,1.01193 -0.93801,1.13577 -1.54597,0.75045 -0.29493,-0.18692 -0.27856,-0.60238 0.0963,-2.44335 1.80751,-8.87631 6.90735,-17.60467 13.22231,-22.62994 8.52067,-6.78052 18.81454,-8.99535 29.36673,-6.31857 6.21288,1.57603 12.08514,4.91912 17.88613,10.18264 l 2.14302,1.94446 18.495941,-18.494519 18.49594,-18.494523 18.51618,18.514762 18.51618,18.51476 1.26142,-1.21366 c 6.41587,-6.17296 13.94867,-10.18922 21.48253,-11.45385 3.15813,-0.53012 7.89157,-0.5344 11.12475,-0.0101 13.85412,2.24677 25.08813,13.86237 28.31457,29.27631 0.39324,1.87865 0.43743,2.49062 0.19116,2.64694 -0.47383,0.30075 -0.51349,0.26435 -2.29272,-2.1042 -3.90953,-5.20444 -9.2401,-8.50113 -15.09324,-9.33439 -6.83805,-0.97348 -14.3909,2.68642 -18.76111,9.09111 -0.95902,1.40548 -2.93472,5.47104 -2.93472,6.03901 0,0.19741 5.65547,6.01346 12.56771,12.924551 6.91224,6.91109 12.56771,12.68563 12.56771,12.8323 0,0.14666 -5.65547,5.9212 -12.56771,12.83229 -6.91224,6.91109 -12.56771,12.72714 -12.56771,12.92455 0,0.68111 2.10881,4.85662 3.28589,6.50614 1.93906,2.71735 4.89322,5.27625 7.65907,6.63431 3.2989,1.61979 5.24591,2.08742 8.63421,2.07374 3.28715,-0.0133 5.31369,-0.48729 8.38052,-1.96029 3.54495,-1.70264 6.80899,-4.55476 9.40778,-8.22052 0.77923,-1.09915 1.18327,-1.45555 1.54336,-1.36138 0.55538,0.14523 0.53607,0.38013 -0.3321,4.04095 -2.54133,10.7161 -9.39758,19.9437 -18.29488,24.62245 -4.66494,2.45313 -9.62475,3.69336 -14.86137,3.71618 -3.82248,0.0167 -5.855,-0.21413 -8.6452,-0.98165 -1.26317,-0.34747 -2.51333,-0.67338 -2.77812,-0.72426 -0.2648,-0.0509 -1.047,-0.34904 -1.73822,-0.6626 -0.69123,-0.31357 -1.82232,-0.82759 -2.51355,-1.14227 -0.69122,-0.31468 -1.4056,-0.54759 -1.5875,-0.51757 -0.1819,0.03 -0.33073,-0.0489 -0.33073,-0.17542 0,-0.1265 -0.92273,-0.80927 -2.05052,-1.51726 -2.17549,-1.3657 -3.8837,-2.63628 -5.29166,-3.93597 -0.47295,-0.43658 -0.8599,-0.72135 -0.8599,-0.63285 0,0.0885 -0.65111,-0.51321 -1.44691,-1.33716 l -1.44692,-1.49808 -18.46368,18.45469 c -10.15503,10.15007 -18.52322,18.45468 -18.59599,18.45468 -0.0728,0 -8.45972,-8.32806 -18.63769,-18.50681 z m 22.0799,5.14907 -3.44079,-3.4408 -3.5032,3.50319 -3.50319,3.5032 3.43336,3.441 3.43337,3.44101 3.51062,-3.5034 3.51063,-3.50341 z m -5.58448,6.93632 c -3.34128,-2.23212 -1.77571,-7.33887 2.24896,-7.33592 1.52997,10e-4 2.7715,0.62081 3.51396,1.75395 0.64101,0.97831 0.64101,3.44931 0,4.42762 -1.1651,1.77817 -3.98393,2.3428 -5.76292,1.15435 z m -0.10175,-12.8896 c -0.86595,-0.87508 -1.6557,-1.59106 -1.755,-1.59106 -0.18708,0 0.68615,4.32307 0.96405,4.77274 0.0865,0.13989 0.0208,0.25434 -0.14598,0.25434 -0.16675,0 -0.43701,-0.35455 -0.60058,-0.78789 -0.22269,-0.58997 -0.58914,-0.8873 -1.45881,-1.18362 -1.3275,-0.45233 -1.30251,-0.3684 0.44779,1.50363 1.51275,1.61797 0.81548,1.35075 -0.96447,-0.36962 -1.46818,-1.41903 -2.17846,-2.43082 -1.34473,-1.91554 0.16784,0.10373 0.7828,0.22482 1.36658,0.26909 0.58378,0.0443 1.14582,0.21706 1.249,0.38399 0.10317,0.16694 0.13069,-0.5722 0.0612,-1.64253 l -0.12643,-1.94605 -6.38665,-6.41614 c -4.44462,-4.46515 -6.56213,-6.41615 -6.96373,-6.41615 -0.60894,0 -2.44241,1.26929 -4.15443,2.87607 -0.83808,0.78657 -0.9578,0.84067 -0.66146,0.29893 0.6491,-1.1866 2.69937,-3.29817 3.59664,-3.70417 l 0.87712,-0.39687 -11.84555,-11.73006 c -6.515051,-6.45154 -12.053671,-11.92842 -12.308041,-12.17084 -0.25437,-0.24242 -2.80327,-2.85179 -5.66421,-5.79858 -2.86095,-2.9468 -5.29019,-5.35782 -5.39831,-5.35782 -0.19822,0 0.6559,4.3001 0.94801,4.77274 0.0865,0.13989 0.0208,0.25435 -0.14599,0.25435 -0.16675,0 -0.43701,-0.35455 -0.60057,-0.78789 -0.22269,-0.58997 -0.58915,-0.8873 -1.45882,-1.18363 -1.3275,-0.45232 -1.30251,-0.36839 0.44779,1.50364 1.51276,1.61797 0.81549,1.35074 -0.96447,-0.36963 -1.46818,-1.41903 -2.17846,-2.43081 -1.34473,-1.91554 0.16785,0.10374 0.78281,0.22483 1.36658,0.26909 0.58378,0.0443 1.14583,0.21706 1.249,0.384 0.10317,0.16693 0.13071,-0.57221 0.0612,-1.64254 l -0.12638,-1.94605 -6.91034,-6.93963 c -4.33736,-4.35574 -7.00341,-6.84656 -7.1603,-6.68967 -0.15689,0.15689 -0.13156,0.96752 0.068,2.17713 0.1749,1.05995 0.37868,2.31413 0.45284,2.78707 0.17193,1.09652 -0.29734,1.13402 -0.5159,0.0412 l -0.16373,-0.81866 -1.79261,1.54626 c -0.98594,0.85045 -2.14753,1.80868 -2.58132,2.12939 l -0.78871,0.58313 32.80753,32.82012 32.807531,32.82013 3.56792,-3.56792 3.56791,-3.56791 z m -11.04988,0.50441 c -0.63463,-0.36964 -1.25677,-1.64455 -1.25677,-2.57542 0,-0.48786 0.26674,-1.03755 0.72667,-1.49748 0.6426,-0.6426 0.86452,-0.70877 1.91823,-0.57202 0.65536,0.0851 1.48922,0.22737 1.85302,0.31624 0.65606,0.16028 0.65714,0.15763 0.13229,-0.32395 -1.15578,-1.06051 -2.06572,-2.20534 -1.75286,-2.20534 0.45743,0 4.93531,4.44638 4.7074,4.67428 -0.10139,0.10139 -0.58381,-0.20284 -1.07205,-0.67606 -0.78445,-0.76032 -1.10324,-0.87691 -2.74048,-1.00228 -1.48079,-0.11338 -1.99295,-0.05 -2.55101,0.31565 -1.23663,0.81026 -1.15031,2.27042 0.19882,3.36325 0.62704,0.50792 0.54751,0.59712 -0.16326,0.18313 z m -2.84427,-7.23513 c 0,-0.0954 0.25875,-0.52341 0.57499,-0.95115 0.5584,-0.75527 0.56103,-0.79314 0.0913,-1.3122 -0.26604,-0.29397 -0.35322,-0.53449 -0.19373,-0.53449 0.15948,0 0.36356,0.11906 0.45349,0.26458 0.0899,0.14552 0.38074,0.26459 0.64622,0.26459 0.72176,0 0.84429,0.90959 0.17808,1.32194 -0.30784,0.19054 -0.8276,0.52052 -1.15503,0.7333 -0.32742,0.21278 -0.59531,0.30882 -0.59531,0.21343 z m 2.30682,-2.47478 c -1.71498,-1.73308 -2.09048,-2.57687 -0.43257,-0.97207 1.00321,0.97108 2.24999,2.50109 2.03809,2.50109 -0.0508,0 -0.77333,-0.68806 -1.60552,-1.52902 z m -7.54702,-0.36985 c 0.62654,-0.75334 1.70214,-1.97373 2.39022,-2.71198 1.09108,-1.17062 1.2518,-1.26506 1.25677,-0.73846 0.004,0.40781 -0.68417,1.28815 -2.11953,2.71198 -2.40968,2.39033 -3.23188,2.78782 -1.52746,0.73846 z m -6.13688,-3.65393 c -0.27921,-0.17802 -0.12233,-0.21433 0.52916,-0.12248 0.54706,0.0771 1.10183,-0.009 1.35558,-0.21061 0.67084,-0.53285 1.55276,-2.12011 1.55385,-2.79661 5.3e-4,-0.33698 0.11755,-0.8305 0.26002,-1.09669 0.18926,-0.35364 0.15047,-0.57408 -0.14402,-0.81849 -0.33351,-0.27678 -0.4681,-0.24162 -0.7801,0.20383 -0.20738,0.29607 -0.61332,0.6001 -0.90209,0.67562 -0.49164,0.12857 -0.49956,0.0984 -0.12451,-0.47398 0.22028,-0.3362 0.59501,-0.68591 0.83273,-0.77712 0.36726,-0.14093 0.32511,-0.26516 -0.28046,-0.82668 -0.93096,-0.86324 -0.92027,-1.3531 0.0149,-0.68418 0.81166,0.58055 4.29948,4.13749 4.29948,4.38468 0,0.39219 -0.58561,0.0901 -1.23232,-0.63574 -0.38898,-0.43656 -0.7931,-0.79375 -0.89804,-0.79375 -0.10494,0 -0.27073,0.53301 -0.36842,1.18446 -0.0977,0.65145 -0.28981,1.25379 -0.42692,1.33853 -0.13712,0.0847 -0.2493,0.38812 -0.2493,0.67418 0,0.86774 -2.43396,1.41618 -3.43958,0.77503 z m -1.2062,-0.65649 c -0.28248,-0.21365 -0.37934,-0.39225 -0.21526,-0.39688 0.16408,-0.005 0.44655,0.17018 0.62771,0.38846 0.41825,0.50397 0.24733,0.50745 -0.41245,0.008 z m -9.382121,-10.45946 c 0.36249,-0.6907 3.27366,-3.59399 3.80184,-3.79153 0.19987,-0.0748 0.13835,-0.28344 -0.17939,-0.60851 -0.47137,-0.48227 -0.50475,-0.47104 -1.32292,0.44513 -0.93119,1.04273 -2.51919,2.23096 -2.71708,2.03307 -0.0701,-0.0701 0.60183,-0.8682 1.4932,-1.77352 l 1.62068,-1.64604 -0.59706,-0.63555 c -0.73902,-0.78664 -0.49921,-1.12671 0.33501,-0.47507 1.0361,0.80931 3.715281,3.83522 3.545811,4.0047 -0.0879,0.0879 -0.50082,-0.16694 -0.91763,-0.56627 l -0.75783,-0.72605 -0.562321,0.71488 c -0.30928,0.39318 -0.56233,0.80612 -0.56233,0.91764 0,0.11152 -0.38695,0.44761 -0.85989,0.74685 -0.47294,0.29925 -1.26655,0.87656 -1.76356,1.28291 l -0.90366,0.73882 z m -5.43431,-5.49415 c -1.289,-0.89513 -1.53768,-2.89876 -0.48984,-3.9466 0.63861,-0.63861 0.80256,-0.67452 2.39894,-0.52545 l 1.71348,0.16001 -1.13478,-1.35537 c -1.62002,-1.93493 -0.4683,-1.16287 2.01924,1.35363 1.3968,1.41304 1.95318,2.13502 1.64535,2.13502 -0.25582,0 -0.53534,-0.183 -0.62117,-0.40667 -0.40486,-1.05503 -3.76501,-1.74872 -5.1076,-1.05444 -1.46158,0.75581 -1.68496,1.79756 -0.64935,3.0283 0.688,0.81765 0.74505,0.9722 0.22573,0.61157 z m -1.04189,-9.12408 -0.73066,-1.12448 0.96009,0.9118 c 0.94333,0.89588 1.18445,1.33716 0.73066,1.33716 -0.12618,0 -0.55822,-0.50601 -0.96009,-1.12448 z m 1.82041,0.47804 c -0.68801,-0.48191 -2.06088,-2.26398 -1.74411,-2.26398 0.13015,0 0.73861,0.59532 1.35213,1.32292 1.19364,1.41558 1.24479,1.53839 0.39198,0.94106 z m -20.21006,-10.19803 c -0.27921,-0.17802 -0.12233,-0.21433 0.52917,-0.12248 0.54705,0.0771 1.10182,-0.009 1.35557,-0.21061 0.67084,-0.53285 1.55276,-2.12011 1.55385,-2.7966 5.3e-4,-0.33699 0.11755,-0.83051 0.26002,-1.0967 0.18926,-0.35364 0.15047,-0.57408 -0.14402,-0.81849 -0.33351,-0.27678 -0.46809,-0.24162 -0.7801,0.20383 -0.20738,0.29608 -0.61332,0.60011 -0.90209,0.67562 -0.49164,0.12857 -0.49956,0.0984 -0.12451,-0.47398 0.22029,-0.3362 0.59502,-0.68591 0.83273,-0.77712 0.36726,-0.14093 0.32511,-0.26516 -0.28045,-0.82668 -0.93097,-0.86324 -0.92028,-1.3531 0.0149,-0.68418 0.81166,0.58055 4.29948,4.13749 4.29948,4.38468 0,0.39219 -0.58561,0.0901 -1.23231,-0.63574 -0.38898,-0.43656 -0.7931,-0.79375 -0.89805,-0.79375 -0.10494,0 -0.27073,0.53301 -0.36842,1.18446 -0.0977,0.65145 -0.28981,1.25379 -0.42692,1.33853 -0.13711,0.0847 -0.2493,0.38812 -0.2493,0.67418 0,0.86774 -2.43396,1.41618 -3.43958,0.77503 z m -1.2062,-0.65649 c -0.28248,-0.21365 -0.37934,-0.39225 -0.21526,-0.39688 0.16408,-0.005 0.44655,0.17018 0.62771,0.38846 0.41825,0.50397 0.24733,0.50745 -0.41245,0.008 z m -1.43963,-7.15965 c 0,-0.0955 0.23994,-0.47868 0.53322,-0.85151 0.49974,-0.63533 0.50547,-0.70854 0.0913,-1.16621 -0.53994,-0.59663 -0.42004,-0.60976 0.65776,-0.0721 1.10584,0.55166 1.05219,0.9514 -0.22393,1.66862 -0.58208,0.32715 -1.05833,0.51668 -1.05833,0.42118 z m 2.03943,-2.41211 c -0.84284,-0.81559 -1.46614,-1.54919 -1.3851,-1.63023 0.17455,-0.17454 1.8155,1.36038 2.56169,2.39618 0.2883,0.40018 0.4863,0.7252 0.44001,0.72227 -0.0463,-0.003 -0.77376,-0.67263 -1.6166,-1.48822 z m 72.302751,66.45469 0.89181,-0.92012 -2.34517,-2.25712 -2.34517,-2.25713 -1.73589,0.15092 c -2.1657,0.18829 -1.65686,-0.22339 0.77766,-0.62915 3.40276,-0.56715 3.70416,-0.59612 3.70416,-0.35609 0,0.13392 -0.36556,0.31661 -0.81235,0.40596 l -0.81236,0.16248 1.92618,2.2621 1.92618,2.26211 32.48571,-32.4849 32.4857,-32.48491 -2.14093,-2.15211 -2.14093,-2.15211 -0.79422,0.39621 c -0.7005,0.34946 -1.75569,2.0482 -1.45749,2.3464 0.0588,0.0588 0.64959,-0.37079 1.31287,-0.95464 1.86791,-1.6442 1.82882,-1.25341 -0.0659,0.65825 -0.93748,0.94589 -1.81182,1.7198 -1.94299,1.7198 -0.13116,0 -0.0821,-0.18838 0.10895,-0.41862 0.19108,-0.23025 0.3199,-0.88509 0.28626,-1.45521 -0.0343,-0.58077 0.0599,-1.03659 0.21414,-1.03659 0.15142,0 0.2753,-0.12609 0.2753,-0.2802 0,-0.15411 -0.11839,-0.20703 -0.2631,-0.11759 -0.14471,0.0894 -1.13926,0.1626 -2.21012,0.1626 h -1.94701 l -5.99197,6.02848 c -5.79924,5.83459 -5.99197,6.06235 -5.99197,7.08143 0,0.82091 0.20408,1.29136 0.92605,2.13482 0.50932,0.59503 0.92604,1.17699 0.92604,1.29324 0,0.11625 0.44648,0.68219 0.99219,1.25763 l 0.99218,1.04627 -0.92604,-0.62592 c -1.20577,-0.81498 -3.01636,-2.60299 -3.42072,-3.37805 -0.18504,-0.35468 -0.24593,-0.96492 -0.1452,-1.45521 0.14273,-0.69471 -3.06748,2.39162 -18.11078,17.41188 -20.17355,20.14263 -19.17514,18.93616 -14.8795,17.98047 1.10914,-0.24676 2.16803,-0.50676 2.35308,-0.57777 0.18505,-0.071 0.33645,5.3e-4 0.33645,0.15874 0,0.15832 -0.31161,0.36606 -0.69246,0.46165 -0.48818,0.12253 -0.84309,0.51429 -1.20301,1.32796 -0.2808,0.63478 -0.55661,1.15416 -0.61293,1.15416 -0.12753,0 0.10752,-1.34169 0.2855,-1.62967 0.0719,-0.11634 -0.69106,-0.19635 -1.69549,-0.17781 -1.00442,0.0185 -1.9402,-0.0367 -2.07952,-0.12282 -0.13931,-0.0861 -3.45917,3.05099 -7.37746,6.9713 l -7.12418,7.12785 3.43294,3.44057 c 1.88811,1.89232 3.50059,3.44058 3.58329,3.44058 0.0827,0 0.55167,-0.41406 1.04217,-0.92012 z m -2.90713,-2.26297 c -2.00573,-1.86204 -2.17264,-2.08679 -1.55729,-2.09707 0.4968,-0.008 1.05786,0.37826 2.00956,1.38454 1.25545,1.32746 2.07993,2.51239 1.88427,2.70805 -0.0495,0.0495 -1.10096,-0.84847 -2.33654,-1.99552 z m 4.03506,-6.46107 c -0.72727,-0.61196 -0.79697,-0.62309 -1.24265,-0.19844 -0.36482,0.34762 -0.43491,0.35967 -0.30831,0.053 0.0901,-0.21828 0.23446,-0.59422 0.32077,-0.83543 0.0863,-0.24121 0.39581,-0.50103 0.6878,-0.57739 0.29198,-0.0763 0.46288,-0.0708 0.37979,0.0122 -0.0831,0.0831 0.14325,0.50089 0.50299,0.92842 1.08038,1.28395 0.88115,1.64542 -0.34039,0.61757 z m -3.23886,-0.38752 c 0,-0.28992 2.29258,-2.3429 3.04271,-2.72471 0.29104,-0.14814 -0.18148,0.45879 -1.05005,1.34873 -1.5262,1.56375 -1.99266,1.88585 -1.99266,1.37598 z m 11.37998,-1.14697 c 1.16964,-1.91835 0.23242,-3.33332 -2.64873,-3.99894 -1.92609,-0.44498 -2.6524,-0.19827 -1.68878,0.57364 0.3081,0.24681 0.62878,0.73344 0.71261,1.08141 0.14217,0.59014 0.0916,0.57372 -0.75214,-0.24406 l -0.90457,-0.87674 -0.6553,0.70709 c -0.85361,0.92106 -1.12734,0.90868 -0.4537,-0.0205 0.8799,-1.21372 4.24367,-4.41504 4.43649,-4.22222 0.0992,0.0992 -0.23806,0.57516 -0.74959,1.05759 l -0.93003,0.87714 1.72911,0.49519 c 2.17611,0.62321 2.69578,1.12197 2.69449,2.58605 -7.9e-4,0.97961 -0.77567,2.84428 -1.18185,2.84428 -0.0728,0 0.10363,-0.38696 0.39199,-0.8599 z m 0.48122,-6.98525 c 0.14641,-0.26908 0.66293,-0.8501 1.14781,-1.29116 1.85931,-1.69128 2.13895,-1.78375 0.77531,-0.2564 -1.53386,1.71801 -2.39132,2.40802 -1.92312,1.54756 z m 9.47465,-12.26521 c 0.45685,-0.47043 0.97688,-0.80658 1.15561,-0.747 0.17874,0.0596 -0.19504,0.44447 -0.83063,0.85532 l -1.15562,0.74701 z m -1.75668,0.36238 c 0,-0.10207 0.65704,-0.79706 1.46011,-1.54444 0.80306,-0.74737 1.39845,-1.23318 1.32308,-1.07958 -0.0754,0.15361 -0.2059,0.45788 -0.29009,0.67616 -0.16687,0.43268 -2.4931,2.25016 -2.4931,1.94786 z m 7.14375,-0.62494 c -0.58173,-0.58173 -0.69542,-1.93736 -0.28306,-3.37518 0.24764,-0.86346 -0.0311,-1.18277 -0.4314,-0.49413 -0.32915,0.56629 -1.93576,1.83646 -2.10669,1.66552 -0.0841,-0.0841 0.93293,-1.25342 2.26013,-2.59842 1.32721,-1.34501 2.4131,-2.27977 2.4131,-2.07725 0,0.20251 -0.29993,0.68127 -0.66651,1.0639 -0.45392,0.47379 -0.75811,1.21574 -0.95372,2.32622 -0.25448,1.44473 -0.22855,1.744 0.22759,2.62609 0.43348,0.83829 0.66712,1.00848 1.47916,1.07744 0.74497,0.0633 1.1157,-0.0694 1.62955,-0.58329 0.36585,-0.36585 0.66518,-0.56017 0.66518,-0.43183 0,0.12835 -0.31371,0.48012 -0.69714,0.78173 -0.93912,0.73871 -2.80654,0.74885 -3.53619,0.0192 z m -7.04476,-1.06581 c 0.88413,-1.06795 1.56137,-1.54859 1.32908,-0.94326 -0.0831,0.2166 -0.58727,0.72412 -1.12033,1.12782 l -0.9692,0.734 z m 14.19231,-4.88273 c -0.1849,-0.2228 -0.64487,-0.55309 -1.02215,-0.734 -0.37728,-0.18091 -0.80854,-0.56704 -0.95836,-0.85809 -0.63505,-1.23364 -0.69198,-1.2614 -1.33958,-0.653 -0.33805,0.31758 -0.75831,0.52953 -0.93392,0.47099 -0.1756,-0.0585 0.59437,-0.99403 1.71105,-2.07887 1.98636,-1.92974 3.38299,-2.93416 1.94537,-1.39907 l -0.72608,0.77531 1.25525,1.18629 c 1.78538,1.6873 3.11606,3.41815 2.62788,3.41815 -0.2154,0 -1.28063,-0.94502 -2.36719,-2.10005 -1.47591,-1.5689 -2.05167,-2.02394 -2.27645,-1.79916 -0.44596,0.44596 -0.3719,0.72447 0.34196,1.28599 0.8117,0.63848 2.3731,2.59589 2.20489,2.7641 -0.0696,0.0696 -0.27777,-0.0558 -0.46267,-0.27859 z m 12.43161,-9.25861 c 0,-0.0692 0.23768,-0.51573 0.52818,-0.99219 0.6215,-1.01934 0.70833,-0.78768 0.12649,0.33748 -0.36298,0.70192 -0.65467,0.99363 -0.65467,0.65471 z m 0.84764,-2.75076 c -0.44555,-1.01675 -1.37632,-1.60737 -3.20181,-2.03172 -1.0781,-0.25061 -1.5709,-0.26475 -1.82678,-0.0524 -0.28751,0.23861 -0.27617,0.33234 0.0632,0.52227 0.22748,0.1273 0.60848,0.61249 0.84667,1.0782 l 0.43306,0.84675 -0.62718,-0.52917 c -0.34495,-0.29104 -0.77219,-0.70776 -0.94942,-0.92604 -0.27926,-0.34394 -0.41575,-0.29751 -1.02329,0.34805 -0.75126,0.79829 -1.1258,0.8012 -0.68746,0.005 0.51392,-0.93307 4.21899,-4.38432 4.57577,-4.26229 0.24239,0.0829 0.039,0.40765 -0.62615,0.99994 l -0.98513,0.87716 1.96738,0.6511 c 1.77842,0.58856 1.99566,0.73676 2.26172,1.54293 0.40166,1.21704 0.22731,1.95199 -0.22058,0.92987 z m 3.90901,-4.61766 c -0.65562,-0.60755 -1.84525,-1.66496 -2.64361,-2.34978 -1.34122,-1.15048 -1.39941,-1.24603 -0.76536,-1.25677 0.48958,-0.008 1.14887,0.43967 2.30082,1.56337 2.51548,2.45379 3.4898,4.25021 1.10815,2.04318 z m 1.74844,-6.02878 c -0.68059,-0.53535 -0.73144,-0.53913 -1.22631,-0.0913 -0.28395,0.25698 -0.51628,0.34429 -0.51628,0.19403 0,-0.15025 0.17729,-0.42032 0.39397,-0.60015 0.21667,-0.17983 0.33642,-0.42005 0.2661,-0.53384 -0.11363,-0.18386 0.66622,-0.64627 0.78758,-0.46699 0.0269,0.0398 0.38123,0.51886 0.78729,1.06456 0.81762,1.0988 0.59854,1.29178 -0.49235,0.43368 z m -3.33009,-0.21407 c 0,-0.31548 2.93211,-2.93158 3.28568,-2.93158 0.1483,0 -0.43728,0.71437 -1.3013,1.5875 -1.52252,1.53857 -1.98438,1.8514 -1.98438,1.34408 z m 7.528,-1.51501 c -0.70614,-0.76194 -0.81288,-1.66077 -0.35365,-2.9781 0.16234,-0.4657 0.24643,-0.89548 0.18686,-0.95505 -0.0596,-0.0596 -0.62667,0.36552 -1.26023,0.94464 -2.16993,1.98351 -1.44885,0.75984 0.98855,-1.67755 1.33951,-1.33952 2.43548,-2.2921 2.43548,-2.11685 0,0.17525 -0.21194,0.53164 -0.47098,0.79197 -0.95564,0.96042 -1.12256,1.36171 -1.27682,3.06959 -0.13625,1.50844 -0.0814,1.85213 0.40463,2.53468 0.37641,0.52862 0.84436,0.82472 1.41573,0.89584 0.72337,0.09 0.68012,0.11269 -0.28364,0.14858 -0.921,0.0343 -1.26042,-0.0907 -1.78593,-0.65775 z m 3.5707,-0.21126 c 0.34937,-0.37188 0.675,-0.67615 0.72363,-0.67615 0.23846,0 -0.61803,1.06803 -0.96249,1.20021 -0.21799,0.0837 -0.1105,-0.15218 0.23886,-0.52406 z m -33.1914,20.22594 33.6013,-33.60209 -33.7336,-33.734371 c -18.55347,-18.55391 -33.85343,-33.734378 -33.9999,-33.734378 -0.34586,0 -67.335521,66.993469 -67.335521,67.339349 0,0.43831 50.583721,50.78401 51.792191,51.54849 0.61847,0.39124 1.12448,0.84717 1.12448,1.01318 0,0.16985 -0.26031,0.0869 -0.59531,-0.1897 -0.32742,-0.27034 2.85673,2.98542 7.07589,7.23504 4.21917,4.24961 7.85075,7.72656 8.07019,7.72656 0.21943,0 15.51956,-15.12093 34.00028,-33.60208 z m -46.0204,13.4276 0.16809,-5.88698 -14.24781,-14.21751 -14.247801,-14.21751 -5.42396,0.25487 c -2.98318,0.14018 -5.63232,0.25751 -5.88698,0.26074 -0.4349,0.006 -0.46302,-0.80014 -0.46302,-13.26301 v -13.26887 l 5.91542,0.14447 5.91543,0.14446 14.234521,-14.236341 14.23451,-14.23635 -0.18509,-5.84446 -0.18509,-5.84445 h 12.1375 12.1375 l -0.12379,5.58547 -0.1238,5.58547 14.48237,14.48417 14.48238,14.484171 5.66199,-0.13071 5.66198,-0.1307 v 13.28657 13.28657 l -3.37343,-0.15673 c -1.85539,-0.0862 -4.445,-0.21786 -5.75469,-0.29257 l -2.38125,-0.13585 -14.38923,14.39784 -14.38924,14.39784 0.12177,5.71819 0.12177,5.71819 h -12.13407 -12.13407 z m 22.73888,-0.52916 c -0.10255,-3.02885 -0.0563,-7.94555 0.10644,-11.31094 0.62157,-12.85504 2.13707,-19.22365 5.22036,-21.93767 3.10405,-2.7323 7.61989,-3.15767 21.3943,-2.01526 2.61937,0.21724 6.69726,0.47523 9.06198,0.57332 l 4.29948,0.17833 V 113.6182 101.49939 l -4.0349,0.18264 c -2.21919,0.10045 -7.07099,0.41561 -10.78177,0.70036 -12.97067,0.99532 -16.92826,0.54918 -20.05341,-2.26059 -3.00349,-2.700401 -4.48807,-9.046671 -5.10604,-21.827261 -0.16272,-3.36539 -0.20899,-8.2821 -0.10644,-11.31094 l 0.18142,-5.35781 h -10.87339 -10.87339 l -0.001,8.53281 c -0.003,20.36252 -1.88827,28.79255 -6.99998,31.293481 -3.15689,1.54452 -7.27467,1.75005 -18.340031,0.91539 -3.88872,-0.29332 -8.7968,-0.56122 -10.90685,-0.59531 l -3.83646,-0.062 -0.0689,12.01388 -0.0689,12.01387 4.3022,-0.17604 c 2.36622,-0.0968 6.62393,-0.37335 9.46158,-0.61449 6.571401,-0.55844 14.676671,-0.61691 16.668751,-0.12024 1.93374,0.48213 4.36155,1.78101 5.21521,2.79015 3.1962,3.77829 4.57118,12.63467 4.5733,29.45694 l 0.001,8.53281 h 10.87339 10.87339 z m -14.39189,-33.42496 c -10.23677,-2.75302 -13.42513,-15.83665 -5.67003,-23.26734 4.87524,-4.671301 13.30851,-4.729541 18.43258,-0.12729 2.92564,2.6277 4.40565,6.04302 4.40565,10.16662 0,4.10736 -1.13697,6.90526 -3.93976,9.69514 -2.72834,2.71577 -5.7867,3.95679 -9.68629,3.9305 -1.16416,-0.008 -2.75813,-0.18679 -3.54215,-0.39763 z m 5.52653,-0.65718 c 6.70952,-1.08308 11.66666,-7.73603 10.6514,-14.29518 -0.69525,-4.4917 -4.11979,-8.69742 -8.27597,-10.1638 -6.76475,-2.386751 -14.28035,1.41422 -16.40784,8.29815 -2.4075,7.78998 3.40082,15.78878 11.91574,16.40951 0.21828,0.0159 1.17078,-0.096 2.11667,-0.24868 z m -2.53249,-2.47446 c -0.0554,-0.15765 -0.37394,-1.53679 -0.70779,-3.06476 l -0.607,-2.77813 -1.91282,-0.0777 c -2.46423,-0.10014 -2.49977,-0.58372 -0.0429,-0.58372 1.6586,0 1.85385,-0.0523 1.72782,-0.46302 -0.26023,-0.84802 -1.74596,-7.83774 -1.72627,-8.12134 0.018,-0.25874 0.47869,1.35145 1.86952,6.53384 0.49175,1.8323 0.61763,2.05052 1.18279,2.05052 h 0.63247 v -6.87916 c 0,-4.40973 0.095,-6.87917 0.26459,-6.87917 0.1696,0 0.26458,2.46944 0.26458,6.87917 0,6.51833 0.0257,6.87916 0.48977,6.87916 0.41093,0 0.67299,-0.70342 1.62787,-4.36935 0.62595,-2.40315 1.18404,-4.32341 1.24019,-4.26726 0.0562,0.0562 -0.31919,1.98268 -0.83411,4.28117 -0.51492,2.29848 -0.93622,4.21875 -0.93622,4.26725 0,0.0485 0.89297,0.0882 1.98437,0.0882 1.14653,0 1.98438,0.11171 1.98438,0.26459 0,0.15386 -0.86693,0.26458 -2.07161,0.26458 h -2.07161 l -0.45942,2.18281 c -0.75891,3.60572 -0.91834,4.079 -1.37404,4.079 -0.23307,0 -0.46913,-0.12899 -0.52456,-0.28664 z m 1.22529,-3.90081 c 0.27741,-1.06814 0.50642,-1.97184 0.50891,-2.00822 0.002,-0.0364 -0.54415,-0.0661 -1.21477,-0.0661 -1.19549,0 -1.21595,0.0142 -1.04718,0.7276 0.44168,1.86702 0.98778,3.54972 1.11177,3.42573 0.0753,-0.0753 0.36386,-1.01082 0.64127,-2.07896 z m -4.75733,-12.01829 c 0.0127,-0.30823 0.0754,-0.37092 0.15985,-0.15985 0.0764,0.19099 0.067,0.4192 -0.0209,0.50712 -0.0879,0.0879 -0.15046,-0.0683 -0.13897,-0.34727 z m 7.9375,0 c 0.0127,-0.30823 0.0754,-0.37092 0.15985,-0.15985 0.0764,0.19099 0.067,0.4192 -0.0209,0.50712 -0.0879,0.0879 -0.15046,-0.0683 -0.13897,-0.34727 z m 35.1687,18.65937 c 0,-0.24778 -8.59879,-0.78441 -12.51548,-0.78107 -8.5965,0.007 -11.18987,1.97714 -12.8928,9.79271 -0.68785,3.15684 -1.27297,8.63353 -1.46993,13.75833 l -0.16778,4.36563 13.52299,-13.49278 c 7.43765,-7.42103 13.523,-13.5603 13.523,-13.64282 z m -50.80256,26.01112 c -0.0108,-1.96227 -0.60605,-10.03655 -0.92294,-12.52034 -1.01012,-7.91725 -2.70724,-11.56531 -6.10371,-13.12026 -1.94188,-0.88902 -3.69023,-1.14825 -7.75743,-1.15018 -3.42336,-0.002 -11.667771,0.49092 -11.924761,0.71243 -0.14902,0.12844 26.234651,26.54137 26.511971,26.54137 0.10968,0 0.19827,-0.20836 0.19687,-0.46302 z m -9.52245,-51.1798 c 3.03582,-0.57988 5.16891,-2.127581 6.32654,-4.590331 0.84454,-1.79669 1.8024,-5.70447 2.26108,-9.22457 0.38752,-2.97397 1.05782,-13.0913 0.87917,-13.26995 -0.0534,-0.0534 -6.14666,5.95335 -13.54058,13.34832 l -13.443471,13.445421 4.59144,0.30924 c 2.525301,0.17008 5.186761,0.34693 5.914371,0.39299 1.86438,0.11802 5.29405,-0.0831 7.01145,-0.41112 z m 55.62865,0.009 c 2.72852,-0.17345 4.96094,-0.3847 4.96094,-0.46948 0,-0.0848 -6.13172,-6.284981 -13.62604,-13.778241 l -13.62604,-13.62412 5.3e-4,2.248 c 0.002,5.15939 0.90727,13.62301 1.86019,17.38124 1.46323,5.77088 3.90753,7.969131 9.48187,8.527401 2.39035,0.23939 2.917,0.22569 10.94844,-0.28481 z M 66.868909,174.40414 c -0.0116,-0.46907 -2.84782,-5.40065 -2.98155,-5.18426 -0.25532,0.41311 -1.77605,4.3268 -1.77605,4.57075 0,0.12794 0.8632,0.34701 1.91823,0.48681 2.6029,0.34492 2.84502,0.35572 2.83937,0.1267 z m 4.21273,0.0271 c 1.14535,-0.11971 1.60168,-0.27026 1.51375,-0.49939 -0.0692,-0.18041 -0.93608,-1.37764 -1.92633,-2.66052 l -1.80046,-2.33251 -0.16936,1.04596 c -0.0932,0.57528 -0.24764,1.84963 -0.34331,2.8319 -0.19938,2.0471 -0.38134,1.93931 2.72571,1.61456 z m 127.590191,-1.5431 c -0.0532,-0.8702 -0.17355,-2.11883 -0.26737,-2.77473 l -0.17059,-1.19255 -1.76679,2.26264 c -0.97174,1.24445 -1.80393,2.43355 -1.8493,2.64244 -0.0887,0.4083 1.48087,0.73769 3.22478,0.67675 l 0.92605,-0.0324 z m 5.3223,1.28331 c 0.5457,-0.0795 0.99219,-0.25583 0.99219,-0.39188 0,-0.29263 -1.60637,-4.24969 -1.83832,-4.52844 -0.14907,-0.17914 -2.68223,4.25737 -2.88288,5.049 -0.0913,0.36019 0.51675,0.3392 3.72901,-0.12868 z M 68.076939,171.38016 c 0.19306,-1.85048 0.19306,-2.68621 0,-2.75596 -0.1524,-0.0551 -1.00252,-0.0123 -1.88916,0.095 l -1.61208,0.19513 1.477,2.69272 c 0.81235,1.48099 1.53778,2.63336 1.61208,2.56082 0.0743,-0.0725 0.25976,-1.32702 0.41216,-2.78775 z m 132.961901,0.20981 1.47648,-2.73975 -1.73242,-0.16178 c -0.95283,-0.089 -1.8067,-0.0745 -1.89747,0.0321 -0.20271,0.23808 0.29226,5.61951 0.51631,5.6135 0.0883,-0.002 0.82503,-1.23719 1.6371,-2.74405 z m -127.208551,-1.04209 0.1192,-3.129 -0.69357,0.17835 c -0.38146,0.0981 -1.38315,0.3209 -2.22597,0.49513 -0.84283,0.17422 -1.53547,0.40684 -1.53921,0.51693 -0.0113,0.3326 4.09445,5.57582 4.15976,5.31219 0.0333,-0.13453 0.11423,-1.65266 0.17979,-3.3736 z m 2.94804,2.82198 c 0.88267,-0.24162 1.64371,-0.46899 1.69119,-0.50526 0.12001,-0.0917 -3.67276,-4.72352 -3.95681,-4.83217 -0.12681,-0.0485 -0.23188,0.78493 -0.23348,1.85208 -0.002,1.06715 -0.0767,2.38676 -0.16691,2.93247 -0.15009,0.90805 -0.11205,0.99218 0.44857,0.99218 0.33692,0 1.33476,-0.19769 2.21744,-0.4393 z m 116.103001,-2.14038 c -0.05,-1.41883 -0.11503,-2.79463 -0.14452,-3.05733 -0.0363,-0.32361 -0.71535,0.33441 -2.10559,2.04047 l -2.05198,2.51813 1.6551,0.52434 c 2.83921,0.89949 2.7524,0.96592 2.64699,-2.02561 z m 2.81233,0.0728 c 1.03638,-1.37881 1.88432,-2.60478 1.88432,-2.72438 0,-0.11961 -0.74414,-0.35433 -1.65364,-0.5216 -0.90951,-0.16727 -1.94035,-0.38885 -2.29077,-0.4924 -0.6312,-0.18653 -0.63552,-0.17499 -0.46532,1.24257 0.0945,0.78697 0.17283,2.23453 0.1741,3.2168 10e-4,0.98226 0.10685,1.78593 0.23464,1.78593 0.12779,0 1.08029,-1.12811 2.11667,-2.50692 z m 10.90017,-0.3853 c 0.44658,-1.4927 0.77359,-2.7466 0.7267,-2.78643 -0.0982,-0.0834 -3.47002,0.44126 -3.6332,0.56538 -0.0596,0.0453 0.34856,1.21301 0.90701,2.59483 0.55845,1.38183 1.05411,2.47367 1.10146,2.42632 0.0473,-0.0473 0.45146,-1.30739 0.89803,-2.8001 z m 3.48571,1.6436 c 0.54571,-0.21798 0.99219,-0.45945 0.99219,-0.53659 0,-0.3035 -2.99241,-3.77723 -3.13287,-3.63678 -0.14443,0.14443 -1.60403,4.83447 -1.62119,5.20929 -0.009,0.20009 2.16961,-0.39989 3.76187,-1.03592 z M 60.208539,171.62639 c -0.29649,-1.05503 -0.67882,-2.26517 -0.84961,-2.68922 l -0.31053,-0.77098 -1.51125,1.8207 c -0.83119,1.00138 -1.51126,1.89796 -1.51126,1.99239 0,0.17803 3.86375,1.54148 4.41139,1.55671 0.21561,0.006 0.14579,-0.5769 -0.22874,-1.9096 z m 2.42527,-0.67169 c 0.47748,-1.20618 0.82314,-2.22865 0.76813,-2.27216 -0.22706,-0.17963 -3.67188,-0.57826 -3.67188,-0.42491 0,0.17446 1.22389,4.3507 1.46545,5.0005 0.20767,0.55862 0.47444,0.13138 1.4383,-2.30343 z m 16.67542,-2.00399 v -3.53558 l -2.12926,0.85852 c -1.17109,0.47219 -2.14135,0.94642 -2.15614,1.05384 -0.0356,0.25847 3.83128,5.12583 4.08696,5.14439 0.10914,0.008 0.19844,-1.5766 0.19844,-3.52117 z m 111.000271,0.77686 c 0.93105,-1.17484 1.70284,-2.23942 1.71511,-2.36573 0.0184,-0.18959 -4.30361,-2.10707 -4.37268,-1.93996 -0.012,0.0291 0.0258,1.63508 0.0841,3.56881 0.1227,4.06936 -0.0323,4.02497 2.57345,0.73688 z m -108.216341,1.71698 c 0.94269,-0.42744 1.71398,-0.84733 1.71398,-0.93308 0,-0.0858 -0.8632,-1.23585 -1.91823,-2.55576 -2.18136,-2.72901 -1.97699,-2.89246 -2.10864,1.68651 -0.0561,1.95024 0.008,2.57984 0.26237,2.57969 0.1851,-1.1e-4 1.10783,-0.34993 2.05052,-0.77736 z m 105.166071,-2.53014 c 0,-1.81901 -0.036,-3.30729 -0.0801,-3.30729 -0.17767,0 -3.94598,4.79337 -3.8465,4.89285 0.15511,0.15511 3.49254,1.67885 3.72815,1.70213 0.10914,0.0108 0.19844,-1.46868 0.19844,-3.28769 z m -130.932851,1.65365 c 0.51795,-0.61847 1.25211,-1.49241 1.63148,-1.94211 l 0.68977,-0.81762 -2.10462,-0.80342 c -1.70156,-0.64955 -2.10462,-0.72673 -2.10462,-0.40299 0,0.94911 0.63894,5.09062 0.78537,5.09062 0.0885,0 0.58468,-0.50602 1.10262,-1.12448 z m 156.032861,-1.54865 c 0.18348,-1.47022 0.29627,-2.70499 0.25065,-2.74393 -0.0456,-0.0389 -0.99784,0.29045 -2.11604,0.73198 l -2.03309,0.80278 1.60566,1.94115 c 0.88311,1.06763 1.68521,1.94115 1.78244,1.94115 0.0972,0 0.32689,-1.20291 0.51038,-2.67313 z m 1.82889,1.62857 c 0.8326,-0.42899 1.85318,-1.0107 2.26797,-1.29271 l 0.75416,-0.51274 -1.94478,-1.44945 c -1.06963,-0.79719 -1.97274,-1.42776 -2.0069,-1.40125 -0.0342,0.0265 -0.18568,0.99259 -0.3367,2.14685 -0.15103,1.15425 -0.3337,2.36654 -0.40595,2.69396 -0.16629,0.75358 -0.144,0.75112 1.6722,-0.18466 z M 54.436389,170.43577 c -0.002,-0.84869 -0.509,-4.10493 -0.66263,-4.25856 -0.0576,-0.0576 -0.89552,0.45952 -1.86201,1.1492 -1.46479,1.04525 -1.69801,1.3121 -1.40125,1.60337 0.45146,0.4431 3.42858,2.23359 3.71389,2.23359 0.1177,0 0.2131,-0.32742 0.212,-0.7276 z m 33.66653,-2.41914 c 0.1071,-0.0988 -0.82786,-1.18735 -2.07769,-2.41904 -1.28402,-1.26538 -2.21007,-2.00927 -2.12907,-1.71026 0.0788,0.29104 0.27463,1.48166 0.43508,2.64583 0.16044,1.16417 0.35528,2.44199 0.43298,2.83961 l 0.14125,0.72294 1.50136,-0.94974 c 0.82574,-0.52236 1.58898,-1.03056 1.69609,-1.12934 z m -4.19591,-1.51931 c -0.25129,-1.72654 -0.47533,-3.16847 -0.49785,-3.20429 -0.0827,-0.13159 -3.0416,1.5662 -3.0416,1.74528 0,0.28242 3.75702,4.83748 3.88468,4.70982 0.0614,-0.0614 -0.0939,-1.52428 -0.34523,-3.25081 z m 98.831431,0.0427 0.47876,-3.09655 -2.08003,2.06782 c -1.14401,1.13731 -2.08002,2.15035 -2.08002,2.2512 0,0.2082 2.99144,2.08517 3.11937,1.95724 0.0457,-0.0457 0.2986,-1.47661 0.56192,-3.17971 z m 2.11611,0.94861 c 1.03153,-1.29353 1.87551,-2.41568 1.87551,-2.49367 0,-0.15127 -2.97051,-1.81183 -3.04443,-1.70189 -0.0553,0.0823 -0.93155,6.08091 -0.92739,6.34899 0.006,0.40833 0.2667,0.14086 2.09631,-2.15343 z m -133.286281,-0.58843 1.82481,-1.35278 -1.39201,-0.87769 c -0.76561,-0.48273 -1.43429,-0.83541 -1.48596,-0.78373 -0.17487,0.17487 -1.04753,4.36699 -0.90906,4.36699 0.0756,0 0.95857,-0.60875 1.96222,-1.35279 z m 165.545221,-0.81794 c -0.278,-1.19391 -0.53233,-2.19762 -0.56519,-2.23048 -0.0329,-0.0328 -0.68542,0.33477 -1.45015,0.81694 l -1.39041,0.87668 1.79085,1.34609 c 0.98497,0.74035 1.86499,1.34956 1.9556,1.3538 0.0906,0.004 -0.0627,-0.96913 -0.3407,-2.16303 z m -147.166641,1.49659 c 6.11382,-1.06616 13.49571,-4.68352 19.11208,-9.36552 l 1.67992,-1.40043 -5.38408,-5.45459 c -2.96125,-3.00002 -5.45582,-5.49022 -5.54349,-5.53378 -0.0877,-0.0436 -0.4201,0.54995 -0.73872,1.3189 -2.29639,5.54204 -7.08911,10.28537 -12.51392,12.38494 -3.6246,1.40283 -6.64219,1.91381 -11.19421,1.89554 -2.18281,-0.009 -4.62359,-0.12941 -5.42396,-0.26809 l -1.4552,-0.25216 1.05833,0.92432 c 3.42254,2.98915 7.94241,5.16645 12.2131,5.88324 2.13469,0.35829 5.70762,0.30054 8.19015,-0.13237 z m 137.639361,-0.37266 c 3.52236,-1.00623 7.35653,-3.07217 9.96781,-5.37088 l 1.05834,-0.93165 -1.45521,0.2507 c -0.80037,0.13789 -3.18162,0.26184 -5.29167,0.27545 -11.41418,0.0736 -19.35917,-4.56146 -23.63238,-13.78705 l -0.86284,-1.8628 -5.50903,5.51373 -5.50904,5.51372 1.68321,1.40318 c 5.51353,4.59625 12.82611,8.22052 18.90681,9.37062 2.89699,0.54793 8.04856,0.36643 10.644,-0.37502 z m 12.46627,-0.70149 c 0.88142,-0.81604 1.60259,-1.57547 1.60259,-1.68762 0,-0.11216 -0.74414,-0.39559 -1.65365,-0.62984 -0.90951,-0.23426 -1.92154,-0.50075 -2.24896,-0.59219 -0.4259,-0.11896 -0.59531,-0.0538 -0.59531,0.229 0,0.82116 0.86058,4.16436 1.07196,4.16436 0.12144,0 0.94195,-0.66767 1.82337,-1.48371 z M 49.555299,165.72511 c 0.24457,-1.0993 0.38929,-2.05412 0.32158,-2.12182 -0.0677,-0.0677 -1.1103,0.14114 -2.31689,0.46408 l -2.1938,0.58716 1.63273,1.53465 c 0.898,0.84405 1.74049,1.53465 1.87221,1.53465 0.13173,0 0.4396,-0.89943 0.68417,-1.99872 z m 38.48273,-1.58348 c -0.39806,-1.67917 -0.78729,-3.11657 -0.86494,-3.19422 -0.0777,-0.0776 -0.81347,0.30518 -1.63515,0.85074 l -1.49396,0.99194 2.19084,2.20228 c 1.20497,1.21126 2.26647,2.20229 2.35891,2.20229 0.0924,0 -0.15764,-1.37387 -0.5557,-3.05303 z m 2.80809,1.87428 c 0.79587,-0.64831 1.44857,-1.25081 1.45045,-1.33887 0.002,-0.0881 -1.03495,-1.01145 -2.30406,-2.05195 -1.90818,-1.56446 -2.27762,-1.77918 -2.135,-1.24082 0.0949,0.35806 0.43263,1.81187 0.75061,3.2307 0.31799,1.41883 0.62604,2.57969 0.68456,2.57969 0.0585,0 0.75757,-0.53044 1.55344,-1.17875 z m 90.005241,-1.01204 2.17941,-2.19079 -1.49887,-0.98708 c -0.82437,-0.5429 -1.54813,-0.93782 -1.60834,-0.87761 -0.29598,0.29598 -1.66052,6.24627 -1.43242,6.24627 0.0994,0 1.16155,-0.98586 2.36022,-2.19079 z m -2.35317,-0.65348 c 0.33193,-1.41883 0.66482,-2.79994 0.73975,-3.06913 0.0859,-0.30864 -0.70773,0.18006 -2.14835,1.32291 l -2.28457,1.81236 1.39846,1.25386 c 0.76915,0.68961 1.46432,1.25516 1.54482,1.25677 0.0805,0.002 0.41795,-1.15794 0.74989,-2.57677 z M 47.493079,163.61374 c 1.05503,-0.26941 1.91823,-0.56073 1.91823,-0.64739 0,-0.0866 -0.52307,-0.59478 -1.16238,-1.12918 l -1.16238,-0.97162 -0.64496,0.98174 c -1.67277,2.54624 -1.6744,2.54935 -1.2629,2.40003 0.21789,-0.0791 1.25936,-0.36417 2.31439,-0.63358 z m 173.582991,-1.03477 -1.08716,-1.70528 -1.1513,0.9434 c -0.63321,0.51887 -1.15129,1.02508 -1.15129,1.12491 0,0.14403 3.50302,1.22124 4.28898,1.31889 0.10336,0.0128 -0.30129,-0.74402 -0.89923,-1.68192 z m -129.080831,-1.83568 -0.84324,-3.06447 -0.69586,0.50526 c -0.38273,0.27789 -1.10139,0.84874 -1.59702,1.26856 l -0.90116,0.7633 2.32228,1.91389 c 1.27725,1.05265 2.37537,1.86081 2.44026,1.79592 0.0649,-0.0649 -0.26147,-1.497 -0.72526,-3.18246 z m 85.052081,1.15638 2.09122,-1.68467 -0.9006,-0.76283 c -0.49532,-0.41956 -1.22232,-0.99632 -1.61556,-1.2817 l -0.71498,-0.51886 -0.29992,1.1335 c -0.16496,0.62343 -0.52784,1.96455 -0.80638,2.98027 -0.27855,1.01573 -0.50645,1.95304 -0.50645,2.08292 0,0.27153 -0.0268,0.29047 2.75267,-1.94863 z m -131.247231,0.0127 c 0.57631,-0.8702 0.86157,-1.54189 0.71644,-1.68702 -0.36515,-0.36515 -7.5445,-4.87996 -7.63577,-4.80184 -0.0437,0.0374 0.51128,1.06828 1.23335,2.29077 1.61392,2.73242 4.26345,6.16123 4.53097,5.86362 0.10859,-0.12081 0.62835,-0.8703 1.15501,-1.66553 z m 48.06278,-2.5213 c -1.08498,-1.09227 -2.04906,-1.98594 -2.14241,-1.98594 -0.13688,0 0.98935,4.54126 1.5055,6.07055 0.092,0.27251 0.4845,0.0265 1.36928,-0.85832 l 1.24033,-1.24033 -1.9727,-1.98595 z m 130.526971,2.57812 c 2.18778,-2.72345 4.94245,-7.29122 4.09774,-6.79483 -1.5808,0.92894 -7.5619,4.73496 -7.81744,4.97456 -0.25176,0.23605 -0.0829,0.66939 0.76183,1.95475 0.5969,0.9083 1.18382,1.65146 1.30424,1.65146 0.12043,0 0.86456,-0.80368 1.65363,-1.78594 z M 174.5427,160.977 c 0.3115,-1.16417 0.63368,-2.35479 0.71596,-2.64583 0.0876,-0.31006 -0.62788,0.23393 -1.72811,1.31382 l -1.87771,1.84299 0.97734,1.00089 c 0.53754,0.55048 1.06032,0.91176 1.16175,0.80284 0.10142,-0.10892 0.43927,-1.15054 0.75077,-2.31471 z M 56.555059,160.70654 c 0,-0.23474 -2.11558,-4.35975 -2.23597,-4.35975 -0.23441,0 -2.23312,4.06593 -2.10256,4.27718 0.14563,0.23564 4.33853,0.31544 4.33853,0.0826 z m 4.6371,-0.39581 c 1.02244,-0.15818 2.00463,-0.37761 2.18265,-0.48763 0.22791,-0.14086 -0.16918,-0.87659 -1.34209,-2.48667 l -1.66575,-2.28662 -1.37679,2.76834 c -0.75723,1.52259 -1.37679,2.83183 -1.37679,2.90944 0,0.0776 0.38696,0.0803 0.8599,0.006 0.47294,-0.0744 1.69643,-0.2646 2.71887,-0.42278 z m 148.014051,0.071 c -0.007,-0.25466 -0.57294,-1.56181 -1.25677,-2.90477 l -1.24333,-2.44174 -1.67502,2.28063 c -1.24638,1.69701 -1.58668,2.33522 -1.32981,2.49398 0.18986,0.11734 1.18174,0.3451 2.20418,0.50613 1.02244,0.16103 2.03757,0.33207 2.25586,0.38009 0.8617,0.18958 1.0578,0.13058 1.04489,-0.31432 z m 5.64601,0.2985 c 0.16216,-0.16216 -0.67218,-1.97263 -1.65023,-3.58091 l -0.50099,-0.82381 -1.07922,2.14646 c -0.59357,1.18054 -1.07921,2.20862 -1.07921,2.28461 0,0.19702 4.11142,0.17188 4.30965,-0.0263 z M 50.859439,160.0287 c -0.8579,-2.70301 -1.41058,-4.02283 -1.54179,-3.68187 -0.85516,2.22209 -1.25638,3.50066 -1.13623,3.6208 0.17216,0.17217 1.69137,0.54711 2.3722,0.58545 0.37075,0.0209 0.44077,-0.0992 0.30582,-0.52438 z m 167.190681,0.28283 c 1.03366,-0.0141 0.9854,-0.75361 -0.25871,-3.9647 -0.13172,-0.33996 -1.66351,3.35714 -1.68545,4.06797 -0.004,0.12733 0.36493,0.1571 0.81968,0.0661 0.45475,-0.091 0.96077,-0.16719 1.12448,-0.16942 z M 58.514889,157.63918 c 0.68322,-1.47203 1.20538,-2.71324 1.16037,-2.75826 -0.045,-0.045 -0.79525,0.0859 -1.66718,0.29102 -0.87192,0.20508 -1.97227,0.37474 -2.44521,0.37701 -0.47294,0.002 -0.85989,0.0619 -0.85989,0.13253 0,0.29577 2.24882,4.6341 2.40214,4.6341 0.0922,0 0.72654,-1.20438 1.40977,-2.6764 z m 152.652311,0.57 c 0.52958,-1.15852 0.96247,-2.20032 0.962,-2.3151 -0.001,-0.22284 -4.54125,-1.17874 -4.72517,-0.99482 -0.15153,0.15153 2.39347,5.41632 2.61825,5.41632 0.10014,0 0.61535,-0.94788 1.14492,-2.1064 z M 52.811909,157.91713 c 0.6334,-1.17333 1.10965,-2.16986 1.05833,-2.21451 -0.17851,-0.15529 -3.92977,-0.34249 -3.92977,-0.19611 0,0.36894 1.44803,4.54446 1.5759,4.54423 0.0791,-1.5e-4 0.66213,-0.96027 1.29554,-2.13361 z m 163.629241,-0.0647 c 0.3938,-1.20921 0.716,-2.2549 0.716,-2.32375 0,-0.13527 -3.77535,0.0278 -3.93001,0.16974 -0.13074,0.11999 2.14372,4.35258 2.33893,4.35258 0.0875,0 0.48129,-0.98936 0.87508,-2.19857 z M 44.135449,155.70899 c -1.32353,-1.97752 -2.47226,-3.59549 -2.55275,-3.59549 -0.38423,0 -3.27743,1.75242 -3.27616,1.98437 10e-4,0.25528 7.97285,5.41636 8.14869,5.27584 0.0476,-0.0381 -0.99626,-1.6872 -2.31978,-3.66472 z m 4.34586,1.44323 c 0.36535,-1.07418 0.63477,-1.97386 0.5987,-1.99929 -0.0361,-0.0254 -0.72042,-0.25252 -1.52079,-0.50465 -0.80036,-0.25213 -2.15883,-0.80653 -3.01882,-1.23201 -0.85999,-0.42548 -1.60463,-0.7736 -1.65476,-0.7736 -0.0501,0 0.94203,1.55098 2.20481,3.44661 1.26277,1.89564 2.39284,3.34973 2.51127,3.23131 0.11842,-0.11842 0.51424,-1.09419 0.87959,-2.16837 z m 153.315521,-1.52945 c -0.32197,-1.85734 -0.62457,-3.42214 -0.67245,-3.47734 -0.14001,-0.16142 -5.66307,3.17725 -5.66307,3.42331 0,0.63297 6.64621,4.20961 6.83389,3.67764 0.0479,-0.13565 -0.17641,-1.76627 -0.49837,-3.62361 z m 19.63957,1.31938 c 0.94276,-1.41883 1.92594,-2.90532 2.18484,-3.30332 l 0.47072,-0.72362 -1.71565,0.77791 c -0.94361,0.42785 -2.29559,0.91988 -3.00439,1.09339 -0.7088,0.17351 -1.33024,0.34934 -1.38097,0.39073 -0.13989,0.11412 1.39173,4.34312 1.57324,4.3439 0.087,2.7e-4 0.92944,-1.16017 1.87221,-2.57899 z m 3.48261,-0.17126 c 2.29476,-1.44026 4.07672,-2.70304 3.95991,-2.80618 -0.44733,-0.39497 -3.50295,-1.95537 -3.60337,-1.84012 -0.50424,0.57874 -4.93881,7.43532 -4.76113,7.36148 0.12776,-0.0531 2.10983,-1.27492 4.40459,-2.71518 z M 64.764249,156.05134 c 0.2852,-1.65649 0.51934,-3.19763 0.5203,-3.42475 0.001,-0.32162 -0.49193,-0.17531 -2.23024,0.66146 -1.28355,0.61785 -2.18861,1.20951 -2.12988,1.39234 0.13264,0.41296 3.1479,4.55174 3.24626,4.45586 0.0413,-0.0402 0.30836,-1.42843 0.59356,-3.08491 z m 2.59144,2.28474 c 2.10465,-1.00863 4.28062,-2.41535 4.28062,-2.76734 0,-0.25675 -5.52148,-3.5782 -5.68179,-3.41789 -0.11112,0.11111 -1.19738,6.28468 -1.19738,6.80506 0,0.48964 0.56438,0.35502 2.59855,-0.61983 z m 138.953541,-3.87021 c 0,-0.0943 -0.36111,-0.32109 -0.80248,-0.5039 -0.44136,-0.18282 -1.4712,-0.73509 -2.28853,-1.22726 -0.81733,-0.49216 -1.51775,-0.86304 -1.5565,-0.82418 -0.0387,0.0389 0.21654,1.67802 0.56731,3.64255 0.35077,1.96453 0.63841,3.62453 0.63919,3.68888 8e-4,0.0644 0.77533,-0.94536 1.72122,-2.24379 0.94589,-1.29844 1.71979,-2.43798 1.71979,-2.5323 z m -7.80521,-1.55436 c 1.30969,-0.77764 2.40574,-1.42883 2.43567,-1.4471 0.0299,-0.0183 -0.95233,-1.06986 -2.18281,-2.33686 -1.23048,-1.267 -2.23723,-2.26319 -2.23723,-2.21377 0,0.0494 -0.35719,1.85342 -0.79375,4.00888 -0.43656,2.15546 -0.79375,3.97367 -0.79375,4.04046 0,0.0668 0.26789,-0.0494 0.59531,-0.25815 0.32742,-0.20877 1.66688,-1.01583 2.97656,-1.79346 z M 71.601049,152.31173 c -0.27277,-1.34607 -0.62257,-3.07045 -0.77733,-3.83196 l -0.28139,-1.38456 -0.97437,1.11998 c -0.53589,0.61599 -1.49879,1.60686 -2.13976,2.20194 l -1.1654,1.08196 2.62061,1.60958 c 1.44133,0.88526 2.75403,1.61877 2.9171,1.63001 0.20335,0.014 0.14069,-0.7484 -0.19946,-2.42695 z m 2.49856,1.12447 c 1.91467,-2.12958 4.68045,-6.70941 4.68045,-7.75032 0,-0.28832 -0.7188,-0.24185 -3.73257,0.24134 -2.05292,0.32914 -3.80193,0.66779 -3.8867,0.75256 -0.20401,0.20401 1.31734,8.07934 1.56076,8.07934 0.10375,0 0.72388,-0.59531 1.37806,-1.32292 z m 121.249371,-2.76464 c 0.41097,-2.10783 0.68186,-3.89778 0.60197,-3.97767 -0.0799,-0.0799 -1.83008,-0.41991 -3.88932,-0.7556 -3.01002,-0.4907 -3.74407,-0.54059 -3.74407,-0.25452 0,0.58903 2.00579,4.3901 3.05331,5.78616 1.3021,1.73535 2.80828,3.29524 3.0422,3.15066 0.10378,-0.0641 0.52494,-1.8412 0.93591,-3.94903 z m -155.639551,1.8386 c 0.8242,-0.43656 1.49882,-0.85455 1.49917,-0.92886 3.4e-4,-0.0743 -0.65186,-0.65577 -1.44933,-1.29212 -0.79748,-0.63635 -2.07509,-1.90738 -2.83914,-2.82452 -0.76406,-0.91714 -1.41963,-1.63709 -1.45684,-1.59988 -0.26624,0.26624 2.24851,7.6448 2.56154,7.51581 0.10234,-0.0422 0.86041,-0.43386 1.6846,-0.87043 z m 190.634311,-1.12447 c 0.68504,-1.7789 1.63008,-4.95354 1.63008,-5.47589 0,-0.0957 -0.60628,0.55454 -1.34729,1.44495 -0.74101,0.89041 -2.09812,2.23347 -3.01581,2.98457 l -1.66851,1.36565 1.49445,0.85761 c 0.82195,0.47168 1.63462,0.86121 1.80594,0.86561 0.17133,0.004 0.66684,-0.91472 1.10114,-2.0425 z M 75.935789,145.34507 c 1.70987,-0.25533 3.10885,-0.53605 3.10885,-0.62383 0,-0.24202 -4.73202,-4.90116 -4.83956,-4.76502 -0.0515,0.0652 -0.30766,0.71384 -0.56925,1.44144 -0.26159,0.72761 -0.89396,2.08513 -1.40527,3.01672 l -0.92964,1.6938 0.76301,-0.14944 c 0.41965,-0.0822 2.16199,-0.35835 3.87186,-0.61367 z m 120.054691,0.56563 c 0,-0.0644 -0.25234,-0.54486 -0.56077,-1.0676 -0.30842,-0.52273 -0.94371,-1.83133 -1.41176,-2.908 l -0.85098,-1.95756 -2.45041,2.46064 -2.4504,2.46063 3.26685,0.53822 c 3.39643,0.55957 4.45747,0.67232 4.45747,0.47367 z m -132.740061,-26.20096 2.06515,-2.12458 -0.16946,-1.16668 -0.16946,-1.16667 -3.07531,3.0753 -3.07531,3.07531 0.63006,0.67066 c 0.7543,0.80292 0.65884,0.86238 3.79433,-2.36334 z m -1.40022,-0.93781 c 2.2605,-2.50752 2.37778,-2.5957 2.37778,-1.78775 0,0.83105 -3.19327,3.90827 -4.05566,3.90827 -0.12856,0 0.62649,-0.95424 1.67788,-2.12052 z m -0.26684,-8.59139 -3.4408,-3.4408 -3.5032,3.5032 -3.50319,3.50319 3.43337,3.44101 3.43336,3.441 3.51063,-3.5034 3.51063,-3.5034 z m -5.84907,6.67174 c -3.34128,-2.23212 -1.77571,-7.33887 2.24896,-7.33592 2.51963,0.002 3.98695,1.45709 3.98695,3.95414 0,2.50512 -1.49861,3.98237 -4.03996,3.98237 -0.90791,0 -1.56659,-0.18015 -2.19595,-0.60059 z m 157.259561,0.13382 3.36969,-3.37718 -3.43966,-3.43202 -3.43965,-3.43202 -3.43965,3.43202 -3.43965,3.43202 3.36969,3.37718 c 1.85333,1.85745 3.43265,3.37719 3.50961,3.37719 0.077,0 1.65629,-1.51974 3.50962,-3.37719 z m -4.97794,0.35919 c -0.44378,-0.1933 -1.1405,-0.74794 -1.54826,-1.23254 -0.68283,-0.8115 -0.7334,-1.02256 -0.6402,-2.67204 0.087,-1.54005 0.2081,-1.90252 0.8643,-2.58744 0.96268,-1.00482 2.27624,-1.44577 3.65166,-1.22584 2.14887,0.34362 3.37416,1.82124 3.37416,4.06901 0,2.95819 -2.95123,4.84686 -5.70166,3.64885 z m -6.28716,-0.0431 c 0.9913,-0.2284 1.89116,-0.50175 1.9997,-0.60745 0.10854,-0.10569 -0.31215,-0.69219 -0.93486,-1.30334 l -1.13219,-1.11116 -1.70334,1.71861 -1.70333,1.71861 h 0.83583 c 0.45971,0 1.6469,-0.18687 2.63819,-0.41527 z M 67.667559,110.99291 c 0,-0.14891 -0.98061,-1.19755 -2.17912,-2.33032 l -2.17913,-2.05958 -1.72348,0.14965 c -2.15546,0.18715 -1.63803,-0.22573 0.79006,-0.63043 3.40277,-0.56714 3.70417,-0.59612 3.70417,-0.35609 0,0.13393 -0.36519,0.31654 -0.81153,0.40581 l -0.81152,0.1623 1.80169,2.11973 c 0.99093,1.16585 1.86231,2.11972 1.93641,2.11972 0.0741,0 14.7182,-14.583841 32.542461,-32.408551 l 32.40774,-32.408545 -2.0738,-2.086032 -2.0738,-2.086032 -0.79444,0.396321 c -0.70072,0.349562 -1.75599,2.048252 -1.45772,2.346518 0.0588,0.0588 0.64958,-0.370793 1.31287,-0.954639 1.86791,-1.644202 1.82881,-1.253409 -0.0659,0.658253 -0.93748,0.945885 -1.81182,1.719791 -1.94298,1.719791 -0.13116,0 -0.0821,-0.188379 0.10895,-0.418621 0.19108,-0.230242 0.3199,-0.885086 0.28626,-1.455209 -0.0343,-0.580761 0.0599,-1.036586 0.21414,-1.036586 0.15141,0 0.2753,-0.09772 0.2753,-0.217149 0,-0.119432 -0.56555,-0.147826 -1.25677,-0.0631 -0.69123,0.08473 -1.67349,0.07906 -2.18282,-0.0126 l -0.92604,-0.166656 0.97577,-0.03483 c 1.15078,-0.04108 4.4939,-0.78106 4.77783,-1.057547 0.10853,-0.105696 -0.34005,-0.719576 -0.99685,-1.364177 l -1.19418,-1.172002 -7.16248,7.13726 c -3.93936,3.925494 -7.44961,7.581384 -7.80055,8.124194 -0.91923,1.42179 -0.83662,2.52233 0.28796,3.83615 0.50933,0.59503 0.92604,1.17698 0.92604,1.29324 0,0.11625 0.44649,0.68219 0.99219,1.25763 l 0.99219,1.04627 -0.92604,-0.62013 c -1.27759,-0.85553 -3.34199,-2.97475 -3.55665,-3.65107 -0.0976,-0.30744 -0.0536,-1.00733 0.0977,-1.55531 0.23558,-0.8532 -3.41105,2.68967 -25.383541,24.66128 l -25.65864,25.657619 3.49615,3.50336 3.49615,3.50336 0.86796,-0.84126 c 0.47738,-0.46269 0.86796,-0.96309 0.86796,-1.11199 z m -3.44203,-1.22105 c -2.00574,-1.86203 -2.17264,-2.08679 -1.55729,-2.09706 0.4968,-0.008 1.05786,0.37826 2.00955,1.38454 1.25546,1.32746 2.07994,2.51239 1.88428,2.70805 -0.0495,0.0495 -1.10096,-0.84847 -2.33654,-1.99553 z m 3.9115,-6.40345 c -0.70069,-0.54538 -0.73635,-0.54756 -1.25677,-0.0766 -0.29459,0.2666 -0.53562,0.35423 -0.53562,0.19475 0,-0.15949 0.11906,-0.36356 0.26459,-0.4535 0.14552,-0.0899 0.26458,-0.38073 0.26458,-0.64622 0,-0.72175 0.90959,-0.84429 1.32194,-0.17808 0.19054,0.30785 0.52053,0.82761 0.7333,1.15503 0.48085,0.73993 0.15513,0.74182 -0.79202,0.005 z m -2.4414,-1.28354 c 0.57524,-0.59427 1.40307,-1.32704 1.83964,-1.62837 0.44693,-0.30849 0.10372,0.16361 -0.78547,1.08049 -0.86857,0.89561 -1.69641,1.62838 -1.83963,1.62838 -0.14323,0 0.21023,-0.48622 0.78546,-1.0805 z m 10.84865,-0.90388 c 0.44406,-1.311651 0.42804,-1.506451 -0.17743,-2.157441 -0.68539,-0.73691 -1.28963,-1.02567 -3.209,-1.53351 -1.01089,-0.26747 -1.31081,-0.26713 -1.53397,0.002 -0.20248,0.24399 -0.13445,0.43434 0.25196,0.70499 0.29113,0.20392 0.66142,0.72067 0.82286,1.14832 0.29222,0.774081 0.28889,0.773041 -0.74555,-0.23342 l -1.03909,-1.01097 -0.54335,0.7459 c -0.29885,0.41025 -0.62912,0.66014 -0.73394,0.55532 -0.20434,-0.20433 3.66164,-4.31295 4.46696,-4.74732 0.42444,-0.22894 0.44872,-0.19641 0.20011,0.26812 -0.15561,0.29077 -0.58134,0.76341 -0.94607,1.0503 -0.36472,0.28689 -0.66313,0.57856 -0.66313,0.64816 0,0.0696 0.48145,0.20353 1.06989,0.29762 0.58844,0.0941 1.33258,0.30641 1.65365,0.47182 0.32106,0.1654 0.76235,0.38391 0.98063,0.48557 0.67594,0.31482 0.92416,2.174801 0.40926,3.066691 -0.24362,0.422 -0.36233,0.52914 -0.26379,0.2381 z m 0.13716,-6.371741 c 0.19108,-0.23025 0.3199,-0.88509 0.28626,-1.45521 -0.0343,-0.58076 0.0599,-1.03659 0.21414,-1.03659 0.15142,0 0.2753,-0.0977 0.2753,-0.21715 0,-0.11943 -0.56554,-0.14782 -1.25677,-0.0631 -0.69122,0.0847 -1.67349,0.0791 -2.18281,-0.0126 l -0.92604,-0.16665 0.97577,-0.0348 c 1.1719,-0.0418 4.34469,-0.75457 5.05772,-1.13618 0.39391,-0.21081 0.48355,-0.19181 0.39373,0.0835 -0.064,0.19604 -0.44592,0.51702 -0.84879,0.7133 -0.6457,0.31459 -1.68563,2.03663 -1.40149,2.32076 0.0588,0.0588 0.64959,-0.37079 1.31287,-0.95464 1.86791,-1.6442 1.82882,-1.25341 -0.0659,0.65826 -0.93748,0.94588 -1.81182,1.71979 -1.94299,1.71979 -0.13116,0 -0.0821,-0.18838 0.10895,-0.41862 z m 9.67613,-12.28341 c 0.45686,-0.47042 0.97688,-0.80657 1.15562,-0.747 0.17874,0.0596 -0.19505,0.44448 -0.83064,0.85533 l -1.15562,0.747 z m -1.75668,0.36239 c 0,-0.10207 0.65705,-0.79707 1.46011,-1.54444 0.80306,-0.74738 1.39845,-1.23319 1.32309,-1.07958 -0.0754,0.15361 -0.2059,0.45788 -0.29009,0.67616 -0.16687,0.43267 -2.49311,2.25016 -2.49311,1.94786 z m 7.14375,-0.62494 c -0.58173,-0.58173 -0.69541,-1.93736 -0.28305,-3.37519 0.24764,-0.86346 -0.0311,-1.18276 -0.4314,-0.49412 -0.32915,0.56629 -1.93576,1.83645 -2.10669,1.66552 -0.0841,-0.0841 0.93293,-1.25342 2.26013,-2.59843 1.3272,-1.34501 2.4131,-2.27977 2.4131,-2.07725 0,0.20252 -0.29993,0.68128 -0.66651,1.0639 -0.45392,0.4738 -0.75811,1.21574 -0.95372,2.32623 -0.25449,1.44473 -0.22855,1.744 0.22758,2.62608 0.43349,0.8383 0.66713,1.00848 1.47917,1.07744 0.74496,0.0633 1.1157,-0.0694 1.62955,-0.58328 0.36585,-0.36585 0.66518,-0.56018 0.66518,-0.43183 0,0.12834 -0.31372,0.48012 -0.69714,0.78172 -0.93913,0.73872 -2.80654,0.74886 -3.5362,0.0192 z m -7.04475,-1.06582 c 0.88413,-1.06794 1.56136,-1.54859 1.32908,-0.94326 -0.0831,0.21661 -0.58727,0.72413 -1.12033,1.12783 l -0.96921,0.73399 z m 14.05768,-5.01798 c -0.2642,-0.29193 -0.61974,-0.53079 -0.7901,-0.53079 -0.3862,0 -1.46033,-1.12007 -1.46033,-1.52279 0,-0.59385 -0.53441,-0.60584 -1.31399,-0.0295 -1.55101,1.14671 -1.06485,0.26596 0.9148,-1.65727 1.94024,-1.88496 3.32001,-2.88544 2.00118,-1.45107 l -0.64698,0.70365 1.31101,1.25087 c 0.72105,0.68798 1.653871,1.7006 2.072931,2.25026 1.40366,1.84113 0.43068,1.37497 -1.739451,-0.83336 -1.95239,-1.98677 -2.18602,-2.14811 -2.56371,-1.77042 -0.37769,0.37769 -0.36475,0.45115 0.142,0.80609 0.71915,0.50371 2.83774,3.03034 2.67632,3.19177 -0.0678,0.0678 -0.33948,-0.11554 -0.60368,-0.40747 z m 12.566241,-9.12335 c 0,-0.0692 0.23768,-0.51573 0.52818,-0.99219 0.62149,-1.01934 0.70832,-0.78768 0.12648,0.33747 -0.36297,0.70192 -0.65466,0.99363 -0.65466,0.65472 z m 0.84763,-2.75076 c -0.44554,-1.01675 -1.37631,-1.60738 -3.2018,-2.03173 -1.0781,-0.25061 -1.5709,-0.26474 -1.82678,-0.0524 -0.28752,0.23862 -0.27618,0.33235 0.0632,0.52228 0.22748,0.1273 0.60848,0.61249 0.84666,1.0782 l 0.43307,0.84675 -0.62719,-0.52917 c -0.34495,-0.29104 -0.77219,-0.70776 -0.94941,-0.92604 -0.27926,-0.34394 -0.41575,-0.29751 -1.02329,0.34805 -0.75127,0.79829 -1.1258,0.8012 -0.68746,0.005 0.51391,-0.93307 4.21898,-4.38432 4.57577,-4.26229 0.24239,0.0829 0.039,0.40765 -0.62615,0.99994 l -0.98513,0.87717 1.96738,0.6511 c 1.77842,0.58856 1.99565,0.73675 2.26171,1.54292 0.40166,1.21704 0.22732,1.95199 -0.22058,0.92987 z m 3.90902,-4.61766 c -0.65562,-0.60755 -1.84525,-1.66496 -2.64362,-2.34978 -1.34122,-1.15048 -1.3994,-1.24603 -0.76536,-1.25677 0.48959,-0.008 1.14888,0.43967 2.30082,1.56337 2.51549,2.45379 3.4898,4.2502 1.10816,2.04318 z m 1.65721,-6.11859 c -0.72727,-0.61196 -0.79697,-0.62309 -1.24265,-0.19844 -0.36482,0.34762 -0.43491,0.35967 -0.30831,0.053 0.0901,-0.21828 0.23446,-0.59423 0.32077,-0.83544 0.0863,-0.2412 0.39581,-0.50103 0.6878,-0.57738 0.29198,-0.0764 0.46288,-0.0708 0.37979,0.0122 -0.0831,0.0831 0.14325,0.50088 0.50299,0.92842 1.08038,1.28395 0.88115,1.64542 -0.34039,0.61757 z m -3.23886,-0.38752 c 0,-0.28992 2.29258,-2.34291 3.04271,-2.72472 0.29104,-0.14814 -0.18148,0.45879 -1.05005,1.34874 -1.5262,1.56375 -1.99266,1.88585 -1.99266,1.37598 z m 7.54757,-1.27833 c -0.6426,-0.6426 -0.70877,-0.86451 -0.57202,-1.91822 0.0851,-0.655364 0.22972,-1.489222 0.32148,-1.853025 l 0.16683,-0.661458 -0.62307,0.671274 c -1.1118,1.197801 -2.07829,1.945299 -2.07829,1.607369 0,-0.455137 4.44744,-4.930862 4.67428,-4.704016 0.10139,0.101388 -0.20284,0.583812 -0.67606,1.072053 -0.76032,0.784447 -0.87691,1.103233 -1.00228,2.740472 -0.11338,1.480791 -0.05,1.992951 0.31565,2.551021 0.8101,1.23638 2.2355,1.1527 3.3869,-0.19883 l 0.48078,-0.56434 -0.29019,0.59257 c -0.70774,1.44524 -2.95903,1.81011 -4.10401,0.66513 z m 78.37851,45.7746 c -6.7338,-6.73635 -8.39924,-8.27084 -8.97663,-8.27084 -0.73574,0 -2.49549,1.18485 -4.27155,2.87607 -0.93512,0.89044 -0.98116,0.90723 -0.63214,0.23049 0.70206,-1.36131 2.98151,-3.56856 3.89176,-3.76848 l 0.86385,-0.18974 -11.85991,-11.8621 c -6.52295,-6.52416 -11.93246,-11.81727 -12.02113,-11.76247 -0.21782,0.13463 -0.52108,-0.10804 -1.45887,-1.16734 -0.43656,-0.49314 -0.61515,-0.80356 -0.39687,-0.68984 0.21828,0.11372 -5.10687,-5.31192 -11.83367,-12.05697 -9.01047,-9.034934 -12.30839,-12.185907 -12.5262,-11.968097 -0.2134,0.213409 -0.21928,0.689917 -0.0211,1.712999 0.51856,2.677146 0.6492,4.276594 0.33337,4.081402 -0.16173,-0.09996 -0.29406,-0.472371 -0.29406,-0.827585 0,-0.830451 -0.0948,-0.814909 -1.12689,0.184661 -1.09244,1.058063 -3.25412,2.785857 -3.69461,2.953032 -0.19564,0.07425 13.47209,13.950358 32.46849,32.963478 l 32.80636,32.835261 3.50877,-3.50154 3.50876,-3.50155 z m 2.98819,9.186961 c -0.93804,-0.86198 -1.63057,-1.64219 -1.53896,-1.7338 0.0916,-0.0916 0.32325,-0.0697 0.51475,0.0486 0.19149,0.11835 0.68166,0.1802 1.08926,0.13744 0.4076,-0.0428 0.88919,0.0452 1.07022,0.19542 0.25852,0.21456 0.30584,-0.10725 0.22056,-1.50001 -0.0597,-0.97525 -0.0341,-1.70263 0.0568,-1.61642 0.091,0.0862 0.38921,1.15778 0.66276,2.38125 0.27355,1.22347 0.58285,2.43286 0.68735,2.68752 0.1165,0.28392 0.0714,0.46302 -0.11667,0.46302 -0.16866,0 -0.4325,-0.36102 -0.58632,-0.80225 -0.18707,-0.53663 -0.58742,-0.93084 -1.20917,-1.19063 -1.40612,-0.58751 -1.57659,-0.47432 -0.71016,0.47152 1.09857,1.19927 1.79889,2.0528 1.67222,2.03804 -0.0589,-0.007 -0.87464,-0.71774 -1.81268,-1.57971 z m -7.63729,-2.12228 c -0.31848,-0.29671 -0.57906,-0.61512 -0.57906,-0.70758 0,-0.0925 0.29766,0.11153 0.66146,0.45331 0.62034,0.58277 0.77425,0.79375 0.57906,0.79375 -0.0453,0 -0.34298,-0.24277 -0.66146,-0.53948 z m -0.8013,-2.05285 c -0.0735,-1.97323 1.48396,-2.889731 3.63585,-2.13958 0.4657,0.16234 0.89548,0.24643 0.95505,0.18686 0.0596,-0.0596 -0.36552,-0.62667 -0.94464,-1.260221 -1.98351,-2.16994 -0.75984,-1.44886 1.67755,0.988541 1.33952,1.33951 2.2921,2.43548 2.11685,2.43548 -0.17525,0 -0.53164,-0.21194 -0.79196,-0.47098 -0.96043,-0.95564 -1.36172,-1.12256 -3.0696,-1.27682 -1.50844,-0.13625 -1.85213,-0.0814 -2.53468,0.40463 -0.52862,0.37642 -0.82472,0.84436 -0.89584,1.41573 -0.09,0.72337 -0.11269,0.68013 -0.14858,-0.28364 z m -1.62984,-5.013511 c 0,-0.14316 0.25133,-0.57981 0.55851,-0.97033 0.53535,-0.68059 0.53913,-0.73144 0.0913,-1.22631 -0.25697,-0.28395 -0.34429,-0.51627 -0.19403,-0.51627 0.15026,0 0.42033,0.17728 0.60015,0.39396 0.17983,0.21668 0.42006,0.33642 0.53384,0.2661 0.18387,-0.11363 0.64628,0.66622 0.467,0.78759 -0.0398,0.0269 -0.51886,0.38122 -1.06456,0.78728 -0.54571,0.40606 -0.99219,0.62115 -0.99219,0.47798 z m 1.98437,-2.44833 c -0.85648,-0.86551 -1.47428,-1.65662 -1.37289,-1.75801 0.21693,-0.21693 1.23393,0.68953 2.35716,2.10094 1.24995,1.57063 0.7301,1.38951 -0.98427,-0.34293 z m -7.48916,-0.31138 c 0.62654,-0.75333 1.70214,-1.97372 2.39023,-2.71197 1.09107,-1.17063 1.25179,-1.26506 1.25677,-0.73846 0.004,0.40781 -0.68418,1.28815 -2.11953,2.71198 -2.40968,2.39032 -3.23188,2.78782 -1.52747,0.73845 z m -6.13688,-3.80452 c -0.45858,-0.29019 -0.49916,-0.36318 -0.13229,-0.23798 0.29104,0.0993 0.71223,0.23387 0.93597,0.29901 0.54124,0.15757 1.81397,-0.86823 2.15209,-1.73456 0.69793,-1.78821 0.94169,-3.20077 0.60114,-3.48341 -0.24399,-0.20249 -0.43434,-0.13446 -0.705,0.25195 -0.20392,0.29114 -0.72066,0.66143 -1.14831,0.82287 -0.77409,0.29221 -0.77304,0.28889 0.23342,-0.74556 l 1.01097,-1.03908 -0.74591,-0.54336 c -0.41024,-0.29884 -0.66014,-0.62912 -0.55531,-0.73394 0.20433,-0.20433 4.31295,3.66164 4.74732,4.46696 0.22894,0.42445 0.19641,0.44873 -0.26812,0.20011 -0.29078,-0.15561 -0.76341,-0.58134 -1.0503,-0.94606 -0.62819,-0.79861 -0.84234,-0.83502 -0.84234,-0.14321 0,0.71143 -0.77324,2.97958 -1.14901,3.37042 -0.52569,0.54677 -2.34701,0.66241 -3.08432,0.19584 z m -10.58333,-10.78334 c 0,-0.21539 0.94502,-1.28063 2.10004,-2.36719 1.5689,-1.47591 2.02394,-2.05167 1.79917,-2.27644 -0.44269,-0.44269 -0.47151,-0.42717 -2.14392,1.15433 -1.45977,1.38042 -2.6463,2.05678 -1.62135,0.92422 0.26429,-0.29205 0.61252,-0.79571 0.77382,-1.11927 0.16131,-0.32355 0.52907,-0.70972 0.81724,-0.85815 1.22791,-0.63245 1.25575,-0.68991 0.64779,-1.33705 -0.31758,-0.33805 -0.52952,-0.75831 -0.47099,-0.93392 0.0585,-0.1756 0.99403,0.59437 2.07887,1.71105 1.92975,1.98636 2.93417,3.38299 1.39907,1.94537 l -0.77531,-0.72608 -1.18629,1.25525 c -1.6873,1.78538 -3.41814,3.11606 -3.41814,2.62788 z m -5.4393,-5.67617 c -1.28899,-0.89512 -1.53768,-2.89875 -0.48984,-3.9466 0.63861,-0.6386 0.80256,-0.67451 2.39894,-0.52544 l 1.71349,0.16001 -1.13479,-1.35537 c -1.62001,-1.93494 -0.4683,-1.16287 2.01925,1.35363 1.39679,1.41304 1.95317,2.13501 1.64534,2.13501 -0.25581,0 -0.53534,-0.18299 -0.62117,-0.40666 -0.40485,-1.05503 -3.76501,-1.74873 -5.10759,-1.05445 -1.46158,0.75581 -1.68496,1.79756 -0.64936,3.02831 0.68801,0.81765 0.74505,0.9722 0.22573,0.61156 z m -0.92193,-9.11187 -0.86877,-1.13668 1.02208,0.98337 c 0.56215,0.54085 0.95309,1.05236 0.86877,1.13668 -0.0843,0.0843 -0.54426,-0.35819 -1.02208,-0.98337 z m 1.93517,0.50134 c -0.32428,-0.18018 -0.97912,-0.85827 -1.45521,-1.50686 -0.75963,-1.03488 -0.78463,-1.11668 -0.20415,-0.66813 0.64033,0.4948 2.54177,2.53094 2.34579,2.51197 -0.0533,-0.005 -0.36215,-0.1568 -0.68643,-0.33698 z m -12.70947,-8.42865 c -1.46817,-1.41903 -2.17846,-2.43081 -1.34472,-1.91554 0.16784,0.10374 0.7828,0.22482 1.36658,0.26909 0.58377,0.0443 1.14582,0.21706 1.24899,0.384 0.10317,0.16693 0.14584,-0.57221 0.0948,-1.64254 -0.10365,-2.17453 0.0416,-1.90043 0.89686,1.69197 0.47932,2.01341 0.29777,2.81198 -0.28704,1.26264 -0.22269,-0.58997 -0.58915,-0.8873 -1.45881,-1.18363 -1.3275,-0.45232 -1.30251,-0.36839 0.44779,1.50364 1.51275,1.61797 0.81548,1.35074 -0.96448,-0.36963 z m -8.19833,-2.07001 c -0.47294,-0.28836 -0.85989,-0.58382 -0.85989,-0.65658 0,-0.0728 0.38695,0.10364 0.85989,0.39199 1.91835,1.16964 3.33332,0.23242 3.99894,-2.64873 0.44498,-1.92609 0.19827,-2.65239 -0.57364,-1.68878 -0.24681,0.30811 -0.73344,0.62878 -1.08141,0.71261 -0.59013,0.14217 -0.57372,0.0916 0.24406,-0.75214 l 0.87674,-0.90457 -0.70708,-0.655299 c -0.92107,-0.853612 -0.90869,-1.127336 0.0205,-0.453702 1.21373,0.879901 4.41504,4.243671 4.22223,4.436491 -0.0993,0.0992 -0.57517,-0.23806 -1.0576,-0.74958 l -0.87713,-0.93004 -0.4952,1.72911 c -0.27236,0.95101 -0.71263,1.94654 -0.97838,2.2123 -0.65609,0.65609 -2.48123,0.6342 -3.59205,-0.0431 z m -2.18281,-7.551011 c 0,-0.0955 0.23995,-0.478679 0.53322,-0.851512 0.49974,-0.635325 0.50548,-0.708535 0.0913,-1.166212 -0.53993,-0.596623 -0.42004,-0.609761 0.65777,-0.07208 1.10583,0.551662 1.05219,0.951401 -0.22394,1.668621 -0.58208,0.327149 -1.05833,0.516681 -1.05833,0.421182 z m 2.03943,-2.412109 c -0.84284,-0.815589 -1.46613,-1.549192 -1.3851,-1.630229 0.17455,-0.174546 1.8155,1.36038 2.5617,2.396177 0.28829,0.400182 0.4863,0.725204 0.44001,0.722273 -0.0463,-0.0029 -0.77376,-0.672633 -1.61661,-1.488221 z m -66.942041,37.309 c -0.14713,-0.14713 -6.60987,-1.16825 -6.71685,-1.06127 -0.0645,0.0645 0.23378,0.75445 0.66293,1.53314 0.42915,0.7787 0.99197,1.98936 1.25072,2.69037 l 0.47045,1.27455 2.1981,-2.18667 c 1.20895,-1.20267 2.16954,-2.21522 2.13465,-2.25012 z m 116.627851,-0.2649 c 0.24198,-0.3693 0.37298,-0.73844 0.29112,-0.8203 -0.13924,-0.13924 -5.25238,0.58794 -6.34194,0.90194 -0.40897,0.11786 -0.11299,0.52714 1.69691,2.3465 l 2.19229,2.20373 0.86083,-1.9802 c 0.47346,-1.08911 1.05881,-2.28236 1.30079,-2.65167 z M 78.780059,81.992099 c 0,-0.52183 -1.92398,-4.10859 -3.04785,-5.68194 -1.14529,-1.60332 -2.94793,-3.49979 -3.12647,-3.28921 -0.29524,0.34824 -1.54069,7.71854 -1.33844,7.92059 0.2435,0.24326 5.48618,1.24256 6.78516,1.29332 0.40018,0.0156 0.7276,-0.0936 0.7276,-0.24276 z m 113.704691,-0.29317 c 2.79635,-0.4579 3.50577,-0.65965 3.50592,-0.99704 2.5e-4,-0.52117 -1.36798,-7.52232 -1.50124,-7.68183 -0.0529,-0.0633 -0.57978,0.35341 -1.17088,0.92604 -1.33838,1.29658 -3.6782,4.77869 -4.56649,6.79583 -0.80172,1.82056 -1.08981,1.7467 3.73269,0.957 z M 89.465389,69.829109 c -3.65295,-3.02024 -7.97838,-5.69847 -12.03553,-7.4522 -7.00656,-3.02862 -14.40739,-3.42667 -20.34563,-1.09427 -2.33784,0.91824 -5.41155,2.76414 -7.01146,4.21067 l -1.32292,1.19609 1.05833,-0.14729 c 13.69811,-1.90651 24.66649,3.272 29.1188,13.74787 l 0.74814,1.76031 5.54144,-5.57623 5.54145,-5.57622 z m 99.307461,9.30847 c 2.20233,-4.5324 5.28743,-7.72978 9.61519,-9.96517 4.65305,-2.4034 10.58804,-3.42119 16.54599,-2.83746 1.71465,0.16799 3.16385,0.25913 3.22044,0.20254 0.28837,-0.28837 -3.60492,-2.96669 -6.1567,-4.23538 -3.76519,-1.87199 -5.34094,-2.27607 -9.525,-2.44257 -2.86417,-0.11397 -3.9014,-0.0416 -6.20014,0.43272 -6.40777,1.32213 -13.20137,4.87702 -19.5845,10.24797 -0.13244,0.11144 10.61705,10.9395 10.83326,10.91245 0.0741,-0.009 0.63725,-1.05106 1.25146,-2.3151 z m 42.56892,-0.26099 c -0.79782,-2.77316 -1.66564,-4.89613 -1.9504,-4.77128 -0.81189,0.356 -2.97096,1.65761 -2.95904,1.78388 0.008,0.086 0.64822,0.65608 1.42244,1.26682 0.77422,0.61073 1.98796,1.81519 2.69721,2.67656 0.70925,0.86137 1.33035,1.53134 1.38022,1.48882 0.0499,-0.0425 -0.21582,-1.14268 -0.59043,-2.4448 z m -190.984271,-3.2836 c -0.1864,-0.12614 -0.80154,-0.47352 -1.36698,-0.77196 -0.83438,-0.44038 -1.07121,-0.47584 -1.257,-0.1882 -0.19729,0.30544 -2.08055,5.85691 -2.08055,6.13304 0,0.0549 1.13477,-1.0349 2.52172,-2.42184 1.83073,-1.83073 2.42884,-2.58455 2.18281,-2.75104 z m 159.998611,0.53181 c 0,-0.23501 -5.21015,-3.42393 -5.35593,-3.27815 -0.07,0.07 0.8174,4.51004 1.39983,7.00391 0.13597,0.58222 0.29153,0.47327 2.05161,-1.43687 1.04747,-1.13677 1.90449,-2.16678 1.90449,-2.28889 z m -128.935411,0.25151 c 0.37984,-1.92815 0.66887,-3.52975 0.64227,-3.55912 -0.0266,-0.0294 -1.24025,0.65438 -2.69702,1.51942 l -2.64867,1.5728 1.8642,1.95689 c 1.02531,1.0763 1.92819,1.97014 2.0064,1.98632 0.0782,0.0162 0.45298,-1.54816 0.83282,-3.47631 z m -26.98103,-4.78578 c 1.15657,-1.72267 2.06154,-3.17345 2.01105,-3.22394 -0.0505,-0.0505 -1.39932,0.74018 -2.99738,1.75706 -1.59807,1.01687 -3.49102,2.21091 -4.20657,2.65339 l -1.30099,0.80453 1.69787,0.99567 c 2.08024,1.21991 1.89382,1.336 4.79602,-2.98671 z m 25.16115,1.96238 2.33013,-1.39746 -0.87492,-0.64956 c -1.30968,-0.97233 -3.34908,-2.09884 -4.90983,-2.71204 -1.31603,-0.51707 -1.38906,-0.52058 -1.38906,-0.0667 0,0.67834 1.05029,6.42992 1.22611,6.7144 0.0802,0.12976 0.40268,0.0723 0.71662,-0.12761 0.31395,-0.19995 1.61937,-0.9924 2.90095,-1.76101 z m 132.175311,-1.40994 c 0.31574,-1.92815 0.57188,-3.59328 0.56921,-3.7003 -0.0118,-0.474 -3.9619,1.38805 -5.91356,2.78764 l -1.2785,0.91685 2.866,1.74189 c 1.5763,0.95804 2.93727,1.74588 3.02439,1.75077 0.0871,0.005 0.41672,-1.5687 0.73246,-3.49685 z m 2.87946,1.55083 c 0.76398,-0.38491 1.38906,-0.76571 1.38906,-0.84622 0,-0.23819 -3.01118,-4.33006 -3.11216,-4.22908 -0.13116,0.13116 -1.12117,5.69352 -1.12117,6.29929 0,0.49078 0.0168,0.49054 0.7276,-0.0109 0.40018,-0.28228 1.35268,-0.82818 2.11667,-1.2131 z m 22.91501,0.80087 1.5499,-0.88283 -4.19413,-2.66529 c -2.30678,-1.46591 -4.23419,-2.62524 -4.28313,-2.57629 -0.11428,0.11427 3.55506,5.63208 4.26833,6.41855 0.6971,0.76863 0.81637,0.75544 2.65903,-0.29414 z m -162.286051,0.29414 c -0.0101,-0.38229 -1.06394,-6.11484 -1.13762,-6.18852 -0.0975,-0.0975 -2.75052,3.53677 -2.88984,3.95856 -0.0395,0.11959 0.76161,0.6705 1.78026,1.22425 1.71807,0.93395 2.25163,1.17274 2.2472,1.00571 z m -19.7996,-1.52137 c 0.92257,-0.43657 2.06435,-0.86654 2.5373,-0.95549 0.47294,-0.0889 0.85989,-0.24889 0.85989,-0.35544 0,-0.16443 -0.74523,-2.45403 -1.20391,-3.69878 -0.087,-0.23599 -0.88636,0.73766 -2.1138,2.57453 -1.08567,1.62473 -1.97396,3.0159 -1.97396,3.0915 0,0.22289 0.13622,0.1757 1.89448,-0.65632 z m 177.609871,0.0662 c -2.04671,-3.14716 -3.39639,-5.09323 -3.53236,-5.09323 -0.17428,0 -1.34712,3.12551 -1.34703,3.5897 3e-5,0.15533 0.66587,0.49229 1.47966,0.74881 0.81378,0.25653 1.97464,0.68658 2.57968,0.95568 0.60505,0.26909 1.14355,0.49767 1.19666,0.50795 0.0531,0.0103 -0.11636,-0.30873 -0.37661,-0.70891 z m -14.02368,-6.3666 c -0.48904,-0.11511 -5.2261,0.72131 -5.47075,0.96596 -0.10986,0.10986 0.54398,1.23521 1.45299,2.50077 l 1.65273,2.30103 1.35828,-2.84251 c 0.96355,-2.01647 1.25612,-2.86655 1.00675,-2.92525 z m 19.36215,4.51451 c -0.86359,-1.69842 -3.58773,-5.78089 -4.70341,-7.04863 l -0.90588,-1.02937 -1.09598,1.69083 c -0.60279,0.92995 -1.13369,1.84596 -1.17978,2.03558 -0.0726,0.2988 7.74472,5.55438 8.32118,5.59431 0.11159,0.008 -0.0847,-0.55149 -0.43613,-1.24272 z M 62.232289,70.108429 c 0.80961,-1.08262 1.38129,-2.05912 1.27042,-2.17 -0.18945,-0.18944 -4.47549,-1.02098 -5.26252,-1.02098 -0.19922,0 -0.36221,0.18097 -0.36221,0.40216 0,0.70322 2.40752,5.2337 2.65123,4.98911 0.12709,-0.12754 0.89348,-1.11767 1.70308,-2.20029 z m 148.045691,1.80483 c 0.94589,-0.16465 1.75548,-0.3301 1.79909,-0.36768 0.11876,-0.10232 -1.89174,-4.09896 -2.06198,-4.09896 -0.0808,0 -0.71653,1.14682 -1.41281,2.54848 -1.18448,2.38446 -1.22663,2.53784 -0.65502,2.383 0.33601,-0.091 1.38484,-0.3002 2.33072,-0.46484 z m -167.312101,-2.1177 3.81812,-2.41355 -0.45088,-0.6953 c -1.46173,-2.25411 -1.7772,-2.67968 -1.98649,-2.67968 -0.36455,0 -3.4426,4.28941 -4.55209,6.34357 -0.55211,1.02218 -0.92349,1.85852 -0.8253,1.85852 0.0982,0 1.89668,-1.0861 3.99664,-2.41356 z m 16.4996,2.28516 c 0,-0.27192 -2.24242,-4.6341 -2.3822,-4.6341 -0.0812,0 -0.59116,0.89642 -1.13329,1.99205 -0.68561,1.38558 -0.88451,2.02191 -0.65333,2.09012 0.30611,0.0903 3.07231,0.55297 3.83809,0.64192 0.1819,0.0211 0.33073,-0.0194 0.33073,-0.09 z m 157.427091,-0.44814 c 0,-0.59499 -1.16355,-3.92138 -1.37167,-3.92138 -0.18204,0 -2.06792,3.48067 -2.06792,3.81665 0,0.0691 0.68461,0.16865 1.52136,0.22116 0.83674,0.0525 1.61065,0.11798 1.71979,0.1455 0.10914,0.0275 0.19844,-0.0904 0.19844,-0.26193 z M 50.870339,67.699159 c 0.17954,-0.56567 0.14171,-0.57934 -1.09957,-0.39742 -0.70703,0.10363 -1.37613,0.27519 -1.48688,0.38125 -0.16688,0.15981 0.35311,2.0486 1.02752,3.73238 0.13819,0.34499 0.67955,-0.94554 1.55893,-3.71621 z m 1.77865,3.81153 0.98871,-0.16343 -0.95534,-1.81803 c -0.52544,-0.99992 -1.03623,-1.81803 -1.13508,-1.81803 -0.15985,0 -1.34222,3.33783 -1.34222,3.78909 0,0.22247 1.13187,0.22728 2.44393,0.0104 z m 165.850031,-2.13479 c 0.28385,-0.82503 0.42548,-1.58684 0.31472,-1.69291 -0.11076,-0.10606 -0.78595,-0.27854 -1.50042,-0.38328 -1.05213,-0.15424 -1.27254,-0.12066 -1.15963,0.17667 0.0767,0.20191 0.41737,1.23213 0.7571,2.28937 0.68168,2.12136 0.72817,2.10995 1.58823,-0.38985 z m -163.005251,-0.0713 c 0.58371,-1.16094 1.06129,-2.17297 1.06129,-2.24896 0,-0.076 -1.01203,-0.13816 -2.24896,-0.13816 -1.23693,0 -2.24896,0.0752 -2.24896,0.16704 0,0.20558 2.18793,4.33087 2.29697,4.33087 0.0431,0 0.55595,-0.94985 1.13966,-2.11079 z m 159.542411,-2.18869 c 0.002,-0.10914 -1.00773,-0.19843 -2.24466,-0.19843 -1.23692,0 -2.24895,0.0622 -2.24895,0.13816 0,0.076 0.48864,1.11004 1.08588,2.29789 l 1.08589,2.15972 1.15877,-2.09945 c 0.63732,-1.1547 1.16071,-2.18875 1.16307,-2.29789 z M 92.002889,66.940759 c 0.44938,-1.65273 0.76049,-3.06152 0.69135,-3.13066 -0.17092,-0.17092 -4.64064,3.45202 -4.57282,3.70651 0.0555,0.20841 2.92133,2.56518 3.01309,2.47791 0.0282,-0.0268 0.419,-1.40104 0.86838,-3.05376 z m 87.036821,0.52955 c -0.0297,-0.26562 -4.52157,-3.77496 -4.65767,-3.63887 -0.0706,0.0706 0.11164,1.00216 0.40491,2.07019 0.29327,1.06802 0.66343,2.44483 0.82258,3.05956 l 0.28936,1.1177 1.57913,-1.2263 c 0.86852,-0.67446 1.57128,-1.29649 1.56169,-1.38228 z m -84.441771,-2.59543 c -0.75675,-0.77108 -1.16724,-1.02734 -1.28472,-0.80205 -0.095,0.18209 -0.43493,1.34311 -0.7555,2.58004 -0.32056,1.23693 -0.64701,2.48708 -0.72542,2.77812 -0.0835,0.30993 0.69026,-0.28955 1.86757,-1.44691 l 2.01015,-1.97608 z m 80.123551,2.53403 c -0.21902,-0.77962 -0.53251,-1.9391 -0.69664,-2.57661 l -0.29842,-1.15911 -1.04149,1.01699 -1.04149,1.01699 1.64151,1.65624 c 0.90284,0.91093 1.685,1.61276 1.73814,1.55962 0.0531,-0.0531 -0.0826,-0.73449 -0.30161,-1.51412 z M 49.352689,64.794369 c 0.0615,-0.1428 -3.74924,-1.3165 -4.27439,-1.3165 -0.0926,0 0.33745,0.76179 0.9556,1.69287 l 1.12391,1.69287 1.0606,-0.94911 c 0.58334,-0.52201 1.09376,-1.02607 1.13428,-1.12013 z m 38.67186,-1.16328 c 0.40233,-1.685 0.66228,-3.06364 0.57768,-3.06364 -0.0846,0 -1.13469,0.97577 -2.33353,2.16838 l -2.1797,2.16839 1.5007,0.99658 c 0.82539,0.54812 1.5463,0.95099 1.60203,0.89526 0.0557,-0.0557 0.4305,-1.47996 0.83282,-3.16497 z m 94.130361,1.83792 0.84881,-0.56968 -2.17725,-2.16594 c -1.19749,-1.19127 -2.2489,-2.16594 -2.33648,-2.16594 -0.14519,0 0.45495,2.87616 1.12218,5.378 l 0.27,1.01237 0.71197,-0.45956 c 0.39158,-0.25276 1.09393,-0.71592 1.56077,-1.02925 z m 39.88951,-1.94545 c -0.0837,-0.0936 -4.15701,1.00575 -4.33132,1.16896 -0.058,0.0543 0.41714,0.56261 1.05593,1.12948 l 1.16144,1.03069 1.09572,-1.62127 c 0.60265,-0.89169 1.06086,-1.66023 1.01823,-1.70786 z m -131.748071,1.34337 c 1.21826,-0.98226 2.19133,-1.87464 2.16238,-1.98306 -0.10641,-0.39855 -2.95262,-2.56445 -3.1242,-2.37745 -0.0976,0.10633 -0.43471,1.32442 -0.7492,2.70687 -0.3145,1.38244 -0.6333,2.7219 -0.70846,2.97656 -0.0752,0.25466 -0.0599,0.46302 0.0339,0.46302 0.0938,0 1.16731,-0.80367 2.38556,-1.78594 z m 88.944261,1.42699 c -0.0758,-0.19741 -0.4101,-1.56663 -0.74298,-3.0427 -0.33289,-1.47607 -0.73722,-2.68377 -0.89852,-2.68377 -0.1613,0 -0.9161,0.56555 -1.67733,1.25677 l -1.38405,1.25677 2.19356,1.76824 c 2.21509,1.78559 2.76066,2.09969 2.50932,1.44469 z M 49.929369,63.808599 c -0.006,-0.25466 -0.22295,-1.34206 -0.48187,-2.41645 l -0.47075,-1.95342 -1.7671,1.65303 c -0.9719,0.90917 -1.76709,1.73113 -1.76709,1.82659 0,0.13862 3.49957,1.21827 4.29948,1.32643 0.10914,0.0148 0.19343,-0.18152 0.18733,-0.43618 z m 33.85102,-1.85209 c 0.1749,-1.2733 0.38995,-2.79135 0.47788,-3.37343 l 0.15986,-1.05834 -2.02529,2.48747 c -1.1139,1.3681 -2.0248,2.55873 -2.0242,2.64583 0.001,0.20705 2.42594,1.59615 2.8031,1.60599 0.16612,0.004 0.42687,-0.98424 0.60865,-2.30752 z m 101.622811,1.5875 c 0.72558,-0.40018 1.32049,-0.78713 1.32203,-0.85989 0.002,-0.0728 -0.88973,-1.24914 -1.98057,-2.61417 -1.09084,-1.36504 -1.98473,-2.31754 -1.98642,-2.11667 -0.009,1.03273 0.9162,6.31834 1.10562,6.31834 0.12105,0 0.81375,-0.32742 1.53934,-0.72761 z m 34.75436,-0.087 c 0.99538,-0.25727 1.8631,-0.52108 1.92826,-0.58624 0.0652,-0.0652 -0.73881,-0.91219 -1.7866,-1.88229 -1.04779,-0.9701 -1.98988,-1.67003 -2.09353,-1.55542 -0.20127,0.22256 -1.04854,3.85234 -1.04854,4.49201 0,0.27669 0.1644,0.32943 0.59531,0.19098 0.32742,-0.10519 1.40972,-0.40176 2.4051,-0.65904 z M 53.115479,62.136669 c 0,-0.11209 -0.83663,-0.81231 -1.85916,-1.55604 -2.07217,-1.50717 -1.92545,-1.62371 -1.31585,1.0452 0.11634,0.50932 0.28389,1.24798 0.37233,1.64148 l 0.16082,0.71544 1.32093,-0.82114 c 0.72651,-0.45162 1.32093,-0.91284 1.32093,-1.02494 z m 33.26333,-0.30409 2.18585,-2.17449 -1.76109,-1.13311 c -0.9686,-0.6232 -1.79637,-1.09783 -1.83948,-1.05471 -0.16745,0.16745 -1.06743,6.53681 -0.92364,6.53681 0.0839,0 1.13615,-0.97853 2.33836,-2.1745 z m 96.544271,0.65314 c -0.31488,-2.72685 -0.74038,-4.82864 -0.97754,-4.82864 -0.33618,0 -3.15298,1.83391 -3.15298,2.05279 0,0.19333 4.00857,4.29721 4.19741,4.29721 0.0598,0 0.0297,-0.68461 -0.0669,-1.52136 z m 34.19041,-0.80582 c 0.278,-1.19391 0.42877,-2.17074 0.33504,-2.17074 -0.0937,0 -0.97723,0.58819 -1.96332,1.30709 l -1.7929,1.3071 1.40169,0.90555 c 0.77093,0.49806 1.42697,0.8867 1.45786,0.86365 0.0309,-0.023 0.28363,-1.01875 0.56163,-2.21265 z M 79.309229,58.693359 c 0,-1.9039 -0.10545,-3.42195 -0.23433,-3.37344 -0.29573,0.11131 -4.29679,5.03798 -4.18348,5.15129 0.17082,0.17082 3.76835,1.62785 4.08708,1.6553 0.24918,0.0215 0.33073,-0.82504 0.33073,-3.43315 z m 2.74692,0.82165 c 1.10045,-1.37923 1.91484,-2.59279 1.80976,-2.69679 -0.24259,-0.24008 -4.06615,-1.8706 -4.12329,-1.75832 -0.0831,0.16328 0.14019,7.13884 0.22572,7.05157 0.0478,-0.0488 0.98735,-1.21723 2.08781,-2.59646 z m 108.144841,1.801 c 1.80253,-0.73699 2.01379,-0.89272 1.73792,-1.28106 -1.26194,-1.77641 -4.02784,-4.96805 -4.06985,-4.69629 -0.21231,1.37373 -0.1971,6.81633 0.019,6.81633 0.1435,0 1.18429,-0.37754 2.31288,-0.83898 z m -2.94176,-2.86874 v -3.44313 l -0.85989,0.36355 c -2.51123,1.0617 -3.36009,1.5657 -3.1725,1.88364 0.42887,0.72688 3.64815,4.60926 3.83395,4.62368 0.10914,0.008 0.19844,-1.53401 0.19844,-3.42774 z m -133.210581,1.92178 c 0.0945,-0.69122 0.26822,-1.91161 0.386,-2.71197 0.11777,-0.80037 0.17073,-1.50089 0.11768,-1.55671 -0.0967,-0.10175 -3.25435,1.72299 -4.17761,2.41415 -0.45779,0.34271 -0.36632,0.46247 1.32292,1.73203 0.99809,0.75012 1.89671,1.36733 1.99694,1.37157 0.10022,0.004 0.25956,-0.55784 0.35407,-1.24907 z m 4.35849,-0.60019 c 0,-0.0888 -0.7425,-1.0436 -1.65,-2.12171 l -1.65,-1.9602 -0.31124,2.24183 c -0.17118,1.23301 -0.32164,2.55535 -0.33437,2.93853 l -0.0231,0.6967 1.98437,-0.81682 c 1.09141,-0.44925 1.98438,-0.8895 1.98438,-0.97833 z m 153.952101,-1.02616 c -0.18349,-1.47022 -0.42016,-2.67312 -0.52594,-2.67312 -0.21197,0 -3.14282,3.46052 -3.14282,3.7108 0,0.16238 3.77341,1.79123 3.91941,1.69189 0.0456,-0.031 -0.0672,-1.25935 -0.25065,-2.72957 z m 3.13445,1.39478 2.01255,-1.48835 -0.61498,-0.46388 c -0.93925,-0.70847 -4.24883,-2.45165 -4.38885,-2.31163 -0.0681,0.0681 0.002,1.00321 0.15575,2.07809 0.45516,3.18237 0.54732,3.67412 0.6886,3.67412 0.0739,0 1.04003,-0.66976 2.14693,-1.48835 z M 73.810939,56.799169 c -0.0652,-1.76307 -0.21882,-3.04266 -0.35509,-2.95844 -0.13208,0.0816 -1.12636,1.31864 -2.20952,2.7489 l -1.96936,2.60048 2.17186,0.51024 c 1.19452,0.28062 2.24052,0.44171 2.32445,0.35796 0.0839,-0.0837 0.10088,-1.55036 0.0377,-3.25914 z m 123.760961,2.39414 c 0.11855,-0.0446 -0.75433,-1.32996 -1.93971,-2.85643 l -2.15525,-2.77539 -0.18798,3.03998 c -0.10338,1.67199 -0.14233,3.17462 -0.0865,3.33918 0.0721,0.21278 0.68672,0.15976 2.12769,-0.18355 1.11445,-0.26551 2.12325,-0.51922 2.24179,-0.56379 z m -135.279521,0.0513 c 0.46532,0 0.91506,-0.11169 0.99943,-0.24821 0.12265,-0.19844 -1.52649,-4.64892 -1.85446,-5.00458 -0.0831,-0.0901 -1.23707,3.57522 -1.58789,5.04332 -0.16812,0.70355 -0.15517,0.71196 0.71284,0.46302 0.48623,-0.13945 1.26477,-0.25355 1.73008,-0.25355 z m 14.1885,-1.75708 c 0.99102,-1.23826 1.86277,-2.41011 1.93721,-2.60411 0.13124,-0.34198 -1.22149,-0.84565 -3.58103,-1.33335 l -0.90029,-0.18608 0.17039,1.41896 c 0.0937,0.78043 0.17142,2.22263 0.17268,3.20489 0.001,0.98227 0.0916,1.77809 0.20074,1.7685 0.10914,-0.01 1.00927,-1.03055 2.0003,-2.26881 z m 116.337511,0.10344 c 0.002,-1.20055 0.0794,-2.64598 0.17293,-3.21207 l 0.17001,-1.02926 -0.9776,0.1834 c -0.53769,0.10087 -1.63068,0.38545 -2.42889,0.63238 l -1.45128,0.44899 2.05752,2.57 c 1.13164,1.41351 2.14682,2.57437 2.25596,2.57969 0.10914,0.005 0.19975,-0.97258 0.20135,-2.17313 z m 13.86965,-0.49858 c -0.3886,-1.36289 -0.79367,-2.63987 -0.90017,-2.83774 -0.12339,-0.22927 -0.54816,0.52607 -1.17113,2.08254 -0.53763,1.34326 -0.90327,2.51718 -0.81253,2.60871 0.15488,0.15625 3.33827,0.76186 3.51072,0.66788 0.0438,-0.0239 -0.2383,-1.15849 -0.62689,-2.52139 z m -146.858431,0.23399 c 0.36341,-1.20054 0.74001,-2.50744 0.83689,-2.90421 l 0.17614,-0.72139 -1.41619,0.41436 c -0.7789,0.2279 -1.93229,0.63959 -2.56309,0.91488 l -1.14691,0.50051 1.64552,1.98933 c 0.90504,1.09414 1.68183,1.98934 1.72621,1.98934 0.0444,0 0.37802,-0.98227 0.74143,-2.18282 z m 150.134861,-0.10207 c 0.75451,-0.89288 1.37185,-1.74031 1.37185,-1.88317 0,-0.27043 -3.88887,-1.65278 -4.64966,-1.65278 -0.49887,0 -0.4701,0.18189 0.58141,3.67495 0.54629,1.81477 0.72807,2.15267 0.99638,1.85209 0.1805,-0.20221 0.94551,-1.0982 1.70002,-1.99109 z m -141.645181,1.60138 c -0.0658,-1.64225 -0.48592,-5.16714 -0.62612,-5.25379 -0.10038,-0.062 -0.8497,1.09965 -1.66517,2.58152 l -1.48267,2.69432 1.62726,0.15036 c 1.89918,0.17549 2.15981,0.15456 2.1467,-0.17241 z m 134.048911,0.069 c 0.18975,-0.0557 -2.73627,-5.46436 -2.95822,-5.46824 -0.16705,-0.003 -0.76431,5.3286 -0.62415,5.57151 0.0731,0.12672 3.09532,0.0396 3.58237,-0.10327 z m -136.681811,-3.19611 1.53637,-2.88459 -2.04204,0.18505 c -1.12313,0.10178 -2.32925,0.29424 -2.68028,0.4277 l -0.63822,0.24265 0.79572,1.8699 c 0.43764,1.02844 0.91373,2.18032 1.05798,2.55973 0.14425,0.37941 0.30094,0.64355 0.34819,0.58699 0.0472,-0.0566 0.77728,-1.4009 1.62228,-2.98743 z m 5.27569,0.35385 c 1.12801,-1.46467 1.98641,-2.72756 1.90755,-2.80642 -0.0789,-0.0789 -1.17846,-0.20796 -2.44356,-0.28689 l -2.30019,-0.1435 0.16772,1.49471 c 0.0922,0.82209 0.24096,2.14956 0.33049,2.94992 0.0895,0.80037 0.19074,1.45521 0.22491,1.45521 0.0342,0 0.98507,-1.19836 2.11308,-2.66303 z m 127.790281,-1.54284 0.1882,-1.95691 -1.24738,0.17098 c -0.68606,0.094 -1.61772,0.17279 -2.07036,0.17502 -1.72856,0.008 -1.68218,0.28968 0.52895,3.20674 l 2.07868,2.74233 0.16686,-1.19062 c 0.0918,-0.65484 0.25155,-2.07124 0.35505,-3.14754 z m 5.53331,1.35978 c 0.53088,-1.34708 0.96523,-2.49624 0.96523,-2.55371 0,-0.0575 -0.74414,-0.18064 -1.65365,-0.27372 -0.9095,-0.0931 -2.11123,-0.23617 -2.67051,-0.31799 -0.77509,-0.11339 -0.99528,-0.0636 -0.92605,0.2094 0.2013,0.79373 3.00866,5.74644 3.1586,5.57235 0.0886,-0.10291 0.59551,-1.28926 1.12638,-2.63633 z M 137.65526,45.466661 c 0.87015,-0.883927 1.97897,-1.995225 2.46403,-2.46955 0.86123,-0.842156 0.8747,-0.889307 0.57356,-2.007655 l -0.30838,-1.145246 -2.94377,2.94377 -2.94377,2.94377 0.63039,0.671025 c 0.34672,0.369065 0.70137,0.671026 0.78812,0.671026 0.0867,0 0.86967,-0.723213 1.73982,-1.60714 z m -0.90368,-1.48407 c 0.78509,-0.827041 1.7431,-1.839072 2.12891,-2.248958 0.84786,-0.900779 0.99357,-0.923578 0.95828,-0.149936 -0.0287,0.628547 -2.21621,3.108854 -2.74188,3.108854 -0.16956,0 -0.4565,0.178594 -0.63766,0.396875 -0.18116,0.218281 -0.51067,0.396875 -0.73224,0.396875 -0.24057,0 0.17218,-0.605762 1.02459,-1.50371 z m 0.57143,-2.667226 3.36969,-3.377186 -3.43965,-3.432017 -3.43965,-3.432018 -3.43966,3.432018 -3.43965,3.432017 3.36969,3.377186 c 1.85333,1.857452 3.43266,3.377186 3.50962,3.377186 0.0769,0 1.65628,-1.519734 3.50961,-3.377186 z m -5.22941,0.09327 c -3.19448,-1.419798 -3.15837,-6.09548 0.0576,-7.46581 2.75889,-1.175548 5.6309,0.731133 5.6309,3.738266 0,3.035139 -2.92864,4.954193 -5.68855,3.727544 z"
       id="path895"
       inkscape:export-filename="C:\Users\logie\Documents\koding\_GRAFIKI\dnd5eSpells\spell icons\necromancy.png"
       inkscape:export-xdpi="96"
       inkscape:export-ydpi="96" />
  </g>
</svg>
